<svg xmlns="http://www.w3.org/2000/svg" viewBox="0 0 181.42 28.35"><defs><style>.a{fill:#9ca299;}.b{fill:#efeff0;}.c{fill:#fff;}</style></defs><title>wss-risk-grade-5</title><polygon class="a" points="96.98 28.1 107.72 17.36 118.45 28.1 96.98 28.1"/><path class="b" d="M107.72,17.71l10.13,10.14H97.59l10.13-10.14m0-.7L96.38,28.35h22.68L107.72,17Z"/><path class="c" d="M107.92,26.5a1.12,1.12,0,0,1-1.28-1.21v-3.1h-.93v-1h.93V20l1.32-.39V21.2h1.61l-.38,1H108V24.8c0,.41.15.6.49.6a1.73,1.73,0,0,0,.87-.29l.35.83A3.16,3.16,0,0,1,107.92,26.5Z"/></svg>