<svg xmlns="http://www.w3.org/2000/svg" viewBox="0 0 181.42 28.35"><defs><style>.a{fill:#9ca299;}.b{fill:#efeff0;}.c{fill:#fff;}.d{fill:#00a1c1;}</style></defs><title>close-managed-balanced-fund</title><polygon class="a" points="91.31 28.1 102.05 17.36 112.78 28.1 91.31 28.1"/><path class="b" d="M102.05,17.71l10.13,10.14H91.92l10.13-10.14m0-.7L90.71,28.35h22.68L102.05,17Z"/><path class="c" d="M102.25,26.5A1.12,1.12,0,0,1,101,25.29v-3.1H100v-1H101V20l1.32-.39V21.2h1.61l-.38,1h-1.23V24.8c0,.41.15.6.49.6a1.73,1.73,0,0,0,.87-.29l.35.83A3.16,3.16,0,0,1,102.25,26.5Z"/><polygon class="d" points="85.64 0.25 107.11 0.25 96.38 10.98 85.64 0.25"/><path class="b" d="M106.51.5,96.38,10.63,86.25.5h20.26m1.21-.5H85L96.38,11.34,107.72,0Z"/><path class="c" d="M96.28,7.28a3.53,3.53,0,0,1-1.92-.49l.42-1a2.57,2.57,0,0,0,1.4.46c.54,0,.89-.2.89-.55,0-.94-2.4-.58-2.4-2.35,0-.9.72-1.54,2-1.54a4.05,4.05,0,0,1,1.53.26v1.1a4.06,4.06,0,0,0-1.47-.34c-.46,0-.74.14-.74.45,0,.83,2.44.55,2.44,2.34C98.4,6.83,97.38,7.28,96.28,7.28Z"/></svg>