<svg xmlns="http://www.w3.org/2000/svg" viewBox="0 0 181.42 28.35"><defs><style>.a{fill:#9ca299;}.b{fill:#efeff0;}.c{fill:#fff;}.d{fill:#00a1c1;}</style></defs><title>cmps-1</title><polygon class="a" points="31.79 28.1 42.52 17.36 53.26 28.1 31.79 28.1"/><path class="b" d="M42.52,17.71,52.65,27.85H32.39L42.52,17.71m0-.7L31.18,28.35H53.86L42.52,17Z"/><path class="c" d="M42.73,26.5a1.12,1.12,0,0,1-1.29-1.21v-3.1h-.92v-1h.92V20l1.32-.39V21.2h1.61l-.38,1H42.76V24.8c0,.41.15.6.49.6a1.73,1.73,0,0,0,.87-.29l.35.83A3.16,3.16,0,0,1,42.73,26.5Z"/><polygon class="d" points="28.95 0.25 50.42 0.25 39.69 10.98 28.95 0.25"/><path class="b" d="M49.82.5,39.69,10.63,29.55.5H49.82M51,0H28.35L39.69,11.34,51,0Z"/><path class="c" d="M39.59,7.28a3.57,3.57,0,0,1-1.93-.49l.43-1a2.57,2.57,0,0,0,1.4.46c.54,0,.89-.2.89-.55,0-.94-2.4-.58-2.4-2.35,0-.9.72-1.54,2-1.54a4.05,4.05,0,0,1,1.53.26v1.1A4.12,4.12,0,0,0,40,2.87c-.46,0-.73.14-.73.45,0,.83,2.44.55,2.44,2.34C41.71,6.83,40.68,7.28,39.59,7.28Z"/></svg>