<svg xmlns="http://www.w3.org/2000/svg" viewBox="0 0 181.42 28.35"><defs><style>.a{fill:#9ca299;}.b{fill:#efeff0;}.c{fill:#fff;}</style></defs><title>premier-managed-portfolio-service-income-and-growth-portfolio</title><polygon class="a" points="57.3 28.1 68.03 17.36 78.77 28.1 57.3 28.1"/><path class="b" d="M68,17.71,78.16,27.85H57.9L68,17.71m0-.7L56.69,28.35H79.37L68,17Z"/><path class="c" d="M68.24,26.5A1.12,1.12,0,0,1,67,25.29v-3.1H66v-1H67V20l1.32-.39V21.2h1.62l-.39,1H68.27V24.8c0,.41.15.6.49.6a1.73,1.73,0,0,0,.87-.29l.35.83A3.13,3.13,0,0,1,68.24,26.5Z"/></svg>