<svg xmlns="http://www.w3.org/2000/svg" viewBox="0 0 181.42 28.35"><defs><style>.a{fill:#9ca299;}.b{fill:#efeff0;}.c{fill:#fff;}</style></defs><title>risk-profiled-premier-multi-asset-growth-income-fund</title><polygon class="a" points="94.15 28.1 104.88 17.36 115.62 28.1 94.15 28.1"/><path class="b" d="M104.88,17.71,115,27.85H94.75l10.13-10.14m0-.7L93.54,28.35h22.68L104.88,17Z"/><path class="c" d="M105.09,26.5a1.12,1.12,0,0,1-1.29-1.21v-3.1h-.92v-1h.92V20l1.32-.39V21.2h1.62l-.39,1h-1.23V24.8c0,.41.15.6.49.6a1.69,1.69,0,0,0,.87-.29l.35.83A3.13,3.13,0,0,1,105.09,26.5Z"/></svg>