<svg xmlns="http://www.w3.org/2000/svg" viewBox="0 0 181.42 28.35"><defs><style>.a{fill:#9ca299;}.b{fill:#efeff0;}.c{fill:#fff;}</style></defs><title>single-strategy-premier-diversified-cautious-growth-fund</title><polygon class="a" points="68.64 28.1 79.37 17.36 90.11 28.1 68.64 28.1"/><path class="b" d="M79.37,17.71,89.5,27.85H69.24L79.37,17.71m0-.7L68,28.35H90.71L79.37,17Z"/><path class="c" d="M79.58,26.5a1.12,1.12,0,0,1-1.29-1.21v-3.1h-.92v-1h.92V20l1.32-.39V21.2h1.61l-.38,1H79.61V24.8c0,.41.15.6.49.6a1.73,1.73,0,0,0,.87-.29l.35.83A3.16,3.16,0,0,1,79.58,26.5Z"/></svg>