<svg xmlns="http://www.w3.org/2000/svg" viewBox="0 0 181.42 28.35"><defs><style>.a{fill:#9ca299;}.b{fill:#efeff0;}.c{fill:#fff;}</style></defs><title>single-strategy-premier-uk-money-market-fund</title><polygon class="a" points="6.27 28.1 17.01 17.36 27.74 28.1 6.27 28.1"/><path class="b" d="M17,17.71,27.14,27.85H6.88L17,17.71m0-.7L5.67,28.35H28.35L17,17Z"/><path class="c" d="M17.21,26.5a1.12,1.12,0,0,1-1.28-1.21v-3.1H15v-1h.92V20l1.32-.39V21.2h1.61l-.38,1H17.25V24.8c0,.41.15.6.49.6a1.73,1.73,0,0,0,.87-.29l.35.83A3.16,3.16,0,0,1,17.21,26.5Z"/></svg>