<svg xmlns="http://www.w3.org/2000/svg" viewBox="0 0 181.42 28.35"><defs><style>.a{fill:#9ca299;}.b{fill:#efeff0;}.c{fill:#fff;}</style></defs><title>risk-profiled-premier-multi-asset-conservative-growth</title><polygon class="a" points="23.28 28.1 34.02 17.36 44.75 28.1 23.28 28.1"/><path class="b" d="M34,17.71,44.15,27.85H23.88L34,17.71m0-.7L22.68,28.35H45.35L34,17Z"/><path class="c" d="M34.22,26.5a1.12,1.12,0,0,1-1.28-1.21v-3.1H32v-1h.93V20l1.31-.39V21.2h1.62l-.39,1H34.25V24.8c0,.41.16.6.5.6a1.73,1.73,0,0,0,.87-.29l.35.83A3.16,3.16,0,0,1,34.22,26.5Z"/></svg>