<svg xmlns="http://www.w3.org/2000/svg" viewBox="0 0 181.42 28.35"><defs><style>.a{fill:#9ca299;}.b{fill:#efeff0;}.c{fill:#fff;}.d{fill:#00a1c1;}</style></defs><title>vitality-investec-multi-asset-growth</title><polygon class="a" points="94.15 28.1 104.88 17.36 115.62 28.1 94.15 28.1"/><path class="b" d="M104.88,17.71,115,27.85H94.75l10.13-10.14m0-.7L93.54,28.35h22.68L104.88,17Z"/><path class="c" d="M105.09,26.5a1.12,1.12,0,0,1-1.29-1.21v-3.1h-.92v-1h.92V20l1.32-.39V21.2h1.62l-.39,1h-1.23V24.8c0,.41.15.6.49.6a1.69,1.69,0,0,0,.87-.29l.35.83A3.13,3.13,0,0,1,105.09,26.5Z"/><polygon class="d" points="102.65 0.25 124.12 0.25 113.39 10.98 102.65 0.25"/><path class="b" d="M123.52.5,113.39,10.63,103.25.5h20.27m1.2-.5H102.05l11.34,11.34L124.72,0Z"/><path class="c" d="M113.29,7.28a3.57,3.57,0,0,1-1.93-.49l.43-1a2.57,2.57,0,0,0,1.4.46c.54,0,.89-.2.89-.55,0-.94-2.4-.58-2.4-2.35,0-.9.72-1.54,2-1.54a4.05,4.05,0,0,1,1.53.26v1.1a4.12,4.12,0,0,0-1.48-.34c-.46,0-.73.14-.73.45,0,.83,2.44.55,2.44,2.34C115.41,6.83,114.39,7.28,113.29,7.28Z"/></svg>