<svg xmlns="http://www.w3.org/2000/svg" viewBox="0 0 181.42 28.35"><defs><style>.a{fill:#9ca299;}.b{fill:#efeff0;}.c{fill:#fff;}</style></defs><title>cra-6-passive-blend-managed-portfolio</title><polygon class="a" points="82.81 28.1 93.54 17.36 104.28 28.1 82.81 28.1"/><path class="b" d="M93.54,17.71l10.13,10.14H83.41L93.54,17.71m0-.7L82.2,28.35h22.68L93.54,17Z"/><path class="c" d="M93.75,26.5a1.12,1.12,0,0,1-1.29-1.21v-3.1h-.92v-1h.92V20l1.32-.39V21.2H95.4l-.39,1H93.78V24.8c0,.41.16.6.5.6a1.66,1.66,0,0,0,.86-.29l.36.83A3.19,3.19,0,0,1,93.75,26.5Z"/></svg>