<svg xmlns="http://www.w3.org/2000/svg" viewBox="0 0 181.42 28.35"><defs><style>.a{fill:#00a1c1;}.b{fill:#efeff0;}.c{fill:#fff;}</style></defs><title>carmignac-ptf-unconstrained-euro-fixed-income</title><polygon class="a" points="28.95 0.25 50.42 0.25 39.69 10.98 28.95 0.25"/><path class="b" d="M49.82.5,39.69,10.63,29.55.5H49.82M51,0H28.35L39.69,11.34,51,0Z"/><path class="c" d="M39.59,7.28a3.57,3.57,0,0,1-1.93-.49l.43-1a2.57,2.57,0,0,0,1.4.46c.54,0,.89-.2.89-.55,0-.94-2.4-.58-2.4-2.35,0-.9.72-1.54,2-1.54a4.05,4.05,0,0,1,1.53.26v1.1A4.12,4.12,0,0,0,40,2.87c-.46,0-.73.14-.73.45,0,.83,2.44.55,2.44,2.34C41.71,6.83,40.68,7.28,39.59,7.28Z"/></svg>