<svg xmlns="http://www.w3.org/2000/svg" viewBox="0 0 181.42 28.35"><defs><style>.a{fill:#9ca299;}.b{fill:#efeff0;}.c{fill:#fff;}.d{fill:#00a1c1;}</style></defs><title>balanced-index</title><polygon class="a" points="79.97 28.1 90.71 17.36 101.44 28.1 79.97 28.1"/><path class="b" d="M90.71,17.71l10.13,10.14H80.58L90.71,17.71m0-.7L79.37,28.35h22.68L90.71,17Z"/><path class="c" d="M90.91,26.5a1.12,1.12,0,0,1-1.28-1.21v-3.1h-.92v-1h.92V20L91,19.61V21.2h1.61l-.38,1H91V24.8c0,.41.15.6.49.6a1.73,1.73,0,0,0,.87-.29l.35.83A3.16,3.16,0,0,1,90.91,26.5Z"/><polygon class="d" points="79.97 0.25 101.44 0.25 90.71 10.98 79.97 0.25"/><path class="b" d="M100.84.5,90.71,10.63,80.58.5h20.26m1.21-.5H79.37L90.71,11.34,102.05,0Z"/><path class="c" d="M90.61,7.28a3.53,3.53,0,0,1-1.92-.49l.43-1a2.51,2.51,0,0,0,1.39.46c.54,0,.89-.2.89-.55C91.4,4.8,89,5.16,89,3.39c0-.9.71-1.54,2-1.54a4.05,4.05,0,0,1,1.53.26v1.1A4.06,4.06,0,0,0,91,2.87c-.46,0-.74.14-.74.45,0,.83,2.44.55,2.44,2.34C92.73,6.83,91.71,7.28,90.61,7.28Z"/></svg>