<svg xmlns="http://www.w3.org/2000/svg" viewBox="0 0 181.42 28.35"><defs><style>.a{fill:#9ca299;}.b{fill:#efeff0;}.c{fill:#fff;}.d{fill:#00a1c1;}</style></defs><title>quilter-investors-cirilium-moderate-blend-portfolio</title><polygon class="a" points="74.31 28.1 85.04 17.36 95.77 28.1 74.31 28.1"/><path class="b" d="M85,17.71,95.17,27.85H74.91L85,17.71m0-.7L73.7,28.35H96.38L85,17Z"/><path class="c" d="M85.24,26.5A1.12,1.12,0,0,1,84,25.29v-3.1H83v-1H84V20l1.32-.39V21.2h1.61l-.38,1H85.28V24.8c0,.41.15.6.49.6a1.73,1.73,0,0,0,.87-.29l.35.83A3.16,3.16,0,0,1,85.24,26.5Z"/><polygon class="d" points="82.81 0.25 104.28 0.25 93.54 10.98 82.81 0.25"/><path class="b" d="M103.67.5,93.54,10.63,83.41.5h20.26m1.21-.5H82.2L93.54,11.34,104.88,0Z"/><path class="c" d="M93.44,7.28a3.56,3.56,0,0,1-1.92-.49l.43-1a2.54,2.54,0,0,0,1.4.46c.53,0,.89-.2.89-.55,0-.94-2.4-.58-2.4-2.35,0-.9.71-1.54,2-1.54a4,4,0,0,1,1.52.26v1.1a4.06,4.06,0,0,0-1.47-.34c-.46,0-.73.14-.73.45,0,.83,2.43.55,2.43,2.34C95.56,6.83,94.54,7.28,93.44,7.28Z"/></svg>