<svg xmlns="http://www.w3.org/2000/svg" viewBox="0 0 181.42 28.35"><defs><style>.a{fill:#9ca299;}.b{fill:#efeff0;}.c{fill:#fff;}.d{fill:#00a1c1;}</style></defs><title>quilter-investors-cirilium-conservative-portfolio</title><polygon class="a" points="40.29 28.1 51.02 17.36 61.76 28.1 40.29 28.1"/><path class="b" d="M51,17.71,61.16,27.85H40.89L51,17.71m0-.7L39.69,28.35H62.36L51,17Z"/><path class="c" d="M51.23,26.5a1.12,1.12,0,0,1-1.29-1.21v-3.1H49v-1h.92V20l1.32-.39V21.2h1.62l-.39,1H51.26V24.8c0,.41.16.6.5.6a1.66,1.66,0,0,0,.86-.29l.36.83A3.19,3.19,0,0,1,51.23,26.5Z"/><polygon class="d" points="40.29 0.25 61.76 0.25 51.02 10.98 40.29 0.25"/><path class="b" d="M61.16.5,51,10.63,40.89.5H61.16m1.2-.5H39.69L51,11.34,62.36,0Z"/><path class="c" d="M50.92,7.28A3.56,3.56,0,0,1,49,6.79l.43-1a2.57,2.57,0,0,0,1.4.46c.53,0,.89-.2.89-.55,0-.94-2.4-.58-2.4-2.35,0-.9.71-1.54,2-1.54a4,4,0,0,1,1.52.26v1.1a4.06,4.06,0,0,0-1.47-.34c-.46,0-.73.14-.73.45,0,.83,2.44.55,2.44,2.34C53.05,6.83,52,7.28,50.92,7.28Z"/></svg>