<svg xmlns="http://www.w3.org/2000/svg" viewBox="0 0 181.42 28.35"><defs><style>.a{fill:#00a1c1;}.b{fill:#efeff0;}.c{fill:#fff;}</style></defs><title>bny-mellon-global-dynamic-bond-income</title><polygon class="a" points="45.96 0.25 67.43 0.25 56.69 10.98 45.96 0.25"/><path class="b" d="M66.82.5,56.69,10.63,46.56.5H66.82M68,0H45.35L56.69,11.34,68,0Z"/><path class="c" d="M56.59,7.28a3.56,3.56,0,0,1-1.92-.49l.43-1a2.54,2.54,0,0,0,1.4.46c.53,0,.89-.2.89-.55,0-.94-2.4-.58-2.4-2.35,0-.9.71-1.54,2-1.54a4,4,0,0,1,1.52.26v1.1A4.06,4.06,0,0,0,57,2.87c-.46,0-.73.14-.73.45,0,.83,2.43.55,2.43,2.34C58.71,6.83,57.69,7.28,56.59,7.28Z"/></svg>