<svg xmlns="http://www.w3.org/2000/svg" viewBox="0 0 181.42 28.35"><defs><style>.a{fill:#9ca299;}.b{fill:#efeff0;}.c{fill:#fff;}.d{fill:#00a1c1;}</style></defs><title>sw-balanced-growth-portfolio-6</title><polygon class="a" points="102.65 28.1 113.39 17.36 124.12 28.1 102.65 28.1"/><path class="b" d="M113.39,17.71l10.13,10.14H103.25l10.14-10.14m0-.7L102.05,28.35h22.67L113.39,17Z"/><path class="c" d="M113.59,26.5a1.12,1.12,0,0,1-1.28-1.21v-3.1h-.93v-1h.93V20l1.31-.39V21.2h1.62l-.39,1h-1.23V24.8c0,.41.16.6.5.6a1.73,1.73,0,0,0,.87-.29l.35.83A3.16,3.16,0,0,1,113.59,26.5Z"/><polygon class="d" points="99.82 0.25 121.29 0.25 110.55 10.98 99.82 0.25"/><path class="b" d="M120.68.5,110.55,10.63,100.42.5h20.26m1.21-.5H99.21l11.34,11.34L121.89,0Z"/><path class="c" d="M110.45,7.28a3.56,3.56,0,0,1-1.92-.49l.43-1a2.54,2.54,0,0,0,1.39.46c.54,0,.89-.2.89-.55,0-.94-2.39-.58-2.39-2.35,0-.9.71-1.54,2-1.54a4,4,0,0,1,1.53.26v1.1a4.06,4.06,0,0,0-1.47-.34c-.46,0-.74.14-.74.45,0,.83,2.44.55,2.44,2.34C112.57,6.83,111.55,7.28,110.45,7.28Z"/></svg>