<svg xmlns="http://www.w3.org/2000/svg" viewBox="0 0 181.42 28.35"><defs><style>.a{fill:#9ca299;}.b{fill:#efeff0;}.c{fill:#fff;}.d{fill:#00a1c1;}</style></defs><title>sw-dynamic-growth-portfolio-8</title><polygon class="a" points="131 28.1 141.73 17.36 152.47 28.1 131 28.1"/><path class="b" d="M141.73,17.71l10.13,10.14H131.6l10.13-10.14m0-.7L130.39,28.35h22.68L141.73,17Z"/><path class="c" d="M141.94,26.5a1.12,1.12,0,0,1-1.29-1.21v-3.1h-.92v-1h.92V20l1.32-.39V21.2h1.62l-.39,1H142V24.8c0,.41.15.6.5.6a1.69,1.69,0,0,0,.86-.29l.35.83A3.13,3.13,0,0,1,141.94,26.5Z"/><polygon class="d" points="128.16 0.25 149.63 0.25 138.9 10.98 128.16 0.25"/><path class="b" d="M149,.5,138.9,10.63,128.77.5H149m1.21-.5H127.56L138.9,11.34,150.24,0Z"/><path class="c" d="M138.8,7.28a3.53,3.53,0,0,1-1.92-.49l.42-1a2.57,2.57,0,0,0,1.4.46c.54,0,.89-.2.89-.55,0-.94-2.4-.58-2.4-2.35,0-.9.72-1.54,2-1.54a4.05,4.05,0,0,1,1.53.26v1.1a4.06,4.06,0,0,0-1.47-.34c-.47,0-.74.14-.74.45,0,.83,2.44.55,2.44,2.34C140.92,6.83,139.9,7.28,138.8,7.28Z"/></svg>