<svg xmlns="http://www.w3.org/2000/svg" viewBox="0 0 181.42 28.35"><defs><style>.a{fill:#9ca299;}.b{fill:#efeff0;}.c{fill:#fff;}</style></defs><title>asi-myfolio-multi-manager-income-iv</title><polygon class="a" points="77.14 28.1 87.87 17.36 98.61 28.1 77.14 28.1"/><path class="b" d="M87.87,17.71,98,27.85H77.74L87.87,17.71m0-.7L76.54,28.35H99.21L87.87,17Z"/><path class="c" d="M88.08,26.5a1.12,1.12,0,0,1-1.29-1.21v-3.1h-.92v-1h.92V20l1.32-.39V21.2h1.62l-.39,1H88.11V24.8c0,.41.16.6.5.6a1.66,1.66,0,0,0,.86-.29l.36.83A3.19,3.19,0,0,1,88.08,26.5Z"/></svg>