<svg xmlns="http://www.w3.org/2000/svg" viewBox="0 0 181.42 28.35"><defs><style>.a{fill:#9ca299;}.b{fill:#efeff0;}.c{fill:#fff;}.d{fill:#00a1c1;}</style></defs><title>rsmr-rfolio-defensive</title><polygon class="a" points="37.45 28.1 48.19 17.36 58.92 28.1 37.45 28.1"/><path class="b" d="M48.19,17.71,58.32,27.85H38.06L48.19,17.71m0-.7L36.85,28.35H59.53L48.19,17Z"/><path class="c" d="M48.39,26.5a1.12,1.12,0,0,1-1.28-1.21v-3.1h-.92v-1h.92V20l1.32-.39V21.2H50l-.38,1H48.43V24.8c0,.41.15.6.49.6a1.73,1.73,0,0,0,.87-.29l.35.83A3.16,3.16,0,0,1,48.39,26.5Z"/><polygon class="d" points="31.79 0.25 53.26 0.25 42.52 10.98 31.79 0.25"/><path class="b" d="M52.65.5,42.52,10.63,32.39.5H52.65M53.86,0H31.18L42.52,11.34,53.86,0Z"/><path class="c" d="M42.42,7.28a3.53,3.53,0,0,1-1.92-.49l.43-1a2.54,2.54,0,0,0,1.39.46c.54,0,.89-.2.89-.55,0-.94-2.39-.58-2.39-2.35,0-.9.71-1.54,2-1.54a4.05,4.05,0,0,1,1.53.26v1.1a4.06,4.06,0,0,0-1.47-.34c-.46,0-.74.14-.74.45,0,.83,2.44.55,2.44,2.34C44.54,6.83,43.52,7.28,42.42,7.28Z"/></svg>