<svg xmlns="http://www.w3.org/2000/svg" xmlns:xlink="http://www.w3.org/1999/xlink" viewBox="0 0 74.22 73.93"><defs><style>.a,.f{fill:none;}.b{fill:#fff;}.b,.f{stroke:#76787a;stroke-miterlimit:10;stroke-width:1.37px;}.c{fill:#00b4cd;}.d{clip-path:url(#a);}.e{fill:#9ba298;}.g{fill:#76787a;}</style><clipPath id="a" transform="translate(0 0.28)"><rect class="a" x="0.68" y="0.68" width="72.28" height="72.28" rx="5.46"/></clipPath></defs><rect class="b" x="0.68" y="0.96" width="72.28" height="72.28" rx="5.46"/><path class="c" d="M48.88,53.22c0-1.68-1.35-2.32-2.82-2.32a10.73,10.73,0,0,0-4.7,1.24l-.88-2.57a14,14,0,0,1,6.08-1.46c3.93,0,5.83,2,5.83,4.78,0,5.17-7.07,6.17-8.21,10.78h8.38v2.82H39.87C40.62,57.34,48.88,57.07,48.88,53.22Z" transform="translate(0 0.28)"/><path class="c" d="M54.42,65.32a1.3,1.3,0,1,1,2.59,0,1.3,1.3,0,1,1-2.59,0Z" transform="translate(0 0.28)"/><path class="c" d="M58.71,66.05l.59-1.88a5.39,5.39,0,0,0,2.44.63c2,0,3.13-1.25,3.39-3.79h0a4.51,4.51,0,0,1-2.81.92,3.69,3.69,0,0,1-3.94-4,4.23,4.23,0,0,1,4.45-4.42c2.79,0,4.78,1.85,4.78,6.06,0,4.47-2,7.1-5.82,7.1A7.27,7.27,0,0,1,58.71,66.05ZM65.17,59c0-2.07-1-3.53-2.42-3.53-1.21,0-2,.93-2,2.34s.74,2.28,2,2.28A3.33,3.33,0,0,0,65.17,59Z" transform="translate(0 0.28)"/><g class="d"><path class="e" d="M52.06,23.63a2.11,2.11,0,0,0,2.11-2.11V-.28H50v21.8A2.12,2.12,0,0,0,52.06,23.63Z" transform="translate(0 0.28)"/><path class="e" d="M28.36,7.57v4.88a6.34,6.34,0,0,0,5,6.2,6.33,6.33,0,0,0,4.68,6.05,6.14,6.14,0,0,0,6.12,5.63h16a6.16,6.16,0,0,0,6.12-5.68,6.33,6.33,0,0,0,4.47-5.86,6.36,6.36,0,0,0,3.49-2.24V5.27A5.54,5.54,0,0,0,71.36.42V12.64a2.12,2.12,0,0,1-2.11,2.11h-3.1A2.12,2.12,0,0,1,64,12.64a1.81,1.81,0,0,0-.07-.52,2.11,2.11,0,0,0-4.21.15,2.12,2.12,0,0,1-2.11,2.11,2.11,2.11,0,1,0,0,4.22,6.24,6.24,0,0,0,4-1.47A6.31,6.31,0,0,0,66.15,19h.33a2.1,2.1,0,0,1-2.07,1.74H58a2.11,2.11,0,0,0,0,4.22h3.89a1.92,1.92,0,0,1-1.77,1.17h-16a1.94,1.94,0,0,1-1.78-1.17h4.26a2.11,2.11,0,0,0,0-4.22h-7a2.11,2.11,0,0,1-2.1-1.92h.17a6.3,6.3,0,0,0,4.32-1.72,6.32,6.32,0,0,0,4.12,1.53,2.11,2.11,0,0,0,0-4.22,2.12,2.12,0,0,1-2.11-2.11,2.11,2.11,0,0,0-4.22,0,.28.28,0,0,0,0,.09.28.28,0,0,0,0,.09,2.1,2.1,0,0,1-2.11,2.11h-3.1a2.11,2.11,0,0,1-2.11-2.11V.29a2.12,2.12,0,0,0-.09-.57h-4a2.12,2.12,0,0,0-.09.57v3a2.1,2.1,0,0,1-1.36-2V-.28H22.78V1.28A6.34,6.34,0,0,0,28.36,7.57Z" transform="translate(0 0.28)"/><path class="e" d="M54.85,10.91a2.11,2.11,0,1,0,4.22,0V3.15A2.12,2.12,0,0,1,61.19,1a2.1,2.1,0,0,0,2-1.32H55.87a6.31,6.31,0,0,0-1,3.43Z" transform="translate(0 0.28)"/><path class="e" d="M34,4.33v7.32a2.11,2.11,0,0,0,4.22,0V4.33a2.11,2.11,0,0,1,2.11-2.11,1.89,1.89,0,0,0,.63-.1A2.1,2.1,0,0,0,42.63.05a1.86,1.86,0,0,1,0-.33H36A6.29,6.29,0,0,0,34,4.33Z" transform="translate(0 0.28)"/><path class="e" d="M42.45,7.86A2.12,2.12,0,0,1,44.56,10a2.11,2.11,0,0,0,4.22,0,6.34,6.34,0,0,0-6.33-6.33,2.11,2.11,0,1,0,0,4.22Z" transform="translate(0 0.28)"/><path class="e" d="M65.59,1.5a2.12,2.12,0,0,1-2.11,2.11,2.11,2.11,0,1,0,0,4.22,2.12,2.12,0,0,1,2.11,2.11,2.11,2.11,0,1,0,4.22,0,6.29,6.29,0,0,0-1.63-4.22A6.29,6.29,0,0,0,69.81,1.5a2.09,2.09,0,0,0-1-1.77H66.58A2.08,2.08,0,0,0,65.59,1.5Z" transform="translate(0 0.28)"/></g><rect class="f" x="0.68" y="0.96" width="72.28" height="72.28" rx="5.46"/><path class="c" d="M7.2,38.23H8.47a2.25,2.25,0,0,1,1,.19,1.26,1.26,0,0,1-.22,2.34v0a2.21,2.21,0,0,1,.58.75l.77,1.36h-1L9,41.71c-.23-.42-.4-.61-.51-.64h-.4v1.82H7.2Zm1.23,2.15a1,1,0,0,0,.51-.12.66.66,0,0,0,.33-.61A.67.67,0,0,0,9,39.06a.86.86,0,0,0-.52-.13H8.05v1.45Z" transform="translate(0 0.28)"/><path class="c" d="M11.54,38.23h.85v4.66h-.85Z" transform="translate(0 0.28)"/><path class="c" d="M13.82,41.91a1.85,1.85,0,0,0,1,.34c.39,0,.78-.15.78-.55,0-.92-2-.8-2-2.22a1.35,1.35,0,0,1,1.51-1.29,2.79,2.79,0,0,1,1.14.23v.78a2.45,2.45,0,0,0-1.11-.29c-.33,0-.64.12-.64.5,0,.85,2,.74,2,2.21,0,.83-.71,1.34-1.67,1.34a2.54,2.54,0,0,1-1.4-.4Z" transform="translate(0 0.28)"/><path class="c" d="M17.71,38.23h.84v2h0l1.6-2h1l-1.87,2.26,2,2.4h-1l-1.65-2h0v2h-.84Z" transform="translate(0 0.28)"/><path class="c" d="M23.54,38.23h1.27a2.25,2.25,0,0,1,1,.19,1.2,1.2,0,0,1,.69,1.14,1.22,1.22,0,0,1-.91,1.2v0a2.21,2.21,0,0,1,.58.75l.77,1.36H26l-.67-1.18c-.23-.42-.4-.61-.51-.64h-.4v1.82h-.85Zm1.23,2.15a1,1,0,0,0,.51-.12.66.66,0,0,0,.33-.61.67.67,0,0,0-.31-.59.86.86,0,0,0-.52-.13h-.39v1.45Z" transform="translate(0 0.28)"/><path class="c" d="M29.41,38.21h.67L32,42.89H31l-.45-1.17H28.93l-.44,1.17H27.6ZM30.32,41,30,40.11c-.13-.36-.19-.57-.23-.72h0c0,.16-.11.36-.24.72l-.34.92Z" transform="translate(0 0.28)"/><path class="c" d="M33.3,39H31.94v-.72h3.68l-.23.72H34.15v3.94H33.3Z" transform="translate(0 0.28)"/><path class="c" d="M36.46,38.23h.85v4.66h-.85Z" transform="translate(0 0.28)"/><path class="c" d="M42.08,42.89l-2-2.66-.52-.7h0c0,.18,0,.45,0,.72v2.64h-.85V38.23h.84l1.95,2.55c.21.28.38.51.52.72h0c0-.24,0-.53,0-.78V38.23h.85v4.66Z" transform="translate(0 0.28)"/><path class="c" d="M48.14,42.59a4,4,0,0,1-1.7.37A2.24,2.24,0,0,1,44,40.64a2.39,2.39,0,0,1,2.56-2.45,4.16,4.16,0,0,1,1.35.23v.8a2.76,2.76,0,0,0-1.29-.31,1.56,1.56,0,0,0-1.71,1.68,1.51,1.51,0,0,0,1.59,1.66,2,2,0,0,0,.77-.14V40.63h.86Z" transform="translate(0 0.28)"/><path class="g" d="M7.24,35.9a1.36,1.36,0,0,0,.75.24c.27,0,.55-.11.55-.39,0-.65-1.43-.57-1.43-1.57a1,1,0,0,1,1.07-.91,1.9,1.9,0,0,1,.81.16V34a1.79,1.79,0,0,0-.79-.21c-.23,0-.45.09-.45.36,0,.6,1.43.52,1.43,1.57,0,.58-.5.94-1.18.94a1.81,1.81,0,0,1-1-.28Z" transform="translate(0 0.28)"/><path class="g" d="M10.68,35.29l-1.13-2h.66L11,34.75h0l.77-1.45h.65l-1.13,2v1.3h-.6Z" transform="translate(0 0.28)"/><path class="g" d="M15.37,36.59l-1.43-1.88c-.15-.18-.26-.35-.37-.5h0c0,.13,0,.32,0,.51v1.87H13V33.3h.59l1.38,1.8c.15.2.27.36.37.51h0c0-.17,0-.37,0-.55V33.3h.6v3.29Z" transform="translate(0 0.28)"/><path class="g" d="M17.75,33.28h.48l1.33,3.31H18.9l-.32-.82H17.41l-.31.82h-.63Zm.65,2-.23-.66c-.09-.25-.14-.4-.17-.51h0c0,.12-.08.26-.17.52l-.24.65Z" transform="translate(0 0.28)"/><path class="g" d="M20.11,33.3h.8a1.63,1.63,0,0,1,.74.14,1.06,1.06,0,0,1-.1,1.9,1.88,1.88,0,0,1-.7.12h-.14v1.13h-.6ZM20.89,35a.87.87,0,0,0,.39-.08.53.53,0,0,0,.27-.51.56.56,0,0,0-.26-.51.87.87,0,0,0-.41-.08h-.17V35Z" transform="translate(0 0.28)"/><path class="g" d="M23.59,33.81h-1V33.3h2.61l-.17.51h-.88v2.78h-.6Z" transform="translate(0 0.28)"/><path class="g" d="M25.77,33.3h.6v3.29h-.6Z" transform="translate(0 0.28)"/><path class="g" d="M29.85,36.38a2.08,2.08,0,0,1-1,.26A1.55,1.55,0,0,1,27.14,35a1.66,1.66,0,0,1,1.74-1.71,2.25,2.25,0,0,1,.87.16V34a1.73,1.73,0,0,0-.85-.22A1.1,1.1,0,0,0,27.78,35a1.07,1.07,0,0,0,1.1,1.17,1.63,1.63,0,0,0,.81-.23Z" transform="translate(0 0.28)"/></svg>