<svg xmlns="http://www.w3.org/2000/svg" viewBox="0 0 181.42 28.35"><defs><style>.a{fill:#9ca299;}.b{fill:#efeff0;}.c{fill:#fff;}</style></defs><title>schroder-mm-diversity</title><polygon class="a" points="40.29 28.1 51.02 17.36 61.76 28.1 40.29 28.1"/><path class="b" d="M51,17.71,61.16,27.85H40.89L51,17.71m0-.7L39.69,28.35H62.36L51,17Z"/><path class="c" d="M51.23,26.5a1.12,1.12,0,0,1-1.29-1.21v-3.1H49v-1h.92V20l1.32-.39V21.2h1.62l-.39,1H51.26V24.8c0,.41.16.6.5.6a1.66,1.66,0,0,0,.86-.29l.36.83A3.19,3.19,0,0,1,51.23,26.5Z"/></svg>