<svg xmlns="http://www.w3.org/2000/svg" viewBox="0 0 181.42 28.35"><defs><style>.a{fill:#9ca299;}.b{fill:#efeff0;}.c{fill:#fff;}.d{fill:#00a1c1;}</style></defs><title>hsbc-global-mps-dynamic</title><polygon class="a" points="116.82 28.1 127.56 17.36 138.29 28.1 116.82 28.1"/><path class="b" d="M127.56,17.71l10.13,10.14H117.43l10.13-10.14m0-.7L116.22,28.35H138.9L127.56,17Z"/><path class="c" d="M127.76,26.5a1.12,1.12,0,0,1-1.28-1.21v-3.1h-.92v-1h.92V20l1.32-.39V21.2h1.61l-.38,1H127.8V24.8c0,.41.15.6.49.6a1.73,1.73,0,0,0,.87-.29l.35.83A3.16,3.16,0,0,1,127.76,26.5Z"/><polygon class="d" points="113.99 0.25 135.46 0.25 124.72 10.98 113.99 0.25"/><path class="b" d="M134.86.5,124.72,10.63,114.59.5h20.27m1.2-.5H113.39l11.33,11.34L136.06,0Z"/><path class="c" d="M124.63,7.28a3.57,3.57,0,0,1-1.93-.49l.43-1a2.57,2.57,0,0,0,1.4.46c.53,0,.89-.2.89-.55,0-.94-2.4-.58-2.4-2.35,0-.9.72-1.54,2-1.54a4.05,4.05,0,0,1,1.53.26v1.1A4.17,4.17,0,0,0,125,2.87c-.46,0-.73.14-.73.45,0,.83,2.44.55,2.44,2.34C126.75,6.83,125.72,7.28,124.63,7.28Z"/></svg>