<svg xmlns="http://www.w3.org/2000/svg" viewBox="0 0 181.42 28.35"><defs><style>.a{fill:#9ca299;}.b{fill:#efeff0;}.c{fill:#fff;}</style></defs><title>jupiter-merlin-growth-portfolio</title><polygon class="a" points="119.66 28.1 130.39 17.36 141.13 28.1 119.66 28.1"/><path class="b" d="M130.39,17.71l10.14,10.14H120.26l10.13-10.14m0-.7L119.06,28.35h22.67L130.39,17Z"/><path class="c" d="M130.6,26.5a1.12,1.12,0,0,1-1.29-1.21v-3.1h-.92v-1h.92V20l1.32-.39V21.2h1.62l-.39,1h-1.23V24.8c0,.41.16.6.5.6a1.66,1.66,0,0,0,.86-.29l.36.83A3.19,3.19,0,0,1,130.6,26.5Z"/></svg>