<svg xmlns="http://www.w3.org/2000/svg" viewBox="0 0 181.42 28.35"><defs><style>.a{fill:#9ca299;}.b{fill:#efeff0;}.c{fill:#fff;}</style></defs><title>jupiter-merlin-income-portfolio</title><polygon class="a" points="74.31 28.1 85.04 17.36 95.77 28.1 74.31 28.1"/><path class="b" d="M85,17.71,95.17,27.85H74.91L85,17.71m0-.7L73.7,28.35H96.38L85,17Z"/><path class="c" d="M85.24,26.5A1.12,1.12,0,0,1,84,25.29v-3.1H83v-1H84V20l1.32-.39V21.2h1.61l-.38,1H85.28V24.8c0,.41.15.6.49.6a1.73,1.73,0,0,0,.87-.29l.35.83A3.16,3.16,0,0,1,85.24,26.5Z"/></svg>