<svg xmlns="http://www.w3.org/2000/svg" viewBox="0 0 181.42 28.35"><defs><style>.a{fill:#00a1c1;}.b{fill:#efeff0;}.c{fill:#fff;}</style></defs><title>multi-index-6</title><polygon class="a" points="94.15 0.25 115.62 0.25 104.88 10.98 94.15 0.25"/><path class="b" d="M115,.5,104.88,10.63,94.75.5H115m1.21-.5H93.54l11.34,11.34L116.22,0Z"/><path class="c" d="M104.78,7.28a3.56,3.56,0,0,1-1.92-.49l.43-1a2.54,2.54,0,0,0,1.39.46c.54,0,.89-.2.89-.55,0-.94-2.39-.58-2.39-2.35,0-.9.71-1.54,2-1.54a4,4,0,0,1,1.52.26v1.1a4.06,4.06,0,0,0-1.47-.34c-.46,0-.74.14-.74.45,0,.83,2.44.55,2.44,2.34C106.9,6.83,105.88,7.28,104.78,7.28Z"/></svg>