<svg xmlns="http://www.w3.org/2000/svg" viewBox="0 0 181.42 28.35"><defs><style>.a{fill:#9ca299;}.b{fill:#efeff0;}.c{fill:#fff;}.d{fill:#00a1c1;}</style></defs><title>maf-i</title><polygon class="a" points="34.62 28.1 45.35 17.36 56.09 28.1 34.62 28.1"/><path class="b" d="M45.35,17.71,55.49,27.85H35.22L45.35,17.71m0-.7L34,28.35H56.69L45.35,17Z"/><path class="c" d="M45.56,26.5a1.12,1.12,0,0,1-1.29-1.21v-3.1h-.92v-1h.92V20l1.32-.39V21.2h1.62l-.39,1H45.59V24.8c0,.41.16.6.5.6a1.73,1.73,0,0,0,.87-.29l.35.83A3.16,3.16,0,0,1,45.56,26.5Z"/><polygon class="d" points="34.62 0.25 56.09 0.25 45.35 10.98 34.62 0.25"/><path class="b" d="M55.49.5,45.35,10.63,35.22.5H55.49m1.2-.5H34L45.35,11.34,56.69,0Z"/><path class="c" d="M45.26,7.28a3.57,3.57,0,0,1-1.93-.49l.43-1a2.57,2.57,0,0,0,1.4.46c.53,0,.89-.2.89-.55,0-.94-2.4-.58-2.4-2.35,0-.9.72-1.54,2-1.54a4.05,4.05,0,0,1,1.53.26v1.1a4.17,4.17,0,0,0-1.48-.34c-.46,0-.73.14-.73.45,0,.83,2.44.55,2.44,2.34C47.38,6.83,46.35,7.28,45.26,7.28Z"/></svg>