<svg xmlns="http://www.w3.org/2000/svg" viewBox="0 0 181.42 28.35"><defs><style>.a{fill:#9ca299;}.b{fill:#efeff0;}.c{fill:#fff;}.d{fill:#00a1c1;}</style></defs><title>maf-iv</title><polygon class="a" points="99.82 28.1 110.55 17.36 121.29 28.1 99.82 28.1"/><path class="b" d="M110.55,17.71l10.13,10.14H100.42l10.13-10.14m0-.7L99.21,28.35h22.68L110.55,17Z"/><path class="c" d="M110.76,26.5a1.12,1.12,0,0,1-1.29-1.21v-3.1h-.92v-1h.92V20l1.32-.39V21.2h1.61l-.38,1h-1.23V24.8c0,.41.15.6.49.6a1.73,1.73,0,0,0,.87-.29l.35.83A3.13,3.13,0,0,1,110.76,26.5Z"/><polygon class="d" points="96.98 0.25 118.45 0.25 107.72 10.98 96.98 0.25"/><path class="b" d="M117.85.5,107.72,10.63,97.59.5h20.26m1.21-.5H96.38l11.34,11.34L119.06,0Z"/><path class="c" d="M107.62,7.28a3.59,3.59,0,0,1-1.93-.49l.43-1a2.57,2.57,0,0,0,1.4.46c.54,0,.89-.2.89-.55,0-.94-2.4-.58-2.4-2.35,0-.9.72-1.54,2-1.54a4.05,4.05,0,0,1,1.53.26v1.1A4.11,4.11,0,0,0,108,2.87c-.47,0-.74.14-.74.45,0,.83,2.44.55,2.44,2.34C109.74,6.83,108.72,7.28,107.62,7.28Z"/></svg>