<svg xmlns="http://www.w3.org/2000/svg" viewBox="0 0 181.42 28.35"><defs><style>.a{fill:#00a1c1;}.b{fill:#efeff0;}.c{fill:#fff;}</style></defs><title>premier-pension-portfolio-5</title><polygon class="a" points="6.27 0.25 27.74 0.25 17.01 10.98 6.27 0.25"/><path class="b" d="M27.14.5,17,10.63,6.88.5H27.14M28.35,0H5.67L17,11.34,28.35,0Z"/><path class="c" d="M16.91,7.28A3.53,3.53,0,0,1,15,6.79l.42-1a2.57,2.57,0,0,0,1.4.46c.54,0,.89-.2.89-.55,0-.94-2.4-.58-2.4-2.35,0-.9.72-1.54,2-1.54a4.05,4.05,0,0,1,1.53.26v1.1a4.06,4.06,0,0,0-1.47-.34c-.46,0-.74.14-.74.45,0,.83,2.44.55,2.44,2.34C19,6.83,18,7.28,16.91,7.28Z"/></svg>