<svg xmlns="http://www.w3.org/2000/svg" viewBox="0 0 181.42 28.35"><defs><style>.a{fill:#00a1c1;}.b{fill:#efeff0;}.c{fill:#fff;}</style></defs><title>premier-pension-portfolio-c</title><polygon class="a" points="57.3 0.25 78.77 0.25 68.03 10.98 57.3 0.25"/><path class="b" d="M78.16.5,68,10.63,57.9.5H78.16M79.37,0H56.69L68,11.34,79.37,0Z"/><path class="c" d="M67.93,7.28A3.56,3.56,0,0,1,66,6.79l.43-1a2.54,2.54,0,0,0,1.39.46c.54,0,.89-.2.89-.55,0-.94-2.39-.58-2.39-2.35,0-.9.71-1.54,2-1.54a4,4,0,0,1,1.52.26v1.1a4.06,4.06,0,0,0-1.47-.34c-.46,0-.74.14-.74.45,0,.83,2.44.55,2.44,2.34C70.05,6.83,69,7.28,67.93,7.28Z"/></svg>