<svg xmlns="http://www.w3.org/2000/svg" viewBox="0 0 181.42 28.35"><defs><style>.a{fill:#00a1c1;}.b{fill:#efeff0;}.c{fill:#fff;}</style></defs><title>premier-pension-portfolio-a</title><polygon class="a" points="85.64 0.25 107.11 0.25 96.38 10.98 85.64 0.25"/><path class="b" d="M106.51.5,96.38,10.63,86.25.5h20.26m1.21-.5H85L96.38,11.34,107.72,0Z"/><path class="c" d="M96.28,7.28a3.53,3.53,0,0,1-1.92-.49l.42-1a2.57,2.57,0,0,0,1.4.46c.54,0,.89-.2.89-.55,0-.94-2.4-.58-2.4-2.35,0-.9.72-1.54,2-1.54a4.05,4.05,0,0,1,1.53.26v1.1a4.06,4.06,0,0,0-1.47-.34c-.46,0-.74.14-.74.45,0,.83,2.44.55,2.44,2.34C98.4,6.83,97.38,7.28,96.28,7.28Z"/></svg>