<svg xmlns="http://www.w3.org/2000/svg" viewBox="0 0 181.42 28.35"><defs><style>.a{fill:#9ca299;}.b{fill:#efeff0;}.c{fill:#fff;}.d{fill:#00a1c1;}</style></defs><title>strategy-4</title><polygon class="a" points="77.14 28.1 87.87 17.36 98.61 28.1 77.14 28.1"/><path class="b" d="M87.87,17.71,98,27.85H77.74L87.87,17.71m0-.7L76.54,28.35H99.21L87.87,17Z"/><path class="c" d="M88.08,26.5a1.12,1.12,0,0,1-1.29-1.21v-3.1h-.92v-1h.92V20l1.32-.39V21.2h1.62l-.39,1H88.11V24.8c0,.41.16.6.5.6a1.66,1.66,0,0,0,.86-.29l.36.83A3.19,3.19,0,0,1,88.08,26.5Z"/><polygon class="d" points="88.48 0.25 109.95 0.25 99.21 10.98 88.48 0.25"/><path class="b" d="M109.34.5,99.21,10.63,89.08.5h20.26m1.21-.5H87.87L99.21,11.34,110.55,0Z"/><path class="c" d="M99.11,7.28a3.56,3.56,0,0,1-1.92-.49l.43-1A2.54,2.54,0,0,0,99,6.29c.54,0,.89-.2.89-.55,0-.94-2.39-.58-2.39-2.35,0-.9.71-1.54,2-1.54a4,4,0,0,1,1.52.26v1.1a4.06,4.06,0,0,0-1.47-.34c-.46,0-.73.14-.73.45,0,.83,2.43.55,2.43,2.34C101.23,6.83,100.21,7.28,99.11,7.28Z"/></svg>