<svg xmlns="http://www.w3.org/2000/svg" viewBox="0 0 181.42 28.35"><defs><style>.a{fill:#9ca299;}.b{fill:#efeff0;}.c{fill:#fff;}.d{fill:#00a1c1;}</style></defs><title>multi-manager-income-2</title><polygon class="a" points="68.64 28.1 79.37 17.36 90.11 28.1 68.64 28.1"/><path class="b" d="M79.37,17.71,89.5,27.85H69.24L79.37,17.71m0-.7L68,28.35H90.71L79.37,17Z"/><path class="c" d="M79.58,26.5a1.12,1.12,0,0,1-1.29-1.21v-3.1h-.92v-1h.92V20l1.32-.39V21.2h1.61l-.38,1H79.61V24.8c0,.41.15.6.49.6a1.73,1.73,0,0,0,.87-.29l.35.83A3.16,3.16,0,0,1,79.58,26.5Z"/><polygon class="d" points="57.3 0.25 78.77 0.25 68.03 10.98 57.3 0.25"/><path class="b" d="M78.16.5,68,10.63,57.9.5H78.16M79.37,0H56.69L68,11.34,79.37,0Z"/><path class="c" d="M67.93,7.28A3.56,3.56,0,0,1,66,6.79l.43-1a2.54,2.54,0,0,0,1.39.46c.54,0,.89-.2.89-.55,0-.94-2.39-.58-2.39-2.35,0-.9.71-1.54,2-1.54a4,4,0,0,1,1.52.26v1.1a4.06,4.06,0,0,0-1.47-.34c-.46,0-.74.14-.74.45,0,.83,2.44.55,2.44,2.34C70.05,6.83,69,7.28,67.93,7.28Z"/></svg>