<svg xmlns="http://www.w3.org/2000/svg" xmlns:xlink="http://www.w3.org/1999/xlink" viewBox="0 0 727 211.84"><defs><style>.a,.e{fill:none;}.b{fill:#1d1d1b;}.c{clip-path:url(#a);}.d{fill:#fab630;}.e{stroke:#5c5c5c;stroke-linejoin:round;stroke-width:0.85px;}</style><clipPath id="a"><rect class="a" width="727" height="211.84"/></clipPath></defs><rect class="b" x="161.55" y="141.84" width="34.78" height="27.01"/><g class="c"><path d="M210.33,160.48a7.51,7.51,0,0,1-3.15-.67l.58-1.53a5.58,5.58,0,0,0,2.51.54c1.15,0,2.52-.4,2.52-1.69,0-.9-.54-1.63-2.49-1.63h-1.56v-1.57l1.24-.05c1.61,0,2.49-.66,2.49-1.7,0-.78-.63-1.37-1.7-1.37a6.64,6.64,0,0,0-2.77.75l-.5-1.58a8.92,8.92,0,0,1,3.82-.93c2.27,0,3.35,1.37,3.35,2.91A2.57,2.57,0,0,1,213,154.4v0a2.42,2.42,0,0,1,2,2.54c0,1.81-1.46,3.52-4.68,3.52"/><path d="M217.58,160.53a1.21,1.21,0,1,1,1.17-1.2,1.18,1.18,0,0,1-1.17,1.2"/><path d="M220.17,160.32c.49-5.73,5.45-5.81,5.45-8.15,0-1-.78-1.37-1.69-1.37a6,6,0,0,0-2.85.78l-.51-1.6a8.56,8.56,0,0,1,3.76-.93c2.37,0,3.51,1.24,3.51,2.91,0,3.15-4.37,3.78-5.08,6.65l5.18-.11v1.82Z"/><path d="M239.83,155.69c-.72,0-1,.7-1,1.73,0,1.29.43,1.81,1.1,1.81s1-.69,1-1.74c0-1.29-.41-1.8-1.1-1.8m0,4.78c-1.56,0-2.71-1-2.71-3a2.7,2.7,0,0,1,2.77-3c1.56,0,2.71,1,2.71,3a2.7,2.7,0,0,1-2.77,3m-6.49.18h-1.8l7.52-11.79h1.88Zm-.81-10.4c-.72,0-1,.7-1,1.75,0,1.27.42,1.79,1.1,1.79s1-.69,1-1.74c0-1.27-.41-1.8-1.1-1.8m0,4.78c-1.56,0-2.7-1-2.7-3a2.69,2.69,0,0,1,2.76-3c1.56,0,2.71,1,2.71,3a2.7,2.7,0,0,1-2.77,3"/><path d="M670.54,115.21h1l1.73,0,0-2.65c0-.35,0-.78,0-1Zm4.73,1.61v2.8h-2v-2.8h-5v-1.33l5.55-7.15h1.45v6.82h1.67v1.66Z"/><path d="M685.07,110.2l-4.26-.08v2.59c3.65-.19,4.63,1.64,4.63,3.28,0,2-1.46,3.76-4.69,3.76a5.91,5.91,0,0,1-2.83-.62l.59-1.49a4.44,4.44,0,0,0,2.25.49c1.36,0,2.48-.65,2.48-1.93,0-1.1-.66-2-3-1.93h-1.47v-5.83h6.72Z"/><path d="M688,119.8a1.21,1.21,0,1,1,1.17-1.2,1.18,1.18,0,0,1-1.17,1.2"/></g><polygon points="694.75 119.58 694.75 110.45 692.11 111.5 691.53 110.03 695.22 108.34 696.75 108.34 696.75 119.58 694.75 119.58"/><g class="c"><path d="M710.26,115c-.71,0-1,.7-1,1.73,0,1.29.43,1.81,1.1,1.81s1-.69,1-1.75c0-1.28-.41-1.79-1.1-1.79m0,4.78c-1.56,0-2.71-1-2.71-3a2.7,2.7,0,0,1,2.77-3c1.56,0,2.72,1,2.72,3a2.71,2.71,0,0,1-2.78,3m-6.49.18H702l7.52-11.79h1.89Zm-.81-10.4c-.71,0-1,.7-1,1.75,0,1.27.43,1.79,1.1,1.79s1-.69,1-1.74c0-1.27-.41-1.8-1.1-1.8m0,4.78c-1.56,0-2.7-1-2.7-3a2.69,2.69,0,0,1,2.76-3c1.56,0,2.71,1,2.71,3a2.7,2.7,0,0,1-2.77,3"/><path d="M612.22,78.62a7.45,7.45,0,0,1-3.15-.68l.57-1.52a5.78,5.78,0,0,0,2.51.54c1.15,0,2.52-.41,2.52-1.69,0-.9-.54-1.63-2.49-1.63h-1.56V72.06l1.24,0c1.61-.05,2.49-.66,2.49-1.69,0-.78-.63-1.37-1.69-1.37a6.64,6.64,0,0,0-2.78.74l-.49-1.57a8.69,8.69,0,0,1,3.81-.93c2.27,0,3.35,1.37,3.35,2.91a2.59,2.59,0,0,1-1.69,2.44h0a2.41,2.41,0,0,1,2,2.54c0,1.82-1.46,3.53-4.67,3.53"/><path d="M622,68.79a1.8,1.8,0,0,0-1.83,2,1.86,1.86,0,0,0,1.93,2.08,2.78,2.78,0,0,0,2-1c0-2-.85-3.12-2.13-3.12m-1.05,9.83a6.61,6.61,0,0,1-2.46-.49l.53-1.6a4.45,4.45,0,0,0,1.94.46c1.85,0,3-1.15,3.15-3.33h0a4.22,4.22,0,0,1-2.63.86,3.21,3.21,0,0,1-3.3-3.49,3.81,3.81,0,0,1,4-3.84c2.28,0,4.13,1.5,4.13,5.16,0,4-2,6.27-5.3,6.27"/><path d="M628.57,78.67a1.21,1.21,0,0,1,0-2.42,1.21,1.21,0,0,1,0,2.42"/><path d="M634.63,78.48h-2.12a24.59,24.59,0,0,1,4.3-9.57L632,69l-.47-1.72h8V68a23.39,23.39,0,0,0-4.93,10.47"/><path d="M650.82,73.82c-.72,0-1,.7-1,1.73,0,1.29.43,1.81,1.1,1.81s1-.69,1-1.74c0-1.29-.41-1.8-1.1-1.8m0,4.78c-1.56,0-2.71-1-2.71-3a2.7,2.7,0,0,1,2.77-3c1.56,0,2.72,1,2.72,3a2.71,2.71,0,0,1-2.78,3m-6.49.19h-1.8L650.05,67h1.88Zm-.81-10.4c-.71,0-1,.69-1,1.74,0,1.27.43,1.8,1.11,1.8s1-.7,1-1.75c0-1.27-.41-1.79-1.1-1.79m0,4.77c-1.56,0-2.7-1-2.7-3a2.7,2.7,0,0,1,2.77-3c1.55,0,2.7,1,2.7,3a2.69,2.69,0,0,1-2.77,3"/></g><polygon points="309.17 37.72 309.17 28.59 306.53 29.64 305.95 28.16 309.65 26.47 311.17 26.47 311.17 37.72 309.17 37.72"/><g class="c"><path d="M314.13,37.72c.49-5.73,5.45-5.81,5.45-8.15,0-1-.78-1.37-1.69-1.37A6.14,6.14,0,0,0,315,29l-.5-1.6a8.52,8.52,0,0,1,3.76-.93c2.37,0,3.5,1.24,3.5,2.92,0,3.15-4.37,3.77-5.08,6.64l5.18-.11v1.82Z"/><path d="M324.54,37.94a1.22,1.22,0,1,1,1.17-1.21,1.19,1.19,0,0,1-1.17,1.21"/></g><polygon points="331.28 37.72 331.28 28.59 328.64 29.64 328.06 28.16 331.75 26.47 333.28 26.47 333.28 37.72 331.28 37.72"/><g class="c"><path d="M346.79,33.09c-.71,0-1,.7-1,1.73,0,1.29.42,1.81,1.1,1.81s1-.69,1-1.74c0-1.29-.41-1.8-1.1-1.8m0,4.78c-1.56,0-2.71-1-2.71-3a2.71,2.71,0,0,1,2.78-3c1.56,0,2.71,1,2.71,3a2.71,2.71,0,0,1-2.78,3m-6.49.19h-1.79L346,26.27h1.88Zm-.81-10.4c-.71,0-1,.69-1,1.74,0,1.27.42,1.8,1.1,1.8s1-.7,1-1.75c0-1.27-.41-1.79-1.1-1.79m0,4.77c-1.56,0-2.69-1-2.69-3a2.69,2.69,0,0,1,2.76-3c1.55,0,2.71,1,2.71,3a2.7,2.7,0,0,1-2.78,3"/><path d="M154.48,201.51c-1.65,0-2.34,2-2.34,4.32,0,2.93,1,4.57,2.42,4.57,1.63,0,2.34-1.94,2.34-4.28,0-2.93-1-4.61-2.42-4.61m0,10.16c-2.34,0-3.86-2-3.86-5.69s1.63-5.72,4-5.72,3.89,2.05,3.89,5.72-1.64,5.69-4,5.69"/><path d="M169.5,206.66c-.8,0-1.22.73-1.22,2,0,1.45.52,2,1.28,2s1.22-.74,1.22-2c0-1.46-.49-2-1.28-2m0,5c-1.48,0-2.6-1-2.6-3s1.21-3,2.66-3,2.6,1,2.6,3-1.21,3-2.66,3m-6.44.18h-1.49l7.55-11.79h1.51Zm-.44-10.62c-.78,0-1.2.73-1.2,1.95,0,1.47.5,2,1.27,2s1.22-.75,1.22-2c0-1.47-.5-2-1.29-2m0,5c-1.46,0-2.59-1-2.59-3s1.2-3,2.66-3,2.61,1,2.61,3-1.21,3-2.68,3"/><path d="M212.8,201.76l-4.34-.08v3.07c3.49-.22,4.64,1.54,4.64,3.28,0,2-1.38,3.64-4.42,3.64a5.64,5.64,0,0,1-2.49-.51l.46-1.18a4.1,4.1,0,0,0,2.15.46c1.46,0,2.71-.76,2.71-2.24,0-1.3-.83-2.2-3.06-2.2H207v-5.63h6.17Z"/><path d="M224.53,206.66c-.79,0-1.22.73-1.22,2,0,1.45.53,2,1.29,2s1.22-.74,1.22-2c0-1.46-.49-2-1.29-2m0,5c-1.47,0-2.59-1-2.59-3s1.2-3,2.66-3,2.59,1,2.59,3-1.2,3-2.66,3m-6.43.18h-1.49l7.55-11.79h1.51Zm-.44-10.62c-.78,0-1.21.73-1.21,1.95,0,1.47.51,2,1.27,2s1.22-.75,1.22-2c0-1.47-.49-2-1.28-2m0,5c-1.46,0-2.6-1-2.6-3s1.21-3,2.66-3,2.61,1,2.61,3-1.2,3-2.67,3"/></g><polygon points="260.93 200.26 257.54 201.93 257.97 203.07 260.62 201.87 260.62 211.5 262.08 211.5 262.08 200.26 260.93 200.26"/><g class="c"><path d="M269,201.51c-1.64,0-2.34,2-2.34,4.32,0,2.93,1,4.57,2.43,4.57,1.62,0,2.33-1.94,2.33-4.28,0-2.93-1-4.61-2.42-4.61m0,10.16c-2.34,0-3.86-2-3.86-5.69s1.62-5.72,4-5.72S273,202.31,273,206s-1.64,5.69-4,5.69"/><path d="M284,206.66c-.8,0-1.22.73-1.22,2,0,1.45.52,2,1.29,2s1.22-.74,1.22-2c0-1.46-.49-2-1.29-2m0,5c-1.47,0-2.59-1-2.59-3s1.2-3,2.66-3,2.59,1,2.59,3-1.2,3-2.66,3m-6.44.18h-1.49l7.56-11.79h1.5Zm-.44-10.62c-.78,0-1.2.73-1.2,1.95,0,1.47.51,2,1.27,2s1.22-.75,1.22-2c0-1.47-.49-2-1.29-2m0,5c-1.45,0-2.59-1-2.59-3s1.2-3,2.66-3,2.61,1,2.61,3-1.2,3-2.68,3"/></g><polygon points="315.97 200.26 312.58 201.93 313 203.07 315.66 201.87 315.66 211.5 317.12 211.5 317.12 200.26 315.97 200.26"/><g class="c"><path d="M327.35,201.76l-4.34-.08v3.07c3.49-.22,4.64,1.54,4.64,3.28,0,2-1.39,3.64-4.42,3.64a5.64,5.64,0,0,1-2.49-.51l.46-1.18a4.1,4.1,0,0,0,2.15.46c1.46,0,2.71-.76,2.71-2.24,0-1.3-.83-2.2-3.07-2.2h-1.47v-5.63h6.17Z"/><path d="M339.08,206.66c-.8,0-1.22.73-1.22,2,0,1.45.53,2,1.29,2s1.22-.74,1.22-2c0-1.46-.49-2-1.29-2m0,5c-1.47,0-2.59-1-2.59-3s1.2-3,2.66-3,2.59,1,2.59,3-1.2,3-2.66,3m-6.44.18h-1.49l7.56-11.79h1.5Zm-.44-10.62c-.78,0-1.2.73-1.2,1.95,0,1.47.51,2,1.27,2s1.22-.75,1.22-2c0-1.47-.49-2-1.29-2m0,5c-1.45,0-2.59-1-2.59-3s1.2-3,2.66-3,2.61,1,2.61,3-1.2,3-2.68,3"/><path d="M366.62,211.5c.53-6,5.45-5.75,5.45-8.36,0-1.1-.79-1.56-1.82-1.56a5.72,5.72,0,0,0-2.8.79l-.46-1.21a7.24,7.24,0,0,1,3.49-.9c2.17,0,3.22,1.23,3.22,2.76,0,3.4-4.56,3.42-5.23,7.16l5.21-.1v1.42Z"/><path d="M379.1,201.51c-1.65,0-2.34,2-2.34,4.32,0,2.93,1,4.57,2.42,4.57,1.63,0,2.34-1.94,2.34-4.28,0-2.93-1-4.61-2.42-4.61m0,10.16c-2.33,0-3.86-2-3.86-5.69s1.63-5.72,4-5.72,3.89,2.05,3.89,5.72-1.64,5.69-4,5.69"/><path d="M394.11,206.66c-.79,0-1.21.73-1.21,2,0,1.45.52,2,1.28,2s1.22-.74,1.22-2c0-1.46-.49-2-1.29-2m0,5c-1.47,0-2.59-1-2.59-3s1.21-3,2.66-3,2.6,1,2.6,3-1.21,3-2.67,3m-6.43.18h-1.49l7.55-11.79h1.51Zm-.44-10.62c-.78,0-1.2.73-1.2,1.95,0,1.47.5,2,1.27,2s1.22-.75,1.22-2c0-1.47-.49-2-1.29-2m0,5c-1.46,0-2.59-1-2.59-3s1.2-3,2.66-3,2.61,1,2.61,3-1.21,3-2.68,3"/><path d="M421.66,211.5c.52-6,5.45-5.75,5.45-8.36,0-1.1-.79-1.56-1.83-1.56a5.76,5.76,0,0,0-2.8.79l-.45-1.21a7.24,7.24,0,0,1,3.49-.9c2.17,0,3.22,1.23,3.22,2.76,0,3.4-4.56,3.42-5.24,7.16l5.22-.1v1.42Z"/><path d="M437.42,201.76l-4.34-.08v3.07c3.49-.22,4.65,1.54,4.65,3.28,0,2-1.39,3.64-4.43,3.64a5.64,5.64,0,0,1-2.49-.51l.46-1.18a4.1,4.1,0,0,0,2.15.46c1.46,0,2.71-.76,2.71-2.24,0-1.3-.83-2.2-3.06-2.2h-1.48v-5.63h6.17Z"/><path d="M449.15,206.66c-.79,0-1.22.73-1.22,2,0,1.45.53,2,1.29,2s1.22-.74,1.22-2c0-1.46-.49-2-1.29-2m0,5c-1.47,0-2.59-1-2.59-3s1.21-3,2.66-3,2.59,1,2.59,3-1.2,3-2.66,3m-6.43.18h-1.49l7.55-11.79h1.51Zm-.44-10.62c-.78,0-1.21.73-1.21,1.95,0,1.47.51,2,1.27,2s1.22-.75,1.22-2c0-1.47-.49-2-1.28-2m0,5c-1.46,0-2.6-1-2.6-3s1.21-3,2.66-3,2.61,1,2.61,3-1.2,3-2.67,3"/><path d="M479.56,211.67a7.17,7.17,0,0,1-2.92-.59l.44-1.17a5.9,5.9,0,0,0,2.56.53c1.27,0,2.71-.65,2.71-2,0-1.2-.78-1.89-2.79-1.89H478.1v-1.26l1.17,0c2.11-.07,2.79-1,2.79-2s-.73-1.61-1.91-1.61a6.27,6.27,0,0,0-2.8.78l-.39-1.19a7.55,7.55,0,0,1,3.48-.91c2.13,0,3.18,1.28,3.18,2.78a2.79,2.79,0,0,1-1.74,2.6v0A2.43,2.43,0,0,1,484,208.2c0,1.88-1.42,3.47-4.4,3.47"/><path d="M489.17,201.51c-1.64,0-2.34,2-2.34,4.32,0,2.93,1,4.57,2.43,4.57,1.62,0,2.33-1.94,2.33-4.28,0-2.93-1-4.61-2.42-4.61m0,10.16c-2.34,0-3.86-2-3.86-5.69s1.62-5.72,4-5.72,3.9,2.05,3.9,5.72-1.65,5.69-4,5.69"/><path d="M504.19,206.66c-.8,0-1.22.73-1.22,2,0,1.45.52,2,1.29,2s1.22-.74,1.22-2c0-1.46-.49-2-1.29-2m0,5c-1.47,0-2.59-1-2.59-3s1.2-3,2.66-3,2.59,1,2.59,3-1.2,3-2.66,3m-6.44.18h-1.49l7.56-11.79h1.5Zm-.44-10.62c-.78,0-1.2.73-1.2,1.95,0,1.47.51,2,1.27,2s1.22-.75,1.22-2c0-1.47-.49-2-1.29-2m0,5c-1.45,0-2.59-1-2.59-3s1.2-3,2.66-3,2.61,1,2.61,3-1.2,3-2.68,3"/><path d="M534.59,211.67a7.15,7.15,0,0,1-2.91-.59l.44-1.17a5.9,5.9,0,0,0,2.56.53c1.27,0,2.71-.65,2.71-2,0-1.2-.78-1.89-2.8-1.89h-1.45v-1.26l1.16,0c2.12-.07,2.8-1,2.8-2s-.73-1.61-1.92-1.61a6.27,6.27,0,0,0-2.79.78l-.39-1.19a7.54,7.54,0,0,1,3.47-.91c2.14,0,3.19,1.28,3.19,2.78a2.78,2.78,0,0,1-1.75,2.6v0A2.44,2.44,0,0,1,539,208.2c0,1.88-1.43,3.47-4.41,3.47"/><path d="M547.49,201.76l-4.33-.08v3.07c3.49-.22,4.64,1.54,4.64,3.28,0,2-1.39,3.64-4.42,3.64a5.64,5.64,0,0,1-2.49-.51l.46-1.18a4.08,4.08,0,0,0,2.15.46c1.46,0,2.71-.76,2.71-2.24,0-1.3-.83-2.2-3.07-2.2h-1.47v-5.63h6.16Z"/><path d="M559.23,206.66c-.8,0-1.22.73-1.22,2,0,1.45.52,2,1.29,2s1.21-.74,1.21-2c0-1.46-.49-2-1.28-2m0,5c-1.48,0-2.59-1-2.59-3s1.2-3,2.66-3,2.59,1,2.59,3-1.21,3-2.66,3m-6.44.18H551.3l7.55-11.79h1.51Zm-.44-10.62c-.78,0-1.2.73-1.2,1.95,0,1.47.51,2,1.27,2s1.22-.75,1.22-2c0-1.47-.49-2-1.29-2m0,5c-1.46,0-2.59-1-2.59-3s1.2-3,2.66-3,2.61,1,2.61,3-1.21,3-2.68,3"/><path d="M588.26,207.35h1.42l1.88,0,0-3.06c0-.53,0-1.15,0-1.43Zm4.77,1.27v2.92h-1.47v-2.92h-5v-1.11l5.45-7.25h1v7h1.68v1.32Z"/><path d="M599.25,201.51c-1.65,0-2.34,2-2.34,4.32,0,2.93,1,4.57,2.42,4.57,1.63,0,2.34-1.94,2.34-4.28,0-2.93-1-4.61-2.42-4.61m0,10.16c-2.34,0-3.86-2-3.86-5.69s1.63-5.72,4-5.72,3.9,2.05,3.9,5.72-1.64,5.69-4,5.69"/><path d="M614.26,206.66c-.79,0-1.21.73-1.21,2,0,1.45.52,2,1.28,2s1.22-.74,1.22-2c0-1.46-.49-2-1.29-2m0,5c-1.47,0-2.59-1-2.59-3s1.21-3,2.66-3,2.59,1,2.59,3-1.2,3-2.66,3m-6.43.18h-1.49l7.55-11.79h1.51Zm-.44-10.62c-.78,0-1.21.73-1.21,1.95,0,1.47.51,2,1.28,2s1.21-.75,1.21-2c0-1.47-.49-2-1.28-2m0,5c-1.46,0-2.6-1-2.6-3s1.21-3,2.67-3,2.6,1,2.6,3-1.2,3-2.67,3"/><path d="M643.3,207.35h1.42l1.88,0,0-3.06c0-.53,0-1.15,0-1.43Zm4.77,1.27v2.92H646.6v-2.92h-5v-1.11l5.45-7.25h1v7h1.68v1.32Z"/><path d="M657.57,201.76l-4.34-.08v3.07c3.49-.22,4.64,1.54,4.64,3.28,0,2-1.38,3.64-4.42,3.64a5.64,5.64,0,0,1-2.49-.51l.46-1.18a4.1,4.1,0,0,0,2.15.46c1.46,0,2.71-.76,2.71-2.24,0-1.3-.83-2.2-3.06-2.2h-1.48v-5.63h6.17Z"/><path d="M669.3,206.66c-.79,0-1.22.73-1.22,2,0,1.45.53,2,1.29,2s1.22-.74,1.22-2c0-1.46-.49-2-1.29-2m0,5c-1.47,0-2.59-1-2.59-3s1.21-3,2.66-3,2.59,1,2.59,3-1.2,3-2.66,3m-6.43.18h-1.49l7.55-11.79h1.51Zm-.44-10.62c-.78,0-1.21.73-1.21,1.95,0,1.47.51,2,1.27,2s1.22-.75,1.22-2c0-1.47-.49-2-1.28-2m0,5c-1.46,0-2.6-1-2.6-3s1.21-3,2.66-3,2.61,1,2.61,3-1.2,3-2.67,3"/><path d="M703.74,201.76l-4.34-.08v3.07c3.49-.22,4.64,1.54,4.64,3.28,0,2-1.39,3.64-4.42,3.64a5.64,5.64,0,0,1-2.49-.51l.46-1.18a4.1,4.1,0,0,0,2.15.46c1.46,0,2.71-.76,2.71-2.24,0-1.3-.83-2.2-3.07-2.2h-1.47v-5.63h6.17Z"/><path d="M709.32,201.51c-1.64,0-2.34,2-2.34,4.32,0,2.93,1,4.57,2.43,4.57,1.62,0,2.33-1.94,2.33-4.28,0-2.93-1-4.61-2.42-4.61m0,10.16c-2.34,0-3.86-2-3.86-5.69s1.62-5.72,4-5.72,3.9,2.05,3.9,5.72-1.65,5.69-4,5.69"/><path d="M724.34,206.66c-.8,0-1.22.73-1.22,2,0,1.45.53,2,1.29,2s1.22-.74,1.22-2c0-1.46-.5-2-1.29-2m0,5c-1.47,0-2.59-1-2.59-3s1.2-3,2.66-3,2.59,1,2.59,3-1.2,3-2.66,3m-6.44.18h-1.49L724,200.05h1.5Zm-.44-10.62c-.78,0-1.2.73-1.2,1.95,0,1.47.51,2,1.27,2s1.22-.75,1.22-2c0-1.47-.49-2-1.29-2m0,5c-1.45,0-2.59-1-2.59-3s1.2-3,2.66-3,2.61,1,2.61,3-1.2,3-2.68,3"/></g><polygon points="69.2 150.09 66.09 150.09 66.09 159.91 64.56 159.91 64.56 150.09 61.36 150.09 61.36 148.75 69.66 148.75 69.2 150.09"/><g class="c"><path d="M75.7,159.91V155c0-1-.16-2-1.35-2a3.75,3.75,0,0,0-2.29,1.12v5.72H70.57v-12h1.49v4.9a4.38,4.38,0,0,1,2.76-1.12c1.17,0,2.39.69,2.39,3v5.26Z"/><path d="M82.41,152.92a1.93,1.93,0,0,0-1.82,2.13h3.56a1.91,1.91,0,0,0-1.74-2.13m-1.8,3.3a2.44,2.44,0,0,0,2.53,2.59,3.86,3.86,0,0,0,1.94-.56l.43,1a4.61,4.61,0,0,1-2.66.83c-2.61,0-3.81-2.05-3.81-4.28s1.33-4.1,3.38-4.1,3.32,1.64,3.32,4.13v.39Z"/><path d="M101.69,159.91v-5.15c0-1-.2-1.74-1.23-1.74a3.69,3.69,0,0,0-2.34,1.1,2.68,2.68,0,0,1,0,.41v5.38H96.63V154.8c0-1-.22-1.78-1.26-1.78a3.61,3.61,0,0,0-2.32,1.12v5.77h-1.5v-8H92.8l.19.93a4.61,4.61,0,0,1,2.82-1.13,2.06,2.06,0,0,1,2,1.3,4.62,4.62,0,0,1,2.9-1.3,2.29,2.29,0,0,1,2.47,2.59v5.62Z"/><path d="M109.7,156.12l-1.46,0c-1.32.05-1.86.49-1.86,1.3a1.31,1.31,0,0,0,1.47,1.36,2.52,2.52,0,0,0,1.85-.78Zm.42,3.79-.32-.76a3.43,3.43,0,0,1-2.42.93,2.42,2.42,0,0,1-2.51-2.49c0-1.61,1.17-2.56,3.27-2.62l1.56-.05v-.31a1.49,1.49,0,0,0-1.66-1.68,3.47,3.47,0,0,0-2.1.7l-.56-1a4.67,4.67,0,0,1,2.93-.91c1.67,0,2.89.71,2.89,2.78v2.69a9.32,9.32,0,0,0,.17,2.74Z"/><path d="M115.09,149.38a1,1,0,0,1-1,1,1,1,0,0,1-1-1,1,1,0,0,1,1-1,1,1,0,0,1,1,1m-2.65,14.55a3.11,3.11,0,0,1-1.43-.32l.34-1.12a1.94,1.94,0,0,0,.88.22c.78,0,1.1-.61,1.1-1.85v-9h1.51V161c0,2.16-1.13,2.92-2.4,2.92"/><path d="M118.48,155.88c0,1.78.85,3,2.25,3s2.22-1.21,2.22-3-.81-2.94-2.25-2.94-2.22,1.18-2.22,2.94m4.91-3.1a4.44,4.44,0,0,1,1.1,3.12,4.38,4.38,0,0,1-1.13,3.13,3.9,3.9,0,0,1-5.25.07,5,5,0,0,1,0-6.33,3.8,3.8,0,0,1,5.3,0"/><path d="M129.86,153.36a1.75,1.75,0,0,0-.83-.19,2.74,2.74,0,0,0-1.68.88v5.86h-1.51v-8h1.26l.18.9a3.15,3.15,0,0,1,2.26-1.1,1.66,1.66,0,0,1,.91.27Z"/><path d="M131.7,151.9h1.49v8H131.7Zm1.74-2.52a1,1,0,0,1-1,1,1,1,0,0,1-1-1,1,1,0,0,1,2,0"/><path d="M137.93,160.08a1.61,1.61,0,0,1-1.81-1.76V153.1h-1.34v-1.2h1.34v-1.79l1.51-.48v2.27h2.47l-.49,1.2h-2v4.71c0,.66.25,1,.77,1a2.46,2.46,0,0,0,1.39-.53l.44,1a4.14,4.14,0,0,1-2.3.81"/><path d="M145.55,160.52c-1,2.92-2.29,3.41-3.64,3.41a4,4,0,0,1-1.61-.32l.37-1.16a2.56,2.56,0,0,0,1.2.27c.94,0,1.8-.72,2.39-2.77l-3.62-8h1.59l2.74,6.27H145l2.11-6.27h1.48Z"/><path d="M5.57,109.29c-2.4,0-4,1.69-4,4.37s1.56,4.37,4,4.37,4-1.69,4-4.37-1.43-4.37-4-4.37m-4,.24a5.54,5.54,0,0,1,4-1.6,5.51,5.51,0,0,1,4.19,1.75,5.88,5.88,0,0,1,1.4,4,5.8,5.8,0,0,1-1.64,4.2,5.52,5.52,0,0,1-3.95,1.51A5.5,5.5,0,0,1,1.75,118,5.68,5.68,0,0,1,0,113.67a5.84,5.84,0,0,1,1.58-4.14"/><path d="M16.24,119.35c-2.51,0-3.8-1.9-3.8-4.1a4,4,0,0,1,4-4.28,4.44,4.44,0,0,1,2.12.52v1.34a3.6,3.6,0,0,0-2.07-.61c-1.58,0-2.56,1.25-2.56,3s.91,2.93,2.54,2.93a3.57,3.57,0,0,0,2-.6l.42,1a5,5,0,0,1-2.64.81"/><path d="M23.5,119.35c-2.51,0-3.79-1.9-3.79-4.1a4,4,0,0,1,4-4.28,4.43,4.43,0,0,1,2.11.52v1.34a3.6,3.6,0,0,0-2.07-.61c-1.58,0-2.56,1.25-2.56,3s.92,2.93,2.54,2.93a3.57,3.57,0,0,0,2-.6l.42,1a5,5,0,0,1-2.64.81"/><path d="M31.8,115.39l-1.46,0c-1.32,0-1.87.49-1.87,1.3A1.33,1.33,0,0,0,30,118.1a2.52,2.52,0,0,0,1.85-.78Zm.42,3.79-.32-.76a3.43,3.43,0,0,1-2.42.93A2.42,2.42,0,0,1,27,116.86c0-1.61,1.17-2.56,3.27-2.63l1.56,0v-.3a1.5,1.5,0,0,0-1.67-1.68,3.45,3.45,0,0,0-2.1.7l-.56-1a4.7,4.7,0,0,1,2.94-.91c1.67,0,2.89.71,2.89,2.77v2.7a9.37,9.37,0,0,0,.17,2.74Z"/><path d="M36.89,119.35a4.65,4.65,0,0,1-2.58-.66l.54-1.13a3.83,3.83,0,0,0,2,.62c.93,0,1.58-.4,1.58-1.08,0-1.78-3.66-1.14-3.66-3.93,0-1.22.93-2.2,2.79-2.2a5.17,5.17,0,0,1,2.12.42v1.29a4.86,4.86,0,0,0-2.07-.49c-.77,0-1.37.27-1.37.91,0,1.61,3.73,1.17,3.73,3.85,0,1.71-1.44,2.4-3.1,2.4"/><path d="M42.12,111.17h1.49v8H42.12Zm1.74-2.52a1,1,0,0,1-1,1,1,1,0,0,1-1-1,1,1,0,0,1,2,0"/><path d="M47.06,115.15c0,1.78.85,3,2.25,3s2.22-1.2,2.22-3-.81-3-2.25-3-2.22,1.19-2.22,3m4.91-3.1a4.94,4.94,0,0,1,0,6.25,3.9,3.9,0,0,1-5.25.07,5,5,0,0,1,0-6.34,3.82,3.82,0,0,1,5.3,0"/><path d="M59.57,119.18v-4.86c0-.93-.15-2-1.32-2a3.78,3.78,0,0,0-2.33,1.12v5.72h-1.5v-8h1.26l.18.91A4.6,4.6,0,0,1,58.71,111c1.17,0,2.37.79,2.37,2.84v5.37Z"/><path d="M67.72,115.39l-1.46,0c-1.32,0-1.86.49-1.86,1.3a1.32,1.32,0,0,0,1.47,1.36,2.52,2.52,0,0,0,1.85-.78Zm.42,3.79-.32-.76a3.43,3.43,0,0,1-2.42.93,2.42,2.42,0,0,1-2.51-2.49c0-1.61,1.17-2.56,3.27-2.63l1.56,0v-.3a1.49,1.49,0,0,0-1.66-1.68,3.41,3.41,0,0,0-2.1.7l-.56-1a4.67,4.67,0,0,1,2.93-.91c1.67,0,2.89.71,2.89,2.77v2.7a9.37,9.37,0,0,0,.17,2.74Z"/><path d="M72.5,119.35A1.41,1.41,0,0,1,71,117.78V107.19h1.49v9.93c0,.69.17.88.63.88a1.49,1.49,0,0,0,.48-.07l.18,1.1a2.42,2.42,0,0,1-1.24.32"/><path d="M76.55,119.35A1.41,1.41,0,0,1,75,117.78V107.19H76.5v9.93c0,.69.17.88.63.88a1.41,1.41,0,0,0,.47-.07l.19,1.1a2.44,2.44,0,0,1-1.24.32"/><path d="M83,119.79c-1,2.92-2.29,3.41-3.65,3.41a4,4,0,0,1-1.61-.32l.38-1.16a2.56,2.56,0,0,0,1.2.27c.93,0,1.8-.73,2.39-2.77l-3.63-8h1.6l2.74,6.27h.05l2.1-6.27H86.1Z"/><path d="M93.41,119.35a4.59,4.59,0,0,1-2.57-.66l.54-1.13a3.8,3.8,0,0,0,2,.62c.94,0,1.58-.4,1.58-1.08,0-1.78-3.66-1.14-3.66-3.93,0-1.22.93-2.2,2.79-2.2a5.17,5.17,0,0,1,2.12.42v1.29a4.85,4.85,0,0,0-2.06-.49c-.78,0-1.38.27-1.38.91,0,1.61,3.73,1.17,3.73,3.85,0,1.71-1.44,2.4-3.1,2.4"/><path d="M99.15,115.15c0,1.78.85,3,2.25,3s2.22-1.2,2.22-3-.81-3-2.25-3-2.22,1.19-2.22,3m4.91-3.1a4.94,4.94,0,0,1,0,6.25,3.9,3.9,0,0,1-5.25.07,5,5,0,0,1,0-6.34,3.82,3.82,0,0,1,5.3,0"/><path d="M117.05,119.18V114c0-1-.2-1.74-1.24-1.74a3.74,3.74,0,0,0-2.34,1.1,2.68,2.68,0,0,1,0,.41v5.38H112v-5.11c0-1-.22-1.78-1.25-1.78a3.6,3.6,0,0,0-2.32,1.11v5.78H106.9v-8h1.26l.18.93a4.64,4.64,0,0,1,2.83-1.13,2.08,2.08,0,0,1,2,1.3,4.6,4.6,0,0,1,2.89-1.3,2.29,2.29,0,0,1,2.48,2.59v5.62Z"/><path d="M123.58,112.18a1.94,1.94,0,0,0-1.81,2.14h3.55a1.92,1.92,0,0,0-1.74-2.14m-1.8,3.31a2.44,2.44,0,0,0,2.53,2.59,4,4,0,0,0,1.94-.56l.43,1a4.61,4.61,0,0,1-2.66.83c-2.61,0-3.81-2-3.81-4.28s1.33-4.1,3.39-4.1,3.31,1.64,3.31,4.13v.39Z"/><path d="M137.75,112.41a3.21,3.21,0,0,0-1.14-.17,2.77,2.77,0,0,0-2.79,2.94,2.68,2.68,0,0,0,2.89,2.92,3,3,0,0,0,1-.19Zm-1.24,6.94a3.88,3.88,0,0,1-4.2-4.08,4.17,4.17,0,0,1,4.24-4.3,6.05,6.05,0,0,1,1.2.11v-3.89h1.51v11.57a5.92,5.92,0,0,1-2.75.59"/><path d="M142.32,115.15c0,1.78.84,3,2.25,3s2.22-1.2,2.22-3-.82-3-2.25-3-2.22,1.19-2.22,3m4.91-3.1a4.94,4.94,0,0,1,0,6.25,3.92,3.92,0,0,1-5.26.07,5,5,0,0,1,0-6.34,3.82,3.82,0,0,1,5.3,0"/></g><polygon points="78.35 78.05 78.35 73.05 72.47 73.05 72.47 78.05 70.96 78.05 70.96 66.88 72.47 66.88 72.47 71.71 78.35 71.71 78.35 66.88 79.86 66.88 79.86 78.05 78.35 78.05"/><g class="c"><path d="M86.39,74.25l-1.46,0c-1.32,0-1.86.49-1.86,1.31A1.31,1.31,0,0,0,84.54,77a2.52,2.52,0,0,0,1.85-.78Zm.42,3.8-.32-.77a3.39,3.39,0,0,1-2.42.94,2.42,2.42,0,0,1-2.51-2.49c0-1.61,1.17-2.56,3.27-2.63l1.56,0v-.31a1.49,1.49,0,0,0-1.66-1.67,3.47,3.47,0,0,0-2.1.69l-.56-1A4.62,4.62,0,0,1,85,69.83c1.67,0,2.89.71,2.89,2.78V75.3a9.42,9.42,0,0,0,.17,2.75Z"/><path d="M94,71.49a1.76,1.76,0,0,0-.83-.18,2.69,2.69,0,0,0-1.68.88v5.86H90V70h1.26l.18.89a3.19,3.19,0,0,1,2.26-1.1,1.75,1.75,0,0,1,.91.27Z"/><path d="M100.69,71.27a3.13,3.13,0,0,0-1.14-.17,2.78,2.78,0,0,0-2.79,3A2.68,2.68,0,0,0,99.66,77a3,3,0,0,0,1-.18Zm-1.24,7a3.88,3.88,0,0,1-4.2-4.09,4.17,4.17,0,0,1,4.24-4.3,5.22,5.22,0,0,1,1.2.12v-3.9h1.51V77.62a5.87,5.87,0,0,1-2.75.6"/><path d="M105.66,78.22a1.41,1.41,0,0,1-1.54-1.58V66.05h1.49V76c0,.69.17.88.63.88a1.49,1.49,0,0,0,.48-.07l.18,1.1a2.43,2.43,0,0,1-1.24.33"/><path d="M112.13,78.66c-1,2.91-2.28,3.4-3.64,3.4a4,4,0,0,1-1.61-.32l.37-1.15a2.61,2.61,0,0,0,1.21.27c.93,0,1.79-.73,2.39-2.78l-3.63-8h1.59l2.75,6.27h0l2.1-6.27h1.49Z"/><path d="M123.59,71.05a1.93,1.93,0,0,0-1.81,2.13h3.56a1.92,1.92,0,0,0-1.75-2.13m-1.79,3.3a2.43,2.43,0,0,0,2.52,2.6,4,4,0,0,0,2-.56l.42,1a4.64,4.64,0,0,1-2.66.83c-2.61,0-3.81-2-3.81-4.29s1.34-4.1,3.39-4.1,3.32,1.64,3.32,4.13v.39Z"/></g><polygon points="132.01 78.1 130.87 78.1 127.74 70.03 129.28 70.03 131.46 76.13 131.5 76.13 133.89 70.03 135.34 70.03 132.01 78.1"/><g class="c"><path d="M139.32,71.05a1.93,1.93,0,0,0-1.81,2.13h3.55a1.91,1.91,0,0,0-1.74-2.13m-1.8,3.3a2.44,2.44,0,0,0,2.53,2.6,4,4,0,0,0,1.95-.56l.42,1a4.66,4.66,0,0,1-2.66.83c-2.61,0-3.81-2-3.81-4.29s1.34-4.1,3.39-4.1,3.32,1.64,3.32,4.13v.39Z"/><path d="M148,71.49a1.76,1.76,0,0,0-.83-.18,2.69,2.69,0,0,0-1.68.88v5.86H144V70h1.26l.18.89a3.19,3.19,0,0,1,2.26-1.1,1.75,1.75,0,0,1,.91.27Z"/><path d="M116.9,37.31l-5.46-7.2a11.38,11.38,0,0,1-1.15-1.65h0c0,.37,0,.83,0,1.39v7.46H108.8V26.15h1.54l5.23,6.93a11.35,11.35,0,0,1,1.22,1.78h0c0-.43,0-.9,0-1.46V26.15h1.51V37.31Z"/><path d="M123.58,30.32a1.93,1.93,0,0,0-1.81,2.13h3.55a1.91,1.91,0,0,0-1.74-2.13m-1.8,3.3a2.44,2.44,0,0,0,2.53,2.59,4,4,0,0,0,2-.55l.42,1a4.61,4.61,0,0,1-2.66.83c-2.61,0-3.81-2-3.81-4.28s1.33-4.1,3.39-4.1,3.31,1.64,3.31,4.13v.39Z"/></g><polygon points="131.99 37.37 130.86 37.37 127.72 29.3 129.26 29.3 131.45 35.4 131.48 35.4 133.87 29.3 135.33 29.3 131.99 37.37"/><g class="c"><path d="M139.3,30.32a1.93,1.93,0,0,0-1.81,2.13h3.56a1.92,1.92,0,0,0-1.75-2.13m-1.79,3.3A2.43,2.43,0,0,0,140,36.21a4,4,0,0,0,1.95-.55l.42,1a4.57,4.57,0,0,1-2.66.83c-2.6,0-3.81-2-3.81-4.28s1.34-4.1,3.39-4.1,3.32,1.64,3.32,4.13v.39Z"/><path d="M148.41,30.76a1.75,1.75,0,0,0-.83-.19,2.72,2.72,0,0,0-1.67.88v5.87H144.4v-8h1.25l.19.9a3.17,3.17,0,0,1,2.25-1.1,1.82,1.82,0,0,1,.92.27Z"/></g><rect class="d" x="161.55" y="19.24" width="132.73" height="27.01"/><rect class="b" x="161.55" y="59.97" width="436.64" height="27.01"/><rect class="d" x="161.55" y="101.11" width="496.29" height="27.01"/><g class="c"><path class="e" d="M161.56,189.05V0m0,189.05H711.93"/></g></svg>