<svg xmlns="http://www.w3.org/2000/svg" viewBox="0 0 181.42 28.35"><defs><style>.a{fill:#00a1c1;}.b{fill:#efeff0;}.c{fill:#fff;}</style></defs><title>adventurous</title><polygon class="a" points="116.82 0.25 138.29 0.25 127.56 10.98 116.82 0.25"/><path class="b" d="M137.69.5,127.56,10.63,117.43.5h20.26M138.9,0H116.22l11.34,11.34L138.9,0Z"/><path class="c" d="M127.46,7.28a3.53,3.53,0,0,1-1.92-.49l.43-1a2.51,2.51,0,0,0,1.39.46c.54,0,.89-.2.89-.55,0-.94-2.39-.58-2.39-2.35,0-.9.71-1.54,2-1.54a4.05,4.05,0,0,1,1.53.26v1.1a4.06,4.06,0,0,0-1.47-.34c-.46,0-.74.14-.74.45,0,.83,2.44.55,2.44,2.34C129.58,6.83,128.56,7.28,127.46,7.28Z"/></svg>