<svg xmlns="http://www.w3.org/2000/svg" viewBox="0 0 181.42 28.35"><defs><style>.a{fill:#00a1c1;}.b{fill:#efeff0;}.c{fill:#fff;}</style></defs><title>mps-3-income</title><polygon class="a" points="34.62 0.25 56.09 0.25 45.35 10.98 34.62 0.25"/><path class="b" d="M55.49.5,45.35,10.63,35.22.5H55.49m1.2-.5H34L45.35,11.34,56.69,0Z"/><path class="c" d="M45.26,7.28a3.57,3.57,0,0,1-1.93-.49l.43-1a2.57,2.57,0,0,0,1.4.46c.53,0,.89-.2.89-.55,0-.94-2.4-.58-2.4-2.35,0-.9.72-1.54,2-1.54a4.05,4.05,0,0,1,1.53.26v1.1a4.17,4.17,0,0,0-1.48-.34c-.46,0-.73.14-.73.45,0,.83,2.44.55,2.44,2.34C47.38,6.83,46.35,7.28,45.26,7.28Z"/></svg>