<svg xmlns="http://www.w3.org/2000/svg" viewBox="0 0 181.42 28.35"><defs><style>.a{fill:#00a1c1;}.b{fill:#efeff0;}.c{fill:#fff;}</style></defs><title>mps-3-growth</title><polygon class="a" points="37.45 0.25 58.92 0.25 48.19 10.98 37.45 0.25"/><path class="b" d="M58.32.5,48.19,10.63,38.06.5H58.32M59.53,0H36.85L48.19,11.34,59.53,0Z"/><path class="c" d="M48.09,7.28a3.53,3.53,0,0,1-1.92-.49l.43-1A2.51,2.51,0,0,0,48,6.29c.54,0,.89-.2.89-.55,0-.94-2.39-.58-2.39-2.35,0-.9.71-1.54,2-1.54A4.05,4.05,0,0,1,50,2.11v1.1a4.06,4.06,0,0,0-1.47-.34c-.46,0-.74.14-.74.45,0,.83,2.44.55,2.44,2.34C50.21,6.83,49.19,7.28,48.09,7.28Z"/></svg>