<svg xmlns="http://www.w3.org/2000/svg" viewBox="0 0 181.42 28.35"><defs><style>.a{fill:#00a1c1;}.b{fill:#efeff0;}.c{fill:#fff;}</style></defs><title>mps-2-income</title><polygon class="a" points="26.11 0.25 47.59 0.25 36.85 10.98 26.11 0.25"/><path class="b" d="M47,.5,36.85,10.63,26.72.5H47M48.19,0H25.51L36.85,11.34,48.19,0Z"/><path class="c" d="M36.75,7.28a3.53,3.53,0,0,1-1.92-.49l.43-1a2.54,2.54,0,0,0,1.39.46c.54,0,.89-.2.89-.55,0-.94-2.39-.58-2.39-2.35,0-.9.71-1.54,2-1.54a4.05,4.05,0,0,1,1.53.26v1.1a4.06,4.06,0,0,0-1.47-.34c-.46,0-.74.14-.74.45,0,.83,2.44.55,2.44,2.34C38.87,6.83,37.85,7.28,36.75,7.28Z"/></svg>