<svg xmlns="http://www.w3.org/2000/svg" viewBox="0 0 181.42 28.35"><defs><style>.a{fill:#00a1c1;}.b{fill:#efeff0;}.c{fill:#fff;}</style></defs><title>mps-1-growth</title><polygon class="a" points="17.61 0.25 39.08 0.25 28.35 10.98 17.61 0.25"/><path class="b" d="M38.48.5,28.35,10.63,18.21.5H38.48M39.69,0H17L28.35,11.34,39.69,0Z"/><path class="c" d="M28.25,7.28a3.59,3.59,0,0,1-1.93-.49l.43-1a2.57,2.57,0,0,0,1.4.46c.54,0,.89-.2.89-.55,0-.94-2.4-.58-2.4-2.35,0-.9.72-1.54,2-1.54a4.05,4.05,0,0,1,1.53.26v1.1a4.11,4.11,0,0,0-1.47-.34c-.47,0-.74.14-.74.45,0,.83,2.44.55,2.44,2.34C30.37,6.83,29.35,7.28,28.25,7.28Z"/></svg>