<svg xmlns="http://www.w3.org/2000/svg" viewBox="0 0 181.42 28.35"><defs><style>.a{fill:#00a1c1;}.b{fill:#efeff0;}.c{fill:#fff;}</style></defs><title>multi-index-income-5</title><polygon class="a" points="77.14 0.25 98.61 0.25 87.87 10.98 77.14 0.25"/><path class="b" d="M98,.5,87.87,10.63,77.74.5H98m1.2-.5H76.54L87.87,11.34,99.21,0Z"/><path class="c" d="M87.78,7.28a3.57,3.57,0,0,1-1.93-.49l.43-1a2.57,2.57,0,0,0,1.4.46c.53,0,.89-.2.89-.55,0-.94-2.4-.58-2.4-2.35,0-.9.72-1.54,2-1.54a4,4,0,0,1,1.52.26v1.1a4.06,4.06,0,0,0-1.47-.34c-.46,0-.73.14-.73.45,0,.83,2.44.55,2.44,2.34C89.9,6.83,88.87,7.28,87.78,7.28Z"/></svg>