<svg xmlns="http://www.w3.org/2000/svg" viewBox="0 0 181.42 28.35"><defs><style>.a{fill:#9ca299;}.b{fill:#efeff0;}.c{fill:#fff;}</style></defs><title>multi-asset-open-adventurous</title><polygon class="a" points="91.31 28.1 102.05 17.36 112.78 28.1 91.31 28.1"/><path class="b" d="M102.05,17.71l10.13,10.14H91.92l10.13-10.14m0-.7L90.71,28.35h22.68L102.05,17Z"/><path class="c" d="M102.25,26.5A1.12,1.12,0,0,1,101,25.29v-3.1H100v-1H101V20l1.32-.39V21.2h1.61l-.38,1h-1.23V24.8c0,.41.15.6.49.6a1.73,1.73,0,0,0,.87-.29l.35.83A3.16,3.16,0,0,1,102.25,26.5Z"/></svg>