<svg xmlns="http://www.w3.org/2000/svg" viewBox="0 0 181.42 28.35"><defs><style>.a{fill:#9ca299;}.b{fill:#efeff0;}.c{fill:#fff;}</style></defs><title>wss-income-1</title><polygon class="a" points="20.45 28.1 31.18 17.36 41.92 28.1 20.45 28.1"/><path class="b" d="M31.18,17.71,41.31,27.85H21.05L31.18,17.71m0-.7L19.84,28.35H42.52L31.18,17Z"/><path class="c" d="M31.39,26.5a1.12,1.12,0,0,1-1.29-1.21v-3.1h-.92v-1h.92V20l1.32-.39V21.2H33l-.38,1H31.42V24.8c0,.41.15.6.49.6a1.73,1.73,0,0,0,.87-.29l.35.83A3.13,3.13,0,0,1,31.39,26.5Z"/></svg>