<svg xmlns="http://www.w3.org/2000/svg" viewBox="0 0 181.42 28.35"><defs><style>.a{fill:#9ca299;}.b{fill:#efeff0;}.c{fill:#fff;}</style></defs><title>wss-risk-grade-2</title><polygon class="a" points="34.62 28.1 45.35 17.36 56.09 28.1 34.62 28.1"/><path class="b" d="M45.35,17.71,55.49,27.85H35.22L45.35,17.71m0-.7L34,28.35H56.69L45.35,17Z"/><path class="c" d="M45.56,26.5a1.12,1.12,0,0,1-1.29-1.21v-3.1h-.92v-1h.92V20l1.32-.39V21.2h1.62l-.39,1H45.59V24.8c0,.41.16.6.5.6a1.73,1.73,0,0,0,.87-.29l.35.83A3.16,3.16,0,0,1,45.56,26.5Z"/></svg>