<svg xmlns="http://www.w3.org/2000/svg" viewBox="0 0 181.42 28.35"><defs><style>.a{fill:#9ca299;}.b{fill:#efeff0;}.c{fill:#fff;}.d{fill:#00a1c1;}</style></defs><title>cazenove-growth-active-passive-portfolio</title><polygon class="a" points="91.31 28.1 102.05 17.36 112.78 28.1 91.31 28.1"/><path class="b" d="M102.05,17.71l10.13,10.14H91.92l10.13-10.14m0-.7L90.71,28.35h22.68L102.05,17Z"/><path class="c" d="M102.25,26.5A1.12,1.12,0,0,1,101,25.29v-3.1H100v-1H101V20l1.32-.39V21.2h1.61l-.38,1h-1.23V24.8c0,.41.15.6.49.6a1.73,1.73,0,0,0,.87-.29l.35.83A3.16,3.16,0,0,1,102.25,26.5Z"/><polygon class="d" points="91.31 0.25 112.78 0.25 102.05 10.98 91.31 0.25"/><path class="b" d="M112.18.5,102.05,10.63,91.92.5h20.26m1.21-.5H90.71l11.34,11.34L113.39,0Z"/><path class="c" d="M102,7.28A3.53,3.53,0,0,1,100,6.79l.42-1a2.57,2.57,0,0,0,1.4.46c.54,0,.89-.2.89-.55,0-.94-2.4-.58-2.4-2.35,0-.9.72-1.54,2-1.54a4.05,4.05,0,0,1,1.53.26v1.1a4.06,4.06,0,0,0-1.47-.34c-.47,0-.74.14-.74.45,0,.83,2.44.55,2.44,2.34C104.07,6.83,103.05,7.28,102,7.28Z"/></svg>