<svg xmlns="http://www.w3.org/2000/svg" viewBox="0 0 181.42 28.35"><defs><style>.a{fill:#9ca299;}.b{fill:#efeff0;}.c{fill:#fff;}.d{fill:#00a1c1;}</style></defs><title>invesco-summit-growth-5-fund-uk*</title><polygon class="a" points="113.99 28.1 124.72 17.36 135.46 28.1 113.99 28.1"/><path class="b" d="M124.72,17.71l10.14,10.14H114.59l10.13-10.14m0-.7L113.39,28.35h22.67L124.72,17Z"/><path class="c" d="M124.93,26.5a1.12,1.12,0,0,1-1.29-1.21v-3.1h-.92v-1h.92V20l1.32-.39V21.2h1.62l-.39,1H125V24.8c0,.41.16.6.5.6a1.73,1.73,0,0,0,.87-.29l.35.83A3.16,3.16,0,0,1,124.93,26.5Z"/><polygon class="d" points="111.16 0.25 132.63 0.25 121.89 10.98 111.16 0.25"/><path class="b" d="M132,.5,121.89,10.63,111.76.5H132m1.21-.5H110.55l11.34,11.34L133.23,0Z"/><path class="c" d="M121.79,7.28a3.53,3.53,0,0,1-1.92-.49l.43-1a2.54,2.54,0,0,0,1.39.46c.54,0,.89-.2.89-.55,0-.94-2.39-.58-2.39-2.35,0-.9.71-1.54,2-1.54a4.05,4.05,0,0,1,1.53.26v1.1a4.06,4.06,0,0,0-1.47-.34c-.46,0-.74.14-.74.45,0,.83,2.44.55,2.44,2.34C123.91,6.83,122.89,7.28,121.79,7.28Z"/></svg>