<svg xmlns="http://www.w3.org/2000/svg" viewBox="0 0 181.42 28.35"><defs><style>.a{fill:#00a1c1;}.b{fill:#efeff0;}.c{fill:#fff;}</style></defs><title>invesco-income-fund-uk</title><polygon class="a" points="133.83 0.25 155.3 0.25 144.57 10.98 133.83 0.25"/><path class="b" d="M154.7.5,144.57,10.63,134.44.5H154.7m1.21-.5H133.23l11.34,11.34L155.91,0Z"/><path class="c" d="M144.47,7.28a3.53,3.53,0,0,1-1.92-.49l.42-1a2.57,2.57,0,0,0,1.4.46c.54,0,.89-.2.89-.55,0-.94-2.4-.58-2.4-2.35,0-.9.72-1.54,2-1.54a4.05,4.05,0,0,1,1.53.26v1.1a4.11,4.11,0,0,0-1.47-.34c-.47,0-.74.14-.74.45,0,.83,2.44.55,2.44,2.34C146.59,6.83,145.57,7.28,144.47,7.28Z"/></svg>