<svg xmlns="http://www.w3.org/2000/svg" viewBox="0 0 181.42 28.35"><defs><style>.a{fill:#9ca299;}.b{fill:#efeff0;}.c{fill:#fff;}</style></defs><title>ma-passive-growth</title><polygon class="a" points="116.82 28.1 127.56 17.36 138.29 28.1 116.82 28.1"/><path class="b" d="M127.56,17.71l10.13,10.14H117.43l10.13-10.14m0-.7L116.22,28.35H138.9L127.56,17Z"/><path class="c" d="M127.76,26.5a1.12,1.12,0,0,1-1.28-1.21v-3.1h-.92v-1h.92V20l1.32-.39V21.2h1.61l-.38,1H127.8V24.8c0,.41.15.6.49.6a1.73,1.73,0,0,0,.87-.29l.35.83A3.16,3.16,0,0,1,127.76,26.5Z"/></svg>