<svg xmlns="http://www.w3.org/2000/svg" viewBox="0 0 181.42 28.35"><defs><style>.a{fill:#9ca299;}.b{fill:#efeff0;}.c{fill:#fff;}</style></defs><title>rl-grip-3</title><polygon class="a" points="54.46 28.1 65.2 17.36 75.93 28.1 54.46 28.1"/><path class="b" d="M65.2,17.71,75.33,27.85H55.07L65.2,17.71m0-.7L53.86,28.35H76.54L65.2,17Z"/><path class="c" d="M65.4,26.5a1.12,1.12,0,0,1-1.28-1.21v-3.1h-.93v-1h.93V20l1.32-.39V21.2h1.61l-.38,1H65.44V24.8c0,.41.15.6.49.6a1.73,1.73,0,0,0,.87-.29l.35.83A3.16,3.16,0,0,1,65.4,26.5Z"/></svg>