<svg xmlns="http://www.w3.org/2000/svg" viewBox="0 0 181.42 28.35"><defs><style>.a{fill:#00a1c1;}.b{fill:#efeff0;}.c{fill:#fff;}</style></defs><title>pension-portfolio-1</title><polygon class="a" points="139.5 0.25 160.97 0.25 150.24 10.98 139.5 0.25"/><path class="b" d="M160.37.5,150.24,10.63,140.1.5h20.27m1.2-.5H138.9l11.34,11.34L161.57,0Z"/><path class="c" d="M150.14,7.28a3.59,3.59,0,0,1-1.93-.49l.43-1a2.57,2.57,0,0,0,1.4.46c.54,0,.89-.2.89-.55,0-.94-2.4-.58-2.4-2.35,0-.9.72-1.54,2-1.54a4.05,4.05,0,0,1,1.53.26v1.1a4.12,4.12,0,0,0-1.48-.34c-.46,0-.73.14-.73.45,0,.83,2.44.55,2.44,2.34C152.26,6.83,151.24,7.28,150.14,7.28Z"/></svg>