<svg xmlns="http://www.w3.org/2000/svg" viewBox="0 0 181.42 28.35"><defs><style>.a{fill:#00a1c1;}.b{fill:#efeff0;}.c{fill:#fff;}</style></defs><title>pension-portfolio-2</title><polygon class="a" points="119.66 0.25 141.13 0.25 130.39 10.98 119.66 0.25"/><path class="b" d="M140.53.5,130.39,10.63,120.26.5h20.27m1.2-.5H119.06l11.33,11.34L141.73,0Z"/><path class="c" d="M130.29,7.28a3.56,3.56,0,0,1-1.92-.49l.43-1a2.57,2.57,0,0,0,1.4.46c.53,0,.89-.2.89-.55,0-.94-2.4-.58-2.4-2.35,0-.9.71-1.54,2-1.54a4,4,0,0,1,1.52.26v1.1a4.06,4.06,0,0,0-1.47-.34c-.46,0-.73.14-.73.45,0,.83,2.44.55,2.44,2.34C132.42,6.83,131.39,7.28,130.29,7.28Z"/></svg>