<svg xmlns="http://www.w3.org/2000/svg" viewBox="0 0 181.42 28.35"><defs><style>.a{fill:#00a1c1;}.b{fill:#efeff0;}.c{fill:#fff;}</style></defs><title>premier-pension-portfolio-c</title><polygon class="a" points="43.12 0.25 64.59 0.25 53.86 10.98 43.12 0.25"/><path class="b" d="M64,.5,53.86,10.63,43.73.5H64M65.2,0H42.52L53.86,11.34,65.2,0Z"/><path class="c" d="M53.76,7.28a3.53,3.53,0,0,1-1.92-.49l.43-1a2.51,2.51,0,0,0,1.39.46c.54,0,.89-.2.89-.55,0-.94-2.39-.58-2.39-2.35,0-.9.71-1.54,2-1.54a4.05,4.05,0,0,1,1.53.26v1.1a4.06,4.06,0,0,0-1.47-.34c-.46,0-.74.14-.74.45,0,.83,2.44.55,2.44,2.34C55.88,6.83,54.86,7.28,53.76,7.28Z"/></svg>