<svg xmlns="http://www.w3.org/2000/svg" viewBox="0 0 181.42 28.35"><defs><style>.a{fill:#00a1c1;}.b{fill:#efeff0;}.c{fill:#fff;}</style></defs><title>premier-pension-portfolio-3</title><polygon class="a" points="105.48 0.25 126.95 0.25 116.22 10.98 105.48 0.25"/><path class="b" d="M126.35.5,116.22,10.63,106.09.5h20.26m1.21-.5H104.88l11.34,11.34L127.56,0Z"/><path class="c" d="M116.12,7.28a3.53,3.53,0,0,1-1.92-.49l.43-1a2.54,2.54,0,0,0,1.39.46c.54,0,.89-.2.89-.55,0-.94-2.39-.58-2.39-2.35,0-.9.71-1.54,2-1.54a4.05,4.05,0,0,1,1.53.26v1.1a4.06,4.06,0,0,0-1.47-.34c-.46,0-.74.14-.74.45,0,.83,2.44.55,2.44,2.34C118.24,6.83,117.22,7.28,116.12,7.28Z"/></svg>