<svg xmlns="http://www.w3.org/2000/svg" viewBox="0 0 181.42 28.35"><defs><style>.a{fill:#9ca299;}.b{fill:#efeff0;}.c{fill:#fff;}</style></defs><title>mps-growth-7</title><polygon class="a" points="125.33 28.1 136.06 17.36 146.8 28.1 125.33 28.1"/><path class="b" d="M136.06,17.71l10.13,10.14H125.93l10.13-10.14m0-.7L124.72,28.35H147.4L136.06,17Z"/><path class="c" d="M136.27,26.5A1.12,1.12,0,0,1,135,25.29v-3.1h-.92v-1H135V20l1.32-.39V21.2h1.62l-.39,1H136.3V24.8c0,.41.16.6.5.6a1.66,1.66,0,0,0,.86-.29l.36.83A3.19,3.19,0,0,1,136.27,26.5Z"/></svg>