<svg xmlns="http://www.w3.org/2000/svg" xmlns:xlink="http://www.w3.org/1999/xlink" viewBox="0 0 61.51 62.08"><defs><style>.a{fill:none;}.b{clip-path:url(#a);}.c{fill:#294c2d;}.d{fill:#259c40;}</style><clipPath id="a"><rect class="a" width="61.51" height="62.08"/></clipPath></defs><g class="b"><path class="c" d="M24.27,21.1l5.91-10.58-5-8.89A3,3,0,0,0,22.48,0a5.8,5.8,0,0,0-4.55,2.71L12.18,13Z"/><path class="d" d="M47.82,10,43.73,2.71A5.79,5.79,0,0,0,39.18,0H24.51c1,0,1.5.73,2,1.63l9.23,16.5-4.43,3,17.38,3.77L52.41,7Z"/><path class="c" d="M42.29,29.85l5.92,10.58h9.95a3,3,0,0,0,2.73-1.63,6.21,6.21,0,0,0,0-5.42L55.13,23.1Z"/><path class="d" d="M39.8,56.44H48a5.79,5.79,0,0,0,4.54-2.71l7.34-13.12c-.51.88-1.36,1-2.36,1H39.05l-.28-5.43L26.91,49.79,40.08,62.08Z"/><path class="c" d="M25.94,41.59H14.11l-5,8.89a3.19,3.19,0,0,0,0,3.25,5.8,5.8,0,0,0,4.55,2.71H25.19Z"/><path class="d" d="M4.88,26.06.78,33.38a6.23,6.23,0,0,0,0,5.43L8.12,51.92a2.55,2.55,0,0,1,.36-2.6l9.24-16.5,4.7,2.47L16.9,17.87,0,23.5Z"/></g></svg>