<svg xmlns="http://www.w3.org/2000/svg" viewBox="0 0 72.19 64.76"><defs><style>.a{isolation:isolate;}.b{fill:#e11370;}.c{mix-blend-mode:multiply;}.d{fill:#512e7b;}.e{fill:#fff;}.f{fill:none;}</style></defs><g class="a"><rect class="b" x="12.76" y="12.76" width="52" height="52"/><g class="c"><rect class="d" width="25.51" height="25.51"/></g><path class="e" d="M31.39,45.22a13.75,13.75,0,0,0,5.17,1.09c3.4,0,4.52-1.05,4.52-2.75a2.22,2.22,0,0,0-1.76-2.21A8.44,8.44,0,0,0,36.66,41H33.33V37H36c2.58,0,4.42-.65,4.42-2.65,0-1.5-1-2.42-3-2.42a12.51,12.51,0,0,0-5.48,1.57l-1.29-4a17,17,0,0,1,7.52-1.9c5.37,0,7.68,3,7.68,6.18a4.89,4.89,0,0,1-3.3,4.63v.06a4.76,4.76,0,0,1,4,5c0,4.08-3,7.14-9.48,7.14A17.82,17.82,0,0,1,30,49.23Z"/><rect class="f" width="72.19" height="64.76"/></g></svg>