<svg xmlns="http://www.w3.org/2000/svg" viewBox="0 0 72.19 66.17"><defs><style>.a{isolation:isolate;}.b{fill:#e11370;}.c{fill:#fff;}.d{mix-blend-mode:multiply;}.e{fill:#00b6ce;}.f{fill:none;}</style></defs><g class="a"><rect class="b" x="12.76" y="14.17" width="52" height="52"/><path class="c" d="M31.73,46.4a10.44,10.44,0,0,0,4.73,1.09c2.55,0,4.56-1,4.56-3.16a2.4,2.4,0,0,0-1.64-2.52,11.72,11.72,0,0,0-4.21-.51h-3V29.06H46.76l-1.32,4.39H37.21v3.84h.85a11.09,11.09,0,0,1,4.45.78,6.34,6.34,0,0,1,4,5.92c0,4.32-2.86,7.82-9.69,7.82a13.91,13.91,0,0,1-6.46-1.4Z"/><g class="d"><rect class="e" x="46.68" width="25.51" height="25.51"/></g><rect class="f" width="72.19" height="66.17"/></g></svg>