<svg xmlns="http://www.w3.org/2000/svg" viewBox="0 0 72.19 64.68"><defs><style>.a{isolation:isolate;}.b{mix-blend-mode:multiply;}.c{fill:#e11370;}.d{fill:#512e7b;}.e{fill:#fff;}.f{fill:none;}</style></defs><g class="a"><g class="b"><rect class="c" x="46.68" y="39.17" width="25.51" height="25.51"/></g><rect class="d" x="12.76" width="52" height="52"/><path class="e" d="M30.32,27c0-7,4-12.34,10.51-12.34a13.79,13.79,0,0,1,5.61,1.19l-1.29,3.95a8.88,8.88,0,0,0-4-1c-2.58,0-4.92,1.32-5.54,5.47a8.68,8.68,0,0,1,5.1-1.56,6.59,6.59,0,0,1,6.84,7c0,4.93-3.51,8-8.23,8C34.37,37.63,30.32,34.37,30.32,27Zm11.77,3.44c0-2.45-1.19-3.64-3-3.64a5.32,5.32,0,0,0-3.33,1.33c.21,4,2,5.4,3.68,5.4S42.09,32.3,42.09,30.43Z"/><rect class="f" width="72.19" height="64.68"/></g></svg>