<svg xmlns="http://www.w3.org/2000/svg" viewBox="0 0 181.42 28.35"><defs><style>.a{fill:#9ca299;}.b{fill:#efeff0;}.c{fill:#fff;}</style></defs><title>bmo-mm-navigator-balanced-fund</title><polygon class="a" points="79.97 28.1 90.71 17.36 101.44 28.1 79.97 28.1"/><path class="b" d="M90.71,17.71l10.13,10.14H80.58L90.71,17.71m0-.7L79.37,28.35h22.68L90.71,17Z"/><path class="c" d="M90.91,26.5a1.12,1.12,0,0,1-1.28-1.21v-3.1h-.92v-1h.92V20L91,19.61V21.2h1.61l-.38,1H91V24.8c0,.41.15.6.49.6a1.73,1.73,0,0,0,.87-.29l.35.83A3.16,3.16,0,0,1,90.91,26.5Z"/></svg>