<svg xmlns="http://www.w3.org/2000/svg" viewBox="0 0 181.42 28.35"><defs><style>.a{fill:#9ca299;}.b{fill:#efeff0;}.c{fill:#fff;}.d{fill:#00a1c1;}</style></defs><title>bmo-mm-lifestyle-5-fund</title><polygon class="a" points="82.81 28.1 93.54 17.36 104.28 28.1 82.81 28.1"/><path class="b" d="M93.54,17.71l10.13,10.14H83.41L93.54,17.71m0-.7L82.2,28.35h22.68L93.54,17Z"/><path class="c" d="M93.75,26.5a1.12,1.12,0,0,1-1.29-1.21v-3.1h-.92v-1h.92V20l1.32-.39V21.2H95.4l-.39,1H93.78V24.8c0,.41.16.6.5.6a1.66,1.66,0,0,0,.86-.29l.36.83A3.19,3.19,0,0,1,93.75,26.5Z"/><polygon class="d" points="82.81 0.25 104.28 0.25 93.54 10.98 82.81 0.25"/><path class="b" d="M103.67.5,93.54,10.63,83.41.5h20.26m1.21-.5H82.2L93.54,11.34,104.88,0Z"/><path class="c" d="M93.44,7.28a3.56,3.56,0,0,1-1.92-.49l.43-1a2.54,2.54,0,0,0,1.4.46c.53,0,.89-.2.89-.55,0-.94-2.4-.58-2.4-2.35,0-.9.71-1.54,2-1.54a4,4,0,0,1,1.52.26v1.1a4.06,4.06,0,0,0-1.47-.34c-.46,0-.73.14-.73.45,0,.83,2.43.55,2.43,2.34C95.56,6.83,94.54,7.28,93.44,7.28Z"/></svg>