<svg xmlns="http://www.w3.org/2000/svg" viewBox="0 0 181.42 28.35"><defs><style>.a{fill:#9ca299;}.b{fill:#efeff0;}.c{fill:#fff;}</style></defs><title>bmo-mm-navigator-distribution-fund</title><polygon class="a" points="71.47 28.1 82.2 17.36 92.94 28.1 71.47 28.1"/><path class="b" d="M82.2,17.71,92.34,27.85H72.07L82.2,17.71m0-.7L70.87,28.35H93.54L82.2,17Z"/><path class="c" d="M82.41,26.5a1.12,1.12,0,0,1-1.29-1.21v-3.1H80.2v-1h.92V20l1.32-.39V21.2h1.62l-.39,1H82.44V24.8c0,.41.16.6.5.6a1.73,1.73,0,0,0,.87-.29l.35.83A3.16,3.16,0,0,1,82.41,26.5Z"/></svg>