<svg xmlns="http://www.w3.org/2000/svg" viewBox="0 0 76.99 28.4"><defs><style>.a{fill:#ca005d;}.b{fill:none;stroke:#fff;stroke-linecap:round;stroke-linejoin:round;stroke-width:1.5px;}.c{fill:#fff;}</style></defs><title>btn-login-raspberry-bg</title><path class="a" d="M77,14,66.7,3.7H23.76a14.2,14.2,0,1,0,.41,20.61H66.7Z"/><path class="b" d="M8,11.28H19.6v9.06H8Z"/><path class="b" d="M9.9,11.28V10a3.88,3.88,0,0,1,7.76,0v1.29"/><path class="c" d="M29.86,8.46h1.91V17h3.71v1.56H29.86Z"/><path class="c" d="M36.32,14.91a3.76,3.76,0,1,1,7.51-.39,2.54,2.54,0,0,1,0,.39,3.76,3.76,0,0,1-7.51.39A2.54,2.54,0,0,1,36.32,14.91Zm5.56,0c0-1.33-.62-2.31-1.81-2.31s-1.81,1-1.81,2.31.62,2.33,1.81,2.33S41.88,16.26,41.88,14.91Z"/><path class="c" d="M44.59,20.06A2,2,0,0,1,46,18.31a1,1,0,0,1-.49-.9,1.76,1.76,0,0,1,.9-1.36,2.52,2.52,0,0,1-1.25-2.26A2.75,2.75,0,0,1,48,11.11l.24,0a3.06,3.06,0,0,1,1.49.32.17.17,0,0,0,.19,0,2.42,2.42,0,0,1,1.81-.63h.51l-.38,1.32a2,2,0,0,0-.55-.08,1.21,1.21,0,0,0-.56.13,2.43,2.43,0,0,1,.67,1.71c0,1.63-1.29,2.68-3.11,2.68a2.88,2.88,0,0,1-.92-.12,1,1,0,0,0-.19.54c0,1.3,4.93.09,4.93,2.8,0,1.32-1.36,2.39-4,2.39C45.88,22.19,44.59,21.32,44.59,20.06ZM50.24,20c0-1-2.33-.83-3.35-1.21a1.25,1.25,0,0,0-.6.95c0,.72.79,1.16,2.05,1.16S50.24,20.54,50.24,20Zm-.7-6.13a1.32,1.32,0,0,0-1.28-1.36h-.07a1.23,1.23,0,0,0-1.3,1.17,1.08,1.08,0,0,0,0,.18,1.27,1.27,0,0,0,1.2,1.34h.12a1.24,1.24,0,0,0,1.33-1.14v-.18Z"/><path class="c" d="M53.1,9a1.17,1.17,0,0,1,2.33,0,1.12,1.12,0,0,1-1.15,1.09h0a1.1,1.1,0,0,1-1.16-1Zm.2,2.27h1.91v7.25H53.3Z"/><path class="c" d="M57,11.31h1.62l.19.81a4.26,4.26,0,0,1,2.57-1c1.19,0,2.41.57,2.41,2.63v4.8h-1.9V14.33c0-.89-.19-1.61-1.16-1.61a3.13,3.13,0,0,0-1.84.77v5.07H57Z"/></svg>