<svg xmlns="http://www.w3.org/2000/svg" viewBox="0 0 77 28.41"><defs><style>.a{fill:#f0ab00;}.b{fill:none;stroke:#fff;stroke-linecap:round;stroke-linejoin:round;stroke-width:1.5px;}.c{fill:#fff;}</style></defs><title>ico-login-gold-bg</title><path class="a" d="M77,14,66.71,3.71H23.77a14.2,14.2,0,1,0,.41,20.61H66.71Z"/><path class="b" d="M8,11.29H19.61v9.06H8Z"/><path class="b" d="M9.91,11.29V10a3.88,3.88,0,1,1,7.76,0v1.29"/><path class="c" d="M29.87,8.47h1.91V17h3.71v1.56H29.87Z"/><path class="c" d="M36.33,14.92a3.76,3.76,0,1,1,7.51,0,3.76,3.76,0,1,1-7.51,0Zm5.56,0c0-1.33-.62-2.31-1.81-2.31s-1.81,1-1.81,2.31.62,2.33,1.81,2.33S41.89,16.27,41.89,14.92Z"/><path class="c" d="M44.6,20.07A2,2,0,0,1,46,18.32a1,1,0,0,1-.49-.9,1.74,1.74,0,0,1,.9-1.36,2.53,2.53,0,0,1-1.25-2.26,2.75,2.75,0,0,1,3.06-2.66,3.14,3.14,0,0,1,1.49.32.17.17,0,0,0,.19,0,2.37,2.37,0,0,1,1.81-.63c.18,0,.4,0,.51,0l-.38,1.32a2.09,2.09,0,0,0-.55-.08,1.15,1.15,0,0,0-.56.13,2.45,2.45,0,0,1,.67,1.71c0,1.63-1.29,2.68-3.11,2.68a3.11,3.11,0,0,1-.92-.12.93.93,0,0,0-.19.54c0,1.3,4.93.09,4.93,2.8,0,1.32-1.36,2.39-4,2.39C45.89,22.2,44.6,21.33,44.6,20.07ZM50.25,20c0-1-2.33-.83-3.35-1.21a1.23,1.23,0,0,0-.6.95c0,.72.79,1.16,2.05,1.16S50.25,20.55,50.25,20Zm-.7-6.13a1.32,1.32,0,0,0-1.35-1.36,1.24,1.24,0,0,0-1.3,1.35,1.27,1.27,0,0,0,1.32,1.34A1.24,1.24,0,0,0,49.55,13.88Z"/><path class="c" d="M53.11,9.05a1.17,1.17,0,0,1,2.33,0,1.12,1.12,0,0,1-1.17,1.09A1.1,1.1,0,0,1,53.11,9.05Zm.2,2.27h1.91v7.25H53.31Z"/><path class="c" d="M57,11.32h1.62l.19.81a4.29,4.29,0,0,1,2.57-1c1.19,0,2.41.57,2.41,2.63v4.8h-1.9V14.34c0-.89-.19-1.61-1.16-1.61a3.08,3.08,0,0,0-1.84.77v5.07H57Z"/></svg>