<svg xmlns="http://www.w3.org/2000/svg" viewBox="0 0 36.21 36.21"><defs><style>.a{fill:#d3035e;}.b{fill:#fff;}</style></defs><title>ico-new-flash-raspberry</title><polygon class="a" points="36.21 18.12 36.21 18.09 36.17 18.09 32.34 15.27 34.8 11.21 34.84 11.19 34.83 11.17 34.79 11.18 30.17 10.04 30.89 5.34 30.91 5.31 30.92 5.31 30.91 5.31 30.9 5.29 30.87 5.32 26.17 6.04 25.03 1.42 25.04 1.39 25.04 1.38 25.04 1.38 25.02 1.37 25 1.41 20.94 3.87 18.12 0.04 18.12 0 18.09 0 18.09 0.04 15.27 3.87 11.21 1.41 11.19 1.38 11.19 1.37 11.19 1.37 11.17 1.38 11.18 1.42 10.04 6.04 5.34 5.32 5.31 5.29 5.31 5.29 5.31 5.29 5.29 5.31 5.32 5.34 6.04 10.04 1.42 11.18 1.38 11.17 1.38 11.17 1.38 11.17 1.37 11.19 1.41 11.21 3.87 15.27 0.04 18.09 0 18.09 0 18.09 0 18.09 0 18.12 0.04 18.12 3.87 20.94 1.41 25.01 1.37 25.02 1.37 25.02 1.37 25.02 1.38 25.05 1.42 25.04 6.04 26.17 5.32 30.87 5.3 30.9 5.29 30.9 5.3 30.9 5.31 30.92 5.34 30.89 10.04 30.17 11.18 34.79 11.17 34.83 11.17 34.83 11.17 34.83 11.19 34.84 11.21 34.8 15.27 32.34 18.09 36.17 18.09 36.21 18.09 36.21 18.12 36.21 18.12 36.17 20.94 32.34 25 34.8 25.02 34.83 25.02 34.84 25.04 34.83 25.03 34.79 26.17 30.17 30.87 30.89 30.9 30.91 30.9 30.92 30.92 30.9 30.89 30.87 30.17 26.17 34.79 25.03 34.83 25.04 34.83 25.05 34.84 25.02 34.8 25 32.34 20.94 36.17 18.12 36.21 18.12 36.21 18.12 36.21 18.12"/><path class="b" d="M10.85,14.63c.45-.63.84-1,1.19-1q.78.2.78.27a10.32,10.32,0,0,1,.59,1.85c.34,2.31.6,3.8.77,4.47.05,0,.09.16.13.47v0q0,.42-.54.42h0c-.52,0-.78-.1-.78-.29a7.9,7.9,0,0,1-.58-1.83l-.54-3.21h0a16.61,16.61,0,0,0-2,4,5.42,5.42,0,0,1-.54,1c0-.05-.08-.08-.24-.1H8.64a.19.19,0,0,1-.22-.22l-.29-.51a18.66,18.66,0,0,0,.34-4.28A2.31,2.31,0,0,0,9,15.43c0-.08,0-.12.1-.12q.9.13.9.27l-.07.22,0,0h0a4.43,4.43,0,0,0,.88-1.19Z"/><path class="b" d="M15.64,16a1.39,1.39,0,0,0-.15.71,1.17,1.17,0,0,0,.42,1,1.73,1.73,0,0,0,.85-.44,1.65,1.65,0,0,0,.09-.49,1,1,0,0,0-.65-1l-.2,0q-.36,0-.36.24Zm12,3.41c0,.79-.1,1.19-.29,1.19a1.54,1.54,0,0,1-.88.29c-.59,0-1.38-.54-2.36-1.61a4.93,4.93,0,0,0-.73-.58A6.94,6.94,0,0,1,22.18,21a1.69,1.69,0,0,1-.95.46c-.17,0-.43-.31-.76-.95-.09-.24-.17-.47-.24-.71a3.75,3.75,0,0,1-1.65,1.08,3.35,3.35,0,0,1-.7.1h-.25c-1.19,0-2.36-.86-3.53-2.58v-.05L14,16.47v-.2c0-.8.26-1.3.78-1.51a3.19,3.19,0,0,1,1.49-.46c.84,0,1.53.55,2.06,1.66a3.07,3.07,0,0,1,.15.8c0,.81-.63,1.47-1.9,2v0a1.5,1.5,0,0,0,1.32.86,2.86,2.86,0,0,0,2-1.33,8.21,8.21,0,0,1-.05-.84v-.29a2,2,0,0,1,.66-1.78l.26-.07H21c.32,0,.51.22.56.66v.12L21.5,17h0v.24l0,.1a.12.12,0,0,0,.1.09c.1,0,.17-.09.21-.26h.05v0a1.76,1.76,0,0,1-.37.86.67.67,0,0,0,.15.36,1.19,1.19,0,0,0,.51-.64c.14-.45.24-.68.29-.68a4.75,4.75,0,0,0,.9-.39,2.92,2.92,0,0,1,1.29.88c.68.75,1.07,1.12,1.19,1.12a5.36,5.36,0,0,0,.12-1.1v-.14L25.73,15c0-.49.07-.73.22-.73a.68.68,0,0,1,.44-.2h.09c.4,0,.67.26.83.78l-.07.8V16a24.61,24.61,0,0,0,.36,2.72Z"/></svg>