<svg xmlns="http://www.w3.org/2000/svg" viewBox="0 0 14 18"><defs><style>.a{fill:#00a1c1;}.b{fill:none;}</style></defs><path class="a" d="M6.3,11.57A2.05,2.05,0,0,0,6.24,11a.74.74,0,0,0-.19-.3.62.62,0,0,0-.29-.15,2.87,2.87,0,0,0-.52,0H5v2.09h.47a1.68,1.68,0,0,0,.38,0,.64.64,0,0,0,.26-.13.74.74,0,0,0,.17-.31,2.16,2.16,0,0,0,.06-.57"/><path class="a" d="M2.8,10.54l-.46,0H2v.89h.34a1.82,1.82,0,0,0,.5,0,.46.46,0,0,0,.2-.16A.4.4,0,0,0,3.15,11a.41.41,0,0,0-.1-.29.44.44,0,0,0-.25-.14"/><path class="a" d="M9.44,11.27v.53H8.13v1.34H7.5V10H9.65v.53H8.13v.75ZM4.32,13.14V10H5.48a2.3,2.3,0,0,1,.6.06,1,1,0,0,1,.47.29,1.44,1.44,0,0,1,.3.51,2.28,2.28,0,0,1,.1.74,2.17,2.17,0,0,1-.09.67,1.36,1.36,0,0,1-.34.56,1.11,1.11,0,0,1-.44.25,1.74,1.74,0,0,1-.56.07ZM13.05,16H4V14H11V9H4V2H9c1.42,0,.74,3.39.74,3.39s3.27-.81,3.32.71ZM3.43,11.76a.83.83,0,0,1-.32.14,3.61,3.61,0,0,1-.66,0H2v1.19H1.4V10h1a4,4,0,0,1,.75,0,.82.82,0,0,1,.45.31,1,1,0,0,1,.19.62,1,1,0,0,1-.11.48.86.86,0,0,1-.27.32M13.72,4.51l-3.2-3.23L10.24,1H3V9H0v5H3v3H14V4.79Z"/><rect class="b" width="14" height="18"/></svg>