<svg xmlns="http://www.w3.org/2000/svg" viewBox="0 0 181.42 28.35"><defs><style>.a{fill:#9ca299;}.b{fill:#efeff0;}.c{fill:#fff;}</style></defs><title>premier-managed-portfolio-svs-dynamic-growth-portfolio</title><polygon class="a" points="108.32 28.1 119.06 17.36 129.79 28.1 108.32 28.1"/><path class="b" d="M119.06,17.71l10.13,10.14H108.92l10.14-10.14m0-.7L107.72,28.35h22.67L119.06,17Z"/><path class="c" d="M119.26,26.5A1.12,1.12,0,0,1,118,25.29v-3.1h-.93v-1H118V20l1.31-.39V21.2h1.62l-.39,1h-1.23V24.8c0,.41.16.6.5.6a1.73,1.73,0,0,0,.87-.29l.35.83A3.16,3.16,0,0,1,119.26,26.5Z"/></svg>