<svg xmlns="http://www.w3.org/2000/svg" viewBox="0 0 181.42 28.35"><defs><style>.a{fill:#9ca299;}.b{fill:#efeff0;}.c{fill:#fff;}.d{fill:#00a1c1;}</style></defs><title>income</title><polygon class="a" points="71.47 28.1 82.2 17.36 92.94 28.1 71.47 28.1"/><path class="b" d="M82.2,17.71,92.34,27.85H72.07L82.2,17.71m0-.7L70.87,28.35H93.54L82.2,17Z"/><path class="c" d="M82.41,26.5a1.12,1.12,0,0,1-1.29-1.21v-3.1H80.2v-1h.92V20l1.32-.39V21.2h1.62l-.39,1H82.44V24.8c0,.41.16.6.5.6a1.73,1.73,0,0,0,.87-.29l.35.83A3.16,3.16,0,0,1,82.41,26.5Z"/><polygon class="d" points="68.64 0.25 90.11 0.25 79.37 10.98 68.64 0.25"/><path class="b" d="M89.5.5,79.37,10.63,69.24.5H89.5M90.71,0H68L79.37,11.34,90.71,0Z"/><path class="c" d="M79.27,7.28a3.53,3.53,0,0,1-1.92-.49l.43-1a2.54,2.54,0,0,0,1.39.46c.54,0,.89-.2.89-.55,0-.94-2.39-.58-2.39-2.35,0-.9.71-1.54,2-1.54a4.05,4.05,0,0,1,1.53.26v1.1a4.06,4.06,0,0,0-1.47-.34c-.46,0-.74.14-.74.45,0,.83,2.44.55,2.44,2.34C81.39,6.83,80.37,7.28,79.27,7.28Z"/></svg>