<svg xmlns="http://www.w3.org/2000/svg" viewBox="0 0 181.42 28.35"><defs><style>.a{fill:#00a1c1;}.b{fill:#efeff0;}.c{fill:#fff;}</style></defs><title>aegon-adventurous-core-portfolio</title><polygon class="a" points="136.67 0.25 158.14 0.25 147.4 10.98 136.67 0.25"/><path class="b" d="M157.53.5,147.4,10.63,137.27.5h20.26m1.21-.5H136.06L147.4,11.34,158.74,0Z"/><path class="c" d="M147.3,7.28a3.56,3.56,0,0,1-1.92-.49l.43-1a2.54,2.54,0,0,0,1.39.46c.54,0,.89-.2.89-.55,0-.94-2.39-.58-2.39-2.35,0-.9.71-1.54,2-1.54a4,4,0,0,1,1.52.26v1.1a4.06,4.06,0,0,0-1.47-.34c-.46,0-.74.14-.74.45,0,.83,2.44.55,2.44,2.34C149.42,6.83,148.4,7.28,147.3,7.28Z"/></svg>