<svg xmlns="http://www.w3.org/2000/svg" viewBox="0 0 181.42 28.35"><defs><style>.a{fill:#00a1c1;}.b{fill:#efeff0;}.c{fill:#fff;}</style></defs><title>aegon-conservative-core-portfolio</title><polygon class="a" points="23.28 0.25 44.75 0.25 34.02 10.98 23.28 0.25"/><path class="b" d="M44.15.5,34,10.63,23.88.5H44.15m1.2-.5H22.68L34,11.34,45.35,0Z"/><path class="c" d="M33.92,7.28A3.57,3.57,0,0,1,32,6.79l.43-1a2.57,2.57,0,0,0,1.4.46c.54,0,.89-.2.89-.55,0-.94-2.4-.58-2.4-2.35,0-.9.72-1.54,2-1.54a4.05,4.05,0,0,1,1.53.26v1.1a4.12,4.12,0,0,0-1.48-.34c-.46,0-.73.14-.73.45,0,.83,2.44.55,2.44,2.34C36,6.83,35,7.28,33.92,7.28Z"/></svg>