<svg xmlns="http://www.w3.org/2000/svg" viewBox="0 0 181.42 28.35"><defs><style>.a{fill:#9ca299;}.b{fill:#efeff0;}.c{fill:#fff;}</style></defs><title>jupiter-strategic-bond</title><polygon class="a" points="43.12 28.1 53.86 17.36 64.59 28.1 43.12 28.1"/><path class="b" d="M53.86,17.71,64,27.85H43.73L53.86,17.71m0-.7L42.52,28.35H65.2L53.86,17Z"/><path class="c" d="M54.06,26.5a1.12,1.12,0,0,1-1.28-1.21v-3.1h-.92v-1h.92V20l1.32-.39V21.2h1.61l-.38,1H54.1V24.8c0,.41.15.6.49.6a1.73,1.73,0,0,0,.87-.29l.35.83A3.16,3.16,0,0,1,54.06,26.5Z"/></svg>