<svg xmlns="http://www.w3.org/2000/svg" viewBox="0 0 181.42 28.35"><defs><style>.a{fill:#9ca299;}.b{fill:#efeff0;}.c{fill:#fff;}.d{fill:#00a1c1;}</style></defs><title>multi-manager-total-return-2</title><polygon class="a" points="60.13 28.1 70.87 17.36 81.6 28.1 60.13 28.1"/><path class="b" d="M70.87,17.71,81,27.85H60.73L70.87,17.71m0-.7L59.53,28.35H82.2L70.87,17Z"/><path class="c" d="M71.07,26.5a1.12,1.12,0,0,1-1.28-1.21v-3.1h-.93v-1h.93V20l1.31-.39V21.2h1.62l-.38,1H71.1V24.8c0,.41.16.6.5.6a1.73,1.73,0,0,0,.87-.29l.35.83A3.16,3.16,0,0,1,71.07,26.5Z"/><polygon class="d" points="43.12 0.25 64.59 0.25 53.86 10.98 43.12 0.25"/><path class="b" d="M64,.5,53.86,10.63,43.73.5H64M65.2,0H42.52L53.86,11.34,65.2,0Z"/><path class="c" d="M53.76,7.28a3.53,3.53,0,0,1-1.92-.49l.43-1a2.51,2.51,0,0,0,1.39.46c.54,0,.89-.2.89-.55,0-.94-2.39-.58-2.39-2.35,0-.9.71-1.54,2-1.54a4.05,4.05,0,0,1,1.53.26v1.1a4.06,4.06,0,0,0-1.47-.34c-.46,0-.74.14-.74.45,0,.83,2.44.55,2.44,2.34C55.88,6.83,54.86,7.28,53.76,7.28Z"/></svg>