<svg xmlns="http://www.w3.org/2000/svg" viewBox="0 0 181.42 28.35"><defs><style>.a{fill:#9ca299;}.b{fill:#efeff0;}.c{fill:#fff;}.d{fill:#00a1c1;}</style></defs><title>multi-manager-income-3</title><polygon class="a" points="74.31 28.1 85.04 17.36 95.77 28.1 74.31 28.1"/><path class="b" d="M85,17.71,95.17,27.85H74.91L85,17.71m0-.7L73.7,28.35H96.38L85,17Z"/><path class="c" d="M85.24,26.5A1.12,1.12,0,0,1,84,25.29v-3.1H83v-1H84V20l1.32-.39V21.2h1.61l-.38,1H85.28V24.8c0,.41.15.6.49.6a1.73,1.73,0,0,0,.87-.29l.35.83A3.16,3.16,0,0,1,85.24,26.5Z"/><polygon class="d" points="60.13 0.25 81.6 0.25 70.87 10.98 60.13 0.25"/><path class="b" d="M81,.5,70.87,10.63,60.73.5H81M82.2,0H59.53L70.87,11.34,82.2,0Z"/><path class="c" d="M70.77,7.28a3.59,3.59,0,0,1-1.93-.49l.43-1a2.57,2.57,0,0,0,1.4.46c.54,0,.89-.2.89-.55,0-.94-2.4-.58-2.4-2.35,0-.9.72-1.54,2-1.54a4.05,4.05,0,0,1,1.53.26v1.1a4.12,4.12,0,0,0-1.48-.34c-.46,0-.73.14-.73.45,0,.83,2.44.55,2.44,2.34C72.89,6.83,71.87,7.28,70.77,7.28Z"/></svg>