<svg xmlns="http://www.w3.org/2000/svg" viewBox="0 0 181.42 28.35"><defs><style>.a{fill:#00a1c1;}.b{fill:#efeff0;}.c{fill:#fff;}</style></defs><title>carmignac-portfolio-emergents</title><polygon class="a" points="156.51 0.25 177.98 0.25 167.24 10.98 156.51 0.25"/><path class="b" d="M177.38.5,167.24,10.63,157.11.5h20.27m1.2-.5H155.91l11.33,11.34L178.58,0Z"/><path class="c" d="M167.15,7.28a3.57,3.57,0,0,1-1.93-.49l.43-1a2.57,2.57,0,0,0,1.4.46c.53,0,.89-.2.89-.55,0-.94-2.4-.58-2.4-2.35,0-.9.72-1.54,2-1.54a4,4,0,0,1,1.52.26v1.1a4.06,4.06,0,0,0-1.47-.34c-.46,0-.73.14-.73.45,0,.83,2.44.55,2.44,2.34C169.27,6.83,168.24,7.28,167.15,7.28Z"/></svg>