<svg xmlns="http://www.w3.org/2000/svg" viewBox="0 0 181.42 28.35"><defs><style>.a{fill:#00a1c1;}.b{fill:#efeff0;}.c{fill:#fff;}</style></defs><title>carmignac-portfolio-long-short-european-equities</title><polygon class="a" points="96.98 0.25 118.45 0.25 107.72 10.98 96.98 0.25"/><path class="b" d="M117.85.5,107.72,10.63,97.59.5h20.26m1.21-.5H96.38l11.34,11.34L119.06,0Z"/><path class="c" d="M107.62,7.28a3.59,3.59,0,0,1-1.93-.49l.43-1a2.57,2.57,0,0,0,1.4.46c.54,0,.89-.2.89-.55,0-.94-2.4-.58-2.4-2.35,0-.9.72-1.54,2-1.54a4.05,4.05,0,0,1,1.53.26v1.1A4.11,4.11,0,0,0,108,2.87c-.47,0-.74.14-.74.45,0,.83,2.44.55,2.44,2.34C109.74,6.83,108.72,7.28,107.62,7.28Z"/></svg>