<svg xmlns="http://www.w3.org/2000/svg" xmlns:xlink="http://www.w3.org/1999/xlink" viewBox="0 0 477.96 315.14"><defs><style>.a{fill:url(#a);}.b{fill:none;}.c{isolation:isolate;}.d{fill:#8d4a97;}.e{fill:#1d1d1b;}.f{mix-blend-mode:multiply;}.g{clip-path:url(#b);}.h{mask:url(#c);}.i{fill:url(#d);}</style><linearGradient id="a" x1="-181.94" y1="455.06" x2="-180.94" y2="455.06" gradientTransform="matrix(-128.18, 0, 0, 128.18, -23239.93, -58219.06)" gradientUnits="userSpaceOnUse"><stop offset="0"/><stop offset="1" stop-color="#fff"/></linearGradient><clipPath id="b"><path class="b" d="M101.25,212.07c-6.76-.22-8.81-1.91-10.66-3.85-4.34-4.56-6.54-16.54-6.24-20.77-4.83.49-5.48,6.09-4.53,9,2.27,7,6.12,12.51,3.93,15.62-1.45,2.07-7.13,1.05-8.39,4.73a100.64,100.64,0,0,1,16.28,0c8.78.86,10.87-1.55,16.67-.58-1.41-3.29-4.06-4.09-7.06-4.19m44-106.06c-1.75-5.62-16.5-44.78-25-68.31-1.17-7-1.64-12.88-2.81-16.16C115.08,15,110.64,9.83,97.06,5.85,90.81,4,86.75,3.27,83.48,0c.16,5.23,4.54,8.23,5.28,10-14.1,6.67-11,22.19-8.54,30.26C84,52.44,96,67.73,98.48,79.36c2,9.26-6.81,15-11.94,17.91-3.46,2-6.58,3.63-9.46,5.18,16.46-3.17,27.56,6.77,18.22,23,2.25-16.74-13.5-12.34-23.5-6-21.72,13.87-41.86,55.7-41.86,55.7s6.7-32.34,21.77-54A112,112,0,0,0,38.15,139c-9.68,15.42-14,43.47-38.15,48.3,4.08,3.49,11.73,4.6,17.7,4.38a29.94,29.94,0,0,0,13.89-4.4c12.88-8.13,36.31-24.2,52.6-42.85-10.37,17.83-38,37.13-51,45.51,20-3.44,40.89-10.06,43.46-2.49,2.11-4.57,15.46-8.78,18.21-24.54,1.93,4.34-.76,9.57.74,7.76,11.74-14.17,41-57.47,24.61-85.25,7.64,8.36,16.51,17.59,20.29,21.17,2.23,2.12,2.29,4.56,2.41,6.61,1.7-1.11,3.68-2.73,2.28-7.2M109.81,30a2.19,2.19,0,0,1,2.83,1.25c.44,1.13.18,2.31-.72,3.73a4.21,4.21,0,0,1-3.36-2.15A2.2,2.2,0,0,1,109.81,30M98.94,44.26c-4.39-1.17-12.73-5.15-8-18.21-.94,6.41,1.45,13,8.9,15.52,5.2-3.71,9.11,2.19,9.6,3,4.39,6.72,19,39.52,25.8,48.66-3.51-9-20.3-47.1-21.79-50.62s2.36-4.25,3.28-2.34c1.92,4,22.79,54.93,25.6,63.71-6.15-6-44.08-46.09-43.39-59.72"/></clipPath><mask id="c" x="-89.05" y="-59.98" width="324.74" height="337.66" maskUnits="userSpaceOnUse"><rect class="a" x="-57.08" y="-6.38" width="260.78" height="230.47" transform="translate(-57.08 123.74) rotate(-62.55)"/></mask><linearGradient id="d" x1="-181.94" y1="455.06" x2="-180.94" y2="455.06" gradientTransform="matrix(-128.18, 0, 0, 128.18, -23239.93, -58219.06)" gradientUnits="userSpaceOnUse"><stop offset="0" stop-color="#1d1d1b"/><stop offset="1" stop-color="#1d1d1b"/></linearGradient></defs><g class="c"><path class="d" d="M101.25,212.07c-6.76-.22-8.81-1.91-10.66-3.85-4.34-4.56-6.54-16.54-6.24-20.77-4.83.49-5.48,6.09-4.53,9,2.26,7,6.12,12.51,3.93,15.62-1.45,2.07-7.13,1.05-8.39,4.73a100.64,100.64,0,0,1,16.28,0c8.78.86,10.87-1.55,16.67-.58-1.41-3.29-4.06-4.09-7.06-4.19m44-106.06c-1.75-5.62-16.5-44.78-25-68.31-1.17-7-1.64-12.88-2.81-16.16C115.08,15,110.64,9.83,97.06,5.85,90.81,4,86.75,3.27,83.48,0c.16,5.23,4.54,8.22,5.28,10-14.1,6.67-11,22.19-8.54,30.26C84,52.44,96,67.72,98.48,79.36c2,9.26-6.81,15-11.94,17.91-3.46,2-6.58,3.63-9.46,5.18,16.46-3.17,27.56,6.77,18.22,23,2.25-16.74-13.5-12.34-23.5-6-21.72,13.87-41.86,55.7-41.86,55.7s6.7-32.34,21.77-54A112,112,0,0,0,38.15,139c-9.68,15.42-14,43.47-38.15,48.3,4.08,3.49,11.73,4.6,17.7,4.38a29.94,29.94,0,0,0,13.89-4.4c12.88-8.13,36.31-24.2,52.6-42.85-10.37,17.84-38,37.13-51,45.51,20-3.44,40.89-10.06,43.46-2.49,2.11-4.57,15.46-8.78,18.21-24.54,1.93,4.34-.76,9.57.74,7.76,11.74-14.17,41-57.47,24.61-85.25,7.64,8.36,16.51,17.59,20.29,21.17,2.23,2.12,2.29,4.56,2.41,6.61,1.7-1.11,3.68-2.73,2.28-7.2M109.81,30a2.19,2.19,0,0,1,2.83,1.25c.44,1.13.18,2.31-.72,3.73a4.21,4.21,0,0,1-3.36-2.15A2.2,2.2,0,0,1,109.81,30M98.94,44.26c-4.39-1.17-12.73-5.15-8-18.21-.94,6.41,1.45,13,8.9,15.52,5.2-3.71,9.11,2.19,9.6,3,4.39,6.71,19,39.52,25.8,48.66-3.51-9-20.3-47.1-21.79-50.62s2.36-4.25,3.28-2.34c1.92,4,22.79,54.93,25.6,63.71-6.15-6-44.08-46.09-43.39-59.72"/><path class="e" d="M31.46,226.23c-3.76,1.36-6.28,5.4-6.28,10.87v58.47c0,8.65,1.65,12.62,10,12.62,12.39,0,27.74-6,34.22-18.72-2.26,9.8-5.33,22.49-5.33,22.49h-57c3.6-1.85,6.17-4.89,6.17-10.84v-64c0-7.1-4-9.85-6.2-10.92Z"/><path class="e" d="M231.28,226.19H211.83a11.8,11.8,0,0,1,7.52,10.87V289.5l-45.94-63.3H155.73a21.06,21.06,0,0,1,7.6,6v68.89a11.69,11.69,0,0,1-7.5,10.83h19.45a11.78,11.78,0,0,1-7.51-10.86V238.21l56,76.93,0-78.11a11.7,11.7,0,0,1,7.49-10.84"/><path class="e" d="M438.05,130.57c-3.77,1.36-6.29,5.38-6.29,10.85v58.47c0,8.65,1.65,12.62,10,12.62,12.39,0,27.74-6,34.23-18.72-2.26,9.8-5.34,22.49-5.34,22.49h-57c3.6-1.85,6.17-4.89,6.17-10.84v-64c0-7.1-4-9.83-6.2-10.9Z"/><path class="e" d="M403,204.72c-4.05-10.25-12.3-32.68-29-76.91C363.67,155,348,196.5,344.77,204.76c-3.12,8-6.72,9.66-10.27,11.55h18c-2.94-.94-5.7-5.14-3.85-10,1-2.75,7.74-20.28,7.74-20.28h27.12s6.39,16.52,7.76,20.28c1.82,5,.16,8.3-3.86,10h25.9c-3-1.19-7.44-4.16-10.37-11.59m-45-22.69L370,150.23,382,182Z"/><path class="e" d="M337,130.57c3.23.93,6.52,5.75,2.88,11.72l-18,29.67S307.3,145.52,305,141.15c-2.58-5,1.25-9.73,3.11-10.58H280.86c6.33,2.92,10.37,8.86,12.65,13,3.69,6.73,19.09,35.05,19.09,35.05v26.82c0,5.36-2.22,8.81-6.14,10.83h24.1c-3.93-1.93-6.09-5.52-6.09-10.88V175.47s17.8-29.34,21.17-34.81c1.65-2.68,5.89-8,10.29-10.09Z"/><path class="e" d="M219.7,173.54c0,27.23,11.47,40.52,29.14,40.52s29.24-13.29,29.24-40.52-11.57-40.4-29.25-40.4-29.13,13.18-29.13,40.4m71.87,0c0,28.67-21,44.53-42.74,44.53s-42.75-15.86-42.75-44.53c0-28.88,20.9-44.52,42.75-44.52,21.65,0,42.74,15.73,42.74,44.52"/><path class="e" d="M82.49,269c0,27.22,11.47,40.51,29.15,40.51s29.23-13.29,29.23-40.51-11.57-40.4-29.25-40.4S82.49,241.82,82.49,269m71.87,0c0,28.66-21,44.53-42.74,44.53S68.88,297.7,68.88,269c0-28.89,20.89-44.52,42.74-44.52,21.65,0,42.74,15.73,42.74,44.52"/><path class="e" d="M328.26,269c0,27.22,11.47,40.51,29.14,40.51s29.24-13.29,29.24-40.51-11.57-40.4-29.25-40.4-29.13,13.18-29.13,40.4m71.87,0c0,28.66-21,44.53-42.74,44.53S314.65,297.7,314.65,269c0-28.89,20.89-44.52,42.74-44.52,21.65,0,42.74,15.73,42.74,44.52"/><path class="e" d="M168.9,130.56c39,0,42.79,43.71-1.45,43.52,18.2.79,18.37,8.27,35.39,30.19,3.75,4.84,7.86,10.86,13.56,12H197c-6.85-9.39-18-24.71-24.69-33.87-5.41-7.41-10-7.16-14.32-7.16-2.84,0-2.43,0-2.43,0v30.13c0,5.44,2.07,8.94,6.11,10.87H137.6c4.06-2,6.16-5.63,6.16-10.84V141.39c0-5.3-2.23-9.14-6.12-10.83Zm-13.31,41h7.5c15.15,0,22.64-5.35,22.64-18.7,0-12.22-6.5-18.35-20.61-18.35a88.9,88.9,0,0,0-9.53.43Z"/><path class="e" d="M478,226.19H458.51A11.79,11.79,0,0,1,466,237.06V289.5l-45.93-63.3H402.41a21.14,21.14,0,0,1,7.6,6v68.89a11.71,11.71,0,0,1-7.5,10.83H422a11.78,11.78,0,0,1-7.52-10.86V238.21l56,76.93,0-78.11a11.72,11.72,0,0,1,7.5-10.84"/><path class="e" d="M263,226.18c38.53,0,45,29.51,45,43.51,0,26.58-15.52,42.23-42.74,42.23h-31.7c3.84-2.11,6.26-5.65,6.26-11v-64c0-5.68-3.14-9.47-6.22-10.71H263m3.5,82c18.45,0,28-11.12,28-35.29,0-30-10.3-42.92-32.57-42.92-2.41,0-5.71.13-10.29.39v59.38c0,13.1,2.16,18.44,14.88,18.44"/><g class="f"><g class="g"><g class="h"><rect class="i" x="-57.08" y="-6.38" width="260.78" height="230.47" transform="translate(-57.08 123.74) rotate(-62.55)"/></g></g></g></g></svg>