<svg xmlns="http://www.w3.org/2000/svg" viewBox="0 0 632.91 126.22"><defs><style>.a{fill:#e30052;}.b{fill:#1a171b;}</style></defs><path class="a" d="M631.18,36.05C595.53,56.6,557.56,72,515.2,70.1c-29.66-1.49-57.06-8.35-85.66-13.35C410.64,53.4,391.8,58,377.1,71l-7.31,6.65h-.45c20.22-23,47.15-31.85,75.77-29.08l15.71,2,39.4,6.87c33.69,5.55,72.34,4.44,103.46-9.09A235.44,235.44,0,0,0,631.1,35.8" transform="translate(-40.73 -35.8)"/><path class="b" d="M672,82.69l-1.5,6.66c-1.19-.18-2.11-1.67-3.3-2-3.3-1.66-7.63-3-11.37-1.28-.76.36-.91,1.47-.6,2.41l1.33,1.28c6.16,4.11,17.54,4.11,17.09,16-.76,4.82-4.64,7.2-7.93,8.7-7.8,2-16.94.74-24.7-.74-.45-1.13.15-2.41.15-3.71l.29-4.47c4.32,4.28,10.77,6.88,16.16,3.54,1-.93.9-2.23.74-3.32l-1.49-1.49c-5.69-3.14-13.91-3.7-16.3-12.22-.59-3.16.6-5.19,2.09-7.24,6.27-5,14.21-3.89,21.71-3.33" transform="translate(-40.73 -35.8)"/><path class="b" d="M637.41,82.12l-10.95,32.43H609.82l.61-2.23c-1.5-4.63-2.55-10-4.35-14.44-2.4,5.37-4.19,11.1-6.13,16.67l-16.49.19a4.76,4.76,0,0,0,.32-3.53l-7.51-24.45-2.69-4.45c5.85,0,11.39-.39,16.94,0l6.73,23.35c2.56-4.26,3.47-10,5.38-14.65a7.9,7.9,0,0,0-.44-6.11l-1.78-2.78h16.31c2.54,7.79,4,15.95,7,23.32l.6-.89,4.94-14.84c.74-2.77-.45-5.56-2-7.59a59.29,59.29,0,0,1,10.06,0" transform="translate(-40.73 -35.8)"/><path class="b" d="M311.53,84.15c-.6,2.43-1.2,4.83-1.65,7.42-4.25-3.17-8.39-5.37-13.49-4.63a2.11,2.11,0,0,0-1.79,1.49c-.6,1.48.9,2.41,1.65,3,5.7,3.7,13.93,3.52,16.93,12.43.91,3.5-.46,6.09-2.41,8.67-8.53,7.23-20.81,4.28-30.68,2.61,0-3,.29-5.38.44-8.35,4.34,4.28,10.63,6.5,16,4.1,1.05-.75,1.78-2.55,1.05-3.53-3.6-3.7-8.55-4.07-12.57-6.67a10.7,10.7,0,0,1-5.25-7.77,9.17,9.17,0,0,1,4.34-8.35c8.38-3.71,18.57-1.68,27.41-.38" transform="translate(-40.73 -35.8)"/><path class="b" d="M72.07,84.35A43.1,43.1,0,0,0,71,88.89l-.41,2.68c-4-3.52-9.61-5.55-14.67-3.89a2.19,2.19,0,0,0-.6,2.79c1.84,3,13.47,4.07,18,11.68a11.57,11.57,0,0,1,.61,6.47c-3.16,8.7-11.24,8.15-18,8.52a66.86,66.86,0,0,1-15-2,41.45,41.45,0,0,0,.59-7.78c4,3.33,8.84,5.93,14.23,4.43a4,4,0,0,0,3-2.77A3.16,3.16,0,0,0,57,106c-5.85-3.69-16.94-3.87-16.19-15.37,1.65-7,8.25-7.42,13.34-8,6-.38,12.12,1.1,18,1.66" transform="translate(-40.73 -35.8)"/><path class="b" d="M113.11,84.53l-1.49,7c-3.6-3.52-8.26-5.37-12.89-3.89-2.56,1.11-4.35,4.44-4.5,7.79-.15,5-.9,10.93,2.7,14.25,3.44,3.71,9.74,3,13.48.38l3-2.6c.15,2.22.15,4.63.15,6.68-9.74,3.88-24.13,5.54-32.06-4.64a18.67,18.67,0,0,1-2.39-14.63C81.81,86,89.59,83.06,96.63,82.69c5.84-.57,10.94,1.1,16.48,1.84" transform="translate(-40.73 -35.8)"/><path class="b" d="M249.53,82.85c-.44,3.17-1.8,5.77-2.1,8.91a18.62,18.62,0,0,0-10.34-3.89l-.45.36.15,25a13,13,0,0,0,1,2.59H220l1-3.15c.16-8.7.45-15.93.16-24.46-4.5-.36-9.15,1.31-13,3.89.76-3.14,1.81-5.54,2.25-8.89,13.18.19,25.77,1.12,39.09-.38" transform="translate(-40.73 -35.8)"/><path class="b" d="M202.19,83.61l4.35-.55c-1,2.76-1.34,5.73-1.94,8.7-3.29-2.22-6.89-3.89-10.92-3.53-.29,8.53-.15,16.88-.15,24.46l1.18,3.33H177.18c2.26-5.37.76-12.59,1.36-18.89l-.3-8.9c-4.49-.18-9,1.48-12.87,3.89l1.94-8.89c2.26,0,4.93.38,7,.56" transform="translate(-40.73 -35.8)"/><path class="b" d="M432.83,115.65H416.19a6.06,6.06,0,0,0,0-4.62c-1.48-3.9-1.93-8.14-3.73-11.86-2.25,5.19-3.9,10.93-5.85,16.29l-.43.38h-16c1.2-2.79-.45-5.36-.9-8-3.29-8-3.89-17.6-9-24.45l16.65-.19.59.75c2.26,7.59,3.73,15.38,6.28,22.58l.75-.9c1.66-5.74,4.5-10.75,4.94-17a9,9,0,0,0-2.7-5.2L423,83.23l.74.92,6.14,22.41.45-.16,5.24-14.83a10.24,10.24,0,0,0-2.1-8.38c3.24,0,7.34-.13,10.49,0" transform="translate(-40.73 -35.8)"/><path class="b" d="M465.62,87.13V111c.45,1.66.45,3,1.34,4.43-5.69.38-11.82,0-17.66.19a15.09,15.09,0,0,0,1.35-5.17l-.31-23.9-1.21-3.52h17.68" transform="translate(-40.73 -35.8)"/><path class="b" d="M272.14,83.23c-1.05,1.48-1.19,3.53-1.34,5.39,0,8.51-.61,17.58.45,25.56l.74,1.66-17.81.18a16.34,16.34,0,0,0,1.34-5.17V87.13a14.49,14.49,0,0,0-1.34-3.71c5.66-.36,12.12,0,18-.19" transform="translate(-40.73 -35.8)"/><path class="b" d="M337.15,83.42c-1.95,3.34-1.21,8.31-1.35,12.59l.58.1L347.46,96c.16-3.34.76-8.16-.45-11.13l-.94-1.52c5.8,0,12,0,18,0a12.76,12.76,0,0,0-1.5,5l.31,23.89a9.66,9.66,0,0,0,1.19,3.52c-5.68,0-11.95,0-17.83,0,2.4-3.71,1.06-9.24,1.36-14l-.16-.39-11.52-.05c.15,4.79-.9,10.4,1.21,14.49l-17.84,0c1.2-2,1.34-4.22,1.5-6.82l-.3-22.22-1.2-3.34" transform="translate(-40.73 -35.8)"/><path class="b" d="M571.66,94.73a18.15,18.15,0,0,1-2.4,13.7c-7.5,9.26-19.64,8.52-29.5,6.67-5.4-1.67-11.85-5.19-13.21-12.77-.57-4.82,0-10.21,3-13.9,3.74-4.28,8.74-5.48,13.26-6.9a24.17,24.17,0,0,1,3.5-.15c9.6.22,21.59.54,25.33,13.35M547.38,86c-2.68.56-4.32,3.89-4.93,6.86-.15,5.75-1.2,11.29,1.92,16.1,1.81,2.6,4.8,2.77,7.2,2a7.25,7.25,0,0,0,3.6-4.09A32.11,32.11,0,0,0,555,89.71C553.51,86.2,550.23,85.46,547.38,86Z" transform="translate(-40.73 -35.8)"/><path class="b" d="M161.63,92.52a18.49,18.49,0,0,1-.76,16.1c-8.23,11.1-26,9.78-32.95,6.48-4.19-1.85-8.83-5.38-10.18-10.93-1.2-4.25-.29-9.26,1.5-13,6.29-9.08,16.78-9.45,26.5-8.51,6,.92,12.29,3.33,15.89,9.83m-25.31-4.29c-2.24,1.68-3.19,4.93-3.15,7.42-.14,5.38-1.2,13,4.2,16.1a6.78,6.78,0,0,0,6.72-.72,10.75,10.75,0,0,0,2.7-5.76c.29-5.91.9-11.85-2.24-16.65A5.92,5.92,0,0,0,136.32,88.23Z" transform="translate(-40.73 -35.8)"/><path class="b" d="M515.36,87.13c3.86,2.78,5.35,8,5.35,13.34-.44,2.78-1.33,5.93-3,8-3.89,5-9.27,6.49-14.82,6.85-9,.56-18,.18-27.1.37,1.64-2.22,1-5.17,1.18-8l-.14-22-1.18-2.79c13.45,1.3,28.16-2.95,39.69,4.28m-22.95.36v22.8l.47.36c4.05.2,8.84.38,10.95-4.63,1.32-4.06,1.62-10.37-.32-14.26C501.13,86.94,496.63,87.13,492.41,87.49Z" transform="translate(-40.73 -35.8)"/><path class="b" d="M339.53,123.26c-14.84,15.54-32,26.49-51.37,29.63-28.76,4.45-56-4.81-83.86-8.91-30.55-5.36-64.54-7-94.33,1.5A213,213,0,0,0,67.15,162c-.45-.17-.33,0-.33-.41l9.89-5.19c33.55-16.87,68.89-28.36,108.58-25.94A305.74,305.74,0,0,1,228,136l39.52,8.34c21,5.58,44.65,2.23,61.26-12.76l9.89-8.34" transform="translate(-40.73 -35.8)"/></svg>