<svg xmlns="http://www.w3.org/2000/svg" viewBox="0 0 723.21 251.67"><defs><style>.a{fill:#0060a8;}.b{fill:#1d1e1c;}</style></defs><title>logo-aegon</title><path class="a" d="M213.26,132.05H174.68l19.57-57.86c6,19.24,13.23,38.62,19,57.86"/><polygon class="b" points="332.35 149.31 256.25 149.31 256.25 111.77 310.47 111.77 310.47 89.97 255.74 89.97 255.74 61.8 326.79 61.8 326.79 39.04 229.48 39.04 229.48 100.17 254.65 173.03 332.35 173.03 332.35 149.31"/><path class="b" d="M697,131.26a14.43,14.43,0,0,0-1.55-6.35h0L638.9,39.08H615.64V173h25l-.36-89.39s.75,1.51,2.38,4.43,55.61,85,55.61,85h25V39.08H697Z"/><polygon class="b" points="640.71 206.34 640.71 221.87 270.97 221.87 265.76 206.34 640.71 206.34"/><path class="b" d="M398.85,121.64h33.27c-3.22,25.63-26.46,30.11-32.7,30.11-19.36,0-37.84-12.84-39.25-44.65-1.45-32.91,18-48,38.38-48,20,0,30.11,19.31,33.32,24.48L454,74c-1-5-15.28-37.54-57-37.54-45.88-.3-63.39,34.34-63.39,70.24,0,46.08,31.28,67.6,60.88,68.31,26.08.6,32.55-8.66,38.13-14.5v12.14H454.1v-73H398.85Z"/><polygon class="a" points="236.55 196.82 64.31 251.67 0 62.31 195.01 0 208.47 39.03 181.05 39.03 135.99 173.04 162.62 173.04 169.34 155.22 222.41 155.22 236.55 196.82"/><path class="b" d="M497.27,105.57c0-37.08,22.49-47.57,37.3-47.57s38.37,11.12,37.9,48.12c-.49,36.57-23.14,44.76-37.9,44.76s-37.3-8.32-37.3-45.31m-27.34,0c0,47.21,33.16,68.94,65.08,68.94,20.21,0,64.06-10.6,64.06-68.94S551.91,35.9,534.57,35.9s-64.64,11.68-64.64,69.67"/></svg>