<svg xmlns="http://www.w3.org/2000/svg" viewBox="0 0 648.53 125.52"><defs><style>.a{fill:#000b8c;}.b{fill:#76777a;}</style></defs><path class="a" d="M158.57,225.26a58.29,58.29,0,0,0-41.22,99.52L139.09,303a27.56,27.56,0,1,1,39,0l21.74,21.75a58.29,58.29,0,0,0-41.23-99.52" transform="translate(-100.27 -225.26)"/><path class="b" d="M121.8,328.82a58.34,58.34,0,0,0,73.54,0L158.59,292Z" transform="translate(-100.27 -225.26)"/><path class="b" d="M254.53,310.86h5.78l11.94,31h-5.82l-2.91-8.21H251.14l-2.91,8.21h-5.6Zm-1.91,18.67h9.46l-4.64-13.33h-.13Z" transform="translate(-100.27 -225.26)"/><path class="b" d="M277.81,334.66c.26,2.86,2.43,3.91,5.08,3.91,1.87,0,5.13-.39,5-2.95s-3.74-2.92-7.34-3.74-7.21-2.09-7.21-6.65c0-4.91,5.29-6.43,9.38-6.43,4.61,0,8.77,1.91,9.38,6.91h-5.16c-.44-2.35-2.4-3-4.57-3-1.43,0-4.08.35-4.08,2.3,0,2.44,3.65,2.78,7.29,3.61s7.26,2.13,7.26,6.56c0,5.34-5.39,7.3-10,7.3-5.65,0-9.86-2.52-9.95-7.82Z" transform="translate(-100.27 -225.26)"/><path class="b" d="M299.92,334.66c.26,2.86,2.43,3.91,5.08,3.91,1.87,0,5.12-.39,5-2.95s-3.74-2.92-7.34-3.74-7.21-2.09-7.21-6.65c0-4.91,5.3-6.43,9.38-6.43,4.6,0,8.77,1.91,9.38,6.91h-5.16c-.44-2.35-2.39-3-4.57-3-1.43,0-4.08.35-4.08,2.3,0,2.44,3.65,2.78,7.3,3.61s7.25,2.13,7.25,6.56c0,5.34-5.38,7.3-10,7.3-5.65,0-9.86-2.52-9.95-7.82Z" transform="translate(-100.27 -225.26)"/><path class="b" d="M321.51,331.92c0,3.52,1.91,6.65,6,6.65,2.87,0,4.6-1.26,5.47-3.73h4.69c-1.08,4.9-5.25,7.64-10.16,7.64-7,0-11-4.91-11-11.82,0-6.38,4.17-11.86,10.86-11.86,7.08,0,11.42,6.39,10.6,13.12Zm11.55-3.26c-.17-3.12-2.3-6-5.64-6a5.87,5.87,0,0,0-5.91,6Z" transform="translate(-100.27 -225.26)"/><path class="b" d="M338.89,319.41h3.73v-6.73h4.95v6.73h4.48v3.7h-4.48v12c0,2,.18,3.09,2.39,3.09a8.17,8.17,0,0,0,2.09-.18v3.83c-1.08.08-2.13.26-3.21.26-5.18,0-6.13-2-6.22-5.74V323.11h-3.73Z" transform="translate(-100.27 -225.26)"/><polygon class="b" points="266.72 85.59 274.36 85.59 282.92 109.88 283.01 109.88 291.35 85.59 298.9 85.59 298.9 116.61 293.74 116.61 293.74 92.68 293.65 92.68 285.05 116.61 280.57 116.61 271.98 92.68 271.89 92.68 271.89 116.61 266.72 116.61 266.72 85.59"/><path class="b" d="M421.64,336.88c0,1.21.26,1.69,1.17,1.69a6.61,6.61,0,0,0,1.22-.09v3.43a12.54,12.54,0,0,1-3.13.57c-2,0-3.43-.7-3.82-2.74-1.95,1.91-5.13,2.74-7.77,2.74-4.05,0-7.7-2.18-7.7-6.57,0-5.6,4.48-6.51,8.65-7,3.56-.66,6.73-.27,6.73-3.18,0-2.56-2.65-3-4.65-3-2.78,0-4.73,1.14-4.95,3.56h-4.95c.35-5.77,5.26-7.47,10.21-7.47,4.39,0,9,1.78,9,6.52Zm-4.95-6.26c-1.52,1-3.91.95-6.09,1.34s-4,1.13-4,3.74c0,2.21,2.83,2.87,4.57,2.87,2.17,0,5.56-1.13,5.56-4.26Z" transform="translate(-100.27 -225.26)"/><path class="b" d="M426.33,319.41H431v3.3l.09.09a8,8,0,0,1,7-4c4.87,0,7.95,2.61,7.95,7.65v15.42H441.1V327.75c-.09-3.52-1.48-5-4.39-5-3.3,0-5.43,2.61-5.43,5.91v13.25h-4.95Z" transform="translate(-100.27 -225.26)"/><path class="b" d="M468.34,336.88c0,1.21.25,1.69,1.17,1.69a6.57,6.57,0,0,0,1.21-.09v3.43a12.38,12.38,0,0,1-3.12.57c-2,0-3.43-.7-3.82-2.74a11.57,11.57,0,0,1-7.78,2.74c-4,0-7.69-2.18-7.69-6.57,0-5.6,4.48-6.51,8.64-7,3.57-.66,6.73-.27,6.73-3.18,0-2.56-2.64-3-4.64-3-2.78,0-4.74,1.14-5,3.56h-4.95c.34-5.77,5.25-7.47,10.2-7.47,4.39,0,9,1.78,9,6.52Zm-5-6.26c-1.52,1-3.91.95-6.08,1.34s-4,1.13-4,3.74c0,2.21,2.82,2.87,4.56,2.87,2.17,0,5.56-1.13,5.56-4.26Z" transform="translate(-100.27 -225.26)"/><path class="b" d="M493.57,340.7c0,6.73-3.95,10.08-11,10.08-4.51,0-9.59-1.74-10-7h4.95c.61,2.83,2.86,3.3,5.38,3.3,4,0,5.78-2,5.78-5.73v-3.43h-.08a7.71,7.71,0,0,1-6.74,3.95c-7.12,0-10.07-5.39-10.07-11.81,0-6,3.77-11.26,10.16-11.26a7.08,7.08,0,0,1,6.65,3.7h.08v-3.09h4.95Zm-4.95-10.56c0-3.87-1.73-7.42-6-7.42s-5.91,4.08-5.91,7.81,1.78,7.43,5.91,7.43c4.38,0,6-4,6-7.82" transform="translate(-100.27 -225.26)"/><path class="b" d="M500.69,331.92c0,3.52,1.92,6.65,6,6.65,2.87,0,4.61-1.26,5.48-3.73h4.69c-1.09,4.9-5.26,7.64-10.17,7.64-7,0-11-4.91-11-11.82,0-6.38,4.16-11.86,10.86-11.86,7.08,0,11.42,6.39,10.59,13.12Zm11.56-3.26c-.18-3.12-2.3-6-5.64-6a5.88,5.88,0,0,0-5.92,6Z" transform="translate(-100.27 -225.26)"/><path class="b" d="M519.68,319.41h4.69v3.13h.13a7.51,7.51,0,0,1,6.91-3.74c2.73,0,5.3,1.17,6.3,3.74a8.12,8.12,0,0,1,7-3.74c4.73,0,7.51,2.09,7.51,7.56v15.51h-5V328.75c0-3.56-.22-6-4.09-6-3.34,0-4.77,2.22-4.77,6v13.16h-5V327.44c0-3.08-1-4.73-4-4.73-2.56,0-4.91,2.09-4.91,5.83v13.33h-5Z" transform="translate(-100.27 -225.26)"/><path class="b" d="M559,331.92c0,3.52,1.91,6.65,6,6.65,2.87,0,4.61-1.26,5.48-3.73h4.69c-1.08,4.9-5.26,7.64-10.17,7.64-7,0-11-4.91-11-11.82,0-6.38,4.16-11.86,10.86-11.86,7.08,0,11.42,6.39,10.59,13.12Zm11.55-3.26c-.17-3.12-2.3-6-5.64-6a5.87,5.87,0,0,0-5.91,6Z" transform="translate(-100.27 -225.26)"/><path class="b" d="M577.93,319.41h4.7v3.3l.08.09a8,8,0,0,1,7-4c4.86,0,7.95,2.61,7.95,7.65v15.42H592.7V327.75c-.09-3.52-1.48-5-4.39-5-3.3,0-5.43,2.61-5.43,5.91v13.25h-5Z" transform="translate(-100.27 -225.26)"/><path class="b" d="M599.09,319.41h3.73v-6.73h5v6.73h4.47v3.7h-4.47v12c0,2,.17,3.09,2.39,3.09a8.14,8.14,0,0,0,2.08-.18v3.83c-1.09.08-2.13.26-3.21.26-5.17,0-6.13-2-6.22-5.74V323.11h-3.73Z" transform="translate(-100.27 -225.26)"/><path class="b" d="M282.82,260.4c-1.68-6.55-5.91-11.33-14.2-11.33-12.21,0-17.31,10.76-17.31,21.7s5.1,21.69,17.31,21.69c8.85,0,13.72-6.62,14.51-14.91h9.74c-.8,13.64-10.45,23.05-24.25,23.05-17.07,0-27.29-13.56-27.29-29.83s10.22-29.84,27.29-29.84c12.84.08,23,7.18,24.17,19.47Z" transform="translate(-100.27 -225.26)"/><rect class="b" x="196.51" y="17.03" width="9.09" height="56.96"/><path class="b" d="M310.34,278.58c0-12.6,7.58-21.7,20.82-21.7S352,266,352,278.58s-7.58,21.78-20.83,21.78-20.82-9.09-20.82-21.78m32.55,0c0-7.1-3.59-14.51-11.73-14.51s-11.72,7.41-11.72,14.51,3.59,14.6,11.72,14.6,11.73-7.42,11.73-14.6" transform="translate(-100.27 -225.26)"/><path class="b" d="M364.19,286c.48,5.27,4.47,7.19,9.34,7.19,3.43,0,9.41-.72,9.17-5.43s-6.86-5.35-13.48-6.86S356,277.07,356,268.69c0-9,9.73-11.8,17.23-11.8,8.46,0,16.11,3.51,17.23,12.68H381c-.8-4.31-4.39-5.5-8.38-5.5-2.63,0-7.5.64-7.5,4.23,0,4.46,6.7,5.1,13.4,6.62s13.32,3.9,13.32,12c0,9.81-9.89,13.41-18.42,13.41-10.37,0-18.11-4.63-18.27-14.37Z" transform="translate(-100.27 -225.26)"/><path class="b" d="M403.93,281c0,6.46,3.5,12.2,11.08,12.2,5.27,0,8.46-2.31,10.05-6.86h8.62c-2,9-9.65,14-18.67,14-12.92,0-20.18-9-20.18-21.7,0-11.72,7.66-21.78,19.94-21.78,13,0,21,11.73,19.47,24.1Zm21.22-6c-.32-5.74-4.23-10.92-10.38-10.92s-10.61,4.78-10.84,10.92Z" transform="translate(-100.27 -225.26)"/><path class="b" d="M456.87,242.29h27.68c10.21,0,16.91,4.63,16.91,14.12,0,5.74-2.95,9.89-8.13,12.12v.16c6.94,1.52,10.68,6.94,10.68,14.68,0,8.94-6.22,15.88-21,15.88H456.87Zm10,23.85h16.27c4.79,0,8.38-2.79,8.38-7.9,0-5.74-2.95-7.82-8.38-7.82H466.84Zm0,25h17.63c6.06,0,9.57-3.27,9.57-9,0-5.58-3.51-8.77-9.57-8.77H466.84Z" transform="translate(-100.27 -225.26)"/><path class="b" d="M507.48,258H516v8h.17c1-4.39,6.46-9.1,12.05-9.1a21,21,0,0,1,3.42.25v8.77a32.18,32.18,0,0,0-3.91-.4c-6.22,0-11.17,5-11.17,14.12v19.63h-9.09Z" transform="translate(-100.27 -225.26)"/><path class="b" d="M532.61,278.58c0-12.6,7.58-21.7,20.82-21.7s20.82,9.1,20.82,21.7-7.58,21.78-20.82,21.78-20.82-9.09-20.82-21.78m32.55,0c0-7.1-3.59-14.51-11.73-14.51s-11.73,7.41-11.73,14.51,3.59,14.6,11.73,14.6,11.73-7.42,11.73-14.6" transform="translate(-100.27 -225.26)"/><path class="b" d="M575,258h6.86V242.39h9.1V258h8.22v6.79h-8.22v22c0,3.75.31,5.67,4.38,5.67a15.62,15.62,0,0,0,3.84-.32v7c-2,.15-3.92.48-5.91.48-9.5,0-11.25-3.68-11.41-10.53V264.79H575Z" transform="translate(-100.27 -225.26)"/><path class="b" d="M603.53,242.29h9.1v21.14h.15a14.44,14.44,0,0,1,12.37-6.54c8.93,0,14.59,4.78,14.59,14v28.32h-9.09V273.32c-.16-6.46-2.71-9.25-8-9.25-6.07,0-10,4.79-10,10.85v24.33h-9.1Z" transform="translate(-100.27 -225.26)"/><path class="b" d="M653.07,281c0,6.46,3.51,12.2,11.09,12.2,5.27,0,8.46-2.31,10.06-6.86h8.61c-2,9-9.65,14-18.67,14-12.92,0-20.18-9-20.18-21.7,0-11.72,7.66-21.78,19.94-21.78,13,0,21,11.73,19.47,24.1Zm21.22-6c-.32-5.74-4.23-10.92-10.37-10.92-6.3,0-10.61,4.78-10.85,10.92Z" transform="translate(-100.27 -225.26)"/><path class="b" d="M687.06,258h8.54v8h.15c1-4.39,6.47-9.1,12.06-9.1a21.33,21.33,0,0,1,3.43.25v8.77a32.59,32.59,0,0,0-3.91-.4c-6.23,0-11.17,5-11.17,14.12v19.63h-9.1Z" transform="translate(-100.27 -225.26)"/><path class="b" d="M721.21,286c.47,5.27,4.46,7.19,9.33,7.19,3.43,0,9.42-.72,9.17-5.43s-6.86-5.35-13.48-6.86S713,277.07,713,268.69c0-9,9.73-11.8,17.23-11.8,8.46,0,16.11,3.51,17.23,12.68H738c-.8-4.31-4.39-5.5-8.38-5.5-2.63,0-7.5.64-7.5,4.23,0,4.46,6.71,5.1,13.4,6.62s13.33,3.9,13.33,12c0,9.81-9.89,13.41-18.43,13.41-10.37,0-18.11-4.63-18.27-14.37Z" transform="translate(-100.27 -225.26)"/></svg>