<svg xmlns="http://www.w3.org/2000/svg" viewBox="0 0 604.9 201"><defs><style>.a{fill:#bdb3d7;}.b{fill:#765da4;}.c{fill:#5b6063;}</style></defs><path class="a" d="M723.47,239.63a16.94,16.94,0,0,0-4.87-10.76l-8.14-9.31a14.58,14.58,0,0,1,0,2.09,18.29,18.29,0,0,1-3.8,11.11c-1.22,1.56-5.89,6.87-5.89,6.87s4.87,5.31,5.89,6.92a18.17,18.17,0,0,1,3.8,11.06,15.43,15.43,0,0,1,0,2.15l8.14-9.31a17,17,0,0,0,4.87-10.77Z" transform="translate(-118.57 -197.05)"/><path class="b" d="M668.42,276.76a36.68,36.68,0,0,0,6.38,3.8,20.07,20.07,0,0,0,8.57,1.76,14,14,0,0,0,7.65-1.95,28.44,28.44,0,0,0,6.48-5.85l7.17-8.19.34-.48a15,15,0,0,0,2.43-8.19,14.61,14.61,0,0,0-3.16-9.11c-1.66-2.1-5.51-6.48-5.51-6.48Z" transform="translate(-118.57 -197.05)"/><path class="b" d="M668.42,202.65a41.27,41.27,0,0,1,6.38-3.85,20.21,20.21,0,0,1,8.57-1.75A14.64,14.64,0,0,1,691,199a29.53,29.53,0,0,1,6.48,5.89l7.17,8.14.34.54a14.63,14.63,0,0,1-.73,17.29c-1.66,2-5.51,6.48-5.51,6.48Z" transform="translate(-118.57 -197.05)"/><path class="c" d="M172.17,274.67A41.72,41.72,0,0,0,171,262.78a8.44,8.44,0,0,0-3.95-4.88,16,16,0,0,0-7.65-1.55,21.63,21.63,0,0,0-11.59,2.77,8.07,8.07,0,0,0-4.88,6.92v58.47H118.57V197.83a20.6,20.6,0,0,1,3.22-.44,46.62,46.62,0,0,1,4.87-.29q16.23,0,16.23,14.23v35.81a31.62,31.62,0,0,1,25.19-10.09,32.54,32.54,0,0,1,18.17,4.48,21.28,21.28,0,0,1,8.62,13.84,92.06,92.06,0,0,1,1.66,18.37v50.72H172.17Z" transform="translate(-118.57 -197.05)"/><path class="c" d="M290.81,281.34A55.13,55.13,0,0,1,285.69,306a35.14,35.14,0,0,1-14.61,15.73A45.55,45.55,0,0,1,248.32,327a40.2,40.2,0,0,1-31.23-12A47.15,47.15,0,0,1,206,281.88a49.86,49.86,0,0,1,5.51-24,37.45,37.45,0,0,1,15.1-15.74A44.87,44.87,0,0,1,249,236.71a39.66,39.66,0,0,1,30.93,11.79A46.74,46.74,0,0,1,290.81,281.34Zm-24.65,0q0-26.07-17.45-26.07a15.2,15.2,0,0,0-13.49,7,34.44,34.44,0,0,0-4.88,19.25,36.91,36.91,0,0,0,4.58,20,14.94,14.94,0,0,0,13.26,7q18,.15,18-27Z" transform="translate(-118.57 -197.05)"/><path class="c" d="M324.28,247.67a26.81,26.81,0,0,1,8.68-8A21.83,21.83,0,0,1,344,236.56a19.05,19.05,0,0,1,10,2.25,7.12,7.12,0,0,1,3.71,6.38,22.18,22.18,0,0,1-.83,5.31,55.26,55.26,0,0,1-2.15,6.48,48.3,48.3,0,0,1-3,6,22.34,22.34,0,0,0-6.48-4,19,19,0,0,0-6.87-1.17,14.09,14.09,0,0,0-9.25,3.21,9.72,9.72,0,0,0-3.85,7.75v55.4H300.94V239.24l2.15-.39a49.17,49.17,0,0,1,5.94-.34,20.19,20.19,0,0,1,10.19,2.34A10.51,10.51,0,0,1,324.28,247.67Z" transform="translate(-118.57 -197.05)"/><path class="c" d="M391.91,210.4a12.42,12.42,0,0,1-3.8,9.26,13.75,13.75,0,0,1-18.76,0,12.53,12.53,0,0,1-3.7-9.26,12.79,12.79,0,0,1,3.7-9.36,13.21,13.21,0,0,1,22.56,9.36Zm0,114.94a26.62,26.62,0,0,1-8.62.73,16.94,16.94,0,0,1-12.14-3.61,15.17,15.17,0,0,1-3.7-11.35V239.24a20,20,0,0,1,3.27-.48c1.8,0,3.46-.25,4.87-.25,10.82,0,16.17,4.88,16.17,14.18Z" transform="translate(-118.57 -197.05)"/><path class="c" d="M403.26,324.31V307.85l39-50.19H402.68a21.64,21.64,0,0,1,0-3.6c0-10.33,5.6-15.5,16.91-15.5h41.56a14.62,14.62,0,0,1,8.52,2,7.8,7.8,0,0,1,2.63,6.67v6.09l-40.14,52h28.06a18.77,18.77,0,0,1,12,3.07,12.74,12.74,0,0,1,3.7,10.23,52.51,52.51,0,0,1-.39,5.61Z" transform="translate(-118.57 -197.05)"/><path class="c" d="M561.18,281.34A55.31,55.31,0,0,1,556.3,306a35.14,35.14,0,0,1-14.61,15.73A45.55,45.55,0,0,1,518.93,327a40.27,40.27,0,0,1-31.23-12,47.15,47.15,0,0,1-11.06-33.08,50.47,50.47,0,0,1,5.51-24,37.39,37.39,0,0,1,15.1-15.74,45,45,0,0,1,22.41-5.41A39.78,39.78,0,0,1,550.6,248.5,46.74,46.74,0,0,1,561.18,281.34Zm-24.37,0q0-26.07-17.49-26.07a15.23,15.23,0,0,0-13.49,7,34.34,34.34,0,0,0-4.63,19.25,36.34,36.34,0,0,0,4.58,20,14.6,14.6,0,0,0,13.2,7q17.6.15,17.59-27Z" transform="translate(-118.57 -197.05)"/><path class="c" d="M595.18,324.31H570.53V239.24l2.19-.39a49.22,49.22,0,0,1,5.95-.34q13.29,0,15.25,9.36c5.55-7.46,14.32-11.16,26.45-11.16a32.37,32.37,0,0,1,18.18,4.48A21.32,21.32,0,0,1,647.17,255a88.19,88.19,0,0,1,1.46,18.56v50.72H624.27V274.67a41.37,41.37,0,0,0-1.17-11.89,8.31,8.31,0,0,0-4-4.88,15.74,15.74,0,0,0-7.6-1.55A21.79,21.79,0,0,0,600,259.17a8,8,0,0,0-4.87,6.92Z" transform="translate(-118.57 -197.05)"/><path class="b" d="M354.59,335.76h1.17a4,4,0,0,1,4.49,3.32,3.84,3.84,0,0,1,0,1.22v14.13A12.5,12.5,0,0,1,369.4,351a11.59,11.59,0,0,1,9.45,4.15A18.39,18.39,0,0,1,382.21,367a22.63,22.63,0,0,1-1.65,9.31,12.48,12.48,0,0,1-4.87,5.8,13.09,13.09,0,0,1-7.17,2,12.72,12.72,0,0,1-5.16-1,7.57,7.57,0,0,1-3.41-2.63v2.63h-5.56Zm5.65,39.81a9.09,9.09,0,0,0,3.27,2.63,9.64,9.64,0,0,0,4.28,1,7.13,7.13,0,0,0,6.19-3,15,15,0,0,0,2.14-8.87q0-11.55-8.47-11.55a9.42,9.42,0,0,0-5.31,1.36,4.11,4.11,0,0,0-2.1,3.37Z" transform="translate(-118.57 -197.05)"/><path class="b" d="M397.08,383h-2.25L384,352a8.78,8.78,0,0,1,2.92-.54c2.1,0,3.56,1.27,4.43,3.85l7.31,22.76L406,355.94c.78-2.93,2.39-4.44,4.87-4.44a5.16,5.16,0,0,1,2.49.64l-12.23,35.32a27.25,27.25,0,0,1-3,6.38,9.39,9.39,0,0,1-3.51,3.17,10.39,10.39,0,0,1-4.87,1,9.7,9.7,0,0,1-4.39-.78,2.5,2.5,0,0,1-1.56-2.19,6.67,6.67,0,0,1,1.56-3.7,6.8,6.8,0,0,0,4.39,1.75,4.84,4.84,0,0,0,3.65-1.61,16.13,16.13,0,0,0,2.68-5.45Z" transform="translate(-118.57 -197.05)"/><path class="b" d="M431.18,368.46a12.68,12.68,0,0,0,2.73,8,9.1,9.1,0,0,0,7.16,2.77,11,11,0,0,0,8.82-3.8,17.42,17.42,0,0,1,1.37,2,3.84,3.84,0,0,1,.48,1.66,3,3,0,0,1-1.46,2.24,15.89,15.89,0,0,1-9.74,2.68,14.63,14.63,0,0,1-11.26-4.34,18.11,18.11,0,0,1-3.95-12.62,18.33,18.33,0,0,1,1.86-8.67,13.41,13.41,0,0,1,5.11-5.55,14.59,14.59,0,0,1,7.41-1.95,13.38,13.38,0,0,1,6.92,1.7,11.58,11.58,0,0,1,4.38,4.87,16.79,16.79,0,0,1,1.51,7.21,21,21,0,0,1-.24,3.71Zm15.64-4.24c0-5.7-2.48-8.58-7.4-8.58a7.53,7.53,0,0,0-5.75,2.34,9.8,9.8,0,0,0-2.49,6.24Z" transform="translate(-118.57 -197.05)"/><path class="b" d="M458.42,351.7h1.26a3.74,3.74,0,0,1,4.22,3.22,1.11,1.11,0,0,1,0,.19,12.59,12.59,0,0,1,4.39-2.88,15.3,15.3,0,0,1,5.55-1.07,12.69,12.69,0,0,1,5.22,1.12,7.42,7.42,0,0,1,3.5,3,13.14,13.14,0,0,1,4.54-3,15,15,0,0,1,5.7-1.12,11,11,0,0,1,6.53,1.85,8.32,8.32,0,0,1,3.26,5.17,25.82,25.82,0,0,1,.49,6.14v18.95h-5.7V362.08a7.84,7.84,0,0,0-.39-2.15,4.11,4.11,0,0,0-1.95-2.73,8.68,8.68,0,0,0-4.34-.87,9.21,9.21,0,0,0-3.9.87,8.08,8.08,0,0,0-3,2.15,37.65,37.65,0,0,1,.25,4.87v19h-5.66V364.46a16.05,16.05,0,0,0-.58-4.87c-.78-2.19-2.78-3.31-6-3.31a9.67,9.67,0,0,0-5.26,1.46c-1.61,1-2.39,2.05-2.39,3.12v22.36h-5.7Z" transform="translate(-118.57 -197.05)"/><path class="b" d="M511.28,335.76h1.22A4,4,0,0,1,517,339.2a3.69,3.69,0,0,1,0,1.1v14.13a12.45,12.45,0,0,1,9.16-3.42,11.51,11.51,0,0,1,9.41,4.15A18.47,18.47,0,0,1,539,367a23.51,23.51,0,0,1-1.66,9.31,12.54,12.54,0,0,1-4.87,5.8,12.87,12.87,0,0,1-7.11,2,12.41,12.41,0,0,1-5.17-1,8.16,8.16,0,0,1-3.46-2.63v2.63h-5.41Zm5.7,39.81a8.81,8.81,0,0,0,3.27,2.63,9.42,9.42,0,0,0,4.29,1,7.18,7.18,0,0,0,6.18-3,15.37,15.37,0,0,0,2.15-8.87q0-11.55-8.48-11.55a9.44,9.44,0,0,0-5.31,1.36,4,4,0,0,0-2.1,3.37Z" transform="translate(-118.57 -197.05)"/><path class="b" d="M546.22,358.71a9.16,9.16,0,0,1-.93-1.85,4.88,4.88,0,0,1-.34-1.61c0-.73.58-1.46,1.8-2.14a17.1,17.1,0,0,1,4.49-1.56,25.15,25.15,0,0,1,5.4-.58,13,13,0,0,1,9.07,2.68,12.21,12.21,0,0,1,2.77,9v13.4a19,19,0,0,0,0,2.82,2,2,0,0,0,.78,1.37,4.93,4.93,0,0,0,2.34.34v2.68a11.24,11.24,0,0,1-3.31.49q-4.87,0-5.41-3.8a13.37,13.37,0,0,1-4.53,3.07,16.7,16.7,0,0,1-5.6.92,10.47,10.47,0,0,1-7.36-2.43,8.82,8.82,0,0,1-2.63-6.92,9.31,9.31,0,0,1,4.58-8.29A24.38,24.38,0,0,1,560,363.15h2.77v-1a6,6,0,0,0-1.6-4.87,8.3,8.3,0,0,0-5.32-1.41,15.75,15.75,0,0,0-4.87.68,13.82,13.82,0,0,0-4.33,2.19ZM563,367.29h-2a19.53,19.53,0,0,0-9.26,1.7,5.49,5.49,0,0,0-3.17,4.88,4.89,4.89,0,0,0,1.47,3.8,6.13,6.13,0,0,0,4.24,1.26,11.37,11.37,0,0,0,4.23-.78,9.66,9.66,0,0,0,3.22-2,3.58,3.58,0,0,0,1.22-2.24Z" transform="translate(-118.57 -197.05)"/><path class="b" d="M577.16,351.7h1.21a4.53,4.53,0,0,1,2.93.87,3.57,3.57,0,0,1,1.36,2.49,8.19,8.19,0,0,1,3.07-2.83,8.68,8.68,0,0,1,4-1.07,7.32,7.32,0,0,1,3.5.78A2.24,2.24,0,0,1,594.6,354a5.61,5.61,0,0,1-.49,2.09,10.43,10.43,0,0,1-1.12,2.24,6.59,6.59,0,0,0-2-1.26,7.19,7.19,0,0,0-2.43-.39,6.31,6.31,0,0,0-4.05,1.36,4,4,0,0,0-1.7,3.12v22.12h-5.7Z" transform="translate(-118.57 -197.05)"/><path class="b" d="M598.25,335.76h1.22A4,4,0,0,1,604,339.2a3.69,3.69,0,0,1,0,1.1v42.82h-5.7Zm7.21,30.9v-2.2l11.5-11.4a5.72,5.72,0,0,1,3.8-1.75,4.83,4.83,0,0,1,3.41,1.41l-12.81,12.62L626,383a9.87,9.87,0,0,1-3.32.58,6.16,6.16,0,0,1-4.87-2.39Z" transform="translate(-118.57 -197.05)"/></svg>