<svg xmlns="http://www.w3.org/2000/svg" viewBox="0 0 687.95 132.87"><defs><style>.a{fill:#474243;}.b{fill:#bf9b5d;}</style></defs><title>logo-tilney-for-professionals</title><path class="a" d="M164.13,82.94V21.22h-22V9.66h55.94V21.22h-22V82.94Z"/><path class="a" d="M252.9,82.94V9.66h12V82.94Z"/><path class="a" d="M369.4,71.61V83.17H323.63V9.66h12v62Z"/><path class="a" d="M414.48,82.94V8L461,54.74V9.66h12v74.9L426.5,37.86V82.94Z"/><path class="a" d="M575.37,71.61V83.17H531.45V9.66h41.61V21.22H543.47V39.48h27V51h-27V71.38h31.9Z"/><path class="a" d="M660.44,82.94h-12V48.73L620.91,9.66H636.4l18,26.82,18-26.82H688L660.44,49Z"/><path class="b" d="M119.51,17.06a18.28,18.28,0,0,0-1.62-4.63,20.66,20.66,0,0,0-4.39-6.7,20.11,20.11,0,0,0-4.16-3.24A21.8,21.8,0,0,0,103.56.41C99.4-.51,94.78.18,90.39,1.8A52.93,52.93,0,0,0,78.13,8.5,85.17,85.17,0,0,0,67.27,18l-4.86,5.55c-1.61,1.85-3.23,4.16-4.39,5.78A214.8,214.8,0,0,1,41.15,49.88c-3,3-5.78,6-8.79,8.56C29.59,61,26.58,63.29,24,65.37c-2.77,2.08-5.32,3.93-7.63,5.32s-4.39,2.77-6.24,3.7S6.93,76,5.78,76.47a1.83,1.83,0,0,0-1.16,0H6.24A21,21,0,0,0,11.1,76l3.46-.7a91.26,91.26,0,0,0,21-6.93,46.51,46.51,0,0,0,6.7-3.47c2.32-1.39,4.63-2.54,6.94-3.93,4.62-2.77,9.48-5.78,14.56-8.55A136.36,136.36,0,0,1,79.29,44.8,31.19,31.19,0,0,1,86.69,43a12.23,12.23,0,0,1,3,.23A6.86,6.86,0,0,1,92,44.1,7.08,7.08,0,0,1,93.85,46l.47.7h0l.23.46.69,1.39a10.18,10.18,0,0,1,.46,6,33.05,33.05,0,0,1-2.54,7.16C92,64,90.39,66.53,89,68.84c-3.24,4.62-6.7,9-10.17,13.41-.93,1.15-1.62,2.31-2.55,3.46v.93l-.23.23h0l-.23.23-.23.46c-.23.7-.69,1.16-.92,1.85a35.24,35.24,0,0,0-3,7.63,42.78,42.78,0,0,0-1.39,13.87,53,53,0,0,0,1.62,10.17c.7,2.78,1.39,4.86,1.85,6.24l.7,2.08v-2.31c0-1.38-.24-3.7-.24-6.47a73.89,73.89,0,0,1,.47-9.71A37.8,37.8,0,0,1,77.9,99.35c.93-1.85,2.08-3.93,3.24-5.78a5.91,5.91,0,0,1,1.16-1.38l.23-.47.23-.23h0l.46-.69A27.78,27.78,0,0,1,85.76,88a133.32,133.32,0,0,0,11.79-13A49.84,49.84,0,0,0,103.1,67,33.23,33.23,0,0,0,107,56.82a21.29,21.29,0,0,0-.92-12.48c-.47-1.16-1.16-2.32-1.39-3l-.23-.46-.23-.23-.24-.47h0v-.23l-.92-1.38a31,31,0,0,0-4.85-4.63,22.37,22.37,0,0,0-6.48-2.54,19.38,19.38,0,0,0-6.24-.23A31.42,31.42,0,0,0,74.9,33.93a82.24,82.24,0,0,0-9,4.4c-.23,0-.23.23-.46.23A24.82,24.82,0,0,1,67.5,36c1.62-2.08,2.77-3.69,4.16-5.31s2.78-3.47,4.16-5.09a82.51,82.51,0,0,1,9-9,46.39,46.39,0,0,1,9.24-6.71c3-1.62,6-2.77,8.79-2.77a11.6,11.6,0,0,1,7.4,2.08,35.44,35.44,0,0,1,5.31,4.39,30.52,30.52,0,0,1,3,3.7,10.07,10.07,0,0,1,.92,1.39A2.8,2.8,0,0,0,119.51,17.06Z"/><path class="b" d="M80.91,57.05C44.15,88.72,0,95.65,0,95.65c17.57,3.93,31.44,2.78,42.53-.92a2,2,0,0,0,.24,1.16c.69,4.39,1.85,9.94,3.23,15.48s3,10.87,4.16,14.8,2.08,6.7,2.08,6.7S52,130.1,52,125.94c-.23-4.16-.23-9.71-.23-15.26a135.85,135.85,0,0,1,.93-15c.23-2.08.46-3.69.69-4.85,0-.46.23-.69.23-.92C74.2,77.85,80.91,57.05,80.91,57.05Z"/><polygon class="a" points="147.48 102.13 147.48 131.02 151.18 131.02 151.18 118.31 164.82 118.31 164.82 114.84 151.18 114.84 151.18 105.36 166.44 105.36 166.44 102.13 147.48 102.13"/><path class="a" d="M194.41,107.21a7.36,7.36,0,0,0-5.32-2.08,7.72,7.72,0,0,0-5.31,2.08c-2.31,2.55-2.55,6.48-2.55,9.48s.24,6.94,2.55,9.48a7.83,7.83,0,0,0,10.63,0c2.31-2.54,2.54-6.47,2.54-9.48-.23-3.24-.23-7.17-2.54-9.48M197,128.48a10.8,10.8,0,0,1-7.86,3,11.86,11.86,0,0,1-7.86-3c-3.23-3-3.69-7.4-3.69-12s.46-8.78,3.69-12a10.82,10.82,0,0,1,7.86-3,11.84,11.84,0,0,1,7.86,3c3.24,3,3.7,7.4,3.7,12s-.69,9-3.7,12"/><path class="a" d="M226.54,105.36h-7.63v10.17h7.63c3.47,0,6-1.38,6-5.08-.23-3.7-2.77-5.09-6-5.09M232.09,131l-5.55-12h-8.09v12H215V102.13h11.56c3.47,0,5.78.92,7.4,2.54a8.37,8.37,0,0,1,2.31,6,8.21,8.21,0,0,1-2.31,5.78,8.69,8.69,0,0,1-3.47,2.08l5.78,12.71h-4.16Z"/><path class="a" d="M278.56,105.36h-6.94v11.1h7.17c3.93,0,5.78-1.85,5.78-5.78,0-3.47-2.32-5.32-6-5.32m7.39,12c-1.62,1.62-3.93,2.32-7.16,2.32h-7.17V131h-3.7V102.13h10.87c3.46,0,5.78.92,7.39,2.54a9.39,9.39,0,0,1,2.32,6.24c-.24,2.78-.93,4.86-2.55,6.47"/><path class="a" d="M313.23,105.36H305.6v10.17h7.63c3.47,0,6-1.38,6-5.08s-2.54-5.09-6-5.09M319,131l-5.55-12h-8.09v12h-3.7V102.13H313c3.47,0,5.78.92,7.4,2.54a8.41,8.41,0,0,1,2.31,6,8.25,8.25,0,0,1-2.31,5.78,8.76,8.76,0,0,1-3.47,2.08l5.78,12.71H319Z"/><path class="a" d="M352.07,107.21a7.84,7.84,0,0,0-10.64,0c-2.31,2.55-2.54,6.48-2.54,9.48s.23,6.94,2.54,9.48a7.32,7.32,0,0,0,5.32,2.08,7.71,7.71,0,0,0,5.32-2.08c2.31-2.54,2.54-6.47,2.54-9.48,0-3.24-.23-7.17-2.54-9.48m2.54,21.27a10.82,10.82,0,0,1-7.86,3,11.84,11.84,0,0,1-7.86-3c-3.24-3-3.7-7.4-3.7-12s.46-8.78,3.7-12a10.8,10.8,0,0,1,7.86-3,11.86,11.86,0,0,1,7.86,3c3.24,3,3.7,7.4,3.7,12s-.46,9-3.7,12"/><polygon class="a" points="372.87 102.13 372.87 131.02 376.57 131.02 376.57 118.31 389.98 118.31 389.98 114.84 376.57 114.84 376.57 105.36 391.6 105.36 391.6 102.13 372.87 102.13"/><polygon class="a" points="405 102.13 405 131.02 424.42 131.02 424.42 127.79 408.7 127.79 408.7 117.61 422.57 117.61 422.57 114.15 408.7 114.15 408.7 105.36 424.42 105.36 424.42 102.13 405 102.13"/><path class="a" d="M456.09,128.71a11.53,11.53,0,0,1-8.32,3,12.05,12.05,0,0,1-8.32-2.78,9.23,9.23,0,0,1-3-6.93h3.7a7.12,7.12,0,0,0,2.08,4.62,8.89,8.89,0,0,0,5.55,1.85c2.31,0,4.16-.46,5.32-1.62a4.37,4.37,0,0,0,1.38-3.47c0-2.31-1.38-4.16-4.85-4.62l-4.62-.69c-4.4-.7-7.63-3-7.63-7.63a8.27,8.27,0,0,1,2.54-5.78,11.06,11.06,0,0,1,7.63-2.77,11.49,11.49,0,0,1,7.63,2.77,7.91,7.91,0,0,1,2.77,6.24h-3.7a6.52,6.52,0,0,0-1.39-3.7,6.91,6.91,0,0,0-5.08-2.08c-2.08,0-3.93.46-5.09,2.08a5,5,0,0,0-1.15,3.24c0,2.54,2.08,3.7,4.39,4.16l4.85.69c4.86.7,8.09,3.7,8.09,8.33a9.24,9.24,0,0,1-2.77,5.08"/><path class="a" d="M490.3,128.71a11.53,11.53,0,0,1-8.32,3,12.05,12.05,0,0,1-8.32-2.78,9.23,9.23,0,0,1-3-6.93h3.7a7.12,7.12,0,0,0,2.08,4.62,8.89,8.89,0,0,0,5.55,1.85c2.31,0,4.16-.46,5.32-1.62a4.37,4.37,0,0,0,1.39-3.47c0-2.31-1.39-4.16-4.86-4.62l-4.62-.69c-4.39-.7-7.63-3-7.63-7.63a8.27,8.27,0,0,1,2.54-5.78,11.08,11.08,0,0,1,7.63-2.77,11.49,11.49,0,0,1,7.63,2.77,7.91,7.91,0,0,1,2.77,6.24h-3.7a6.58,6.58,0,0,0-1.38-3.7,7,7,0,0,0-5.09-2.08c-2.08,0-3.93.46-5.08,2.08a5,5,0,0,0-1.16,3.24c0,2.54,2.08,3.7,4.39,4.16l4.86.69c4.85.7,8.09,3.7,8.09,8.33a9.26,9.26,0,0,1-2.78,5.08"/><rect class="a" x="507.18" y="102.13" width="3.7" height="29.13"/><path class="a" d="M542.08,107.21a7.32,7.32,0,0,0-5.31-2.08,7.76,7.76,0,0,0-5.32,2.08c-2.31,2.55-2.54,6.48-2.54,9.48s.23,6.94,2.54,9.48a7.83,7.83,0,0,0,10.63,0c2.32-2.54,2.55-6.47,2.55-9.48,0-3.24-.23-7.17-2.55-9.48m2.55,21.27a10.82,10.82,0,0,1-7.86,3,11.84,11.84,0,0,1-7.86-3c-3.24-3-3.7-7.4-3.7-12s.46-8.78,3.7-12a10.8,10.8,0,0,1,7.86-3,11.86,11.86,0,0,1,7.86,3c3.23,3,3.7,7.4,3.7,12s-.47,9-3.7,12"/><polygon class="a" points="581.15 102.13 581.15 125.47 567.05 102.13 562.89 102.13 562.89 131.02 566.36 131.02 566.36 107.67 580.69 131.02 584.62 131.02 584.62 102.13 581.15 102.13"/><path class="a" d="M609.59,105.59l5.08,15H604.5Zm-2.09-3.46-10.17,29.12H601l2.31-6.93h12.72l2.31,6.93h3.7L611.9,102.13Z"/><polygon class="a" points="634.78 102.13 634.78 131.02 652.35 131.02 652.35 127.56 638.48 127.56 638.48 102.13 634.78 102.13"/><path class="a" d="M681.71,128.71a11.55,11.55,0,0,1-8.32,3,12.05,12.05,0,0,1-8.32-2.78,9.23,9.23,0,0,1-3-6.93h3.7a7.08,7.08,0,0,0,2.08,4.62,8.89,8.89,0,0,0,5.55,1.85c2.31,0,4.16-.46,5.31-1.62a4.34,4.34,0,0,0,1.39-3.47c0-2.31-1.39-4.16-4.85-4.62l-4.63-.69c-4.39-.7-7.86-3-7.86-7.63a8.28,8.28,0,0,1,2.55-5.78,11.05,11.05,0,0,1,7.62-2.77,11.48,11.48,0,0,1,7.63,2.77,7.92,7.92,0,0,1,2.78,6.24h-3.7a6.52,6.52,0,0,0-1.39-3.7,6.91,6.91,0,0,0-5.08-2.08c-2.08,0-3.93.46-5.09,2.08a5,5,0,0,0-1.16,3.24c0,2.54,2.08,3.7,4.4,4.16l4.85.69c4.86.7,8.09,3.7,8.09,8.33a8.88,8.88,0,0,1-2.54,5.08"/></svg>