<svg xmlns="http://www.w3.org/2000/svg" viewBox="0 0 613.67 174.79"><defs><style>.a{fill:#b7cd00;}</style></defs><polygon class="a" points="69.72 104.61 69.72 1.26 0 1.26 0 170.78 169.94 170.78 169.94 104.61 69.72 104.61"/><rect class="a" x="443.65" y="104.61" width="170.02" height="66.17"/><rect class="a" x="443.65" y="1.3" width="170.02" height="66.17"/><path class="a" d="M402.2,58.22A33.46,33.46,0,0,0,412,34.81c0-8.61-4.11-18.53-10.71-25.07A35,35,0,0,0,374,.13,33.17,33.17,0,0,0,353.33,10l-62.6,66.16-63-66.34A33.17,33.17,0,0,0,207.93.25,34.94,34.94,0,0,0,179.77,10c-6.79,6.84-10.89,17.32-10.64,26.36a33.07,33.07,0,0,0,9.8,22.5l111.81,115.9Z"/></svg>