<svg xmlns="http://www.w3.org/2000/svg" viewBox="0 0 736.09 159.4"><defs><style>.a{fill:#6b737b;}.b{fill:#c51631;}</style></defs><title>logo-ajbell-investcentre</title><path class="a" d="M296,66.34c-1.08,0-20.12,0-20.12,0V11.2c0-4.2-.29-5.79-1.8-6.72-.9-.65-5.11-.65-6.81-.65l.8-2.45h21.84c13-.35,22.23,2.17,23.84,13.08,1,6.82-3.31,13.53-12.32,15.78,14.72,2,17.13,12.14,17.13,16.7,0,10.52-5.92,19.16-22.56,19.4M290,4.39h-4.39l0,25.2H292c7.09,0,11.49-2.77,11.49-13.16,0-10.18-5.61-11.86-13.42-12m1.7,27.81h-6.11l0,23.15c.1,2.43-.2,5.88.9,6.72.6.56,3,1.49,6.39,1.49,12.52,0,14.93-6.44,14.93-15.4,0-7.93-3.31-15.77-16.13-16"/><path class="a" d="M361.35,42.56H333.9C333,54.51,339.11,63.93,348,63.93a18,18,0,0,0,12.12-4.39l.61,2.71s-4.81,5.7-16.43,5.23c-10.32-.38-20.74-8.59-19.94-23.89.51-9.52,6.82-23,20.44-23,13.12,0,16.82,10,16.82,18.21a21.53,21.53,0,0,1-.29,3.73M344.62,23.71c-3.91,0-9.32,3.36-10.42,15.49h15.93c2.6,0,2.5-.09,2.5-3,0-6.26-2.1-12.51-8-12.51"/><path class="a" d="M386.22,66.07l-15.12,0V9.56c0-3.27-.85-4.69-2.5-5.41a18.52,18.52,0,0,0-5.52-.84l.81-2h15.63V56.56c0,4,1,5.7,2.6,6.72a14.06,14.06,0,0,0,4.81.84Z"/><path class="a" d="M409.73,66.07l-15.12,0V9.56c0-3.27-.86-4.69-2.51-5.41a18.44,18.44,0,0,0-5.5-.84l.8-2H403V56.56c0,4,1,5.7,2.6,6.72a14.1,14.1,0,0,0,4.81.84Z"/><path class="a" d="M227.2,57.59s-4.11-10.83-8.12-22.5C214.48,21.74,207.82,1.4,207.82,1.4h-8.07L177.9,60.25c-1.19,2.69-3.13,3.4-6.25,3.4L171,65.8h15.64l.71-2.15s-4-.12-4.79-.75c-.93-.83-.74-2.53.57-6.16l5.27-14.67h23.78l7.58,23.72h15.06l.7-2.15c-3.71,0-6.42-.93-8.31-6.06M189.63,38.1S199.05,14.38,201.15,9c2.2,5.88,9.62,29.14,9.62,29.14Z"/><path class="a" d="M256.57,60.85c0,14.29-6.11,22.13-18.63,22.31-.8,0-1.54,0-2,0L235,80.5a10.62,10.62,0,0,0,7-1.17c1.91-1,4.06-3.36,4.36-8.87.3-5.22.11-11.1.11-17.35V11.2c0-4.2-.29-5.79-1.8-6.72-.9-.66-5.11-.66-6.81-.66l.8-2.44h17.9Z"/><path class="b" d="M77,84.58c.06.36.1.72.15,1.09a47,47,0,0,0,.7-19A47.34,47.34,0,0,0,0,38.8H0a60.28,60.28,0,0,1,9.58-2.44A58.63,58.63,0,0,1,77,84.58"/><path class="b" d="M69.78,114.85c-.27.35-.57.65-.85,1A56.58,56.58,0,0,0,50.15,9.61h0A70,70,0,0,1,69.78,114.85"/><path class="b" d="M66.39,134.23h0A75.92,75.92,0,0,0,100.86,0a109.34,109.34,0,0,1,8.66,28.13,109.31,109.31,0,0,1-43.13,106.1"/><path class="b" d="M152.9,56a89.16,89.16,0,0,0-5.36-19.08h0A111.45,111.45,0,0,1,54,148.18a112.1,112.1,0,0,1-31,.69h0A89.08,89.08,0,0,0,152.9,56"/><path class="b" d="M202.34,77.86l-.93,2.88c-1,0-2.24,0-3.73.11a7.12,7.12,0,0,0-3.17.69,4.13,4.13,0,0,0-1.61,2.65,38.05,38.05,0,0,0-.47,5.64q-.1,4-.11,8.63c-.08,2.62-.12,5.57-.12,8.87v20.26q0,4.95.12,9c0,3.06,0,6,.11,8.86a38.05,38.05,0,0,0,.47,5.64,4.08,4.08,0,0,0,1.61,2.65,2.93,2.93,0,0,0,1.44.46c.65.08,1.38.16,2.18.23s1.59.12,2.36.12h1.85l-.93,2.87H171l.92-2.87c1,0,2.27,0,3.8-.12a6.24,6.24,0,0,0,3.11-.69,4.31,4.31,0,0,0,1.67-2.65,27.64,27.64,0,0,0,.4-5.64c0-2.84,0-5.8.12-8.86,0-2.69,0-5.68.06-9s.05-6.68.05-10.13,0-6.94-.05-10.25S181,101,181,98.35q-.12-4.6-.12-8.52a27.64,27.64,0,0,0-.4-5.64,4.37,4.37,0,0,0-1.67-2.65,2.41,2.41,0,0,0-1.38-.46l-2.19-.23c-.77-.07-1.55-.11-2.36-.11H171l.92-2.88Z"/><path class="b" d="M251.72,157.52V123.91c0-2-.06-4-.18-5.87a20.25,20.25,0,0,0-.91-5.13,7.92,7.92,0,0,0-2.29-3.57,6.24,6.24,0,0,0-4.18-1.33,12.75,12.75,0,0,0-5,1.22A15.7,15.7,0,0,0,234,113a20.45,20.45,0,0,0-4,6.5,25.81,25.81,0,0,0-1.49,9.44v16.8a37.39,37.39,0,0,0,.34,5.53,4.05,4.05,0,0,0,3.33,3.57,12.16,12.16,0,0,0,2.38.23l-.92,2.42h-23l.81-2.42c1.07,0,2.11,0,3.11-.11a3.49,3.49,0,0,0,2.3-.93c1.3-1.45,2-4.21,2-8.29V133.12c0-3.92,0-7.14-.06-9.68s-.06-4.56-.06-6.1c-.08-1.76-.11-3.11-.11-4a11.86,11.86,0,0,0-.87-4.66,5.64,5.64,0,0,0-1.78-2.13,8.24,8.24,0,0,0-2.88-.91,18.41,18.41,0,0,0-3.22-.35l.8-2.42h18.19l-.34,11.85a26.11,26.11,0,0,1,4.13-6.15,23.76,23.76,0,0,1,5.61-4.66,18.74,18.74,0,0,1,6.66-2.42,16.66,16.66,0,0,1,7.23.46,11.54,11.54,0,0,1,4.53,2.41,13.18,13.18,0,0,1,2.81,3.58,14.44,14.44,0,0,1,1.43,4,19.9,19.9,0,0,1,.4,3.8v1.09c0,.35,0,.81.06,1.39s.06,1.38.06,2.41v25.15a22,22,0,0,0,.46,5.36,5.9,5.9,0,0,0,1.72,2.82,5.14,5.14,0,0,0,2.94,1c1.34.11,2.44.17,3.28.17l-.8,2.42Z"/><path class="b" d="M592.45,157.52V123.91c0-2-.06-4-.17-5.87a20.24,20.24,0,0,0-.92-5.13,7.84,7.84,0,0,0-2.29-3.57,6.24,6.24,0,0,0-4.18-1.33,12.83,12.83,0,0,0-5,1.22,15.67,15.67,0,0,0-5.15,3.8,20.45,20.45,0,0,0-4,6.5,25.81,25.81,0,0,0-1.49,9.44v16.8a37.39,37.39,0,0,0,.34,5.53,3.94,3.94,0,0,0,1.53,2.76,3.85,3.85,0,0,0,1.8.81,12.21,12.21,0,0,0,2.37.23l-.91,2.42h-23l.81-2.42c1.07,0,2.11,0,3.1-.11a3.5,3.5,0,0,0,2.31-.93q1.95-2.17,1.95-8.29V133.12c0-3.92,0-7.14,0-9.68s-.06-4.56-.06-6.1c-.08-1.76-.12-3.11-.12-4a11.53,11.53,0,0,0-.86-4.66,5.64,5.64,0,0,0-1.78-2.13,8.39,8.39,0,0,0-2.88-.91,18.41,18.41,0,0,0-3.22-.35l.8-2.42h18.19l-.35,11.85a26.46,26.46,0,0,1,4.14-6.15,23.76,23.76,0,0,1,5.61-4.66,18.74,18.74,0,0,1,6.66-2.42,16.6,16.6,0,0,1,7.22.46,11.51,11.51,0,0,1,4.54,2.41,13.18,13.18,0,0,1,2.81,3.58,14.44,14.44,0,0,1,1.43,4,19.9,19.9,0,0,1,.4,3.8v1.09c0,.35,0,.81.06,1.39s.06,1.38.06,2.41v25.15a22,22,0,0,0,.46,5.36A5.82,5.82,0,0,0,604.3,154a5.14,5.14,0,0,0,2.94,1c1.34.11,2.44.17,3.28.17l-.8,2.42Z"/><path class="b" d="M298.21,157.52H291.5l-16.41-48.46a6.34,6.34,0,0,0-2-2.94,7.61,7.61,0,0,0-4.2-.86l.57-2.42H284q3.56,11.4,6.45,20.49,1.14,3.92,2.36,7.71L295,138c.64,2.07,1.18,3.8,1.6,5.18a20.5,20.5,0,0,0,.87,2.53v2.65l.69-2.65q.92-2.41,2.36-6.85t3-9.49q1.61-5.07,3.16-10.13t2.71-8.75c.61-2,.6-3.36-.06-4.1s-2.55-1.08-5.69-1.08l.69-2.42h12.94Z"/><path class="b" d="M410.83,141.4a17.26,17.26,0,0,1-1.55,7.43,16,16,0,0,1-4.38,5.58,20.59,20.59,0,0,1-6.73,3.57,27.72,27.72,0,0,1-8.52,1.27,31.29,31.29,0,0,1-7.31-.72,19.16,19.16,0,0,1-4.66-1.66,11,11,0,0,1-3.23-2.35l1.15-11.62,2.31-.46c0,4.3,1.14,7.58,3.45,9.84s5.64,3.33,10,3.17a11.62,11.62,0,0,0,4.08-1,12,12,0,0,0,3.34-2.25,10.76,10.76,0,0,0,2.3-3.22,9,9,0,0,0,.87-3.9,8.3,8.3,0,0,0-1.9-5.63,17.5,17.5,0,0,0-4.84-3.79c-2-1.07-4.05-2.13-6.28-3.16a37.88,37.88,0,0,1-6.26-3.67,17.37,17.37,0,0,1-4.84-5.35,15.78,15.78,0,0,1-1.9-8.15,12.21,12.21,0,0,1,5-9.88q5-4,14.44-4a23.31,23.31,0,0,1,6.16.69,18.43,18.43,0,0,1,4.09,1.61,14.19,14.19,0,0,1,3,2.18l-1.15,11.4-2.07.47a16.35,16.35,0,0,0-.75-5.36,10.54,10.54,0,0,0-2-3.51,9.21,9.21,0,0,0-2.82-2.19,25.76,25.76,0,0,0-3.34-1.38,9,9,0,0,0-3.56-.23,11.11,11.11,0,0,0-3.75,1.15,7.72,7.72,0,0,0-4.2,7.26,7.76,7.76,0,0,0,1.9,5.35,19,19,0,0,0,4.78,3.79,64.27,64.27,0,0,0,6.21,3.17,38,38,0,0,1,6.22,3.51,18.25,18.25,0,0,1,4.78,4.9,12.61,12.61,0,0,1,1.9,7.13"/><path class="b" d="M433.5,84.23v18.83h10.83l-1.15,3.35H433.5v38.33c.06,3.3.62,5.64,1.61,7a5.93,5.93,0,0,0,3.52,2.53,7,7,0,0,0,4.09-.28,17.81,17.81,0,0,0,3.33-1.55l1.15,2.87a27.15,27.15,0,0,1-6.38,3.17,14,14,0,0,1-7.2.52c-.68-.16-1.57-.41-2.67-.76a9,9,0,0,1-3.19-1.83,11.11,11.11,0,0,1-2.61-3.52,13.2,13.2,0,0,1-1.08-5.87V106.4h-6.45l1-3.33h5.41V94.26c1.06-1.16,9.05-9.64,9.43-10"/><path class="b" d="M628.83,84.23v18.83h10.82l-1.15,3.35h-9.67v38.33c.06,3.3.61,5.64,1.61,7a5.93,5.93,0,0,0,3.52,2.53A7,7,0,0,0,638,154a17.51,17.51,0,0,0,3.33-1.55l1.16,2.87a27.22,27.22,0,0,1-6.39,3.17A13.93,13.93,0,0,1,629,159c-.69-.16-1.58-.41-2.68-.76a9.07,9.07,0,0,1-3.18-1.83,11,11,0,0,1-2.62-3.52,13.34,13.34,0,0,1-1.08-5.87V106.4h-6.45l1-3.33h5.4V94.26c1.06-1.16,9.06-9.64,9.44-10"/><path class="b" d="M492.67,152.79a15.4,15.4,0,0,1-4.26,3.35,25.72,25.72,0,0,1-5.41,2.24,26.48,26.48,0,0,1-7.71,1,24.54,24.54,0,0,1-9.67-2,22.64,22.64,0,0,1-8-5.71,25.62,25.62,0,0,1-5.24-9.2A33.56,33.56,0,0,1,450.89,130a39.83,39.83,0,0,1,1.72-9.27,30.42,30.42,0,0,1,4.66-9.32,25.54,25.54,0,0,1,8.18-7.14,24.52,24.52,0,0,1,12.25-2.82,22.9,22.9,0,0,1,6.91.92,25.29,25.29,0,0,1,4.72,2,13.26,13.26,0,0,1,3.34,2.76l-2.3,11.05-2.18.23c0-4.14-1-7.39-3.06-9.73s-5.43-3.32-10.19-2.93a12.09,12.09,0,0,0-4.48,1.56,13.14,13.14,0,0,0-4.5,4.37,25.53,25.53,0,0,0-3.33,8.11,45.33,45.33,0,0,0-.93,12.66,35.17,35.17,0,0,0,1.22,8.29,24.75,24.75,0,0,0,3.16,7.2,17,17,0,0,0,5,5.06,12.51,12.51,0,0,0,7,1.9,19.23,19.23,0,0,0,5.87-.81,19.07,19.07,0,0,0,8.06-4.6Z"/><path class="b" d="M649,157.52l.81-2.42a30.16,30.16,0,0,0,3.17-.17,3.66,3.66,0,0,0,2.24-.87c1.22-1.45,1.84-4.22,1.84-8.29V129.43q0-4.73-.06-7.77c0-2-.09-3.7-.17-5s-.11-2.65-.11-3.57a15.21,15.21,0,0,0-.69-4.65,4.14,4.14,0,0,0-1.73-2.13,9.78,9.78,0,0,0-3-.93,20.2,20.2,0,0,0-3.28-.34l1-2.19c2.15.15,4,.25,5.65.29s3.07.06,4.4.06,2.6,0,3.84-.12,2.64-.15,4.19-.23l-.35,13a30.08,30.08,0,0,1,1.9-5.53,20.68,20.68,0,0,1,2.82-4.6,12,12,0,0,1,3.86-3.11,10.76,10.76,0,0,1,5-1.15,8.91,8.91,0,0,1,3.57.57,6.3,6.3,0,0,1,1.85,1.16,3.82,3.82,0,0,1,.69,1.72l-.81,9.9a7,7,0,0,1-1.61.47,4.72,4.72,0,0,1-1,.11,5,5,0,0,0-.87-3.11,4.87,4.87,0,0,0-2.19-1.67,6.19,6.19,0,0,0-2.82-.4,6.65,6.65,0,0,0-2.76.8,10.35,10.35,0,0,0-3.39,2.88,17.47,17.47,0,0,0-2.42,4.21,20.65,20.65,0,0,0-1.38,5.17,38.64,38.64,0,0,0-.41,5.7l.23,16.8a14.88,14.88,0,0,0,.75,5.47,6.59,6.59,0,0,0,2.13,2.82,4.28,4.28,0,0,0,1.15.47,12.06,12.06,0,0,0,1.84.35c.69.07,1.38.13,2.08.16s1.26.06,1.72.06l-1,2.42Z"/><path class="b" d="M366,128.51H332.16c-1.1,14.74,6.43,26.36,17.43,26.36a22.25,22.25,0,0,0,14.94-5.41l.74,3.34s-5.93,7-20.25,6.45c-12.73-.47-25.57-10.6-24.59-29.47.62-11.74,8.41-28.32,25.2-28.32,16.19,0,20.76,12.32,20.76,22.45a25.07,25.07,0,0,1-.38,4.6m-20.63-23.24c-4.82,0-11.48,4.14-12.85,19.1h19.65c3.21,0,3.08-.11,3.08-3.68,0-7.71-2.59-15.42-9.88-15.42"/><path class="b" d="M544.65,128.51H510.8c-1.1,14.74,6.43,26.36,17.42,26.36a22.26,22.26,0,0,0,14.95-5.41l.74,3.34s-5.93,7-20.26,6.45c-12.72-.47-25.56-10.6-24.58-29.47.62-11.74,8.4-28.32,25.2-28.32,16.18,0,20.75,12.32,20.75,22.45a25.73,25.73,0,0,1-.37,4.6M524,105.27c-4.81,0-11.49,4.14-12.84,19.1h19.64c3.21,0,3.09-.11,3.09-3.68,0-7.71-2.6-15.42-9.89-15.42"/><path class="b" d="M735.71,128.51H701.87c-1.11,14.74,6.43,26.36,17.42,26.36a22.22,22.22,0,0,0,14.94-5.41l.74,3.34s-5.92,7-20.24,6.45c-12.73-.47-25.58-10.6-24.59-29.47.62-11.74,8.4-28.32,25.2-28.32,16.18,0,20.75,12.32,20.75,22.45a25.07,25.07,0,0,1-.38,4.6m-20.62-23.24c-4.82,0-11.49,4.14-12.85,19.1h19.65c3.21,0,3.08-.11,3.08-3.68,0-7.71-2.6-15.42-9.88-15.42"/></svg>