<svg xmlns="http://www.w3.org/2000/svg" viewBox="0 0 537.01 130.51"><defs><style>.a{fill:#010101;}.b{fill:#1ca64a;}</style></defs><polygon class="a" points="0 63.77 0 128.68 43.62 128.68 43.62 115.01 16.23 115.01 16.23 63.77 0 63.77"/><rect class="a" x="49.82" y="63.76" width="16.23" height="64.92"/><path class="a" d="M251.25,331c-20.7,0-32.82-16-32.82-34.28s12.12-34.28,32.82-34.28,32.81,16,32.81,34.28S272,331,251.25,331m0-54.89c-9.48,0-16.6,6-16.6,20.61,0,9.48,3.83,20.61,16.6,20.61,12,0,16.59-10.58,16.59-20.61,0-10.22-4.56-20.61-16.59-20.61" transform="translate(-146.61 -200.48)"/><polygon class="a" points="143.6 63.77 160.01 63.77 183.62 105.25 183.81 105.25 183.81 63.77 198.57 63.77 198.57 128.68 182.35 128.68 158.55 87.83 158.37 87.83 158.37 128.68 143.6 128.68 143.6 63.77"/><polygon class="a" points="204.77 63.77 254.91 63.77 254.91 76.35 237.96 76.35 237.96 128.68 221.72 128.68 221.72 76.35 204.77 76.35 204.77 63.77"/><path class="a" d="M407.78,264.24h32.47c14.6,0,23.52,6.75,23.52,21.33,0,8.39-5.28,15.14-13.39,17.51l14.86,26.08H447.1l-12.77-23.34H424v23.34H407.78ZM424,293.78h14.86c5.2-.09,8.65-2.73,8.65-8.75s-3.45-8.66-8.65-8.75H424Z" transform="translate(-146.61 -200.48)"/><path class="a" d="M523.87,306.55c0,17.77-15,24.43-27.53,24.43s-27.45-6.66-27.45-24.43V264.24h16.23v40.94c0,7.29,2.83,12.67,11.22,12.67s11.3-5.38,11.3-12.67V264.24h16.23Z" transform="translate(-146.61 -200.48)"/><path class="a" d="M540.07,309.74c5.66,5.1,11,8.11,18.78,8.11,4.29,0,12.13-1.82,12.13-7.47,0-3.29-2.46-4.93-7.29-5.75l-13.49-2.19c-12.05-1.92-18.61-8.29-18.61-17.87,0-15.68,12.68-22.15,26.54-22.15a38.5,38.5,0,0,1,28.62,12.49l-12.3,8.84a22.44,22.44,0,0,0-17.42-8.2c-3.74,0-9.21,2.37-9.21,6.56,0,3.47,2.82,5.2,9,6.2l6.2,1c13,2.09,23.61,6.1,23.61,18.5,0,19.51-17.59,23.16-29.72,23.16-11,0-20.42-3.55-29.28-13.21Z" transform="translate(-146.61 -200.48)"/><polygon class="a" points="444.46 63.77 504.67 63.77 494.61 76.35 477.65 76.35 477.65 128.68 461.42 128.68 461.42 76.35 444.46 76.35 444.46 63.77"/><polygon class="b" points="537.01 25.61 515.34 0 454.93 0 476.59 25.61 454.93 51.22 515.34 51.22 537.01 25.61"/></svg>