<svg xmlns="http://www.w3.org/2000/svg" viewBox="0 0 237.6 52.78"><defs><style>.a{fill:#1c2b39;}.b{fill:#a6a8ab;}</style></defs><path class="a" d="M18.2,47.42a3.07,3.07,0,0,1-2,3c-.56.26-.82.31-.82.38s.28.13.89.33c2.29.74,3.53,2.27,3.53,4.19,0,2.34-1.88,4-5.56,4-1.06,0-2.05-.11-2.94-.11A17.51,17.51,0,0,0,9,59.41c-.15,0-.22-.08-.22-.16,0-.25.45-.13,1-.45s.63-1.33.63-3.28V50.65c0-3.61,0-5.49-.71-6-.43-.35-1.17-.28-1.17-.45s.08-.23.16-.23a14.32,14.32,0,0,0,1.67.1c1.19,0,2.28-.2,3.27-.2,2.9,0,4.55,1.62,4.55,3.57m-5.64,3.43c2.44,0,3.81-1.14,3.81-3,0-2.21-1.25-3.53-3.38-3.53-1,0-1.06.18-1.06,2.06v2.38c0,.74,0,1.4,0,2a4.22,4.22,0,0,0,.61,0m-.63,1.8a43.58,43.58,0,0,0,.2,5.59c.13.43.74.58,1.88.58,2.54,0,4-1.37,4-3.55,0-2.37-1.68-4-4.7-4a9.45,9.45,0,0,0-1.34.1Z" transform="translate(-8.55 -7.1)"/><path class="a" d="M38.05,58.9c1.22.76,1.72.51,1.72.81,0,.1-.05.18-.2.18H39c-2.74,0-5.51-2.67-8.6-8H30a16,16,0,0,1-2.26-.18c0,.53,0,1.07,0,1.55v1.27c0,2.69,0,3.91.53,4.16.84.41,1.27.21,1.27.56,0,.08,0,.18-.1.18a19.25,19.25,0,0,0-2.59-.25,11.68,11.68,0,0,0-2.18.23c-.1,0-.13-.08-.13-.19s.23-.17.73-.37c.84-.31.87-1.27.87-3.13V50.78c0-3.89,0-5.84-.53-6.2s-1.27-.1-1.27-.45a.2.2,0,0,1,.23-.23c.2,0,.73.1,1.59.1,1.3,0,2.67-.33,4.09-.33,3.15,0,5.18,1.75,5.18,4.26,0,1.65-1.12,3.07-3.17,3.68,2.23,3.78,4.08,6.22,5.81,7.29m-8.38-7.54c2.57,0,4-1.27,4-3.23a3.69,3.69,0,0,0-3.89-4c-1.14,0-1.77.25-1.87.74a59.78,59.78,0,0,0-.18,6.22,8.47,8.47,0,0,0,2,.25" transform="translate(-8.55 -7.1)"/><path class="a" d="M53.26,46.74c-.1,0-.23-.08-.23-.18a6.59,6.59,0,0,0,.13-1c0-.83-1.07-1.11-3.94-1.11a22.36,22.36,0,0,0-3.07.23C46,46.56,46,48.39,46,50.14v.43c0,.49.1.54,1.12.54h1.14c2.16,0,3.35,0,3.78-.46s.36-1.22.66-1.22c.13,0,.16,0,.16.18,0,.38-.16,1-.16,1.93s.13,1.67.13,2,0,.31-.18.31-.12-.38-.33-1.06c-.3-1-.94-1.1-3.42-1.1H47.5c-1.48,0-1.53.05-1.53.64v1.49c0,1.22,0,2.77.13,4.62a19.45,19.45,0,0,0,3,.26c2.72,0,4.16-.46,5.08-2,.35-.58.35-1,.55-1s.16.05.16.15a10.78,10.78,0,0,1-1,3.41c-2.29-.08-4.06-.1-5.26-.1-3.78,0-5.58.2-5.81.2s-.25-.05-.25-.16c0-.32,1.06-.22,1.37-.63s.43-3.37.43-8.93V47.3c0-1.78-.08-2.57-.69-2.82s-1-.18-1-.43c0-.1.08-.15.23-.15s.92.1,2.39.1c.56,0,3.45-.1,8.68-.1-.48,1.72-.33,2.84-.71,2.84" transform="translate(-8.55 -7.1)"/><path class="a" d="M65.37,59.53c-.33,0-1.27-4-4.67-12.23-.58-1.4-1-2.31-1.87-2.72-.61-.28-1.12-.12-1.12-.4s.08-.31.28-.31a.65.65,0,0,0,.18,0c.55,0,1.34.23,2.41.23,1.42,0,2.38-.23,2.86-.23.06,0,.13.12.13.2,0,.36-1.8.1-1.8,1,0,.58,1.37,4.37,4.16,11.29,1-2.41,2.11-5,3.23-7.91l-.92-2.19c-.53-1.24-.86-1.8-1.6-2-.22-.08-.43,0-.43-.23s.08-.18.23-.18c.48,0,1.32.13,2.51.13,1,0,1.75-.1,2.29-.1a.63.63,0,0,1,.17,0h.08a.13.13,0,0,1,.15.13c0,.3-1.8.13-1.8,1.07,0,.66,1.35,4.46,4.11,11.41L77,47.73a6.21,6.21,0,0,0,.49-1.95c0-1-.51-1.35-1.58-1.55-.58-.1-.81-.08-.81-.25s.1-.13.25-.13c.36,0,1.07,0,2.14,0,.88,0,1.62-.08,2.18-.08.18,0,.33,0,.43,0s.18,0,.18.16-.16.12-.59.28c-1,.33-1.29,1.49-2.18,3.9-2.89,7.77-3.93,11.4-4.19,11.4-.48,0-1-3.5-3.86-10.25-3,6.83-3.83,10.25-4.11,10.25" transform="translate(-8.55 -7.1)"/><path class="a" d="M89.48,44c0,.3-1,.17-1.63.65s-.58,3.33-.58,8.86v2.36c0,2.06.1,2.82.94,3s1.22,0,1.22.27-.13.21-.38.21h-.18c-.71,0-1.73-.13-3.05-.13-1,0-1.65.1-2.08.1l-.41,0c-.15,0-.23,0-.23-.16s.11-.22.33-.22c1.17,0,1.7-.36,1.94-1s.27-2.77.27-6.35c0-4.39,0-6.6-.78-7s-1.63-.1-1.63-.46c0-.17.1-.2.28-.2h.1c.74,0,1.5.07,2.31.07,1.45,0,2.54-.2,3.23-.2.22,0,.33,0,.33.16" transform="translate(-8.55 -7.1)"/><path class="a" d="M96.1,46.66V48.9c0,5.86,0,9,.45,9.49s2.39.38,2.39.84c0,.12,0,.12-.18.12-.58,0-1.27-.12-2.06-.12-1.21,0-2.1.18-2.58.18-.16,0-.26,0-.26-.16s.38-.15,1-.38.61-.4.61-1.14V56.61c0-1,0-2.18,0-3.37V51.48c0-3.85,0-6-.66-6.64s-1.6-.49-1.6-.77c0-.12.08-.17.23-.17.33,0,.79.05,1.37.05.43,0,.94,0,1.53-.08,2.23,2.87,6.27,6.63,12.08,11.7l.2-.1c.05-1.12.05-2,.05-2.82V51.33c0-4.34,0-6.49-.92-7-.58-.38-1.21-.18-1.21-.46s.05-.17.18-.17c.43,0,1.27.17,2.41.17.58,0,1.06,0,1.47,0,.23,0,.36,0,.36.21s-.69.09-1.1.4-.61,2.59-.61,6.7v3c0,2.33.08,3.91.08,4.7a2.16,2.16,0,0,1,0,.32c0,.16,0,.21-.21.21s-.58-1.17-3.09-3.61c-5-4.82-8.38-7.69-9.85-9.16Z" transform="translate(-8.55 -7.1)"/><path class="a" d="M131.85,43.82a8.66,8.66,0,0,1,5.34,1.45,7.8,7.8,0,0,1,3.45,6.19c0,4.49-3.51,7.89-9,7.89-1.32,0-2.59-.15-3.75-.15-1.35,0-2.26.18-2.67.18-.18,0-.27-.08-.27-.2s.42-.16.8-.31c.79-.28.82-1,.82-2.61V50.62c0-3.63,0-5.5-.56-5.84s-1.14-.17-1.14-.48.2-.2.58-.2,1,.1,1.6.1c1.17,0,2.74-.38,4.79-.38m-3.39,1.12c-.16.26-.26,2.66-.26,7.26a31.72,31.72,0,0,0,.23,5.73c.2.41,1.6.92,3.62.92,4.07,0,6.66-2.9,6.66-7.21S136,44.3,131.43,44.3c-1.75,0-2.8.33-3,.64" transform="translate(-8.55 -7.1)"/><path class="a" d="M152.31,43.62a7.71,7.71,0,0,1,7.92,7.86,8,8,0,1,1-7.92-7.86m-6.57,6.93a9,9,0,0,0,1.75,5.22,6.82,6.82,0,0,0,5.48,2.9c3.43,0,5.64-2.56,5.64-6.25,0-4.34-3.18-8-6.84-8a5.77,5.77,0,0,0-6,6.12" transform="translate(-8.55 -7.1)"/><path class="a" d="M172,59.18c-5,0-7.66.12-8,.12-.19,0-.24,0-.24-.15s.31-.15.94-.41.69-.84.69-2.33c0-.84,0-1.95,0-3.45,0-5-.08-7.69-.36-8.23s-1.35-.33-1.35-.55.05-.23.21-.23.86.1,2,.1c1.45,0,2.44-.18,2.92-.18a.18.18,0,0,1,.13.18c0,.3-.79.08-1.45.46-.43.22-.48,1.39-.48,3.68v2.13c0,4.59,0,7.13.15,7.58s.56.69,2.21.69c3.07,0,5.07-.61,5.53-1.17s.35-1.34.71-1.34c.18,0,.2.08.2.23a17.53,17.53,0,0,1-.86,3.07,13.76,13.76,0,0,0-2.92-.2" transform="translate(-8.55 -7.1)"/><path class="a" d="M191.19,48.75c0,2.63-2.54,4.77-6.42,4.77a7.79,7.79,0,0,1-1.19-.1c-.05,0-.08,0-.13,0-.21,0-.23.08-.23.48v.25c0,3,.05,4.35.51,4.55.89.4,1.75,0,1.75.43,0,.18,0,.2-.15.2-.61,0-1.6-.15-2.92-.15-.81,0-1.53.15-2.11.15-.1,0-.15,0-.15-.18s.23-.07.84-.32.68-.82.68-2.29V55.19c0-6.19-.17-9.47-.2-9.62-.08-.89-.51-1.34-1.27-1.34-.3,0-.43,0-.43-.18a.18.18,0,0,1,.2-.2,2.09,2.09,0,0,0,.23,0c.23,0,.43,0,.66,0,2.23,0,3.58-.18,4.09-.18,3.73,0,6.24,2.36,6.24,5M184.9,53c2.79,0,4.49-1.58,4.49-4.11,0-2.72-1.7-4.62-4.39-4.62a9.31,9.31,0,0,0-1.78.2c-.05,2.69-.05,4.29-.05,4.77,0,1,0,2.16,0,3.53a8,8,0,0,0,1.71.23" transform="translate(-8.55 -7.1)"/><path class="a" d="M209.33,52.17c0-.4-.18-.46-.79-.46h-8.91c-.58,0-.71.08-.71.46v4.95c0,1,.15,1.6,1.14,1.88.28.07.49,0,.49.22s-.06.16-.16.16a16.56,16.56,0,0,0-2.53-.18c-1.25,0-2,.13-2.19.13h-.11a.18.18,0,0,1-.12-.15c0-.31.71-.13,1.22-.51s.61-2.77.61-7.39c0-.46,0-1.93,0-4.41v-.33c0-1.19,0-1.78-.53-2.14s-1.09-.15-1.09-.45c0-.08.08-.16.23-.16s1.27.13,3.15.13c.93,0,1.44-.07,1.57-.07s.2,0,.2.17c0,.28-.91.13-1.39.56a1.59,1.59,0,0,0-.38,1.07,31.59,31.59,0,0,0-.16,3.17c0,.56,0,1,.05,1.47v.21c0,.35.06.45.84.45h8.73c.54,0,.82-.05.82-.53V46.13c0-1-.13-1.55-.74-1.83s-.86-.15-.86-.3.05-.23.12-.23a21.56,21.56,0,0,0,2.24.18c1.09,0,1.87-.16,2.26-.16.12,0,.17.06.17.16,0,.33-.6.15-1.06.71s-.48,3.09-.48,7.76v2.67c0,2.13.05,3.2.58,3.63s1,.18,1,.48c0,.13-.05.15-.18.15a18.1,18.1,0,0,0-2.11-.17c-1.19,0-2,.17-2.35.17-.18,0-.23,0-.23-.17,0-.33.58-.13,1.06-.54s.67-1.67.67-4c0-.68,0-1.44,0-2.31Z" transform="translate(-8.55 -7.1)"/><path class="a" d="M223.93,44c0,.3-1,.17-1.62.65s-.58,3.33-.58,8.86v2.36c0,2.06.1,2.82.94,3s1.21,0,1.21.27-.12.21-.38.21h-.17c-.72,0-1.73-.13-3.05-.13-1,0-1.65.1-2.08.1l-.41,0c-.15,0-.22,0-.22-.16s.09-.22.32-.22c1.17,0,1.7-.36,1.93-1s.28-2.77.28-6.35c0-4.39,0-6.6-.78-7s-1.63-.1-1.63-.46c0-.17.1-.2.28-.2h.1c.74,0,1.5.07,2.31.07,1.45,0,2.54-.2,3.22-.2.24,0,.33,0,.33.16" transform="translate(-8.55 -7.1)"/><path class="a" d="M231.21,46.66V48.9c0,5.86,0,9,.45,9.49s2.39.38,2.39.84c0,.12-.06.12-.18.12-.58,0-1.27-.12-2.06-.12-1.21,0-2.1.18-2.58.18-.15,0-.26,0-.26-.16s.38-.15,1-.38.61-.4.61-1.14V56.61c0-1,0-2.18,0-3.37V51.48c0-3.85,0-6-.66-6.64s-1.59-.49-1.59-.77c0-.12.07-.17.22-.17.33,0,.79.05,1.37.05s.94,0,1.53-.08c2.23,2.87,6.26,6.63,12.08,11.7l.2-.1c.05-1.12.05-2,.05-2.82V51.33c0-4.34,0-6.49-.92-7-.58-.38-1.21-.18-1.21-.46s0-.17.18-.17c.43,0,1.27.17,2.41.17.58,0,1.06,0,1.47,0,.23,0,.35,0,.35.21s-.68.09-1.09.4-.6,2.59-.6,6.7v3c0,2.33.07,3.91.07,4.7a2.16,2.16,0,0,1,0,.32c0,.16-.05.21-.2.21s-.59-1.17-3.11-3.61c-5-4.82-8.37-7.69-9.84-9.16Z" transform="translate(-8.55 -7.1)"/><path class="b" d="M108.54,27.93a3.06,3.06,0,0,1-3.07-3.07V10.17a3.07,3.07,0,0,1,3.07-3.07h14.72a3.06,3.06,0,0,1,3.07,3.07V24.86a3.07,3.07,0,0,1-3.07,3.07h-3c-1,0-3.89.32-4.38,1.79-.49-1.47-3.41-1.75-4.39-1.79ZM124.69,9.79s-.06-.15-.16-.16a2.42,2.42,0,0,0-.41,0l-.43,0-.24,0H123l-.28,0a.85.85,0,0,1-.53-.07,3.49,3.49,0,0,0-.74-.18,4.76,4.76,0,0,0-.75-.07h-.42a9.64,9.64,0,0,0-1.65.15,12,12,0,0,0-1.67.4l-.31.09a3.17,3.17,0,0,1-1.3.24,2.06,2.06,0,0,1-1-.45l-.1-.08c-.81-.6-1.29-.83-1.44-.68h0a.2.2,0,0,0-.06.16l0,.08v0l.1.15,0,.07a2.61,2.61,0,0,1,.44,1.12,1.43,1.43,0,0,1,0,.26,2.3,2.3,0,0,1-.31,1l-.15.24c-2.3,3.46-3.37,6.82-3.21,10v0c0,.12.08.76-.33.91l-.18.06a6.67,6.67,0,0,0-2.45,1.33,1,1,0,0,0-.28.36.18.18,0,0,0,0,.09h0a.51.51,0,0,0,.24,0,5.33,5.33,0,0,1,1.4-.24,3.47,3.47,0,0,0,1.38-.38h0a1.28,1.28,0,0,0,.15.12.68.68,0,0,0,.15.08s.34.11.4.13l.24.07.1,0,.12,0,.22.12a5.28,5.28,0,0,1,.49.33l.3.24.14.13.09.08s0,.06.06.05,0-.08,0-.12v-.07a3,3,0,0,0,0-.31,2,2,0,0,0-.09-.41,2.57,2.57,0,0,0-.3-.67,2.05,2.05,0,0,0-.24-.32l-.31-.29-.24-.22a.83.83,0,0,1-.25-.48.42.42,0,0,1,0-.13,10.73,10.73,0,0,1,2.52-6.05c2.52-3.39,4.85-4.35,5.4-4.53.38-.13.43-.12.45-.07a0,0,0,0,0,0,0c0,.06-.14.09-.93.52a12.12,12.12,0,0,0-3.28,2.62,15.27,15.27,0,0,0-3.44,5.73,11.7,11.7,0,0,1,3.46-4.05,29.47,29.47,0,0,1,4.86-3l.07,0v.09a.49.49,0,0,1,0,.12,2.14,2.14,0,0,0,.51,1l.06.08a1.67,1.67,0,0,1,.36.91c0,.11,0,.16,0,.23v.23c0,.13,0,.16.06.17a.26.26,0,0,0,.18-.07,1.13,1.13,0,0,0,.2-.22,2.1,2.1,0,0,0,.31-.66,2.63,2.63,0,0,0,0-.85c0-.15,0-.32-.09-.49a6.11,6.11,0,0,0-.37-1.09l0,0a.46.46,0,0,1,0-.09.28.28,0,0,1,.09-.24,6.63,6.63,0,0,0,1.4-1.71l.16-.25c.18-.25.25-.32,1.47-.73l.3-.1c.26-.1.36-.18.37-.3v0" transform="translate(-8.55 -7.1)"/><path class="b" d="M146.17,7.1H131.44a3.06,3.06,0,0,0-3.06,3.07V24.86a3.06,3.06,0,0,0,3.06,3.07h3c1,0,3.89.32,4.38,1.79.5-1.47,3.41-1.75,4.39-1.79h2.95a3.07,3.07,0,0,0,3.08-3.07V10.17a3.06,3.06,0,0,0-3.07-3.07M133.28,20.36H130.8c-.05,0-.17,0-.17-.11a.1.1,0,0,1,.11-.11,4.54,4.54,0,0,0,.58-.05c.2-.05.24-.13.26-.35s0-.94,0-1.65V16c0-.2,0-.22-.07-.22a3.85,3.85,0,0,0-.61.24l-.23.11a.53.53,0,0,1-.12,0s-.09-.06-.09-.12a.19.19,0,0,1,.1-.14l1.7-1.13a.37.37,0,0,1,.21-.1s.12,0,.12.19v.1c0,.24,0,.9,0,1.81v1.37c0,.71,0,1.32,0,1.65s.05.31.27.36.42,0,.47,0a.1.1,0,0,1,.1.11c0,.11-.1.11-.16.11M138.06,15a17.45,17.45,0,0,0-1.86,4.71.54.54,0,0,0,0,.18V20c0,.18-.65.48-1,.48-.07,0-.14,0-.14-.13a1.31,1.31,0,0,1,0-.31,27.25,27.25,0,0,1,2.17-4.58l-1.87.06a1.37,1.37,0,0,0-.67.13.67.67,0,0,0-.22.41c0,.12-.09.13-.11.13s-.11-.11-.11-.15,0-.62.08-.92c0-.15,0-.26,0-.29s.09-.14.12-.14a5.12,5.12,0,0,0,1,.07h2.35c.11,0,.22,0,.22.1a.26.26,0,0,1-.06.16m2.45,5.46a1.94,1.94,0,0,1-2-2.15,4.26,4.26,0,0,1,2.75-3.65.45.45,0,0,1,.18,0c.07,0,.13,0,.13.1s-.11.15-.19.19a3.92,3.92,0,0,0-1.87,3.41c0,.86.37,1.74,1.07,1.74s.89-.45.89-1.19c0-1-.51-1.44-1-1.44a1.51,1.51,0,0,0-.38.05.5.5,0,0,1-.17.05.1.1,0,0,1-.1-.11.17.17,0,0,1,.11-.15,1.71,1.71,0,0,1,1-.27,1.5,1.5,0,0,1,1.54,1.53,1.88,1.88,0,0,1-2,1.93m6.41-.37c-.07.23-.22.25-.68.25h-2.88a.15.15,0,0,1-.15-.15c0-.07.08-.15.16-.22l.23-.2c1-.87,2.25-1.95,2.25-3.37,0-1-.5-1.36-1-1.36a1,1,0,0,0-.76.26,1.17,1.17,0,0,0-.29.67c0,.12-.05.18-.14.18s-.1-.06-.11-.17,0-.69,0-.9,0-.12.11-.18a2.85,2.85,0,0,1,1.35-.28c1.18,0,1.89.6,1.89,1.6,0,1.43-1.57,2.69-2.52,3.43h.46c.12,0,1,0,1.26,0a.85.85,0,0,0,.81-.63c0-.07,0-.14.12-.14s.1.12.1.18a9.29,9.29,0,0,1-.21,1.06" transform="translate(-8.55 -7.1)"/></svg>