<svg xmlns="http://www.w3.org/2000/svg" viewBox="0 0 661.07 145.72"><defs><style>.a{fill:#0075c9;}</style></defs><path class="a" d="M618.41,318.56a92.8,92.8,0,0,1-.63-10.9V265.5s0-.11,0-.17a24.79,24.79,0,0,0-.36-4.25A24.38,24.38,0,0,0,604,243.44a37.87,37.87,0,0,0-9.34-2.54,87,87,0,0,0-12.37-.9,65.74,65.74,0,0,0-13.39,1.39,37.53,37.53,0,0,0-12,4.63,27.29,27.29,0,0,0-2.84,2l0,0-.23.18-.25.19-.22.18c-5.46,4.44-9,12.85-9.13,20.58h0v.5h22.21a27.79,27.79,0,0,1,1.35-6.81h0a11,11,0,0,1,7-6.78h0a22.38,22.38,0,0,1,6.73-.9,19.8,19.8,0,0,1,8.11,1.47l.18.08h0a9.75,9.75,0,0,1-.47,17.84c-.56.2-1.15.38-1.78.54A58.14,58.14,0,0,1,579,276.6c-3.24.32-6.53.76-9.87,1.3a90,90,0,0,0-9.94,2.19c-1,.3-2.87,1.05-2.87,1.05a24,24,0,0,0-14.43,18.71c-.11,1.14-.17,2.33-.17,3.58a34.53,34.53,0,0,0,.37,5.12c1.82,9.16,9.19,16.82,17.37,18.68a40.24,40.24,0,0,0,10,1.24A53,53,0,0,0,584,326.2a28.72,28.72,0,0,0,12.53-8,35.11,35.11,0,0,0,.54,4.15,36.49,36.49,0,0,0,1,4h22.55a20.23,20.23,0,0,1-2.2-7.81Zm-22.84-24.7a44.09,44.09,0,0,1-.4,5.2,17.88,17.88,0,0,1-2.11,6.43,15,15,0,0,1-5.32,5.44q-3.62,2.28-10.19,2.28a30,30,0,0,1-5.14-.44,11,11,0,0,1-1.51-.42,10.67,10.67,0,0,1-5.61-4.81,11,11,0,0,1-1.3-3.73s0,0,0,0c0-.27-.06-.54-.08-.81s0-.61,0-.93,0-.59,0-.89a1.83,1.83,0,0,1,0-.33c.05-.46.29-1.56.31-1.65a10.8,10.8,0,0,1,6.67-7.42h0c.21-.08.43-.15.65-.21a103.54,103.54,0,0,1,10.86-2.26c1.77-.27,3.47-.49,5.09-.81a35.26,35.26,0,0,0,4.54-1.22,10,10,0,0,0,3.53-2v8.62Z" transform="translate(-88.89 -194.14)"/><path class="a" d="M420.23,318.56a90.69,90.69,0,0,1-.63-10.9V265.5s0-.11,0-.17a24.79,24.79,0,0,0-.36-4.25,24.4,24.4,0,0,0-13.46-17.64,37.83,37.83,0,0,0-9.35-2.54,86.7,86.7,0,0,0-12.36-.9,65.84,65.84,0,0,0-13.4,1.39,37.57,37.57,0,0,0-12,4.63,27.43,27.43,0,0,0-2.85,2l0,0-.24.18-.24.19-.22.18c-5.47,4.44-9,12.85-9.13,20.58h0v.5h22.21a27.33,27.33,0,0,1,1.35-6.81h0a11,11,0,0,1,7-6.78h0a22.38,22.38,0,0,1,6.73-.9,19.83,19.83,0,0,1,8.11,1.47l.17.08h0a9.76,9.76,0,0,1-.48,17.84q-.84.3-1.77.54a58.06,58.06,0,0,1-8.62,1.47c-3.23.32-6.52.76-9.86,1.3a90.68,90.68,0,0,0-9.95,2.19c-1,.3-2.86,1.05-2.86,1.05a24,24,0,0,0-14.43,18.71c-.11,1.14-.17,2.33-.17,3.58a34.53,34.53,0,0,0,.37,5.12c1.82,9.16,9.19,16.82,17.36,18.68a40.44,40.44,0,0,0,10,1.24,52.94,52.94,0,0,0,14.55-2.27,28.78,28.78,0,0,0,12.53-8,35.11,35.11,0,0,0,.54,4.15,36.45,36.45,0,0,0,1,4h22.55a20.42,20.42,0,0,1-2.19-7.81Zm-22.85-24.7a46,46,0,0,1-.39,5.2,17.88,17.88,0,0,1-2.11,6.43,15,15,0,0,1-5.33,5.44q-3.6,2.28-10.18,2.28a30.11,30.11,0,0,1-5.15-.44,10.46,10.46,0,0,1-7.11-5.23,11.27,11.27,0,0,1-1.31-3.73v0c0-.27-.06-.54-.08-.81s0-.61,0-.93a8.83,8.83,0,0,1,0-.89,1.83,1.83,0,0,1,0-.33c.05-.46.29-1.56.31-1.65a10.8,10.8,0,0,1,6.67-7.42h0c.21-.08.43-.15.65-.21a102.91,102.91,0,0,1,10.85-2.26c1.78-.27,3.48-.49,5.1-.81a35.26,35.26,0,0,0,4.54-1.22,9.85,9.85,0,0,0,3.52-2v8.62Z" transform="translate(-88.89 -194.14)"/><path class="a" d="M747.76,256.18a22.75,22.75,0,0,0-15.5-14.55A41.92,41.92,0,0,0,720.35,240a25.31,25.31,0,0,0-14.64,4.23,34.93,34.93,0,0,0-9.78,9.76q-3.3-7.8-9.64-10.9a31.58,31.58,0,0,0-14-3.09,27.83,27.83,0,0,0-14.17,3.58,31.71,31.71,0,0,0-9.63,8.76V242.28H626.23v84.09h22.24v-48.8a24.58,24.58,0,0,1,1.72-10,16.2,16.2,0,0,1,4.15-5.85,13.62,13.62,0,0,1,5-2.77c.54-.15,1-.28,1.52-.38a12.61,12.61,0,0,1,2.14-.18A14.07,14.07,0,0,1,676.77,271c0,.26,0,.53.05.8q.15,3.66.15,7.4v47.17h22.24V279.52a53.66,53.66,0,0,1,.55-7.72,21.13,21.13,0,0,1,1.16-4.59h0a13.88,13.88,0,0,1,12.79-8.83,14,14,0,0,1,13.63,11.75l.06.6q.32,3.75.31,8v47.65H750V270.09a39.36,39.36,0,0,0-2.19-13.91Z" transform="translate(-88.89 -194.14)"/><path class="a" d="M503,260.45a27.75,27.75,0,0,0-4.63-10.9,21.78,21.78,0,0,0-9-7Q483.68,240,474.76,240a30.09,30.09,0,0,0-9.54,1.57,29.59,29.59,0,0,0-13.57,9.86c-.35.49-.69,1-1,1.52V242.24H428.4V326.4h22.24V282.33q0-12.85,4.07-18.46a13.35,13.35,0,0,1,1-1.22l0,0a15.05,15.05,0,0,1,6.76-4.64,14.08,14.08,0,0,1,4.37-.69,14.83,14.83,0,0,1,14,10.49h0a41.3,41.3,0,0,1,1.28,11.12V326.4h22.23V274.68A70.94,70.94,0,0,0,503,260.45Z" transform="translate(-88.89 -194.14)"/><path class="a" d="M336.07,283.35a25.6,25.6,0,0,0-7.24-8.49,37.14,37.14,0,0,0-10.2-5.33A118,118,0,0,0,307,266.18c-4.07-.92-8-1.78-11.82-2.57A69.17,69.17,0,0,1,285,260.75c-.21-.07-1.32-.53-1.38-.55l-1.12-.52a22.87,22.87,0,0,1-2.14-1.19A10,10,0,0,1,282,241a24.6,24.6,0,0,1,5.41-1.31,44.81,44.81,0,0,1,5.42-.39,28.66,28.66,0,0,1,12.82,2.76q5.6,2.78,7.13,10.86h22.61a34.61,34.61,0,0,0-4.66-14.5,31.25,31.25,0,0,0-9.31-9.78,38.82,38.82,0,0,0-12.54-5.42,61.58,61.58,0,0,0-14.53-1.68,75.33,75.33,0,0,0-14,1.38,42.14,42.14,0,0,0-13.3,4.84,30,30,0,0,0-9.88,9.07q-3.9,5.63-3.9,13.92A28.39,28.39,0,0,0,256,263.72a24.47,24.47,0,0,0,7.12,8.58,37.14,37.14,0,0,0,10.08,5.32A104.2,104.2,0,0,0,284.87,281q5.89,1.38,11.6,2.56a68.67,68.67,0,0,1,10.16,2.87,21.2,21.2,0,0,1,7.1,4.23h0a11,11,0,0,1,.06,15.61,14.39,14.39,0,0,1-4.38,2.74,28.92,28.92,0,0,1-7.32,1.87,55.81,55.81,0,0,1-6.93.5,27.66,27.66,0,0,1-15-3.95q-6.25-3.94-7.22-13.81H251.24a36.07,36.07,0,0,0,3.52,15.68,31.58,31.58,0,0,0,9.15,11.06,39.47,39.47,0,0,0,13.71,6.6,64.71,64.71,0,0,0,17.23,2.18,69,69,0,0,0,15.42-1.78,46.1,46.1,0,0,0,14.19-5.72,32.1,32.1,0,0,0,10.38-10.26q4-6.31,4-15.4a26.25,26.25,0,0,0-2.77-12.62Z" transform="translate(-88.89 -194.14)"/><polygon class="a" points="446.22 16.1 446.22 132.23 423.99 132.23 423.99 16.1 446.22 16.1 446.22 16.1"/><path class="a" d="M156.47,293.21c5.8-5.56,11.15-9.13,15.26-15.82a31.71,31.71,0,0,0,5.87-17.66,25.79,25.79,0,0,0-4.7-15.21c-3.81-6.34-7.83-12.69-11.13-18.28,0,0,0,0,0,0-1.58-2.71-3.15-5.57-4.79-8.77-3.29-6.27-8.11-13.59-3.45-22h0l.06-.1c.1-.19.22-.38.34-.58s.22-.36.28-.44h0s0,0,0,0a.52.52,0,0,1,.41-.18.59.59,0,0,1,.47.26h0a2.81,2.81,0,0,1,.24.36c.42.61,16.36,23.4,50.29,70.78.06.06.11.13.17.2a7.09,7.09,0,0,1,1.07,3.89v.12a8.87,8.87,0,0,1-1.41,4.95l0,0L187,306c-1.71,3.35-2.25,9.6-2.32,14.6,0,2.12,0,6.87,0,10,0,.19,0,.39,0,.59a8.72,8.72,0,0,1-4.13,7.48,1,1,0,0,1-.19.12,7.29,7.29,0,0,1-3.05,1,7.91,7.91,0,0,1-.84.06c-1,.06-1.69,0-3,0h0l-21.81,0V313.19c-.06-1.83-.08-10.68.53-12.66a13.16,13.16,0,0,1,4.3-7.32Z" transform="translate(-88.89 -194.14)"/><path class="a" d="M139.31,293.21c-5.8-5.56-11.14-9.13-15.26-15.82a31.78,31.78,0,0,1-5.86-17.66,25.79,25.79,0,0,1,4.7-15.21c3.81-6.34,7.82-12.69,11.12-18.28v0c1.57-2.71,3.15-5.57,4.79-8.77,3.29-6.27,8.1-13.59,3.44-22h0a.34.34,0,0,1-.06-.1l-.35-.58c-.11-.19-.21-.36-.27-.44h0v0a.5.5,0,0,0-.4-.18.6.6,0,0,0-.48.26h0a2.8,2.8,0,0,0-.25.36c-.41.61-16.36,23.4-50.28,70.78-.06.06-.11.13-.17.2a7,7,0,0,0-1.07,3.89v.12a8.87,8.87,0,0,0,1.41,4.95l0,0L108.82,306c1.71,3.35,2.25,9.6,2.32,14.6,0,2.12,0,6.87,0,10a5.72,5.72,0,0,0,0,.59,8.71,8.71,0,0,0,4.12,7.48l.19.12a7.38,7.38,0,0,0,3,1,7.91,7.91,0,0,0,.85.06c1,.06,1.68,0,3,0h0l21.82,0V313.19c0-1.83.07-10.68-.54-12.66a13.1,13.1,0,0,0-4.3-7.32Z" transform="translate(-88.89 -194.14)"/><path class="a" d="M171.11,259.41c0,13.31-10.39,24.09-23.2,24.09s-23.19-10.78-23.19-24.09,10.38-24.08,23.19-24.08,23.2,10.78,23.2,24.08Z" transform="translate(-88.89 -194.14)"/></svg>