<svg xmlns="http://www.w3.org/2000/svg" viewBox="0 0 639.9 137.21"><defs><style>.a{fill:#12100b;}</style></defs><path class="a" d="M104.71,128.75a3.39,3.39,0,1,0,3.38,3.38,3.38,3.38,0,0,0-3.38-3.38"/><path class="a" d="M97.82,128.75a3.39,3.39,0,1,0,3.35,3.42v0a3.38,3.38,0,0,0-3.35-3.38"/><path class="a" d="M118.21,128.75a3.39,3.39,0,1,0,3.39,3.38,3.38,3.38,0,0,0-3.39-3.38"/><path class="a" d="M111.48,128.75a3.39,3.39,0,1,0,3.35,3.42v0a3.39,3.39,0,0,0-3.35-3.38"/><path class="a" d="M104.71,122a3.39,3.39,0,1,0,0,6.77h0a3.39,3.39,0,0,0,0-6.77"/><path class="a" d="M97.82,122a3.39,3.39,0,1,0,3.35,3.42v0A3.38,3.38,0,0,0,97.82,122"/><path class="a" d="M118.21,122a3.39,3.39,0,1,0,3.39,3.39,3.38,3.38,0,0,0-3.39-3.39Z"/><path class="a" d="M111.48,122a3.39,3.39,0,1,0,3.35,3.42v0a3.39,3.39,0,0,0-3.35-3.38"/><path class="a" d="M104.71,115.24a3.39,3.39,0,1,0,3.38,3.39v0a3.39,3.39,0,0,0-3.38-3.35"/><path class="a" d="M97.82,115.24a3.39,3.39,0,1,0,3.35,3.43v-.08a3.35,3.35,0,0,0-3.35-3.35"/><path class="a" d="M118.21,115.24a3.39,3.39,0,1,0,3.39,3.39v0a3.39,3.39,0,0,0-3.39-3.35"/><path class="a" d="M111.48,115.24a3.39,3.39,0,1,0,3.35,3.43v-.08a3.35,3.35,0,0,0-3.35-3.35"/><path class="a" d="M104.71,108.47a3.39,3.39,0,1,0,3.38,3.39,3.39,3.39,0,0,0-3.38-3.39"/><path class="a" d="M97.82,108.47a3.39,3.39,0,1,0,3.35,3.42v0a3.38,3.38,0,0,0-3.35-3.39"/><path class="a" d="M118.21,108.47a3.39,3.39,0,1,0,3.39,3.39,3.38,3.38,0,0,0-3.39-3.39"/><path class="a" d="M111.48,108.47a3.39,3.39,0,1,0,3.35,3.42v0a3.39,3.39,0,0,0-3.35-3.39"/><path class="a" d="M104.71,101.58a3.39,3.39,0,1,0,3.38,3.39v0a3.39,3.39,0,0,0-3.38-3.35"/><path class="a" d="M97.82,101.58a3.39,3.39,0,1,0,3.35,3.43v-.08a3.35,3.35,0,0,0-3.35-3.35"/><path class="a" d="M118.21,101.58A3.39,3.39,0,1,0,121.6,105v0a3.39,3.39,0,0,0-3.39-3.35"/><path class="a" d="M111.48,101.58a3.39,3.39,0,1,0,3.35,3.43v-.08a3.35,3.35,0,0,0-3.35-3.35"/><path class="a" d="M104.71,95a3.39,3.39,0,1,0,3.38,3.39A3.39,3.39,0,0,0,104.71,95"/><path class="a" d="M97.82,95a3.39,3.39,0,1,0,3.35,3.43v0A3.38,3.38,0,0,0,97.82,95"/><path class="a" d="M118.21,95a3.39,3.39,0,1,0,3.39,3.39A3.38,3.38,0,0,0,118.21,95"/><path class="a" d="M111.48,95a3.39,3.39,0,1,0,3.35,3.43v0A3.39,3.39,0,0,0,111.48,95"/><path class="a" d="M104.71,88.19a3.39,3.39,0,1,0,3.38,3.38,3.39,3.39,0,0,0-3.38-3.38"/><path class="a" d="M97.82,88.19a3.39,3.39,0,1,0,3.35,3.42v0a3.38,3.38,0,0,0-3.35-3.39"/><path class="a" d="M118.21,88.19a3.39,3.39,0,0,0,0,6.77h0a3.39,3.39,0,0,0,0-6.77"/><path class="a" d="M111.48,88.19a3.39,3.39,0,1,0,3.35,3.42v0a3.39,3.39,0,0,0-3.35-3.39"/><path class="a" d="M104.71,81.46a3.39,3.39,0,1,0,3.38,3.38,3.38,3.38,0,0,0-3.38-3.38"/><path class="a" d="M97.82,81.46a3.39,3.39,0,1,0,3.35,3.42v0a3.38,3.38,0,0,0-3.35-3.38"/><path class="a" d="M118.21,81.46a3.39,3.39,0,1,0,3.39,3.38,3.38,3.38,0,0,0-3.39-3.38"/><path class="a" d="M111.48,81.46a3.39,3.39,0,1,0,3.35,3.42v0a3.39,3.39,0,0,0-3.35-3.38"/><path class="a" d="M104.71,74.68a3.39,3.39,0,1,0,3.38,3.38,3.39,3.39,0,0,0-3.38-3.38"/><path class="a" d="M97.82,74.68a3.39,3.39,0,1,0,3.35,3.43v0a3.4,3.4,0,0,0-3.35-3.39"/><path class="a" d="M118.21,74.68a3.39,3.39,0,0,0,0,6.78h0a3.39,3.39,0,0,0,0-6.78"/><path class="a" d="M111.48,74.68a3.39,3.39,0,1,0,3.35,3.43v0a3.4,3.4,0,0,0-3.35-3.39"/><path class="a" d="M104.71,68a3.39,3.39,0,1,0,3.38,3.38A3.38,3.38,0,0,0,104.71,68"/><path class="a" d="M97.82,68a3.39,3.39,0,1,0,3.35,3.42v0A3.38,3.38,0,0,0,97.82,68"/><path class="a" d="M118.21,68a3.39,3.39,0,1,0,3.39,3.38A3.38,3.38,0,0,0,118.21,68"/><path class="a" d="M111.48,68a3.39,3.39,0,1,0,3.35,3.42v0A3.39,3.39,0,0,0,111.48,68"/><path class="a" d="M104.71,61.18a3.39,3.39,0,1,0,3.38,3.38,3.39,3.39,0,0,0-3.38-3.38"/><path class="a" d="M97.82,61.18a3.39,3.39,0,1,0,3.35,3.42v0a3.38,3.38,0,0,0-3.35-3.38"/><path class="a" d="M118.21,61.18a3.39,3.39,0,0,0,0,6.77h0a3.39,3.39,0,0,0,0-6.77"/><path class="a" d="M111.48,61.18a3.39,3.39,0,1,0,3.35,3.42v0a3.39,3.39,0,0,0-3.35-3.38"/><path class="a" d="M104.71,54.44a3.39,3.39,0,1,0,3.38,3.39,3.39,3.39,0,0,0-3.38-3.39"/><path class="a" d="M97.82,54.44a3.39,3.39,0,1,0,3.35,3.43v0a3.38,3.38,0,0,0-3.35-3.39"/><path class="a" d="M118.21,54.44a3.39,3.39,0,1,0,3.39,3.39,3.38,3.38,0,0,0-3.39-3.39"/><path class="a" d="M111.48,54.44a3.39,3.39,0,1,0,3.35,3.43v0a3.39,3.39,0,0,0-3.35-3.39"/><path class="a" d="M104.71,47.67a3.39,3.39,0,1,0,3.38,3.39,3.39,3.39,0,0,0-3.38-3.39"/><path class="a" d="M97.82,47.67a3.39,3.39,0,1,0,3.35,3.42v0a3.38,3.38,0,0,0-3.35-3.39"/><path class="a" d="M118.21,47.67a3.39,3.39,0,1,0,3.39,3.39,3.38,3.38,0,0,0-3.39-3.39"/><path class="a" d="M111.48,47.67a3.39,3.39,0,1,0,3.35,3.42v0a3.39,3.39,0,0,0-3.35-3.39"/><path class="a" d="M104.71,40.94a3.39,3.39,0,1,0,3.38,3.38v0a3.38,3.38,0,0,0-3.38-3.34"/><path class="a" d="M97.82,40.94a3.39,3.39,0,1,0,3.35,3.42v-.08a3.34,3.34,0,0,0-3.35-3.34"/><path class="a" d="M118.21,40.94a3.39,3.39,0,1,0,3.39,3.38v0a3.38,3.38,0,0,0-3.39-3.34"/><path class="a" d="M111.48,40.94a3.39,3.39,0,1,0,3.35,3.42v-.08a3.34,3.34,0,0,0-3.35-3.34"/><path class="a" d="M104.71,34.16a3.39,3.39,0,1,0,3.38,3.39,3.39,3.39,0,0,0-3.38-3.39"/><path class="a" d="M97.82,34.16a3.39,3.39,0,1,0,3.35,3.43v0a3.38,3.38,0,0,0-3.35-3.39"/><path class="a" d="M118.21,34.16a3.39,3.39,0,1,0,3.39,3.39,3.38,3.38,0,0,0-3.39-3.39"/><path class="a" d="M111.48,34.16a3.39,3.39,0,1,0,3.35,3.43v0a3.39,3.39,0,0,0-3.35-3.39"/><path class="a" d="M104.71,27.43a3.39,3.39,0,1,0,3.38,3.38v0a3.38,3.38,0,0,0-3.38-3.35"/><path class="a" d="M97.82,27.43a3.39,3.39,0,1,0,3.35,3.42v-.07a3.35,3.35,0,0,0-3.35-3.35"/><path class="a" d="M118.21,27.43a3.39,3.39,0,1,0,3.39,3.38v0a3.38,3.38,0,0,0-3.39-3.35"/><path class="a" d="M111.48,27.43a3.39,3.39,0,1,0,3.35,3.42v-.07a3.35,3.35,0,0,0-3.35-3.35"/><path class="a" d="M104.71,20.66A3.39,3.39,0,1,0,108.09,24a3.38,3.38,0,0,0-3.38-3.38"/><path class="a" d="M97.82,20.66a3.39,3.39,0,1,0,3.35,3.42v0a3.38,3.38,0,0,0-3.35-3.38"/><path class="a" d="M118.21,20.66A3.39,3.39,0,1,0,121.6,24a3.38,3.38,0,0,0-3.39-3.38"/><path class="a" d="M111.48,20.66a3.39,3.39,0,1,0,3.35,3.42v0a3.39,3.39,0,0,0-3.35-3.38"/><path class="a" d="M104.71,13.88a3.39,3.39,0,0,0,0,6.78h0a3.39,3.39,0,0,0,0-6.78"/><path class="a" d="M97.82,13.88a3.39,3.39,0,1,0,3.35,3.43v0a3.4,3.4,0,0,0-3.35-3.39"/><path class="a" d="M118.21,13.88a3.39,3.39,0,1,0,3.39,3.39,3.38,3.38,0,0,0-3.39-3.39"/><path class="a" d="M111.48,13.88a3.39,3.39,0,1,0,3.35,3.43v0a3.4,3.4,0,0,0-3.35-3.39"/><path class="a" d="M70.92,128.75a3.35,3.35,0,1,0,.08,0Z"/><path class="a" d="M77.69,122a3.39,3.39,0,1,0,3.39,3.38A3.38,3.38,0,0,0,77.69,122"/><path class="a" d="M70.92,122a3.39,3.39,0,1,0,3.39,3.38A3.38,3.38,0,0,0,70.92,122"/><path class="a" d="M77.69,115.24a3.39,3.39,0,1,0,3.39,3.39v0a3.35,3.35,0,0,0-3.35-3.35Z"/><path class="a" d="M70.92,115.24a3.39,3.39,0,1,0,3.39,3.39v0A3.35,3.35,0,0,0,71,115.24Z"/><path class="a" d="M84.43,115.24a3.39,3.39,0,1,0,3.38,3.39v0a3.35,3.35,0,0,0-3.35-3.35Z"/><path class="a" d="M77.69,108.47a3.39,3.39,0,1,0,3.38,3.38,3.38,3.38,0,0,0-3.38-3.38"/><path class="a" d="M70.92,108.47a3.39,3.39,0,1,0,3.39,3.39A3.36,3.36,0,0,0,71,108.47h-.08"/><path class="a" d="M91.2,108.47a3.39,3.39,0,1,0,3.38,3.38,3.39,3.39,0,0,0-3.38-3.38"/><path class="a" d="M84.43,108.47a3.39,3.39,0,1,0,3.38,3.39,3.35,3.35,0,0,0-3.31-3.39h-.07"/><path class="a" d="M77.69,34.16a3.39,3.39,0,1,0,3.39,3.39,3.38,3.38,0,0,0-3.39-3.39"/><path class="a" d="M70.92,34.16a3.39,3.39,0,1,0,3.39,3.39A3.36,3.36,0,0,0,71,34.16h-.08"/><path class="a" d="M91.2,34.16a3.39,3.39,0,1,0,3.39,3.39,3.39,3.39,0,0,0-3.39-3.39"/><path class="a" d="M84.43,34.16a3.39,3.39,0,1,0,3.38,3.39,3.35,3.35,0,0,0-3.31-3.39h-.07"/><path class="a" d="M77.69,27.43a3.39,3.39,0,1,0,3.39,3.38v0a3.35,3.35,0,0,0-3.35-3.35Z"/><path class="a" d="M70.92,27.43a3.39,3.39,0,1,0,3.39,3.38v0A3.35,3.35,0,0,0,71,27.43Z"/><path class="a" d="M91.2,27.43a3.39,3.39,0,1,0,3.39,3.38v0a3.35,3.35,0,0,0-3.35-3.35Z"/><path class="a" d="M84.43,27.43a3.39,3.39,0,1,0,3.38,3.38v0a3.35,3.35,0,0,0-3.35-3.35Z"/><path class="a" d="M77.69,20.66A3.39,3.39,0,1,0,81.08,24a3.38,3.38,0,0,0-3.39-3.38"/><path class="a" d="M70.92,20.66A3.39,3.39,0,1,0,74.31,24,3.35,3.35,0,0,0,71,20.66Z"/><path class="a" d="M91.2,20.66A3.39,3.39,0,1,0,94.59,24a3.38,3.38,0,0,0-3.39-3.38"/><path class="a" d="M84.43,20.66A3.39,3.39,0,1,0,87.81,24a3.34,3.34,0,0,0-3.31-3.38Z"/><path class="a" d="M77.69,13.88a3.39,3.39,0,1,0,3.39,3.39,3.38,3.38,0,0,0-3.39-3.39"/><path class="a" d="M70.92,13.88a3.39,3.39,0,1,0,3.39,3.39,3.39,3.39,0,0,0-3.39-3.39"/><path class="a" d="M91.2,13.88a3.39,3.39,0,1,0,3.39,3.39,3.39,3.39,0,0,0-3.39-3.39"/><path class="a" d="M84.43,13.88a3.39,3.39,0,1,0,3.38,3.39,3.39,3.39,0,0,0-3.38-3.39"/><path class="a" d="M50.68,128.75A3.39,3.39,0,1,0,54,132.17v0a3.39,3.39,0,0,0-3.35-3.38"/><path class="a" d="M43.91,128.75a3.39,3.39,0,1,0,3.38,3.38,3.38,3.38,0,0,0-3.38-3.38"/><path class="a" d="M64.19,128.75a3.39,3.39,0,1,0,3.38,3.38,3.38,3.38,0,0,0-3.38-3.38"/><path class="a" d="M57.41,128.75a3.39,3.39,0,1,0,3.39,3.38,3.38,3.38,0,0,0-3.39-3.38"/><path class="a" d="M50.68,122A3.39,3.39,0,1,0,54,125.4v0A3.39,3.39,0,0,0,50.68,122"/><path class="a" d="M43.91,122a3.39,3.39,0,0,0,0,6.77h0a3.39,3.39,0,1,0,0-6.77Z"/><path class="a" d="M64.19,122a3.39,3.39,0,1,0,3.38,3.38A3.38,3.38,0,0,0,64.19,122"/><path class="a" d="M57.41,122a3.39,3.39,0,1,0,3.39,3.39A3.38,3.38,0,0,0,57.41,122Z"/><path class="a" d="M50.68,115.24A3.39,3.39,0,1,0,54,118.67v-.08a3.35,3.35,0,0,0-3.35-3.35"/><path class="a" d="M43.91,115.24a3.39,3.39,0,1,0,3.38,3.39v0a3.39,3.39,0,0,0-3.38-3.35"/><path class="a" d="M64.19,115.24a3.39,3.39,0,1,0,3.38,3.39v0a3.35,3.35,0,0,0-3.35-3.35Z"/><path class="a" d="M57.41,115.24a3.39,3.39,0,1,0,3.39,3.39v0a3.39,3.39,0,0,0-3.39-3.35"/><path class="a" d="M50.68,108.47A3.39,3.39,0,1,0,54,111.89v0a3.39,3.39,0,0,0-3.35-3.39"/><path class="a" d="M43.91,108.47a3.39,3.39,0,1,0,3.38,3.39,3.39,3.39,0,0,0-3.38-3.39"/><path class="a" d="M64.19,108.47a3.39,3.39,0,1,0,3.38,3.38,3.39,3.39,0,0,0-3.38-3.38"/><path class="a" d="M57.41,108.47a3.39,3.39,0,1,0,3.39,3.39,3.38,3.38,0,0,0-3.39-3.39"/><path class="a" d="M50.68,34.16A3.39,3.39,0,1,0,54,37.59v0a3.39,3.39,0,0,0-3.35-3.39"/><path class="a" d="M43.91,34.16a3.39,3.39,0,1,0,3.38,3.39,3.39,3.39,0,0,0-3.38-3.39"/><path class="a" d="M64.19,34.16a3.39,3.39,0,1,0,3.38,3.39,3.39,3.39,0,0,0-3.38-3.39"/><path class="a" d="M57.41,34.16a3.39,3.39,0,1,0,3.39,3.39,3.38,3.38,0,0,0-3.39-3.39"/><path class="a" d="M50.68,27.43A3.39,3.39,0,1,0,54,30.85v-.07a3.35,3.35,0,0,0-3.35-3.35"/><path class="a" d="M43.91,27.43a3.39,3.39,0,1,0,3.38,3.38v0a3.38,3.38,0,0,0-3.38-3.35"/><path class="a" d="M64.19,27.43a3.39,3.39,0,1,0,3.38,3.38v0a3.35,3.35,0,0,0-3.35-3.35Z"/><path class="a" d="M57.41,27.43a3.39,3.39,0,1,0,3.39,3.38v0a3.38,3.38,0,0,0-3.39-3.35"/><path class="a" d="M50.68,20.66A3.39,3.39,0,1,0,54,24.08v0a3.39,3.39,0,0,0-3.35-3.38"/><path class="a" d="M43.91,20.66A3.39,3.39,0,1,0,47.29,24a3.38,3.38,0,0,0-3.38-3.38"/><path class="a" d="M64.19,20.66A3.39,3.39,0,1,0,67.57,24a3.38,3.38,0,0,0-3.38-3.38"/><path class="a" d="M57.41,20.66A3.39,3.39,0,1,0,60.8,24a3.38,3.38,0,0,0-3.39-3.38"/><path class="a" d="M50.68,13.88A3.39,3.39,0,1,0,54,17.31v0a3.4,3.4,0,0,0-3.35-3.39"/><path class="a" d="M43.91,13.88a3.39,3.39,0,0,0,0,6.78h0a3.39,3.39,0,0,0,0-6.78"/><path class="a" d="M64.19,13.88a3.39,3.39,0,1,0,3.38,3.39,3.39,3.39,0,0,0-3.38-3.39"/><path class="a" d="M57.41,13.88a3.39,3.39,0,0,0,0,6.78h0a3.39,3.39,0,1,0,0-6.78"/><path class="a" d="M23.63,128.75A3.39,3.39,0,1,0,27,132.13a3.34,3.34,0,0,0-3.31-3.38Z"/><path class="a" d="M37.17,128.75a3.39,3.39,0,1,0,3.35,3.42v0a3.38,3.38,0,0,0-3.35-3.38"/><path class="a" d="M30.4,128.75a3.39,3.39,0,1,0,3.39,3.38,3.38,3.38,0,0,0-3.39-3.38"/><path class="a" d="M23.63,122A3.39,3.39,0,1,0,27,125.36,3.38,3.38,0,0,0,23.63,122"/><path class="a" d="M16.89,122a3.39,3.39,0,1,0,3.39,3.38A3.38,3.38,0,0,0,16.89,122"/><path class="a" d="M37.17,122a3.39,3.39,0,1,0,3.35,3.42v0A3.38,3.38,0,0,0,37.17,122"/><path class="a" d="M30.4,122a3.39,3.39,0,1,0,3.39,3.38A3.38,3.38,0,0,0,30.4,122"/><path class="a" d="M23.63,115.24A3.39,3.39,0,1,0,27,118.63v0a3.35,3.35,0,0,0-3.34-3.35Z"/><path class="a" d="M16.89,115.24a3.39,3.39,0,1,0,3.39,3.39v0a3.35,3.35,0,0,0-3.35-3.35Z"/><path class="a" d="M37.17,115.24a3.39,3.39,0,1,0,3.35,3.43v-.08a3.35,3.35,0,0,0-3.35-3.35"/><path class="a" d="M30.4,115.24a3.39,3.39,0,1,0,3.39,3.39v0a3.35,3.35,0,0,0-3.35-3.35Z"/><path class="a" d="M23.63,108.47A3.39,3.39,0,1,0,27,111.86a3.34,3.34,0,0,0-3.31-3.39h-.07"/><path class="a" d="M16.89,108.47a3.39,3.39,0,1,0,3.39,3.39,3.38,3.38,0,0,0-3.39-3.39Z"/><path class="a" d="M37.17,108.47a3.39,3.39,0,1,0,3.35,3.42v0a3.38,3.38,0,0,0-3.35-3.39"/><path class="a" d="M30.4,108.47a3.39,3.39,0,1,0,3.39,3.39,3.39,3.39,0,0,0-3.39-3.39Z"/><path class="a" d="M23.63,101.58A3.39,3.39,0,1,0,27,105v0a3.35,3.35,0,0,0-3.34-3.35h0"/><path class="a" d="M16.89,101.58A3.39,3.39,0,1,0,20.28,105v0a3.35,3.35,0,0,0-3.35-3.35h0"/><path class="a" d="M23.63,95A3.39,3.39,0,1,0,27,98.35,3.34,3.34,0,0,0,23.7,95h-.07"/><path class="a" d="M16.89,95a3.39,3.39,0,1,0,3.38,3.38A3.38,3.38,0,0,0,16.89,95"/><path class="a" d="M23.63,88.19A3.39,3.39,0,1,0,27,91.58a3.39,3.39,0,0,0-3.38-3.39"/><path class="a" d="M16.89,88.19a3.39,3.39,0,1,0,3.39,3.39,3.38,3.38,0,0,0-3.39-3.39"/><path class="a" d="M23.63,81.46A3.39,3.39,0,1,0,27,84.84a3.34,3.34,0,0,0-3.31-3.38h-.07"/><path class="a" d="M16.89,81.46a3.39,3.39,0,1,0,3.39,3.38,3.38,3.38,0,0,0-3.39-3.38"/><path class="a" d="M23.63,74.68A3.39,3.39,0,1,0,27,78.07a3.39,3.39,0,0,0-3.38-3.39"/><path class="a" d="M16.89,74.68a3.39,3.39,0,1,0,3.39,3.39,3.38,3.38,0,0,0-3.39-3.39"/><path class="a" d="M23.63,68A3.39,3.39,0,1,0,27,71.33,3.34,3.34,0,0,0,23.7,68Z"/><path class="a" d="M16.89,68a3.39,3.39,0,1,0,3.39,3.38A3.38,3.38,0,0,0,16.89,68"/><path class="a" d="M23.63,61.18A3.39,3.39,0,1,0,27,64.56a3.38,3.38,0,0,0-3.38-3.38"/><path class="a" d="M16.89,61.18a3.39,3.39,0,1,0,3.39,3.38,3.38,3.38,0,0,0-3.39-3.38"/><path class="a" d="M23.63,54.44A3.39,3.39,0,1,0,27,57.83a3.34,3.34,0,0,0-3.31-3.39Z"/><path class="a" d="M16.89,54.44a3.39,3.39,0,1,0,3.39,3.39,3.38,3.38,0,0,0-3.39-3.39"/><path class="a" d="M23.63,47.67A3.39,3.39,0,1,0,27,51.06a3.34,3.34,0,0,0-3.31-3.39h-.07"/><path class="a" d="M16.89,47.67a3.39,3.39,0,1,0,0,6.77h0a3.39,3.39,0,1,0,0-6.77"/><path class="a" d="M23.63,40.94A3.39,3.39,0,1,0,27,44.32v0a3.34,3.34,0,0,0-3.34-3.34h0"/><path class="a" d="M16.89,40.94a3.39,3.39,0,1,0,3.39,3.38v0a3.34,3.34,0,0,0-3.35-3.34h0"/><path class="a" d="M23.63,34.16A3.39,3.39,0,1,0,27,37.55a3.34,3.34,0,0,0-3.31-3.39h-.07"/><path class="a" d="M37.17,34.16a3.39,3.39,0,1,0,3.35,3.43v0a3.38,3.38,0,0,0-3.35-3.39"/><path class="a" d="M30.4,34.16a3.39,3.39,0,1,0,3.39,3.39,3.39,3.39,0,0,0-3.39-3.39"/><path class="a" d="M37.17,27.43a3.39,3.39,0,1,0,3.35,3.42v-.07a3.35,3.35,0,0,0-3.35-3.35"/><path class="a" d="M30.4,27.43a3.39,3.39,0,1,0,3.39,3.38v0a3.35,3.35,0,0,0-3.35-3.35Z"/><path class="a" d="M37.17,20.66a3.39,3.39,0,1,0,3.35,3.42v0a3.38,3.38,0,0,0-3.35-3.38"/><path class="a" d="M10.12,115.24a3.39,3.39,0,1,0,3.39,3.39v0a3.35,3.35,0,0,0-3.35-3.35Z"/><path class="a" d="M10.12,108.47a3.39,3.39,0,1,0,3.39,3.39,3.36,3.36,0,0,0-3.31-3.39h-.08"/><path class="a" d="M3.39,108.47a3.39,3.39,0,1,0,3.38,3.38,3.39,3.39,0,0,0-3.38-3.38"/><path class="a" d="M10.12,101.58A3.39,3.39,0,1,0,13.51,105v0a3.35,3.35,0,0,0-3.35-3.35h0"/><path class="a" d="M3.39,101.58A3.39,3.39,0,1,0,6.77,105v0a3.35,3.35,0,0,0-3.35-3.35h0"/><path class="a" d="M10.12,95a3.39,3.39,0,1,0,3.39,3.39A3.36,3.36,0,0,0,10.2,95h-.08"/><path class="a" d="M3.39,95a3.38,3.38,0,0,0,0,6.62,3.39,3.39,0,0,0,0-6.77Z"/><path class="a" d="M10.12,88.19a3.39,3.39,0,1,0,3.39,3.39,3.39,3.39,0,0,0-3.39-3.39"/><path class="a" d="M3.39,88.19a3.39,3.39,0,1,0,3.38,3.39,3.42,3.42,0,0,0-3.38-3.39"/><path class="a" d="M10.12,81.46a3.39,3.39,0,1,0,3.39,3.38,3.35,3.35,0,0,0-3.31-3.38h-.08"/><path class="a" d="M3.39,81.46a3.39,3.39,0,1,0,3.38,3.38,3.38,3.38,0,0,0-3.38-3.38"/><path class="a" d="M10.12,74.68a3.39,3.39,0,1,0,3.39,3.39,3.39,3.39,0,0,0-3.39-3.39"/><path class="a" d="M3.39,74.68a3.39,3.39,0,1,0,3.38,3.39,3.43,3.43,0,0,0-3.38-3.39"/><path class="a" d="M10.12,68a3.35,3.35,0,1,0,.08,0Z"/><path class="a" d="M3.39,68a3.39,3.39,0,1,0,3.38,3.38A3.38,3.38,0,0,0,3.39,68"/><path class="a" d="M10.12,61.18a3.39,3.39,0,1,0,3.39,3.38,3.38,3.38,0,0,0-3.39-3.38"/><path class="a" d="M3.39,61.18a3.39,3.39,0,1,0,3.38,3.38,3.38,3.38,0,0,0-3.38-3.38"/><path class="a" d="M10.12,54.44a3.39,3.39,0,1,0,3.39,3.39,3.36,3.36,0,0,0-3.31-3.39Z"/><path class="a" d="M3.39,54.44a3.39,3.39,0,1,0,3.38,3.39,3.39,3.39,0,0,0-3.38-3.39"/><path class="a" d="M10.12,47.67a3.39,3.39,0,1,0,3.39,3.39,3.36,3.36,0,0,0-3.31-3.39h-.08"/><path class="a" d="M315.13,137.21a41.81,41.81,0,0,1-17.68-3.76A34.74,34.74,0,0,1,284,122.8v12.64H264.6V0h19.61V55.19a37.7,37.7,0,0,1,13.24-10.38A39.74,39.74,0,0,1,315,41.05a46.65,46.65,0,0,1,17.42,3.31A44.71,44.71,0,0,1,347.08,54,47.64,47.64,0,0,1,357.27,69,50.31,50.31,0,0,1,361,89a49.36,49.36,0,0,1-3.76,20,47.21,47.21,0,0,1-10.27,15,46.39,46.39,0,0,1-14.63,9.63,44.6,44.6,0,0,1-17.24,3.5M312.27,119a28.68,28.68,0,0,0,11.29-2.41,28.83,28.83,0,0,0,15.54-16,31.89,31.89,0,0,0,2.22-11.86A31.19,31.19,0,0,0,339.1,77a29.7,29.7,0,0,0-6.1-9.3,29.13,29.13,0,0,0-20.73-8.84,27.89,27.89,0,0,0-11.55,2.41,29.71,29.71,0,0,0-9.29,6.43,30.07,30.07,0,0,0-6.09,9.56,30.66,30.66,0,0,0-2.22,11.55,31.09,31.09,0,0,0,2.22,11.78,29.44,29.44,0,0,0,15.27,16A27.74,27.74,0,0,0,312.27,119"/><path class="a" d="M463,133.79a46.26,46.26,0,0,1-14.6-9.63,47,47,0,0,1-10.3-15,50,50,0,0,1-3.77-20,50.52,50.52,0,0,1,3.77-20,46.45,46.45,0,0,1,10.19-15,44.19,44.19,0,0,1,14.49-9.81,46.42,46.42,0,0,1,17.38-3.32,39.43,39.43,0,0,1,17.49,3.77,37.62,37.62,0,0,1,13.25,10.38V.19h19.64V135.44H511.07V122.77a34.74,34.74,0,0,1-13.43,10.64A41.91,41.91,0,0,1,480,137.18a44.91,44.91,0,0,1-17-3.39m31.68-17.16a29.83,29.83,0,0,0,15.28-16,31.48,31.48,0,0,0,2.22-11.78,30.58,30.58,0,0,0-8.36-21.11,30,30,0,0,0-9.14-6.47,28,28,0,0,0-11.59-2.41,29.34,29.34,0,0,0-27,18.44A30.47,30.47,0,0,0,453.85,89a31,31,0,0,0,2.22,11.85,28.17,28.17,0,0,0,6.21,9.63,28.68,28.68,0,0,0,20.8,8.69,27.9,27.9,0,0,0,11.59-2.56"/><path class="a" d="M374.58,40.94h19.83V55.19a26.36,26.36,0,0,1,10-10.57A30.14,30.14,0,0,1,420,40.86H430.9V59.67H417c-8.13,0-13.92,2.22-17.31,6.66s-5.08,11.51-5.08,21.15v47.85h-20Z"/><path class="a" d="M592,61.44a27.38,27.38,0,0,1,27.35,27.35v46.66H639.9V88.79a47.86,47.86,0,0,0-95.72-.07v46.73h20.51V88.79A27.38,27.38,0,0,1,592,61.44"/><path class="a" d="M247.37,70.09a48,48,0,0,0-10.12-15.31,46.69,46.69,0,0,0-15.05-10.2,48.52,48.52,0,0,0-52.9,10.2A46.8,46.8,0,0,0,159,70.09a50.76,50.76,0,0,0,0,38,47.74,47.74,0,0,0,44.17,29.09,37.14,37.14,0,0,0,16.59-3.77,33.35,33.35,0,0,0,12.15-10.12v12.16H251.4V89.09a48.2,48.2,0,0,0-4-19M229.5,100.72a29.6,29.6,0,0,1-6.21,9.59A29.06,29.06,0,0,1,202.45,119a27.83,27.83,0,0,1-11.55-2.41,29.53,29.53,0,0,1-9.18-6.47,29.91,29.91,0,0,1-6.09-9.55,30.29,30.29,0,0,1-2.22-11.74,29.88,29.88,0,0,1,2.22-11.59,29.49,29.49,0,0,1,15.27-16,27.83,27.83,0,0,1,11.55-2.41,28.5,28.5,0,0,1,11.29,2.34,28.89,28.89,0,0,1,9.55,6.54,29.59,29.59,0,0,1,6.21,9.37,31.09,31.09,0,0,1,2.22,11.78,31.8,31.8,0,0,1-2.22,11.85"/></svg>