<svg xmlns="http://www.w3.org/2000/svg" viewBox="0 0 549.84 246.44"><defs><style>.a{fill:#24336b;}.b{fill:#fff;}.c{fill:#feca00;}</style></defs><rect class="a" x="181.61" y="211.9" width="174.26" height="174.26" transform="translate(-278.26 101.8) rotate(-45)"/><path class="b" d="M343.28,279.22a15.59,15.59,0,0,0-11.61-4.79h-1.59c-1.78,0-2.67,1.06-2.67,3.19v46.92q0,6.93,6.67,6.93h2.67v2.41h-30.4v-2.41H309q6.93,0,6.93-6.93V277.62q0-3.19-2.93-3.19h-1.33a15.54,15.54,0,0,0-11.6,4.79q-4.68,4.81-4.93,13.33h-2.4q-3.19-19.46-22.66-19.46A19.54,19.54,0,0,0,255.71,279Q248,287,248,302.68q0,14.4,6,22.13a19.38,19.38,0,0,0,16.13,7.73q8.52,0,13.06-3.2a3.57,3.57,0,0,0,1.6-3.2V311.75q0-6.94-6.66-6.94h-2.67v-2.39h29.32v2.39h-1.59c-4.63,0-6.93,2.31-6.93,6.94v14.92q-10.39,8.54-26.66,8.54-18.13,0-28-13.87v12.54H191.46v-2.41h2.93q6.39,0,6.39-7.19V281.36c0-4.63-2.13-6.93-6.39-6.93h-2.93v-2.67h31.19v2.67h-3.46q-6.94,0-6.94,6.39v46.39q0,4.26,4.53,4.26h5.07q15.19,0,17.06-14.13a32.33,32.33,0,0,1-3.46-14.66q0-14.4,9.73-23.33t24.39-8.93a41.13,41.13,0,0,1,13.06,2.14l7.72,2.67c1.42,0,2.23-1.16,2.41-3.47h57.58v20.79h-2.4q0-8.52-4.66-13.33" transform="translate(-145.52 -175.81)"/><path class="c" d="M296.41,245.4Q292.55,257,292.35,258H244.88q-2.46-8.13-4.16-12.68-3.78-11.53-3.79-14.18a12.26,12.26,0,0,1,5.31-10.6,15.39,15.39,0,0,1,9.26-3q7.58,0,16.08,5.68v15.69l1.14-.57.93.57V223.19q8.52-5.67,16.08-5.68a15.39,15.39,0,0,1,9.26,3,12.28,12.28,0,0,1,5.3,10.6c0,1.76-1.29,6.53-3.88,14.27" transform="translate(-145.52 -175.81)"/><path class="a" d="M293.1,223.56a11.56,11.56,0,0,0-7.18-2.45,22.21,22.21,0,0,0-12.47,4.16v15.32l4,1.89,8.69-4.17,7.76,3.79q2.83-7.18,2.84-11a9.49,9.49,0,0,0-3.6-7.57" transform="translate(-145.52 -175.81)"/><path class="a" d="M251.5,221.11a11.87,11.87,0,0,0-7.38,2.45,9.7,9.7,0,0,0-3.4,7.57q0,3.78,2.64,11l7.76-3.78,8.89,4.16,3.78-1.89V225.26a22.13,22.13,0,0,0-12.29-4.15" transform="translate(-145.52 -175.81)"/><path class="a" d="M277.41,246.63l-8.69-4.15L260,246.63l-8.89-4.15-6.43,3a66.32,66.32,0,0,1,2.84,8.89h42.36a47.94,47.94,0,0,1,2.64-8.89l-6.42-3Z" transform="translate(-145.52 -175.81)"/><polygon class="c" points="125.27 43.4 120.92 43.4 120.92 39.81 117.71 39.81 117.71 35.65 120.92 35.65 120.92 32.05 125.27 32.05 125.27 35.65 128.48 35.65 128.48 39.81 125.27 39.81 125.27 43.4"/><polygon class="a" points="304.19 112.22 317 112.22 328.39 145.59 328.57 145.59 339.6 112.22 351.52 112.22 334.62 158.06 321.18 158.06 304.19 112.22"/><path class="a" d="M538.79,331.28c-4.37,2.41-9.35,3.65-15.75,3.65-15.13,0-23.94-8.72-23.94-23.76,0-13.26,7-24.2,21.27-24.2,17,0,21.8,11.66,21.8,27.67H510.49c.53,7.39,5.7,11.57,13.08,11.57,5.78,0,10.77-2.13,15.22-4.63Zm-8-24.82c-.36-5.78-3-10.77-9.7-10.77s-10.06,4.63-10.59,10.77Z" transform="translate(-145.52 -175.81)"/><path class="a" d="M578.52,297.65a29.17,29.17,0,0,0-10.68-2c-3.21,0-7,1.16-7,5.07,0,7.3,20.73,2.67,20.73,19.22,0,10.68-9.52,14.95-19.22,14.95a52.78,52.78,0,0,1-13.52-2l.71-9.78a26.13,26.13,0,0,0,11.74,3c3,0,7.84-1.15,7.84-5.6,0-9-20.74-2.85-20.74-19.4,0-9.88,8.63-14.24,18-14.24a55,55,0,0,1,13,1.69Z" transform="translate(-145.52 -175.81)"/><path class="a" d="M594.14,296.76h-8.81V288h8.81v-9.17l11.92-3.82v13h10.59v8.72H606.06v21.36c0,3.91,1.07,7.56,5.61,7.56a10.52,10.52,0,0,0,5.42-1.25l.37,9.44a31.59,31.59,0,0,1-8.82,1.06c-9.34,0-14.5-5.78-14.5-14.86Z" transform="translate(-145.52 -175.81)"/><path class="a" d="M624.6,288h10.6v10.41h.17c.54-4.27,5.43-11.48,12.55-11.48a12.82,12.82,0,0,1,3.64.36v12a12.14,12.14,0,0,0-5.33-1c-9.7,0-9.7,12.1-9.7,18.69v16.82H624.6Z" transform="translate(-145.52 -175.81)"/><path class="a" d="M659,290.44A41.07,41.07,0,0,1,674.9,287c14,0,19.75,5.78,19.75,19.31v5.87c0,4.63.09,8.1.18,11.48s.26,6.68.53,10.24h-10.5a59.56,59.56,0,0,1-.54-6.86h-.17c-2.76,5.07-8.72,7.92-14.15,7.92-8.1,0-16-4.89-16-13.61,0-6.85,3.29-10.86,7.83-13.08s10.42-2.67,15.39-2.67h6.59c0-7.39-3.29-9.88-10.32-9.88a24,24,0,0,0-14.15,5Zm14,35.77a10.12,10.12,0,0,0,8.36-4.09c2-2.58,2.49-5.87,2.49-9.43h-5.16c-5.34,0-13.26.89-13.26,7.92,0,3.91,3.3,5.6,7.57,5.6" transform="translate(-145.52 -175.81)"/></svg>