<svg xmlns="http://www.w3.org/2000/svg" viewBox="0 0 741.69 182.21"><defs><style>.a{fill:#9073b1;}.b{fill:#94c468;}</style></defs><path class="a" d="M95.68,82.27A48,48,0,0,0,79.41,69.18a53,53,0,0,0-24.09-5,56.61,56.61,0,0,0-22.1,4.29A53.13,53.13,0,0,0,15.68,80.34,55.3,55.3,0,0,0,4.17,98.17,58.63,58.63,0,0,0,0,120.34a62.84,62.84,0,0,0,3.82,22.1,52.88,52.88,0,0,0,11,17.87,50.15,50.15,0,0,0,17.47,11.92,59,59,0,0,0,22.84,4.29c20.12,0,36-7.37,47.23-21.88l1.7-2.19L85.12,138l-1.69,2.09a47.77,47.77,0,0,1-11.56,10.45,26.25,26.25,0,0,1-14.19,3.76,36.67,36.67,0,0,1-12-2,32.37,32.37,0,0,1-10.09-5.53,27.49,27.49,0,0,1-6.93-8.49,22.21,22.21,0,0,1-2.43-8.07h81.38v-9.62a74.71,74.71,0,0,0-2.78-20.17,51.59,51.59,0,0,0-9.18-18.12M26.29,109.21a25,25,0,0,1,1.86-6.56,29.69,29.69,0,0,1,5.78-8.74,29.12,29.12,0,0,1,9.13-6.35,32.19,32.19,0,0,1,23.55-.39,22.47,22.47,0,0,1,8.14,5.54,23.21,23.21,0,0,1,4.88,8.35,36.06,36.06,0,0,1,1.71,8.15Z"/><path class="a" d="M216.89,80.85a51,51,0,0,0-17.23-11.91,56.76,56.76,0,0,0-22.43-4.3,50.16,50.16,0,0,0-21.78,4.88,40.87,40.87,0,0,0-11.29,7.83V.31H119.33V174.42h24.83V164.15A41.12,41.12,0,0,0,156,172.24,50.19,50.19,0,0,0,177.23,177a56.76,56.76,0,0,0,22.43-4.3,50,50,0,0,0,17.24-12,54.3,54.3,0,0,0,11-17.85,62,62,0,0,0,3.82-22,63.1,63.1,0,0,0-3.81-22.1,53.23,53.23,0,0,0-11-17.87m-42,7.33a32.33,32.33,0,0,1,12.85,2.45,28.49,28.49,0,0,1,9.59,6.64,29.64,29.64,0,0,1,6.07,10.22,41.53,41.53,0,0,1,0,26.66,29.35,29.35,0,0,1-6.07,10.21,28,28,0,0,1-9.59,6.64A34.92,34.92,0,0,1,162,151a28,28,0,0,1-9.58-6.64,29.35,29.35,0,0,1-6.07-10.21,41.39,41.39,0,0,1,0-26.66,29.23,29.23,0,0,1,6.08-10.21A28.07,28.07,0,0,1,162,90.64a32.17,32.17,0,0,1,12.85-2.46"/><rect class="a" x="239.11" y="67.22" width="24.83" height="107.21"/><path class="a" d="M251.52,48.69a16.39,16.39,0,0,0,11.93-5A16.75,16.75,0,0,0,263.62,20l-.17-.17a16.75,16.75,0,0,0-23.68-.17l-.17.17a16.73,16.73,0,0,0-.18,23.67l.18.19a16.33,16.33,0,0,0,11.92,5"/><path class="b" d="M429.93,55.91,406,79.86h0L395.49,90.31a.1.1,0,0,0,0,.13.09.09,0,0,0,.11,0,28.48,28.48,0,0,1,12.69-3l72.1,0V47.57H450.06a28.47,28.47,0,0,0-20.13,8.34"/><path class="b" d="M476.43,135.05h0a70.84,70.84,0,0,0,3.84-19.59V95.23l-77.82,0a28.49,28.49,0,0,0-20.14,8.34l-23.94,23.93h0L347.91,137.9a.08.08,0,0,0,0,.12s.08,0,.11,0a28.44,28.44,0,0,1,12.67-3Z"/><path class="b" d="M480.49,0H440.63V28.73a28.32,28.32,0,0,1-5,16,.09.09,0,0,0,0,.12.07.07,0,0,0,.1,0,28.48,28.48,0,0,1,16-5h28.74Z"/><path class="a" d="M424.72,50.7l-24,23.94v0L390.32,85.13a.09.09,0,0,1-.13,0s0-.07,0-.11a28.48,28.48,0,0,0,3-12.69l0-49.31A22.77,22.77,0,0,1,415.9.24h17.16V30.56a28.52,28.52,0,0,1-8.34,20.14"/><path class="a" d="M377.31,98.1,353.37,122v0l-10.46,10.46a.09.09,0,0,1-.12,0s0-.07,0-.11a28.34,28.34,0,0,0,3-12.68l0-49.32A22.78,22.78,0,0,1,368.5,47.64h17.15V78a28.47,28.47,0,0,1-8.34,20.13"/><path class="a" d="M298.3,64.67a22.78,22.78,0,0,1,22.77-22.79h17.14V125.4a28.46,28.46,0,0,1-8.33,20.13l-23.94,23.95-7.62,7.65Z"/><path class="b" d="M355.36,142.27a28.94,28.94,0,0,0-20.12,8.34L307.83,178a.09.09,0,0,0,0,.13.08.08,0,0,0,.11,0,79,79,0,0,1,75-2.33,62.42,62.42,0,0,0,27.77,6.37h1.78a65.77,65.77,0,0,0,23.2-4A69,69,0,0,0,474,142.27Z"/><path class="b" d="M536.92,43a12,12,0,0,1-4.64,3.81,14.7,14.7,0,0,1-5.86,1.09,12.42,12.42,0,0,1-5-1,11.17,11.17,0,0,1-3.76-2.65,11.71,11.71,0,0,1-2.37-3.93,14,14,0,0,1-.84-4.84,13.75,13.75,0,0,1,.92-5,11.66,11.66,0,0,1,2.52-3.93A11.33,11.33,0,0,1,521.73,24a12.62,12.62,0,0,1,4.85-.91,12.17,12.17,0,0,1,4.54.83,10,10,0,0,1,3.56,2.43A11,11,0,0,1,537,30.18a15.74,15.74,0,0,1,.81,5.22v1.26H518.71A8.52,8.52,0,0,0,521.08,42a7.31,7.31,0,0,0,2.37,1.64,7.09,7.09,0,0,0,3,.61,9.6,9.6,0,0,0,4.35-.9,9.76,9.76,0,0,0,3.17-2.68Zm-3.38-9.63a6.79,6.79,0,0,0-2-4.85,7.07,7.07,0,0,0-5.15-1.82,7.27,7.27,0,0,0-7.71,6.67Z"/><polygon class="b" points="558.41 47.26 554.08 47.26 544.44 23.65 549.03 23.65 556.39 42.16 556.5 42.16 563.51 23.65 567.75 23.65 558.41 47.26"/><path class="b" d="M575.21,14.41a2.82,2.82,0,0,1,.84-2,2.86,2.86,0,0,1,4.05,0l0,0a2.9,2.9,0,1,1-4,4.15,2.94,2.94,0,0,1-.88-2.14m.91,9.24h3.94V47.26h-3.94Z"/><path class="b" d="M611.29,43.07h-.1a9,9,0,0,1-3.51,3.41,11,11,0,0,1-5.57,1.39,11.7,11.7,0,0,1-4.64-.94,11.13,11.13,0,0,1-3.76-2.6,12,12,0,0,1-2.5-3.93,13.82,13.82,0,0,1,0-9.89,12.06,12.06,0,0,1,2.52-3.94,11.45,11.45,0,0,1,3.91-2.6,13.35,13.35,0,0,1,5.07-.92,10.54,10.54,0,0,1,4.72,1.05,11.85,11.85,0,0,1,3.76,3h.1v-18h3.93V47.26h-3.93Zm0-7.62a9.93,9.93,0,0,0-.58-3.45,7.94,7.94,0,0,0-4.34-4.64,9.09,9.09,0,0,0-6.91,0A7.94,7.94,0,0,0,595.12,32a10.62,10.62,0,0,0,0,6.91,8,8,0,0,0,4.34,4.64,9.09,9.09,0,0,0,6.91,0,8,8,0,0,0,4.34-4.64,9.94,9.94,0,0,0,.58-3.46"/><path class="b" d="M647.37,43a12,12,0,0,1-4.65,3.81,14.65,14.65,0,0,1-5.85,1.09,12.42,12.42,0,0,1-5-1,11.07,11.07,0,0,1-3.76-2.65,11.58,11.58,0,0,1-2.38-3.93,14,14,0,0,1-.83-4.84,13.53,13.53,0,0,1,.91-5,11.53,11.53,0,0,1,2.53-3.93A11,11,0,0,1,632.18,24,12.55,12.55,0,0,1,637,23a12.16,12.16,0,0,1,4.53.83,9.91,9.91,0,0,1,3.56,2.43,10.81,10.81,0,0,1,2.29,3.88,15.48,15.48,0,0,1,.81,5.22v1.26H629.16a8,8,0,0,0,.72,2.9A8.21,8.21,0,0,0,631.52,42a7.31,7.31,0,0,0,2.37,1.64,7.1,7.1,0,0,0,3,.61,9.56,9.56,0,0,0,4.34-.9,10,10,0,0,0,3.18-2.68ZM644,33.34a6.83,6.83,0,0,0-2-4.85,7.08,7.08,0,0,0-5.15-1.82,7.26,7.26,0,0,0-7.71,6.67Z"/><path class="b" d="M658.11,29.25c0-1.08,0-2.09-.1-3s-.1-1.8-.1-2.57h3.73c0,.64,0,1.28.05,1.92s.06,1.29.06,2h.09A6.8,6.8,0,0,1,663,25.87a7.76,7.76,0,0,1,1.74-1.44,9.83,9.83,0,0,1,2.27-1,9.68,9.68,0,0,1,2.73-.38,10.3,10.3,0,0,1,4,.71,7.36,7.36,0,0,1,2.8,2,7.88,7.88,0,0,1,1.65,3.05,14,14,0,0,1,.53,3.91V47.26h-3.94V33.08a7.55,7.55,0,0,0-1.32-4.69,4.83,4.83,0,0,0-4.08-1.72,7.64,7.64,0,0,0-3.3.66,5.74,5.74,0,0,0-2.27,1.87,8,8,0,0,0-1.31,2.87,14.82,14.82,0,0,0-.44,3.68V47.26h-3.93Z"/><path class="b" d="M706.75,29.55A7.88,7.88,0,0,0,704,27.36a7.31,7.31,0,0,0-3.22-.68,8.21,8.21,0,0,0-3.49.68,6.61,6.61,0,0,0-2.49,1.89,8.31,8.31,0,0,0-1.49,2.8,11.21,11.21,0,0,0-.51,3.4,9.91,9.91,0,0,0,.59,3.41,9,9,0,0,0,1.61,2.8,7.32,7.32,0,0,0,2.49,1.89,7.59,7.59,0,0,0,3.29.68,7,7,0,0,0,6-2.92l2.93,2.77a10.28,10.28,0,0,1-4,2.88,13.93,13.93,0,0,1-9.89,0,10.74,10.74,0,0,1-3.86-2.58,12.07,12.07,0,0,1-2.48-3.93,14.2,14.2,0,0,1-.88-5,13.87,13.87,0,0,1,.88-4.94,11.9,11.9,0,0,1,2.5-3.94,11.64,11.64,0,0,1,3.86-2.6,13,13,0,0,1,5-.93,13.67,13.67,0,0,1,5,.91,11,11,0,0,1,4.11,2.82Z"/><path class="b" d="M739.14,43a12,12,0,0,1-4.64,3.81,14.7,14.7,0,0,1-5.86,1.09,12.42,12.42,0,0,1-5-1,11.13,11.13,0,0,1-3.75-2.65,11.58,11.58,0,0,1-2.38-3.93,14.25,14.25,0,0,1-.84-4.84,13.35,13.35,0,0,1,.92-5,11.51,11.51,0,0,1,2.52-3.93A11.23,11.23,0,0,1,724,24,12.62,12.62,0,0,1,728.8,23a12.17,12.17,0,0,1,4.54.83,10,10,0,0,1,3.56,2.43,10.81,10.81,0,0,1,2.29,3.88A16,16,0,0,1,740,35.4v1.26H720.93A8.52,8.52,0,0,0,723.3,42a7.31,7.31,0,0,0,2.37,1.64,7.09,7.09,0,0,0,3,.61,9.54,9.54,0,0,0,4.34-.9,9.79,9.79,0,0,0,3.18-2.68Zm-3.38-9.63a6.79,6.79,0,0,0-2-4.85,7.05,7.05,0,0,0-5.15-1.82,7.27,7.27,0,0,0-7.71,6.67Z"/><path class="b" d="M515.63,65.18h3.93v18h.11a11.7,11.7,0,0,1,3.75-3,10.58,10.58,0,0,1,4.72-1.06,13.42,13.42,0,0,1,5.08.94,11.4,11.4,0,0,1,3.91,2.6,12.13,12.13,0,0,1,2.52,3.93,13.93,13.93,0,0,1,0,9.89,12.12,12.12,0,0,1-2.5,3.93,11.13,11.13,0,0,1-3.76,2.6,11.42,11.42,0,0,1-4.64.93,10.84,10.84,0,0,1-5.57-1.38,8.92,8.92,0,0,1-3.51-3.41h-.11v4.19h-3.93Zm3.93,26.33a10.18,10.18,0,0,0,.58,3.46,8,8,0,0,0,4.35,4.64,9.06,9.06,0,0,0,6.9,0A8,8,0,0,0,535.74,95a10.62,10.62,0,0,0,0-6.91,8,8,0,0,0-4.35-4.64,9.06,9.06,0,0,0-6.9,0,8,8,0,0,0-4.35,4.64,10.12,10.12,0,0,0-.58,3.45"/><path class="b" d="M550.14,82.73A11,11,0,0,1,554.45,80a15.17,15.17,0,0,1,5.08-.89,10,10,0,0,1,7.56,2.48,10.62,10.62,0,0,1,2.32,7.51V99.23c0,.68,0,1.38.1,2.1s.16,1.38.26,2H566a8.36,8.36,0,0,1-.23-1.79c0-.66,0-1.23,0-1.74h-.1a9.4,9.4,0,0,1-3.1,3,9,9,0,0,1-4.67,1.16,12.74,12.74,0,0,1-3.41-.46,8.65,8.65,0,0,1-2.77-1.33,6.7,6.7,0,0,1-1.9-2.2,6.37,6.37,0,0,1-.7-3,6.56,6.56,0,0,1,1.51-4.59,9.22,9.22,0,0,1,3.76-2.47,18.72,18.72,0,0,1,4.84-1c1.73-.13,3.32-.2,4.77-.2h1.51v-.71A4.84,4.84,0,0,0,563.94,84a6.56,6.56,0,0,0-4.31-1.31,11.83,11.83,0,0,0-3.77.63,9.31,9.31,0,0,0-3.25,2ZM561.54,92a14,14,0,0,0-6,1.06,3.59,3.59,0,0,0-2.22,3.48,3.4,3.4,0,0,0,1.49,3.15,6.77,6.77,0,0,0,3.71.93,7.22,7.22,0,0,0,3-.57,6.29,6.29,0,0,0,2.14-1.55A6.48,6.48,0,0,0,565,96.23a8.85,8.85,0,0,0,.5-2.75V92Z"/><path class="b" d="M580.91,97.11a9.93,9.93,0,0,0,2.56,2.32,6.48,6.48,0,0,0,3.5.86,8.81,8.81,0,0,0,1.85-.2,5.5,5.5,0,0,0,1.68-.66,3.53,3.53,0,0,0,1.21-1.13,3,3,0,0,0,.46-1.64,2.69,2.69,0,0,0-.43-1.56,3.82,3.82,0,0,0-1.13-1,6.09,6.09,0,0,0-1.62-.69c-.61-.17-1.23-.32-1.87-.45-1.1-.24-2.17-.5-3.18-.81a10.51,10.51,0,0,1-2.65-1.19A5.37,5.37,0,0,1,579.48,89a5.91,5.91,0,0,1-.69-3,6,6,0,0,1,.76-3,6.56,6.56,0,0,1,2-2.17,9.66,9.66,0,0,1,2.82-1.31,11.53,11.53,0,0,1,3.24-.46,10.94,10.94,0,0,1,4.67,1,7.24,7.24,0,0,1,3.35,3.28l-3.28,2.17a6.07,6.07,0,0,0-2-2,5.49,5.49,0,0,0-3-.78,6.86,6.86,0,0,0-1.63.2,5,5,0,0,0-1.49.61,3.57,3.57,0,0,0-1.09,1,2.35,2.35,0,0,0-.42,1.43,1.76,1.76,0,0,0,.48,1.29,4,4,0,0,0,1.31.93,11,11,0,0,0,1.91.71,19.52,19.52,0,0,0,2.24.5,23.34,23.34,0,0,1,3,.79,8.85,8.85,0,0,1,2.48,1.28,5.8,5.8,0,0,1,1.66,2,6.64,6.64,0,0,1,.61,3,6.84,6.84,0,0,1-.81,3.43,6.55,6.55,0,0,1-2.15,2.29,9.29,9.29,0,0,1-3,1.29,14.42,14.42,0,0,1-3.46.41,13.3,13.3,0,0,1-5.22-.94,9.52,9.52,0,0,1-4-3.45Z"/><path class="b" d="M626.78,99a12,12,0,0,1-4.64,3.81,14.88,14.88,0,0,1-5.86,1.09,12.25,12.25,0,0,1-5-1,11,11,0,0,1-3.75-2.65,11.42,11.42,0,0,1-2.38-3.93,14,14,0,0,1-.84-4.85,13.33,13.33,0,0,1,.92-5,11.51,11.51,0,0,1,2.52-3.93A11.38,11.38,0,0,1,611.59,80a13,13,0,0,1,4.85-.91,12.38,12.38,0,0,1,4.54.83,10.09,10.09,0,0,1,3.56,2.43,10.87,10.87,0,0,1,2.28,3.88,15.76,15.76,0,0,1,.82,5.23v1.25H608.57a8.51,8.51,0,0,0,2.37,5.33,7.8,7.8,0,0,0,2.37,1.64,7.24,7.24,0,0,0,3,.6,9.41,9.41,0,0,0,4.34-.9,9.9,9.9,0,0,0,3.18-2.68Zm-3.38-9.64a6.78,6.78,0,0,0-2-4.84,7.09,7.09,0,0,0-5.15-1.82,7.27,7.27,0,0,0-7.71,6.66Z"/><path class="b" d="M657.15,99.13h-.1a9,9,0,0,1-3.5,3.41,10.88,10.88,0,0,1-5.58,1.38,11.39,11.39,0,0,1-4.64-.93,11.27,11.27,0,0,1-3.77-2.6,12.27,12.27,0,0,1-2.49-3.93,13.93,13.93,0,0,1,0-9.89,11.84,11.84,0,0,1,2.53-3.93,11.21,11.21,0,0,1,3.91-2.6,13.3,13.3,0,0,1,5.07-.94,10.54,10.54,0,0,1,4.71,1.06,11.47,11.47,0,0,1,3.76,3h.1v-18h3.93v38.14h-3.93Zm0-7.62a9.66,9.66,0,0,0-.58-3.45,8,8,0,0,0-4.34-4.64,9.09,9.09,0,0,0-6.91,0A8,8,0,0,0,641,88.06,10.62,10.62,0,0,0,641,95a8,8,0,0,0,4.34,4.64,9.09,9.09,0,0,0,6.91,0A8,8,0,0,0,656.57,95a9.72,9.72,0,0,0,.58-3.46"/><path class="b" d="M515.27,126.54a2.83,2.83,0,0,1,.84-2,2.86,2.86,0,0,1,4,0l0,0a2.9,2.9,0,1,1-4,4.16,3,3,0,0,1-.89-2.14m.91,9.23h3.94v23.61h-3.94Z"/><path class="b" d="M531.72,141.37c0-1.08,0-2.09-.1-3s-.1-1.8-.1-2.57h3.74c0,.64,0,1.28,0,1.92s.06,1.29.06,2h.1a6.77,6.77,0,0,1,1.13-1.66,8.1,8.1,0,0,1,1.75-1.44,9.06,9.06,0,0,1,2.27-1,9.22,9.22,0,0,1,2.72-.39,10.38,10.38,0,0,1,4,.71,7.52,7.52,0,0,1,2.8,2,8,8,0,0,1,1.64,3,14,14,0,0,1,.53,3.91v14.58h-3.94V145.2a7.54,7.54,0,0,0-1.31-4.69,4.85,4.85,0,0,0-4.08-1.72,7.66,7.66,0,0,0-3.31.66,5.81,5.81,0,0,0-2.27,1.87,8.22,8.22,0,0,0-1.31,2.87,14.35,14.35,0,0,0-.43,3.68v11.51h-3.94Z"/><polygon class="b" points="574.31 159.38 569.96 159.38 560.33 135.77 564.92 135.77 572.29 154.28 572.39 154.28 579.4 135.77 583.64 135.77 574.31 159.38"/><path class="b" d="M612.75,155.09a11.92,11.92,0,0,1-4.64,3.81,14.7,14.7,0,0,1-5.86,1.09,12.25,12.25,0,0,1-5-1,11.13,11.13,0,0,1-3.75-2.65,11.74,11.74,0,0,1-2.38-3.93,14.25,14.25,0,0,1-.84-4.84,13.75,13.75,0,0,1,.92-5,11.66,11.66,0,0,1,2.52-3.93,11.33,11.33,0,0,1,3.83-2.55,12.62,12.62,0,0,1,4.85-.91A12.17,12.17,0,0,1,607,136a10,10,0,0,1,3.56,2.43,11,11,0,0,1,2.29,3.88,15.74,15.74,0,0,1,.81,5.22v1.26H594.54a8.15,8.15,0,0,0,.73,2.91,8.28,8.28,0,0,0,1.64,2.42,7.63,7.63,0,0,0,2.37,1.64,7.24,7.24,0,0,0,3,.6,9.47,9.47,0,0,0,4.35-.9,9.76,9.76,0,0,0,3.17-2.68Zm-3.38-9.63a6.75,6.75,0,0,0-2-4.84,7,7,0,0,0-5.15-1.83,7.27,7.27,0,0,0-7.71,6.67Z"/><path class="b" d="M624,153.18a10.12,10.12,0,0,0,2.56,2.32,6.56,6.56,0,0,0,3.5.85,8.17,8.17,0,0,0,1.84-.2,5.34,5.34,0,0,0,1.69-.65,3.88,3.88,0,0,0,1.21-1.14,3,3,0,0,0,.46-1.64,2.74,2.74,0,0,0-.43-1.57,4,4,0,0,0-1.14-1,6.19,6.19,0,0,0-1.61-.68c-.61-.17-1.23-.31-1.87-.45-1.11-.24-2.17-.51-3.17-.81a10.41,10.41,0,0,1-2.66-1.19,5.37,5.37,0,0,1-1.81-1.89,6.57,6.57,0,0,1,.07-6,6.56,6.56,0,0,1,2-2.17,9.92,9.92,0,0,1,2.82-1.31,11.46,11.46,0,0,1,3.23-.46,10.88,10.88,0,0,1,4.67,1,7.27,7.27,0,0,1,3.36,3.28l-3.28,2.17a6.07,6.07,0,0,0-2-2,5.59,5.59,0,0,0-3-.79,7.6,7.6,0,0,0-1.64.21,5.07,5.07,0,0,0-1.49.6,3.69,3.69,0,0,0-1.08,1,2.43,2.43,0,0,0-.43,1.43,1.85,1.85,0,0,0,.48,1.29,4.2,4.2,0,0,0,1.31.94,11.92,11.92,0,0,0,1.92.7,21.94,21.94,0,0,0,2.24.51,21.76,21.76,0,0,1,3,.78,8.38,8.38,0,0,1,2.48,1.29,5.54,5.54,0,0,1,1.65,2,6.52,6.52,0,0,1,.62,3,6.49,6.49,0,0,1-3,5.73,9.49,9.49,0,0,1-3,1.28,15,15,0,0,1-3.46.41,13.45,13.45,0,0,1-5.22-.93,9.44,9.44,0,0,1-4-3.47Z"/><path class="b" d="M661.69,139.1h-7v11.81c0,.77,0,1.48,0,2.14a4.47,4.47,0,0,0,.41,1.72,2.7,2.7,0,0,0,1.06,1.16,3.88,3.88,0,0,0,2,.42,7.54,7.54,0,0,0,1.76-.2,7.64,7.64,0,0,0,1.72-.6l.14,3.58a9.27,9.27,0,0,1-2.24.65,15.43,15.43,0,0,1-2.35.21,8.5,8.5,0,0,1-3.38-.56,4.55,4.55,0,0,1-2-1.56,5.82,5.82,0,0,1-.94-2.5,21.44,21.44,0,0,1-.22-3.3v-13h-5.16v-3.33h5.16v-6.71h3.93v6.71h7Z"/><path class="b" d="M669.82,126.54a2.78,2.78,0,0,1,.83-2,2.86,2.86,0,0,1,4.05,0l0,0a2.9,2.9,0,1,1-4,4.16,2.93,2.93,0,0,1-.87-2.14m.9,9.23h3.94v23.61h-3.94Z"/><path class="b" d="M686.26,141.37c0-1.08,0-2.09-.1-3s-.1-1.8-.1-2.57h3.73q0,1,.06,1.92c0,.64,0,1.29,0,2H690a6.8,6.8,0,0,1,1.14-1.66,8.55,8.55,0,0,1,1.74-1.44,9.62,9.62,0,0,1,5-1.39,10.4,10.4,0,0,1,4,.71,7.44,7.44,0,0,1,2.8,2,8,8,0,0,1,1.64,3,13.61,13.61,0,0,1,.53,3.91v14.58h-3.94V145.2a7.48,7.48,0,0,0-1.31-4.69,4.84,4.84,0,0,0-4.08-1.72,7.69,7.69,0,0,0-3.31.66,5.74,5.74,0,0,0-2.27,1.87,8.22,8.22,0,0,0-1.31,2.87,15.31,15.31,0,0,0-.44,3.68v11.51h-3.93Z"/><path class="b" d="M741.66,158.32a13.47,13.47,0,0,1-3.3,9.81,12.81,12.81,0,0,1-9.56,3.36,18.33,18.33,0,0,1-6.28-1,14.88,14.88,0,0,1-5.33-3.48l2.83-3.23a13.64,13.64,0,0,0,4,3,12.14,12.14,0,0,0,9.19.26,7,7,0,0,0,2.75-2.12,8.07,8.07,0,0,0,1.41-3.06,15.92,15.92,0,0,0,.41-3.58v-3h-.11a8.5,8.5,0,0,1-3.67,3.33,10.87,10.87,0,0,1-4.65,1.06,13.9,13.9,0,0,1-5.1-.91,11.71,11.71,0,0,1-4-2.52,11.16,11.16,0,0,1-2.58-3.84,12.68,12.68,0,0,1-.9-4.84,14.12,14.12,0,0,1,.9-5.19,11.07,11.07,0,0,1,2.55-3.92,11.27,11.27,0,0,1,4-2.44,14.54,14.54,0,0,1,5.15-.85,11,11,0,0,1,2.42.27,10.35,10.35,0,0,1,2.35.86,8.64,8.64,0,0,1,2,1.46,7.83,7.83,0,0,1,1.51,2.05h.11v-4h3.93ZM721,147.57a8.4,8.4,0,0,0,5.1,7.83,8.14,8.14,0,0,0,3.23.65,8.64,8.64,0,0,0,3.58-.71,7.92,7.92,0,0,0,4.29-4.61,9.28,9.28,0,0,0,.56-3.26,9.74,9.74,0,0,0-.61-3.5,8,8,0,0,0-1.72-2.76,7.7,7.7,0,0,0-2.67-1.79,9.34,9.34,0,0,0-3.43-.62,8.11,8.11,0,0,0-3.4.68,7.77,7.77,0,0,0-2.63,1.86,8.44,8.44,0,0,0-1.69,2.78,9.69,9.69,0,0,0-.61,3.45"/></svg>