<svg xmlns="http://www.w3.org/2000/svg" viewBox="0 0 606.95 303.47"><defs><style>.a{fill:#004f50;}.b{fill:#133736;}</style></defs><rect class="a" x="60.69" width="55.18" height="151.74"/><rect class="a" y="0.01" width="55.18" height="151.71"/><rect class="a" x="121.39" width="55.18" height="151.74"/><path class="a" d="M321.42,145.69H337.1l46.77,79.74V145.69h13.94V247.36H382.13l-46.77-79.74v79.74H321.42Z" transform="translate(-117.26 -145.69)"/><path class="a" d="M446.94,174.74h12.78v9.44c5.09-5.37,14.67-10.89,24.55-10.89a18.3,18.3,0,0,1,2.76.14l20.77,15.11a27.46,27.46,0,0,1,1.3,8.71v50.11H496.32V199.58c0-9.59-5.23-15-14.81-15-8.86,0-16.41,6.1-21.79,13.94v48.8H446.94Z" transform="translate(-117.26 -145.69)"/><path class="a" d="M614.58,230.51V186.36H600.2L604,174.74h10.6V153l12.78,4.21v17.57h17.43L641,186.36H627.36v43.28c0,4.79,2.76,7.84,8.28,7.84a16.94,16.94,0,0,0,8-2.18L647,245.47a32.45,32.45,0,0,1-14.53,3.34C621.4,248.81,614.58,242.57,614.58,230.51Z" transform="translate(-117.26 -145.69)"/><path class="a" d="M672.08,274.23l12-30.06-28.76-69.42h13.36l19.47,46.33,1.88,8.86,21.21-55.19h12.92l-41,103.11Z" transform="translate(-117.26 -145.69)"/><path class="a" d="M315.73,319.47c0-31.23,22.37-52.29,50.54-52.29a48.41,48.41,0,0,1,10.31,1l33.84,24.54a56.31,56.31,0,0,1,6.39,26.73c0,31.22-22.36,52.28-50.54,52.28S315.73,350.69,315.73,319.47Zm86.85,0c0-23.24-14.09-39.51-36.31-39.51S330,296.23,330,319.47,344.05,359,366.27,359,402.58,342.7,402.58,319.47Z" transform="translate(-117.26 -145.69)"/><path class="a" d="M432.35,298.26h12.78v9.44c5.08-5.37,14.67-10.89,24.54-10.89a17,17,0,0,1,2.76.15l20.77,15.1a27.52,27.52,0,0,1,1.31,8.72v50.1H481.73V323.1c0-9.59-5.23-15-14.82-15-8.86,0-16.41,6.1-21.78,13.94v48.8H432.35Z" transform="translate(-117.26 -145.69)"/><path class="a" d="M510,334.57c0-22.65,16.41-37.76,35.44-37.76a18.69,18.69,0,0,1,6.24.87L576,315.4a43.82,43.82,0,0,1,3.63,18.3v4.94H523c.43,13.94,9.58,22.07,22.65,22.07,11.33,0,18.74-5.95,21.35-14.66l11,3.63c-4.79,13.94-16,22.65-32.53,22.65C523.4,372.33,510,357.23,510,334.57Zm57.51-7c-1-12.78-10.74-19.17-22.07-19.17s-20.33,7-22.37,19.17Z" transform="translate(-117.26 -145.69)"/><circle class="a" cx="305.11" cy="9.36" r="8.62"/><path class="a" d="M416,174.74h12.78v72.62H416Z" transform="translate(-117.26 -145.69)"/><rect class="b" x="60.69" y="151.74" width="55.18" height="151.74"/><rect class="b" x="121.39" y="151.74" width="55.18" height="151.74"/><path class="a" d="M523.22,211c0-22.65,16.4-37.76,35.43-37.76a18.45,18.45,0,0,1,6.24.88l24.25,17.71a43.62,43.62,0,0,1,3.64,18.3v4.94H536.14c.44,13.94,9.59,22.07,22.65,22.07,11.33,0,18.74-6,21.35-14.67l11,3.63c-4.79,14-16,22.66-32.53,22.66C536.58,248.8,523.22,233.7,523.22,211Zm57.5-7c-1-12.78-10.74-19.17-22.07-19.17s-20.33,7-22.36,19.17Z" transform="translate(-117.26 -145.69)"/></svg>