<svg xmlns="http://www.w3.org/2000/svg" viewBox="0 0 746.81 162.52"><defs><style>.a{fill:#7b7e69;}.a,.c{fill-rule:evenodd;}.b{fill:#fff;}.c{fill:#bb1732;}</style></defs><path class="a" d="M481.62,50.05h7.74l-3.87-10.53Zm7.23-18.48L501,63.26h-6.71l-2.83-7.64H479.56l-2.79,7.64h-6.6l12.12-31.69Zm21,24.82a3.72,3.72,0,0,0,3.87,2.53c2,0,3.25-.77,3.25-2.27,0-1-.73-1.55-2.33-2l-4.64-1c-3.51-.83-6-2.63-6-6.5,0-4.49,4-7.49,9.19-7.49,5.83,0,9,2.79,9.8,7.12H517c-.41-1.29-1.49-2.27-3.61-2.27-1.55,0-3,.73-3,2.17,0,.93.61,1.45,2.06,1.81l4.75,1.08c4,1,6.14,3.2,6.14,6.71,0,4.7-4.07,7.48-9.44,7.48-5.63,0-9.6-2.68-10.27-7.38Zm23.52,0a3.72,3.72,0,0,0,3.87,2.53c2,0,3.26-.77,3.26-2.27,0-1-.73-1.55-2.33-2l-4.64-1c-3.51-.83-6-2.63-6-6.5,0-4.49,4-7.49,9.19-7.49,5.83,0,9,2.79,9.8,7.12h-6.09c-.41-1.29-1.5-2.27-3.61-2.27-1.55,0-3,.73-3,2.17,0,.93.61,1.45,2.06,1.81l4.75,1.08c4,1,6.14,3.2,6.14,6.71,0,4.7-4.08,7.48-9.44,7.48-5.63,0-9.61-2.68-10.28-7.38Zm23.63-7.17H566c-.05-2.42-1.5-4.33-4.13-4.33s-4.23,1.49-4.8,4.33Zm15.07,6.5c-.83,4.9-4.44,8.05-10.22,8.05-6.71,0-11.2-4.9-11.2-12s4.65-12.08,11.1-12.08c6.76,0,10.47,4.7,10.47,11.46v2H556.9c.21,3.46,2.16,5.52,5,5.52,2.17,0,3.77-.93,4.29-2.89Zm6.65-10.37h-3.51V40.19h3.51V34h6.35v6.24h5v5.16h-5V55.47a2.35,2.35,0,0,0,2.63,2.63,5.47,5.47,0,0,0,2.79-.78V63a9.81,9.81,0,0,1-4.13.72c-4.7,0-7.64-2.32-7.64-7.43Z"/><polygon class="a" points="486.47 110.98 478.63 90.29 478.63 110.98 472.44 110.98 472.44 79.29 480.28 79.29 488.75 101.64 497.15 79.29 504.89 79.29 504.89 110.98 498.65 110.98 498.65 90.29 490.96 110.98 486.47 110.98"/><path class="a" d="M524.55,103c-.57-1.24-2.32-2-4.18-2s-4.08.88-4.08,2.84,2.07,2.84,4.08,2.84,3.61-.78,4.18-2Zm0,7.94v-1.23c-.78.77-3.1,1.65-5.63,1.65-4.64,0-8.56-2.69-8.56-7.49,0-4.38,3.92-7.38,8.92-7.38a10.64,10.64,0,0,1,5.27,1.35V96.17c0-2-1.19-3.56-3.77-3.56a3.3,3.3,0,0,0-3.4,2.17h-6.09c.67-4.18,4.43-7.38,9.7-7.38,6.14,0,9.7,3.35,9.7,8.87V111Zm12.38-23.07h6.39V90a8.33,8.33,0,0,1,6.2-2.63c5.21,0,8.15,3.4,8.15,8.51V111h-6.39V97.26c0-2.43-1.25-4.08-3.77-4.08a4.2,4.2,0,0,0-4.19,3.2V111h-6.39ZM576.81,103c-.57-1.24-2.32-2-4.18-2s-4.07.88-4.07,2.84,2.06,2.84,4.07,2.84,3.61-.78,4.18-2Zm0,7.94v-1.23c-.77.77-3.09,1.65-5.62,1.65-4.65,0-8.57-2.69-8.57-7.49,0-4.38,3.92-7.38,8.93-7.38a10.6,10.6,0,0,1,5.26,1.35V96.17c0-2-1.18-3.56-3.76-3.56a3.32,3.32,0,0,0-3.41,2.17h-6.09c.67-4.18,4.44-7.38,9.7-7.38,6.14,0,9.7,3.35,9.7,8.87V111ZM603.9,95.14a5.17,5.17,0,0,0-4.34-2.37c-3.4,0-5.41,2.58-5.41,6.14s2,6.19,5.41,6.19a5.1,5.1,0,0,0,4.34-2.43Zm0,13a7.58,7.58,0,0,1-5.68,2.38c-6.65,0-10.47-5.37-10.47-11.56s3.82-11.51,10.47-11.51a7.74,7.74,0,0,1,5.68,2.32V87.91h6.35v20.54c0,7.9-4.8,11.56-11.3,11.56-6,0-10.07-3-10.74-8.2h6.19c.52,2.16,2.07,3.25,4.55,3.25,3.25,0,4.95-1.91,4.95-5.63Zm17.85-11.15h8.93c-.06-2.42-1.5-4.33-4.13-4.33-2.48,0-4.23,1.5-4.8,4.33Zm15.07,6.51c-.83,4.9-4.44,8-10.22,8-6.71,0-11.2-4.9-11.2-12,0-7,4.65-12.07,11.1-12.07,6.76,0,10.47,4.69,10.47,11.45v2H621.59c.21,3.46,2.17,5.53,5,5.53,2.17,0,3.77-.93,4.28-2.89Zm30.59-16c4.75,0,7.59,3.3,7.59,8.51V111h-6.4V97.26c0-2.48-1.08-4.13-3.3-4.13a3.56,3.56,0,0,0-3.56,3V111h-6.45V97.26c0-2.48-1-4.13-3.26-4.13a3.62,3.62,0,0,0-3.61,3V111H642V87.91h6.4v1.91a7.36,7.36,0,0,1,5.83-2.42,7.65,7.65,0,0,1,6.2,2.94,9,9,0,0,1,7-2.94m18.83,9.54h8.93c0-2.42-1.5-4.33-4.13-4.33s-4.23,1.5-4.8,4.33Zm15.07,6.51c-.83,4.9-4.44,8-10.22,8-6.71,0-11.2-4.9-11.2-12,0-7,4.65-12.07,11.1-12.07,6.76,0,10.47,4.69,10.47,11.45v2H686.09c.21,3.46,2.16,5.53,5,5.53,2.17,0,3.77-.93,4.29-2.89Zm5.26-15.54H713V90a8.29,8.29,0,0,1,6.2-2.63c5.21,0,8.15,3.4,8.15,8.51V111h-6.4V97.26c0-2.43-1.24-4.08-3.76-4.08a4.2,4.2,0,0,0-4.19,3.2V111h-6.39Zm28.48,5.17h-3.51V87.92h3.51V81.67h6.35v6.25h5.05v5.16H741.4v10.11a2.34,2.34,0,0,0,2.63,2.63,5.5,5.5,0,0,0,2.78-.77v5.67a9.57,9.57,0,0,1-4.13.73c-4.69,0-7.63-2.33-7.63-7.43Z"/><rect class="b" x="267.41" width="161.51" height="162.52"/><path class="c" d="M287.45,90a136.44,136.44,0,0,1,3.37-21.22c4.27-18.51,11.39-32.58,21.57-32.58,7,0,9.66,4.89,9.74,10.76.15,15.35-12.21,34-27,45.82-.23,7.38,2.17,10.76,6.44,10.76,7.71,0,15.42-7.9,22.09-23.85.9-2.18,1.8-4.66,2.7-7.07,1.34-3.39,8.24-1.43,7.26,2-2.1,7.15-5.54,16.56-5.54,22.8,0,4.14,2.1,6,5.17,5.87,4.27-.07,7.79-3.16,10.26-6.17,0,0,1.72-8.88,2.24-11.28,7.27-34.54,15.58-49.51,26.52-49.51,6.51,0,9.88,4.06,9.88,10.53,0,12-8.23,25.73-24,44.69a50.08,50.08,0,0,0,17.22,3h1.73a31.21,31.21,0,0,1-.3-4.13c0-13.4,9.58-23,21.34-23,7.72,0,13.71,3.61,13.71,11.59,0,10-10.56,17.91-23.82,20.61,2.1,2.49,6.14,4.22,11.83,4.22,12.74,0,22.55-6.32,29.06-12.42V0H267.23V100.75A85.15,85.15,0,0,0,287.45,90ZM335,52.82a5.22,5.22,0,0,1,5.24,5.49,5.83,5.83,0,0,1-5.76,5.5,5.19,5.19,0,0,1-5.25-5.5A5.88,5.88,0,0,1,335,52.82Z"/><path class="c" d="M398.37,73.89c-8.24,0-13.26,8.2-13.26,16.48a18.23,18.23,0,0,0,.3,3.16C397.92,91.12,404,84.42,404,79.15,404,75.77,401.89,73.89,398.37,73.89ZM372.23,42.66c-3.89,0-11.76,11.29-18.57,43.79,11.53-14.67,21-31.3,21-39.95C374.55,44.32,374,42.66,372.23,42.66ZM400,110.76c-11.09,0-17.38-4.37-20.67-9.79-1.13.08-2.4.08-3.52.08a51.13,51.13,0,0,1-14.91-2,56.42,56.42,0,0,1,4.95,22.57c0,14.6-5.25,24.23-15.28,24.23-7.12,0-11.16-5.19-11.31-15.95-.08-7.83.9-14.37,2.47-23.18a15.77,15.77,0,0,1-9.89,3.54c-7.34,0-11.45-4.67-11.75-11.14-5.7,7.75-12.59,11.44-19.78,11.44-7.79,0-12-5-12.8-12.57a99.6,99.6,0,0,1-20.23,10.09v54.47H429.08V100.3A46.14,46.14,0,0,1,400,110.76Zm-87.7-68.1c-4.2,0-11.61,12.64-16.26,40.41C309.25,70.2,314.64,53.5,314.64,46.8,314.64,43.72,313.81,42.66,312.32,42.66Z"/><path class="c" d="M351.11,98.72c-1.72,8-4,22.12-4,31,0,5.19,1.12,8.5,4.12,8.5,5.24,0,6.74-9.18,6.74-16,0-8.88-2.25-18.13-5.77-24.6Z"/><path class="a" d="M74.37,110.54a8.74,8.74,0,0,1-1.28-3.75,50,50,0,0,1-.37-7.52V84.86A26.62,26.62,0,0,0,72,78.12a12.23,12.23,0,0,0-2.54-4.91,10.92,10.92,0,0,0-4.79-2.91,25,25,0,0,0-7.41-1,31.41,31.41,0,0,0-5.31.46A29.48,29.48,0,0,0,47,71a14.85,14.85,0,0,0-3.66,1.84,3,3,0,0,0-1.42,2.22,7.8,7.8,0,0,0,.52,2.38,12.88,12.88,0,0,0,1.42,2.91,26,26,0,0,1,5.46-3,18.22,18.22,0,0,1,6.89-1.15c3.29,0,5.53.61,6.65,1.92s1.72,3.14,1.72,5.59v1.38A14.07,14.07,0,0,0,62.77,85H61a56.76,56.76,0,0,0-6.88.69,22.26,22.26,0,0,0-7,2.3,16.89,16.89,0,0,0-5.54,4.52,11.63,11.63,0,0,0-2.24,7.36h0A14.73,14.73,0,0,0,40.47,106a9.82,9.82,0,0,0,3.15,3.83,11,11,0,0,0,4.19,1.92,19.1,19.1,0,0,0,4.56.54A15.7,15.7,0,0,0,60,110.77a17.33,17.33,0,0,0,4.94-3.68,4.18,4.18,0,0,0,2.17,3.53,8.39,8.39,0,0,0,4.26,1,9.37,9.37,0,0,0,1.5-.08,4.47,4.47,0,0,0,1.2-.23.65.65,0,0,0,.52-.61C74.44,110.77,74.44,110.62,74.37,110.54Zm-9.81-11a3.84,3.84,0,0,1-.82,2.15,8.67,8.67,0,0,1-2.32,2,14.41,14.41,0,0,1-3.29,1.53,13.18,13.18,0,0,1-4,.62c-2.62,0-4.42-.69-5.39-1.92a7.23,7.23,0,0,1-1.42-4.52,6.63,6.63,0,0,1,1.34-4.37,9.66,9.66,0,0,1,3.52-2.61A18.51,18.51,0,0,1,57,91.15a40.67,40.67,0,0,1,5.24-.31h2.31v8.74Zm96.74,11a8.61,8.61,0,0,1-1.27-3.75,49.73,49.73,0,0,1-.38-7.52V84.86a26.65,26.65,0,0,0-.74-6.74,11.55,11.55,0,0,0-2.62-4.91,10.92,10.92,0,0,0-4.79-2.91,25,25,0,0,0-7.41-1,31.41,31.41,0,0,0-5.31.46A29.24,29.24,0,0,0,133.84,71a14.85,14.85,0,0,0-3.66,1.84,3,3,0,0,0-1.42,2.22,7.51,7.51,0,0,0,.52,2.38,12.88,12.88,0,0,0,1.42,2.91,26,26,0,0,1,5.46-3A18.2,18.2,0,0,1,143,76.2c3.3,0,5.54.61,6.66,1.92a8.23,8.23,0,0,1,1.72,5.59v1.38a14.07,14.07,0,0,0-1.79-.07h-1.8a56.76,56.76,0,0,0-6.88.69,22.8,22.8,0,0,0-7.11,2.3,16.08,16.08,0,0,0-5.53,4.52,11.57,11.57,0,0,0-2.25,7.36h0a13.56,13.56,0,0,0,1.2,6.13,10.61,10.61,0,0,0,7.33,5.75,23.6,23.6,0,0,0,4.56.54,15.74,15.74,0,0,0,7.64-1.54,18.9,18.9,0,0,0,4.93-3.68,4.2,4.2,0,0,0,2.17,3.53,9.53,9.53,0,0,0,4.27,1,9.31,9.31,0,0,0,1.49-.08,4.39,4.39,0,0,0,1.2-.23.65.65,0,0,0,.52-.61C161.45,110.77,161.37,110.62,161.3,110.54Zm-9.73-11a3.92,3.92,0,0,1-.82,2.15,8.83,8.83,0,0,1-2.32,2,14.27,14.27,0,0,1-7.33,2.15c-2.62,0-4.41-.69-5.39-1.92a7.1,7.1,0,0,1-1.42-4.52,6.58,6.58,0,0,1,1.35-4.37,9.62,9.62,0,0,1,3.51-2.61,18.62,18.62,0,0,1,4.79-1.3,40.88,40.88,0,0,1,5.24-.31h2.32l.07,8.74Zm54.47,11a8.61,8.61,0,0,1-1.27-3.75,49.73,49.73,0,0,1-.38-7.52V56.73a10,10,0,0,0-.52-3.61,6.5,6.5,0,0,0-1.35-2.22,4.07,4.07,0,0,0-1.94-1.07,10.9,10.9,0,0,0-2.17-.31h-1.27c-.45,0-.83.08-1,.08V73.44A15.38,15.38,0,0,0,192,70.83a17.07,17.07,0,0,0-7-1.3,15.89,15.89,0,0,0-6.21,1.3,14.68,14.68,0,0,0-5.31,3.91,20.86,20.86,0,0,0-3.67,6.83,32.36,32.36,0,0,0-1.34,9.89,30,30,0,0,0,1.42,10,17,17,0,0,0,3.74,6.51,13.61,13.61,0,0,0,5.39,3.45,19.23,19.23,0,0,0,6.21,1.08,13.27,13.27,0,0,0,7.33-1.84,14.53,14.53,0,0,0,4.11-3.53,4.21,4.21,0,0,0,2.17,3.53,9.53,9.53,0,0,0,4.27,1,10.62,10.62,0,0,0,1.49-.07,4.39,4.39,0,0,0,1.2-.23.65.65,0,0,0,.52-.62C206.11,110.77,206.11,110.62,206,110.54Zm-10-10.27a3.33,3.33,0,0,1-.67,2,8,8,0,0,1-1.8,1.77,9.7,9.7,0,0,1-2.84,1.22,12.83,12.83,0,0,1-3.51.54,8.52,8.52,0,0,1-7.94-4.37,13.64,13.64,0,0,1-1.64-4.83,37.47,37.47,0,0,1-.45-6c0-4.68.9-8.28,2.62-10.66a8.34,8.34,0,0,1,7.11-3.6,12,12,0,0,1,3.44.46A12.24,12.24,0,0,1,193,77.89a7.82,7.82,0,0,1,1.87,1.45L196,80.49v19.78Zm52,10.27a8.61,8.61,0,0,1-1.27-3.75,49.73,49.73,0,0,1-.38-7.52V84.86a26.18,26.18,0,0,0-.75-6.74A11.42,11.42,0,0,0,243,73.21a10.92,10.92,0,0,0-4.79-2.91,25,25,0,0,0-7.41-1,31.41,31.41,0,0,0-5.31.46A29.24,29.24,0,0,0,220.55,71a14.85,14.85,0,0,0-3.66,1.84,3,3,0,0,0-1.43,2.22,7.59,7.59,0,0,0,.53,2.38,12.88,12.88,0,0,0,1.42,2.91,26,26,0,0,1,5.46-3,18.2,18.2,0,0,1,6.88-1.15c3.3,0,5.54.61,6.66,1.92a8.28,8.28,0,0,1,1.72,5.59v1.38a14.07,14.07,0,0,0-1.79-.07h-1.8a56.76,56.76,0,0,0-6.88.69,22.8,22.8,0,0,0-7.11,2.3A16.08,16.08,0,0,0,215,92.53a11.57,11.57,0,0,0-2.25,7.36h0A13.56,13.56,0,0,0,214,106a10.61,10.61,0,0,0,7.33,5.75,23.6,23.6,0,0,0,4.56.54,15.74,15.74,0,0,0,7.64-1.54,18.9,18.9,0,0,0,4.93-3.68,4.2,4.2,0,0,0,2.17,3.53,9.53,9.53,0,0,0,4.27,1,9.31,9.31,0,0,0,1.49-.08,4.39,4.39,0,0,0,1.2-.23.65.65,0,0,0,.52-.61C248.16,110.77,248.08,110.62,248,110.54Zm-9.73-11a3.92,3.92,0,0,1-.82,2.15,8.83,8.83,0,0,1-2.32,2,14.27,14.27,0,0,1-7.33,2.15c-2.62,0-4.41-.69-5.39-1.92A7.1,7.1,0,0,1,221,99.43a6.58,6.58,0,0,1,1.35-4.37,9.62,9.62,0,0,1,3.51-2.61,18.62,18.62,0,0,1,4.79-1.3,40.88,40.88,0,0,1,5.24-.31h2.32l.07,8.74ZM8.45,90.92a24.24,24.24,0,0,0,.68,5.82,13.74,13.74,0,0,0,2.09,4.76,9.77,9.77,0,0,0,3.67,3.14,11.61,11.61,0,0,0,5.38,1.15,11.64,11.64,0,0,0,4.12-.69,13.16,13.16,0,0,0,3.07-1.61,13.85,13.85,0,0,0,2.69-2.3,20.42,20.42,0,0,1,1.72,2.38,5.82,5.82,0,0,1,1.05,3,2.12,2.12,0,0,1-.23.92,7.43,7.43,0,0,1-1.49,1.84,14,14,0,0,1-4.64,2.45,23,23,0,0,1-7.41,1.07,30.94,30.94,0,0,1-6.13-.76,15.39,15.39,0,0,1-6.21-3.15A17.69,17.69,0,0,1,2,102.34C.6,99.5,0,95.75,0,91.15A23.69,23.69,0,0,1,2.09,80.49,18.94,18.94,0,0,1,7.18,73.9a19.27,19.27,0,0,1,6.44-3.37,22.83,22.83,0,0,1,6-.92,21.48,21.48,0,0,1,5.69.69,17.9,17.9,0,0,1,4.34,1.76,9.41,9.41,0,0,1,2.54,2.07A3.43,3.43,0,0,1,33,76.35c0,1.46-1,3.45-2.32,5.29a16.37,16.37,0,0,0-4.11-3.29,11.54,11.54,0,0,0-6.06-1.61A12.86,12.86,0,0,0,15,77.81a9.72,9.72,0,0,0-3.74,3.07,12.8,12.8,0,0,0-2.17,4.6A19.93,19.93,0,0,0,8.45,90.92Zm109.46,20.62H109.6V88c0-1.61-.07-3.15-.15-4.53a8.76,8.76,0,0,0-.89-3.6,4.93,4.93,0,0,0-2.32-2.3,10,10,0,0,0-4.49-.84,12.37,12.37,0,0,0-7,1.84,5.82,5.82,0,0,0-2.91,4.9v28H83.42V70.22a.9.9,0,0,0,.45-.08h1.19a7.94,7.94,0,0,1,4,1.08,4.58,4.58,0,0,1,2.17,3.6,17.64,17.64,0,0,1,5.32-3.76,18.15,18.15,0,0,1,7.93-1.68c3.89,0,6.8.84,8.82,2.68a12.82,12.82,0,0,1,4,6.59,20.09,20.09,0,0,1,.53,3.91c.07,1.46.07,2.84.07,4.22l-.07,24.76Z"/></svg>