<svg xmlns="http://www.w3.org/2000/svg" viewBox="0 0 462.09 304.44"><defs><style>.a{fill:#00913e;}.b{fill:#ffd500;}.c{fill:#009fe3;}.d{fill:#e30613;}.e{fill:none;}.f{stroke:#1d1d1b;stroke-width:0.09px;}.g{fill:#1d1d1b;}</style></defs><path class="a" d="M519.6,132.56a.64.64,0,0,0-.29.75.62.62,0,0,0,.67.43c.07,0,6.73-.69,17.69,1.34,43,8,66.74,36.83,67,37.12a.63.63,0,0,0,1.12-.29c0-.09,1.67-9.32,10.25-17.88s17.07-11.09,17.15-11.12a.63.63,0,0,0,.19-1.12c-.29-.21-29.16-20.64-61.86-20.95h0C540.93,120.54,519.81,132.44,519.6,132.56Z" transform="translate(-184.34 -118.85)"/><path class="b" d="M518,134.42a.61.61,0,0,0-.49.34.62.62,0,0,0,0,.59l17.2,31.56c2.95,5.4,21.95,37.19,22.14,37.51a.63.63,0,0,0,.6.31.64.64,0,0,0,.54-.41s.78-2,4.15-6c17-20.1,39.51-19.06,39.73-19a.64.64,0,0,0,.56-1A112.26,112.26,0,0,0,567,147.63C538.43,132.22,518.18,134.39,518,134.42Z" transform="translate(-184.34 -118.85)"/><path class="c" d="M515.61,135.89a39,39,0,0,0-3.65,5.42c-23.53,42.81-8.25,84.89-8.1,85.31a.64.64,0,0,0,1.16.08,23.77,23.77,0,0,1,5-5.6c17.5-15.49,41.08-13.21,41.32-13.18a.66.66,0,0,0,.59-.27.63.63,0,0,0,0-.65l-17.49-34.09h0c-3.07-6-17.67-36.59-17.82-36.89a.63.63,0,0,0-.5-.36A.61.61,0,0,0,515.61,135.89Z" transform="translate(-184.34 -118.85)"/><path class="d" d="M513.41,135.54c-.24.12-24.49,13-41.35,41.82-18,30.8-14.17,56.49-14.13,56.74a.64.64,0,0,0,.41.5.65.65,0,0,0,.64-.12c.09-.09,9.53-8.31,25.83-8.26,9.44,0,12.85,1.93,12.89,1.95a.63.63,0,0,0,.72-.06.65.65,0,0,0,.23-.49.76.76,0,0,0,0-.21c-.08-.22-4-12-4-29.3a106.79,106.79,0,0,1,14.05-53.45,74.19,74.19,0,0,1,5.56-8.16.67.67,0,0,0,.14-.4.6.6,0,0,0-.15-.4A.63.63,0,0,0,513.41,135.54Z" transform="translate(-184.34 -118.85)"/><path d="M574.21,307.83c-5.61-1.68-13.5-6.23-21.44-12.12a57,57,0,0,0,4.05-8c2.5-6.14,3.66-9.25,9.35-9.84v-2.63c-3.09.15-6.3.19-9.55.19s-6.22,0-9.36-.19v2.63c2.13.5,4.37.69,6.48,1.32,0,2.45-1.38,6.76-2.57,9.66a40.33,40.33,0,0,1-2.09,4c-7.28-5.84-14.24-12.7-19-19.44,6.85-3.22,14.85-7.12,14.85-15.38,0-7.9-5.7-12-13.67-12-8.73,0-16,6.39-16,14.63a28.79,28.79,0,0,0,3.27,12.56c-7.89,4-13.21,8.83-13.21,17.91,0,13.23,10.68,19.68,22.57,19.68A26.56,26.56,0,0,0,548,302c9,5.21,18.27,8.6,25.75,8.91Zm-44.06-56.95c4.7,0,6.3,3.73,6.3,7.93,0,5.52-4.54,8.42-9,10.45-2.27-4-3.59-7.83-3.59-11.33S526.41,250.88,530.15,250.88Zm12.41,49.37a19.21,19.21,0,0,1-11.23,3.61c-8,0-14.87-6.12-14.87-15.38a12.06,12.06,0,0,1,5-10.21c5.32,7.89,13.42,15.34,22.23,21.1A13.25,13.25,0,0,1,542.56,300.25Z" transform="translate(-184.34 -118.85)"/><path d="M541.14,352.24c-.67-2.53-1.91-5.45-5-5.45-2.32,0-5.06,2-6.82,3.48v21.47c0,7,3,6,8.59,6.59v2.74c-4.91,0-9.91-.21-14.78-.21-3.68,0-7.3,0-11,.21v-2.74l5.86-.95v-26c0-3.06-.25-5.59-4.16-5.59-.76,0-1.47,0-2.22.07v-2.65c2.85-.69,5.71-1.44,8.56-2.17,1.93-.58,4.5-1.51,6.36-1.51,2.85,0,2.79,3.68,2.79,5.73v1c2.72-3,7-6.88,11.38-6.88,4,0,7.08,2.18,7.08,6.4C547.81,349.24,544.55,352.18,541.14,352.24Z" transform="translate(-184.34 -118.85)"/><path d="M459.26,380.86c-3.85,0-7.74,0-11.57.21v-2.74l5.66-.95V356.94c0-4.56-.12-10.35-6.26-10.35a24.61,24.61,0,0,0-10.37,3.12v23.45c0,4.38,1.57,4.77,5.6,5.17v2.74c-3.95,0-7.91-.21-11.79-.21-3.7,0-7.36,0-11,.21v-2.74l5.87-.95V351.9c0-3.26-.06-6.07-4.11-6.07-.75,0-1.49,0-2.23.07v-2.65c2.86-.69,5.71-1.44,8.58-2.17,2.59-.7,4.79-1.51,6.33-1.51,3.3,0,2.8,4.29,2.8,6.47,4.49-2.73,11.79-6.47,17.08-6.47,3.44,0,6,.74,8.28,3.41,2.74,3.13,2.57,8.31,2.57,12.27V373c0,5.65,3,4.7,7.24,5.38v2.74C467.74,381.07,463.49,380.86,459.26,380.86Z" transform="translate(-184.34 -118.85)"/><path d="M338.44,309.12H286.58v-2.74l9.6-1.69V257.32c0-5.64-1.68-7.08-8.87-7.27v-2.73H318v2.73l-8.86,1.48V299c0,5.25,1.22,5.84,8.86,5.84,12.06,0,16.15-1.08,19-13.23h3Z" transform="translate(-184.34 -118.85)"/><path d="M376.36,354.51c-4.22,0-5.91,1.14-5.91,5.58v17.56a59.68,59.68,0,0,1-23.37,4.63c-18.75,0-31.21-13.06-31.21-31.32a32.35,32.35,0,0,1,32.69-32.51,62.53,62.53,0,0,1,21.52,4.07L370,338.15H367.3c-.89-4.78-2.52-8.81-5.57-11.59a17,17,0,0,0-11.52-4.06c-15.92,0-19.7,18.42-19.7,29,0,10.85,3.87,26.77,17.92,26.77,7.64,0,9.74-2.39,9.74-10.37V355.65l-7.57-1.14v-3h27v3Z" transform="translate(-184.34 -118.85)"/><path d="M578.44,381.6c-4.3,0-7.2-.83-8.78-5.22-2.93,4.39-8.63,5.63-12.84,5.63-7.64,0-14.72-3.26-14.72-11.69,0-13.5,17.51-13.64,27.13-13.64v-5.19c0-5.05-2.37-7-7.7-7A32.94,32.94,0,0,0,551,346.72v-5a49.47,49.47,0,0,1,14.4-2.17c3.88,0,9.27.8,12.18,3.61,3.14,3,3,6.74,3,10.84v18.53c0,3.26,1,5.84,4.24,5.84,2.85,0,5.85-.27,8.62-.52V331c0-3.32,0-6.13-4.07-6.13a22.08,22.08,0,0,0-2.25.14v-2.66c2.86-.66,5.72-1.42,8.61-2.16,2.58-.69,4.78-1.52,6.32-1.52,3.28,0,2.79,4.16,2.79,6.49v48c0,4.43,2.58,4.65,9.39,5.17v2.74C602.27,381.07,590.43,381.6,578.44,381.6Zm-9.21-21c-6.06,0-14.83,1.08-14.83,9.47,0,4.23,1.92,6.89,6.36,6.89a8.42,8.42,0,0,0,7.53-5.46,16.42,16.42,0,0,0,.94-6.34Z" transform="translate(-184.34 -118.85)"/><path d="M459.64,309.66c-4.39,0-7.25-.82-8.82-5.25-2.93,4.43-8.63,5.73-12.91,5.73-7.59,0-14.73-3.28-14.73-11.72,0-13.5,17.55-13.7,27.24-13.7v-5.18c0-5.05-2.43-7-7.76-7a33.32,33.32,0,0,0-10.5,2.18v-5a52.3,52.3,0,0,1,14.47-2.13c3.79,0,9.25.76,12.19,3.56,3.06,3,2.9,6.81,2.9,10.9v18.47c0,3.27,1,5.93,4.31,5.93a72.78,72.78,0,0,0,8.66-.62V259.09c0-3.34-.08-6.12-4.12-6.12-.73,0-1.47.15-2.22.2v-2.73c2.86-.68,5.72-1.43,8.52-2.18,2.58-.67,4.75-1.5,6.41-1.5,3.2,0,2.76,4.23,2.76,6.47v48c0,4.45,2.54,4.64,9.42,5.26v2.66C483.4,309.12,471.61,309.66,459.64,309.66Zm-9.22-21c-6.13,0-14.91,1.08-14.91,9.47,0,4.21,1.92,7,6.32,7a8.35,8.35,0,0,0,7.58-5.51,16.74,16.74,0,0,0,1-6.35Z" transform="translate(-184.34 -118.85)"/><path d="M510.2,359.73l-27.51.42c.23,10.09,4.5,16.71,15.33,16.71a31.35,31.35,0,0,0,9-1.44V379a32,32,0,0,1-14.07,3c-12.78,0-22.67-8.38-22.67-21.48,0-12.94,9.67-20.91,22.21-20.91,10,0,17.92,6.87,17.92,17.11A29,29,0,0,1,510.2,359.73ZM492,343.54c-6.46,0-8.92,7.48-9.19,12.86l11-1.09c2.87-.28,4.63-.67,4.63-4C498.43,347.47,496.18,343.54,492,343.54Z" transform="translate(-184.34 -118.85)"/><path d="M427,271.56a10.9,10.9,0,0,0-6.41-2.58c-1.84,0-2.75,1.9-3.35,3.33a12.88,12.88,0,0,1,4.31,9.47c0,9.87-8.05,15.62-17.39,15.62a23.47,23.47,0,0,1-5.78-.55,10.45,10.45,0,0,1-4.15,3.13c.12,2,2.38,2.11,3.87,2.11,3.26,0,6.49-.26,9.68-.26,7.16,0,15.18,2.19,15.18,10.76,0,12.07-12.18,17.1-22.53,17.1-7.23,0-18.62-3.28-18.62-12.24,0-4.1,3.28-6.83,6.68-8.4-2.81-1.69-3.68-4.91-3.68-8a11.36,11.36,0,0,1,.15-1.64c2.79-.33,8-1.7,9.82-3.88-5.62-2.19-8.82-6.55-8.82-12.61,0-10.29,8.87-15.28,18.2-15.28a19.81,19.81,0,0,1,10.56,2.8c1.1-4.27,4.44-7.28,8.95-7.28,1.82,0,5.7.55,5.7,3.06A8.58,8.58,0,0,1,427,271.56Zm-23.51.33c-4.91,0-7,4-7,9.21,0,6.08,1.56,12.07,7.62,12.07,4.92,0,6.88-3.82,6.88-9.13C411,278.38,409.42,271.89,403.49,271.89ZM406.54,311c-3.55,0-5.26.35-8.79.35a21.59,21.59,0,0,1-6.19-.75,6.75,6.75,0,0,0-2.33,4.43c0,5.64,5.47,7.76,13.39,7.76,8.89,0,14.21-2.87,14.21-7.16C416.83,310.9,410.36,311,406.54,311Z" transform="translate(-184.34 -118.85)"/><path d="M382.1,288.2l-27.53.4c.28,10,4.5,16.7,15.41,16.7a30.45,30.45,0,0,0,8.87-1.44v3.5a30.91,30.91,0,0,1-14,3c-12.81,0-22.69-8.33-22.69-21.42s9.6-21,22.13-21c10.11,0,17.95,6.87,17.95,17.09C382.26,286.09,382.19,287.18,382.1,288.2Zm-18.19-16.31c-6.4,0-8.94,7.58-9.21,12.89l11-1c2.84-.28,4.64-.77,4.64-4C370.34,275.92,368.09,271.89,363.91,271.89Z" transform="translate(-184.34 -118.85)"/><path d="M418.6,359.73l-27.53.42c.3,10.09,4.53,16.71,15.43,16.71a30.87,30.87,0,0,0,8.84-1.44V379a31.79,31.79,0,0,1-14,3c-12.81,0-22.67-8.38-22.67-21.48,0-12.94,9.57-20.91,22.14-20.91,10.06,0,17.92,6.87,17.92,17.11C418.75,357.63,418.67,358.73,418.6,359.73Zm-18.17-16.19c-6.41,0-8.92,7.48-9.15,12.86l10.93-1.09c2.85-.28,4.62-.67,4.62-4C406.83,347.47,404.59,343.54,400.43,343.54Z" transform="translate(-184.34 -118.85)"/><path class="e" d="M516.1,136.29a38.67,38.67,0,0,0-3.59,5.33c-23.66,43-8.05,84.77-8.05,84.77a24.49,24.49,0,0,1,5.15-5.77c17.93-15.87,41.8-13.33,41.8-13.33s-14.36-28-17.49-34.09S516.1,136.29,516.1,136.29Z" transform="translate(-184.34 -118.85)"/><path class="e" d="M508.09,144.34a75.21,75.21,0,0,1,5.61-8.24s-24.13,12.58-41.09,41.58c-18.1,31-14.06,56.32-14.06,56.32s9.5-8.47,26.27-8.42c9.8,0,13.2,2,13.2,2S483.83,186.64,508.09,144.34Z" transform="translate(-184.34 -118.85)"/><path class="e" d="M516.1,136.29a38.67,38.67,0,0,0-3.59,5.33c-23.66,43-8.05,84.77-8.05,84.77a24.49,24.49,0,0,1,5.15-5.77c17.93-15.87,41.8-13.33,41.8-13.33s-14.36-28-17.49-34.09S516.1,136.29,516.1,136.29Z" transform="translate(-184.34 -118.85)"/><path class="f" d="M618.19,272.22s-1.16-.62-3.41.68c-2,1.22-1.78,2.51-1.78,2.51a2,2,0,0,1,.09.2A81.51,81.51,0,0,1,617,283c1.06,2.4,1.31,5.56-2.41,8.14a9.25,9.25,0,0,1-8.74.77,7.46,7.46,0,0,1-2.61-2.34C602,287.79,586.44,259,586.44,259l-25.8-47.73a4.38,4.38,0,0,1-.53-1.73,3.74,3.74,0,0,1,.69-1.79c16.76-27,48-24.18,48-24.18a38.94,38.94,0,0,1,.75-8.24c5.18-26.2,36.8-31.92,36.8-31.92a118.4,118.4,0,0,0-31.43-16.81c-13.87-5-25.16-7.65-42.56-7.66-20.44,0-38.39,6.15-40.47,6.79a116.53,116.53,0,0,0-14.15,6.13l-7.74-12s-.3-.18-.87.12a.84.84,0,0,0-.52.65l5.07,13.2s-1.83.91-4.1,2.28c-4.2,2.56-10.95,6.61-21.6,16.82-6.44,6.17-15.58,17.43-22.67,30.36-16.5,30.19-12.63,60.82-12.63,60.82s13-13.68,32.34-13.49c12.18.12,19.25,3.86,19.25,3.86a43,43,0,0,1,8.25-9.85c9.93-8.87,25.22-12.59,36.49-12.5a17.68,17.68,0,0,1,4.69.37,2.55,2.55,0,0,1,1.14.85l42.46,78A13.12,13.12,0,0,0,610,298.64c9.24-.38,13.89-6.71,13.89-13,0-5.2-4.7-11.83-5.61-13.3Zm-46.7-150.74c32.88.3,61.5,20.82,61.5,20.82s-8.7,2.57-17.42,11.28-10.43,18.22-10.43,18.22-23.65-29.22-67.35-37.35c-11.2-2.07-17.88-1.34-17.88-1.34S540.74,121.18,571.49,121.48Zm-86.67,104.1c-16.77-.05-26.27,8.42-26.27,8.42s-4-25.35,14.06-56.32c17-29,41.09-41.58,41.09-41.58a75.21,75.21,0,0,0-5.61,8.24C483.83,186.64,498,227.62,498,227.62S494.62,225.6,484.82,225.58Zm24.79-5a24.49,24.49,0,0,0-5.15,5.77s-15.61-41.72,8.05-84.77a38.67,38.67,0,0,1,3.59-5.33s14.72,30.84,17.82,36.91,17.49,34.09,17.49,34.09S527.54,204.75,509.61,220.62Zm25.64-54c-1.3-2.4-17.2-31.55-17.2-31.55s19.93-2.36,48.68,13.13a110.83,110.83,0,0,1,35.16,30.5S579,177.35,561.64,198c-3.52,4.17-4.27,6.15-4.27,6.15S538.22,172.06,535.25,166.6Z" transform="translate(-184.34 -118.85)"/><path class="g" d="M184.34,400.29h4.81v22.47h-4.81Z" transform="translate(-184.34 -118.85)"/><path class="g" d="M192.71,400.36h6.94l8.4,17.63V400.36h4.46v22.4h-6.6l-8.68-18.59v18.59h-4.52Z" transform="translate(-184.34 -118.85)"/><path class="g" d="M219.57,400.45,225.42,418l5.89-17.57h4.74l-8.24,22.31h-5.24l-8.24-22.31Z" transform="translate(-184.34 -118.85)"/><path class="g" d="M238,400.36h15V404H242.8v5.33h9.54V413H242.8v6h10.54v3.72H238Z" transform="translate(-184.34 -118.85)"/><path class="g" d="M260,415.6c0,1-.06,4.25,4.06,4.25,2.6,0,4.25-1.24,4.25-3.13s-1.4-2.33-4.25-3c-5.33-1.33-8.24-2.91-8.24-6.79,0-3.68,2.63-6.94,8.86-6.94,2.32,0,5.08.53,6.76,2.64a6.45,6.45,0,0,1,1.27,4.15h-4.62a3.32,3.32,0,0,0-3.63-3.41c-2.23,0-3.68,1.21-3.68,3,0,2.07,1.64,2.45,4.86,3.25,3.88.93,7.69,2,7.69,6.35,0,4-3.35,7.29-9.55,7.29-8.58,0-8.64-5.52-8.67-7.69Z" transform="translate(-184.34 -118.85)"/><path class="g" d="M280.54,404.07h-6.67v-3.71H292v3.71h-6.66v18.69h-4.83Z" transform="translate(-184.34 -118.85)"/><path class="g" d="M293.61,400.36h7.84l4.74,16.29,5.11-16.29h7.62v22.4h-4.77V403.55l-6.1,19.21h-4l-6-19.21v19.21h-4.49Z" transform="translate(-184.34 -118.85)"/><path class="g" d="M322.66,400.36h15V404H327.47v5.33H337V413h-9.54v6H338v3.72H322.66Z" transform="translate(-184.34 -118.85)"/><path class="g" d="M340.91,400.36h6.94l8.4,17.63V400.36h4.46v22.4h-6.6l-8.68-18.59v18.59h-4.52Z" transform="translate(-184.34 -118.85)"/><path class="g" d="M369.26,404.07h-6.67v-3.71h18.16v3.71h-6.66v18.69h-4.83Z" transform="translate(-184.34 -118.85)"/><path class="g" d="M390.32,400.36h7.84l4.74,16.29L408,400.36h7.63v22.4h-4.78V403.55l-6.1,19.21h-4l-6-19.21v19.21h-4.49Z" transform="translate(-184.34 -118.85)"/><path class="g" d="M431,400.36l7.77,22.4H434l-1.61-4.84H423.5l-1.68,4.84h-4.58l8.08-22.4Zm.12,13.94-3.1-9.54-3.31,9.54Z" transform="translate(-184.34 -118.85)"/><path class="g" d="M441.06,400.36H448L456.4,418V400.36h4.46v22.4h-6.6l-8.67-18.59v18.59h-4.53Z" transform="translate(-184.34 -118.85)"/><path class="g" d="M476.25,400.36l7.78,22.4H479.2l-1.61-4.84h-8.87l-1.67,4.84h-4.59l8.09-22.4Zm.13,13.94-3.1-9.54L470,414.3Z" transform="translate(-184.34 -118.85)"/><path class="g" d="M500.61,407.23A4.2,4.2,0,0,0,500,405a4.27,4.27,0,0,0-3.75-1.73c-5.45,0-6.54,5.08-6.54,8.52,0,1.52.22,4.24,1.86,6,1.12,1.24,2.61,1.92,5.27,1.92a11.06,11.06,0,0,0,3.66-.43v-4.71h-4.34v-3.72h9.14V422a23.26,23.26,0,0,1-8.18,1.23c-5.11,0-7.75-1.23-9.51-3-2.51-2.45-3-6-3-8.37,0-7.93,5-12.17,11.75-12.17,2.88,0,5.85.8,7.62,2.82a6.78,6.78,0,0,1,1.61,4.67Z" transform="translate(-184.34 -118.85)"/><path class="g" d="M509.22,400.36h15V404H514v5.33h9.54V413H514v6h10.53v3.72H509.22Z" transform="translate(-184.34 -118.85)"/><path class="g" d="M527.09,400.36h7.84l4.74,16.29,5.12-16.29h7.62v22.4h-4.77V403.55l-6.11,19.21h-4l-6-19.21v19.21h-4.5Z" transform="translate(-184.34 -118.85)"/><path class="g" d="M556.15,400.36h15V404H561v5.33h9.54V413H561v6h10.53v3.72H556.15Z" transform="translate(-184.34 -118.85)"/><path class="g" d="M574.39,400.36h7L589.73,418V400.36h4.47v22.4h-6.61l-8.67-18.59v18.59h-4.53Z" transform="translate(-184.34 -118.85)"/><path class="g" d="M602.74,404.07h-6.66v-3.71h18.16v3.71h-6.67v18.69h-4.83Z" transform="translate(-184.34 -118.85)"/></svg>