<svg xmlns="http://www.w3.org/2000/svg" viewBox="0 0 593.88 222.05"><defs><style>.a{fill:#231f20;}.b{fill:#7399c6;}.c{fill:#fff;}</style></defs><path class="a" d="M420.55,215.48h-.12L416.32,234h8.57Zm-17.31,34.67,11.89-42.94H427l11.66,42.94h-9.46l-2.38-9.51H414.54l-2.44,9.51Z" transform="translate(-124.3 -156.06)"/><path class="a" d="M449.63,240.52a8.53,8.53,0,0,0,.42,3.63c.47.95,1.37,1.42,3,1.42a2.93,2.93,0,0,0,3.09-3.09c0-6.36-14.74-4.93-14.74-14.51,0-6.48,6.42-8.45,11.83-8.45,5.71,0,10.88,2.74,10.41,9.22h-8.21c0-2.08-.24-3.33-.83-3.86a2.81,2.81,0,0,0-2.14-.66c-1.85,0-2.86,1.19-2.86,3.21,0,4.76,14.75,4.52,14.75,14.16,0,5.23-4.28,9.16-11.24,9.16-7.31,0-12.19-1.85-11.71-10.23Z" transform="translate(-124.3 -156.06)"/><path class="a" d="M477.53,240.52a8.38,8.38,0,0,0,.42,3.63c.47.95,1.36,1.42,3,1.42a2.93,2.93,0,0,0,3.09-3.09c0-6.36-14.75-4.93-14.75-14.51,0-6.48,6.42-8.45,11.83-8.45,5.71,0,10.89,2.74,10.41,9.22h-8.2c0-2.08-.24-3.33-.84-3.86a2.79,2.79,0,0,0-2.14-.66c-1.84,0-2.85,1.19-2.85,3.21,0,4.76,14.75,4.52,14.75,14.16,0,5.23-4.29,9.16-11.24,9.16-7.32,0-12.2-1.85-11.72-10.23Z" transform="translate(-124.3 -156.06)"/><path class="a" d="M513,231.77c0-2.91.11-7.07-3.87-7.07s-3.81,4.52-3.81,7.07Zm-7.68,4.7c0,3.57.12,8.92,3.81,8.92,3,0,3.57-2.85,3.57-5.35h8.5a10.73,10.73,0,0,1-3.21,7.8c-2,1.84-4.94,2.91-8.86,2.91-10.83,0-12.25-6.6-12.25-16,0-8.21,1.19-15.22,12.25-15.22,11.3,0,12.55,7.31,12.25,16.94Z" transform="translate(-124.3 -156.06)"/><path class="a" d="M525.46,220.12h3.4v-4.76l8.38-3.75v8.51h4.34v5.17h-4.34v16.06c0,2.26-.06,3.75,2.68,3.75a5.81,5.81,0,0,0,1.49-.12v5.18a36.51,36.51,0,0,1-4.35.29c-7.25,0-8.2-4.82-8.2-6.66v-18.5h-3.4Z" transform="translate(-124.3 -156.06)"/><polygon class="a" points="278.94 155.78 278.94 112.84 293.4 112.84 300.12 142.04 300.24 142.04 307.37 112.84 321.35 112.84 321.35 155.78 312.61 155.78 312.61 122.65 312.49 122.65 304.22 155.78 295.65 155.78 287.81 122.65 287.69 122.65 287.69 155.78 278.94 155.78"/><path class="a" d="M459.57,302.5c0,2.14.35,4.76,3.09,4.76,4.94,0,4.16-6.67,4.16-9.94-4.16.18-7.25-.18-7.25,5.18M475,306.24a55.52,55.52,0,0,0,.42,5.6h-7.79l-.36-4h-.12a8.33,8.33,0,0,1-7.85,4.58c-5.83,0-8-4.34-8-9.58,0-9.93,7.67-10.34,15.46-10.22V290.3c0-2.55-.36-4.4-3.39-4.4s-3.15,2.2-3.15,4.58h-8.21c0-3.62,1.13-5.94,3.1-7.31s4.63-2,7.84-2c10.65,0,12,4.58,12,10.06Z" transform="translate(-124.3 -156.06)"/><path class="a" d="M490.08,284.83h.12a6.89,6.89,0,0,1,3-2.79,9,9,0,0,1,4.11-.84c4,0,7.49,2.38,7.49,6.55v24.09h-8.39v-20.7c0-2.68-.47-4.76-3.15-4.76s-3.15,2.08-3.15,4.76v20.7h-8.39v-30h8.39Z" transform="translate(-124.3 -156.06)"/><path class="a" d="M518.45,302.5c0,2.14.35,4.76,3.09,4.76,4.94,0,4.17-6.67,4.17-9.94-4.17.18-7.26-.18-7.26,5.18m15.46,3.74c0,1.85.24,3.75.42,5.6h-7.79l-.36-4h-.12a8.32,8.32,0,0,1-7.85,4.58c-5.83,0-8-4.34-8-9.58,0-9.93,7.67-10.34,15.47-10.22V290.3c0-2.55-.36-4.4-3.4-4.4s-3.15,2.2-3.15,4.58H511c0-3.62,1.12-5.94,3.09-7.31s4.64-2,7.85-2c10.65,0,12,4.58,12,10.06Z" transform="translate(-124.3 -156.06)"/><path class="a" d="M551.7,306.25c3,0,3.45-3.16,3.45-9.52,0-6.6-.3-10.35-3.39-10.35s-3.69,2.2-3.69,11.36c0,2.79-.42,8.51,3.63,8.51m11.83-24.45v31.28c0,2.08.12,10.3-11.42,10.3-6.24,0-11.6-1.61-11.77-8.93h8.21a5.18,5.18,0,0,0,.71,3,3.19,3.19,0,0,0,2.79,1.18c2.09,0,3.1-2,3.1-5v-5.77H555a6.92,6.92,0,0,1-6.37,3.51c-9.21,0-8.8-8.45-8.8-15.23,0-6.6.12-15,8.87-15a6.86,6.86,0,0,1,6.71,4.11h.12V281.8Z" transform="translate(-124.3 -156.06)"/><path class="a" d="M586,293.46c0-2.92.11-7.08-3.87-7.08s-3.81,4.52-3.81,7.08Zm-7.68,4.7c0,3.56.12,8.92,3.81,8.92,3,0,3.57-2.86,3.57-5.36h8.5a10.69,10.69,0,0,1-3.21,7.8c-2,1.84-4.94,2.91-8.86,2.91-10.82,0-12.25-6.6-12.25-16,0-8.21,1.19-15.22,12.25-15.22,11.3,0,12.55,7.31,12.25,17Z" transform="translate(-124.3 -156.06)"/><path class="a" d="M609,284.83h.11c1.67-2.67,3.93-3.63,7.08-3.63a7.49,7.49,0,0,1,6.72,3.81,8.91,8.91,0,0,1,7.79-3.81c4,0,7.5,2.38,7.5,6.55v24.09h-8.39v-20.7c0-2.68-.48-4.76-3.15-4.76s-3.15,2.08-3.15,4.76v20.7h-8.21v-20.7c0-2.68-.48-4.76-3.15-4.76s-3.15,2.08-3.15,4.76v20.7h-8.39v-30H609Z" transform="translate(-124.3 -156.06)"/><path class="a" d="M659.89,293.46c0-2.92.11-7.08-3.87-7.08s-3.81,4.52-3.81,7.08Zm-7.68,4.7c0,3.56.12,8.92,3.81,8.92,3,0,3.57-2.86,3.57-5.36h8.5a10.69,10.69,0,0,1-3.21,7.8c-2,1.84-4.93,2.91-8.86,2.91-10.82,0-12.25-6.6-12.25-16,0-8.21,1.19-15.22,12.25-15.22,11.3,0,12.55,7.31,12.25,17Z" transform="translate(-124.3 -156.06)"/><path class="a" d="M682.91,284.83H683a7,7,0,0,1,3-2.79,9.05,9.05,0,0,1,4.11-.84c4,0,7.49,2.38,7.49,6.55v24.09h-8.38v-20.7c0-2.68-.48-4.76-3.15-4.76s-3.15,2.08-3.15,4.76v20.7h-8.39v-30h8.39Z" transform="translate(-124.3 -156.06)"/><path class="a" d="M702.06,281.8h3.39V277l8.38-3.75v8.51h4.35V287h-4.35V303c0,2.27-.06,3.75,2.68,3.75a5.77,5.77,0,0,0,1.49-.12v5.17a34.07,34.07,0,0,1-4.34.3c-7.26,0-8.21-4.82-8.21-6.66V287h-3.39Z" transform="translate(-124.3 -156.06)"/><rect class="b" width="222.04" height="222.05"/><path class="c" d="M185.23,192.22c0,5.73,0,10.88-1.13,13.29a3.15,3.15,0,0,1-5.78,0c-1.14-2.41-1.13-7.56-1.13-13.29s0-10.87,1.13-13.28a3.15,3.15,0,0,1,5.78,0c1.13,2.41,1.13,7.55,1.13,13.28m3-13.5a10.51,10.51,0,0,0-7-2.77,10.08,10.08,0,0,0-6.93,2.94c-2.85,2.58-5.37,7.08-5.37,13.33,0,5.72,2,10.72,5.3,13.51a10.24,10.24,0,0,0,14,0c3.33-2.79,5.29-7.79,5.29-13.51s-2-10.71-5.29-13.5" transform="translate(-124.3 -156.06)"/><path class="c" d="M318.14,207.89h-8V176.5h7.42V180A7.64,7.64,0,0,1,324,176c5.12-.36,8.49,2.75,8.49,9.36v22.58h-8V183.65c0-2.63-.08-5-1.93-5.44a3.12,3.12,0,0,0-2.73.64c-1.35,1.2-1.71,2.64-1.71,4.82Z" transform="translate(-124.3 -156.06)"/><path class="c" d="M295.64,188.69l-2.55,1.65c-2.67,1.59-3.15,3.64-3.35,6a48.49,48.49,0,0,0,0,7.36c.2,2.68,1.8,3.19,3.21,2.62,1.74-.71,2.69-3.28,2.69-6.31Zm4.55-11.28c2.21,1.32,3.45,3.12,3.45,7.23v23.25H295.9v-3.11c-1,2.17-3.21,3.64-6.7,3.64-3,0-7.77-1.3-7.77-8.55,0-6.67,4.48-8.09,9.17-10.14s5-2.29,5-4v-5.62c0-2.1-1.23-3.05-3.54-2.91-.89.06-2.48.54-2.57,1.67-.12,1.54,1.39,1.81,1.61,4,.3,3.07-2.26,4.38-4.6,4.26a3.78,3.78,0,0,1-3.75-3.67c-.28-4,4.39-7.5,11-7.5a11.92,11.92,0,0,1,6.38,1.45" transform="translate(-124.3 -156.06)"/><path class="c" d="M184,230.42l-2.56,1.64c-2.66,1.6-3.13,3.64-3.35,6a49.83,49.83,0,0,0,0,7.36c.19,2.67,1.8,3.19,3.23,2.59,1.73-.68,2.68-3.26,2.68-6.29Zm4.55-11.28c2.21,1.32,3.45,3.12,3.45,7.22v23.27h-7.74v-3.12c-1,2.16-3.21,3.63-6.7,3.63-3,0-7.76-1.3-7.76-8.55,0-6.67,4.47-8.09,9.17-10.13s5-2.3,5-4v-5.61c0-2.11-1.23-3.06-3.53-2.92-.91.06-2.49.55-2.59,1.67-.12,1.54,1.4,1.82,1.61,4,.31,3.08-2.26,4.39-4.58,4.27a3.78,3.78,0,0,1-3.76-3.67c-.29-4,4.39-7.51,11-7.51a12,12,0,0,1,6.39,1.46" transform="translate(-124.3 -156.06)"/><path class="c" d="M276.91,207.89V185.31c0-6.61-3.28-9.72-8.4-9.36a7.26,7.26,0,0,0-6.44,4.55c-1.29-3.29-4-4.8-7.6-4.55a7.33,7.33,0,0,0-6.24,4.09V176.5H241v31.39h7.8V183.67c0-2.18.38-3.66,1.72-4.82a2.65,2.65,0,0,1,2.54-.64c1.83.49,1.92,2.81,1.92,5.44v24.24h7.89V183.6c0-2.18.31-3.56,1.7-4.75a2.67,2.67,0,0,1,2.54-.64c1.83.49,1.92,2.81,1.92,5.44v24.24Z" transform="translate(-124.3 -156.06)"/><rect class="c" x="73.78" y="13.97" width="8.08" height="37.86"/><path class="c" d="M224.61,178.68c1.65,2.42,1.78,8.34,1.78,12.86s.26,11.29-1.68,13.76a2.67,2.67,0,0,1-2.48,1.38c-1.61,0-2.7-1.73-3-4.94-.31-2.76-.39-6.75-.39-10.41,0-4.88.25-8.5,1.26-11.56.37-1.11,1.16-2.31,2.31-2.31a2.44,2.44,0,0,1,2.25,1.22m9.59,29.21V170h-8v8.91a5,5,0,0,0-4.77-2.83c-5.9,0-10.51,6.14-10.74,15.36-.16,6.2,2,16.76,10,16.76,3.44,0,4.82-1.54,5.82-3.71v3.37Z" transform="translate(-124.3 -156.06)"/><path class="c" d="M266.46,217.69v9h-1.13c-.79-3.69-2.56-7.77-6.54-7.9-2-.07-4.46,1.12-4.64,3.52s.66,4.21,4.78,6.6c5.16,3,9.46,4.43,9.46,10.67,0,7.33-5.66,10-11.58,10h-8.38V238.68h1.09c1.59,6.58,3.25,9.72,8.07,9.72,2.89,0,4.92-2,4.92-5.21,0-2.93-2-4.91-6.37-7.5-4.79-2.83-8-4.66-8-9.25,0-4.74,3.58-8.75,9.93-8.75h8.42" transform="translate(-124.3 -156.06)"/><path class="c" d="M243.07,249.63h-8V225.38c0-2.63-.07-5-1.9-5.44a3.08,3.08,0,0,0-2.73.64c-1.35,1.2-1.71,2.63-1.71,4.82v24.23h-8v-9c-1.17,4.19-4.78,9.55-10.82,9.55-4.95,0-13.42-2.34-13.42-15.91,0-12.62,8.33-16.54,12.74-16.59,3.43,0,5.65,1.06,7.17,3.29a5.69,5.69,0,0,1-.28,6.65c-2,2.17-6.36,1.81-7.25-1.14-.8-2.68.85-4.29,1.93-5.57.64-.76.54-2.12-1.66-2.12-2.94,0-3.68,3.37-4,6a72.07,72.07,0,0,0,0,17.69c.46,3.23,1.37,6.24,5.52,6.29,5.32.07,9.75-7.41,10-14.23V211.76h8v9a7.82,7.82,0,0,1,5.85-3.11c5.12-.37,8.47,2.73,8.47,9.35Z" transform="translate(-124.3 -156.06)"/><path class="c" d="M164.18,169.38v12H163c-1.35-5.63-4.2-10.83-8.89-10.89-2.86,0-4.57,1.33-5.89,3.74-1.43,2.57-2.14,8.78-2.14,15.61,0,6.31.27,11.37,1.08,14.74.41,1.68,1.45,4.24,4.51,4.24a4.68,4.68,0,0,0,3.56-1.43c1.24-1.27,1.45-4,1.45-6V194.7c0-2.27-.85-3.7-1.95-4.37a7,7,0,0,0-3.1-.65v-1.14h13v32.29h-1.3A19.44,19.44,0,0,0,161,214a8.25,8.25,0,0,0-6.9-4.2c-3.73,0-6.55,2.27-6.55,6,0,4.54,2.71,5.71,7.94,8.56,4.79,2.62,11.17,4.77,11.17,12.85,0,7.62-6,12.44-13.72,12.44h-13v-14.9h1.3c2,12.33,8.1,13.69,11.54,13.64,4.64-.05,6.13-3.54,6-7.51-.16-4.17-3.49-6-8.67-8.92-6.8-3.82-10.28-5.72-10.12-12.05.12-5.32,4.47-8.87,9.53-10.21-10.31-1.23-13.27-10.33-13.17-20.08s5.9-20.22,17.18-20.22Z" transform="translate(-124.3 -156.06)"/></svg>