<svg xmlns="http://www.w3.org/2000/svg" viewBox="0 0 271.75 227.7"><defs><style>.a{fill:#001a70;}</style></defs><title>logo-invesco</title><polygon class="a" points="139.24 0 114.39 4.97 99.45 29.87 89.51 49.83 69.62 69.76 69.62 79.72 54.72 94.66 49.76 89.69 9.95 109.62 0 114.57 0 134.69 10.87 140.13 29.84 130.57 54.72 134.52 54.72 144.49 54.72 154.45 69.66 159.45 89.51 139.52 104.42 139.52 104.42 149.45 99.45 159.42 106.41 169.38 129.32 159.45 124.33 144.49 129.29 119.59 139.25 119.58 139.24 129.52 154.17 134.52 159.15 149.48 169.11 159.45 179.02 149.5 208.86 139.49 198.91 129.55 188.96 109.62 179.02 109.62 183.99 124.58 188.96 129.56 179.02 139.52 169.09 139.52 159.13 119.59 159.13 109.62 139.24 89.66 149.19 79.7 129.32 59.79 139.24 49.83 139.24 29.9 149.19 19.92 164.12 34.87 159.13 49.8 169.07 59.77 188.96 89.69 208.86 99.63 233.74 124.56 248.65 129.54 248.64 139.52 258.58 139.52 268.53 129.55 248.64 119.56 243.68 104.63 228.75 99.66 198.91 79.72 169.07 49.8 169.07 29.87 149.19 9.94 149.19 0 139.24 0"/><path class="a" d="M164.45,218.4c4.08,0,6.53-1.65,6.53-3.66,0-2.89-4.4-3.39-6.41-3.77-8.15-1.54-17.69-3.07-17.69-13.55,0-7.83,8-12.82,17.26-12.82,5.2,0,11.18,2.21,15.27,4.8l-5.56,7.48c-3.41-1.72-7.39-3-9.87-3-4.73,0-6.5,1.24-6.5,2.94,0,2.9,6,3.44,9.05,4.18,7.56,1.78,15.11,3.91,15.11,13.24,0,8.63-9,13.44-17.82,13.44-6.54,0-13-2.83-17.41-5.76l5.37-7.33c3.91,2,8.08,3.79,12.67,3.79"/><polygon class="a" points="0 226.82 0 174.79 10.88 169.35 10.88 226.82 0 226.82"/><path class="a" d="M56.17,226.82H45.3V204.44c0-7.4-2.52-9.61-7-9.61s-7.09,2.21-7.09,9.37v22.62H20.32V185.46H31.19v2.75a13.56,13.56,0,0,1,9.7-3.62c10.55,0,15.28,7.25,15.28,18.92Z"/><path class="a" d="M100.71,185.46,85.82,226.83H74.63L59.74,185.46h12l6.07,19.15c1,3.15,2.13,7.08,2.61,9.06.47-2.06,1.57-5.84,2.59-9.06l6.07-19.15Z"/><path class="a" d="M123.18,227.69c-12.07,0-20.69-8.43-20.69-21.5,0-12.69,8.83-21.59,19.7-21.59,11.54,0,18.84,9.76,18.84,21.59a32.93,32.93,0,0,1-.16,3.47H113.64c.75,5.38,5.24,7.79,9.54,7.79a9.73,9.73,0,0,0,7.69-3.66l8.35,6.11c-4.49,6.14-11.66,7.79-16,7.79m7-26.24c-.56-4-3.11-7.4-8.35-7.4-4.1,0-7.29,3.22-8,7.4Z"/><path class="a" d="M207.9,195.07c-6.12,0-10.52,5-10.52,11.11s4.4,11,10.52,11a10.18,10.18,0,0,0,8.82-4.89l8.72,6.36a21.56,21.56,0,1,1,.05-25l-8.74,6.41a10.13,10.13,0,0,0-8.85-5.06"/><path class="a" d="M271.75,206.18a21.55,21.55,0,1,1-21.55-21.6,21.51,21.51,0,0,1,21.55,21.6m-11,0c0-6.11-4.4-11.11-10.52-11.11s-10.52,5-10.52,11.11,4.41,11,10.52,11,10.52-4.92,10.52-11"/></svg>