<svg xmlns="http://www.w3.org/2000/svg" viewBox="0 0 707.76 307.92"><defs><style>.a{fill:#10283f;}.b{fill:#e97414;}</style></defs><path class="a" d="M677,211c13.77-7.55,23.08-21.81,23.08-38.16,0-24.23-20.41-43.88-45.58-43.88H602.16V260.72h28.51v-44h18.82l27.23,44h31Zm-20.48-20.73H630.67V155.38h25.84c8.49,0,15.35,7.82,15.35,17.44s-6.86,17.43-15.35,17.43m-165.3,70.47h88.11V234.28H519.73V208.05h55.43V181.61H519.73V155.38h59.59V128.94H491.21ZM378.31,155.38h34.87V260.72H441.7V155.38h34.86V128.94H378.31ZM333.58,260.72h28.51V129H333.58ZM269.34,128.94H217V260.72h28.52v-44h23.82c25.17,0,45.58-19.64,45.58-43.88s-20.41-43.88-45.58-43.88m2,61.31H245.52V155.38h25.85c8.48,0,15.34,7.82,15.34,17.44s-6.86,17.43-15.34,17.43M164,206.57c0,15.24-11.78,27.67-26.32,27.67s-26.32-12.43-26.32-27.67V128.88H82.79v79a54.91,54.91,0,0,0,109.82,0v-79H164ZM31.82,223.13c0,11.89-11.71,16.41-20.15,11.69L0,258.7c24.48,11.25,60.93.5,60.93-37.43V128.88H31.82Z"/><path class="b" d="M299.15,54.48c-1.73-.79-4.15-2.91-7.64-3.77-2.49-.61-31.3-8.64-27.16-6.67A207.73,207.73,0,0,0,286,52c30,8.66,15.87,3.74,13.16,2.5M249.81,70.53c-4-2.26-5.3-1.48-8.07-1.78-.94-.11-3-.54-3.32-.46-1,.3,3.22,1.92,3.81,2.07,8.12,2,2.54,2,14,4.15,1.68.31,10.49,3.66,12.29,3.56s-6.73-2.77-7.87-3.8c-2.11-1.89-7.89-2.1-10.79-3.74M262,81.8c.61.35,1,.88,1.64,1.23,1.19.72,5.07,1.35,7.59,2,10.94,3,9.19,3.74,19.81,5,1.5.18,2.63.51,2.83.45,1.95-.56-41.27-13.81-41.32-13.78-.78.43,6.42,3,9.45,5m76.64,26.53a45.26,45.26,0,0,1-4.86-2.55c-3.07-1.37-6.19-.2-12.37-2.06-.06,0-24.2-8-20.26-5.52,1.42.9-1.1-.71,16.31,6,2.5,1-1,.76,1.53,1.6,7.4,2.43,10.37.94,12.82,2.28,5.25,2.86,9.73,1.35,6.83.3m-123.66,0h6.77c-1.73-1.08-5-3.93-8.22-4.18.44,1.41.92,2.8,1.45,4.19m16.39-11.62c1.13-1.92,27.39,10.08,30.69,8.48,1-.51-6.84-2.17-12.75-4.26-20.82-7.38-32-11.57-39.23-14.23a81.33,81.33,0,0,0,1.78,11.35,61.07,61.07,0,0,1,18,5.33c3.07,1.5,4.09.77,11.07,3.45,4.81,1.86,3.11,3,24,3,7.9,0-3.72-1-15.86-6.19-7.28-3.12-18.14-6.12-17.71-6.88M286.07.09c2.53.5,7.75,2.79,8.88,3.13,3.68,1.11,4.89,0,10,2.36,5.31,2.5,11.29,3.72,16.7,6.12,6,2.7,12.83,8.12,11.65,8.54-.15,0-10.64-2.24-16.32-3.93-19.37-5.77-18.61-7.25-30.83-10.91-6.68-2-10-2.56-9.89-1.91C276.1,5.26,290,8.05,299.85,14.1c2.09,2.09,21.91,7.92,28,8.92,10.39,1.69,10.61,3.08,7.2,3.2-11.17.4-20.75-4.69-31.06-6.32-3.36-.54-7.09-1.33-7.44-.49,0,.58,4.27,1.44,5.27,1.82,27,10.08,23.91,12,36.36,17.7,8.85,4,10.72,7.66,9.21,7C329.26,37.31,325,40.46,312.63,32c-15.77-10.73-13.42-7.66-26.21-10.77C278,19.2,269.9,15,261.18,14.06c-8.18-.91,2-3.22,18.59-.33,6.81,1.12,6.66.84,8.42,1.26a17.63,17.63,0,0,0,3.53.75c1.31-.12-.65-1.29-.91-1.44-1-.53-2.15-.79-3.2-1.23-18.5-7.69-21.75-4.54-21.14-6.58.31-1,7.23-.4,8.58-.91,1.06-.4-2-1.42-2.44-1.7-.85-.38-.92-1.14-1.82-1.61A79.63,79.63,0,0,0,246.7,12.58c13.74,4.61,58.12,15.33,58.87,18.73.13.62-47.84-11.91-61-17.29-1.73,1.18-3.4,2.43-5,3.74,12.79,6,116.44,34,110.77,34.3-13.67.88-42.14-11.63-68.33-16.24-13.83-2.44-15.61-3.77,37.12,12.57,16,5,36.94,13.62,35.8,15-.57.74-35.89-12.27-84.73-25-6.61-1.71-13-4.45-19.53-6.42-6-1.79-13.05-4.11-17.3-8.7a82.16,82.16,0,0,0-6.22,7c2.42.81,6,.09,7.18.29,3.47.6,1.67,2.29,10,2.18S345.36,64.07,351,68c1.44,1,5.6,4.37,6.36,5.63,1.37,2.24-2.11-.52-48.42-13.88-6.61-1.91-13.39-3-20-4.84s-12.74-4.29-19.21-6.06c-3.43-1-7.05-1.25-10.41-2.33-2.62-.85-5-2.22-7.69-3-26.8-7.44-25.72-7.27-25.73-6.88-.16,2.9,25.91,8.63,75.58,24.22,5.16,1.61,10.13,3.82,15.12,5.46,17.06,5.61-15.49,0-27-3.32-.05,0-11.34-3.42-23.43-6.12-10.71-2.39-9.52,1.09-27.71-5.67-4.51-1.65-9.58-3.18-16.8-1.34-.6.15-1.42.31-.37.84.86.43,2,.23,5.05.09,4.71-.21,6.14.61,10.23,3.13,6.52,4,10.2,3.34,18.95,5.29C269.3,62.38,274,67.92,304.69,78c10.46,3.55,25.09,7.76,38.65,14.36-10.27,1.55-21.07-6.23-37.09-9.17-1.53-.27-2.3-1.07-3.55-1.94-1.87-1.37-5.3-1.83-5.42-1.94-11.57-2.53-10.11-1.25-9.69-1.17,14.67,3,12.24,3.56,15.28,5.48s4.88.62,15.67,5.67c1.14.49,1,1.23-.44,1.25-.57,0-6.89-.76-7-.77a37.73,37.73,0,0,1-14.27-3.72c-.67-.33-19.68-9.07-20.45-8-.52.71,3,1.3,7,3.39,2.25,1.17,4.41,2.55,6.64,3.76,1.85,1,4,1.82,5.73,2.94C314,99.67,310.74,91,321.66,98.59c3.61,2.52,9.1,2.68,16.11,6.29,8.35,4.33-.64,3.45,26.78,3.45C385,54.48,343.33-2.58,286.07.09m28.66,105.58c-5.76-2-7.6-3-15.18-5.33,0,0-79.68-21.81-89.49-27.16,0,0-.28,3.66-.28,6.79,0,2.83,103.78,35.55,101.12,36-2.89.53-6.46-1.2-9.88.25,5.82,5.6,9.9-1.32,17.63,3.91,1.34.91,6.36.37,3.8-.75-13.39-5.87,1.93-1.36-30.27-12.79-8.92-3.16-11.13-3.94-8-3.35,37.5,7.88,31.66,11,42.82,10.58,2.52-.1,7.19-1.34,5.27-2.31s-12.46-4.12-17.57-5.87"/><path class="a" d="M231,274.11l-14,33.14h4l3.43-8.18H240.5l3.43,8.18h4l-14-33.14Zm-5.19,21.53,6.61-15.78,6.62,15.78Zm38.5-7.36c-4-1.76-6.8-3.1-6.8-6.42,0-2.9,2.57-5,5.61-5a6.27,6.27,0,0,1,6,3.77l3.09-1.76a9.69,9.69,0,0,0-9-5.42c-5.37,0-9.37,3.56-9.37,8.47,0,5.22,3.71,7.27,8.75,9.55,4.61,2.1,7.32,3.47,7.32,7.37,0,3.14-2.17,5.61-6.66,5.61a8.6,8.6,0,0,1-8.31-6l-3.2,1.48a11.63,11.63,0,0,0,11.47,7.94c6.8,0,10.41-3.95,10.41-9.09,0-5.61-3.19-7.89-9.27-10.55m27.31,0c-4-1.76-6.8-3.1-6.8-6.42,0-2.9,2.57-5,5.61-5a6.25,6.25,0,0,1,6,3.77l3.09-1.76a9.68,9.68,0,0,0-9-5.42c-5.36,0-9.36,3.56-9.36,8.47,0,5.22,3.71,7.27,8.75,9.55,4.61,2.1,7.33,3.47,7.33,7.37,0,3.14-2.19,5.61-6.66,5.61a8.61,8.61,0,0,1-8.33-6L279.06,300a11.59,11.59,0,0,0,11.44,7.94c6.81,0,10.43-3.95,10.43-9.09,0-5.61-3.19-7.89-9.28-10.55m20.84,3.17h14.13V288H312.49V277.52h15v-3.41H308.78v33.14h19.08v-3.42H312.49Zm20.61-13.93h9v29.73h3.71V277.52h9.05v-3.41H333.1Zm54.33,17.6-12.64-21h-3.44v33.14H375V281.48l12.41,20.2,12.36-20.26v25.83h3.67V274.11h-3.37Zm37.27-21-14,33.14h4l3.43-8.18h16.07l3.43,8.18h4l-14-33.14Zm-5.19,21.53,6.6-15.78,6.62,15.78Zm52.52,5-20-26.53h-3.24v33.14h3.72V280.43l20.25,26.82h3V274.11H472ZM497,274.11l-14,33.14h4l3.44-8.18h16.06l3.43,8.18h4l-14-33.14Zm-5.19,21.53,6.61-15.78L505,295.64Zm41.45-3h10.12v8.55a13.58,13.58,0,0,1-9.08,3.33c-7.8,0-13.56-5.9-13.56-13.79s5.76-13.8,13.56-13.8a13.26,13.26,0,0,1,9.13,3.48l2.33-2.57a16.56,16.56,0,0,0-11.46-4.32,17.22,17.22,0,1,0,0,34.43,17.3,17.3,0,0,0,12.8-5.47V289.17H533.23Zm26-1.16h14.13V288H559.21V277.52h15v-3.41H555.51v33.14h19.07v-3.42H559.21Zm39.64,3.67-12.66-21h-3.42v33.14h3.66V281.48l12.42,20.2,12.36-20.26v25.83h3.66V274.11h-3.38Zm29.64-3.67h14.13V288H628.49V277.52h15v-3.41H624.78v33.14h19.07v-3.42H628.49Zm46.81,9.19-20-26.53h-3.23v33.14h3.7V280.43L676,307.25h3V274.11H675.3ZM686,274.11v3.41h9v29.73h3.71V277.52h9v-3.41Z"/></svg>