<svg xmlns="http://www.w3.org/2000/svg" viewBox="0 0 704.7 190.73"><defs><style>.a{fill:#eb2027;}</style></defs><title>logo-santander</title><path class="a" d="M160.83,164.62H139.31l-4,11.77h-5.16L146.9,128.5a28,28,0,0,1,6.13-.63l17,48.52h-5.15ZM159.3,160,150.1,133,140.84,160Zm13.78,14.48a13.84,13.84,0,0,1,.7-4.24A24.28,24.28,0,0,0,185.12,173c5.37,0,8.64-1.67,8.64-5.64,0-4.18-3.83-5.64-7.18-6.68l-3.2-1c-6.2-1.89-9.6-5-9.6-10.59,0-6.2,4.73-9.47,12.6-9.47a30.48,30.48,0,0,1,11,1.81,18.62,18.62,0,0,1-.7,4.11,29.55,29.55,0,0,0-10.17-1.74c-5.35,0-8.07,1.74-8.07,5.15,0,3.9,2.72,5.09,7,6.55l3.27,1.11c5.5,1.88,9.75,4.53,9.75,10.58,0,6.34-4.87,10-13.22,10-4.88,0-8.92-.84-12.19-2.72m30.43,0a13.59,13.59,0,0,1,.69-4.24A24.32,24.32,0,0,0,215.55,173c5.36,0,8.63-1.67,8.63-5.64,0-4.18-3.83-5.64-7.17-6.68l-3.2-1c-6.2-1.89-9.61-5-9.61-10.59,0-6.2,4.73-9.47,12.6-9.47a30.45,30.45,0,0,1,11,1.81,18.62,18.62,0,0,1-.7,4.11,29.54,29.54,0,0,0-10.16-1.74c-5.36,0-8.08,1.74-8.08,5.15,0,3.9,2.72,5.09,7,6.55l3.27,1.11c5.5,1.88,9.75,4.53,9.75,10.58,0,6.34-4.88,10-13.23,10-4.87,0-8.91-.84-12.18-2.72m60.63-14.41H238.39c.62,8.36,5,12.81,12.94,12.81a23.7,23.7,0,0,0,11.7-3,46,46,0,0,1-.77,4.66,21.17,21.17,0,0,1-11.07,2.65c-11.62,0-17.75-7-17.75-19,0-10.37,4.66-18.59,16.08-18.59,10.44,0,14.9,7.17,14.9,16.15a29.13,29.13,0,0,1-.28,4.32m-25.75-4.39h21.16v-.27c0-6.9-3.34-11.56-10.23-11.56s-10.38,4.59-10.93,11.83m51,16.22c-.15,1.33-.35,2.86-.63,4.18a17.7,17.7,0,0,1-6.27,1.12c-6.68,0-10.79-3.34-10.79-11.14V128.56a17.16,17.16,0,0,1,4.87-.76v12.88h12.6a25.17,25.17,0,0,1-.48,4.38H276.53v20.47c0,5.29,2.44,7.52,6.76,7.52a18.23,18.23,0,0,0,6.06-1.12m68.22,4.46h-5.08L351,154.6c-.42-6.68-.77-13.16-1-19.49-2.57,7.1-5.42,14.55-8.14,21.23l-8.08,20h-3.69l-8.63-21.93c-2.72-6.68-5.22-13.23-7.24-19.28-.28,6-.77,13.43-1.19,19.84l-1.67,21.37h-5l3.76-47.89a25.57,25.57,0,0,1,6-.77l15.94,41,15.74-40.23a21,21,0,0,1,6.12-.77Zm37-34.81v34.81h-4.53l-.13-2.71a14.12,14.12,0,0,1-9.47,3.55c-9.89,0-16-6.61-16-18.52,0-12.26,6-19.08,18.51-19.08a31.68,31.68,0,0,1,11.63,2M380.9,173.19a12.28,12.28,0,0,0,8.84-3.55V144.78A26,26,0,0,0,383,144c-9.32,0-13.57,5.43-13.57,14.76,0,9,3.9,14.48,11.49,14.48m52-20.33v23.53H428V153.76c0-6.47-2.44-9.81-11-9.81a37,37,0,0,0-8.08,1v31.47h-4.87V141.58a52,52,0,0,1,13.09-2c11.77,0,15.73,4.81,15.73,13.23m37.32-11.28v34.81h-4.53l-.14-2.71a14.06,14.06,0,0,1-9.46,3.55c-9.89,0-16-6.61-16-18.52,0-12.26,6.06-19.08,18.52-19.08a31.68,31.68,0,0,1,11.63,2m-13.71,31.61a12.28,12.28,0,0,0,8.84-3.55V144.78a26,26,0,0,0-6.76-.83c-9.33,0-13.57,5.43-13.57,14.76,0,9,3.89,14.48,11.49,14.48M508,141.58v33.49c0,9.68-5.08,15.66-16.7,15.66a26.92,26.92,0,0,1-10.45-2,23.26,23.26,0,0,1,.49-4.32,24.54,24.54,0,0,0,10,2.16c7.51,0,11.83-3.07,11.83-10.87v-1.87a13.8,13.8,0,0,1-9.26,3.41c-9.89,0-16-6.61-16-18.52,0-12.26,6.05-19.08,18.51-19.08a31.65,31.65,0,0,1,11.63,2m-4.87,28.06V144.78a26,26,0,0,0-6.76-.83c-9.32,0-13.57,5.43-13.57,14.76,0,9,3.9,14.48,11.49,14.48a12.28,12.28,0,0,0,8.84-3.55m41.49-9.54H518.82c.62,8.36,5,12.81,12.94,12.81a23.68,23.68,0,0,0,11.7-3,46,46,0,0,1-.77,4.66,21.12,21.12,0,0,1-11.07,2.65c-11.62,0-17.75-7-17.75-19,0-10.37,4.67-18.59,16.08-18.59,10.45,0,14.9,7.17,14.9,16.15a29.13,29.13,0,0,1-.28,4.32m-25.75-4.39H540v-.27c0-6.9-3.34-11.56-10.23-11.56s-10.38,4.59-10.93,11.83M604,152.86v23.53h-4.87V153.63c0-6.34-3.07-9.68-10.24-9.68a23.65,23.65,0,0,0-9.26,2,17.64,17.64,0,0,1,1.19,6.89v23.53H576v-22.9c0-6.75-2.78-9.54-10.23-9.54a38.86,38.86,0,0,0-8.35,1v31.47h-4.88V141.58a53.13,53.13,0,0,1,13.72-2c4.87,0,8.49.91,10.93,2.93a28.36,28.36,0,0,1,12.18-2.93c10.51,0,14.69,4.81,14.69,13.23m37.6,7.24H615.87c.62,8.36,5,12.81,13,12.81a23.69,23.69,0,0,0,11.69-3,45.74,45.74,0,0,1-.76,4.66,21.21,21.21,0,0,1-11.07,2.65c-11.63,0-17.76-7-17.76-19,0-10.37,4.67-18.59,16.09-18.59,10.44,0,14.89,7.17,14.89,16.15a30.56,30.56,0,0,1-.27,4.32m-25.76-4.39H637v-.27c0-6.9-3.34-11.56-10.23-11.56s-10.38,4.59-10.93,11.83m62.51-2.85v23.53h-4.87V153.76c0-6.47-2.44-9.81-11-9.81a37,37,0,0,0-8.08,1v31.47h-4.87V141.58a52,52,0,0,1,13.09-2c11.77,0,15.73,4.81,15.73,13.23m26.32,19.07c-.13,1.33-.35,2.86-.62,4.18a17.7,17.7,0,0,1-6.27,1.12c-6.68,0-10.79-3.34-10.79-11.14V128.56a17.16,17.16,0,0,1,4.87-.76v12.88h12.6a25.11,25.11,0,0,1-.49,4.38H691.89v20.47c0,5.29,2.44,7.52,6.76,7.52a18.13,18.13,0,0,0,6.05-1.12M78.45,47.7a23.75,23.75,0,0,0-3.16-10.84L58.15,7.18A23.89,23.89,0,0,1,55.45,0l-.72,1.24a23.76,23.76,0,0,0,0,23.75L68.44,48.73a23.76,23.76,0,0,1,0,23.75l-.72,1.24A23.75,23.75,0,0,0,65,66.54L52.46,44.81l-8-13.89a23.24,23.24,0,0,1-2.71-7.17L41,25A23.76,23.76,0,0,0,41,48.66L54.73,72.48a23.76,23.76,0,0,1,0,23.75L54,97.47a23.65,23.65,0,0,0-2.71-7.18L34.16,60.61A23.72,23.72,0,0,1,31,47.71C12.66,52.5,0,62.68,0,74.46c0,16.39,24.5,29.69,54.73,29.69s54.73-13.3,54.73-29.69c0-11.78-12.66-22-31-26.76m51.67,50.69a34.72,34.72,0,0,1,2-10.39,47.84,47.84,0,0,0,18.81,4c9.56,0,14.91-3.08,14.91-9.15s-3.91-8.73-13.57-13L147,67.65c-9.66-4.22-16.24-9.67-16.24-20.56,0-11.72,8.12-19.23,24.78-19.23a56.54,56.54,0,0,1,18.81,3,39.47,39.47,0,0,1-2.06,10.28,52.3,52.3,0,0,0-16.86-3c-8.94,0-13.06,3.5-13.06,9s4,8.43,11.21,11.51L159.11,61c13.06,5.55,18.51,11.41,18.51,21.38,0,11.82-9,19.94-26.42,19.94-8.43,0-15.32-1.23-21.08-3.9M232.83,49.25v51.4H222.44l-.61-6.17c-2.88,4.52-7.3,7.4-14.5,7.4-13.57,0-22.62-9.87-22.62-27.14,0-18.09,9.67-28.37,28.69-28.37a57.54,57.54,0,0,1,19.43,2.88M221.52,88.93V56.65A46.84,46.84,0,0,0,213.4,56c-11.72,0-17.17,7.2-17.17,18.71,0,10.49,4.21,17.89,14.29,17.89a17.72,17.72,0,0,0,11-3.7M290.71,66.1v34.55H279.4V68.06c0-8.12-2.67-12-14-12a57.24,57.24,0,0,0-8.95.82v43.8h-11.3V49.25a96.11,96.11,0,0,1,20.56-2.88c18.91,0,25,7.3,25,19.73m31.36,26.12a25.75,25.75,0,0,0,8.84-1.54c-.31,3.08-.72,6.58-1.34,9.56a25.71,25.71,0,0,1-9.56,1.64c-11,0-18-5-18-17.58v-54a39.14,39.14,0,0,1,11.31-1.64V48.12h17.89a89.22,89.22,0,0,1-1,9.66H313.33V83c0,6.68,3.29,9.25,8.74,9.25m60.66-43v51.4H372.34l-.61-6.17c-2.88,4.52-7.3,7.4-14.5,7.4-13.57,0-22.62-9.87-22.62-27.14,0-18.09,9.66-28.37,28.68-28.37a57.56,57.56,0,0,1,19.44,2.88M371.41,88.93V56.65a46.67,46.67,0,0,0-8.12-.62c-11.72,0-17.16,7.2-17.16,18.71,0,10.49,4.21,17.89,14.29,17.89a17.67,17.67,0,0,0,11-3.7m69.2-22.83v34.55H429.3V68.06c0-8.12-2.68-12-14-12a57.24,57.24,0,0,0-8.95.82v43.8H395.06V49.25a96.28,96.28,0,0,1,20.56-2.88c18.92,0,25,7.3,25,19.73M498,28.69v72H487.59L487,94.07c-2.87,4.83-7.3,7.81-14.7,7.81-13.57,0-22.62-9.87-22.62-27.14,0-18.09,9.67-28.37,28.69-28.37a43.75,43.75,0,0,1,8.43.82v-17A34.13,34.13,0,0,1,498,28.69m-11.2,60V57.06a45,45,0,0,0-9-1c-11.2,0-16.55,7-16.55,18.71,0,10.49,4.22,17.89,14.29,17.89a18.1,18.1,0,0,0,11.31-3.91m68.06-10.07H518.74c1.44,9.15,6.79,13.57,16.86,13.57a44.12,44.12,0,0,0,18.1-3.91c-.41,3-1,6.89-1.75,10.28a38.82,38.82,0,0,1-16.66,3.29c-18.91,0-28.06-10.48-28.06-28.07,0-15.31,7.09-27.44,25.08-27.44,16.14,0,23.14,10.59,23.14,23.54a60.44,60.44,0,0,1-.62,8.74m-36.29-9.46H544c0-8.43-4.52-13.36-12.33-13.36-8,0-12.24,4.62-13.16,13.36m75.87-22.41a41.86,41.86,0,0,1-1,9.66,72.68,72.68,0,0,0-8.53-.41,57,57,0,0,0-8.33.62v44H565.21V49.25a68.73,68.73,0,0,1,19.33-2.88,91.92,91.92,0,0,1,9.87.41"/></svg>