<svg xmlns="http://www.w3.org/2000/svg" viewBox="0 0 681.54 228.07"><defs><style>.a{fill:#ee2c72;}</style></defs><title>logo-vitality-invest</title><path class="a" d="M681.54,120.73V109h-36v11.76h11.23v49.48h13.54V120.73Zm-39.8-7.26c-3.54-3.8-9-6.14-15.62-6.14-8.89,0-18.82,5.79-18.82,19.37,0,10.21,5.52,14.36,12.16,17.65,5.28,2.6,8.13,4.59,8.13,8.57s-2.59,6.23-6,6.23a14,14,0,0,1-9.84-4.59l-7.08,10.38a24.87,24.87,0,0,0,17.35,6.91c10,0,19-6.65,19-19.88,0-10.64-7.34-15.06-12.94-17.83-4.93-2.51-7.52-4.15-7.52-8,0-4.5,2.93-6.32,6-6.32a10.61,10.61,0,0,1,7.94,3.81Zm-41.62,56.74V157.85H582.77V144.61h15V133.19h-15v-12h16.31V109H569.57v61.24ZM564,109H549l-8.19,44.8h-.18L532.36,109H516.74l14.76,61.24H549Zm-52.88,61.24V109h-11.9l.26,37.8h-.26L485.17,109H470v61.24h12.33L482,132.93h.27l14.16,37.28ZM459.31,109H445.42V170.2h13.89Z"/><path class="a" d="M92,111.65c0-8.18-6.8-13.84-11.91-14.61-17,19.31-18.67,50.78-19.81,61.41C59.7,171,72.19,171.3,72.19,171.3c14.38-3.54,12.46-14.65,12.46-14.65s-1.42-.94-1.42-3.86S92,114.58,92,111.65"/><path class="a" d="M282.75,98.16c3,0,9.63-5.12,9.63-9.35,0-1.9-7.23-17.53-17-17.53-2.83,0-6.8,3.51-6.8,6.43,0,4.82,4.11,20.45,14.17,20.45"/><path class="a" d="M96,87c3,0,8.46-2,8.46-6.25,0-1.89-7.72-20.46-17.5-20.46-2.83,0-6.79,3.5-6.79,6.42C80.16,71.52,81.24,87,96,87"/><path class="a" d="M126.23,1.72c-4-4.54-55.56-10.38-100,130a1,1,0,0,1-1.89-.12c-7-37.26-3.91-79.5-4.79-86.28C17.36,28.43,3.07,33.82,3.07,33.82c-6.45,13.43-2.32,121.86,8.45,136,6.42,2.75,24.8,1.79,28.71-2.57,0,0,25.76-137.1,86-165.51"/><path class="a" d="M402.65,102c-1.33,0-2.11,1.67-2.11,1.67-15.58,28.18-29.69,50.65-41.7,51.55-2.57.15-4-1.25-4.51-4-1.46-10.85,8.68-37.61,8-45.23-.26-2.83-1.7-2.53-3.5-3.66a13.21,13.21,0,0,0-1.91,2,1,1,0,0,1-1.16.31,117,117,0,0,0-21.58-5.22c5.54-15.57,17.08-48.2,17.08-51.12,0-7.31-5.35-9.77-14.39-12.22C322.27,61.8,313,96.8,312.37,99.42c-4.71,4.25-11.83.35-13.23,8.66,3.53,3.75,10.17,6.84,10.17,9.76s-5,14.69-3.06,53.43c2.56,1,13-10.23,13.35-13.57,2.91-30.15,10.51-40.94,10.51-40.94s11.88.37,19-1l.28.37c-1.7,3.44-11.92,24.53-12,34.31-.09,12.66,4.05,19.82,14.55,20.77a30,30,0,0,0,6.71,0c9.89-1.3,21.57-6.41,31.34-17.85a.9.9,0,0,1,1.55.83c-15.45,55.12-45.19,68.91-57.71,71.92C334.31,230,356,228.86,371.1,216c17.53-14.84,30.46-37.53,35.65-55.34,1.65-5.65,3.26-11.46,4.49-17.42a176.41,176.41,0,0,0,3.69-32.73c0-1.84-10.14-8.52-12.28-8.52"/><path class="a" d="M299.59,163.84l-.55,0c-16.15,0,2.83-57-19.91-54-3.83.52-9.72,3.55-11.67,4.59a2.63,2.63,0,0,0-1,1,227.82,227.82,0,0,1-28.22,36.84,2.6,2.6,0,0,1-4.39-1C225.55,124.55,262,45.77,262.58,44.05c2.75-8.87-9.34-13.08-15.38-13.74C234,49,211.84,108.44,214.06,155.73a1.44,1.44,0,0,1-.89,1.41c-3.72,1.55-17.2,6.47-15.62-4.59.42-2.88,6.8-19.86,6.8-22.78,0-1.9-8.07-12.86-14.16-12.86-2.48,0-25.4,29-33.1,35.75a2.59,2.59,0,0,1-4.07-.91c-4.17-9.15,5.89-34.35,34.6-43.9a74.83,74.83,0,0,0,7.36-7.3,2.73,2.73,0,0,0,.35-2.26C195,97,193.24,96.05,193.15,96h0c-15.95-7.38-51.46-6.34-57.51-7.18,4.47-20.41,18.41-53.07,18.8-56.24.59-4.9-4.21-9.67-14.08-12.34-15.95,28.15-29.12,65.44-29.82,68.31-2.65,2.76-6.61,1.65-9.09,9.48,0,3.55,5.73,7.49,5.73,10.69s-5.42,20.23-3.35,62.65c7.87.47,16.35-12,16.91-15.64,5-32.62,9.92-47.83,9.92-47.83a245.51,245.51,0,0,0,31.52-2l.22.54c-15.25,12.93-29.76,25.47-29.42,49.67.14,9.78,10.48,15.34,16.43,15.32,10.25,0,20.75-9.16,25.76-14.84a1.68,1.68,0,0,1,2.92.81c1.5,9.3,9.21,14,16.64,14,6.85,0,17-6.47,20.85-8.6l1,.18c2.58,2.93,7.77,8.42,12.71,8.42,14.82,0,29.84-21.6,38.21-34.93a1.53,1.53,0,0,1,2.8.48c3.23,14.28,3.08,34.47,17.43,34.47a42.63,42.63,0,0,0,13.06-2.51,2.61,2.61,0,0,0-1.18-5.06"/></svg>