<svg xmlns="http://www.w3.org/2000/svg" viewBox="0 0 612.38 215.42"><defs><style>.a{fill:#011e41;}.b{fill:#d3062e;}.c{fill:#e66208;}.d{fill:#a01881;}</style></defs><polygon class="a" points="491.26 11.1 494.14 2.45 432.47 2.44 437.39 10.76 437.39 92.18 495.12 92.18 495.12 83.53 450.12 83.53 450.12 51.7 481.44 51.7 484.59 42.26 450.12 42.26 450.12 11.1 491.26 11.1"/><polygon class="a" points="172.22 92.18 172.22 2.44 159.49 2.44 159.49 41.68 117.21 41.68 117.21 2.44 99.56 2.44 104.48 10.76 104.48 92.18 117.21 92.18 117.21 51.84 159.49 51.84 159.49 92.18 172.22 92.18"/><path class="a" d="M646.14,192c0-7.31,6.87-11.42,14.66-11.42,6.79,0,17.62,2.24,22.6,13.29V178.54c-5.79-3.09-11.93-5.28-22-5.28-14.85,0-26,8-26,23.35,0,7.1,2.76,13.41,8.14,18.93,9.86,10.1,32.8,16.76,32.8,32.37,0,6.71-5.74,12.7-16.62,12.7-5.37,0-19.34-1.89-24.77-13.67v16.25c7,3,12.84,4.9,24.36,4.9,17,0,28.35-10.06,28.35-25.72,0-6-1.55-11.68-7.71-18-12.61-12.93-33.74-16.91-33.74-32.37" transform="translate(-123.62 -173.26)"/><path class="a" d="M171.46,268.09c17.07,0,25.87-4.53,32.23-8.39V249c-9.61,8.11-19.4,11.58-30.43,11.58-17.67,0-35.42-15.48-35.42-41.73,0-24.4,14.74-38.11,34.42-38.11,14.11,0,24.54,6.18,31.43,18.38V181.79c-7.11-3.6-14.3-8.53-32.23-8.53-26.71,0-47.84,20.35-47.84,48.51,0,26.86,20.67,46.32,47.84,46.32" transform="translate(-123.62 -173.26)"/><polygon class="a" points="381.07 2.44 363.4 2.44 368.3 10.76 368.3 92.18 421.28 92.18 424.14 83.53 381.07 83.53 381.07 2.44"/><path class="a" d="M350.3,189l13.22,39.4H337.08Zm-25.64,76.5,9.65-28.85h32L376,265.45h13.55l-30.23-89.74H338.22l4.89,8.29-27.39,81.45Z" transform="translate(-123.62 -173.26)"/><path class="a" d="M422,219.93V183.62h8.23c13.42,0,20.6,5.7,20.6,17.61s-7.18,18.7-20.6,18.7Zm48.19,45.52-24.72-39.26C457.68,222,463,210.45,463,200.91c0-11.9-9.48-25.2-29.16-25.2H404.66l4.6,8.4v81.34H422V227.84H433.4l23.65,37.61Z" transform="translate(-123.62 -173.26)"/><polygon class="b" points="586.08 166.89 559.78 212.82 586.08 194.03 586.08 166.89"/><polygon class="c" points="586.08 194.04 612.38 212.82 586.08 166.89 586.08 194.04"/><polygon class="d" points="559.78 212.82 612.38 212.82 586.08 194.04 559.78 212.82"/><path class="a" d="M308.51,309.34l13.56,39.51H294.92Zm-26.39,76.74,9.95-28.92h32.87l9.93,28.92h13.94l-31.08-90H296.06l5,8.32L273,386.08Z" transform="translate(-123.62 -173.26)"/><polygon class="a" points="71.95 139.33 80.17 131.49 103.97 131.49 103.97 212.81 117.09 212.81 117.09 131.46 146.85 131.46 149.81 122.79 71.95 122.8 71.95 139.33"/><path class="a" d="M152.67,381.19c-9.9,0-18-2.54-25.47-8.32v10.91c7.22,3,13.2,4.9,25,4.9,17.45,0,29.15-10.08,29.15-25.79,0-6-1.58-11.73-7.91-18.06-13-12.95-34.7-16.95-34.7-32.46,0-7.33,7.06-11.45,15.08-11.45,9.25,0,18.12,4.22,23.23,15.31V298.86c-6-3.09-12.27-5.29-22.66-5.29-15.25,0-26.76,8-26.76,23.41,0,7.13,2.82,13.46,8.36,19,10.13,10.13,33.73,16.82,33.73,32.48,0,6.72-5.91,12.74-17.1,12.74" transform="translate(-123.62 -173.26)"/><polygon class="a" points="509.25 122.79 494.58 122.79 522.67 170.67 522.67 212.82 535.7 212.82 535.7 170.67 563.54 122.79 545.4 122.79 549.33 131.41 532.4 161.97 509.25 122.79"/><polygon class="a" points="320.3 212.82 320.3 122.79 311.2 122.79 311.2 187.81 257.95 122.79 238.44 122.79 245.89 131.01 245.89 212.82 254.85 212.82 254.85 139.56 315.29 212.82 320.3 212.82"/><polygon class="a" points="481.35 204.14 435.09 204.14 435.09 172.2 467.28 172.2 470.52 162.73 435.09 162.73 435.09 131.48 477.38 131.48 480.35 122.8 416.94 122.79 421.98 131.13 421.98 212.82 481.35 212.82 481.35 204.14"/><polygon class="a" points="405.27 212.82 408.24 204.14 363.92 204.14 363.92 122.79 345.78 122.79 350.79 131.12 350.79 212.82 405.27 212.82"/></svg>