<svg xmlns="http://www.w3.org/2000/svg" viewBox="0 0 444.36 113.11"><defs><style>.a{fill:#d8dcdb;}.b{fill:#00aeb7;}.c{fill:#333132;}</style></defs><polygon class="a" points="82.29 67.73 97.64 55.97 87.35 49.24 82.29 67.73"/><polygon class="a" points="68.36 33.38 23.72 0 29.1 32.92 68.36 33.38"/><polygon class="b" points="23.72 0 0 32.63 29.52 66.89 23.72 0"/><polygon class="a" points="29.52 66.89 32.39 106.36 49.9 90.59 29.52 66.89"/><polygon class="b" points="32.39 106.36 69.14 112.97 82.29 67.73 32.39 106.36"/><polygon class="b" points="91.88 33.64 68.36 33.38 97.64 55.97 91.88 33.64"/><rect class="c" x="120.03" y="0.31" width="2" height="112.8"/><path class="c" d="M174.66,61.67h20.53v4.47H179.94v9.54h13.34v4.51H179.94V93.67h-5.28Z" transform="translate(-30.38 -25.94)"/><path class="c" d="M198.74,61.67h21v4.47H204.07v9.25h13.62V79.9H204v9.31h15.69v4.46h-21Z" transform="translate(-30.38 -25.94)"/><path class="c" d="M235.68,61.67H241v32h-5.32Z" transform="translate(-30.38 -25.94)"/><path class="c" d="M251.2,69.76a26.58,26.58,0,0,1,5.92-.7c3.36,0,5.84.71,7.44,2.11s2.4,3.6,2.4,6.57V93.67h-5V78.42q0-5-5.71-5a15.07,15.07,0,0,0-5.23.91V93.67h-5V71.56A21.87,21.87,0,0,1,251.2,69.76Z" transform="translate(-30.38 -25.94)"/><path class="c" d="M292.76,69.59,282.59,93.67h-5L267.44,69.59h5.42l7.62,18.56,7.06-18.56Z" transform="translate(-30.38 -25.94)"/><path class="c" d="M312,72.64q2.61,3.61,2.56,10.14H297.66a8.13,8.13,0,0,0,2.08,5.4A7.13,7.13,0,0,0,305,90a16.45,16.45,0,0,0,7.77-2v4.7a21.3,21.3,0,0,1-8.59,1.63c-3.61,0-6.45-1.09-8.51-3.29s-3.1-5.3-3.1-9.33,1-7.28,2.93-9.47S300.2,69,303.75,69Q309.36,69,312,72.64Zm-12.36,1.84A7.56,7.56,0,0,0,297.75,79h11.66a7.39,7.39,0,0,0-1.73-4.49,5.45,5.45,0,0,0-4.07-1.41A5.65,5.65,0,0,0,299.62,74.48Z" transform="translate(-30.38 -25.94)"/><path class="c" d="M320.76,93.91A22.77,22.77,0,0,1,317,92.47V87.72a21.36,21.36,0,0,0,3.93,2,11.38,11.38,0,0,0,4,.65,5.47,5.47,0,0,0,3.24-.84,2.56,2.56,0,0,0,1.18-2.18,2.14,2.14,0,0,0-1-1.92,14.74,14.74,0,0,0-3-1.34l-1.1-.39a14,14,0,0,1-5.35-2.35,5.65,5.65,0,0,1-2-4.79,6.59,6.59,0,0,1,1.34-4.23,7.84,7.84,0,0,1,3.39-2.44,12.12,12.12,0,0,1,4.29-.77,14,14,0,0,1,3.88.55,24.27,24.27,0,0,1,3.46,1.46v4.32a38.82,38.82,0,0,0-3.77-1.77,8.58,8.58,0,0,0-3-.48,6.12,6.12,0,0,0-3.17.72,2.24,2.24,0,0,0-1.2,2,2.37,2.37,0,0,0,1.2,2.23,17,17,0,0,0,3.74,1.42,31.46,31.46,0,0,1,3.82,1.29,6.47,6.47,0,0,1,2.49,2,6.23,6.23,0,0,1,1.08,3.86,6.61,6.61,0,0,1-2.81,5.74,11.63,11.63,0,0,1-6.74,1.89A15.7,15.7,0,0,1,320.76,93.91Z" transform="translate(-30.38 -25.94)"/><path class="c" d="M341.36,92.52a6.59,6.59,0,0,1-1.87-5V73.76H335.6V69.59h3.89V62.87h5.18v6.72h5.85v4.17h-5.85V86.48a4.2,4.2,0,0,0,.62,2.56,2.66,2.66,0,0,0,2.21.79,6.66,6.66,0,0,0,1.61-.21,6,6,0,0,0,1.41-.55v4.46a9.55,9.55,0,0,1-4,.76A7.23,7.23,0,0,1,341.36,92.52Z" transform="translate(-30.38 -25.94)"/><path class="c" d="M387.1,71.17q2.32,2.11,2.32,6.57V93.67h-5V78.42c0-3.36-1.91-5-5.71-5A8.77,8.77,0,0,0,374,74.67a12.1,12.1,0,0,1,.34,3.07V93.67h-5V78.42q0-5-5.7-5a14.66,14.66,0,0,0-5.09.91V93.67h-5V71.56a22,22,0,0,1,5.26-1.8,26.58,26.58,0,0,1,5.92-.7c3.13,0,5.47.61,7,1.83a18.72,18.72,0,0,1,8.06-1.83C383.09,69.06,385.55,69.77,387.1,71.17Z" transform="translate(-30.38 -25.94)"/><path class="c" d="M412.14,72.64q2.61,3.61,2.56,10.14H397.82a8.13,8.13,0,0,0,2.08,5.4A7.14,7.14,0,0,0,405.16,90a16.45,16.45,0,0,0,7.77-2v4.7a21.3,21.3,0,0,1-8.59,1.63c-3.61,0-6.45-1.09-8.51-3.29s-3.1-5.3-3.1-9.33,1-7.28,2.93-9.47,4.7-3.29,8.25-3.29Q409.52,69,412.14,72.64Zm-12.36,1.84A7.56,7.56,0,0,0,397.91,79h11.66a7.39,7.39,0,0,0-1.73-4.49,5.45,5.45,0,0,0-4.07-1.41A5.65,5.65,0,0,0,399.78,74.48Z" transform="translate(-30.38 -25.94)"/><path class="c" d="M422.88,69.76a26.66,26.66,0,0,1,5.93-.7c3.35,0,5.83.71,7.43,2.11s2.4,3.6,2.4,6.57V93.67h-5V78.42q0-5-5.71-5a15,15,0,0,0-5.22.91V93.67h-5V71.56A22,22,0,0,1,422.88,69.76Z" transform="translate(-30.38 -25.94)"/><path class="c" d="M445.79,92.52a6.59,6.59,0,0,1-1.87-5V73.76H440V69.59h3.89V62.87h5.18v6.72H455v4.17H449.1V86.48a4.14,4.14,0,0,0,.62,2.56,2.66,2.66,0,0,0,2.21.79,6.72,6.72,0,0,0,1.61-.21,6,6,0,0,0,1.41-.55v4.46a9.55,9.55,0,0,1-4,.76A7.23,7.23,0,0,1,445.79,92.52Z" transform="translate(-30.38 -25.94)"/><path class="c" d="M461.05,93.91a23.11,23.11,0,0,1-3.77-1.44V87.72a21.11,21.11,0,0,0,3.94,2,11.34,11.34,0,0,0,4,.65,5.51,5.51,0,0,0,3.24-.84,2.58,2.58,0,0,0,1.17-2.18,2.14,2.14,0,0,0-1-1.92,14.87,14.87,0,0,0-3-1.34l-1.1-.39a14,14,0,0,1-5.35-2.35,5.65,5.65,0,0,1-2-4.79,6.53,6.53,0,0,1,1.34-4.23A7.75,7.75,0,0,1,462,69.88a12.12,12.12,0,0,1,4.29-.77,14.1,14.1,0,0,1,3.89.55,23.72,23.72,0,0,1,3.45,1.46v4.32a38.91,38.91,0,0,0-3.76-1.77,8.64,8.64,0,0,0-3.05-.48,6.08,6.08,0,0,0-3.16.72,2.24,2.24,0,0,0-1.2,2,2.37,2.37,0,0,0,1.2,2.23,16.83,16.83,0,0,0,3.74,1.42,30.63,30.63,0,0,1,3.81,1.29,6.42,6.42,0,0,1,2.5,2,6.23,6.23,0,0,1,1.08,3.86,6.63,6.63,0,0,1-2.81,5.74,11.65,11.65,0,0,1-6.74,1.89A15.83,15.83,0,0,1,461.05,93.91Z" transform="translate(-30.38 -25.94)"/></svg>