<svg xmlns="http://www.w3.org/2000/svg" viewBox="0 0 654.6 180.83"><defs><style>.a,.b{fill:none;stroke:#1d1d1b;}.a{stroke-width:0.85px;}.b{stroke-width:0.3px;}.c{fill:#fff;}.d{fill:#1d1d1b;}.e{fill:#c10a27;}</style></defs><path class="a" d="M169.74,241.76,155,237.46m-35.62,69c-8.18-8.25-19.66-32.44-6.3-56.28M118.27,272l-.91-18.91m2.76,19-1.43-18.38M135,276.14l-29,23.1m33.87-22.92-16.95,24.85m16.94-3.51h7.28m-6.48-3.74h6.44m-5.67-3.77h5.67m-4.93-3.69h5m-2.22-4.87-2.51,22.2m1.81-27.5-5.7,27.05M146,268l-.79,3.78m1.42-14.86-17.1,16.51m13.91-16.8-12.5,5.15m11.34-5.22-17.48,1.14M147.63,252h3.07m-2.6-2.83h2.6M148.63,246l-3.72,21.1m-3.73,9.05-6.55,31.55m10.56-50.87-3.42,16.49m8.07-38.86-4.19,20.17M150,234.23,136.88,254.4m1.58,21.6-6.67,31.58m16.47-78L139,273.4M151.13,216l-2.48,11.72m-13.49,48.52-7,31.07m17.64-77.66-9.95,43.82m15.68-69.07-5.29,23.32m5.32-23.57L144,214.39M180.74,247c-5.79,1.51-18,4.64-30,7.4M184.2,246l-3.46.91m-15.33,7.58a80.69,80.69,0,0,0,15.13-6.16M150.41,270l3,3.09m2.3,2.95,30.35,35.41M164,254.35l-13.27-20.42m14.06,35.46-13.9-12.95m17,13.15.37-9.59m-11.37,8.33,26.93-20.75m-20.91,28.16c-8.76,10.82-29.23,26.64-42.76,31.07M211,271.89c-4.41,3.16-34.45,24.58-90.81,34.67m116.91-32.69a64.15,64.15,0,0,0,9.5-5.88m-60.91,12.83c11.76,1.64,26.76,1.44,40.61-2.72M166.66,275a36,36,0,0,0,10.7,4.41m-8.71,26.13h15.87m-14.58-4.2h14.37m-13.11-3.71h13.11m0-3.76H172.66m1.2-3.74H184m-8.85-3.76H184m-7.48-3.74h7.4m-1.24-9-3.9,32.79m1.48-29.45L172.16,313m7.37-39.51-12.46,36.81m16.51-48.81-2.75,8.11m4.54-16.42h-3.23m3.34,3.39-4.14,0M188.49,240h-4.14m4.14-3.58H185m3.44-3.43h-2.91m2.91-3.31h-2.15m-3.64,20.48-2.09,10.34m6.61-36.63-3.51,19.45m-2.08.12,6.56-29.66m-11.21,50.69,3.89-17.58m-12.34,55.7,6.41-28.92m7.16-12.54-13.8,9.13m39.95-26.44-22.3,14.77m-29.57,18.18-8.26,5.07M189.5,247l24.24,21.87m-28.56-8.35-34.27-26.18m.92,41.86-2.79,5m20.86-37.4-16.43,29.46M164.83,295,161,309.72m8.64-35.93L167.47,283m8.69-36.89-5.57,23.64m15.17-64.29L177,242.62m12.9-54.31-3.69,15.31M163.41,275.4l-10.33,34.32m18.35-64.61L165,269.4m16.89-63.86-9.82,37.13m14.47-54.54-4.1,15.38M190.33,174l-3.21,12m15.94,18c-6.13,9.11-28,29.73-48.09,33.46m32-20.83-17.43,25.19m18.89-28.26c-1.46,2.58-9.86,10.13-23.95,13.67m21.81-12.3c-4.46,3.37-17.77,9.72-45.33,12.18m46.47-13.6c-2.69,1.83-15.17,3.84-27.94,1m-7.17,1.64,29.25,26.68m-30-27,10.23,11.43m-.33.5,15.95-24,12.42-15.44m-34.74,49.05,5.26-7.9m-7.79-15,37.53-40.71M140.72,227.4,151,216.25m33.11-12.87c6.39-4.55,12.35-10.46,16-17.58m-41,28.64c4.64-.44,13.24-3.46,21.67-8.78m-29-1.42,36.51,8.32m-36.51-8.32,7.47,10.06M190.31,188l12.84,15.23m-9.87-12.73c12.51,8.56,38.15,21.21,66.36,12M191,188.27c13.66,8.13,35.94,14.68,51.78,12.51m-52.1-27,9,12m52.5,14.52L190.6,173.69M208.14,242l-18.66-28m42.78,34.16-40.21-31.83m47.76-.82s-21.66,6.88-50-1.83m72.9,3.92c-2.54,1.25-37.61,13.79-73.1-3.78m4.6,3.19,66.7,31m-35,38,.54-7.8m1.15,7.8.45-20.15m-39.75-1.64,7.79,6.23m4.5,3.6,46.61,40.13M232,249.51s-20.33,18.64-42.82,12.88m54.78-.24c-14.84,4.55-34.46,7.21-54.87.85m77.46-10.68a94.44,94.44,0,0,1-18.94,8.74M270,249.64a13.36,13.36,0,0,1-3.49,2.68M247.25,267.4s-6.52,3.34-34.59,3.09m30.68-70.07,8.89-12.19m-.16,14.53-12.4,12.63m-7.06,32.8,17.48-23.86M218,272.8l28.9-20.65m-15.75,26-2.5,11.41m8.63-37.38-5.17,21.93M245.3,218,238,249m10.91-46.21-3,12.83m6.42-27.22-2.92,12.36m-14.46,77.37-6,27.22m11.78-53.12L236.27,272m12-54.12-7,31.55m9.9-44.66-2.42,10.91m-19.68,93.28h16.37m-14.79-3.77h15.05m-13.38-3.95H245.8m1.27-3.86H233.91m12.93-3.86-11.37-.05m11.67-3.79H237.2m11.4-3.69h-9.93m5.64,2.6-3,20.53m2.36-26.47-7.77,31.76m4.85-28.28-9.18,27.71m4.71-22.34L227,313.73m14.89-35.51-5.54,13.23m2.44-13.57-2,9.42m7.45-35.2L240,272.16m9.64-46-4.7,23m1.42,14.36h-2.66m2.79-3.47h-2.1m2.09-3.12H245m6.38-11.6h-3.55m3.2-4h-2.63m2.22-3.36h-1.82m-1.64,11.37,2.2-15.89m-6.14,33.16,2-11m-56.36,7.62c25.55,16.06,48,23.32,76,17.18,0,0,7.58-1.46,12-5m-14.63,2.58,26.06,23.15m-37.59-33.39,6.64,5.89m-5.89-21.49L278.19,273m-11.57-20.75,24.61,43.93m-40-71.41L264.76,249m-13.35-24.64,18.47,23.78M251.57,224l63.91,60m-51.75-67.41,55.95,65.07m-66.5-77.35,9.67,11.25m72.22,58.41L252.77,203m-.24-14.79,9.3,12.15m-9.3-12.15,85.82,84.1m-44.22,42.28,26-32.29m-45.64,31L294,315.08m-19.66-.88L294,318.85l44.52-46.17M274,317l44.32-33.71m-43.87,33.28,13.78-15.37M260.4,311l33.83-4,25.08-24.2M260.25,310.7l26.34-15.86.74-.4L315,283.61" transform="translate(-94 -172.64)"/><path class="b" d="M155.85,272.38" transform="translate(-94 -172.64)"/><path class="c" d="M269.5,312.7l-5,2.86a4.56,4.56,0,0,0,5-2.86" transform="translate(-94 -172.64)"/><polygon class="c" points="26.33 143.24 25.91 141.81 26.79 141.81 25.91 141.81 26.34 143.24 26.33 143.24"/><polygon class="c" points="28.81 144.92 28.37 143.49 28.38 143.49 28.81 144.92"/><polygon class="c" points="29.49 143.24 29.07 141.81 29.96 141.81 29.07 141.81 29.5 143.24 29.49 143.24"/><polygon class="c" points="30 144.92 29.74 144.04 30.01 144.92 30 144.92"/><polygon class="c" points="31.55 143.49 31.55 143.49 31.7 144.05 31.55 143.49"/><polygon class="c" points="32.66 143.24 32.23 141.81 33.12 141.81 32.24 141.81 32.67 143.24 32.66 143.24"/><polygon class="c" points="33.17 144.92 32.74 143.49 33.17 144.92 33.17 144.92"/><rect class="d" x="56.93" y="55.29" width="0.4" height="0.86"/><polygon class="c" points="19.33 75.74 18.76 76.48 18.13 76 18.69 75.25 19.33 75.74"/><path class="d" d="M341.53,270.72l-3,1.46L297,292.61V292h-1.87v1.53l-6.24,3.25-1.3-2.42-1,.49,1.29,2.38L280.47,301l.69,1.38-21.82,11.88a2.38,2.38,0,0,1,1.64-2.64l-.64-1.3s-3.43,1.39-4.08,1.58h0a16.93,16.93,0,0,1-4.51.63H249V278.6h16.26A33.9,33.9,0,0,0,272,278a9.22,9.22,0,0,0,5.52-3h2.4v-1.69a3.13,3.13,0,0,0,2.92-1.46H265.92v1.11H249v-2.23a3.3,3.3,0,0,0,3.15-3.16s2.29.23,2.29-1.6h-2.23L252,252.64h10.24c4.92,0,7.25-1.87,7.56-2.62h1.93v-1.3c2.25,0,2.75-1,2.75-1H260.61v1.12H252l-.3-24.48h.94a1.2,1.2,0,0,0,1.33-1.34H253l0-4.77h7.16a5,5,0,0,0,4.47-2.16h.64v-.49c1.26,0,1.47-.47,1.47-.47H252.92l-.11-12.06h4.77a4.88,4.88,0,0,0,4.11-1.87h.59v-.45a1.9,1.9,0,0,0,1.37-.51H252.79l-.11-13H252l-.2,13H241.37a1.89,1.89,0,0,0,1.36.51v.45h.69c.13.41.81,1.87,4.18,1.87h4.18l-.18,12.06H237.33s.22.47,1.48.47v.49h.64a5,5,0,0,0,4.47,2.16h6.3v4.77h-1.44a1.19,1.19,0,0,0,1.27,1.34h.17l0,24.48h-9.32v-1.12H227s.49,1,2.75,1V250h1.94c.31.75,2.64,2.62,7.56,2.62h7.27L246.26,266h-3.94a1.66,1.66,0,0,0,1.89,1.62h2l-.1,5.43h-7.92l-14.6-11.55-.39.45c-.13,0,7,5.87,13.31,11.1h-7.72v-1.09h-16.9a3.14,3.14,0,0,0,2.93,1.45V275H217a10.49,10.49,0,0,0,5.76,3,33.9,33.9,0,0,0,6.79.61h13.83c1.2,1,2.16,1.77,2.62,2.14l-.59,31.81h-4.08l.39-3.56H241l-.64,3.56h-3.5l.69-3.61h-.66l-.95,3.61h-3.43l1-3.66h-.67l-1.29,3.66h-4.35l.8-26.76h-.88l-1,26.76H224.9l1.45-26.78h-.88l-1.68,26.78h-1a1.81,1.81,0,0,0-1.71.92H190.81a5.43,5.43,0,0,0-3.92-2.52V274.06h14a32.55,32.55,0,0,0,6.79-.61,8.15,8.15,0,0,0,5.18-2.91h2.73v-1.39a3.72,3.72,0,0,0,3.16-1.56H201.58v1.13H186.89v-3.34c2.54-.16,3.65-1.39,3.65-3.15,0,0,2.46.28,2.46-1.94h-2.5l-.19-13.7h10.17c4.93,0,7.26-1.88,7.56-2.63H210v-1.29c2.26,0,2.75-1,2.75-1H198.85v1.11h-8.59l-.38-28.95h.66a1.2,1.2,0,0,0,1.33-1.34h-.8l0-6.34h7.71a5,5,0,0,0,4.44-2.13h.66v-.48c1.26,0,1.48-.48,1.48-.48H191l-.12-14.59h4.72a4.9,4.9,0,0,0,4.11-1.88h.51v-.45a1.88,1.88,0,0,0,1.36-.5H190.85l-.1-13H190l-.18,13H179.28a1.92,1.92,0,0,0,1.37.5v.45h.47a4.92,4.92,0,0,0,4.11,1.88h4.52l-.19,14.59H175.1s.21.48,1.48.48v.48h.58a5,5,0,0,0,4.46,2.13h6.54v6.34h-1.44a1.19,1.19,0,0,0,1.27,1.34h.16l0,28.95h-9.32v-1.11H164.9s.49,1,2.75,1V244h2c.3.75,2.63,2.63,7.57,2.63h7.2l-.24,13.7h-4.53a1.65,1.65,0,0,0,1.88,1.61h2.63l-.12,6.82h-3.32l-15.7-11.59-.45.48c-.13,0,8.26,6.48,14.3,11.11H170v-1.13H153.23a1.33,1.33,0,0,0,.26-.74h-1.92l-.11-9.81h7.18c3.66,0,5.26-1.51,5.26-1.93v0h1.27v-.28a1.42,1.42,0,0,0,1.08-.59H151.42l-.22-19.83h.61a1,1,0,0,0,1.14-1.12h-.86l0-3.37h6.75a4.28,4.28,0,0,0,3.79-1.81h.55v-.34c1.08,0,1.26-.47,1.26-.47H152L152,216.4h4a4.41,4.41,0,0,0,3.36-1.41h.57v-.38a1.59,1.59,0,0,0,1.16-.43h-9.15l-.09-10.85h-.52l-.17,10.84h-9a1.59,1.59,0,0,0,1.16.43V215h.54a4.41,4.41,0,0,0,3.36,1.41h3.87l-.17,10.88h-12.3s.18.47,1.25.47v.34h.57a4.25,4.25,0,0,0,3.79,1.81h5.65v3.37h-1.33a1,1,0,0,0,1.08,1.12h.25l0,19.83H134.68a1.37,1.37,0,0,0,1.07.59v.28h1.31c.18.52,1.78,2,5.24,2h4.84l-.22,9.81h-3.8s0,1.54,1.8,1.54h2l-.08,3.63-33.63-22.41-.33.38c-.24.09,27.24,18.87,33.08,22.88H124.79a2.2,2.2,0,0,0,1.73.79V274h1.29a4.53,4.53,0,0,0,3.07,2.08,19.11,19.11,0,0,0,4.56.48h11.27l-.6,26.93-23-2.76-2.56-28.67h-.84l2.2,28.53-1.81-.22L118.6,272h-.75L119,300.22l-24.87-3-.09.85,25,3.35.19,5.05-5.8-.4.56,1.71a2.93,2.93,0,0,1,2.78,2l.67,1.57.28.77h10.84l.33,1.08H115.62l.48,1.49s2.4-.14,3,1.4c.42,1,1.47,3.82,1.51,3.91h140.1s5.17,0,6.66-1.65c0,0-2.85,4.52-9.93,4.52h-5.36v-1.82h-2.5v1.82h-6.28v-1.82h-2.49v1.82h-6.28v-1.82h-2.49v1.82h-6.29v-1.82h-2.5v1.82H217v-1.82h-2.49v1.82h-6.28v-1.82h-2.49v1.82h-6.29v-1.82H197v1.82h-6.28v-1.82h-2.5v1.82h-6.28v-1.82h-2.49v1.82h-6.29v-1.82h-2.49v1.82h-6.28v-1.82h-2.5v1.82h-6.28v-1.82h-2.49v1.82H146.8v-1.82h-2.49v1.82H138v-1.82h-2.5v1.82h-6.81L130.4,321h-8.93l1.63,1.89-.86,8.92H265.89s-.37-3.23,3.4-7.07a27.58,27.58,0,0,0,4.18-4.86c1.09-1.68,2.11-3.68,2.55-9.52h-1.7a4.7,4.7,0,0,0-3.39,1.62,9.58,9.58,0,0,1-4.91,3.85,8.87,8.87,0,0,1-4.3.26l27.86-15.17,1.49,3,.89-.56-1.47-3,3.12-1.7.14,21.62h.31l1.09-21.58h1.77v-4l41.79-22,3.07-1.49-.25-.56M266.26,250h2.82a2.61,2.61,0,0,1-2.82.92Zm-.32,0v1a3.58,3.58,0,0,1-4,.34l0-1.31Zm-9.21,0h4.81l0,1.31a4.89,4.89,0,0,1-4.79,0Zm-.38,0,0,1.31a4.71,4.71,0,0,1-3.38.51V251h-1l0-1Zm3.81-33.9h3.42c0,.42-1.48,1.12-2.53,1.12a1.8,1.8,0,0,1-.89-.16Zm-4,0h3.58v1c-.78.65-3,.74-3.58,0Zm-.31,0v1a2.42,2.42,0,0,1-1.7.51v-.67h-1.2v-.8Zm3.26-14.89h2a2.25,2.25,0,0,1-2,.78Zm-3.06,0h2.79v.8a2.24,2.24,0,0,1-2.79,0Zm-3.07,0h2.78v.8a2.09,2.09,0,0,1-2.78,0Zm-7.1.78a2.19,2.19,0,0,1-2-.78h2Zm3.06,0a2.22,2.22,0,0,1-2.78,0v-.8h2.78Zm.28,0v-.8h2.61l0,.88a2,2,0,0,1-2.59-.08m-5.34,15.05a1.8,1.8,0,0,1-.89.16c-1,0-2.53-.7-2.53-1.12h3.42Zm4,0c-.62.74-2.81.65-3.59,0v-1h3.59Zm1.33-.16v.62a1.72,1.72,0,0,1-1-.46v-1h3.14v.8ZM204.5,244h2.83a2.64,2.64,0,0,1-2.83.93Zm-.31,0v1c-.59.79-3,1.15-4,.35V244ZM195,244h4.81l0,1.33a5,5,0,0,1-4.79,0Zm-.38,0v1.33a5,5,0,0,1-3.69.46v-.83h-.6v-1Zm4.18-39.9h3.42c0,.42-1.48,1.12-2.53,1.12a1.82,1.82,0,0,1-.89-.16Zm-4,0h3.6v1c-.8.65-3,.73-3.6,0Zm-.31,0v1a3,3,0,0,1-2.37.47v-.63H191v-.8ZM197,186.62h2a2.18,2.18,0,0,1-2,.79Zm-3,0h2.78v.8a2.2,2.2,0,0,1-2.78,0Zm-3.08,0h2.78v.8a2.09,2.09,0,0,1-2.78,0Zm-7.11.79a2.23,2.23,0,0,1-2-.79h2Zm3,0a2.2,2.2,0,0,1-2.78,0v-.8h2.78Zm.29,0v-.8h2.64v.85a2,2,0,0,1-2.63-.05M181.57,205a1.82,1.82,0,0,1-.89.16c-1.05,0-2.52-.7-2.53-1.12h3.42Zm4,0c-.61.73-2.8.65-3.59,0v-1h3.59Zm1.52-.16v.62a2,2,0,0,1-1.21-.46v-1h3.39v.8Zm-28.24,23.23h2.9c0,.36-1.26,1-2.15,1a1.48,1.48,0,0,1-.75-.14Zm-3.38,0h3.06v.8c-.67.58-2.53.65-3.06,0Zm-3.35,0h3v.8c-.23.36-1,.53-1.8.48v-.83h-1.24ZM157.2,215h1.57a1.74,1.74,0,0,1-1.57.61Zm-2.58,0H157v.67a2.34,2.34,0,0,1-2.37,0ZM152,215h2.36v.67a2.15,2.15,0,0,1-2.36,0Zm-7.8,13.93a1.52,1.52,0,0,1-.76.14c-.89,0-2.14-.61-2.14-1h2.9Zm-25.36,82-.72-2.39h1.48l.7,2.39Zm1.37-9.36,1.84.24.37,4.86-2-.13Zm1.27,9.36-.71-2.39h1.48L123,311ZM269.79,275h5.92s-.5,2.13-4.64,2.13c-1.13,0-1.28-.34-1.28-.34Zm-7,0h6.4v1.82c-.8,1-4.84,1.53-6.4,0Zm-7,0h6.41v1.82c-.8,1-4.85,1.53-6.41,0Zm-.56,0v1.82c-.78.94-4.71,1.5-6.3,0V275ZM250.16,266H249V252.64h1.22Zm-14.94-15a2.61,2.61,0,0,1-2.82-.92h2.82Zm4.34.37a3.6,3.6,0,0,1-4-.34v-1h4Zm5.19,0a4.72,4.72,0,0,1-4.79,0l0-1.29h4.81Zm.39-.33v-1h5.05v1ZM225,276.81s-.16.34-1.28.34c-4.14,0-4.65-2.13-4.65-2.13H225Zm7,0c-1.54,1.54-5.59,1-6.39,0V275h6.39Zm7,0c-1.56,1.54-5.6,1-6.4,0V275h6.4Zm.55,0v-1.42l2.86,2.34a4.62,4.62,0,0,1-2.86-.92m1.29-1.83h5.1v1.82a3.43,3.43,0,0,1-1.78.82Zm4.53,3.59H246v.57Zm-39.86-7.91h5.94s-.51,2.12-4.65,2.12c-1.13,0-1.29-.33-1.29-.33Zm-7,0,6.4,0v1.8c-.8,1-4.85,1.54-6.4,0Zm-7,0,6.39,0v1.8c-.79,1-4.84,1.54-6.39,0Zm-.56,0v1.8c-.52.62-2.36,1.06-4,.89v-2.7Zm-2.87-10.41h-1.16v-13.7h1.19Zm-14.92-15.37a2.64,2.64,0,0,1-2.83-.93h2.83Zm4.35.37c-1.06.8-3.44.44-4-.35v-1h4Zm5.19,0a4.76,4.76,0,0,1-4.8,0V244h4.81Zm.38-.34v-1h5.05v1Zm1,25.77v.46l-.63-.46Zm-3.42,0h.84c1,.79,1.94,1.47,2.55,1.95l0,.79c-1.47,0-2.93-.39-3.37-.93Zm-2.05,34.74-.87,4.88-4.45-.27.83-4.5h-.67L172.29,310l-5.25-.33.72-34.21h-.55l-1.27,34.14c-.56-.05-1.12-.07-1.68-.11l2.27-34H166l-2.85,33.95-14.14-.9V276.56h11.43a19.11,19.11,0,0,0,4.56-.48A4.56,4.56,0,0,0,168,274h1.07c.51,0,1,.06,1.54.06H184l-.64,36.62-4.66-.31.5-4.94Zm-18.34,6.73h-2.49v-1.81h2.49Zm-8.78,0H149v-1.81h2.49Zm-2.46-37v-1.27h4.49v1.27c-.57.67-3.41,1.09-4.49,0m4.91,0v-1.27h4.49v1.27c-.55.67-3.41,1.09-4.49,0m4.92,0v-1.27H163v1.27c-.53.67-3.19,1.09-4.21,0m4.61,0v-1.26h3.49s-.3,1.49-2.73,1.49c-.67,0-.76-.23-.76-.23m10.23-4.45,6.4,0v1.81c-1.55,1.55-5.61,1-6.4,0Zm-7,0,6.4,0v1.81c-1,1.05-3.19,1.11-4.75.76v0a3.79,3.79,0,0,1-1.65-.75Zm-.57,0v1.8s-.16.33-1.29.33c-4.13,0-4.64-2.12-4.64-2.12Zm-4.67-15.58h2a1.85,1.85,0,0,1-2,.64Zm-.21,0v.67a2.48,2.48,0,0,1-2.78.24v-.91Zm-6.34,0h3.3V256a3.38,3.38,0,0,1-3.29,0Zm-.27,0V256a3,3,0,0,1-2,.4v-.64h-1.16v-.67ZM146,215.6a1.74,1.74,0,0,1-1.57-.61H146Zm2.73.15a2.86,2.86,0,0,1-2.48-.09V215h4.88v.69a2.49,2.49,0,0,1-2.39.07m2.57,52.64a2.58,2.58,0,0,0,1.77-.51,3.66,3.66,0,0,0,2.9,1.27v1.39h2.46a8.75,8.75,0,0,0,3.47,2.33H149v-1.49a2.93,2.93,0,0,0,2.32-3M149,266.85V257h.93v9.81Zm-1.42-38c-.53.65-2.39.58-3.06,0v-.8h3.06Zm1.57-.35v.84a1.84,1.84,0,0,1-1.27-.49v-.8h3.06v.45Zm-3,27.22V256a3.48,3.48,0,0,1-3.34,0v-.92l-.2.89a2.75,2.75,0,0,1-2.83-.18,2.17,2.17,0,0,1-2.21-.73h12.32v.67Zm-13.74,19.39s-.1.23-.76.23c-2.43,0-2.73-1.49-2.73-1.49h3.49Zm4.61,0c-1,1.09-3.69.67-4.21,0v-1.27H137Zm4.92,0c-1.09,1.09-3.93.67-4.49,0v-1.27H142Zm.43,0v-1.27h4.38l0,1.35c-1.15.95-3.8.58-4.34-.08m.31,29.44,3.37.45L146,308.3l-3.66-.25Zm0,7.56h-2.49v-1.81h2.49Zm-.6-7.64-.41,3.48-3.55-.24.67-3.68Zm-18,6.43-.71-2.39h1.48l.71,2.39Zm-.42-4.17-.43-4.79,14.9,2-.71,3.73Zm10.18,5.38h-2.49v-1.81h2.49Zm-5.65,2.53.39,1.31h-.83l-.39-1.31Zm-3.14,0,.39,1.31h-.83l-.39-1.31Zm-3.15,0,.4,1.31h-.84l-.38-1.31Zm-2,0h.83l.39,1.31h-.84Zm.93,3-.38-1.31h.82l.4,1.31Zm1.23,0-.38-1.31h.82l.4,1.31Zm1-3h.83l.39,1.31h-.83Zm.94,3-.39-1.31h.82l.4,1.31Zm1.22,0-.38-1.31h.82l.4,1.31Zm1-3H127l.4,1.31h-.84Zm.93,3-.38-1.31h.82l.39,1.31Zm1.23,0-.39-1.31h.83l.39,1.31Zm127,0h-7.23v-1.82h-2.5v1.82h-6.28v-1.82h-2.49v1.82h-6.29v-1.82H228v1.82h-6.28v-1.82h-2.49v1.82H213v-1.82h-2.49v1.82h-6.28v-1.82h-2.5v1.82h-6.28v-1.82h-2.5v1.82h-6.27v-1.82h-2.5v1.82h-6.28v-1.82h-2.49v1.82H169.1v-1.82h-2.49v1.82h-6.28v-1.82h-2.49v1.82h-6.29v-1.82h-2.49v1.82h-6.29v-1.82h-2.49v1.82H134v-1.82h-2.49v1.82h-1.24l-.8-2.69H255.34a.75.75,0,0,1,.15,0,3.61,3.61,0,0,0,.74,2.69Zm10.85-.91a7.71,7.71,0,0,0,3.05-1.69,6.12,6.12,0,0,1-3.05,3.25Zm-6.53,1.92c-3.12-.9-3.91-3.73-1.6-4.83a3,3,0,0,0,1.6,2.61Zm3.69-1.54a17.11,17.11,0,0,0,1.91-.18v1.67a8.28,8.28,0,0,1-1.91.31Zm-.94,0V319a9.14,9.14,0,0,1-1.81-.15v-2a8.48,8.48,0,0,0,1.81.29" transform="translate(-94 -172.64)"/><path class="b" d="M155.64,272.76" transform="translate(-94 -172.64)"/><polygon class="c" points="14.53 96.89 14.11 97.44 13.64 97.08 14.06 96.53 14.53 96.89"/><path class="e" d="M490,331.84h18.71v-.51s-3.8-.1-3.68-6.87c0,0,0-20.86,0-20.87,0-14.5-14.65-14-14.65-14A17.14,17.14,0,0,0,479,294.48v-4.81l-18.86.74V291c3.91.26,3.57,6.16,3.57,6.32v28.31c-1.29,0-3.53,0-3.53,0-6.3-.35-6.31-6.81-6.29-7,0,0-.17-13.06-.17-13,.08-9.36-5.5-12.36-5.43-12.43-10.54-6.53-25.65-2.05-25.65-2.05s-3.24,10.24-3.31,10.16c16-7,18.66-.08,18.58-.32a3.11,3.11,0,0,1,.19,1.84c-.53,3-6.1,3.85-6.17,3.85A70.43,70.43,0,0,0,421.88,309c-10.16,3.47-8.82,12-8.82,12.12,1.74,11,16.61,10.72,16.61,10.72h6.38l3.23-6.62c-6.62,1.33-8.66-2.28-8.66-2.28a5.14,5.14,0,0,1,1.42-7.25c1.62-1.26,6.84-2.43,6.84-2.43V320c.52,12.36,13.68,11.92,14.09,11.87h29.69v-.5s-3.49-.12-3.66-6l0-19.08h0c-.13-7.07,5.69-7.16,5.68-7.17,5.68-.06,5.27,5,5.3,6.1,0,0,0,19.28,0,19.29h.15l-.14,0v7.35" transform="translate(-94 -172.64)"/><path class="e" d="M405.86,271.15v.5c5.94,2.31,3.73,8.15,3.73,8.15l-10.86,34.7L384,271.25H363.52v.61c3.52.8,5.24,6.93,5.24,6.93l13.46,37.52C386,326.87,392.93,329,392.93,329l8.61,3.35,20.72-61.15h-16.4" transform="translate(-94 -172.64)"/><path class="e" d="M728.24,324.47V271.26l-19.08.74v.54c3.9.26,3.56,6.16,3.56,6.31v13.79c-13.33-8.51-23,2.52-23,2.32-6.23,6.23-6,16.05-6,16,0,10.36,6,15.64,6,15.64a17.08,17.08,0,0,0,17.49,5.22s4.13-7.39,4.13-7.45c-11.79,2-11.79-13.35-11.72-13.41,0-13.15,7-12.4,7.05-12.47,6,.07,6,7,6,6.73v26.63h0l19.26,0v-.52s-3.84.38-3.74-6.87" transform="translate(-94 -172.64)"/><path class="e" d="M671,295.14v-5.47l-18.85.74V291c3.89.26,3.56,6.16,3.56,6.32v28.31c-1.22,0-3.75,0-3.75,0-6.31-.35-6.32-6.81-6.3-7,0,0-.16-13.05-.16-13,.07-9.37-5.51-12.36-5.43-12.43-10.54-6.53-25.65-2.05-25.65-2.05s-3.23,10.23-3.32,10.16c16.05-7,18.67-.08,18.58-.32a3,3,0,0,1,.18,1.84c-.51,3-6.08,3.85-6.16,3.85A68.77,68.77,0,0,0,613.57,309c-10.16,3.47-8.82,12-8.82,12.12,1.74,11,16.61,10.71,16.61,10.71h6.38l3.22-6.61c-6.61,1.33-8.65-2.28-8.65-2.28a5.15,5.15,0,0,1,1.41-7.25c1.63-1.26,6.85-2.43,6.85-2.43V320c.52,12.36,13.68,11.92,14.08,11.87h30v-.5c-.18,0-3.83.29-3.75-6.88V307.52h0c0,.05-.53-9.61,12.19-7.48V289.66a10.47,10.47,0,0,0-12.2,5.48" transform="translate(-94 -172.64)"/><path class="e" d="M573.57,289.61h-43.7c-5.13.25-10.9,1.24-15.43,5.65,0,0-7.9,7.71-1.12,17.47a19,19,0,0,0,8.55,6.24l.13,0-.09,0c.48,0-3.77.47-5.64,1.59-1,.66-1.37,1.39-1.07,3.21s1.9,7.67,8.09,8c4.43.2,10.78-.59,14.13,1.9a6.3,6.3,0,0,1,2.41,4.7c0,2.22-.25,6.77-9.52,7.25-.44,0-7.69-.06-9.11-5.2,0,0-.75-4.38,3.48-5,0,0-5.57-1.3-10.29,0-6.39,1.78-8.28,7.67-4.69,11.88-.05-.05,5.21,6.18,19.4,6.08,14.31.39,28.63-3.9,26.09-18.25-.07,0-1.72-10.24-17.2-10.18h-7.66s-3.25.24-3.91-1.3c0,0-1.45-2.33,3.07-2.49h0l.82-.09s13.36-1.64,17.5-7.48c.06-.07,6.33-7-.12-15.33a9.27,9.27,0,0,0-1-1.13h11.49c0,5.24-.05,20.6,0,20.71,0,14.51,14.91,14,14.91,14a17.14,17.14,0,0,0,11.44-5v4.94h19.05v-.5c-4.08-.18-3.74-6.72-3.74-6.87v-34.8l-18.85.74V291c3.9.26,3.56,6.16,3.56,6.32v18h0c-.21,8.05-5.83,7.1-5.81,7.2-5.29.05-5.16-5.81-5.16-5.81v-27m-43.08,23c-.4.09-5.9-.41-5.3-8.09.06.07-.15-6.86,5.32-6.86,0,0,5-.21,5.08,6.74,0,.12.67,8.21-5.1,8.21" transform="translate(-94 -172.64)"/><path class="e" d="M733.36,278.92a7.62,7.62,0,1,0,7.62-7.63,7.63,7.63,0,0,0-7.62,7.63m1,0a6.57,6.57,0,1,1,6.57,6.56,6.58,6.58,0,0,1-6.57-6.56" transform="translate(-94 -172.64)"/><path class="e" d="M739.3,278.33h2.06c1.38-.06,1.69-.68,1.69-1.39s-.31-1.34-1.69-1.4H739.3v2.79m0,1.07v4.05h-1.25v-9h3.21c1.51,0,3.06.48,3.06,2.26a2.13,2.13,0,0,1-1.68,2.16v0c1.07.25,1.22.83,1.35,1.84a12.88,12.88,0,0,0,.57,2.69h-1.33c-.11-.53-.26-1.11-.33-1.65a3.74,3.74,0,0,0-.5-2c-.36-.41-.86-.37-1.36-.41Z" transform="translate(-94 -172.64)"/></svg>