<svg xmlns="http://www.w3.org/2000/svg" viewBox="0 0 587.99 265.99"><defs><style>.a{fill:#a88d39;}.b{fill:#a9a9aa;}.c{fill:#a89e76;}.d{fill:#494949;}</style></defs><title>logo-bny-mellon-im</title><path class="a" d="M272.45,210.79l-69.79-27.28a173.92,173.92,0,0,0-37.2,27.28,174.94,174.94,0,0,0,37.2,27.28Z" transform="translate(-126.95 -153.9)"/><path class="b" d="M127,153.9s7.39,24,31.64,49.89a174.83,174.83,0,0,1,39.1-22.25Z" transform="translate(-126.95 -153.9)"/><path class="c" d="M127,267.67s7.39-24,31.64-49.88A174.81,174.81,0,0,0,197.69,240Z" transform="translate(-126.95 -153.9)"/><polygon class="d" points="130.41 145.76 136.87 145.76 136.87 181.9 107.36 141.55 92.63 141.55 92.63 145.76 98.72 145.76 100.73 148.62 100.73 194.3 94.29 194.3 94.29 198.55 112.5 198.55 112.5 194.3 106.09 194.3 106.09 155.89 137.77 199.5 142.19 199.5 142.19 145.76 148.55 145.76 148.55 141.55 130.41 141.55 130.41 145.76"/><path class="d" d="M188.65,347.55h-7.3v-22.2h7.3c7.6,0,12.51,4.53,12.51,11.55,0,7.84-6.72,10.65-12.51,10.65m-7.3-47.12h7c3.71,0,9.92,1.28,9.92,9.77,0,7.06-5.22,10.22-10.39,10.22h-6.52Zm16.39,21.93c5.42-1.54,10.47-5.76,10.47-12.5,0-8.75-6.5-14.4-16.59-14.4H165.46v4.21h6.34v48.52h-6.34v4.26h27.66c10.67,0,17.8-6.07,17.8-15.13s-6.42-13.49-13.18-15" transform="translate(-126.95 -153.9)"/><polygon class="d" points="187.42 145.76 194.72 145.76 182.47 165.97 169.3 145.76 175.91 145.76 175.91 141.55 152.9 141.55 152.9 145.76 158.04 145.76 175.37 172.41 175.37 194.28 169.02 194.28 169.02 198.55 191.25 198.55 191.25 194.28 184.82 194.28 184.82 171.92 200.84 145.76 205.46 145.76 205.46 141.55 187.42 141.55 187.42 145.76"/><polygon class="d" points="457.34 193.65 438.56 193.65 438.56 145.76 444.9 145.76 444.9 141.55 422.66 141.55 422.66 145.76 429.04 145.76 429.04 194.28 422.66 194.28 422.66 198.55 462.31 198.55 462.31 186.17 457.34 186.17 457.34 193.65"/><polygon class="d" points="408.5 193.65 389.75 193.65 389.75 145.76 396.12 145.76 396.12 141.55 373.85 141.55 373.85 145.76 380.21 145.76 380.21 194.28 373.85 194.28 373.85 198.55 413.5 198.55 413.5 186.17 408.5 186.17 408.5 193.65"/><polygon class="d" points="273.3 182.52 254.1 141.56 238.19 141.56 238.19 145.76 244.62 145.76 244.62 194.28 238.19 194.28 238.19 198.55 256.4 198.55 256.4 194.28 249.97 194.28 249.97 154.75 271.23 200.17 291.41 155.75 291.41 194.28 285.07 194.28 285.07 198.55 307.31 198.55 307.31 194.28 300.93 194.28 300.93 145.76 307.31 145.76 307.31 141.56 292.18 141.56 273.3 182.52"/><path class="d" d="M623.39,348c-10.57,0-17.93-9.91-17.93-24.09s7.42-24,18-24c10.37,0,17.62,9.86,17.62,24S633.82,348,623.39,348m0-53.61C607.75,294.42,595,307.7,595,324s12.75,29.51,28.39,29.51,28.16-13.29,28.16-29.61-12.62-29.52-28.16-29.52" transform="translate(-126.95 -153.9)"/><polygon class="d" points="569.85 141.55 569.85 145.76 576.29 145.76 576.29 181.91 546.81 141.55 532.03 141.55 532.03 145.76 538.14 145.76 540.17 148.62 540.17 194.28 533.75 194.28 533.75 198.55 551.94 198.55 551.94 194.28 545.5 194.28 545.5 155.89 577.18 199.5 581.63 199.5 581.63 145.76 587.98 145.76 587.98 141.55 569.85 141.55"/><polygon class="d" points="355.03 193.65 335.29 193.65 335.29 172.03 350.2 172.03 350.2 178.52 355.19 178.52 355.19 160.71 350.2 160.71 350.2 167.12 335.29 167.12 335.29 146.53 354.26 146.53 354.26 153.74 359.17 153.74 359.17 139.16 354.19 139.16 354.19 141.55 319.42 141.55 319.42 145.76 325.76 145.76 325.76 194.28 319.42 194.28 319.42 198.55 360.03 198.55 360.03 186.17 355.03 186.17 355.03 193.65"/><rect class="d" x="38.51" y="237.18" width="3.63" height="28.24"/><polygon class="d" points="68.63 265.43 54.77 242.72 54.77 265.43 51.34 265.43 51.34 237.18 55.33 237.18 69.19 259.97 69.19 237.18 72.62 237.18 72.62 265.43 68.63 265.43"/><polygon class="d" points="91.23 265.43 87.53 265.43 78 237.18 81.67 237.18 89.47 261.04 97.12 237.18 100.75 237.18 91.23 265.43"/><polygon class="d" points="106.14 265.43 106.14 237.18 125.02 237.18 125.02 240.45 109.68 240.45 109.68 249.05 123.14 249.05 123.14 252.4 109.68 252.4 109.68 262.16 125.02 262.16 125.02 265.43 106.14 265.43"/><path class="d" d="M276,417a11.54,11.54,0,0,1-8,2.82,11.66,11.66,0,0,1-8.09-2.7,9.38,9.38,0,0,1-3-6.77h3.7a6.39,6.39,0,0,0,2,4.45,8,8,0,0,0,5.42,1.76,7.44,7.44,0,0,0,5.26-1.64,4.16,4.16,0,0,0,1.43-3.3c0-2.19-1.39-4-4.74-4.55-1.55-.23-2.95-.43-4.46-.67-4.23-.64-7.53-3-7.53-7.49a7.82,7.82,0,0,1,2.47-5.58,10.5,10.5,0,0,1,7.41-2.79,10.63,10.63,0,0,1,7.33,2.71,8.52,8.52,0,0,1,2.71,6.06h-3.7a5.89,5.89,0,0,0-1.4-3.55,7.39,7.39,0,0,0-10,0,4.49,4.49,0,0,0-1.15,3.07c0,2.55,2.11,3.7,4.22,4,1.59.21,3.14.48,4.7.72,4.7.68,7.85,3.54,7.85,8A7.39,7.39,0,0,1,276,417" transform="translate(-126.95 -153.9)"/><polygon class="d" points="166.34 240.49 166.34 265.43 162.75 265.43 162.75 240.49 154.35 240.49 154.35 237.18 174.75 237.18 174.75 240.49 166.34 240.49"/><polygon class="d" points="204.48 265.43 204.48 241.6 195.72 265.03 192.93 265.03 184.17 241.41 184.17 265.43 180.78 265.43 180.78 237.18 185.88 237.18 194.41 260.17 202.89 237.18 207.87 237.18 207.87 265.43 204.48 265.43"/><polygon class="d" points="216.22 265.43 216.22 237.18 235.1 237.18 235.1 240.45 219.76 240.45 219.76 249.05 233.22 249.05 233.22 252.4 219.76 252.4 219.76 262.16 235.1 262.16 235.1 265.43 216.22 265.43"/><polygon class="d" points="260.23 265.43 246.36 242.72 246.36 265.43 242.94 265.43 242.94 237.18 246.92 237.18 260.79 259.97 260.79 237.18 264.21 237.18 264.21 265.43 260.23 265.43"/><polygon class="d" points="281.95 240.49 281.95 265.43 278.36 265.43 278.36 240.49 269.96 240.49 269.96 237.18 290.35 237.18 290.35 240.49 281.95 240.49"/><polygon class="d" points="329.2 265.43 329.2 241.6 320.44 265.03 317.65 265.03 308.88 241.41 308.88 265.43 305.5 265.43 305.5 237.18 310.59 237.18 319.12 260.17 327.61 237.18 332.59 237.18 332.59 265.43 329.2 265.43"/><path class="d" d="M485.53,419.33l-2.32-6.69H471l-2.28,6.69h-3.58l10-28.25h4.14l10,28.25ZM477,394.63l-5,14.66h10Z" transform="translate(-126.95 -153.9)"/><polygon class="d" points="385.07 265.43 371.21 242.72 371.21 265.43 367.78 265.43 367.78 237.18 371.77 237.18 385.63 259.97 385.63 237.18 389.06 237.18 389.06 265.43 385.07 265.43"/><path class="d" d="M542,419.33l-2.31-6.69H527.41l-2.27,6.69h-3.59l10-28.25h4.15l10,28.25Zm-8.48-24.7-5,14.66h10Z" transform="translate(-126.95 -153.9)"/><path class="d" d="M568.29,419.33l-.6-3.39a9.19,9.19,0,0,1-7.69,3.95,10.68,10.68,0,0,1-7.6-2.91c-2.88-2.79-3.67-6.7-3.67-11.76,0-4.5.59-8.64,3.67-11.63a10.79,10.79,0,0,1,7.6-3,11,11,0,0,1,8.09,3.19,8.49,8.49,0,0,1,2.43,5.5h-3.71a5.37,5.37,0,0,0-1.27-3.11,7,7,0,0,0-5.54-2.23,7.2,7.2,0,0,0-5.14,2.15c-2.31,2.4-2.46,6.22-2.46,9.16s.19,6.9,2.54,9.29a6.91,6.91,0,0,0,5.06,2,7.25,7.25,0,0,0,5.14-2c1.87-1.84,2.43-4.58,2.43-7.17H560v-3.31h10.76v15.22Z" transform="translate(-126.95 -153.9)"/><polygon class="d" points="451.98 265.43 451.98 237.18 470.86 237.18 470.86 240.45 455.52 240.45 455.52 249.05 468.99 249.05 468.99 252.4 455.52 252.4 455.52 262.16 470.86 262.16 470.86 265.43 451.98 265.43"/><polygon class="d" points="501.82 265.43 501.82 241.6 493.06 265.03 490.27 265.03 481.51 241.41 481.51 265.43 478.12 265.43 478.12 237.18 483.22 237.18 491.74 260.17 500.23 237.18 505.21 237.18 505.21 265.43 501.82 265.43"/><polygon class="d" points="514.43 265.43 514.43 237.18 533.31 237.18 533.31 240.45 517.97 240.45 517.97 249.05 531.44 249.05 531.44 252.4 517.97 252.4 517.97 262.16 533.31 262.16 533.31 265.43 514.43 265.43"/><polygon class="d" points="557.86 265.43 543.99 242.72 543.99 265.43 540.57 265.43 540.57 237.18 544.55 237.18 558.42 259.97 558.42 237.18 561.84 237.18 561.84 265.43 557.86 265.43"/><polygon class="d" points="579.58 240.49 579.58 265.43 575.99 265.43 575.99 240.49 567.59 240.49 567.59 237.18 587.99 237.18 587.99 240.49 579.58 240.49"/></svg>