<svg xmlns="http://www.w3.org/2000/svg" viewBox="0 0 745.38 114.6"><defs><style>.a{fill:#77113b;}.a,.b{fill-rule:evenodd;}.b{fill:#da3045;}</style></defs><path class="a" d="M745.38,55l-20.08.16a11.46,11.46,0,0,0-3.16-6.9q-3.28-3.3-9.58-3.3a19.53,19.53,0,0,0-9.74,2.46,47.93,47.93,0,0,0-9.89,8l.05,0q-9.43,0-20,.06v-21c0-1.73.71-2.6,2.15-2.6h15.33c1.33,0,2,.77,2,2.3v8c0,.61.16,1,.46,1.07a.69.69,0,0,0,.2,0,1.79,1.79,0,0,0,1-.49,64.87,64.87,0,0,1,13.42-9.36A30,30,0,0,1,721,30.23q11.34,0,17.86,6.52T745.38,54v1ZM535.77,61.4c-5.46.72-10.42,1.48-14.94,2.27-1.68.21-3.35.41-5,.63V57.54q0-6-3.29-9.28T503,45a19.53,19.53,0,0,0-9.74,2.46,48.19,48.19,0,0,0-9.89,8V69.3q-10.44,1.9-19.93,4.07v-39c0-1.73.71-2.6,2.15-2.6h15.33c1.33,0,2,.77,2,2.3v8c0,.61.16,1,.46,1.07a.64.64,0,0,0,.2,0,1.79,1.79,0,0,0,1-.49A64.61,64.61,0,0,1,498,33.3a30,30,0,0,1,13.42-3.07q11.34,0,17.86,6.52T535.77,54V61.4ZM385.26,104.71a37.33,37.33,0,0,1-7.89-9.89,43,43,0,0,1-5.22-21.33,46.53,46.53,0,0,1,5.37-22.7A38.63,38.63,0,0,1,392.09,35.6a42.3,42.3,0,0,1,40.71-.3A34.06,34.06,0,0,1,446.45,50q4.83,9.59,4.83,22.78v.61a3.7,3.7,0,0,1-.46,2.15,2.82,2.82,0,0,1-2,.76H394.54c-1.12,0-1.68.83-1.68,2.46A21.93,21.93,0,0,0,395.77,90a20.59,20.59,0,0,0,4.52,5.41,132.81,132.81,0,0,0-15,9.32ZM569.81,58.06c-7.2.51-13.83,1.08-19.94,1.7V34.37c0-1.73.77-2.6,2.3-2.6h15.49c1.43,0,2.15.82,2.15,2.45V58.06ZM604,56.29q-10.77.39-20.31.9a41.36,41.36,0,0,1,2.79-6.48A37.68,37.68,0,0,1,600.93,35.6a43.19,43.19,0,0,1,41.86.08,37.32,37.32,0,0,1,14.27,15.11,41.68,41.68,0,0,1,2.07,4.62h0c-7,0-13.61,0-20,.11v0a24.4,24.4,0,0,0-2.45-4.56q-5.2-7.51-14.87-7.51t-14.95,7.51a24.08,24.08,0,0,0-2.8,5.34ZM569.27,21.55a3.93,3.93,0,0,1-2.84.85H552.48a2.82,2.82,0,0,1-2.3-.77,3.63,3.63,0,0,1-.61-2.3v-15c0-1.94.81-2.91,2.45-2.91h15.79a2.14,2.14,0,0,1,1.69.69A2.78,2.78,0,0,1,570.11,4V18.87A3.68,3.68,0,0,1,569.27,21.55ZM431.8,62.76a22.29,22.29,0,0,0-2.14-9.52,18.6,18.6,0,0,0-6.37-7.51,17.22,17.22,0,0,0-10-2.92,18.61,18.61,0,0,0-14.65,6.37,22.43,22.43,0,0,0-5.44,15.72h36a3.93,3.93,0,0,0,2.07-.38C431.62,64.26,431.8,63.67,431.8,62.76Zm-71.45,47.09q0,3.23-3.22,3.22H343a2.77,2.77,0,0,1-2-.61,3,3,0,0,1-.61-2.15V57.54q0-6-3.07-9.28T328.46,45a18.38,18.38,0,0,0-9.21,2.53,37.52,37.52,0,0,0-8,6.06A6.42,6.42,0,0,0,309.45,58v51.85q0,3.23-3.23,3.22h-14.1c-1.75,0-2.61-.92-2.61-2.76V57.54q0-6-3-9.28t-9-3.3a18.91,18.91,0,0,0-9.43,2.46,42.27,42.27,0,0,0-9.58,8V110a3.09,3.09,0,0,1-.77,2.38,4.17,4.17,0,0,1-2.76.69H241.36a3.05,3.05,0,0,1-2.15-.61,3,3,0,0,1-.61-2.15V34.37c0-1.73.71-2.6,2.15-2.6h15.18c1.43,0,2.14.77,2.14,2.3v8c0,.61.16,1,.47,1.07a.63.63,0,0,0,.19,0,1.79,1.79,0,0,0,1-.49,61.62,61.62,0,0,1,13-9.44,28.21,28.21,0,0,1,13-3.14A24,24,0,0,1,299.78,34a20,20,0,0,1,7.82,10.2.91.91,0,0,0,.77.46,2.1,2.1,0,0,0,1.38-.76q13.65-13.65,27.14-13.66,10.89,0,17.17,6.45t6.29,17.79ZM227.28,47.42c0,1.25-.51,1.88-1.52,1.88a3.89,3.89,0,0,1-.47,0,39.08,39.08,0,0,0-9.51-1.08,19,19,0,0,0-8.36,2.15,21.4,21.4,0,0,0-7.21,5.6,11.13,11.13,0,0,0-2.83,7.13V110q0,3.07-3.53,3.07H180.21a2.44,2.44,0,0,1-2.76-2.76V34.37c0-1.73.71-2.6,2.14-2.6h14.88c1.43,0,2.14.77,2.14,2.3v9.36c0,.81.26,1.22.77,1.22.31,0,.71-.25,1.23-.76a40.1,40.1,0,0,1,11.19-10,23.56,23.56,0,0,1,12-3.61q5.52,0,5.52,2.46Zm-63.39,65a2.52,2.52,0,0,1-2.07.69h-13a2.22,2.22,0,0,1-2-.92,7.15,7.15,0,0,1-.92-2.76l-.15-4.6c-.11-.92-.46-1.39-1.08-1.39a5.15,5.15,0,0,0-2,1.23,35.76,35.76,0,0,1-25.15,10q-11.65,0-18.48-6.21T92.2,92.21q0-12.73,11.35-20.25t31.74-8.29l7.67-.45c1.63-.21,2.45-1,2.45-2.31V57.39c0-4.51-1.36-8-4.06-10.51s-6.42-3.76-11.12-3.76q-11.65,0-17.94,10.12a9.91,9.91,0,0,1-.84,1,1.34,1.34,0,0,1-1,.38,4.07,4.07,0,0,1-1.23-.15L96.34,51.25a1.36,1.36,0,0,1-1.22-1.38,4.78,4.78,0,0,1,.61-2,27.19,27.19,0,0,1,13.11-13.11q9.12-4.51,22.31-4.53,17.17,0,25.22,6.75t8,19v54A4,4,0,0,1,163.89,112.38ZM145.41,86.84V75.94a3,3,0,0,0-.54-2,2.24,2.24,0,0,0-1.76-.61l-6.29.46q-10.73.77-17.86,4.83t-7.13,11.12A10.14,10.14,0,0,0,115.59,98q3.75,3.06,10,3.06a21.35,21.35,0,0,0,14-4.9Q145.42,91.6,145.41,86.84ZM88.8,34.29c0,10.77-3.75,19.19-11.13,25s-17.42,8.82-29.75,8.82H23.85A1.72,1.72,0,0,0,21.94,70v40.35c0,1.83-1,2.69-3,2.69H2.38A2.08,2.08,0,0,1,0,110.68V2.23C0,.71.61,0,1.92,0h43.4C58.16,0,68.74,2.92,76.76,8.68S88.8,23,88.8,34.29Zm-22.56-.46c0-6.13-2-10.75-6-13.72s-9.37-4.45-16.17-4.45H24.92c-2,0-3,1-3,2.83v31a3.68,3.68,0,0,0,.54,2.22,2.16,2.16,0,0,0,1.83.76H45c6.5,0,11.71-1.6,15.5-4.76S66.24,39.85,66.24,33.83Z"/><path class="b" d="M745.38,55v54.85q0,3.23-3.23,3.22h-14.1a2.73,2.73,0,0,1-2.07-.61,3.29,3.29,0,0,1-.54-2.15V57.54a20,20,0,0,0-.14-2.38ZM673,55.4q10.56,0,20-.06l-.05,0V110a3.09,3.09,0,0,1-.76,2.38,4.19,4.19,0,0,1-2.76.69H675.76a2.29,2.29,0,0,1-2.76-2.76Zm-13.87,0a48.56,48.56,0,0,1,3,17.32A44.76,44.76,0,0,1,657,94.35a37.57,37.57,0,0,1-14.34,14.89,40.9,40.9,0,0,1-21,5.36,41.31,41.31,0,0,1-21-5.29,36.43,36.43,0,0,1-14.26-14.8,45.26,45.26,0,0,1-5.06-21.63,49,49,0,0,1,2.42-15.69q9.56-.51,20.31-.9a45.64,45.64,0,0,0-2.49,16.13q0,13.8,5.29,21.17T621.79,101q9.81,0,15-7.36t5.13-21.17q0-10.15-2.76-16.9C645.52,55.45,652.18,55.41,659.13,55.41Zm-123.36,6v48.45c0,2.15-1.08,3.22-3.22,3.22H518.44a2.75,2.75,0,0,1-2.07-.61,3.29,3.29,0,0,1-.54-2.15v-46c1.65-.22,3.32-.42,5-.63C525.35,62.88,530.31,62.12,535.77,61.4Zm-72.38,12q9.5-2.16,19.93-4.07V110a3.09,3.09,0,0,1-.76,2.38,4.19,4.19,0,0,1-2.76.69H466.15a3.05,3.05,0,0,1-2.15-.61,3,3,0,0,1-.61-2.15Zm-78.13,31.34a132.81,132.81,0,0,1,15-9.32,22.22,22.22,0,0,0,3.53,2.42,22.92,22.92,0,0,0,11.27,2.83A24.26,24.26,0,0,0,426.51,98a31.58,31.58,0,0,0,9.74-8.36c.51-.51.92-.77,1.23-.77a3.67,3.67,0,0,1,1.38.46l9.35,4.14a1.49,1.49,0,0,1,1.07,1.39,3,3,0,0,1-.61,1.38q-6.9,10-15.26,14.18t-20.62,4.22a42,42,0,0,1-20.93-5.21,38.12,38.12,0,0,1-6.6-4.68ZM569.81,58.06V109.7a3.4,3.4,0,0,1-.85,2.6,4.13,4.13,0,0,1-2.83.77H552.79a3.29,3.29,0,0,1-2.3-.61,3,3,0,0,1-.62-2.15V59.76c6.11-.62,12.74-1.19,19.94-1.7Z"/></svg>