<svg xmlns="http://www.w3.org/2000/svg" viewBox="0 0 683.23 150.61"><defs><style>.a{fill:#5e8667;}.b{fill:#122518;}</style></defs><path class="a" d="M262.21,340.25h9.7c3.83,0,6,1.38,6,4.16,0,2-1.65,3.43-4,3.85h0c1.34.09,2.59.4,3.12,1.38.77,1.45.86,4.79,1.52,6.44h-4.9c-.5-1.54-.44-3.83-.88-4.93-.29-.73-1-1.1-2.84-1.1h-3.08v6h-4.62v-15.8Zm4.62,6.77h3.67c2.11,0,2.79-.66,2.79-1.87,0-1.54-1.21-1.83-3.43-1.83h-3V347Z" transform="translate(-79.33 -222.33)"/><path class="a" d="M302.58,340.25h4.62v15.9h-4.62Z" transform="translate(-79.33 -222.33)"/><path class="a" d="M336,351c0,2,1,2.49,3.12,2.49,2.73,0,3.14-1,3.14-1.67,0-1.05-1.1-1.41-2.92-1.76l-2.26-.44c-2.62-.51-5.37-1.47-5.37-4.51,0-3.89,3.61-5.26,7.23-5.26,5.81,0,7.45,1.78,7.61,5H342.1c-.13-1.63-1.45-1.87-2.84-1.87-2,0-2.9.68-2.9,1.56,0,1.08,1.45,1.36,3.14,1.71l2.13.44c2.9.59,5.28,1.54,5.28,4.68,0,4.42-4.46,5.23-8,5.23-6.4,0-7.48-2.75-7.48-5.56H336Z" transform="translate(-79.33 -222.33)"/><path class="a" d="M371.59,340.25h4.62v7l6.42-7h5.56l-6.95,7.13,7.46,8.77h-6L376.24,348h0v8.18h-4.62v-15.9Z" transform="translate(-79.33 -222.33)"/><path class="a" d="M441.62,340.25h7.12L453.42,352l4.95-11.79h6.88v15.9H460.9V343.2h0l-5.3,12.95h-4.75l-5.28-12.93h0v12.93h-3.91v-15.9Z" transform="translate(-79.33 -222.33)"/><path class="a" d="M497.27,340.25h5.52l8.25,15.9h-5.17l-1.5-3.14H495.1l-1.5,3.14h-4.75Zm2.55,3.08L496.56,350H503Z" transform="translate(-79.33 -222.33)"/><path class="a" d="M534.48,340.25h6.07l7.23,11.44h0V340.25h4.09v15.9H545.8l-7.19-11.44h0v11.44h-4.09v-15.9Z" transform="translate(-79.33 -222.33)"/><path class="a" d="M583.78,340.25h5.52l8.24,15.9h-5.17l-1.5-3.14h-9.24l-1.53,3.14h-4.75Zm2.55,3.08L583.1,350h6.4Z" transform="translate(-79.33 -222.33)"/><path class="a" d="M629.29,347.4h8.42v8.4a50.73,50.73,0,0,1-7.78.75c-5.72,0-10.09-2.16-10.09-8,0-6,3.91-8.66,9.76-8.66,4,0,8.18,1.23,8.33,5.45h-4.75c-.07-1.74-1.61-2.38-3.56-2.38-3.69,0-5,2.31-5,5.17,0,3.5,1.94,5.39,5.63,5.39a16.52,16.52,0,0,0,3.28-.4v-2.77h-4.2v-3Z" transform="translate(-79.33 -222.33)"/><path class="a" d="M663.31,340.25h13.63v3.25h-9v2.95h8.53v3.25h-8.53v3.17h9.16v3.28H663.31Z" transform="translate(-79.33 -222.33)"/><path class="a" d="M702.49,340.25h9.7c3.83,0,6,1.38,6,4.16,0,2-1.65,3.43-4,3.85h0c1.34.09,2.59.4,3.12,1.38.77,1.45.86,4.79,1.52,6.44h-4.9c-.5-1.54-.44-3.83-.88-4.93-.29-.73-1-1.1-2.84-1.1H707.1v6h-4.62v-15.8Zm4.62,6.77h3.67c2.11,0,2.79-.66,2.79-1.87,0-1.54-1.21-1.83-3.43-1.83h-3V347Z" transform="translate(-79.33 -222.33)"/><path class="a" d="M746.93,351c0,2,1,2.49,3.12,2.49,2.73,0,3.14-1,3.14-1.67,0-1.05-1.1-1.41-2.92-1.76l-2.27-.44c-2.62-.51-5.37-1.47-5.37-4.51,0-3.89,3.61-5.26,7.23-5.26,5.81,0,7.45,1.78,7.61,5H753c-.13-1.63-1.45-1.87-2.84-1.87-2,0-2.9.68-2.9,1.56,0,1.08,1.45,1.36,3.14,1.71l2.13.44c2.9.59,5.28,1.54,5.28,4.68,0,4.42-4.46,5.23-8,5.23-6.4,0-7.48-2.75-7.48-5.56h4.6Z" transform="translate(-79.33 -222.33)"/><path class="b" d="M230.27,287.51c-5-37.52-36-65.18-75.17-65.18-41.58,0-75.77,33.75-75.77,75.36s34.19,75.25,75.77,75.25c39.17,0,70.16-27,75.14-65h-16.9c-4.24,27.6-28.78,48.4-58.24,48.4-32.42,0-59.09-26.23-59.09-58.65s26.7-58.76,59.09-58.76c29.43,0,54,21,58.21,48.58h17Z" transform="translate(-79.33 -222.33)"/><polygon class="b" points="70.27 68.13 70.27 82.51 112.76 75.32 70.27 68.13 70.27 68.13"/><path class="b" d="M178.26,308H194c-3.54,17.37-19.87,29.43-38.87,29.43-21.8,0-40.28-17.48-40.28-39.73,0-21.8,18.48-39.95,40.28-39.95,18.92,0,35.19,12.28,39.17,29.77H178.1c-3.54-9.18-11.62-15.27-23-15.27a25.35,25.35,0,0,0-25.53,25.15v.31c0,13.94,11.84,25.23,25.56,25.23,11.4,0,19.48-6.09,23.13-14.94Z" transform="translate(-79.33 -222.33)"/><polygon class="b" points="409.71 88.87 402.62 88.87 402.62 59.78 384.33 83.02 366.09 59.78 366.09 88.87 359.08 88.87 359.08 52.53 368.73 52.53 384.41 72.21 400.06 52.53 409.71 52.53 409.71 88.87 409.71 88.87"/><path class="b" d="M557.87,297.45H575.1c-1.74,5-7.87,8.45-15.34,8.45-8.87,0-17.16-4.46-17.16-13s8.91-12.74,17.12-12.74A23.49,23.49,0,0,1,574.56,285l4.54-4.74c-4.61-4-11.12-6.39-19.37-6.39-12.82,0-24.52,7.28-24.52,19,0,12.09,11.81,19.29,24.6,19.29s23.29-7.93,23.29-19.31v-1.32H557.87v5.89Z" transform="translate(-79.33 -222.33)"/><polygon class="b" points="564.07 88.87 555.66 88.87 528.09 60.17 528.09 88.87 521.03 88.87 521.03 52.53 529.94 52.53 556.87 80.46 556.87 52.53 564.07 52.53 564.07 88.87 564.07 88.87"/><path class="b" d="M295.85,285.94c-3.83-4-9.37-5.85-15.11-5.85-9.57,0-17,4.88-17,12.82s7.44,13,17,13c6.59,0,11.43-2.05,15.15-6l5,4.57c-4.53,4.51-10.93,7.67-20.15,7.67-13.17,0-24.36-7.79-24.36-19.25,0-11,10.88-19,24.36-19,8.95,0,15.53,3.14,19.91,7.51l-4.8,4.53Z" transform="translate(-79.33 -222.33)"/><path class="b" d="M757.52,285.94c-3.84-4-9.37-5.85-15.11-5.85-9.57,0-17,4.88-17,12.82s7.44,13,17,13c6.59,0,11.43-2.05,15.15-6l5,4.57c-4.49,4.53-10.88,7.71-20.1,7.71-13.17,0-24.37-7.79-24.37-19.25,0-11,10.88-19,24.37-19,8.95,0,15.53,3.14,19.91,7.51l-4.8,4.53h0Z" transform="translate(-79.33 -222.33)"/><path class="b" d="M420.28,311.15h-8.79L401,297.82H383.75v13.33h-7.09V274.86H405.1c7.36,0,13.36,4.76,13.36,11.54,0,5.5-4,9.64-9.41,11l11.23,13.75Zm-16.5-19.4c4.42,0,7.24-2,7.24-5.31,0-3.52-2.75-5.46-7.24-5.46h-20v10.77Z" transform="translate(-79.33 -222.33)"/><polygon class="b" points="438.46 88.87 431.25 88.87 431.25 52.53 438.46 52.53 438.46 88.87 438.46 88.87"/><path class="b" d="M354.88,311.15h8.48l-22.07-36.29h-9l-22,36.29h8.29l5.23-8.83,23.36-4.07,7.66,12.9Zm-18.16-30.67,9.88,16.77L328.16,295l8.56-14.52Z" transform="translate(-79.33 -222.33)"/><path class="b" d="M701,311.15h8.48l-22.08-36.29h-9l-22,36.29h8.29l5.23-8.83,23.36-4.07,7.67,12.9Zm-18.17-30.67,9.88,16.77L674.22,295l8.56-14.52Z" transform="translate(-79.33 -222.33)"/></svg>