<svg xmlns="http://www.w3.org/2000/svg" viewBox="0 0 653.07 221.37"><defs><style>.a{fill:#0071ce;}</style></defs><path class="a" d="M168.52,273.35a32,32,0,0,0-2.1-12.11,30.74,30.74,0,0,0-5.65-9.13,32.7,32.7,0,0,0-8.48-6.71,80.74,80.74,0,0,0-10.42-4.85l-11.64-4.36a40,40,0,0,1-12.6-7.19q-4.84-4.27-4.85-11.55a15,15,0,0,1,1.46-6.79,14.48,14.48,0,0,1,4-4.92,17.66,17.66,0,0,1,5.73-3.07,22.38,22.38,0,0,1,6.95-1.06,20.85,20.85,0,0,1,7.83,1.46,18.89,18.89,0,0,1,6.39,4.2,19.39,19.39,0,0,1,4.28,6.54,22.09,22.09,0,0,1,1.53,8.33v2.74h15.68v-3.07a36.9,36.9,0,0,0-2.67-14.22,32.15,32.15,0,0,0-18.66-18.25,39.1,39.1,0,0,0-14.38-2.59,38.2,38.2,0,0,0-13.65,2.35,32.19,32.19,0,0,0-10.75,6.54,29.57,29.57,0,0,0-7,9.94A31.33,31.33,0,0,0,97,218.26a32.14,32.14,0,0,0,1.93,11.63,28.88,28.88,0,0,0,5.42,8.89,34.45,34.45,0,0,0,8.08,6.62,58.87,58.87,0,0,0,9.93,4.69L134,254.45q4.2,1.62,7.67,3.31a22.83,22.83,0,0,1,5.9,4,17.87,17.87,0,0,1,3.8,5.25,16.26,16.26,0,0,1,1.37,6.95,16.48,16.48,0,0,1-1.61,7.43,17,17,0,0,1-4.44,5.57,19.6,19.6,0,0,1-6.71,3.56,28,28,0,0,1-8.4,1.21,22.81,22.81,0,0,1-8.65-1.61,19.79,19.79,0,0,1-11.23-11.31A23.68,23.68,0,0,1,110,270v-2.74H94.2v2.9a37.34,37.34,0,0,0,3.07,15.51,34.28,34.28,0,0,0,8.24,11.47,35.46,35.46,0,0,0,11.88,7.11,41.16,41.16,0,0,0,14.14,2.43,42.67,42.67,0,0,0,13.89-2.27,36.86,36.86,0,0,0,11.8-6.54,31.88,31.88,0,0,0,8.24-10.42,31.1,31.1,0,0,0,3.06-14.06" transform="translate(-94.2 -186.75)"/><path class="a" d="M584.22,273.35a32,32,0,0,0-2.1-12.11,30.84,30.84,0,0,0-5.66-9.13A32.54,32.54,0,0,0,568,245.4a80.13,80.13,0,0,0-10.42-4.85l-11.64-4.36a39.94,39.94,0,0,1-12.6-7.19q-4.85-4.27-4.84-11.55a15,15,0,0,1,1.45-6.79,14.6,14.6,0,0,1,4-4.92,18,18,0,0,1,5.73-3.08,22.68,22.68,0,0,1,7-1,20.94,20.94,0,0,1,7.84,1.46,18.85,18.85,0,0,1,6.38,4.2,19.49,19.49,0,0,1,4.28,6.54,22.09,22.09,0,0,1,1.54,8.33v2.74h15.67v-3.07a37.09,37.09,0,0,0-2.66-14.22A32.2,32.2,0,0,0,561,189.34c-4.41-1.73-11-2.59-16.17-2.59a29,29,0,0,0-11.86,2.35,32.19,32.19,0,0,0-10.75,6.54,29.77,29.77,0,0,0-7,9.93,31.41,31.41,0,0,0-2.5,12.69,32.14,32.14,0,0,0,1.94,11.63,28.86,28.86,0,0,0,5.41,8.89,34.65,34.65,0,0,0,8.08,6.62,59,59,0,0,0,9.94,4.69l11.63,4.36c2.8,1.08,5.36,2.18,7.68,3.32a22.5,22.5,0,0,1,5.89,4,17.87,17.87,0,0,1,3.8,5.25,16.1,16.1,0,0,1,1.38,6.95,16.48,16.48,0,0,1-1.62,7.43,16.91,16.91,0,0,1-4.45,5.57,19.28,19.28,0,0,1-6.7,3.56,28,28,0,0,1-8.4,1.21,22.84,22.84,0,0,1-8.65-1.61,20.38,20.38,0,0,1-6.79-4.45,20,20,0,0,1-4.43-6.87,23.59,23.59,0,0,1-1.62-8.88v-2.75H509.9v2.91A37.18,37.18,0,0,0,513,285.63a34.15,34.15,0,0,0,8.24,11.47,35.32,35.32,0,0,0,11.87,7.11,41.16,41.16,0,0,0,14.14,2.43,42.89,42.89,0,0,0,13.89-2.26,37.08,37.08,0,0,0,11.8-6.55,32,32,0,0,0,8.24-10.42,31.1,31.1,0,0,0,3.07-14.06" transform="translate(-94.2 -186.75)"/><path class="a" d="M219.65,262.2,234,212.6l14.54,49.6Zm6.62-72.87L190.73,304.05h17l7.75-27h37.48l7.92,27H277.5L242.11,189.33Z" transform="translate(-94.2 -186.75)"/><rect class="a" x="525.88" y="2.59" width="15.84" height="114.72"/><polygon class="a" points="637.4 2.59 637.4 83.86 591.36 2.59 576.65 2.59 576.65 117.31 592.49 117.31 592.49 34.42 639.02 117.31 653.08 117.31 653.08 2.59 637.4 2.59"/><path class="a" d="M319.92,204.2H336.4q9,0,13.57,4.61t4.52,12a16.54,16.54,0,0,1-4.6,12.12q-4.61,4.69-13.49,4.68H319.92Zm0,48.31h7.59l35.06,51.54h18.58l-36.67-52.19a31,31,0,0,0,11.62-4.19,31.91,31.91,0,0,0,8.09-7.2,27.8,27.8,0,0,0,4.76-9.2,35.74,35.74,0,0,0,1.54-10.43,34.5,34.5,0,0,0-2-11.63,28.57,28.57,0,0,0-6.22-10.1A30.54,30.54,0,0,0,351.66,192a39.41,39.41,0,0,0-15.26-2.67H304.08V304.05h15.84Z" transform="translate(-94.2 -186.75)"/><path class="a" d="M444.66,212.6l14.54,49.61H430.27Zm-18.58,64.47h37.48l7.92,27h16.64L452.73,189.33H436.9L401.36,304.05h17Z" transform="translate(-94.2 -186.75)"/><path class="a" d="M191,399.27a15,15,0,0,1-6.27,1.35,8.58,8.58,0,0,1-6-2.14,7.05,7.05,0,0,1-2.35-5.45,11.19,11.19,0,0,1,.39-3,9.84,9.84,0,0,1,1.35-2.8,18.19,18.19,0,0,1,2.53-2.87c1.05-1,2.35-2.15,3.92-3.49l1-.79,2.88,3.58,8.36,10.72a15.92,15.92,0,0,1-5.75,4.93m-10.33-39a10.76,10.76,0,0,1-.3-2.66,6.27,6.27,0,0,1,2-4.83,7.73,7.73,0,0,1,5.49-1.88,7.23,7.23,0,0,1,5.28,2,6.47,6.47,0,0,1,2,4.79,6.82,6.82,0,0,1-.47,2.44,10.4,10.4,0,0,1-1.53,2.53,37.08,37.08,0,0,1-2.66,2.92c-1.08,1.07-2.37,2.28-3.88,3.61q-1.83-2.17-3-3.7a26.25,26.25,0,0,1-1.92-2.79,9.36,9.36,0,0,1-1.05-2.44m26.94,31.16c.37-.7.74-1.42,1.08-2.18l6.72-14.29h-8.72l-5,11-.53,1-6.45-8.1L191.5,375a49.83,49.83,0,0,0,8.67-9.06,14.74,14.74,0,0,0,2.83-8.45,13,13,0,0,0-1.22-5.63,14.27,14.27,0,0,0-3.22-4.4,14.89,14.89,0,0,0-4.71-2.87,16,16,0,0,0-5.84-1.05,18.76,18.76,0,0,0-6.23,1,13.69,13.69,0,0,0-4.88,2.92,13.84,13.84,0,0,0-3.23,4.58,14.43,14.43,0,0,0-1.18,5.88,16.72,16.72,0,0,0,2,8.33,24.68,24.68,0,0,0,2.53,3.78c1,1.28,2.22,2.74,3.62,4.36l-1.31,1.05q-2.17,1.83-4.14,3.66a27.91,27.91,0,0,0-3.49,3.92,18.2,18.2,0,0,0-2.39,4.53,16.59,16.59,0,0,0-.87,5.58,15.3,15.3,0,0,0,1.17,6.06,13.33,13.33,0,0,0,3.36,4.71,15.79,15.79,0,0,0,5.14,3.05A18.93,18.93,0,0,0,184.7,408a20.48,20.48,0,0,0,9.58-2.14,25.79,25.79,0,0,0,7.15-5.45l5.06,6.37,10.45-.09L206.4,393.56l1.18-2.18" transform="translate(-94.2 -186.75)"/><path class="a" d="M274.85,371.24c-1.89,1.87-4.63,2.8-8.24,2.8h-8.36V352.85h8.36c3.67,0,6.42.93,8.29,2.79s2.78,4.45,2.78,7.76-.94,6-2.83,7.84m-8.24-26.4h-16.9v61.88h8.54V382.05h8.36q9.42,0,14.6-5t5.19-13.64q0-8.53-5.19-13.55t-14.6-5" transform="translate(-94.2 -186.75)"/><path class="a" d="M363.58,370.9v-18h8.89c3.25,0,5.69.82,7.32,2.48a9.84,9.84,0,0,1-.05,13c-1.65,1.69-4.08,2.53-7.27,2.53Zm19.52,5.4a17.06,17.06,0,0,0,4.36-3.88,15.22,15.22,0,0,0,2.57-5,19.53,19.53,0,0,0,.83-5.63,18.39,18.39,0,0,0-1.09-6.27,15.53,15.53,0,0,0-3.36-5.45,16.25,16.25,0,0,0-5.71-3.83,21.26,21.26,0,0,0-8.23-1.44H355v61.88h8.54V378.91h4.1l18.91,27.81h10l-19.78-28.15a17,17,0,0,0,6.27-2.27" transform="translate(-94.2 -186.75)"/><path class="a" d="M309.25,384.14,317,357.39l7.84,26.75Zm3.58-39.3-19.18,61.88h9.15L307,392.16H327.2l4.28,14.56h9l-19.08-61.88Z" transform="translate(-94.2 -186.75)"/><polygon class="a" points="401.76 201.93 376.92 158.09 368.99 158.09 368.99 219.97 377.53 219.97 377.53 175.26 402.63 219.97 410.22 219.97 410.22 158.09 401.76 158.09 401.76 201.93"/><polygon class="a" points="312.16 166.1 327.84 166.1 327.84 219.97 336.38 219.97 336.38 166.1 351.99 166.1 351.99 158.09 312.16 158.09 312.16 166.1"/><polygon class="a" points="429.94 219.97 463.5 219.97 463.5 211.95 438.48 211.95 438.48 192.17 458.09 192.17 458.09 184.15 438.48 184.15 438.48 166.1 463.5 166.1 463.5 158.09 429.94 158.09 429.94 219.97"/><path class="a" d="M585.63,370.9v-18h8.89q4.88,0,7.32,2.48a9.84,9.84,0,0,1-.05,13q-2.49,2.53-7.27,2.53Zm19.52,5.4a17.25,17.25,0,0,0,4.36-3.88,15.17,15.17,0,0,0,2.57-5,19.4,19.4,0,0,0,.82-5.62,18.62,18.62,0,0,0-1.08-6.27,15.53,15.53,0,0,0-3.36-5.45,16.34,16.34,0,0,0-5.71-3.83,21.29,21.29,0,0,0-8.23-1.44H577.08v61.87h8.55v-27.8h4.09l18.91,27.8h10l-19.79-28.14a16.72,16.72,0,0,0,6.28-2.27" transform="translate(-94.2 -186.75)"/><path class="a" d="M666.63,378.7a17.41,17.41,0,0,0-4.57-3.62,43,43,0,0,0-5.62-2.61l-6.28-2.36a21.5,21.5,0,0,1-6.8-3.88,7.88,7.88,0,0,1-2.61-6.23,8.15,8.15,0,0,1,.78-3.66,8,8,0,0,1,2.14-2.66,9.56,9.56,0,0,1,3.09-1.65,12,12,0,0,1,3.75-.57,11.27,11.27,0,0,1,4.22.78,10.25,10.25,0,0,1,3.45,2.27,10.65,10.65,0,0,1,2.31,3.53,11.92,11.92,0,0,1,.82,4.49V364h8.46v-1.65a19.88,19.88,0,0,0-1.44-7.67,17.3,17.3,0,0,0-10.07-9.85,21.1,21.1,0,0,0-7.75-1.4,20.85,20.85,0,0,0-7.37,1.26,17.58,17.58,0,0,0-5.79,3.54,15.85,15.85,0,0,0-3.79,5.35,17,17,0,0,0-1.35,6.85,17.46,17.46,0,0,0,1,6.27,15.65,15.65,0,0,0,2.92,4.8,18.7,18.7,0,0,0,4.36,3.57,31.44,31.44,0,0,0,5.36,2.53l6.27,2.35c1.51.58,2.89,1.18,4.15,1.79a12.46,12.46,0,0,1,3.18,2.17,9.79,9.79,0,0,1,2,2.84,8.65,8.65,0,0,1,.74,3.75,8.86,8.86,0,0,1-.87,4,9.25,9.25,0,0,1-2.39,3,10.72,10.72,0,0,1-3.62,1.92,15.36,15.36,0,0,1-4.53.65,12.28,12.28,0,0,1-4.67-.87,11,11,0,0,1-3.65-2.39,10.81,10.81,0,0,1-2.4-3.71,12.61,12.61,0,0,1-.88-4.79v-1.48h-8.54v1.56a20,20,0,0,0,1.66,8.37,18.57,18.57,0,0,0,4.44,6.19,19.2,19.2,0,0,0,6.41,3.83,22.33,22.33,0,0,0,7.63,1.31,23.1,23.1,0,0,0,7.49-1.22,20.12,20.12,0,0,0,6.37-3.53,17.35,17.35,0,0,0,4.44-5.62,16.77,16.77,0,0,0,1.66-7.58,17.22,17.22,0,0,0-1.14-6.54,16.5,16.5,0,0,0-3-4.92" transform="translate(-94.2 -186.75)"/></svg>