<svg xmlns="http://www.w3.org/2000/svg" viewBox="0 0 678.2 339.1"><defs><style>.a{fill:#009879;}.b{fill:#026e63;}</style></defs><rect class="a" x="67.82" width="61.66" height="169.55"/><rect class="a" y="0.02" width="61.66" height="169.52"/><rect class="a" x="135.64" width="61.66" height="169.55"/><polygon class="a" points="228.12 0 245.65 0 297.9 89.09 297.9 0 313.48 0 313.48 113.59 295.96 113.59 243.7 24.51 243.7 113.59 228.12 113.59 228.12 0"/><path class="a" d="M368.38,32.46h14.28V43c5.69-6,16.39-12.17,27.43-12.17a19.87,19.87,0,0,1,3.08.16l23.21,16.87a30.83,30.83,0,0,1,1.46,9.74v56H423.55V60.21c0-10.71-5.83-16.72-16.55-16.72-9.9,0-18.33,6.82-24.34,15.58V113.6H368.38Z"/><path class="a" d="M555.7,94.78V45.44H539.63l4.22-13H555.7V8.11L570,12.82V32.46h19.48l-4.23,13H570V93.8c0,5.36,3.08,8.76,9.25,8.76a18.88,18.88,0,0,0,8.92-2.43l3.73,11.36a36.16,36.16,0,0,1-16.22,3.73c-12.34,0-20-7-20-20.44"/><polygon class="a" points="619.95 143.63 633.41 110.04 601.28 32.46 616.21 32.46 637.96 84.23 640.07 94.13 663.76 32.46 678.2 32.46 632.44 147.68 619.95 143.63"/><path class="a" d="M221.76,194.17c0-34.89,25-58.42,56.48-58.42a53.86,53.86,0,0,1,11.52,1.14l37.82,27.42a63,63,0,0,1,7.13,29.86c0,34.9-25,58.43-56.47,58.43s-56.48-23.53-56.48-58.43m97.05,0c0-26-15.74-44.14-40.57-44.14s-40.57,18.18-40.57,44.14,15.74,44.15,40.57,44.15,40.57-18.18,40.57-44.15"/><path class="a" d="M352.07,170.48h14.28V181c5.69-6,16.4-12.17,27.43-12.17a19.87,19.87,0,0,1,3.08.16l23.21,16.88a30.78,30.78,0,0,1,1.46,9.74v56H407.25v-53.4c0-10.7-5.84-16.71-16.55-16.71-9.9,0-18.34,6.81-24.35,15.57v54.54H352.07Z"/><path class="a" d="M438.89,211.05c0-25.31,18.33-42.19,39.6-42.19a20.72,20.72,0,0,1,7,1l27.11,19.8a49,49,0,0,1,4,20.45v5.52H453.33c.49,15.57,10.71,24.66,25.32,24.66,12.66,0,20.93-6.65,23.85-16.38l12.34,4.05c-5.36,15.58-17.86,25.32-36.35,25.32-24.67,0-39.6-16.88-39.6-42.2m64.26-7.79c-1.14-14.28-12-21.42-24.66-21.42s-22.72,7.79-25,21.42Z"/><path class="a" d="M350.57,10.47A9.64,9.64,0,1,1,340.93.83a9.64,9.64,0,0,1,9.64,9.64"/><rect class="a" x="333.79" y="32.46" width="14.28" height="81.14"/><rect class="b" x="67.82" y="169.55" width="61.66" height="169.55"/><rect class="b" x="135.64" y="169.55" width="61.66" height="169.55"/><path class="a" d="M453.61,73c0-25.31,18.34-42.19,39.59-42.19a21,21,0,0,1,7,1l27.1,19.8a48.93,48.93,0,0,1,4.06,20.45v5.51H468.05c.49,15.58,10.71,24.67,25.31,24.67,12.66,0,20.94-6.65,23.85-16.39l12.34,4.06c-5.35,15.58-17.85,25.31-36.35,25.31-24.66,0-39.59-16.87-39.59-42.19m64.26-7.79c-1.14-14.28-12-21.42-24.67-21.42s-22.71,7.79-25,21.42Z"/></svg>