<svg xmlns="http://www.w3.org/2000/svg" viewBox="0 0 708.96 196.42"><defs><style>.a{fill:#03a3dd;}.b{fill:#185092;}.c{fill:#010101;}</style></defs><title>logo-premier-miton-investors</title><path class="a" d="M579.57,355.46c0,.55,29.6-45.89,29.6-45.89L626.26,334c-8.84,1.25-29.28,5.25-46.69,21.42" transform="translate(56.9 -309.57)"/><path class="b" d="M610.27,362.68a98.7,98.7,0,0,0-41.78,9.15c12.46-14.85,27.59-23.3,47.62-27.28a90.79,90.79,0,0,1,15.53-1.72l20.42,29a98.72,98.72,0,0,0-41.79-9.16" transform="translate(56.9 -309.57)"/><path class="c" d="M-31.1,416.67H-42.23v20H-56.9V370h27.23c15.9,0,25.52,9.42,25.52,23v.19c0,15.43-12,23.43-26.95,23.43M-19,393.34c0-6.57-4.57-10.09-11.91-10.09H-42.23v20.37h11.61c7.33,0,11.62-4.38,11.62-10.09Z" transform="translate(56.9 -309.57)"/><path class="c" d="M35.18,399.81c-9.62,0-15.52,5.81-15.52,18v18.86H5.18v-51H19.66v10.28c2.95-7.05,7.71-11.62,16.28-11.24v15.14Z" transform="translate(56.9 -309.57)"/><path class="c" d="M91,416.19H55.46c1.43,6.57,6,10,12.47,10,4.86,0,8.38-1.52,12.38-5.24l8.29,7.33c-4.76,5.91-11.62,9.53-20.86,9.53-15.33,0-26.66-10.76-26.66-26.38v-.19c0-14.57,10.38-26.57,25.24-26.57,17,0,24.85,13.24,24.85,27.71v.19c0,1.43-.1,2.29-.19,3.62m-24.66-19.9c-6,0-9.91,4.29-11,10.85H77.08c-.86-6.47-4.67-10.85-10.76-10.85" transform="translate(56.9 -309.57)"/><path class="c" d="M165.34,436.67V408.19c0-6.85-3-10.38-8.47-10.38s-8.76,3.53-8.76,10.38v28.48H133.64V408.19c0-6.85-3-10.38-8.48-10.38s-8.76,3.53-8.76,10.38v28.48H101.93V385.62H116.4v7.24c3.33-4.28,7.71-8.19,15-8.19,6.66,0,11.71,2.95,14.38,8.1,4.47-5.24,9.8-8.1,16.75-8.1,10.77,0,17.24,6.48,17.24,18.76v33.24Z" transform="translate(56.9 -309.57)"/><path class="c" d="M192.67,367.15h15.24V380H192.67Zm.38,18.48h14.48v51H193.05Z" transform="translate(56.9 -309.57)"/><path class="c" d="M268.56,416.19H233.05c1.42,6.57,6,10,12.47,10,4.86,0,8.38-1.52,12.38-5.24l8.28,7.33c-4.76,5.91-11.61,9.53-20.85,9.53-15.33,0-26.66-10.76-26.66-26.38v-.19c0-14.57,10.38-26.57,25.23-26.57,17,0,24.85,13.24,24.85,27.71v.19c0,1.43-.09,2.29-.19,3.62m-24.66-19.9c-6,0-9.9,4.29-11.05,10.85h21.81c-.86-6.47-4.67-10.85-10.76-10.85" transform="translate(56.9 -309.57)"/><path class="c" d="M309.51,399.81c-9.62,0-15.53,5.81-15.53,18v18.86H279.51v-51H294v10.28c3-7.05,7.72-11.62,16.29-11.24v15.14Z" transform="translate(56.9 -309.57)"/><polygon class="c" points="458.39 127.09 458.39 83.58 439.63 112.05 439.25 112.05 420.68 83.86 420.68 127.09 406.3 127.09 406.3 60.44 422.11 60.44 439.63 88.62 457.15 60.44 472.96 60.44 472.96 127.09 458.39 127.09"/><path class="c" d="M430.81,367.15h15.24V380H430.81Zm.39,18.48h14.47v51H431.2Z" transform="translate(56.9 -309.57)"/><path class="c" d="M476.52,437.52c-8.86,0-14.85-3.52-14.85-15.33V398h-6.1V385.63h6.1V372.58h14.47v13.05h12V398h-12v21.8c0,3.33,1.43,4.95,4.67,4.95A14.67,14.67,0,0,0,488,423v11.62a21.34,21.34,0,0,1-11.43,2.95" transform="translate(56.9 -309.57)"/><path class="c" d="M522.42,437.81c-15.81,0-27.52-11.72-27.52-26.38v-.19c0-14.66,11.81-26.57,27.71-26.57s27.51,11.72,27.51,26.38v.19c0,14.67-11.8,26.57-27.7,26.57m13.42-26.57c0-7.52-5.43-14.09-13.42-14.09-8.29,0-13.24,6.38-13.24,13.9v.19c0,7.52,5.43,14.09,13.43,14.09,8.28,0,13.23-6.38,13.23-13.9Z" transform="translate(56.9 -309.57)"/><path class="c" d="M592.88,436.67V408.19c0-6.85-3.24-10.38-8.76-10.38s-9,3.53-9,10.38v28.48H560.6V385.62h14.47v7.24c3.33-4.28,7.62-8.19,14.95-8.19,11,0,17.33,7.24,17.33,18.95v33.05Z" transform="translate(56.9 -309.57)"/><rect class="c" x="194.21" y="168.42" width="4.84" height="27.53"/><polygon class="c" points="230.35 168.42 235.11 168.42 235.11 195.95 231.06 195.95 215.88 176.37 215.88 195.95 211.12 195.95 211.12 168.42 215.6 168.42 230.35 187.46 230.35 168.42"/><polygon class="c" points="266.46 168.42 271.69 168.42 260.24 196.15 255.99 196.15 244.55 168.42 249.9 168.42 258.2 189.58 266.46 168.42"/><polygon class="c" points="301.54 172.75 285.96 172.75 285.96 179.91 299.77 179.91 299.77 184.23 285.96 184.23 285.96 191.63 301.73 191.63 301.73 195.96 281.13 195.96 281.13 168.42 301.54 168.42 301.54 172.75"/><path class="c" d="M265.91,489.56c5.83,1.42,8.85,3.5,8.85,8.1,0,5.19-4.05,8.26-9.83,8.26a17,17,0,0,1-11.48-4.41l2.91-3.46a12.63,12.63,0,0,0,8.69,3.58c3,0,4.88-1.38,4.88-3.5s-1.1-3.06-6.22-4.25c-5.86-1.41-9.16-3.14-9.16-8.26,0-4.79,3.93-8,9.4-8a15.27,15.27,0,0,1,10,3.46l-2.6,3.66a12.48,12.48,0,0,0-7.47-2.83c-2.83,0-4.48,1.46-4.48,3.3,0,2.16,1.25,3.11,6.52,4.37" transform="translate(56.9 -309.57)"/><polygon class="c" points="353.14 195.95 348.26 195.95 348.26 172.91 339.53 172.91 339.53 168.42 361.87 168.42 361.87 172.91 353.14 172.91 353.14 195.95"/><path class="c" d="M326.44,506a14.24,14.24,0,1,1,14.44-14.28A14,14,0,0,1,326.44,506m0-24c-5.46,0-9.28,4.37-9.28,9.75s3.9,9.83,9.36,9.83,9.28-4.36,9.28-9.75-3.89-9.83-9.36-9.83" transform="translate(56.9 -309.57)"/><path class="c" d="M369.12,505.53l-6.77-9.6H356.3v9.6h-4.84V478h12.27c6.33,0,10.22,3.34,10.22,8.73,0,4.56-2.71,7.31-6.56,8.37l7.43,10.43Zm-5.78-23.13h-7v9.25h7.07c3.46,0,5.67-1.82,5.67-4.65,0-3-2.13-4.6-5.7-4.6" transform="translate(56.9 -309.57)"/><path class="c" d="M395.23,489.56c5.82,1.42,8.85,3.5,8.85,8.1,0,5.19-4.05,8.26-9.83,8.26a17,17,0,0,1-11.49-4.41l2.91-3.46a12.65,12.65,0,0,0,8.7,3.58c3,0,4.87-1.38,4.87-3.5s-1.1-3.06-6.21-4.25c-5.86-1.41-9.17-3.14-9.17-8.26,0-4.79,3.94-8,9.41-8a15.24,15.24,0,0,1,10,3.46l-2.59,3.66a12.51,12.51,0,0,0-7.48-2.83c-2.83,0-4.48,1.46-4.48,3.3,0,2.16,1.26,3.11,6.53,4.37" transform="translate(56.9 -309.57)"/></svg>