<svg xmlns="http://www.w3.org/2000/svg" viewBox="0 0 510.49 161.59"><defs><style>.a{fill:#233466;}</style></defs><path class="a" d="M339.28,206.49h-9.92V238.6H301.51V221.36h-9.92V238.6H259.14c-20.78,0-32.58,10.74-32.58,30,0,18.88,11.33,29,32.58,29h15.22c5,0,7.67-2.83,7.67-7.67V255.36h-9.91v31.51a1.56,1.56,0,0,1-1.77,1.77H259.14c-15.23,0-22.43-6.37-22.43-20.3,0-13.69,7.32-20.77,22.43-20.77h32.45v28.21c0,15,6.85,21.83,22,21.83h8v-8.85h-7.43c-9,0-12.63-3.89-12.63-13V247.57h27.85v50h9.92v-50h12.39c13.69,0,18.41,5,18.41,19.59v30.45H380V267.16c0-20.54-7.91-28.56-28.09-28.56H339.28ZM651,297.61c17.82,0,25.26-5.31,25.26-18.06,0-11.09-6.37-15.81-23.14-17.7-11.68-1.3-13.8-2.6-13.8-7.79,0-4.61,4.13-6.49,13.45-6.49h19v-9H654c-17.11,0-24.55,5.19-24.55,16.05,0,10.5,5.55,14.28,23.25,16.17,9.8,1.06,13.58,3.54,13.58,8.73,0,6.62-3.78,9.09-14.05,9.09h-50c-14.28,0-20.42-6.25-20.42-21,0-14.28,5.43-20.77,17-20.77,9.92,0,14.52,4.48,14.52,14,0,2.72-.35,3.31-1.77,3.31h-22v9h22c8.38,0,11.45-3.54,11.45-13,0-14-8.61-22-24.2-22-17.58,0-26.91,10.15-26.91,29.51,0,20.54,9.8,29.86,31.52,29.86Zm-201.95-29c0,19.83,9.56,30,28.56,30,18.53,0,28.33-10.39,28.33-30.34,0-19.71-9.68-30-28.09-30-19,0-28.8,10.15-28.8,30.34m-283.28,29h9.92V223c0-1.54.59-2.36,1.77-2.36h20.06c12.75,0,18.06,4.24,18.06,14.28s-5.19,13.81-18.77,13.81c-8.14,0-12.27,3.77-12.27,10.74,0,4.37,2.24,7.32,5.31,10.74l24.55,27.38h13.46L195,261.26a2.45,2.45,0,0,1-.82-1.77c0-.83.59-1.53,1.88-1.53,20.31,0,29.63-7.32,29.63-23s-9.32-23.49-28.33-23.49H173.68c-5.07,0-7.91,2.83-7.91,7.67Zm232.41-91.12h-9.8v83.45c0,5,2.72,7.67,7.55,7.67h14.64c21,0,31.63-9.32,31.63-29.15,0-20.18-10.27-29.86-31-29.86H406v9h4.6c15.11,0,21.48,6.14,21.48,20.89,0,14.16-6.37,20.18-21.48,20.18H400a1.56,1.56,0,0,1-1.77-1.77Zm137.51,41.08c13.69,0,18.41,5,18.41,19.59v30.45H564V267.16c0-20.54-7.9-28.56-28.09-28.56H521.05c-4.84,0-7.67,2.71-7.67,7.67v51.34h9.91V249.34a1.56,1.56,0,0,1,1.77-1.77ZM459,268.46c0-14.75,5.9-21.48,18.64-21.48,12.51,0,18.42,6.61,18.42,21.48,0,14.28-5.67,21.36-18.42,21.36S459,283.09,459,268.46M244.38,337c-9,0-13.34,5.31-13.34,15.58s4.25,15.46,13.34,15.46,13.34-5.31,13.34-15.46S253.35,337,244.38,337m-34.23,0c-9,0-13.34,5.31-13.34,15.58s4.25,15.46,13.34,15.46,13.34-5.31,13.34-15.46S219.12,337,210.15,337m137.75,0c-9,0-13.34,5.31-13.34,15.58s4.25,15.46,13.34,15.46,13.33-5.31,13.33-15.46S356.87,337,347.9,337m74.48,24.43-5.32-16.53c-1.18-3.66-2.12-4.6-4-4.6s-2.95.94-4.13,4.6l-5.08,16.76-7.08-24.31h-4.13l9.21,30.22h3.89l7.2-23.25,7.44,23.25h3.89l9.09-30.22h-4ZM518.1,364h-7.79c-6.85,0-9.56-3.07-9.56-11.1,0-8.49,2.71-11.8,9.56-11.8H514v-3.66h-3.42c-9.56,0-13.93,4.84-13.93,15.46,0,10.15,4.13,14.76,13.69,14.76h11.8v-43.8h-4ZM348,364.42c-6.49,0-9.32-3.54-9.32-11.92,0-8.14,2.71-11.8,9.09-11.8s9.32,3.54,9.32,12c0,8.27-2.71,11.69-9.09,11.69m-103.51,0c-6.49,0-9.33-3.54-9.33-11.92,0-8.14,2.72-11.8,9.09-11.8s9.33,3.54,9.33,12c0,8.27-2.72,11.69-9.09,11.69m-34.23,0c-6.49,0-9.32-3.54-9.32-11.92,0-8.14,2.71-11.8,9.08-11.8s9.33,3.54,9.33,12c0,8.27-2.72,11.69-9.09,11.69M448.93,364c-4.48,0-6.49-1.65-6.49-5.55s2-5.78,6.14-5.78h7.2v-3.43h-6.85c-7,0-10.39,2.72-10.39,9.21s3.43,9.21,11,9.21H463.8V348.84c0-8.26-3.06-11.45-11.32-11.45H442v3.66h11.09c4.84,0,6.85,2.12,6.85,7.79V364ZM290.41,337.39H285L270.7,349.31v-25.5h-4v43.8h4V353.68l14.76,13.93H291l-17.47-16.29Zm24.08,0h-5.07v3.66h5.07v26.56h4V341.05h10.74v-3.66H318.51v-1.06c0-6.73,1.89-8.86,7.67-8.86h4.25v-3.66h-3.54c-8.86,0-12.4,3.55-12.4,12.75ZM170,327.36h-4.25v40.25h25.38v-3.9H170Zm303.82,40.25h4V348.84c0-5.67,1.77-7.79,6.73-7.79h5.66v-3.66h-4.95c-8.15,0-11.45,3.19-11.45,11.45Zm-104.11,0h4V348.84c0-5.67,1.78-7.79,6.73-7.79h5.67v-3.66h-5c-8.14,0-11.45,3.19-11.45,11.45Z" transform="translate(-165.77 -206.49)"/></svg>