<svg xmlns="http://www.w3.org/2000/svg" viewBox="0 0 735.32 234.81"><defs><style>.a{fill:#fff;}.b{fill:#dc0c17;}</style></defs><title>logo-hsbc-gam</title><rect class="a" x="68.67" y="1.49" width="137.13" height="136.92"/><polygon class="b" points="274.25 70.17 205.8 1.49 205.8 138.62 274.25 70.17"/><polygon class="b" points="137.13 70.17 205.8 1.49 68.67 1.49 137.13 70.17"/><polygon class="b" points="0 70.17 68.67 138.62 68.67 1.49 0 70.17"/><polygon class="b" points="137.13 70.17 68.67 138.62 205.8 138.62 137.13 70.17"/><polygon points="334.6 34.12 309.87 34.12 309.87 58.65 297.29 58.65 297.29 1.06 309.87 1.06 309.87 24.74 334.6 24.74 334.6 1.06 347.19 1.06 347.19 58.65 334.6 58.65 334.6 34.12"/><path d="M377.05,59.71c-12.37,0-22.61-4.91-22.83-18.77h12.59c0,6.19,3.62,9.81,10.45,9.81,5.11,0,10.87-2.55,10.87-8.1,0-4.48-3.83-6-10.45-7.89l-4.05-1.07c-8.95-2.55-18.12-6.18-18.12-16.42C355.51,4.48,367.45,0,378.32,0c11.31,0,20.9,4.05,21.12,16.63H386.86c-.43-5.11-3.42-8.1-9.39-8.1-4.47,0-9.17,2.35-9.17,7.46,0,4.26,3.84,5.55,11.94,8.11l4.9,1.49c9.82,3,16,6.4,16,16C400.93,54.8,388.35,59.71,377.05,59.71Z"/><path d="M429.29,50.12c5.76,0,11.52-1.5,11.52-8.32,0-7-4.91-8.53-10.88-8.53h-9.81V50.12Zm-1.28-25c5.55,0,11.09-1.28,11.09-7.89,0-6-5.33-7.46-10.23-7.46h-8.75V25.16ZM408,1.07h20a68.75,68.75,0,0,1,11.3.84c6.83,1.5,12.16,6,12.16,13.87,0,7.25-4.69,11.09-11.3,12.8,7.68,1.49,13.44,5.54,13.44,13.86,0,13.22-13,16.21-23,16.21H408Z"/><path d="M486,59.71c-18.55,0-26.87-11.73-26.87-29.21,0-17.71,9.39-30.5,27.51-30.5,11.51,0,22.61,5.12,22.82,18.12h-12.8c-.64-5.54-4.47-8.74-10-8.74C475.36,9.38,472,21.54,472,30.71c0,9.38,3.41,19.83,14.28,19.83,5.76,0,9.81-3,10.66-8.74h13C508.41,54.8,498,59.71,486,59.71Z"/><path d="M319.89,139.05c-17.7,0-26.44-12.8-26.44-29.64,0-15.57,8.1-29.43,25.16-29.43,9.81,0,18.34,4.69,19.2,15.35h-5.34c-1.28-7.47-6.39-11.09-13.86-11.09-14.08,0-19.4,12.58-19.4,24.74,0,13.22,6,25.59,20.68,25.59a42.52,42.52,0,0,0,13.65-2.13V113.67H319v-4.26h19.41v26.44A69.43,69.43,0,0,1,319.89,139.05Z"/><rect x="349.11" y="81.04" width="4.9" height="57.37"/><path d="M380.46,101.51c-9.81,0-13.65,7.9-13.65,16.64,0,8.53,3.84,17.49,13.65,17.49,9.59,0,13.43-9.17,13.43-17.49C393.89,109.62,390.05,101.51,380.46,101.51Zm0,37.75c-12.59,0-19-9.38-19-21.11s6.61-20.69,19-20.69c12.16,0,18.76,9,18.76,20.69C399.22,129.45,392.4,139.26,380.46,139.26Z"/><path d="M424.82,101.51c-9.81,0-13.22,8.75-13.22,17.07,0,7.89,2.77,16.63,12.15,16.63,9.81,0,13.22-8.53,13.22-16.85C437,110.47,434,101.51,424.82,101.51Zm-.43,37.54c-6,0-9.6-2.35-12.79-7.25l-.44,6.61h-4.9c.21-3.84.43-8.11.43-11.94V81h4.69v24.74a14.27,14.27,0,0,1,13.86-8.1c11.73,0,16.85,9.59,16.85,20C442.09,128.6,436.33,139.05,424.39,139.05Z"/><path d="M470,117.72c-6.6,0-18.12.43-18.12,9.81,0,5.54,4.9,8.32,10,8.32,11.31,0,12.16-9,12.16-17.91C472.59,117.94,471.31,117.72,470,117.72Zm4.27,14.93c-3.2,5.12-7.46,6.61-13.22,6.61-7.46,0-14.08-3.62-14.08-11.73,0-12.8,14.93-13.22,24.74-13.22h2.13v-2.77c0-6.83-2.77-10.24-9.81-10.24-5.12,0-8.74,1.49-9.38,7.47H450c0-8.11,7-11.09,14.07-11.09,9.81,0,14.5,4,14.5,14.07v12a113.4,113.4,0,0,0,.86,14.71h-4.48A26.28,26.28,0,0,0,474.29,132.65Z"/><rect x="488.79" y="81.04" width="4.69" height="57.37"/><path d="M529.74,118.15h25.59l-13-32.21Zm27.51,4.26h-29l-6.19,16h-5.55L540,81h5.32l24.53,57.37h-6Z"/><path d="M586.89,139.26c-8.31,0-14.5-3.62-14.5-12.58h4.69c0,6,4,9,10,9,4.69,0,10.23-2.57,10.23-7.89,0-4.27-3.63-6-9-7.47L584.12,119c-6.18-1.7-10.88-4.27-10.88-10.45,0-7.89,7-11.09,14.08-11.09,7.68,0,13.65,3.41,13.86,11.73h-4.9c-.22-5.54-3.42-7.89-8.75-7.89-4,0-9.38,1.92-9.38,6.83,0,3.83,3.41,5.54,8.32,7l4.47,1.27c7.68,2.14,11.09,4.91,11.09,10.67C602,135.64,594.35,139.26,586.89,139.26Z"/><path d="M622.08,139.26c-8.32,0-14.5-3.62-14.5-12.58h4.69c0,6,4.05,9,10,9,4.68,0,10.23-2.57,10.23-7.89,0-4.27-3.63-6-9-7.47L619.31,119c-6.18-1.7-10.88-4.27-10.88-10.45,0-7.89,7-11.09,14.07-11.09,7.68,0,13.66,3.41,13.87,11.73h-4.91c-.21-5.54-3.41-7.89-8.74-7.89-4.05,0-9.39,1.92-9.39,6.83,0,3.83,3.42,5.54,8.32,7l4.48,1.27c7.68,2.14,11.09,4.91,11.09,10.67C637.22,135.64,629.54,139.26,622.08,139.26Z"/><path d="M660.25,101.51c-8.1,0-12.15,6.83-12.79,14.08h24.31v-.86C672,107.7,667.93,101.51,660.25,101.51Zm-13,18.56c0,8.1,4.49,15.78,13.44,15.78,6.18,0,10.23-4,11.3-10h4.48c-1.49,9-7.46,13.43-16.64,13.43-12.15,0-17.48-9-17.48-20.26s5.54-21.32,18.12-21.32c12.8,0,16.21,10.66,16.21,21.54H647.24Z"/><path d="M695,138.83c-5.76,0-8.53-2.77-8.53-8.53V101.94h-7.89V98.32h7.89V90l4.91-2.14V98.32h9v3.62h-9v26.23c0,4.48.64,6.62,5.54,6.62a19,19,0,0,0,3.63-.43v4A45.86,45.86,0,0,1,695,138.83Z"/><polygon points="350.6 165.71 329.06 218.82 323.94 218.82 302.19 165.71 302.19 218.82 297.29 218.82 297.29 161.44 305.81 161.44 326.5 212.63 347.19 161.23 355.72 161.23 355.72 218.82 350.6 218.82 350.6 165.71"/><path d="M387.28,198.13c-6.82,0-18.13.42-18.13,9.8,0,5.55,4.91,8.32,9.81,8.32,11.52,0,12.37-8.95,12.37-17.91C389.84,198.34,388.56,198.13,387.28,198.13Zm4.26,14.93c-3.19,5.12-7.46,6.61-13.43,6.61-7.25,0-13.86-3.63-13.86-11.74,0-12.79,14.93-13.22,24.74-13.22h2.13v-2.77c0-6.82-2.77-10.24-9.81-10.24-5.12,0-8.75,1.49-9.39,7.25H367c0-8.1,7-11.08,14.08-11.08,10,0,14.71,4.26,14.71,14.07v11.95a116.71,116.71,0,0,0,.64,14.93H392A26.54,26.54,0,0,0,391.54,213.06Z"/><path d="M433.13,196.21c0-7.47-.85-13.87-10.23-13.87-9.17,0-12.16,7.25-12.16,15.15v21.33h-4.9V190c0-3.84-.22-7.68-.22-11.3h4.9l.22,6.61a15,15,0,0,1,13.22-7c10.88,0,14.08,6,14.08,16v24.53h-4.91Z"/><path d="M468.1,198.13c-6.82,0-18.12.42-18.12,9.8,0,5.55,4.69,8.32,9.81,8.32,11.52,0,12.16-8.95,12.16-17.91C470.67,198.34,469.38,198.13,468.1,198.13Zm4.27,14.93c-3.41,5.12-7.46,6.61-13.44,6.61-7.24,0-13.86-3.63-13.86-11.74,0-12.79,14.93-13.22,24.74-13.22H472v-2.77c0-6.82-2.77-10.24-9.81-10.24-5.12,0-8.75,1.49-9.39,7.25h-4.9c0-8.1,7-11.08,14.07-11.08,10,0,14.72,4.26,14.72,14.07v11.95a114.93,114.93,0,0,0,.63,14.93H472.8A50.39,50.39,0,0,0,472.37,213.06Z"/><path d="M502.44,181.7c-9.6,0-13,8.53-13,16.85s3.63,16.42,13,16.42c9.6,0,12.8-8.74,12.8-17.06C515.24,190.23,511.19,181.7,502.44,181.7Zm17.49,9.81v20.05c0,16.43-4.06,23.25-17.49,23.25-7.89,0-15.78-2.56-15.78-11.73h4.91c0,6.18,5.11,8.1,10.45,8.1,9.59,0,13-5.33,13-20a14.77,14.77,0,0,1-13.43,7.46c-11.94,0-17.49-9.17-17.49-20.26,0-10.66,5.76-20.47,17.28-20.47a14.76,14.76,0,0,1,13.86,8.1v-7.46h5.12C520.14,184.05,519.93,187.25,519.93,191.51Z"/><path d="M545.74,181.7c-8.11,0-12.38,6.83-13,14.29h24.53v-.85C557.25,188.1,553.2,181.7,545.74,181.7Zm-13.23,18.77c0,8.1,4.69,15.57,13.43,15.57,6.4,0,10.24-3.84,11.31-10h4.69c-1.71,9.17-7.68,13.65-16.64,13.65-12.36,0-17.7-9-17.7-20.27s5.55-21.32,18.34-21.32c12.59,0,16,10.66,16,21.32H532.51Z"/><path d="M622.5,194.5c0-6.82-2.13-12.16-10-12.16-9.16,0-11.51,6.19-11.51,14.08v22.4h-4.69V195.14c0-7-1.71-12.8-10-12.8s-11.52,6.83-11.52,14.08v22.4h-4.9v-30.5c0-3.2-.21-6.4-.21-9.6h4.91l.2,7a13.52,13.52,0,0,1,12.59-7.47c6.39,0,10.24,2.35,12.79,8.53,2.77-6,7.26-8.53,13.86-8.53,11.74,0,13.44,7.68,13.44,17.49v23h-4.69Z"/><path d="M652.79,181.7c-7.89,0-12.16,6.83-12.8,14.29h24.53v-.85C664.52,188.1,660.46,181.7,652.79,181.7Zm-13,18.77c0,8.1,4.47,15.57,13.44,15.57,6.39,0,10.23-3.84,11.3-10H669c-1.5,9.17-7.47,13.65-16.43,13.65-12.36,0-17.69-9-17.69-20.27s5.54-21.32,18.34-21.32c12.58,0,16,10.66,16,21.32H639.78Z"/><path d="M704.4,196.21c0-7.47-1.07-13.87-10.24-13.87S682,189.59,682,197.49v21.33H677.1V190c0-3.84-.21-7.68-.21-11.3h4.9l.22,6.61a15,15,0,0,1,13.22-7c10.87,0,14.08,6,14.08,16v24.53H704.4Z"/><path d="M729.56,219.24c-5.76,0-8.53-2.77-8.53-8.74V182.34h-7.89v-3.62h8.11V170.4l4.69-2.13v10.45h9.17v3.62h-9.17v26c0,4.7.64,6.83,5.76,6.83a23.11,23.11,0,0,0,3.62-.64v4.27A55.77,55.77,0,0,1,729.56,219.24Z"/></svg>