<svg xmlns="http://www.w3.org/2000/svg" viewBox="0 0 630.26 112.6"><defs><style>.a{fill:#1c2f5c;fill-rule:evenodd;}</style></defs><title>logo-schroders-2018</title><path class="a" d="M500.64,67c-1.1-7.14-7.69-14.28-17.85-14.28-8.79,0-15.38,6-17.58,14.28h35.43m17.58,8v5H464.66a19.53,19.53,0,0,0,19.78,17.85c8,0,14.55-3.57,19.5-9.07l11,10.16c-6.59,8.24-17,13.74-29.93,13.74-20.87,0-37.63-15.38-37.63-37.63,0-21.14,15.66-37.9,36.53-37.9C503.94,37.07,518.22,54.38,518.22,75Zm-97.5-15.65c-4.39-3.85-9.88-6-17-6A21.27,21.27,0,0,0,382.55,75c0,13.73,10.16,22.25,20.6,22.25,7.14,0,13.18-3.57,17.57-8ZM438,92.55l4.39,18.4H426.49l-3.29-6.59c-5.77,4.39-13.46,8.24-22.25,8.24-20.6,0-35.43-16.48-35.43-37.63,0-21.69,16.48-37.9,36.53-37.9a30.75,30.75,0,0,1,18.67,6.6V3.84L438,0ZM323,37.07V53.28c9.88,1.64,17.57,10.43,17.57,21.69,0,11-7.14,19.78-17.57,21.7V112.6C343.28,111,357.84,94.75,357.84,75A37.77,37.77,0,0,0,323,37.07ZM280.67,75a37.33,37.33,0,0,0,34.87,37.63V96.67C305.11,94.75,298,86,298,75c0-11.26,7.69-20,17.57-21.69V37.07A37.76,37.76,0,0,0,280.67,75Zm326.8-7.41c-9.89-2.2-16.2-4.4-16.2-9.34,0-3.84,4.66-6.59,11.26-6.59,5.49,0,12.08,3.84,14.83,8.79l11.26-9.89c-4.12-6.86-13.46-13.46-26.09-13.46-13.46,0-27.19,8.79-27.19,22.25,0,12.36,9.88,18.4,27.19,22.79,6.59,1.1,11.53,3.85,11.53,8.24s-3.3,8-10.44,8c-8.23,0-15.1-3.57-20-10.71l-11,10.16c6,9.33,18.13,14.83,31.58,14.83,14.83,0,26.09-9.89,26.09-22.8C630.26,77.17,619.55,70.3,607.47,67.56ZM47,48.88c-1.65,0-6.59-1.92-9.34-2.47-10.43-2.2-16.47-5.49-16.47-12.63,0-6.59,6.59-12.91,16.47-12.91,8.79,0,15.66,4.67,21.7,12.91L72,21.42C65.36,13.18,55.47,3.84,37.62,3.84,18.4,3.84,2.2,17,2.2,35.43c0,14,8.78,23.89,27.73,28.28,2.75.55,6.6,1.65,9.34,2.2C51.08,69.21,56,74.42,56,81c0,8.24-8.51,14.56-17.3,14.56-7.69,0-17-3-23.34-15.65L0,89.25c5.49,11.81,19.5,23.35,38.17,23.35,21.7,0,37.08-14.28,37.08-31.59C75.25,64.81,65.36,53.83,47,48.88Zm73.87,47.79c-11.25,0-20.59-9.06-20.59-21.7,0-12.36,8.79-21.14,20.05-21.14,6,0,12.63,3.29,17,9.33l12.63-11c-6.59-9.06-16.47-15.11-29.11-15.11-22.24,0-37.89,17.31-37.89,37.9,0,22.25,16.75,37.63,37.89,37.63a39,39,0,0,0,29.66-13.74L138.41,87.61C132.92,93.65,128,96.67,120.83,96.67Zm75.25-59.6a33,33,0,0,0-21.69,8.79V0l-17,3.84V111h17V63.16c4.39-5.49,10.43-9.33,17.3-9.33,10.43,0,16.48,6,16.48,22.24V111h17.3V75.52C225.47,53.83,215.85,37.07,196.08,37.07ZM543.21,47l-4.4-7.69H527.28V111h17V62.07c4.39-5.5,9.88-8.79,16.75-8.79a27.58,27.58,0,0,1,8.79,1.64l1.64-16.2a24.8,24.8,0,0,0-8.78-1.65C553.64,37.07,547.6,41.47,543.21,47ZM280.67,38.72,279,54.92a27.54,27.54,0,0,0-8.79-1.64c-6.59,0-12.08,3.29-16.48,8.79V111h-17.3V39.27h12.08L252.38,47c4.67-5.49,10.71-9.89,19.5-9.89A24.9,24.9,0,0,1,280.67,38.72Z"/></svg>