<svg xmlns="http://www.w3.org/2000/svg" viewBox="0 0 702.64 74.25"><defs><style>.a{fill:#0f79bf;}.b{fill:#e7362a;}.c{fill:#fff;}</style></defs><path class="a" d="M264.86,258.17a4.42,4.42,0,1,0,4.41,4.42,4.41,4.41,0,0,0-4.41-4.42m0,8.22a3.8,3.8,0,1,1,3.74-3.8,3.77,3.77,0,0,1-3.74,3.8" transform="translate(-74.63 -246.66)"/><path class="a" d="M266.9,261.49c0-1-.57-1.43-1.67-1.43h-2v5.06h.61v-2.25h1.06l1.43,2.25h.74l-1.51-2.25a1.4,1.4,0,0,0,1.3-1.38m-3,.85v-1.75h1.06c.9,0,1.31.26,1.31.88s-.41.87-1.31.87h-1.06" transform="translate(-74.63 -246.66)"/><path class="a" d="M92.68,280.5c0,3.23-1.41,5-5.12,5H84.4v-9.9c.41,0,1.75-.07,2.15-.07h1.09c3.79,0,5,1.68,5,4.94m7.57,12.34c0-4.87-4-6.62-8.78-6.73v-.18c4.09-.33,7.46-2.05,7.46-6.2,0-4.6-3.81-5.46-8.07-5.46-5.11,0-11.13.14-16.23,0v1.29c1.08-.07,3.7.07,3.7,1.43v20.22c0,1.31-2.7,1.53-3.7,1.53V300c5-.15,10.79,0,15.75,0,5.22,0,9.87-1.8,9.87-7.15m-6.53-.43c0,4.18-1.4,6.18-6.28,6.18h-3V286.88h3.24c4.43,0,6.08,1.56,6.08,5.53" transform="translate(-74.63 -246.66)"/><path class="a" d="M133.28,300c-2.29,0-4.58,0-6.87,0V298.7c1,0,3.93-.07,3.93-1.5V278.37h-.08l-10.52,21.91h-1.09l-10.24-21.91h-.08V297.2c0,1.47,3,1.5,4.1,1.5l0,1.29c-2.86-.12-6.76-.19-9.58,0V298.7c1.09,0,3.7-.11,3.7-1.5V277c0-1.35-2.69-1.46-3.7-1.46l0-1.29c3.25.14,6.75.14,10,0l8.76,18.37,8.91-18.33c3.14.13,6.52.1,9.66,0v1.29c-1,0-3.78.07-3.78,1.46V297.2c0,1.43,2.69,1.5,3.78,1.5V300c-2.3-.08-4.62,0-6.92,0" transform="translate(-74.63 -246.66)"/><path class="a" d="M164.34,287.08c0,5-.49,12-7.75,12s-7.8-7-7.8-12,.52-12,7.8-12,7.75,7,7.75,12m6.8,0c0-8.49-5.2-13.26-14.55-13.26S142,278.55,142,287.08s5.19,13.3,14.6,13.3,14.55-4.76,14.55-13.3" transform="translate(-74.63 -246.66)"/><path class="b" d="M224,246.66a37.13,37.13,0,1,0,37.13,37.13A37.13,37.13,0,0,0,224,246.66" transform="translate(-74.63 -246.66)"/><path class="c" d="M206.48,288.85h35V300h-35Zm16.38-16.4-6.44-8.4a1.45,1.45,0,0,0-1.14-.57,1.41,1.41,0,0,0-1.13.55l-7.67,9.66v15.16l7.63-9.78a1.49,1.49,0,0,1,2.34,0l6.48,8.46a1.33,1.33,0,0,0,2.14,0l6.48-8.46a1.49,1.49,0,0,1,2.34,0l7.63,9.78V273.69L233.85,264a1.43,1.43,0,0,0-2.27,0l-6.45,8.4A1.42,1.42,0,0,1,224,273a1.46,1.46,0,0,1-1.14-.56" transform="translate(-74.63 -246.66)"/><path class="a" d="M303.92,290.65l0,7.46c-3.73,1.08-8,2.27-12,2.27-9.4,0-14.07-5.07-14.07-13.39,0-8.8,5.41-13.72,15.09-13.72a34.58,34.58,0,0,1,10.14,1.64v6.67h-1.89c-.61-4.73-2.87-7-8.25-7-8,0-9.35,6.6-9.35,12.5,0,5.59,1.19,12,8.9,12,2.26,0,4.35-.34,5.66-2.17.7-1,.58-3.35.58-4.58s-.41-2.84-2.05-3.1a17.18,17.18,0,0,0-2.38,0l0-1.19h12.92v1.19c-1.07,0-3.32,0-3.32,1.42" transform="translate(-74.63 -246.66)"/><path class="a" d="M308.8,300v-1.19c1,0,3.24-.12,3.24-1.42V275.32c0-1.31-2.21-1.42-3.24-1.42l0-1.15c2.63,0,5.34.07,8-.08V297.4c0,1.3,2.26,1.42,3.29,1.42V300c-3.69-.15-7.59-.15-11.29,0" transform="translate(-74.63 -246.66)"/><path class="a" d="M332.68,300.38c-6.48,0-9.84-3.5-9.84-9.25s3.32-9.43,9.84-9.43,9.81,3.69,9.81,9.43-3.36,9.25-9.81,9.25m0-17.45c-4.84,0-4.63,4.84-4.63,8s-.21,8.24,4.63,8.24,4.64-5.07,4.64-8.24.2-8-4.64-8" transform="translate(-74.63 -246.66)"/><path class="a" d="M358.08,300.38a7.45,7.45,0,0,1-5.62-2.16L350.33,300h-2.67V275.32c0-1.34-2.05-1.42-3.12-1.42l0-1.15c2.63,0,5.29.07,7.92-.08v11.49c.74-1.87,4-2.47,5.82-2.47,6.16,0,8.25,4.22,8.25,9.22s-2.38,9.47-8.41,9.47M357,283.15c-4,0-4.63,4.11-4.63,6.9,0,3.17-.54,8.92,4.47,8.92,4.31,0,4.51-5,4.51-7.87s.12-8-4.35-8" transform="translate(-74.63 -246.66)"/><path class="a" d="M385.53,300.08c-1.52,0-3-.22-3-1.9a8.54,8.54,0,0,1-6.12,2.2c-4,0-6-1.82-6-5.44,0-6.16,7.51-5.75,12.07-6v-2.84c0-2-1-3.13-3.33-3.13-2.62,0-3.4,1.19-3.4,3.39,0,1-.83,1.16-1.68,1.16-1.32,0-2.26,0-2.26-1.53,0-3.51,4.06-4.25,7.14-4.25,4.8,0,8.24.63,8.24,5.67v8.54c0,2.53.25,2.87,3.08,2.91V300c-1.6,0-3.2.07-4.76.07m-3-9.95c-3.9.33-7.06.59-7.06,5,0,1.79.62,3.58,2.95,3.58,3.24,0,4.11-2.69,4.11-5.15Z" transform="translate(-74.63 -246.66)"/><path class="a" d="M392,300v-1.19c1,0,3.24-.12,3.24-1.42V275.32c0-1.31-2.21-1.42-3.24-1.42l0-1.15c2.63,0,5.34.07,8-.08V297.4c0,1.3,2.26,1.42,3.29,1.42V300c-3.69-.15-7.59-.15-11.29,0" transform="translate(-74.63 -246.66)"/><path class="a" d="M429.93,300v-1.23c.57-.08,3.89-.08,3.89-.71s-2.91-8-2.91-8h-8.29c-.32.93-2.78,7.42-2.78,7.87,0,.78,3.15.78,3.81.82V300c-3.12-.11-6.44-.11-9.56,0v-1.19c.74-.08,2.75-.15,3.24-.56.74-.56,9.48-22.64,10.18-24.62.41,0,.82,0,1.19,0s.82,0,1.23,0l9,22.94c.46,1.19,2.88,2.24,4.19,2.2V300c-4.31-.15-8.9-.15-13.21,0m-3.08-20.55-3.74,9.29h7.31Z" transform="translate(-74.63 -246.66)"/><path class="a" d="M451.51,300.38a22.9,22.9,0,0,1-6.73-1v-5.56h1.85c.08,2.87,1.4,5.45,5,5.45,2.08,0,4.3-.9,4.3-3.06,0-4.4-10.79-2.35-10.79-8.77,0-4.1,3.45-5.71,7.51-5.71a18.21,18.21,0,0,1,5.82,1v4.7h-1.68c-.28-2.61-1.27-4.47-4.47-4.47-2,0-3.36.75-3.36,2.65,0,4.36,10.83,1.75,10.83,9,0,4.21-4.27,5.81-8.25,5.81" transform="translate(-74.63 -246.66)"/><path class="a" d="M470.67,300.38a22.9,22.9,0,0,1-6.73-1v-5.56h1.85c.08,2.87,1.4,5.45,5,5.45,2.09,0,4.3-.9,4.3-3.06,0-4.4-10.79-2.35-10.79-8.77,0-4.1,3.45-5.71,7.51-5.71a18.32,18.32,0,0,1,5.83,1v4.7h-1.68c-.29-2.61-1.28-4.47-4.48-4.47-2,0-3.36.75-3.36,2.65,0,4.36,10.83,1.75,10.83,9,0,4.21-4.27,5.81-8.25,5.81" transform="translate(-74.63 -246.66)"/><path class="a" d="M487.86,290.65v.86c0,3.32.33,7.49,5.09,7.49,3.61,0,5.26-1.75,5.87-4.85h1.64c-.9,4.59-3.2,6.23-8.28,6.23-6.78,0-9.53-3.84-9.53-9.62,0-5.56,3.37-9.06,9.61-9.06,6.07,0,8.69,3.35,8.69,8.61v.34Zm7.92-2.54c0-2.46-.49-5.22-3.85-5.22-3.78,0-4,3.88-4.07,6.45h7.92Z" transform="translate(-74.63 -246.66)"/><path class="a" d="M511.17,300.35c-3.81,0-4.88-1.79-4.88-5V283.41h-3v-1.3h3V278.3l4.72-.41v4.22h4.35v1.3H511V296c0,1.42.37,2.5,2.13,2.5a5.31,5.31,0,0,0,2.51-1.08l.86,1.16a10.51,10.51,0,0,1-5.34,1.79" transform="translate(-74.63 -246.66)"/><path class="a" d="M551,300v-1.23c1,0,4.15,0,4.15-1.38V277.3l-11,23h-1l-10.83-22.9v20c0,1.38,3.12,1.38,4.15,1.38V300c-3.16-.11-6.53-.15-9.69,0v-1.23c1,0,3.82,0,3.82-1.38V276.32c0-1.3-2.83-1.37-3.82-1.37l0-1.24c3,.15,6.24.15,9.24,0l9.51,19.77,9.57-19.77c3,.15,6.11.15,9.06,0V275c-1,0-3.9,0-3.9,1.37V297.4c0,1.38,2.88,1.38,3.9,1.38V300c-4-.15-9.19-.15-13.21,0" transform="translate(-74.63 -246.66)"/><path class="a" d="M581.38,300.08c-1.52,0-3-.22-3-1.9a8.52,8.52,0,0,1-6.11,2.2c-4,0-6-1.82-6-5.44,0-6.16,7.51-5.75,12.06-6v-2.84c0-2-1-3.13-3.32-3.13-2.63,0-3.41,1.19-3.41,3.39,0,1-.82,1.16-1.68,1.16-1.31,0-2.26,0-2.26-1.53,0-3.51,4.06-4.25,7.14-4.25,4.8,0,8.25.63,8.25,5.67v8.54c0,2.53.24,2.87,3.07,2.91V300c-1.6,0-3.2.07-4.75.07m-3-9.95c-3.9.33-7.05.59-7.05,5,0,1.79.61,3.58,3,3.58,3.24,0,4.1-2.69,4.1-5.15Z" transform="translate(-74.63 -246.66)"/><path class="a" d="M600.66,300v-1.16c1,0,3-.15,3-1.45v-9.59c0-2.31-.45-4.25-3.45-4.25-3.45,0-4.68,2.69-4.68,5.41v8.43c0,1.19,2.05,1.42,3,1.42l0,1.15c-3.57-.15-7.47-.11-11,0v-1.16c1.07,0,3.24-.07,3.24-1.45V284.72c0-1.35-2.17-1.42-3.24-1.46v-1.15c2.63,0,5.25,0,7.88-.08v2.65h.08a8.3,8.3,0,0,1,6.77-3c4.47,0,6.15,2,6.15,5.9v9.81c0,1.3,2.18,1.42,3.2,1.42V300c-3.56-.11-7.38-.15-11,0" transform="translate(-74.63 -246.66)"/><path class="a" d="M629.3,300.08c-1.52,0-3-.22-3-1.9a8.54,8.54,0,0,1-6.12,2.2c-4,0-6-1.82-6-5.44,0-6.16,7.51-5.75,12.07-6v-2.84c0-2-1-3.13-3.33-3.13-2.62,0-3.4,1.19-3.4,3.39,0,1-.82,1.16-1.68,1.16-1.32,0-2.26,0-2.26-1.53,0-3.51,4.06-4.25,7.14-4.25,4.8,0,8.25.63,8.25,5.67v8.54c0,2.53.24,2.87,3.07,2.91V300c-1.6,0-3.2.07-4.76.07m-3-9.95c-3.9.33-7.06.59-7.06,5,0,1.79.62,3.58,2.95,3.58,3.24,0,4.11-2.69,4.11-5.15Z" transform="translate(-74.63 -246.66)"/><path class="a" d="M655.07,284.57a2.89,2.89,0,0,1-2.26-1.2.26.26,0,0,0-.25-.15c-.28,0-.61.19-.61.45a6.47,6.47,0,0,1,1.15,3.62c0,4.07-3.86,6.15-7.92,6.15a10,10,0,0,1-4.31-.93c-.61.38-1.51,1.08-1.51,1.83,0,2.2,6.4,2,7.91,2,4,0,7.76,1,7.76,5.3,0,5.07-5.54,7.09-10.34,7.09-3.45,0-9.44-1.05-9.44-5.11,0-2,2-3.73,4.06-4.07l.05,0a3.76,3.76,0,0,1-2.22-3.51,4.73,4.73,0,0,1,2.66-4.11,5.1,5.1,0,0,1-2.37-4.28c0-4.07,3.81-5.89,7.83-5.86,1.07,0,4.31.34,5.09,1a11.75,11.75,0,0,1,3.45-.89c.69,0,2.17.56,2.17,1.34,0,.48-.21,1.38-.9,1.38m-12.8,15.33a9.42,9.42,0,0,0-1.19.37c-1.6.52-2.75,1.34-2.75,3,0,3.17,3.57,4.26,6.52,4.26s7.1-1.23,7.1-4.37c0-3.65-7-3.28-9.68-3.28m3.12-17c-3,0-3.41,2.43-3.41,4.59s.37,4.77,3.32,4.77,3.33-2.65,3.33-4.73-.37-4.63-3.24-4.63" transform="translate(-74.63 -246.66)"/><path class="a" d="M663.36,290.65v.86c0,3.32.32,7.49,5.09,7.49,3.6,0,5.25-1.75,5.86-4.85H676c-.9,4.59-3.2,6.23-8.28,6.23-6.77,0-9.52-3.84-9.52-9.62,0-5.56,3.36-9.06,9.6-9.06,6.07,0,8.7,3.35,8.7,8.61v.34Zm7.92-2.54c0-2.46-.5-5.22-3.86-5.22-3.78,0-4,3.88-4.06,6.45h7.92Z" transform="translate(-74.63 -246.66)"/><path class="a" d="M704.35,300v-1.19c.94,0,2.91-.26,2.91-1.42v-10c0-2.09-.53-3.84-3.2-3.84-3.44,0-4.67,2.5-4.67,5.26v8.54c0,1.16,2,1.42,2.91,1.42l0,1.19c-3.44-.15-7.22-.15-10.66,0v-1.19c.94,0,3-.26,3-1.42v-9.85c0-2.16-.45-4-3.28-4-3.45,0-4.64,2.54-4.64,5.3v8.54c0,1.16,2,1.42,3,1.42V300c-3.4-.15-7.51-.11-10.92,0v-1.19c1,0,3.21-.15,3.21-1.42V284.68c0-1.31-2.18-1.42-3.21-1.42l0-1.15c2.63,0,5.26,0,7.88-.08v2.65h.08a8,8,0,0,1,6.65-3c2.71,0,4.88.79,5.79,3.29l0,0a7.93,7.93,0,0,1,6.73-3.25c4.31,0,6.16,1.72,6.16,5.64V297.4c0,1.3,2.13,1.42,3.16,1.42V300c-3.4-.15-7.47-.19-10.83,0" transform="translate(-74.63 -246.66)"/><path class="a" d="M722.85,290.65v.86c0,3.32.33,7.49,5.09,7.49,3.61,0,5.26-1.75,5.87-4.85h1.64c-.9,4.59-3.2,6.23-8.29,6.23-6.77,0-9.52-3.84-9.52-9.62,0-5.56,3.37-9.06,9.61-9.06,6.07,0,8.69,3.35,8.69,8.61v.34Zm7.92-2.54c0-2.46-.49-5.22-3.85-5.22-3.78,0-4,3.88-4.07,6.45h7.92Z" transform="translate(-74.63 -246.66)"/><path class="a" d="M751.78,300v-1.16c1,0,3-.15,3-1.45v-9.59c0-2.31-.45-4.25-3.45-4.25-3.45,0-4.68,2.69-4.68,5.41v8.43c0,1.19,2.06,1.42,3,1.42l0,1.15c-3.57-.15-7.47-.11-11,0v-1.16c1.07,0,3.24-.07,3.24-1.45V284.72c0-1.35-2.17-1.42-3.24-1.46v-1.15c2.63,0,5.25,0,7.88-.08v2.65h.08a8.29,8.29,0,0,1,6.77-3c4.47,0,6.16,2,6.16,5.9v9.81c0,1.3,2.17,1.42,3.2,1.42V300c-3.57-.11-7.39-.15-11,0" transform="translate(-74.63 -246.66)"/><path class="a" d="M771.93,300.35c-3.82,0-4.88-1.79-4.88-5V283.41h-3v-1.3h3V278.3l4.72-.41v4.22h4.34v1.3h-4.34V296c0,1.42.37,2.5,2.13,2.5a5.23,5.23,0,0,0,2.5-1.08l.86,1.16a10.48,10.48,0,0,1-5.33,1.79" transform="translate(-74.63 -246.66)"/></svg>