<svg xmlns="http://www.w3.org/2000/svg" viewBox="0 0 708.55 148.63"><defs><style>.a{fill:#e33036;}</style></defs><title>logo-morningstar</title><rect class="a" x="356.16" y="4.2" width="12.78" height="140.56"/><polygon class="a" points="532.25 4.2 573.05 4.2 573.05 15.91 559.18 15.91 559.18 144.76 546.33 144.76 546.33 15.91 532.25 15.91 532.25 4.2"/><polygon class="a" points="344.48 4.2 344.48 144.76 331.09 144.76 311.93 59.38 311.93 144.76 299.38 144.76 299.38 4.2 310.93 4.2 331.92 97.29 331.92 4.2 344.48 4.2"/><polygon class="a" points="66.43 4.2 66.43 144.76 53.87 144.76 53.87 24.27 38.37 144.76 27.9 144.76 12.65 24.27 12.65 144.76 0 144.76 0 4.2 21.39 4.2 33.64 88.93 45.2 4.2 66.43 4.2"/><path class="a" d="M222.17,144.8a81.35,81.35,0,1,0-131.09,0H108a68.49,68.49,0,1,1,97.31,0Z"/><path class="a" d="M619.34,144.76h-12.5l-3.3-31.66H584.83l-3.05,31.66H569L583.44,4.2h19.49Zm-17-44.37L593.87,22.9,586,100.39Z"/><path class="a" d="M466.58,126.89c0,6.35-3.71,9.58-8,9.58s-8-3.23-8-9.58V20.74c0-6.33,3.73-9.57,8-9.57s8,3.24,8,9.57l0,5.07v26.5h12.86V31.88l0-5.9C479.3,8.46,472.45.11,458.15.11c-12.73,0-21,9-21,22.89l0,5.16v88l0,5.69c0,18,7,26.79,21.33,26.79s21-8.63,21-27.16V70.33H455.8V82.64h10.76v39.59Z"/><path class="a" d="M519.29,123.52V87L490,65.1V24.26C490,8.21,497.22,0,511.37,0c14.35,0,20.88,8.15,21,26.19l0,5.6V52.5H519.29V24.72l0-4c0-6.33-3.69-9.57-7.9-9.57s-7.92,3.24-7.92,9.57V59l28.94,21.85v42.26c0,16.53-7.35,25.37-21.1,25.37-13.92,0-21.16-8.34-21.25-24.45l0-5.57V91h13.45v35.93c0,6.35,3.69,9.58,7.92,9.58s7.9-3.23,7.9-9.58Z"/><path class="a" d="M291.6,144.76H278.79a42.65,42.65,0,0,1-2.6-15.12l-.1-7.19,0-3.64V91.37c0-5.76-3.51-8.38-7.55-8.38h-9.13v61.77H246.8V4.2h16.38c18.39,0,25.47,6.72,25.47,24.71V55.3c0,11.82-2,16.79-11.23,20.2l.39.13c8.73,2.55,10.69,5.87,10.79,17l0,5.11v25.66C288.65,132.7,289.35,137.76,291.6,144.76ZM259.36,15.27V70.93h4.51c8.27,0,12.17-3.8,12.17-11.87V30.42c0-11.54-2.67-15.15-11.21-15.15Z"/><path class="a" d="M667.47,144.76H654.66a42.65,42.65,0,0,1-2.6-15.12l-.1-7.19,0-3.64V91.37c0-5.76-3.51-8.38-7.57-8.38h-9.12v61.77H622.68V4.2h16.37c18.4,0,25.47,6.72,25.47,24.71V55.3c0,11.82-2,16.79-11.23,20.2l.39.13c8.72,2.55,10.7,5.87,10.79,17l0,5.11v25.66C664.52,132.7,665.22,137.76,667.47,144.76ZM635.23,15.27V70.93h4.51c8.29,0,12.18-3.8,12.18-11.87V30.42c0-11.54-2.67-15.15-11.23-15.15Z"/><polygon class="a" points="425.54 4.2 425.54 144.76 412.14 144.76 393.01 59.38 393.01 144.76 380.45 144.76 380.45 4.2 392.01 4.2 412.98 97.29 412.98 4.2 425.54 4.2"/><path class="a" d="M676.88,18.4A15.84,15.84,0,1,0,692.71,2.57,15.85,15.85,0,0,0,676.88,18.4Zm1.64,0a14.2,14.2,0,1,1,14.19,14.21A14.22,14.22,0,0,1,678.52,18.4Z"/><path class="a" d="M687.18,10.68h7.06c2.46,0,5,.94,5,4.5a4,4,0,0,1-3.62,4.36L700,26.3h-2.5l-4.21-6.63h-4V26.3h-2.07Zm2.07,7.2h4.67c1.93,0,3.29-.62,3.29-2.7s-1.36-2.7-3.29-2.7h-4.67Z"/></svg>