<svg xmlns="http://www.w3.org/2000/svg" viewBox="0 0 484.52 119.14"><defs><style>.a{fill:#0a69b3;}.b{fill:#ffde0d;}.c{fill:#66b446;}</style></defs><path class="a" d="M343.42,218.52v2c2.05.41,6.49,1.64,4.69,5.6l-25.23,55.79h13.33l7.9-17.39h27.95l6.9,17.39h17.53l-25-63.39Zm4.26,38.12L359,231.7l9.9,24.94Z" transform="translate(-169.85 -218.51)"/><path class="b" d="M264.71,316.08l-9.49-97.57h0L245.6,317.7q9.36-1,19.11-1.62" transform="translate(-169.85 -218.51)"/><path class="c" d="M287.87,315.38V218.53l-32.65,0v0l9.49,97.56q11.34-.69,23.16-.71" transform="translate(-169.85 -218.51)"/><path class="a" d="M245.61,317.71l9.61-99.19H169.86V336.3c20.06-8.79,46.19-15.33,75.76-18.59" transform="translate(-169.85 -218.51)"/><path class="a" d="M472.84,220.52c1.39.24,6.4,1.68,6.4,5.19v56.2h16.92V218.52H472.84Z" transform="translate(-169.85 -218.51)"/><path class="a" d="M567.71,218.51,548.09,265l-18.66-46.49H505.65v2c2.75.53,5.83,1.69,7.24,5.2l22.57,56.2h18.15l26.75-63.4Z" transform="translate(-169.85 -218.51)"/><path class="a" d="M432.46,265l-18.68-46.49H390v2c2.75.53,5.82,1.69,7.24,5.2l22.55,56.2H438l26.76-63.4H452.08Z" transform="translate(-169.85 -218.51)"/><path class="a" d="M600.39,256.64l11.33-24.94,9.91,24.94ZM624,218.52H596v2c2,.41,6.48,1.64,4.67,5.6l-25.21,55.79H588.8l7.89-17.39h27.94l6.91,17.39h17.55Z" transform="translate(-169.85 -218.51)"/><path class="a" d="M373.87,327.14l-20.14-26.21h-13.8v1.17a5.09,5.09,0,0,1,2.39.92,2.42,2.42,0,0,1,1.24,2v31.4h7.07V312.75l18.12,23.69h12.16V300.93h-7Z" transform="translate(-169.85 -218.51)"/><path class="a" d="M410.91,326.88,400.4,300.93H387.15v1.17q3.17.63,4.06,2.83l12.66,31.51H414l15-35.51h-7.07Z" transform="translate(-169.85 -218.51)"/><path class="a" d="M433.32,302.1a5.1,5.1,0,0,1,2.38.89,2.5,2.5,0,0,1,1.24,2.05v31.4h24.94v-5.17H446.36V320.15h14.23v-5H446.36v-9h15.52v-5.18H433.32Z" transform="translate(-169.85 -218.51)"/><path class="a" d="M488.49,316.41q-5.19-3.15-5.56-3.4-4.19-2.85-4.18-4.24a2.35,2.35,0,0,1,1-1.88c1.25-1,3.13-1.53,5.67-1.53a13.16,13.16,0,0,1,4.31.62c2.27.82,3.64,1.95,4.14,3.44H495v-7.63a32.17,32.17,0,0,0-10.14-1.5q-7.59,0-11.74,2.75a7.93,7.93,0,0,0-3.9,6.88,9.11,9.11,0,0,0,3.11,6.56,33.65,33.65,0,0,0,6.16,4.38q4.68,2.83,5.12,3.15c2.17,1.61,3.25,3.15,3.25,4.6a2.94,2.94,0,0,1-2,2.75,9.29,9.29,0,0,1-3.64.65,26.73,26.73,0,0,1-12.4-2.88v6.24a38.7,38.7,0,0,0,11.53,1.72,26.75,26.75,0,0,0,9-1.33c5-1.74,7.53-4.77,7.53-9.06q0-5.19-8.31-10.29" transform="translate(-169.85 -218.51)"/><polygon class="a" points="330.98 87.6 343.92 87.6 343.92 117.93 353.35 117.93 353.35 87.6 366.28 87.6 366.28 82.42 330.98 82.42 330.98 87.6"/><path class="a" d="M558.85,300c-13,0-21,8.43-21,18.83s8,18.83,21,18.83,21-8.43,21-18.83-8-18.83-21-18.83m0,32.1c-7.2,0-11.18-3.89-11.18-13.27s4-13.28,11.18-13.28,11.2,3.9,11.2,13.28-4,13.27-11.2,13.27" transform="translate(-169.85 -218.51)"/><path class="a" d="M611.59,324.3c-.59-.67-1-1.15-1.23-1.41a15.91,15.91,0,0,0-2.45-2.39q10.59-1.61,10.6-9.19,0-10.38-15.34-10.39H583.05v1.18a5.22,5.22,0,0,1,2.34.88,2.39,2.39,0,0,1,1.3,1.95v31.51h9.41V320.9a16.13,16.13,0,0,1,4,3.09q.9.94,3.27,3.87l7,8.58h11.19L613,326.08Zm-12.27-6.24c-1.35,0-2.42,0-3.22-.1v-12.5h3.47a24,24,0,0,1,5.15.46c2.91.67,4.36,2.46,4.36,5.39,0,4.51-3.25,6.75-9.76,6.75" transform="translate(-169.85 -218.51)"/><path class="a" d="M320.75,302.1a5.09,5.09,0,0,1,2.38.92,2.42,2.42,0,0,1,1.24,2v31.41h9.42V300.93h-13Z" transform="translate(-169.85 -218.51)"/><path class="a" d="M646.06,316.41c-3.45-2.1-5.31-3.23-5.56-3.4q-4.18-2.85-4.18-4.24a2.31,2.31,0,0,1,1-1.88q1.86-1.53,5.65-1.53a13.23,13.23,0,0,1,4.32.62c2.27.82,3.65,1.95,4.14,3.44h1.13v-7.63a32.21,32.21,0,0,0-10.14-1.5q-7.59,0-11.74,2.75a7.93,7.93,0,0,0-3.9,6.88,9.11,9.11,0,0,0,3.11,6.56,34,34,0,0,0,6.16,4.38q4.68,2.83,5.13,3.15c2.15,1.61,3.24,3.15,3.24,4.6a2.94,2.94,0,0,1-2,2.75,9.17,9.17,0,0,1-3.63.65,26.7,26.7,0,0,1-12.4-2.88v6.24a38.76,38.76,0,0,0,11.54,1.72,26.83,26.83,0,0,0,9-1.33c5-1.74,7.52-4.77,7.52-9.06q0-5.19-8.31-10.29" transform="translate(-169.85 -218.51)"/></svg>