<svg xmlns="http://www.w3.org/2000/svg" viewBox="0 0 754.27 56.58"><defs><style>.a{fill:#0f79bf;}.b{fill:#e7362a;}.c{fill:#fff;}.d{fill:#103f69;}.e{fill:#3b6a95;}.f{fill:#1c5a88;}.g{fill:#1fb0e7;}.h{fill:#577ba3;}.i{fill:#1b9dd9;}.j{fill:#5fc5f1;}.k{fill:none;stroke:#1b9dd9;stroke-width:0.47px;}</style></defs><path class="a" d="M126.26,7.64a2.93,2.93,0,1,0,2.93,2.93,2.93,2.93,0,0,0-2.93-2.93m0,5.45a2.52,2.52,0,1,1,2.48-2.52,2.5,2.5,0,0,1-2.48,2.52"/><path class="a" d="M127.61,9.84c0-.65-.38-.95-1.11-.95h-1.3v3.36h.41V10.76h.7l1,1.49h.49l-1-1.49a.93.93,0,0,0,.86-.92m-2,.57V9.24h.7c.6,0,.87.18.87.59s-.27.58-.87.58h-.7"/><path class="a" d="M12,22.46c0,2.14-.93,3.34-3.4,3.34H6.49V19.23c.27,0,1.16-.05,1.43-.05h.72c2.51,0,3.34,1.12,3.34,3.28m5,8.19c0-3.23-2.63-4.4-5.83-4.47v-.12c2.72-.21,4.95-1.36,4.95-4.11,0-3.05-2.53-3.62-5.35-3.62-3.4,0-7.39.09-10.78,0v.85c.72-.05,2.46.05,2.46.95V33.55c0,.87-1.79,1-2.46,1v.84c3.29-.11,7.17,0,10.46,0,3.46,0,6.55-1.2,6.55-4.75m-4.34-.29c0,2.78-.93,4.1-4.16,4.1h-2V26.69H8.64c2.94,0,4,1,4,3.67"/><path class="a" d="M38.93,35.37c-1.52,0-3,0-4.56,0v-.85c.69,0,2.61,0,2.61-1V21h0l-7,14.55h-.72L22.42,21h-.05V33.55c0,1,2,1,2.72,1l0,.85c-1.9-.08-4.49-.12-6.36,0v-.85c.72,0,2.46-.07,2.46-1V20.15c0-.9-1.79-1-2.46-1l0-.85c2.16.09,4.48.09,6.64,0L31.2,30.52l5.91-12.17c2.09.09,4.33.07,6.41,0v.85c-.69,0-2.51.05-2.51,1v13.4c0,.94,1.79,1,2.51,1v.85c-1.52,0-3.07,0-4.59,0"/><path class="a" d="M59.54,26.83c0,3.33-.32,8-5.14,8s-5.18-4.64-5.18-8,.35-7.95,5.18-7.95,5.14,4.64,5.14,8m4.51,0c0-5.64-3.44-8.8-9.65-8.8s-9.69,3.14-9.69,8.8,3.44,8.82,9.69,8.82,9.65-3.16,9.65-8.82"/><path class="b" d="M99.13,0a24.64,24.64,0,1,0,24.65,24.64A24.64,24.64,0,0,0,99.13,0"/><path class="c" d="M87.51,28h23.25v7.38H87.51ZM98.38,17.12l-4.27-5.58a1,1,0,0,0-.76-.37.94.94,0,0,0-.75.36l-5.09,6.41V28l5.06-6.49a1,1,0,0,1,.78-.37,1,1,0,0,1,.78.38l4.3,5.62a.88.88,0,0,0,1.42,0l4.3-5.62a1,1,0,0,1,.78-.38,1,1,0,0,1,.77.37L110.76,28V17.94l-5.09-6.41a.91.91,0,0,0-.74-.36,1,1,0,0,0-.76.37l-4.28,5.58a1,1,0,0,1-.75.37,1,1,0,0,1-.76-.37"/><path class="a" d="M152.18,29.2l0,4.95a30,30,0,0,1-8,1.51c-6.24,0-9.35-3.37-9.35-8.89,0-5.84,3.6-9.11,10-9.11a22.93,22.93,0,0,1,6.72,1.09v4.43h-1.25c-.41-3.14-1.91-4.65-5.47-4.65-5.34,0-6.21,4.38-6.21,8.29,0,3.71.79,8,5.9,8,1.5,0,2.89-.22,3.76-1.44.47-.64.38-2.22.38-3s-.27-1.88-1.36-2.06a11.9,11.9,0,0,0-1.58,0l0-.79h8.57v.79c-.7,0-2.2,0-2.2.95"/><path class="a" d="M155.42,35.41v-.79c.68,0,2.15-.08,2.15-.95V19c0-.87-1.47-.94-2.15-.94l0-.77c1.74,0,3.54.05,5.28,0V33.67c0,.87,1.5.95,2.18.95v.79c-2.45-.1-5-.1-7.49,0"/><path class="a" d="M171.27,35.66c-4.3,0-6.54-2.33-6.54-6.14s2.21-6.27,6.54-6.27,6.51,2.45,6.51,6.27-2.23,6.14-6.51,6.14m0-11.59c-3.21,0-3.08,3.22-3.08,5.32s-.13,5.47,3.08,5.47,3.08-3.36,3.08-5.47.13-5.32-3.08-5.32"/><path class="a" d="M188.13,35.66a5,5,0,0,1-3.74-1.44L183,35.38h-1.77V19c0-.89-1.36-.94-2.07-.94l0-.77c1.75,0,3.52.05,5.26,0v7.63c.49-1.24,2.64-1.64,3.86-1.64,4.09,0,5.48,2.8,5.48,6.12s-1.58,6.29-5.58,6.29m-.74-11.44c-2.64,0-3.08,2.72-3.08,4.58,0,2.1-.35,5.92,3,5.92,2.86,0,3-3.35,3-5.23s.08-5.27-2.89-5.27"/><path class="a" d="M206.34,35.46c-1,0-2-.15-2-1.26a5.68,5.68,0,0,1-4.06,1.46c-2.64,0-4-1.22-4-3.62,0-4.08,5-3.81,8-4V26.15c0-1.34-.68-2.08-2.21-2.08-1.74,0-2.26.79-2.26,2.25,0,.65-.54.77-1.11.77-.87,0-1.5,0-1.5-1,0-2.33,2.69-2.83,4.74-2.83,3.18,0,5.47.42,5.47,3.77v5.67c0,1.68.16,1.9,2,1.93v.79c-1.06,0-2.12.05-3.16.05m-2-6.61c-2.59.22-4.68.39-4.68,3.32,0,1.18.4,2.37,2,2.37,2.15,0,2.72-1.78,2.72-3.41Z"/><path class="a" d="M210.62,35.41v-.79c.68,0,2.15-.08,2.15-.95V19c0-.87-1.47-.94-2.15-.94l0-.77c1.74,0,3.54.05,5.28,0V33.67c0,.87,1.5.95,2.18.95v.79c-2.45-.1-5-.1-7.49,0"/><path class="a" d="M235.81,35.41v-.82c.38-.05,2.58-.05,2.58-.47s-1.93-5.3-1.93-5.3H231c-.22.62-1.85,4.93-1.85,5.23,0,.52,2.1.52,2.53.54v.79c-2.07-.07-4.27-.07-6.34,0v-.79a6.54,6.54,0,0,0,2.15-.37c.49-.38,6.29-15,6.75-16.34.27,0,.55,0,.79,0s.55,0,.82,0l6,15.22c.3.79,1.91,1.49,2.78,1.46v.82c-2.86-.1-5.91-.1-8.77,0m-2-13.64-2.48,6.16h4.85Z"/><path class="a" d="M250.13,35.66a15,15,0,0,1-4.46-.7V31.27h1.22c.06,1.91.93,3.62,3.3,3.62,1.39,0,2.86-.59,2.86-2,0-2.92-7.16-1.56-7.16-5.82,0-2.72,2.28-3.79,5-3.79a12.16,12.16,0,0,1,3.87.67V27h-1.12c-.19-1.73-.85-3-3-3-1.31,0-2.23.5-2.23,1.76,0,2.9,7.19,1.16,7.19,6,0,2.79-2.84,3.86-5.48,3.86"/><path class="a" d="M262.85,35.66a15,15,0,0,1-4.47-.7V31.27h1.23c.06,1.91.93,3.62,3.3,3.62,1.38,0,2.86-.59,2.86-2,0-2.92-7.17-1.56-7.17-5.82,0-2.72,2.29-3.79,5-3.79a12,12,0,0,1,3.86.67V27h-1.11c-.19-1.73-.85-3-3-3-1.31,0-2.23.5-2.23,1.76,0,2.9,7.18,1.16,7.18,6,0,2.79-2.83,3.86-5.47,3.86"/><path class="a" d="M274.26,29.2v.57c0,2.2.22,5,3.38,5a3.52,3.52,0,0,0,3.89-3.22h1.09c-.6,3.05-2.12,4.14-5.5,4.14-4.49,0-6.32-2.55-6.32-6.39s2.24-6,6.38-6S283,25.48,283,29v.23Zm5.26-1.69c0-1.63-.33-3.46-2.56-3.46-2.51,0-2.67,2.57-2.7,4.28h5.26Z"/><path class="a" d="M289.73,35.63c-2.53,0-3.24-1.19-3.24-3.32V24.39h-2v-.86h2V21l3.13-.27v2.8h2.89v.86h-2.89v8.35c0,.94.25,1.65,1.42,1.65a3.61,3.61,0,0,0,1.66-.71l.57.76a6.9,6.9,0,0,1-3.54,1.19"/><path class="a" d="M316.14,35.41v-.82c.66,0,2.75,0,2.75-.92V20.33l-7.32,15.25h-.63l-7.19-15.2V33.67c0,.92,2.07.92,2.75.92v.82c-2.09-.08-4.33-.1-6.42,0v-.82c.68,0,2.53,0,2.53-.92v-14c0-.87-1.88-.92-2.53-.92l0-.81c2,.09,4.14.09,6.13,0l6.32,13.12L318.89,18c2,.09,4.06.09,6,0v.81c-.65,0-2.59,0-2.59.92v14c0,.92,1.91.92,2.59.92v.82c-2.67-.1-6.1-.1-8.77,0"/><path class="a" d="M336.32,35.46c-1,0-2-.15-2-1.26a5.64,5.64,0,0,1-4.05,1.46c-2.64,0-4-1.22-4-3.62,0-4.08,5-3.81,8-4V26.15c0-1.34-.68-2.08-2.21-2.08-1.74,0-2.26.79-2.26,2.25,0,.65-.54.77-1.12.77-.86,0-1.49,0-1.49-1,0-2.33,2.69-2.83,4.74-2.83,3.18,0,5.47.42,5.47,3.77v5.67c0,1.68.16,1.9,2,1.93v.79c-1.06,0-2.12.05-3.16.05m-2-6.61c-2.59.22-4.68.39-4.68,3.32,0,1.18.4,2.37,1.95,2.37,2.16,0,2.73-1.78,2.73-3.41Z"/><path class="a" d="M349.12,35.41v-.77c.68,0,2-.1,2-1V27.31c0-1.53-.3-2.82-2.29-2.82-2.29,0-3.1,1.79-3.1,3.59v5.59c0,.8,1.36.95,2,.95l0,.76c-2.37-.1-5-.07-7.32,0v-.77c.71,0,2.15,0,2.15-1V25.26c0-.89-1.44-.94-2.15-1v-.76c1.74,0,3.48,0,5.23-.05v1.75h.05a5.52,5.52,0,0,1,4.49-2c3,0,4.09,1.32,4.09,3.92v6.5c0,.87,1.44.95,2.12.95v.79c-2.37-.08-4.9-.1-7.27,0"/><path class="a" d="M368.13,35.46c-1,0-2-.15-2-1.26a5.64,5.64,0,0,1-4.05,1.46c-2.65,0-4-1.22-4-3.62,0-4.08,5-3.81,8-4V26.15c0-1.34-.68-2.08-2.21-2.08-1.74,0-2.26.79-2.26,2.25,0,.65-.54.77-1.12.77-.87,0-1.5,0-1.5-1,0-2.33,2.7-2.83,4.75-2.83,3.18,0,5.47.42,5.47,3.77v5.67c0,1.68.16,1.9,2,1.93v.79c-1.06,0-2.13.05-3.16.05m-2-6.61c-2.59.22-4.69.39-4.69,3.32,0,1.18.41,2.37,2,2.37,2.15,0,2.73-1.78,2.73-3.41Z"/><path class="a" d="M385.23,25.16a2,2,0,0,1-1.5-.79.15.15,0,0,0-.16-.1c-.19,0-.41.12-.41.3a4.3,4.3,0,0,1,.77,2.4c0,2.7-2.57,4.08-5.26,4.08a6.66,6.66,0,0,1-2.86-.62c-.41.25-1,.72-1,1.22,0,1.46,4.25,1.33,5.26,1.33,2.67,0,5.14.65,5.14,3.52,0,3.36-3.67,4.7-6.86,4.7-2.29,0-6.26-.69-6.26-3.39a3.11,3.11,0,0,1,2.69-2.7l0,0a2.49,2.49,0,0,1-1.47-2.33A3.11,3.11,0,0,1,375.1,30a3.41,3.41,0,0,1-1.58-2.85c0-2.7,2.53-3.91,5.2-3.89a8.89,8.89,0,0,1,3.38.65,7.8,7.8,0,0,1,2.29-.6c.46,0,1.44.38,1.44.89,0,.33-.14.92-.6.92m-8.5,10.18a5.7,5.7,0,0,0-.78.24c-1.07.35-1.83.89-1.83,2,0,2.1,2.37,2.82,4.33,2.82s4.71-.82,4.71-2.9c0-2.42-4.63-2.17-6.43-2.17m2.08-11.29c-2,0-2.27,1.61-2.27,3s.25,3.17,2.21,3.17S381,28.5,381,27.12s-.25-3.07-2.15-3.07"/><path class="a" d="M390.73,29.2v.57c0,2.2.22,5,3.38,5A3.51,3.51,0,0,0,398,31.52h1.09c-.6,3.05-2.12,4.14-5.5,4.14-4.49,0-6.31-2.55-6.31-6.39s2.23-6,6.37-6,5.77,2.23,5.77,5.72v.23ZM396,27.51c0-1.63-.33-3.46-2.56-3.46-2.51,0-2.67,2.57-2.7,4.28H396Z"/><path class="a" d="M417.94,35.41v-.79c.62,0,1.93-.18,1.93-.95v-6.6c0-1.39-.35-2.55-2.12-2.55-2.29,0-3.11,1.66-3.11,3.49v5.66c0,.77,1.31.95,1.94.95l0,.79c-2.28-.1-4.79-.1-7.08,0v-.79c.63,0,2-.18,2-.95V27.14c0-1.44-.3-2.65-2.17-2.65-2.29,0-3.08,1.69-3.08,3.52v5.66c0,.77,1.33.95,2,.95v.76c-2.26-.1-5-.07-7.25,0v-.79c.66,0,2.13-.1,2.13-.95V25.23c0-.86-1.44-.94-2.13-.94l0-.76c1.74,0,3.48,0,5.23-.05v1.75h.05a5.31,5.31,0,0,1,4.41-2c1.8,0,3.24.52,3.84,2.18l0,0a5.23,5.23,0,0,1,4.46-2.16c2.86,0,4.09,1.14,4.09,3.74v6.68c0,.87,1.42.95,2.1.95v.79c-2.26-.1-5-.13-7.19,0"/><path class="a" d="M430.22,29.2v.57c0,2.2.22,5,3.38,5a3.52,3.52,0,0,0,3.89-3.22h1.09c-.6,3.05-2.12,4.14-5.5,4.14-4.49,0-6.32-2.55-6.32-6.39s2.24-6,6.38-6,5.77,2.23,5.77,5.72v.23Zm5.26-1.69c0-1.63-.33-3.46-2.56-3.46-2.51,0-2.67,2.57-2.7,4.28h5.26Z"/><path class="a" d="M449.42,35.41v-.77c.68,0,2-.1,2-1V27.31c0-1.53-.3-2.82-2.29-2.82-2.29,0-3.11,1.79-3.11,3.59v5.59c0,.8,1.37.95,2,.95l0,.76c-2.37-.1-5-.07-7.33,0v-.77c.71,0,2.15,0,2.15-1V25.26c0-.89-1.44-.94-2.15-1v-.76c1.75,0,3.49,0,5.23-.05v1.75H446a5.49,5.49,0,0,1,4.49-2c3,0,4.09,1.32,4.09,3.92v6.5c0,.87,1.44.95,2.12.95v.79c-2.37-.08-4.9-.1-7.27,0"/><path class="a" d="M462.79,35.63c-2.53,0-3.24-1.19-3.24-3.32V24.39h-2v-.86h2V21l3.13-.27v2.8h2.89v.86h-2.89v8.35c0,.94.25,1.65,1.42,1.65a3.56,3.56,0,0,0,1.66-.71l.57.76a6.9,6.9,0,0,1-3.54,1.19"/><polygon class="d" points="754.27 34.39 754.27 32.42 746.59 32.42 746.59 44.4 754.27 44.4 754.27 42.43 748.67 42.43 748.67 39.17 752.75 39.17 753.47 37.2 748.67 37.2 748.67 34.39 754.27 34.39"/><polygon class="d" points="620.27 34.39 624.26 34.39 624.26 44.4 626.34 44.4 626.34 34.39 630.41 34.39 630.41 32.42 620.27 32.42 620.27 34.39"/><polygon class="d" points="641.07 37.2 634.84 37.2 634.84 32.42 632.76 32.42 632.76 44.4 634.84 44.4 634.84 39.17 641.07 39.17 641.07 44.4 643.16 44.4 643.16 32.42 641.07 32.42 641.07 37.2"/><polygon class="d" points="657.38 44.4 665.54 44.4 665.54 42.43 659.47 42.43 659.47 39.17 664.22 39.17 665.08 37.2 659.47 37.2 659.47 34.39 665.54 34.39 665.54 32.42 657.38 32.42 657.38 44.4"/><path class="d" d="M683.4,32.34a23.84,23.84,0,0,0-3.58.24V44.27h.37c.67,0,2,.18,3.32.18,4.71,0,6.82-3.17,6.82-6.33,0-2.89-2.14-5.82-6.93-5.82m.26,10.23a14.87,14.87,0,0,1-1.78-.06V34.31c.44,0,1.14-.07,1.63-.07,3,0,4.63,1.4,4.63,4a4.09,4.09,0,0,1-3.8,4.35,3.87,3.87,0,0,1-.68,0"/><polygon class="d" points="699.94 40.06 693.19 32.18 692.35 32.18 692.35 44.41 694.44 44.41 694.44 36.5 700.91 44.4 702.01 44.4 702.01 32.43 699.94 32.43 699.94 40.06"/><polygon class="d" points="704.73 44.4 712.6 44.4 712.6 42.43 706.82 42.43 706.82 39.17 711.12 39.17 711.97 37.2 706.82 37.2 706.82 34.39 712.6 34.39 712.6 32.42 704.73 32.42 704.73 44.4"/><polygon class="d" points="714.94 44.4 722.8 44.4 722.8 42.43 717.03 42.43 717.03 39.17 721.32 39.17 722.18 37.2 717.03 37.2 717.03 34.39 722.8 34.39 722.8 32.42 714.94 32.42 714.94 44.4"/><path class="d" d="M728.48,32.34a21.52,21.52,0,0,0-3.4.24V44.27a25.6,25.6,0,0,0,3.5.22c4.72,0,6.83-3.17,6.83-6.33,0-2.89-2.14-5.82-6.93-5.82m.26,10.23a13.82,13.82,0,0,1-1.58-.06v-8.2c.38,0,.92-.07,1.42-.07,3,0,4.64,1.4,4.64,4a4.09,4.09,0,0,1-3.8,4.35,3.87,3.87,0,0,1-.68,0"/><polygon class="d" points="739.47 32.42 737.38 32.42 737.38 44.4 744.43 44.4 745.13 42.43 739.47 42.43 739.47 32.42"/><polygon class="d" points="673.07 32.22 672.32 32.22 667.01 44.4 669.23 44.4 672.67 35.94 676.31 44.4 678.57 44.4 673.07 32.22"/><path class="d" d="M654.73,35.93c0-2.26-1.76-3.63-4.81-3.57a41.86,41.86,0,0,0-4.19.24V44.42h2.09V34.37c.47,0,1.77-.06,2.28-.06,1.65,0,2.45.55,2.45,1.67,0,1.32-1,2.05-2.8,2.05h-.86l4.22,6.39h2.47l-3.47-5a3.81,3.81,0,0,0,2.64-3.51"/><path class="d" d="M637.09,16.65a6.17,6.17,0,0,0-6.15,6.2V23a6.12,6.12,0,1,0,12.22.57V23a6.13,6.13,0,0,0-5.93-6.32h-.14m0,10.68a4,4,0,0,1-4-3.94c0-.14,0-.28,0-.42a4,4,0,0,1,3.55-4.33,2.82,2.82,0,0,1,.41,0,4.06,4.06,0,0,1,4,4.13,1.7,1.7,0,0,0,0,.22,4.07,4.07,0,0,1-3.77,4.35h-.2"/><polygon class="d" points="647.16 16.83 645.08 16.83 645.08 29.09 652.34 29.09 653.19 27.14 647.16 27.14 647.16 16.83"/><path class="d" d="M623.33,19.73a4.44,4.44,0,0,1,5.64-.2l.13.1,1-1.86L630,17.7a6.53,6.53,0,0,0-2.33-.92,7.12,7.12,0,0,0-2.76,0,6.57,6.57,0,0,0-4.26,2.76,6.18,6.18,0,0,0,.06,7,6.62,6.62,0,0,0,5.47,2.82,7,7,0,0,0,3.75-1l.12-.08-1-1.8-.14.1a4.42,4.42,0,0,1-5.47-.13,4.25,4.25,0,0,1-.73-6,4.62,4.62,0,0,1,.61-.64"/><rect class="d" x="693.32" y="16.83" width="2.07" height="12.26"/><polygon class="d" points="703.16 16.64 702.4 16.64 696.91 29.09 699.13 29.09 702.76 20.62 706.36 29 706.39 29.09 708.65 29.09 703.16 16.64"/><path class="d" d="M661.87,24.55c0,1.81-.86,2.74-2.56,2.78h-.62c-1.72,0-2.55-.93-2.55-2.77V16.83h-2.07v7.74a4.57,4.57,0,0,0,4.36,4.77H659a4.64,4.64,0,0,0,5-4.28c0-.14,0-.28,0-.42v-7.8h-2.09Z"/><path class="d" d="M689.7,22.72A2.88,2.88,0,0,0,691,20.08c0-1.66-1.32-3.35-4.4-3.35s-5.08.22-5.1.22h-.13v12h.13s2.82.21,5.29.21c3,0,4.57-1.82,4.57-3.62a3,3,0,0,0-1.68-2.79m-2.76,4.55h-3.43V23.83h3.11c1.77,0,2.58.9,2.58,1.72,0,1.12-.87,1.82-2.26,1.82m-.34-5.28h-3.09V18.76h3.26c1,0,2.14.28,2.14,1.63,0,1-.85,1.65-2.31,1.65"/><polygon class="d" points="672.7 26.21 667.23 16.83 666.18 16.83 666.19 29.09 668.3 29.09 668.3 23.11 672.25 29.09 673.18 29.09 677.06 22.74 677.09 29.09 679.19 29.09 679.21 16.83 678.16 16.83 672.7 26.21"/><rect class="e" x="621.2" y="50.59" width="0.82" height="5.9"/><polygon class="e" points="629.01 56.49 628.36 56.49 628.34 56.47 624.78 51.95 624.78 56.49 623.99 56.49 623.99 50.59 624.72 50.59 628.21 55.03 628.21 50.59 629.01 50.59 629.01 56.49"/><polygon class="e" points="633.5 56.53 632.81 56.53 632.79 56.48 630.28 50.59 631.18 50.59 633.17 55.4 635.15 50.59 636.04 50.59 633.5 56.53"/><polygon class="e" points="641.66 56.49 637.3 56.49 637.3 50.59 641.61 50.59 641.61 51.34 638.12 51.34 638.12 53.14 641.25 53.14 641.25 53.89 638.12 53.89 638.12 55.74 641.66 55.74 641.66 56.49"/><path class="e" d="M645.48,56.57a3.39,3.39,0,0,1-2.4-.93h0l.5-.61h0a2.64,2.64,0,0,0,1.91.78c.7,0,1.19-.36,1.19-.89h0c0-.59-.47-.8-1.42-1-1.19-.26-2-.66-2-1.74h0a1.76,1.76,0,0,1,1.79-1.73h.2a3,3,0,0,1,2.06.71h.06l-.47.65h-.07a2.39,2.39,0,0,0-1.61-.59c-.66,0-1.14.34-1.14.83h0c0,.46.24.75,1.5,1s1.94.8,1.94,1.7h0a1.83,1.83,0,0,1-1.93,1.72h-.12"/><polygon class="e" points="651.26 56.49 650.45 56.49 650.45 51.36 648.52 51.36 648.52 50.59 653.19 50.59 653.19 51.36 651.26 51.36 651.26 56.49"/><polygon class="e" points="660.47 56.49 659.66 56.49 659.66 52.04 657.7 54.92 657.58 54.92 655.62 52.04 655.62 56.49 654.82 56.49 654.82 50.59 655.61 50.59 657.64 53.66 659.69 50.59 660.47 50.59 660.47 56.49"/><polygon class="e" points="666.64 56.49 662.28 56.49 662.28 50.59 666.6 50.59 666.6 51.34 663.1 51.34 663.1 53.14 666.23 53.14 666.23 53.89 663.1 53.89 663.1 55.74 666.64 55.74 666.64 56.49"/><polygon class="e" points="673.22 56.49 672.57 56.49 672.54 56.47 668.99 51.95 668.99 56.49 668.2 56.49 668.2 50.59 668.92 50.59 672.41 55.03 672.41 50.59 673.22 50.59 673.22 56.49"/><polygon class="e" points="677.36 56.49 676.54 56.49 676.54 51.36 674.62 51.36 674.62 50.59 679.29 50.59 679.29 51.36 677.36 51.36 677.36 56.49"/><path class="e" d="M682.58,56.57a3.36,3.36,0,0,1-2.39-.93h0l.52-.61h.06a2.61,2.61,0,0,0,1.9.78c.7,0,1.21-.36,1.21-.89h0c0-.59-.49-.8-1.43-1-1.2-.26-2-.66-2-1.74h0a1.77,1.77,0,0,1,1.82-1.72h.09a3.12,3.12,0,0,1,2.07.71h0l-.49.65h-.06a2.44,2.44,0,0,0-1.6-.59c-.68,0-1.14.34-1.14.83h0c0,.46.23.75,1.49,1s1.93.8,1.93,1.7h0a1.83,1.83,0,0,1-1.92,1.72h-.13"/><polygon class="f" points="605.87 35.83 600.63 41.08 602.81 49.34 608.05 44.08 605.87 35.83"/><polygon class="g" points="616.45 35.65 611.54 16.83 597.84 30.57 599.61 37.25 607.68 29.17 610.88 41.25 616.45 35.65"/><polygon class="h" points="587.38 27.82 592.64 22.49 584.21 20.27 579.02 25.62 587.38 27.82"/><polygon class="d" points="600.63 41.08 590.15 38.34 587.38 27.82 579.03 25.63 583.99 44.4 583.99 44.4 602.81 49.34 600.63 41.08"/><polygon class="i" points="591.2 28.82 592.97 35.51 599.61 37.25 597.84 30.57 591.2 28.82"/><polygon class="j" points="611.54 16.83 592.73 11.89 587.14 17.48 599.31 20.68 591.2 28.82 597.84 30.57 611.54 16.83"/><line class="k" x1="563.24" y1="9.82" x2="563.24" y2="51.79"/><path class="d" d="M545.78,27a2.35,2.35,0,0,0-.41,1.52v.17h-1.06v.74h1.06v5.28h.92V29.46h1.32v-.74h-1.32v-.26a2,2,0,0,1,.09-.7.78.78,0,0,1,.31-.4,1.3,1.3,0,0,1,.62-.12,4.3,4.3,0,0,1,.72.09v-.74A7.6,7.6,0,0,0,547,26.5a1.32,1.32,0,0,0-1.18.53m-5.88,2.9a1.39,1.39,0,0,1,1.2-.6,1.43,1.43,0,0,1,1.24.62,3,3,0,0,1,.44,1.73,3.07,3.07,0,0,1-.44,1.75,1.52,1.52,0,0,1-2.12.34,1.33,1.33,0,0,1-.33-.34,3,3,0,0,1-.44-1.77,3,3,0,0,1,.45-1.74m-.71-.5a3.23,3.23,0,0,0-.76,2.24,3.48,3.48,0,0,0,.72,2.29,2.29,2.29,0,0,0,1.87.87,2.64,2.64,0,0,0,1.45-.39,2.77,2.77,0,0,0,1-1.13,3.78,3.78,0,0,0,.35-1.62,3.69,3.69,0,0,0-.33-1.61,2.67,2.67,0,0,0-.94-1.11,2.38,2.38,0,0,0-1.32-.4,2.59,2.59,0,0,0-2,.86m-6.6-2.34-.91.09v1.5h-1.07v.72h1.07v3.53a2.18,2.18,0,0,0,.4,1.44,1.64,1.64,0,0,0,1.32.46l.91-.06V34h-.73a.9.9,0,0,1-.71-.26,1.13,1.13,0,0,1-.23-.77V29.41H534v-.73h-1.32Zm-4.57,3h0v-1.4h-.82v6h.91V31.61a2.28,2.28,0,0,1,.52-1.52,1.64,1.64,0,0,1,1.32-.62h.13v-.88h-.36c-.79,0-1.38.53-1.74,1.57m-5.82,1.89a3.44,3.44,0,0,1,1.73-.36h.87v.4a2.3,2.3,0,0,1-.25,1,1.84,1.84,0,0,1-.69.72,1.66,1.66,0,0,1-1,.28,1.47,1.47,0,0,1-.95-.29.92.92,0,0,1-.36-.77,1.11,1.11,0,0,1,.61-1m-.64-3a1.67,1.67,0,0,0-.79,1.2l.86.15c.13-.72.69-1.07,1.64-1.07a1.63,1.63,0,0,1,1.16.34,1.41,1.41,0,0,1,.37,1.07V31h-.89a9.48,9.48,0,0,0-1.5.12,2.7,2.7,0,0,0-1,.37,2.09,2.09,0,0,0-.64.65,1.71,1.71,0,0,0-.23.89,1.64,1.64,0,0,0,.58,1.32,2.25,2.25,0,0,0,1.52.48,2.14,2.14,0,0,0,2.1-1.24l.1,1.13h.91a4.69,4.69,0,0,1-.13-1.18V31a3,3,0,0,0-.26-1.49,1.61,1.61,0,0,0-.76-.7,3.31,3.31,0,0,0-1.32-.22,3.4,3.4,0,0,0-1.79.44m-6.18,1.64V27.48h1.86a1.45,1.45,0,0,1,1.57,1.32,1,1,0,0,1,0,.25,1.45,1.45,0,0,1-.44,1.11,1.57,1.57,0,0,1-1.16.44Zm-1-4v8.09h1V31.43h1.94a2.88,2.88,0,0,0,1.32-.31,2.17,2.17,0,0,0,.89-.86,2.3,2.3,0,0,0,.31-1.21,2.36,2.36,0,0,0-.33-1.32,2.19,2.19,0,0,0-.89-.87,3.22,3.22,0,0,0-1.33-.29Z"/></svg>