<svg xmlns="http://www.w3.org/2000/svg" viewBox="0 0 631.94 111.91"><defs><style>.a{fill:#454f56;}</style></defs><path class="a" d="M541.9,324.63c-6.69-.25-8.36-1.42-8.36-3.35,0-2.09,2.84-3.26,7.44-3.26,4.1,0,7.69.84,10.62,3l1.58-2.34c-3.17-2.34-7-3.43-11.95-3.43-6.85,0-11.54,2.34-11.54,6.36,0,3.68,3.52,5.69,11.87,6,6.86.34,8.7,1.51,8.7,3.43,0,2.43-3.43,3.85-8.7,3.85-4.26,0-7.93-1-10.69-3.43l-1.68,2.26c3.27,2.67,7.19,3.93,12.21,3.93,7.1,0,12.62-2.51,12.62-6.94C554,327.14,550.76,325.05,541.9,324.63Zm-42.55,2v-7.95h13c2.93,0,4.6,1.59,4.6,4.1,0,2.26-1.76,3.85-4.77,3.85Zm21.23-3.93c0-3.52-2.67-6.78-8.19-6.78H495.93v21.16h3.42v-7.77h8.53l9.11,7.77h5.1l-9.78-7.94C518.16,329,520.58,326.22,520.58,322.71Zm-47,12c-6.36,0-9.95-3.76-9.95-8.36s3.59-8.2,9.95-8.2,9.94,3.6,9.94,8.2S480,334.75,473.61,334.75Zm0-19.49c-8.44,0-13.71,4.85-13.71,11.13s5.27,11.29,13.71,11.29,13.71-5,13.71-11.29S482,315.26,473.61,315.26Zm-44.56,3.68h10.7v18.15h3.52V318.94H454v-3H429.05Zm-18.38,5.69c-6.69-.25-8.36-1.42-8.36-3.35,0-2.09,2.92-3.26,7.44-3.26,4.09,0,7.69.84,10.61,3l1.67-2.34c-3.26-2.34-7.1-3.43-12-3.43-6.86,0-11.46,2.34-11.46,6.36,0,3.68,3.43,5.69,11.79,6,6.94.34,8.69,1.51,8.69,3.43,0,2.43-3.42,3.85-8.61,3.85-4.34,0-7.94-1-10.7-3.43L398,333.75c3.18,2.67,7.11,3.93,12.12,3.93,7.19,0,12.62-2.51,12.62-6.94C422.78,327.14,419.61,325.05,410.67,324.63ZM368,337.09h22.82v-2.67H371.46v-7.28h11.79v-2.51H371.46v-5.94h19.31v-2.76H368Zm-19.73-2.93-9.86-18.23h-4.1l11.79,21.25h4.26l11.87-21.25h-4ZM325,332.66l-17.31-16.73h-4.34v21.16h3.42V319.7l17.81,17.39h3.93V315.93H325Zm-34.94,4.43h3.51V315.93h-3.51Z" transform="translate(-106.06 -225.77)"/><rect class="a" x="457.74" y="98.86" width="174.12" height="2.51"/><rect class="a" y="98.86" width="174.2" height="2.51"/><path class="a" d="M412.42,268.84c1.25-6.77,5.77-12,12.79-12,6.6,0,9.61,3.93,10.61,11.29Zm31.6,2.34c0-11.87-5.35-21.66-18.31-21.66-13.54,0-22.23,10.88-22.23,24.67,0,11.88,6.93,22.34,21.64,22.34a28.56,28.56,0,0,0,16.39-5.27l-3-5.94-.17-.42A22.14,22.14,0,0,1,426,288.75c-8.44,0-13-4.43-13.71-13.3l26-.84,5.52-.16A25.46,25.46,0,0,0,444,271.18Zm44.21-5.77c0-10-4.51-15.89-14-15.89-5.35,0-11.87,3.43-15.46,9.37l-.67-8.45c-2.84.25-5.27.42-8.61.42.42,4.1.58,10.71.58,16.23v11.46c0,5.51-.16,12.12-.58,16.22h9.78a84.85,84.85,0,0,1-.42-9.78V269.18c0-5.69,6.77-11.88,13-11.88,5.85,0,7.61,4.27,7.61,9.79v11.46c0,5.51-.17,12.12-.59,16.22h9.78c-.16-2.51-.42-6.44-.42-9.78ZM551,268.84c1.26-6.77,5.68-12,12.79-12,6.52,0,9.61,3.93,10.53,11.29Zm13.29-19.32c-13.62,0-22.23,10.88-22.23,24.67,0,11.88,6.94,22.34,21.65,22.34a28.55,28.55,0,0,0,16.38-5.27h0l-3-5.94-.17-.42a22.14,22.14,0,0,1-12.37,3.85c-8.52,0-13-4.43-13.71-13.3l26-.84h0l5.52-.16a22.62,22.62,0,0,0,.16-3.27C582.52,259.31,577.26,249.52,564.3,249.52Zm-37.2,32.71a12.41,12.41,0,0,1-11.11,6.6c-6.94,0-13-5-13-15.22,0-8.95,5.18-16.39,14.21-16.39a13.29,13.29,0,0,1,9.94,4Zm8.78-46a101.1,101.1,0,0,1,.42-10.45,84.53,84.53,0,0,1-9.87,1.25,146.19,146.19,0,0,1,.59,15.73l.08,9.95a17.21,17.21,0,0,0-10.19-3.18c-13,0-22.74,11.13-22.74,25.09,0,12.21,7.77,21.92,20.15,21.92A17.57,17.57,0,0,0,527.77,290l.67,4.77h8.11a151.67,151.67,0,0,1-.67-15.81Zm192.26,58.55H738c-.25-2.51-.42-6.44-.42-9.78V265.41c0-10-4.59-15.89-14.13-15.89-5.34,0-11.78,3.43-15.46,9.37l-.67-8.45c-2.84.25-5.18.42-8.52.42.33,4.1.58,10.71.58,16.23v11.46c0,5.51-.25,12.12-.58,16.22h9.69c-.25-2.51-.41-6.44-.41-9.78V269.18c0-5.69,6.77-11.88,13.12-11.88,5.77,0,7.61,4.27,7.61,9.79v11.46A157,157,0,0,1,728.14,294.77ZM623.82,262.65c0-4,3.59-5.35,7.44-5.35A18.9,18.9,0,0,1,642,260.81L645,253.2a27.31,27.31,0,0,0-13.71-3.68c-9.36,0-16,6-16,13.47,0,14.22,22.49,11.62,22.49,20.32,0,3.51-3.6,5.44-8.45,5.44a25.47,25.47,0,0,1-12.37-3.6L614,292.6c3.59,2.34,10.36,3.93,15.13,3.93,9.28,0,17.22-5.61,17.22-14.64C646.39,268.17,623.82,269.68,623.82,262.65Zm47.56,26.1c-7.86,0-13-5.44-13-16,0-8.61,5.27-15.47,13.29-15.47,7.28,0,13,5.6,13,15.81C684.75,281.81,679.74,288.75,671.38,288.75Zm.75-39.23c-13.54,0-22.4,10.88-22.4,24.67,0,11.88,8.19,22.34,21.15,22.34,13.62,0,22.48-10.88,22.48-24.67C693.36,260,685.17,249.52,672.13,249.52Zm-74.73,9.37-1-8.7a41.48,41.48,0,0,1-8.61,1.26,80.79,80.79,0,0,1,.92,13.71v13.39a156,156,0,0,1-.59,16.22h9.78a87.36,87.36,0,0,1-.41-9.78V268.51c0-6.61,7.94-10,14.21-8.87l1.17-10.12C605.68,250.44,601,253,597.4,258.89ZM236,265.41c0-10-4.6-15.89-14.12-15.89-5.35,0-11.79,3.52-15.47,9.37l-.58-8.45c-2.93.25-5.27.42-8.61.42.33,4.1.58,10.71.58,16.23v11.46c0,5.51-.25,12.12-.58,16.22h9.69c-.25-2.51-.33-6.52-.33-9.78V269.18c0-5.69,6.77-11.88,13-11.88,5.77,0,7.61,4.27,7.61,9.79v11.46a157,157,0,0,1-.67,16.22h9.86c-.25-2.51-.42-6.52-.42-9.78Zm45.22-4.76c0-3.35.17-7.78.42-10.21-2.84.25-6.43.42-9.86.42.42,4.1.67,10.71.67,16.23v11.12c0,5.69-7.19,10.54-11.79,10.54-6.6,0-8.94-3.93-8.94-11V260.65a91.86,91.86,0,0,1,.42-10.21c-2.93.25-6.36.42-9.79.42.42,4.1.59,10.71.59,16.23v12.29c0,11.71,5.43,17.15,15.46,17.15,4,0,10.7-2.68,14.3-8.62l1.08,6.86h8.11a151.67,151.67,0,0,1-.67-15.81ZM180.13,278.46c-.34,6.11-4.77,10.62-10.87,10.62-5.27,0-7.27-2.76-7.27-6.44,0-4.77,3.76-8.7,14.37-8.7,1.34,0,2.6.17,3.93.25Zm8.35,6.94.59-18.9c.25-10-5-17-16.39-17a30.64,30.64,0,0,0-15.54,4.35l2,7.61a21.61,21.61,0,0,1,12.12-4.18c6.69,0,9.45,3.26,9.2,9.79l-.08,1.42c-1.26-.09-2.43-.17-3.68-.17-15.3,0-23.16,5.94-23.16,14.81,0,7.77,5.44,13,13.8,13A15.7,15.7,0,0,0,181,288.5c.51,4.93,3.85,7.44,7.44,7.44a14.64,14.64,0,0,0,5.77-1.34l.84-6.1a14.09,14.09,0,0,1-3.85.75C189.15,289.25,188.4,288.08,188.48,285.4Zm-49.73-34.71v18.15h0V276c0,7.52-4.18,12-11.79,12-6,0-10.11-2.43-11.62-8.36l-9.28,3c2.18,8.7,9.62,13.8,19.73,13.8,7.11,0,12.54-2.18,16.47-6.11,3.93-3.76,5.85-8.36,5.85-16.81V241.32c0-3.67.08-11.29.25-14a98.83,98.83,0,0,1-10.28.41C138.58,232.29,138.75,244.59,138.75,250.69Zm157.73,12c0-4,3.59-5.35,7.44-5.35a18.47,18.47,0,0,1,10.78,3.51l2.93-7.61a27,27,0,0,0-13.71-3.68c-9.36,0-15.88,6-15.88,13.47,0,14.22,22.48,11.62,22.48,20.32,0,3.51-3.67,5.44-8.52,5.44a25.41,25.41,0,0,1-12.37-3.6l-2.84,7.45c3.51,2.34,10.28,3.93,15,3.93,9.36,0,17.22-5.61,17.22-14.64C319.05,268.17,296.48,269.68,296.48,262.65Zm101.14-35.37a99.77,99.77,0,0,1-10.28.41c.42,4.6.59,16.9.59,23V256H352.82V241.32c0-3.67.08-11.29.25-14a98.83,98.83,0,0,1-10.28.41c.5,4.6.67,16.9.67,23v21.08c0,6.19-.17,18.4-.67,23h10.28c-.17-2.67-.25-10.12-.25-13.72V263.74h35.11v8c0,6.19-.17,18.4-.59,23h10.28c-.25-2.67-.33-10.12-.33-13.72V241.32C397.29,237.65,397.37,230,397.62,227.28Z" transform="translate(-106.06 -225.77)"/></svg>