<svg xmlns="http://www.w3.org/2000/svg" viewBox="0 0 730.03 263.16"><defs><style>.a{fill:#0a5b61;}.b{fill:#80be61;}</style></defs><polygon class="a" points="275.93 48.93 317.88 168.74 346.82 168.74 388.97 48.87 388.97 168.74 416.98 168.74 416.98 3.5 379.99 3.5 332.42 133.02 284.71 3.5 247.86 3.5 247.86 168.74 275.93 168.74 275.93 48.93"/><path class="a" d="M580.88,168.94l-23.26-25.86A98.2,98.2,0,0,0,574.91,106l-24.46-6.16a79.26,79.26,0,0,1-9.71,23.65l-33.5-37.65c20.1-11.4,34-25.07,34-44.9,0-22.51-17.29-39.8-45.3-39.8s-45.9,17.29-45.9,40.2a59.21,59.21,0,0,0,17.29,38.33c-16,9.85-30,23.65-30,45.43,0,30.22,25.06,46.91,57.69,46.91a80.48,80.48,0,0,0,45.57-12.87l9.58,10.25h31.22ZM495.51,24.41a16.21,16.21,0,0,1,18.23,13.8v.67h0a6.31,6.31,0,0,1,0,2.21c0,10.66-6.7,17.83-23.39,25.87A36.37,36.37,0,0,1,477,42.63a17.3,17.3,0,0,1,15.61-18.09h0a14.58,14.58,0,0,1,2.95-.13Zm1,123.42c-17.23,0-31.7-7.17-31.7-23.45,0-11.26,6.7-18.63,19.37-26.47l39.19,42a49.16,49.16,0,0,1-26.8,8.24Z"/><path class="a" d="M663.76,79.35v23.12h42.08V106c0,26.8-18,40.2-41.81,40.2-30.22,0-50.59-22.84-50.59-60.3s21.17-60.31,50.72-60.31a45.25,45.25,0,0,1,41.28,21.91l21.91-14.87A74.62,74.62,0,0,0,664,0C616.39,0,585,33.52,585,86.39s30.62,86.37,76.59,86.37a50.06,50.06,0,0,0,44.29-20.91v17.29H730V79.35Z"/><rect class="a" x="247.86" y="202.24" width="7.44" height="58.9"/><path class="a" d="M289.94,217.32a15.81,15.81,0,0,0-14.08,6.7v-5.83h-6.7v42.62h6.7V235.34a12.14,12.14,0,0,1,12.33-12.06h0a8.71,8.71,0,0,1,8.65,8.31,7.22,7.22,0,0,1,0,1.61v27.74h6.7V231.59a13.4,13.4,0,0,0-12.13-14.54h0Z"/><polygon class="a" points="330.74 252.76 318.41 218.46 310.57 218.46 327.12 261.07 334.49 261.07 350.98 218.46 343.27 218.46 330.74 252.76"/><path class="a" d="M374.09,217.32a20.1,20.1,0,0,0-20.1,20.1,18.94,18.94,0,0,0,0,2.61,20.11,20.11,0,0,0,17.76,22.18h3.15a20.12,20.12,0,0,0,17.29-8.64l-5.63-3.75a13.75,13.75,0,0,1-19.3,2.94,13.37,13.37,0,0,1-5.76-10.65h32.56V240.3a20.1,20.1,0,0,0-17-22.78h0a17.08,17.08,0,0,0-3-.2ZM361.5,236.15a12.67,12.67,0,0,1,12.39-12.67A13,13,0,0,1,386.36,236Z"/><path class="a" d="M419.46,236.41c-5.9-1-10.45-2.34-10.45-6.7S413,224,417.65,224a12.26,12.26,0,0,1,11.12,5.5l5.23-3.89a18.59,18.59,0,0,0-16.35-7.91c-9.38,0-16.15,4.36-16.15,12.4s7.57,11.73,15.28,13.07c6,1,11.05,1.94,11.05,6.7s-3.82,6.7-9.58,6.7a14.55,14.55,0,0,1-13.4-6.7l-5.56,3.82a20.7,20.7,0,0,0,19.16,9.44c10.46,0,16.82-5.29,16.82-13.4C435.2,239.43,427.3,237.62,419.46,236.41Z"/><path class="a" d="M458.86,255.91c-3.75,0-5.23-1.34-5.23-6V224h11v-5.83H453.9V206.73h-6.7v11.46H441v6.1h6.23v26.8c0,8,4.22,10.72,11.19,10.72a25.63,25.63,0,0,0,7.1-1.34L464,254.64A13.26,13.26,0,0,1,458.86,255.91Z"/><path class="a" d="M519.36,217.32A15,15,0,0,0,506,225a12.73,12.73,0,0,0-12.53-7.64,13.4,13.4,0,0,0-12.06,6.7v-5.29h-6.7v43h6.7V235.81A11.46,11.46,0,0,1,492.16,224c5.16,0,7.91,3.35,7.91,9.58v27.88h7.1V235.54a11.52,11.52,0,0,1,11-11.52c5.16,0,7.84,3.35,7.84,9.58v27.54h7.1V231.59a13,13,0,0,0-11.66-14.14h-2.21Z"/><path class="a" d="M562.52,217.32a20.1,20.1,0,0,0-20.11,20.1,13.59,13.59,0,0,0,0,2.21,20.11,20.11,0,0,0,17.76,22.18h3.35a20.12,20.12,0,0,0,17.29-8.64l-5.7-3.76a13.8,13.8,0,0,1-26-7.7h33.51V240.3a20.1,20.1,0,0,0-17-22.78h0Zm-12.4,18.83a12.46,12.46,0,0,1,24.66-3.55h0a6.67,6.67,0,0,1,0,1.67,3.09,3.09,0,0,1,0,1.54Z"/><path class="a" d="M613.37,217.32A16.08,16.08,0,0,0,600,224v-5.83H592.8v42.68h6.7V235.54a12.21,12.21,0,0,1,12.27-12.06h0a8.59,8.59,0,0,1,8.91,8.11v29.35h6.7V231.59a13.4,13.4,0,0,0-12.2-14.54h0Z"/><path class="a" d="M653.58,255.91c-3.69,0-5.16-1.34-5.16-6V224h10.45v-5.83H648.42V206.73h-7.1v11.46h-6.24v6.1h6.24v26.8c0,8,4.35,10.72,11.19,10.72a24.45,24.45,0,0,0,7.23-1.34l-1.2-5.7a16.06,16.06,0,0,1-5,1.14Z"/><path class="a" d="M685.2,236.41c-5.89-1-10.72-2.34-10.72-6.7s4-5.76,9.18-5.76a12.18,12.18,0,0,1,10.79,5.5l5.16-3.89a18.5,18.5,0,0,0-16.48-8.11c-9.32,0-16.15,4.36-16.15,12.4s7.57,11.72,15.28,13.06c6,1,11,2,11,6.71s-3.75,6.7-9.51,6.7a14.44,14.44,0,0,1-12.94-6.7l-5.56,3.81A20.13,20.13,0,0,0,684.13,263c10.46,0,17.29-5.16,17.29-13.4C700.82,239.43,692.64,237.62,685.2,236.41Z"/><path class="b" d="M137.23,31.58V140.73H28.14V31.58H137.23M165.3,3.77H0v165H165.3Z"/></svg>