<svg xmlns="http://www.w3.org/2000/svg" viewBox="0 0 721.98 158.84"><defs><style>.a{fill:#1d2343;}</style></defs><path class="a" d="M167.94,58.9s-.59,7.07-.59,20.34.59,20.34.59,20.34a16.22,16.22,0,0,0-7.16,0s.59-7.07.59-20.34-.59-20.34-.59-20.34a15.83,15.83,0,0,0,7.16,0M93.11,95.2A140.37,140.37,0,0,1,78,95.91s-.59-7.8-.36-16.08a73.81,73.81,0,0,1,13.77.54,8,8,0,0,1,0-4.38,100.06,100.06,0,0,1-13.75.47A116.06,116.06,0,0,1,78,62.57s8.55.09,14.66.86a8,8,0,0,1,0-4.38c-7.73.73-21.62-.15-21.62-.15s.59,7.07.59,20.34-.59,20.34-.59,20.34,14.32-.73,22.06,0a8,8,0,0,1,0-4.38m-43-15.89c7.73,10.56,14.79,19.21,14.79,19.21v1.06a20.05,20.05,0,0,0-8,0A170.92,170.92,0,0,0,42.74,80.12H41.67c0,12.7.59,19.46.59,19.46a16.22,16.22,0,0,0-7.16,0s.59-7.07.59-20.34S35.1,58.9,35.1,58.9a70.31,70.31,0,0,0,9.28.27c2.49,0,4.42,0,6.87.12,1.11.07,10,.21,10,9.47S51.49,79,50.1,79.31m4.69-10.22c-.17-9.28-13.15-6.84-13.15-6.84s-.26,7.25,0,15.39c0,0,13.38,1.79,13.2-8.55M27.39,88c0,9.38-10.12,11.12-11.24,11.18-2.44.15-4.38.16-6.86.13A70.48,70.48,0,0,0,0,99.58s.59-7.07.59-20.34S0,58.9,0,58.9a70.48,70.48,0,0,0,9.29.27c2.48,0,4.42,0,6.86.12,1.12.07,9.53.48,9.53,9.47,0,5.83-6.29,8.07-9.11,8.8C19,77.85,27.39,79,27.39,88M6.57,76.52s12.48,1.91,12.62-7.43C19.33,60,6.62,62.25,6.62,62.25s-.25,6.13,0,14.27m0,3.07c-.2,8.14,0,16.63,0,16.63s13.22,2.27,13.84-7.43c.74-11.63-13.89-9.2-13.89-9.2m146-20.28a11.18,11.18,0,0,0,2.86-.41C145.14,84.62,141,99.58,141,99.58a9,9,0,0,0-5.32,0c-.61-5.09-10.07-31.4-10.07-31.4s-6.81,18.88-10.52,31.4a9.08,9.08,0,0,0-5.33,0c-7.49-27.68-13-40.68-13-40.68a18.09,18.09,0,0,0,7.66,0s2.6,11.51,9.49,32.51c0,0,7.57-20.6,10.41-32.51a7.8,7.8,0,0,0,5,0s2.36,9.15,10.47,32.48c0,0,8.17-22.35,9.9-32.48a11.21,11.21,0,0,0,2.87.41M112.19,95l-.1-.16L112,95l.19,0m97.46-35.67A9.81,9.81,0,0,1,207,58.9a273.9,273.9,0,0,1,1,29.89c-18.75-18.93-28-29.89-28-29.89a3.95,3.95,0,0,1-2.71,0s.63,29.59-.65,40.68a10,10,0,0,1,2.67-.4,9.91,9.91,0,0,1,2.66.4c-1.07-16-1-29.63-1-29.63,5.44,6.29,19.25,18.84,28.11,29.63a3.77,3.77,0,0,1,2.7,0S211,70,212.31,58.9a9.69,9.69,0,0,1-2.66.41m230.28,0a17.27,17.27,0,0,1-3.59-.41s.6,7.07.6,20.34-.6,20.34-.6,20.34a16.27,16.27,0,0,1,7.17,0s-.59-7.07-.59-20.34.59-20.34.59-20.34a17.23,17.23,0,0,1-3.58.41m-53.83,10c0,14.76-19.61,12.43-19.61,12.43,0,12.35.59,17.88.59,17.88a16.22,16.22,0,0,0-7.16,0s.59-7.07.59-20.34-.59-20.34-.59-20.34a70.48,70.48,0,0,0,9.29.27c2.48,0,4.41,0,6.86.12,1.12.07,10,.72,10,10m-6.49.32c0-9.27-13.15-7.34-13.15-7.34s-.26,8.32,0,16.46c0,0,13.2,2.26,13.2-9.12M423.8,59.26a17.64,17.64,0,0,1-3.58-.4s.49,5.87.58,16.94c-1.9.11-5.6.27-11,.27s-9-.16-10.95-.27c.09-11,.58-16.9.58-16.9a15.88,15.88,0,0,1-7.17,0s.59,7.07.59,20.34-.59,20.34-.59,20.34a16.27,16.27,0,0,1,7.17,0s-.57-6.81-.59-19.6c1.89-.1,5.59-.26,11-.26s9.08.16,11,.26c0,12.76-.59,19.56-.59,19.56a15.83,15.83,0,0,1,7.16,0s-.59-7.08-.59-20.34.59-20.34.59-20.34a17.51,17.51,0,0,1-3.58.4m-150.16,20C273.06,99,255,99.58,250.05,99.41c-4.08-.15-11.94-.07-14.07.17,0,0,.59-7.07.59-20.34S236,58.9,236,58.9c2.13.24,10,.17,14.07.17,3.77,0,23.59-1.71,23.59,20.17m-6.89,0c0-13.2-7.43-16.32-14.37-17a61.4,61.4,0,0,0-9.86,0s-.13,10-.13,17,.13,17,.13,17a60.77,60.77,0,0,0,9.86,0c6.94-.67,14.37-4.82,14.37-17m57.75-.69c0,13.07-9.08,21.84-22.59,21.84-13.17,0-22-8.27-22-20.57,0-13.18,8.66-21.37,22.6-21.37,13.16,0,22,8.07,22,20.1m-7.08.93c0-6.16-1.42-10.65-4.33-13.74a15.38,15.38,0,0,0-10.95-4.32C291,61.42,287,71.15,287,79.48c0,10.73,6,17.94,15,17.94,9.35,0,15.39-7,15.39-17.94m139-9.53c5.44,6.29,19.25,18.84,28.11,29.63a3,3,0,0,1,1.35-.25,3,3,0,0,1,1.35.25s-.62-29.59.65-40.68a8.83,8.83,0,0,1-5.32,0,275.31,275.31,0,0,1,.94,29.89c-18.75-18.93-28-29.89-28-29.89a3.95,3.95,0,0,1-2.71,0s.63,29.59-.65,40.68a10,10,0,0,1,2.67-.4,9.91,9.91,0,0,1,2.66.4c-1.07-16-1-29.63-1-29.63M354.08,95.2a148,148,0,0,1-15.73.71c-.17-3.35-.37-9-.37-16.67,0-13.27.59-20.34.59-20.34a15.83,15.83,0,0,1-7.16,0S332,66,332,79.24s-.59,20.34-.59,20.34,15-.73,22.69,0a8,8,0,0,1,0-4.38M614.63,14.71c17.94-5.32,80.89-24.28,94,13.14,11.46,2,12.59,7.33,12.59,7.33,4.26-7.61-10-10.63-10-10.63C707,6.25,686.84-.49,666.68,0c-23.4.6-44.56,10.93-55.29,12.52-13.09,1.94-47.77-16.07-62.83,5l.52-.44c16.71-13.56,47.56,3,65.55-2.38M720.09,37.12l-.22.1c-12.11,4.83-23.78-13.16-50.44,2.39a13.52,13.52,0,0,0-4-6.65c3.69,14.61-6.11,38.84-23.84,42.24,16.51,1.41,29.23-15.76,28.73-29.8,27.57-14.69,40,2.08,49.76-8.28m-77,22.36c-.59,5.58-.64,10.59-3.89,15,12.57-4,5.94-26.78,19.83-35.1-8.89,2.36-13.13,8-14.68,13.15-8.39,4.65-23.25,11.15-51.87,21.8C537.89,94.7,534,128.5,509.7,131.9L509,132c25.26,4.35,46.21-42.16,89.38-56.68,21.94-7.38,36.65-11.88,44.72-15.83M472.59,158.13c18.71-2,32.7-18.76,34.7-30.49l-.36.55c-13,19.36-24.36,24.8-34.34,29.94m26.28-29.84C548.69,112.43,587.92,32.62,624,23l1.41-.34C571,29.23,541,118.1,501,123.38c-23.81,3.15-21.35,23.24-32.5,35.11l-.34.35c12.12-4.76,12.67-24.82,30.68-30.55M570.69,27.83c-4.16-8.67-19-5.18-22.16-7.1l-.19-.13c3.48,6.12,14.43,2.42,16.77,11.16,2.92,10.88-21.52,31.54-38.5,50.9-11.3,12.89-19.93,24.08-24.33,37.53,15.28-21.38,17.05-25.35,37.59-45.85,22.28-22.24,36-35.81,30.82-46.51m114.59-8.62C629.91-2.54,611.39,58.48,590,70.1c22.3-4.71,43.72-58.83,94-51.11l1.32.22M578.11,34.7l.31-.26a118.92,118.92,0,0,1,26.85-16.68l-.33.07c-5.75,1.26-12.32.7-18.59-.78l-.72-.18.52.23.29.14c2.61,1.26,3.74,2.57,3.47,3.93-.49,2.42-8.06,5.51-11.8,13.53"/></svg>