<svg xmlns="http://www.w3.org/2000/svg" viewBox="0 0 503.08 99.77"><defs><style>.a{fill:#0c1842;}.b{fill:#5f98d1;}</style></defs><path class="a" d="M104.13,35.77c1.71,0,3.44.72,3.44,1.92V96.06c0,1.29-1.73,1.92-3.44,1.92v1.31H121V98c-1.71,0-3.43-.67-3.43-1.92V37.69c0-1.28,1.72-1.92,3.43-1.92V34.46h-16.9ZM318.88,64.7c0-4,4.51-6.18,9.25-6.18,7.6,0,12,1.26,13.45,6.43h1.52L343,58.24a37.92,37.92,0,0,0-13.53-2.72c-13,0-18.39,6.75-18.39,12,0,15.1,25.87,11.54,25.87,22.6,0,3.29-2.61,6.66-9.61,6.66-8.66,0-13.1-2.7-15.14-8.44l-1.16.2.52,8A37.8,37.8,0,0,0,326,99.77c14.12,0,20.4-6.57,20.4-12.75,0-14.73-27.52-11.34-27.52-22.32M232.5,57.52c2.68,0,4.5,1.58,3.45,3.69h0L223,86.08,210.17,60.9c-.6-2,1.14-3.38,3.52-3.38V56.19H193.14v1.33c2.58,0,4.35,1,6.22,4.28l20.82,38L241.73,61c1.73-2.92,3.9-3.48,5.56-3.48V56.19H232.5ZM184.57,96.06V76.52h0V67.71c0-8.06-8.65-12.6-17.54-12.6-7.58,0-14.45,4.26-17.06,6.44V55.48h0c0-.78-.38-1-.75-1-5.54,2-8,3-13.52,4.88v1c3,.18,3.87,1.8,4.15,3.9V96.06c0,1.41-1.73,1.92-3.44,1.92v1.31h16.94V98c-1.71,0-3.43-.67-3.43-1.92V65.33H150v-.15a18.61,18.61,0,0,1,12-4.72c10.42,0,12.56,5.53,12.56,10.51l0,25.13c0,1.37-1.73,1.88-3.42,1.88v1.31H188V98c-1.71,0-3.44-.46-3.44-1.92M299.39,74.12c0-13.54-12.21-18.94-22.27-18.94-18.14,0-26.8,12-27,21.95a21.67,21.67,0,0,0,3,11,22.3,22.3,0,0,0,9.35,8.62,30,30,0,0,0,13.64,3,38,38,0,0,0,12.08-1.72,33.11,33.11,0,0,0,10.39-6l-.07-3.38A41.77,41.77,0,0,1,289,93.55a30.37,30.37,0,0,1-9.35,1.32,18.88,18.88,0,0,1-13.23-5c-3.78-3.5-5.29-9.12-5.43-13.19V74.12Zm-23.7-15.65c6.52,0,12.8,3.39,12.8,12.26h-27c1-6.31,5.57-12.26,14.22-12.26M447.81,74.12c0-13.54-12.22-18.94-22.28-18.94-18.13,0-26.8,12-27,21.95a21.67,21.67,0,0,0,3,11,22.3,22.3,0,0,0,9.35,8.62,30,30,0,0,0,13.64,3,38,38,0,0,0,12.08-1.72,33.11,33.11,0,0,0,10.39-6L447,88.62a41.37,41.37,0,0,1-9.55,4.93,30.37,30.37,0,0,1-9.35,1.32,18.84,18.84,0,0,1-13.23-5c-3.79-3.5-5.29-9.12-5.44-13.19V74.12ZM424.1,58.47c6.52,0,12.8,3.39,12.8,12.26h-27c.95-6.31,5.56-12.26,14.21-12.26M384,96c-3.65.13-10.71-.91-10.71-9.4v-26h16.48v-3.8H373.55V48.34H363.28v8.45h-6.63l.06,3.77h6.59V86.34h0v.33c0,8.68,6.94,13.14,16.36,13.1a18.35,18.35,0,0,0,8.83-2.46,21.37,21.37,0,0,0,3.2-2.25l-.21-1.49A19.11,19.11,0,0,1,384,96M484.1,58.43c7.29,0,14,4,16.63,8.86h2.35V59.2a42.1,42.1,0,0,0-18.39-4.3c-20,0-28.09,13.4-28.09,22.53a20.42,20.42,0,0,0,.82,5.68h-.06c.17.51.36,1,.56,1.51a21.39,21.39,0,0,0,3.82,6.53,22.07,22.07,0,0,0,6.74,5.43,27.19,27.19,0,0,0,10.6,3,38.06,38.06,0,0,0,3.93.21A27.51,27.51,0,0,0,493.16,98l.12,0a31.1,31.1,0,0,0,9.8-5.93v-3.5a43.18,43.18,0,0,1-7.75,4.36,27.46,27.46,0,0,1-9.18,1.52c-12.54,0-18.69-8.75-18.69-18.16,0-8.19,5.06-17.78,16.64-17.78"/><path class="b" d="M41,34.48V0H37.87V7.44c-14.87.62-27.12,10-30.25,22.4h8A24.65,24.65,0,0,1,37.87,11.65V34.48H0v3.18H6.87c.91,14.65,14.31,26.38,31,27.07v7.41H41V37.66H64A24.53,24.53,0,0,1,45.43,59.79v4.45C60,61.86,71.14,51,72,37.66h6.9V34.48Zm-3.13,26a24.56,24.56,0,0,1-23-22.82h23ZM63.24,29.84h8C68.44,18.69,58.26,10,45.43,7.9v4.44a24.63,24.63,0,0,1,17.81,17.5"/></svg>