<svg xmlns="http://www.w3.org/2000/svg" viewBox="0 0 679.76 219.72"><defs><style>.a{fill:#00377b;}</style></defs><title>logo-cazenove-capital</title><path class="a" d="M216,345.87A21.87,21.87,0,0,0,203.25,350l-1.6-3h-4.34v61.85l6.43-1.52V385.57a22.19,22.19,0,0,0,12.64,4.17A21.64,21.64,0,0,0,238,367.81,21.94,21.94,0,0,0,216,345.87M216,384a16.56,16.56,0,0,1-12.29-5.25V356.08a18,18,0,0,1,11.94-4.47,16,16,0,0,1,15.86,16.2C231.54,376.75,225,384,216,384m129.62-5.07,2.47,9.57h-6.29l-2.61-8.28v-52l6.43-1.52Zm-59.35,3.15,1.84,5.35a17.14,17.14,0,0,1-8.33,2.31c-3.48,0-7.37-.82-10.22-4.41-1.84-2.3-2.85-6-2.85-11v-21.7h-8.65V347h8.65V335.75l6.43-1.53V347h13.47l-1.22,5.65H273.17v21.2c0,3.64.34,6,1.6,7.75,1.07,1.46,2.76,2.3,5.32,2.3a14.44,14.44,0,0,0,6.21-1.82M245.4,347h6.42V388.5H245.4Zm7.81-11.26a4.59,4.59,0,0,1-4.64,4.55,4.5,4.5,0,0,1-4.55-4.55,4.59,4.59,0,0,1,4.55-4.64,4.67,4.67,0,0,1,4.64,4.64M139.34,373.52l5.33,4.12a31.65,31.65,0,0,1-56.54-19.3,31.63,31.63,0,0,1,31.69-31.63,29.48,29.48,0,0,1,23.61,11.52l-5.33,4.19c-4.06-5.13-10.28-9.33-18.41-9.33-13.74,0-24.31,10.75-24.31,24.89S106,383.1,119.69,383.1a24.54,24.54,0,0,0,19.65-9.58M188,347h-4.33l-1.61,3a22.16,22.16,0,1,0,1,34.38l1.72,4.12h5.38L188,379.27Zm-6.43,31.73a16.53,16.53,0,0,1-12.3,5.27c-9,0-15.51-7.25-15.51-16.19a16,16,0,0,1,15.86-16.2,18,18,0,0,1,12,4.48ZM330.3,347H326l-1.6,3a22.16,22.16,0,1,0,1,34.38l1.72,4.12h5.38l-2.13-9.23Zm-6.43,31.73a16.56,16.56,0,0,1-12.3,5.27c-9,0-15.51-7.25-15.51-16.19a16,16,0,0,1,15.86-16.2,18,18,0,0,1,11.95,4.48ZM558,225v17.41c-11,1.79-19,11.1-19,23.3,0,11.44,7.64,21.3,19,23.15v17.42c-21.86-1.84-37.92-19.14-37.92-40.57S536.15,226.86,558,225m45.66,40.71c0,21.43-16.07,38.73-37.93,40.57V288.86c11.42-1.85,19.06-11.71,19.06-23.15,0-12.2-8-21.51-19.06-23.3V225c21.86,1.86,37.93,19.28,37.93,40.71M390.69,225c-22.45,0-39.55,17.81-39.55,40.26,0,23.95,18.2,41,40.65,41a41.88,41.88,0,0,0,32.62-15.11l-12.5-11a26,26,0,0,1-20.48,9.61,21.59,21.59,0,0,1-21.82-18.92h58s.17-3,.17-5.21c0-22.56-15.55-40.63-37.1-40.63m-20.56,32c2.37-8.72,10-15.51,19.49-15.51A19,19,0,0,1,408.57,257Zm390,8.63c0-22.56-15.55-40.63-37.11-40.63-22.45,0-39.54,17.81-39.54,40.26,0,23.95,18.2,41,40.65,41a41.89,41.89,0,0,0,32.62-15.11l-12.51-11a26,26,0,0,1-20.47,9.61A21.6,21.6,0,0,1,702,270.84h58s.17-3,.17-5.21M702.51,257c2.37-8.72,10-15.51,19.5-15.51A19,19,0,0,1,741,257ZM279.94,291.48l42.38-48.73H283.57V226.92H345.2v15.55l-40,46H346v15.85H282.78ZM685.6,226.92l-32.9,77.35H634.27l-32.89-77.35h20.69l21.42,54.48,21.42-54.48Zm-174.6,39v38.36H492.52V266.6c0-17.05-6.59-24.05-18-24.05-7.38,0-14.08,4.72-18.66,10.34v51.38H437.28V226.92h12.79l4.54,8.83c6.92-6.7,15.51-10.75,24.85-10.75,21.36,0,31.54,17.52,31.54,40.91M80.42,247.7a58.32,58.32,0,0,1,104.09-36.39l-15,12.87a39.15,39.15,0,0,0-31.09-15.6c-19.93,0-37.22,16.39-37.22,39.12,0,22.22,18.07,39,37.82,39,14.32,0,27-8.12,31.7-14.84l14.92,13c-10.25,12.46-27.91,21.39-46.62,21.39A58.58,58.58,0,0,1,80.42,247.7m188,36.77V226.92H255.64l-3.8,7.37c-6.13-5.36-14.05-9.29-23.18-9.29-21.43,0-39.46,17.12-39.46,40.65,0,22.77,18,40.63,38,40.63a36.24,36.24,0,0,0,24.41-9.73l4.24,7.72h16.91Zm-18.53-4.3a27.43,27.43,0,0,1-19.75,8.9c-10.55,0-22.16-8.71-22.16-23.74C208,252.22,218.1,242,230.5,242c8,0,14.6,3.75,19.38,8.48Z" transform="translate(-80.42 -189.13)"/></svg>