<svg xmlns="http://www.w3.org/2000/svg" viewBox="0 0 533.32 196.45"><defs><style>.a{fill:#ffce34;}.b{fill:#343f49;}</style></defs><path class="a" d="M671.86,281.54h0a7.87,7.87,0,1,0,7.87-7.88,7.86,7.86,0,0,0-7.87,7.88" transform="translate(-154.29 -183.27)"/><path class="a" d="M672.89,305h0a6.84,6.84,0,1,0,6.85-6.82,6.82,6.82,0,0,0-6.85,6.82" transform="translate(-154.29 -183.27)"/><path class="a" d="M672.89,258.11h0a6.84,6.84,0,1,0,6.85-6.85,6.82,6.82,0,0,0-6.85,6.85" transform="translate(-154.29 -183.27)"/><path class="a" d="M674.2,326.07h0a5.53,5.53,0,1,0,5.53-5.52,5.52,5.52,0,0,0-5.53,5.52" transform="translate(-154.29 -183.27)"/><path class="a" d="M674.2,237h0a5.53,5.53,0,1,0,5.53-5.51A5.53,5.53,0,0,0,674.2,237" transform="translate(-154.29 -183.27)"/><path class="a" d="M675,345.05h0a4.74,4.74,0,1,0,4.75-4.74,4.75,4.75,0,0,0-4.75,4.74" transform="translate(-154.29 -183.27)"/><path class="a" d="M675,218.06h0a4.74,4.74,0,1,0,4.75-4.72,4.76,4.76,0,0,0-4.75,4.72" transform="translate(-154.29 -183.27)"/><path class="a" d="M676.06,362.18h0a3.68,3.68,0,0,0,7.35,0,3.68,3.68,0,1,0-7.35,0" transform="translate(-154.29 -183.27)"/><path class="a" d="M676.06,200.93h0a3.68,3.68,0,1,0,3.67-3.68,3.69,3.69,0,0,0-3.67,3.68" transform="translate(-154.29 -183.27)"/><path class="a" d="M677.1,185.89h0a2.63,2.63,0,1,0,2.63-2.62,2.62,2.62,0,0,0-2.63,2.62" transform="translate(-154.29 -183.27)"/><path class="a" d="M677.1,377.09h0a2.63,2.63,0,1,0,2.63-2.62,2.63,2.63,0,0,0-2.63,2.62" transform="translate(-154.29 -183.27)"/><path class="b" d="M204.9,288.09l-18.65,6.33c-16.16,5.68-21.82,10.67-21.82,19.83,0,8.81,7.34,14.65,18.15,14.65,14.32,0,22.32-3.68,22.32-10.34Zm8,46.46h-3.82c-1.67,0-2.5-.67-2.5-2.15v-1c0-.65-.34-1.15-1.35-1.15-.49,0-1.14.33-3.31,1.15-9,3.5-14,4.51-20.15,4.51-17,0-27.46-8.17-27.46-21.81,0-11.5,6.82-18.15,24.79-24.65l20.48-7.32c4.33-1.49,5.34-3,5.34-7.33v-3c0-10-5.67-14.63-17.66-14.63-8.83,0-16,2.16-24.14,7.15a3.73,3.73,0,0,1-2,.84c-1,0-1.66-1-1.66-2.34v-3.31c0-1.67.82-2.67,3.65-3.84a70.57,70.57,0,0,1,25.48-5.33c10.48,0,16.32,1.68,21,6.32,4.17,4.17,5.5,8,5.5,16.16V332.4a2.21,2.21,0,0,1-2.16,2.15" transform="translate(-154.29 -183.27)"/><path class="b" d="M235.33,332.4V253.83a2.21,2.21,0,0,1,2.19-2.17h4.14c1.35,0,2,.65,2,1.81v1.83c0,1.32.49,2,1.51,2a2.83,2.83,0,0,0,1.33-.51c5.17-2.84,14.14-5.15,21-5.15h3.15c2.51,0,3.5.82,3.5,3.32v3.66c0,2-.85,2.84-2.51,2.84a6.44,6.44,0,0,1-1.81-.19A85.64,85.64,0,0,0,258,259.8c-8.82,0-12.49,3.67-12.49,12V332.4a2.24,2.24,0,0,1-2.32,2.15h-5.65a2.22,2.22,0,0,1-2.19-2.15" transform="translate(-154.29 -183.27)"/><path class="b" d="M343.33,325.06v3.49c0,4.17-11.32,7.5-25.13,7.5-25.32,0-40.61-15.82-40.61-41.8,0-26.95,15.81-44.1,40.44-44.1,13.83,0,25.3,3.82,25.3,8.49v2.84c0,1.31-.66,2.16-1.81,2.16-.5,0-.85-.18-2.5-1-7.83-4-13.15-5.31-20.15-5.31-19.15,0-31.14,13.8-31.14,36.28,0,22.14,11.82,35.3,32,35.3a45,45,0,0,0,20.5-5,5.36,5.36,0,0,1,1.64-.67c1,0,1.5.67,1.5,1.83" transform="translate(-154.29 -183.27)"/><path class="b" d="M355.44,332.4v-103a2.2,2.2,0,0,1,2.18-2.16h5.65a2.16,2.16,0,0,1,2.34,2.16v24.92c0,1.32.33,1.84,1.16,1.84a3.67,3.67,0,0,0,2-.85c6.82-3.64,12.3-5,20.64-5,9.63,0,17.45,2.83,22.8,8.33,5.32,5.65,7.33,12,7.33,23.31V332.4a2.26,2.26,0,0,1-2.34,2.15h-5.68a2.21,2.21,0,0,1-2.15-2.15V281.78c0-9.5-.83-13-4-17.14-4-5.16-9.48-7.32-18.15-7.32-13.48,0-21.62,4-21.62,10.65V332.4a2.26,2.26,0,0,1-2.34,2.15h-5.65a2.21,2.21,0,0,1-2.18-2.15" transform="translate(-154.29 -183.27)"/><path class="b" d="M439.66,332.4V253.83a2.23,2.23,0,0,1,2.19-2.17h5.65a2.25,2.25,0,0,1,2.34,2.17V332.4a2.26,2.26,0,0,1-2.34,2.15h-5.65a2.24,2.24,0,0,1-2.19-2.15m-1.66-99c.19-4.67,2.17-6.5,6.67-6.5,5.17,0,6.81,1.83,6.81,7,0,5-2,7-6.81,7S438,239.1,438,234.26Z" transform="translate(-154.29 -183.27)"/><path class="b" d="M485.14,258.64V315.1c0,9,4.64,13.8,13,13.8a26.11,26.11,0,0,0,10.81-2.48,12.29,12.29,0,0,1,1.67-.53c1,0,1.51.67,1.51,2V330c0,3.69-6.51,5.85-16.33,5.85-13.15,0-20.8-7.66-20.8-21V258.64H465.3a2.21,2.21,0,0,1-2.16-2.17v-2.64a2.2,2.2,0,0,1,2.16-2.17H475V230a2.19,2.19,0,0,1,2.16-2.17H483a2.22,2.22,0,0,1,2.18,2.17v21.65h24.77a2.21,2.21,0,0,1,2.19,2.17v2.64a2.22,2.22,0,0,1-2.19,2.17Z" transform="translate(-154.29 -183.27)"/><path class="b" d="M570.41,288.09l-18.66,6.33c-16.13,5.68-21.8,10.67-21.8,19.83,0,8.81,7.34,14.65,18.15,14.65,14.34,0,22.31-3.68,22.31-10.34Zm8,46.46h-3.84c-1.66,0-2.49-.67-2.49-2.15v-1c0-.65-.32-1.15-1.31-1.15-.52,0-1.18.33-3.35,1.15-9,3.5-14,4.51-20.13,4.51-17,0-27.48-8.17-27.48-21.81,0-11.5,6.82-18.15,24.82-24.65l20.45-7.32c4.34-1.49,5.34-3,5.34-7.33v-3c0-10-5.65-14.63-17.65-14.63-8.83,0-16,2.16-24.12,7.15a3.93,3.93,0,0,1-2,.84c-1,0-1.65-1-1.65-2.34v-3.31c0-1.67.83-2.67,3.67-3.84a70.51,70.51,0,0,1,25.46-5.33c10.49,0,16.31,1.68,21,6.32,4.15,4.17,5.47,8,5.47,16.16V332.4a2.18,2.18,0,0,1-2.15,2.15" transform="translate(-154.29 -183.27)"/><path class="b" d="M622.53,300.26,611,292.44c-10.48-6.83-13.64-11.5-13.64-20.16,0-13.64,9.33-22,24.31-22,10,0,19.65,3.83,19.65,7.83v3a1.7,1.7,0,0,1-1.51,1.83,6.68,6.68,0,0,1-2.65-1l-1.17-.68c-5.35-2.65-10.17-4-14.65-4-9.33,0-15.48,5-15.48,13,0,5.47,1.5,7.47,9.47,13l14.16,9.49c10.48,7,13.49,11.82,13.49,20.8,0,13.5-10.17,22.48-25.47,22.48-6.16,0-14.33-2-18.81-4.33l-.85-.49c-1.82-1-2-1.32-2-3.14v-3c0-1.17.49-1.83,1.49-1.83a6.25,6.25,0,0,1,2.5.83c6.15,3.51,10.65,4.84,16.3,4.84,10.34,0,16.65-5.34,16.65-14,0-6.15-2.17-9.15-10.3-14.64" transform="translate(-154.29 -183.27)"/></svg>