<svg xmlns="http://www.w3.org/2000/svg" viewBox="0 0 682.7 279.79"><defs><style>.a{fill:#273c4e;}</style></defs><title>logo-time-investments</title><path class="a" d="M449.21,241v-6.06H418V241h12.25v38.42H437V241Zm46.55,38.42V249.68l-10.25,21.67h-5L470,249.68v29.73h-6.75V234.93H470l13,27.68,12.75-27.68h6.75v44.48Zm50.73,0v-6.06H524.8V260h18.5v-6H524.8V241h21.69v-6.06H518.06v44.48Zm41.86,0-20.56-31.3v31.3H561V234.93h6.19l20.55,31.23V234.93h6.75v44.48ZM639.58,241v-6.06H608.34V241h12.25v38.42h6.75V241Zm42.73,25.74c0-3.81-1.19-7-3.63-9.12-1.87-1.69-4.18-2.69-8.3-3.31l-5.07-.75a9.87,9.87,0,0,1-5-2.06,5.3,5.3,0,0,1-1.69-4.13c0-3.93,2.87-6.93,8.12-6.93,3.75,0,6.94.81,9.69,3.43l4.3-4.24c-3.8-3.57-7.93-5.07-13.8-5.07-9.25,0-14.87,5.32-14.87,13.06,0,3.63,1.06,6.44,3.25,8.5a15.22,15.22,0,0,0,8.43,3.56l5.25.75c2.63.37,3.75.81,4.87,1.88a6,6,0,0,1,1.75,4.62c0,4.31-3.37,6.81-9.18,6.81-4.57,0-8.12-1-11.37-4.25l-4.5,4.44c4.25,4.31,9.06,5.87,15.74,5.87,9.31,0,16-4.88,16-13.06M224.9,234.93h-6.76v44.49h6.76ZM275,279.41V234.93h-6.75v31.23l-20.56-31.23h-6.18v44.48h6.75v-31.3l20.55,31.3Zm47.28-44.48h-7.12l-10.25,32.36-10.24-32.36h-7l14.62,44.48h5.24Zm41.88,44.48v-6.06H342.46V260H361v-6H342.46V241h21.67v-6.06H335.71v44.48Zm44.81-12.68c0-3.81-1.19-7-3.62-9.12-1.88-1.69-4.19-2.69-8.31-3.31l-5.06-.75a10,10,0,0,1-5-2.06,5.3,5.3,0,0,1-1.69-4.13c0-3.93,2.87-6.93,8.13-6.93,3.74,0,6.93.81,9.68,3.43l4.31-4.24c-3.81-3.57-7.93-5.07-13.8-5.07-9.25,0-14.88,5.32-14.88,13.06,0,3.63,1.06,6.44,3.26,8.5a15.18,15.18,0,0,0,8.43,3.56l5.24.75c2.63.37,3.75.81,4.88,1.88a6,6,0,0,1,1.75,4.62c0,4.31-3.38,6.81-9.19,6.81-4.56,0-8.12-1-11.37-4.25l-4.49,4.44c4.24,4.31,9.05,5.87,15.74,5.87,9.31,0,16-4.88,16-13.06M314.52,49.93l20.84,28.48v127H303.45L280,184.58h34.56ZM581.34,130H682.66V92.42L664.13,76.3v32.94H560.57V150.8h20.77Zm82.77,20.81,18.59,16.45,0,38.06H549.33l-23.44-20.76H664.11ZM682.66,16.44,664.07,0V33.8H560.57V76.2h20.77V54.56H682.66ZM496,205.32H463.9l-23.42-20.7H475.3V0L496,18.36ZM376.9,135.1l18.74,16.63,44.83-59.37V51Zm.81-54.29L319.3,0l30.42,11.33L391.47,63ZM250,18.37,229.27,0V184.56H194.63L218,205.32H250ZM151.88,0l18.79,16.57V54.23H113.85V205.32H81.93L58.54,184.6H93.1V33.52h58.78ZM58.54,33.52H0L23.47,54.27H58.54Z"/></svg>