<svg xmlns="http://www.w3.org/2000/svg" viewBox="0 0 617.33 151.37"><defs><style>.a{fill:#1b2f51;}</style></defs><path class="a" d="M504,246.42s-3.67-5.76-12.69-5.76c-11.74,0-20,11-20,24.81,0,15.39,8.56,23,18.88,23s14.29-6.77,14.29-6.77v5.59h11.23V224.08H504v22.34m0,29.63s-3.46,5.56-9.6,5.56c-6.41,0-11-5.72-11-17,0-12.55,6-16.69,11.36-16.69,6,0,9.26,5.85,9.26,5.85Z" transform="translate(-106.42 -192.01)"/><path class="a" d="M303.59,279.72c-13.62,0-21.46-10.29-21.46-24,0-16.7,9.9-25.05,21.47-25.05a18.67,18.67,0,0,1,16.49,9.42l5.08-3.81s-4.1-13.35-23.88-13.35c-18.09,0-32.44,14-32.44,33.32,0,21.62,15,32.34,31.29,32.34,18.67,0,25-13,25-13L321.36,272s-5.07,7.77-17.77,7.77" transform="translate(-106.42 -192.01)"/><polygon class="a" points="493.56 32.15 481.06 32.15 481.06 95.31 521.45 95.31 521.45 86.65 493.56 86.65 493.56 32.15"/><path class="a" d="M668.39,239.75c0-8,3.89-10.12,7.28-10.12a8.67,8.67,0,0,1,4.15,1.28l2.33-4.09c-1.69-1.48-4.69-3.93-11.35-3.93a13.39,13.39,0,0,0-13.08,9c-1,2.72-1.05,5.41-1,10h-6.81v7h6.81v38.39h11.62V248.93h10.24v-7H668.37s0-1.45,0-2.18" transform="translate(-106.42 -192.01)"/><path class="a" d="M402.68,240.62a19,19,0,0,0-14.6,7.17v-5.9H376.45v45.43h11.63V253.39c.83-1.32,4.57-5.51,9.7-5.51a7,7,0,0,1,7.08,5.24,15.68,15.68,0,0,1,.45,4.55v29.65H417V256.44c0-3.75-.26-8.21-3.58-11.71a14.74,14.74,0,0,0-10.75-4.11" transform="translate(-106.42 -192.01)"/><path class="a" d="M348.48,240.6a22.42,22.42,0,0,0-18.74,9.91l3.32,3.17a17.94,17.94,0,0,1,13-5.85c6,.06,10.63,3.14,10.63,10.86,0,.77,0,1.45,0,1.45a31.32,31.32,0,0,0-10.58-1.93c-10.4,0-18.88,5.77-18.88,16.08,0,8.73,6.73,14.29,15.83,14.29a17.77,17.77,0,0,0,14.11-6.28v5h11V261.26c0-15.58-8.31-20.66-19.69-20.66m8.22,37.62a15,15,0,0,1-9.17,3.2c-5.86,0-8-4.06-8-7.91,0-5.69,4.55-8.39,9.7-8.39a19.9,19.9,0,0,1,7.52,1.65Z" transform="translate(-106.42 -192.01)"/><path class="a" d="M444.85,240.6a22.46,22.46,0,0,0-18.76,9.91l3.34,3.17a17.9,17.9,0,0,1,13-5.85c6,.06,10.65,3.14,10.65,10.86,0,.77,0,1.45,0,1.45a31.3,31.3,0,0,0-10.57-1.93c-10.41,0-18.89,5.77-18.89,16.08,0,8.73,6.73,14.29,15.82,14.29a17.78,17.78,0,0,0,14.12-6.28v5h11V261.26c0-15.58-8.31-20.66-19.68-20.66m8.21,37.62a15,15,0,0,1-9.17,3.2c-5.87,0-8.05-4.06-8.05-7.91,0-5.69,4.54-8.39,9.71-8.39a19.89,19.89,0,0,1,7.51,1.65Z" transform="translate(-106.42 -192.01)"/><path class="a" d="M544,240.6a22.43,22.43,0,0,0-18.75,9.91l3.33,3.17a17.9,17.9,0,0,1,13-5.85c6,.06,10.64,3.14,10.64,10.86,0,.77,0,1.45,0,1.45a31.41,31.41,0,0,0-10.58-1.93c-10.41,0-18.89,5.77-18.89,16.08,0,8.73,6.74,14.29,15.82,14.29a17.76,17.76,0,0,0,14.12-6.28v5h11V261.26c0-15.58-8.3-20.66-19.68-20.66m8.22,37.62a15.08,15.08,0,0,1-9.18,3.2c-5.86,0-8-4.06-8-7.91,0-5.69,4.54-8.39,9.7-8.39a20,20,0,0,1,7.52,1.65Z" transform="translate(-106.42 -192.01)"/><path class="a" d="M722.88,256.82c-1.82-8.12-7.25-16.21-20.67-16.21-14.31,0-23.6,11.24-23.6,23.84,0,13.95,8.2,24.14,24.11,24.14,15.72,0,20.62-11.24,20.62-11.24l-3.07-2.81s-4.56,6.66-15.6,6.66c-9.27,0-14.13-7.2-14.38-15.41h33.43a36.3,36.3,0,0,0-.84-9m-32.32,2.24c1.17-7.62,5.37-11.4,11.16-11.4,8.28,0,10,6.42,10.21,10.09,0,.61,0,1.31,0,1.31Z" transform="translate(-106.42 -192.01)"/><rect class="a" x="526.25" y="49.93" width="11.63" height="45.39"/><path class="a" d="M632.1,229.21a6.35,6.35,0,1,1,6.35,6.22,6.28,6.28,0,0,1-6.35-6.22" transform="translate(-106.42 -192.01)"/><rect class="a" x="364.93" y="117.84" width="4.14" height="33.04"/><path class="a" d="M486.56,323h.1a8.34,8.34,0,0,1,7.61-5.16,7.73,7.73,0,0,1,6.94,3.81c1.25,2.07,1.15,5.34,1.15,7.75v13.54H498.6V327.76c0-1.44.06-3.27-.67-4.53a5,5,0,0,0-4.19-2.21,6.52,6.52,0,0,0-5.05,2.46c-1.6,1.92-1.93,4.14-1.93,6.6v12.81H483V318.42h3.56Z" transform="translate(-106.42 -192.01)"/><polygon class="a" points="411.02 150.88 407.08 150.88 398.36 126.41 402.55 126.41 409.39 146.31 416.08 126.41 419.45 126.41 411.02 150.88"/><path class="a" d="M549.32,336.2a10.68,10.68,0,0,1-10.4,7.17c-7.42,0-11.22-5.88-11.22-12.71s4-12.87,11.32-12.87c7.61,0,10.89,6.36,10.69,13.15H531.94a11.75,11.75,0,0,0,1,5.54,7,7,0,0,0,6.26,3.71,6.73,6.73,0,0,0,6.55-4.72Zm-3.75-8.05c0-4-2.22-7.46-6.55-7.46-4.09,0-6.75,3.61-6.89,7.46Z" transform="translate(-106.42 -192.01)"/><path class="a" d="M557.66,335.67c.52,3.32,4.43,4.57,7.36,4.57,2.6,0,5.93-.92,5.93-4.05,0-2.6-2.65-3.32-4.77-3.71l-4-.72C558.43,331,555,329.31,555,325c0-5.05,4.67-7.18,9.15-7.18s8.47,1.64,9.68,6.17l-3.47.72c-1-2.7-3.46-3.85-6.26-3.85-2.22,0-5.21.87-5.21,3.56s2.23,3.23,4.39,3.57l3.56.62a13.36,13.36,0,0,1,5.11,1.69,6.54,6.54,0,0,1,2.94,5.54c0,5.54-5.39,7.56-10.16,7.56s-9.49-2-10.74-7Z" transform="translate(-106.42 -192.01)"/><path class="a" d="M592,343.08l-3.62.29c-5.34,0-6.93-3.13-6.93-8V321.21h-4.34v-3h4.34v-6.07l3.75-.39v6.46h5.44v3H585.2V336c0,2.84.82,4.34,3.9,4.34l2.9-.25Z" transform="translate(-106.42 -192.01)"/><path class="a" d="M599.07,318.42v4.72h.09c1.26-2.94,3.91-5.35,7.33-5.35s6.11,2.41,6.89,5.83c1.35-3.37,4.14-5.83,7.9-5.83a7.28,7.28,0,0,1,6.16,3.52c1.21,2,1.16,4.72,1.16,7v14.59h-3.76V328.3c0-1.64.1-3.38-.68-4.87a4.6,4.6,0,0,0-4.08-2.55,6,6,0,0,0-4.73,2.74c-1.4,2-1.35,3.76-1.35,6.07v13.2h-3.76V327.38a8.26,8.26,0,0,0-.81-4.15,4.87,4.87,0,0,0-4.1-2.35,6.06,6.06,0,0,0-4.43,2.4,8.72,8.72,0,0,0-1.49,5.59v14h-3.76V318.42Z" transform="translate(-106.42 -192.01)"/><path class="a" d="M655.28,336.2a10.7,10.7,0,0,1-10.4,7.17c-7.42,0-11.23-5.88-11.23-12.71s4-12.87,11.32-12.87c7.61,0,10.89,6.36,10.7,13.15H637.89a11.63,11.63,0,0,0,1,5.54,7,7,0,0,0,6.25,3.71,6.73,6.73,0,0,0,6.55-4.72Zm-3.76-8.05c.05-4-2.22-7.46-6.55-7.46-4.09,0-6.74,3.61-6.89,7.46Z" transform="translate(-106.42 -192.01)"/><path class="a" d="M664.76,323h.1a8.34,8.34,0,0,1,7.61-5.16,7.73,7.73,0,0,1,6.94,3.81c1.25,2.07,1.15,5.34,1.15,7.75v13.54H676.8V327.76c0-1.44.06-3.27-.67-4.53a5,5,0,0,0-4.19-2.21,6.54,6.54,0,0,0-5.05,2.46c-1.6,1.92-1.93,4.14-1.93,6.6v12.81H661.2V318.42h3.56Z" transform="translate(-106.42 -192.01)"/><path class="a" d="M698.91,343.08l-3.61.29c-5.35,0-6.94-3.13-6.94-8V321.21H684v-3h4.33v-6.07l3.76-.39v6.46h5.44v3h-5.44V336c0,2.84.82,4.34,3.9,4.34l2.89-.25Z" transform="translate(-106.42 -192.01)"/><path class="a" d="M705,335.67c.53,3.32,4.43,4.57,7.37,4.57,2.6,0,5.93-.92,5.93-4.05,0-2.6-2.65-3.32-4.77-3.71l-4-.72c-3.75-.72-7.17-2.45-7.17-6.79,0-5.05,4.67-7.18,9.15-7.18s8.47,1.64,9.68,6.17l-3.47.72c-1-2.7-3.46-3.85-6.26-3.85-2.22,0-5.2.87-5.2,3.56s2.21,3.23,4.38,3.57l3.56.62a13.36,13.36,0,0,1,5.11,1.69,6.54,6.54,0,0,1,2.94,5.54c0,5.54-5.4,7.56-10.16,7.56s-9.49-2-10.74-7Z" transform="translate(-106.42 -192.01)"/><path class="a" d="M156,250.4a2.64,2.64,0,1,1,2.64,2.63A2.65,2.65,0,0,1,156,250.4m-14.77-52.51A60.93,60.93,0,0,0,193.44,308,60.2,60.2,0,0,0,228,256.49h0c.05-.59.07-1.42.07-1.42a2.22,2.22,0,0,0-1.45,1.79,29.14,29.14,0,0,0-.43,2.95c-1.63,15.3-12.36,33.56-31.51,42.72a56,56,0,0,1-36.78,4.12l-1.49-.31.08-.4,1.49.29a53.89,53.89,0,0,0,62.37-42.6h0c.13-.57.26-1.41.26-1.41a2.31,2.31,0,0,0-1.87,1.55c-.09.28-.28.55-.37.91a50,50,0,0,1-57.89,35.6L159,300l.08-.41,1.48.31a47.18,47.18,0,0,0,52.56-35.16h0c.16-.57.34-1.39.34-1.39a2.31,2.31,0,0,0-1.95,1.45c-.05.12-.12.24-.17.38A43.69,43.69,0,0,1,163.1,293.8l-1.51-.24,0-.42,1.5.24a40.08,40.08,0,0,0,21.39-3.6,40.58,40.58,0,0,0,22.07-27v0c.16-.57.34-1.39.34-1.39a2.31,2.31,0,0,0-2,1.44,4.53,4.53,0,0,0-.2.49A36.33,36.33,0,0,1,185.93,284a35.82,35.82,0,0,1-20.19,3.33l-1.51-.22,0-.41,1.49.22a33.73,33.73,0,0,0,35.08-31.11c0-.58,0-1.42,0-1.42a2.29,2.29,0,0,0-1.59,1.83,29.15,29.15,0,0,1-31.38,24.29s0,0,0-.05a13.48,13.48,0,0,1-11.86-13.38,13.32,13.32,0,0,1,13.59-13.19l.55,0,.11-.29a20.55,20.55,0,0,0-28.87-4.47A29.15,29.15,0,0,1,196.86,239a37.31,37.31,0,0,1,2,5c.65,2.2,1.56,2.22,1.56,2.22-.21-.83-.44-1.67-.7-2.48h0a33.91,33.91,0,0,0-47.1-21.31,33.62,33.62,0,0,0-10.94,8.29l-.93,1.23-.33-.25.9-1.22a36,36,0,0,1,61.8,5.53c1,2.07,1.85,2,1.85,2-.32-.79-.66-1.59-1-2.36a40.54,40.54,0,0,0-70.08-5.74l-.77,1.31-.35-.21.76-1.31a42.85,42.85,0,0,1,18.75-17c21.38-10.13,46.8-.78,57.15,20.53,1,2.06,1.84,2,1.84,2-.31-.79-.75-1.75-1.12-2.52A47.51,47.51,0,0,0,147,210.12a47,47,0,0,0-20.52,19l-.73,1.33-.36-.21.72-1.32a49.81,49.81,0,0,1,23.22-22.47c24.8-11.74,54-1.23,66.1,23.63.5,1.06.85,1.85,1.57,3.49.91,2.11,1.84,2,1.84,2-.38-.78-.67-1.59-1-2.37-.51-1.13-1-2.3-1.59-3.44a54,54,0,0,0-97.09-1.31l-.62,1.39-.38-.17.62-1.38a56.7,56.7,0,0,1,102.83-1.07,55.69,55.69,0,0,1,4.65,14.6,13.7,13.7,0,0,0,.33,1.39c.62,2.22,1.33,2.37,1.33,2.37-.12-.85-.26-1.7-.44-2.54h0a60.89,60.89,0,0,0-86.19-45.17" transform="translate(-106.42 -192.01)"/></svg>