<svg xmlns="http://www.w3.org/2000/svg" viewBox="0 0 526.58 424.31"><defs><style>.a{fill:#008c93;}.b{fill:#4d565c;}</style></defs><title>logo-waverton-im</title><polygon class="a" points="282.9 45.92 264.43 0 262.2 0 243.63 45.92 225.47 0.41 225.31 0 219.44 0 242.73 58.49 244.78 58.49 263.32 11.78 281.71 58.08 281.88 58.49 283.79 58.49 306.78 0.88 307.13 0 301.27 0 282.9 45.92"/><polygon class="a" points="282.9 199.65 264.43 245.57 262.2 245.57 243.63 199.65 225.47 245.16 225.31 245.57 219.44 245.57 242.73 187.08 244.78 187.08 263.32 233.79 281.71 187.48 281.88 187.08 283.79 187.08 306.78 244.69 307.13 245.57 301.27 245.57 282.9 199.65"/><polygon class="a" points="340.14 142.4 386.05 123.92 386.05 121.7 340.14 103.13 385.64 84.96 386.05 84.8 386.05 78.93 327.57 102.23 327.57 104.27 374.27 122.82 327.98 141.21 327.57 141.37 327.57 143.29 385.17 166.29 386.05 166.64 386.05 160.77 340.14 142.4"/><polygon class="a" points="186.44 142.4 140.53 123.92 140.53 121.7 186.44 103.13 140.93 84.96 140.53 84.8 140.53 78.93 199 102.23 199 104.27 152.31 122.82 198.6 141.21 199 141.37 199 143.29 141.4 166.29 140.53 166.64 140.53 160.77 186.44 142.4"/><polygon class="a" points="331.5 82.3 350.9 36.77 349.33 35.2 303.73 54.53 323.06 9.5 323.24 9.11 319.09 4.95 294.21 62.78 295.66 64.23 341.79 44.32 322.05 90.06 321.89 90.46 323.24 91.82 380.23 67.35 381.1 66.97 376.95 62.82 331.5 82.3"/><polygon class="a" points="222.81 191.01 177.29 210.41 175.72 208.84 195.04 163.24 150.03 182.57 149.63 182.75 145.48 178.59 203.29 153.71 204.74 155.16 184.84 201.3 230.57 181.56 230.97 181.39 232.33 182.75 207.86 239.75 207.49 240.62 203.34 236.47 222.81 191.01"/><polygon class="a" points="303.76 191.01 349.29 210.41 350.86 208.84 331.53 163.24 376.55 182.57 376.94 182.75 381.1 178.59 323.28 153.71 321.83 155.16 341.74 201.3 296 181.56 295.6 181.39 294.25 182.75 318.71 239.75 319.08 240.62 323.24 236.47 303.76 191.01"/><polygon class="a" points="195.07 82.3 175.68 36.77 177.25 35.2 222.84 54.53 203.51 9.5 203.34 9.11 207.48 4.96 232.36 62.78 230.91 64.23 184.78 44.32 204.52 90.06 204.69 90.46 203.33 91.82 146.35 67.35 145.48 66.97 149.62 62.82 195.07 82.3"/><polygon class="b" points="63.46 351.53 44.98 305.61 42.76 305.61 24.19 351.53 6.03 306.01 5.87 305.61 0 305.61 23.29 364.09 25.34 364.09 43.88 317.39 62.27 363.69 62.44 364.09 64.35 364.09 87.34 306.49 87.7 305.61 81.83 305.61 63.46 351.53"/><path class="b" d="M121.72,305.21,95,363.53h6l8.93-19.59h26.87l9,19.59h6l-26.77-58.32ZM134.5,339H112.12l11.17-24.51Z"/><polygon class="b" points="182.96 352.52 163.32 305.61 157.5 305.61 181.85 364.09 184 364.09 208.26 305.61 202.46 305.61 182.96 352.52"/><polygon class="b" points="231.27 336.89 257.09 336.89 257.09 331.93 231.27 331.93 231.27 310.53 257.78 310.53 257.78 305.61 225.61 305.61 225.61 363.53 258.43 363.53 258.43 358.6 231.27 358.6 231.27 336.89"/><path class="b" d="M316.8,320.89a13.75,13.75,0,0,0-5.06-11.18c-3.33-2.72-8.15-4.1-14.35-4.1H282.24v57.92h5.65V336.36h12.69l19.63,27.17H327L306.38,335C313.29,332.18,316.8,327.45,316.8,320.89Zm-28.91-10.36h8.61c4.64,0,8.24.94,10.68,2.79a10.05,10.05,0,0,1,.06,15.35c-2.41,1.84-6,2.77-10.58,2.77h-8.77Z"/><polygon class="b" points="333.86 310.53 355.1 310.53 355.1 363.52 360.8 363.52 360.8 310.53 382.04 310.53 382.04 305.61 333.86 305.61 333.86 310.53"/><path class="b" d="M422.17,304.89a30,30,0,0,0-21.64,8.63,29.37,29.37,0,0,0,0,42.1,31.59,31.59,0,0,0,43.38,0,29.31,29.31,0,0,0,0-42.11A30.19,30.19,0,0,0,422.17,304.89Zm.17,54a24.11,24.11,0,0,1-17.51-7.06,24.46,24.46,0,0,1,0-34.6,24.11,24.11,0,0,1,17.51-7.06,24.14,24.14,0,0,1,24.47,24.38,23.56,23.56,0,0,1-7.08,17.28A23.82,23.82,0,0,1,422.34,358.93Z"/><polygon class="b" points="520.92 305.61 520.92 354.04 479.1 305.83 478.91 305.61 474.26 305.61 474.26 363.53 479.92 363.53 479.92 315.09 521.85 363.31 522.04 363.53 526.58 363.53 526.58 305.61 520.92 305.61"/><rect class="b" x="69.09" y="405.15" width="2.71" height="18.94"/><polygon class="b" points="92.7 405.15 95.27 405.15 95.27 424.1 92.94 424.1 80.28 409.51 80.28 424.1 77.73 424.1 77.73 405.15 79.93 405.15 92.7 419.87 92.7 405.15"/><polygon class="b" points="112.96 405.15 115.66 405.15 107.65 424.18 107.04 424.18 98.88 405.15 101.61 405.15 107.3 418.46 112.96 405.15"/><polygon class="b" points="119.37 405.15 130.11 405.15 130.11 407.57 122.08 407.57 122.08 413.34 129.84 413.34 129.84 415.77 122.08 415.77 122.08 421.66 130.37 421.66 130.37 424.07 119.37 424.07 119.37 405.15"/><path class="b" d="M139.58,416.16l-2.06-1.25a9.52,9.52,0,0,1-2.76-2.33,4.49,4.49,0,0,1-.82-2.64,4.64,4.64,0,0,1,1.56-3.63,5.8,5.8,0,0,1,4-1.4,7.61,7.61,0,0,1,4.35,1.33v3.08a6.27,6.27,0,0,0-4.41-2,3.65,3.65,0,0,0-2.18.61,1.87,1.87,0,0,0-.85,1.58,2.4,2.4,0,0,0,.63,1.59,7.68,7.68,0,0,0,2,1.56l2.07,1.23c2.31,1.38,3.47,3.13,3.47,5.27a4.82,4.82,0,0,1-1.53,3.7,5.56,5.56,0,0,1-4,1.42,8.29,8.29,0,0,1-5.11-1.72v-3.45a6.36,6.36,0,0,0,5.08,2.79,3.19,3.19,0,0,0,2.12-.71,2.23,2.23,0,0,0,.85-1.78C142.08,418.29,141.25,417.19,139.58,416.16Z"/><polygon class="b" points="147.63 405.13 163.46 405.13 163.46 407.54 156.85 407.54 156.85 424.1 154.13 424.1 154.13 407.54 147.63 407.54 147.63 405.13"/><polygon class="b" points="182.72 405.15 185.25 405.15 185.25 424.1 182.53 424.1 182.53 409.36 176.71 416.68 176.2 416.68 170.31 409.36 170.31 424.1 167.6 424.1 167.6 405.15 170.17 405.15 176.46 412.93 182.72 405.15"/><polygon class="b" points="190.97 405.15 201.71 405.15 201.71 407.57 193.69 407.57 193.69 413.34 201.44 413.34 201.44 415.77 193.69 415.77 193.69 421.66 201.97 421.66 201.97 424.07 190.97 424.07 190.97 405.15"/><polygon class="b" points="221.54 405.15 224.12 405.15 224.12 424.1 221.79 424.1 209.13 409.51 209.13 424.1 206.57 424.1 206.57 405.15 208.77 405.15 221.54 419.87 221.54 405.15"/><polygon class="b" points="228.2 405.13 244.02 405.13 244.02 407.54 237.42 407.54 237.42 424.1 234.69 424.1 234.69 407.54 228.2 407.54 228.2 405.13"/><polygon class="b" points="272.63 405.15 275.17 405.15 275.17 424.1 272.44 424.1 272.44 409.36 266.62 416.68 266.12 416.68 260.23 409.36 260.23 424.1 257.52 424.1 257.52 405.15 260.08 405.15 266.38 412.93 272.63 405.15"/><path class="b" d="M286.94,405.05h1.9l8.49,19.05h-2.77L292,418.48H284l-2.36,5.62H278.8Zm4,11-3.06-6.86L285,416.07Z"/><polygon class="b" points="316.09 405.15 318.67 405.15 318.67 424.1 316.34 424.1 303.68 409.51 303.68 424.1 301.13 424.1 301.13 405.15 303.32 405.15 316.09 419.87 316.09 405.15"/><path class="b" d="M330.41,405.05h1.91l8.49,19.05H338l-2.53-5.62h-8.08l-2.37,5.62h-2.78Zm4,11-3.06-6.86-2.83,6.86Z"/><path class="b" d="M353.65,414.77H360v8a17.25,17.25,0,0,1-6.95,1.52,10.28,10.28,0,0,1-7.51-2.74,9.08,9.08,0,0,1-2.82-6.77,9.41,9.41,0,0,1,2.92-7.07,10.09,10.09,0,0,1,7.31-2.82,13,13,0,0,1,3,.34,27,27,0,0,1,3.64,1.27v2.77a13.39,13.39,0,0,0-6.73-2,7.14,7.14,0,0,0-5.23,2.12,7.5,7.5,0,0,0,0,10.47,7.59,7.59,0,0,0,5.48,2,12.73,12.73,0,0,0,3.89-.75l.25-.08v-3.95h-3.64Z"/><polygon class="b" points="365.6 405.15 376.34 405.15 376.34 407.57 368.31 407.57 368.31 413.34 376.07 413.34 376.07 415.77 368.31 415.77 368.31 421.66 376.6 421.66 376.6 424.07 365.6 424.07 365.6 405.15"/><polygon class="b" points="396.19 405.15 398.72 405.15 398.72 424.1 396 424.1 396 409.36 390.17 416.68 389.67 416.68 383.78 409.36 383.78 424.1 381.07 424.1 381.07 405.15 383.63 405.15 389.93 412.93 396.19 405.15"/><polygon class="b" points="404.44 405.15 415.18 405.15 415.18 407.57 407.15 407.57 407.15 413.34 414.91 413.34 414.91 415.77 407.15 415.77 407.15 421.66 415.44 421.66 415.44 424.07 404.44 424.07 404.44 405.15"/><polygon class="b" points="435.01 405.15 437.58 405.15 437.58 424.1 435.25 424.1 422.59 409.51 422.59 424.1 420.04 424.1 420.04 405.15 422.24 405.15 435.01 419.87 435.01 405.15"/><polygon class="b" points="441.66 405.13 457.49 405.13 457.49 407.54 450.88 407.54 450.88 424.1 448.15 424.1 448.15 407.54 441.66 407.54 441.66 405.13"/></svg>