<svg xmlns="http://www.w3.org/2000/svg" viewBox="0 0 717.91 125.84"><defs><style>.a{fill:#001a70;}</style></defs><polygon class="a" points="103.38 0.09 84.93 3.78 73.84 22.26 66.46 37.08 51.69 51.88 51.69 59.28 40.63 70.36 36.94 66.67 7.39 81.47 0 85.15 0 100.09 8.07 104.13 22.16 97.03 40.63 99.96 40.63 107.36 40.62 114.75 51.71 118.47 66.46 103.67 77.53 103.67 77.53 111.05 73.84 118.44 79 125.84 96.01 118.47 92.31 107.36 95.99 88.88 103.39 88.87 103.38 96.25 114.46 99.96 118.16 111.07 125.55 118.47 132.91 111.08 155.06 103.65 147.68 96.27 140.29 81.47 132.91 81.47 136.6 92.58 140.29 96.28 132.91 103.67 125.54 103.67 118.14 88.88 118.14 81.47 103.38 66.65 110.76 59.26 96.01 44.48 103.38 37.08 103.38 22.28 110.77 14.88 121.85 25.97 118.14 37.06 125.53 44.46 140.29 66.68 155.06 74.06 173.53 92.56 184.61 96.26 184.6 103.67 191.98 103.67 199.37 96.27 184.6 88.85 180.91 77.77 169.83 74.08 147.68 59.28 125.53 37.06 125.53 22.26 110.76 7.47 110.76 0.09 103.38 0.09"/><path class="a" d="M524.71,88.31c7.33,0,11.75-3,11.75-6.59,0-5.21-7.93-6.11-11.55-6.8-14.66-2.75-31.84-5.52-31.84-24.39,0-14.1,14.47-23.08,31.07-23.08,9.36,0,20.13,4,27.5,8.65l-10,13.45c-6.13-3.08-13.3-5.36-17.76-5.36-8.52,0-11.71,2.23-11.71,5.29,0,5.23,10.71,6.2,16.3,7.53,13.61,3.2,27.21,7.05,27.21,23.84,0,15.54-16.16,24.21-32.09,24.21-11.78,0-23.41-5.11-31.35-10.37l9.67-13.21c7,3.65,14.55,6.83,22.82,6.83"/><polygon class="a" points="228.61 103.48 228.61 9.79 248.2 0 248.2 103.48 228.61 103.48"/><path class="a" d="M329.75,103.48H310.17V63.18c0-13.34-4.54-17.3-12.63-17.3s-12.77,4-12.77,16.87v40.73H265.19V29h19.58v5c3.4-3.54,9.65-6.52,17.45-6.52,19,0,27.53,13.06,27.53,34.06Z"/><path class="a" d="M409.94,29l-26.81,74.49H363L336.17,29h21.56l10.92,34.49c1.8,5.67,3.83,12.75,4.69,16.31.85-3.7,2.84-10.52,4.68-16.31L388.94,29Z"/><path class="a" d="M450.39,105c-21.74,0-37.25-15.18-37.25-38.72,0-22.85,15.9-38.88,35.48-38.88,20.78,0,33.92,17.59,33.92,38.88a55.62,55.62,0,0,1-.3,6.24h-49c1.36,9.71,9.45,14,17.18,14A17.57,17.57,0,0,0,464.25,80l15,11c-8.1,11.07-21,14-28.89,14M463,57.8c-1-7.17-5.61-13.34-15-13.34-7.38,0-13.13,5.81-14.4,13.34Z"/><path class="a" d="M602.93,46.3c-11,0-18.94,9-18.94,20s7.93,19.87,18.94,19.87a18.36,18.36,0,0,0,15.88-8.8l15.71,11.45a38.84,38.84,0,1,1,.09-44.95L618.87,55.41a18.27,18.27,0,0,0-15.94-9.11"/><path class="a" d="M717.91,66.3A38.81,38.81,0,1,1,679.1,27.42,38.73,38.73,0,0,1,717.91,66.3M698,66.3c0-11-7.92-20-18.94-20s-18.94,9-18.94,20,7.93,19.87,18.94,19.87S698,77.31,698,66.3"/></svg>