<svg xmlns="http://www.w3.org/2000/svg" viewBox="0 0 787.24 88.84"><defs><style>.a{fill:#e40520;}</style></defs><title>logo-prudential</title><path class="a" d="M677.76,0H660.67L626.31,86.5h19.1l6-16.6h36l6.21,16.6h19.1ZM657.32,53.81l11.89-32.69,12.24,32.69Z"/><path class="a" d="M316,4.19C310.25,1.51,303.21,0,291.15,0H259.8V86.5h31.35c12.06,0,19.1-1.52,24.8-4.2,13.42-6.36,21.46-19.61,21.46-39S329.37,10.56,316,4.19Zm-6.86,62.86c-3.19,2-8.89,3.36-15.94,3.36H277.4V16.09h15.75c7.05,0,12.75,1.34,15.94,3.35C317,24.31,319.64,34,319.64,43.25S317,62.19,309.09,67.05Z"/><polygon class="a" points="417.38 0 347.63 0 347.63 86.5 420.38 86.5 415.19 70.41 365.23 70.41 365.23 50.12 406.99 50.12 406.99 34.03 365.23 34.03 365.23 16.09 413.85 16.09 417.38 0"/><rect class="a" x="598.83" width="17.6" height="86.5"/><polygon class="a" points="782.04 70.41 740.31 70.41 740.31 0 722.72 0 722.72 86.5 787.24 86.5 782.04 70.41"/><polygon class="a" points="509.94 0 492.35 0 492.35 55.48 449.1 0 429.82 0 429.82 86.5 447.41 86.5 447.41 25.48 494.02 86.5 509.94 86.5 509.94 0"/><path class="a" d="M59.18,2.85C54.14.84,48.61,0,35.54,0H0V86.5H17.62V57.83H35.54c13.07,0,18.6-.84,23.64-2.84,11.06-4.37,16.76-13.58,16.76-26.16C75.94,16.43,70.24,7.21,59.18,2.85ZM51.63,40.06c-2.35,1-5,1.68-14.24,1.68H17.62V16.09H37.39c9.21,0,11.89.67,14.24,1.68,4.7,2,6.55,6.37,6.55,11.23S56.33,38.05,51.63,40.06Z"/><path class="a" d="M142.35,51v-.34c10.55-3,17.42-10.39,17.42-23.8A25.37,25.37,0,0,0,145.19,3.35C141,1.34,135.8,0,126.26,0H85V86.5h17.6V55.82h10.56a26.05,26.05,0,0,1,10.4,1.68c7.7,3.18,13.24,11.73,19.27,29H163.3C158.1,71.24,151.22,57.5,142.35,51ZM136,38.22c-2,1-4.7,1.52-10.06,1.52h-23.3V16.09h23.3c5.36,0,8.05.5,10.06,1.51a11,11,0,0,1,6,10.23C142,32.36,140,36.21,136,38.22Z"/><polygon class="a" points="593.24 0 516.8 0 516.8 16.09 544.8 16.09 544.8 86.5 562.4 86.5 562.4 16.09 588.04 16.09 593.24 0"/><path class="a" d="M207.56,88.84c16.93,0,31-6.87,36.2-21.12,1.17-3.18,2-7.37,2-15.26V0H228.17V52.3c0,5.53-.66,8.38-1.68,10.73-3.18,7.38-10.73,10.56-18.93,10.56S191.8,70.41,188.61,63c-1-2.35-1.68-5.2-1.68-10.73V0h-17.6V52.46c0,7.89.86,12.08,2,15.26C176.54,82,190.62,88.84,207.56,88.84Z"/></svg>