<svg xmlns="http://www.w3.org/2000/svg" viewBox="0 0 715.03 220.52"><defs><style>.a{fill:#765d9e;}.b{fill:#5c6062;}.c{fill:#bdb5d8;}</style></defs><path class="a" d="M650.24,6.91a46.11,46.11,0,0,1,7.54-4.49A23.81,23.81,0,0,1,667.89.36a16.51,16.51,0,0,1,9,2.3,34.11,34.11,0,0,1,7.66,6.88l8.42,9.62.4.59a17.43,17.43,0,0,1,2.83,9.62,17.26,17.26,0,0,1-3.69,10.74c-1.94,2.44-6.5,7.62-6.5,7.62Z"/><path class="b" d="M56.24,132.21a33.79,33.79,0,0,0,9.36-1.16,37,37,0,0,0,7.22-2.86,29.69,29.69,0,0,0,5.54-3.71c1.56-1.34,3-2.57,4.25-3.71a60.05,60.05,0,0,1,5.31,8.16q2.76,5,2.76,8.16,0,4.66-5.29,8.48-4.45,3.39-12.6,5.82a67.58,67.58,0,0,1-19.18,2.44A76.29,76.29,0,0,1,34,151.28a43.24,43.24,0,0,1-17.16-8.9,45.71,45.71,0,0,1-12.19-17Q0,114.64,0,98.32,0,85,4.13,75.33a46.24,46.24,0,0,1,11-16A43.6,43.6,0,0,1,30.72,50a54.93,54.93,0,0,1,17.8-3q11.86,0,20.13,3.71a36.68,36.68,0,0,1,13.46,10A39.33,39.33,0,0,1,89.63,75,60.78,60.78,0,0,1,92,92v3c0,1.13,0,2.32-.11,3.6s-.14,2.51-.21,3.7a21.52,21.52,0,0,1-.32,2.86H28.82q.84,11.67,7.23,19.39t20.19,7.73m9.66-43q0-10.17-4-16.52T47.78,66.32q-8.73,0-14,6T28.61,89.2Z"/><path class="b" d="M136.66,150.23H107.85V50c.7-.14,1.54-.29,2.52-.43s1.82-.24,2.94-.32,2.46-.1,4-.1A26.21,26.21,0,0,1,129,51.59q4.94,2.44,6.2,8.59,3.62-4.87,11.17-9T166.44,47q11.91,0,17.76,4.24a26.58,26.58,0,0,1,8.61,10,41,41,0,0,1,12.29-9.85Q212.95,47,225,47a43.92,43.92,0,0,1,13,1.7,27.74,27.74,0,0,1,9.11,4.66,21.21,21.21,0,0,1,5.72,6.88,26.66,26.66,0,0,1,2.65,8.37,92.47,92.47,0,0,1,1.16,10.59c.22,3.82.32,7.57.32,11.23v59.76H228.2V91.75c0-3.11-.07-5.93-.22-8.48a16.8,16.8,0,0,0-1.58-6.57,9.53,9.53,0,0,0-4.24-4.23A17.52,17.52,0,0,0,214.21,71a22.71,22.71,0,0,0-10.49,2.54q-5,2.53-6.88,5.5a122.69,122.69,0,0,1,.63,12.51v58.69H168.65V91.75c0-3.11-.06-6-.21-8.69a16.76,16.76,0,0,0-1.7-6.89,10.46,10.46,0,0,0-4.48-4.45c-2-1.06-4.84-1.58-8.54-1.58q-7.47,0-12.26,3.28t-4.8,8.16Z"/><path class="b" d="M300.66,56.36A36,36,0,0,1,310,50.11q6.13-3.06,15.89-3.07a50.68,50.68,0,0,1,15.78,2.44A32.56,32.56,0,0,1,355,57.85a42.52,42.52,0,0,1,9.32,15.57q3.51,9.64,3.5,24,0,16.53-3.81,27.33t-9.85,17.06a33.88,33.88,0,0,1-13.56,8.79,47,47,0,0,1-15.15,2.54,38.51,38.51,0,0,1-11.77-1.6,42.33,42.33,0,0,1-8.26-3.53,24.85,24.85,0,0,1-5.08-3.74,22.57,22.57,0,0,1-2.23-2.46,10.17,10.17,0,0,1-1.69,5.9c-1.14,1.65-3.11,2.46-5.93,2.46H271.84V.85c0-.14,1.06-.32,3.18-.53S279.33,0,281.59,0a38,38,0,0,1,6.89.64,14.86,14.86,0,0,1,6.13,2.54A14.41,14.41,0,0,1,299,8.37a18.76,18.76,0,0,1,1.7,8.58Zm37.07,41.43a65.91,65.91,0,0,0-1.05-12.14,28.79,28.79,0,0,0-3.5-9.61,17.69,17.69,0,0,0-6.57-6.34,20.33,20.33,0,0,0-10.06-2.32q-8.9,0-12.4,3.38a10.34,10.34,0,0,0-3.49,7.6v45.83a29.34,29.34,0,0,0,6,4.12,22.2,22.2,0,0,0,10.9,2.42q10.81,0,15.47-8.55t4.66-24.39"/><path class="b" d="M464.22,125.65q0,16.74,4.88,24.36a41,41,0,0,1-7.1,2.12,36.54,36.54,0,0,1-6.89.64q-7.62,0-11.55-3a13.32,13.32,0,0,1-5-8.49,38.16,38.16,0,0,1-12.29,8.27Q418.68,153,407.65,153a43,43,0,0,1-11.44-1.58,30.14,30.14,0,0,1-10.38-5.18,26.85,26.85,0,0,1-7.63-9.61,32.91,32.91,0,0,1-3-14.68q0-10.77,5.2-17.53a37,37,0,0,1,13-10.66,58.93,58.93,0,0,1,17-5.39,164.41,164.41,0,0,1,16.73-1.9c1.7-.14,3.36-.21,5-.21h4.55V82.38q0-8.14-4.35-11.57t-14.08-3.43a41.65,41.65,0,0,0-16.21,3,132.74,132.74,0,0,0-13.88,6.78,31.23,31.23,0,0,1-4.77-7.94,19.25,19.25,0,0,1-1.8-6.47c0-2,1.1-3.88,3.29-5.72a31.74,31.74,0,0,1,9-5A73.73,73.73,0,0,1,407,48.42,85.59,85.59,0,0,1,422.7,47a69.82,69.82,0,0,1,19.38,2.33A30.33,30.33,0,0,1,455,56.58a27.35,27.35,0,0,1,7.1,12.18,62.07,62.07,0,0,1,2.11,17.06ZM437.1,101.07h-3a21.19,21.19,0,0,0-3,.21q-5.3.43-10.49,1.27a30.2,30.2,0,0,0-9.21,3A19.18,19.18,0,0,0,404.9,111a14.06,14.06,0,0,0-2.55,8.68,15.4,15.4,0,0,0,3.39,10.07q3.39,4.13,11.45,4.13a26.85,26.85,0,0,0,7.63-1.06,26.11,26.11,0,0,0,6.35-2.75,16.59,16.59,0,0,0,4.35-3.71,6.16,6.16,0,0,0,1.58-3.71Z"/><path class="b" d="M507.24,59.86a35.88,35.88,0,0,1,3.39-4.2,24,24,0,0,1,5.19-4.2,32.49,32.49,0,0,1,6.78-3.16A24.51,24.51,0,0,1,530.54,47a37.11,37.11,0,0,1,5.4.42,18.87,18.87,0,0,1,5.3,1.57,10.33,10.33,0,0,1,3.92,3.16,8,8,0,0,1,1.48,4.93,29.7,29.7,0,0,1-2.33,10.62A87.48,87.48,0,0,1,539.66,78a31.79,31.79,0,0,0-7.21-4.55A20.85,20.85,0,0,0,524,71.83a16.33,16.33,0,0,0-11,3.82,11.68,11.68,0,0,0-4.46,9.14v65.44H479.69V50c.71-.14,1.55-.28,2.54-.43s1.84-.24,3-.32,2.47-.1,4-.1A24.86,24.86,0,0,1,501,51.79a11.76,11.76,0,0,1,6.26,8.07"/><path class="b" d="M587.75,109.76a24.19,24.19,0,0,1-3-4.77,19.16,19.16,0,0,1-1.69-5.83v51.06H554.27V.85c0-.14,1.06-.32,3.18-.53S561.76,0,564,0a37.13,37.13,0,0,1,6.78.64,15.82,15.82,0,0,1,6.14,2.54,14,14,0,0,1,4.45,5.19,18.76,18.76,0,0,1,1.7,8.58V92.8a23.92,23.92,0,0,1,5.5-10.59l22.47-25.64a32.76,32.76,0,0,1,7.3-6.57,16.72,16.72,0,0,1,9-2.32,23.21,23.21,0,0,1,9.85,2,41.93,41.93,0,0,1,8.37,5.19L611.06,94.71l39.61,52.55a27.65,27.65,0,0,1-7.41,3.6,32.34,32.34,0,0,1-22-1q-5.07-2.43-10-8.58Z"/><path class="c" d="M715,50.49c0-3.89-1.56-7.32-5.75-12.66l-9.6-11a23,23,0,0,1,.14,2.5,21.49,21.49,0,0,1-4.49,13c-1.44,1.86-6.92,8.11-6.92,8.11s5.47,6.24,6.92,8.12a21.64,21.64,0,0,1,4.49,13,23.13,23.13,0,0,1-.14,2.5l9.6-11c4.19-5.34,5.75-8.78,5.75-12.66v-.07Z"/><path class="a" d="M650.24,94.13a46.31,46.31,0,0,0,7.54,4.5,23.81,23.81,0,0,0,10.11,2.05,16.65,16.65,0,0,0,9-2.29,34.58,34.58,0,0,0,7.65-6.89l8.42-9.62.41-.59a17.63,17.63,0,0,0-.87-20.36c-1.94-2.44-6.5-7.62-6.5-7.62Z"/><path class="a" d="M235.4,170.34a4.44,4.44,0,0,1,1.21-3.22,4.26,4.26,0,0,1,6,0,4.45,4.45,0,0,1,1.22,3.22,4.24,4.24,0,1,1-8.48,0m1.17,11.7A13.52,13.52,0,0,1,238,182c3.5,0,5.26,1.78,5.26,5.35v25c0,1.68.26,2.79.78,3.34a4.13,4.13,0,0,0,3,.82v2.83a14.19,14.19,0,0,1-4.32.55,7.54,7.54,0,0,1-3.46-.7,4.52,4.52,0,0,1-2-2.25,14.13,14.13,0,0,1-.67-5.14Z"/><path class="a" d="M253.77,182.27a12.68,12.68,0,0,1,1.34-.07,5.53,5.53,0,0,1,3.45,1,4.16,4.16,0,0,1,1.57,3,15.21,15.21,0,0,1,5.38-3.42,19.11,19.11,0,0,1,6.88-1.22,13.27,13.27,0,0,1,7.81,2.12,10.24,10.24,0,0,1,4,6.13,32.23,32.23,0,0,1,.56,7.22v22.31h-6.68V197.28a21.56,21.56,0,0,0-.47-5.42,5.15,5.15,0,0,0-2.44-3.22,10.08,10.08,0,0,0-4.95-1,15,15,0,0,0-5.06.8,9,9,0,0,0-3.5,2.07,3.9,3.9,0,0,0-1.25,2.72v26.15h-6.68Z"/><path class="a" d="M288.33,182.83a11.18,11.18,0,0,1,3.54-.63,4.51,4.51,0,0,1,3.26,1.18,11.05,11.05,0,0,1,2.24,4.47l8.4,25,8.56-24.66a19.23,19.23,0,0,1,1.5-3.58,4.73,4.73,0,0,1,1.71-1.8,4.79,4.79,0,0,1,2.44-.59,6.27,6.27,0,0,1,3.15.71L309,219.66h-6.83Z"/><path class="a" d="M332,202.15q.23,6.12,3.18,9.42t8.44,3.3A13,13,0,0,0,354,210.39a14.71,14.71,0,0,1,1.57,2.4,4.77,4.77,0,0,1,.63,1.92,3.63,3.63,0,0,1-1.74,2.68q-4.23,3.13-11.46,3.13-8.64,0-13.27-5.09t-4.64-14.86a22.31,22.31,0,0,1,2.16-10.21,15.5,15.5,0,0,1,6.05-6.51,16.85,16.85,0,0,1,8.68-2.28,15.83,15.83,0,0,1,8.17,2,13,13,0,0,1,5.14,5.7,19.36,19.36,0,0,1,1.77,8.48,28,28,0,0,1-.24,4.4Zm18.38-5q0-10-8.73-10.05a8.93,8.93,0,0,0-6.75,2.71,11.34,11.34,0,0,0-2.9,7.34Z"/><path class="a" d="M384.55,191.08a10.83,10.83,0,0,0-4.09-3A13,13,0,0,0,375.2,187a9.38,9.38,0,0,0-5.11,1.22,3.91,3.91,0,0,0-1.88,3.49,3.84,3.84,0,0,0,.67,2.24,5.27,5.27,0,0,0,2.23,1.73A27.93,27.93,0,0,0,376,197.2a27.28,27.28,0,0,1,7.11,2.59,9.79,9.79,0,0,1,3.77,3.73,11,11,0,0,1,1.22,5.3,10.26,10.26,0,0,1-4,8.45,16.21,16.21,0,0,1-10.36,3.18,21.58,21.58,0,0,1-8.64-1.49q-3.54-1.43-3.54-3.3a4.86,4.86,0,0,1,.39-1.77A20.33,20.33,0,0,1,363.5,211a16.77,16.77,0,0,0,4.94,2.94,15.36,15.36,0,0,0,5.5,1.05,9.25,9.25,0,0,0,5.58-1.44,4.93,4.93,0,0,0,2-4.21,4.81,4.81,0,0,0-1.73-3.88c-1.15-1-3.3-1.8-6.44-2.47-4.13-.9-7.11-2.22-8.91-4a9.26,9.26,0,0,1-2.71-7,9.12,9.12,0,0,1,3.78-7.66,15.34,15.34,0,0,1,9.57-2.87,23.43,23.43,0,0,1,5.34.59,14.55,14.55,0,0,1,4.09,1.53c1.77,1,2.66,2,2.66,3.07a9.21,9.21,0,0,1-1.48,4.24Z"/><path class="a" d="M394.44,171.12a13.37,13.37,0,0,1,1.42-.08c3.5,0,5.26,1.78,5.26,5.35v6h11.7v5.66h-11.7v20.26c0,4.3,1.7,6.44,5.1,6.44a6.6,6.6,0,0,0,2.63-.55,10.15,10.15,0,0,0,2.4-1.41,8.35,8.35,0,0,0,1.49-1.41c1.52,1.88,2.28,3.35,2.28,4.39a3.18,3.18,0,0,1-1.5,2.29,10.69,10.69,0,0,1-3.64,1.8,17.13,17.13,0,0,1-4.68.62q-7.84,0-10-5.88a21.34,21.34,0,0,1-.79-6.76Z"/><path class="a" d="M420.67,182.27c.59-.05,1.08-.07,1.5-.07q4.4,0,4.94,4a14.59,14.59,0,0,1,5.19-3.42,17.49,17.49,0,0,1,6.52-1.22,14.39,14.39,0,0,1,6.12,1.3,9,9,0,0,1,4.17,3.57,14.59,14.59,0,0,1,5.3-3.57,17.52,17.52,0,0,1,6.72-1.3,12.79,12.79,0,0,1,7.69,2.16,9.83,9.83,0,0,1,3.85,6.09,32.39,32.39,0,0,1,.55,7.22v22.31h-6.68V197.28c0-1,0-1.95,0-2.87a9,9,0,0,0-.42-2.55,5,5,0,0,0-2.32-3.22,10.29,10.29,0,0,0-5.07-1,11.24,11.24,0,0,0-4.63,1,9.8,9.8,0,0,0-3.54,2.51,46.06,46.06,0,0,1,.32,5.81v22.39h-6.68V197.28a18.21,18.21,0,0,0-.71-5.73c-.89-2.62-3.24-3.94-7.07-3.94a11.61,11.61,0,0,0-6.2,1.74c-1.88,1.15-2.83,2.38-2.83,3.68v26.32h-6.68Z"/><path class="a" d="M488,202.15q.24,6.12,3.19,9.42t8.43,3.3A13,13,0,0,0,510,210.39a14.79,14.79,0,0,1,1.58,2.4,4.72,4.72,0,0,1,.62,1.92,3.64,3.64,0,0,1-1.73,2.68q-4.24,3.13-11.46,3.13-8.64,0-13.28-5.09t-4.63-14.86a22.31,22.31,0,0,1,2.16-10.21,15.44,15.44,0,0,1,6-6.51,16.82,16.82,0,0,1,8.68-2.28,15.83,15.83,0,0,1,8.17,2,13,13,0,0,1,5.14,5.7,19.5,19.5,0,0,1,1.77,8.48,28,28,0,0,1-.24,4.4Zm18.38-5q0-10-8.72-10.05a8.91,8.91,0,0,0-6.75,2.71,11.29,11.29,0,0,0-2.91,7.34Z"/><path class="a" d="M520.34,182.27a12.55,12.55,0,0,1,1.34-.07,5.57,5.57,0,0,1,3.45,1,4.15,4.15,0,0,1,1.56,3,15.21,15.21,0,0,1,5.38-3.42,19.18,19.18,0,0,1,6.88-1.22,13.3,13.3,0,0,1,7.82,2.12,10.29,10.29,0,0,1,4,6.13,32.39,32.39,0,0,1,.55,7.22v22.31h-6.68V197.28a21.09,21.09,0,0,0-.47-5.42,5.14,5.14,0,0,0-2.43-3.22,10.13,10.13,0,0,0-4.95-1,15.11,15.11,0,0,0-5.07.8,8.94,8.94,0,0,0-3.49,2.07A3.91,3.91,0,0,0,527,193.2v26.15h-6.67Z"/><path class="a" d="M561,171.12a13.33,13.33,0,0,1,1.41-.08c3.5,0,5.27,1.78,5.27,5.35v6H579.4v5.66H567.71v20.26c0,4.3,1.69,6.44,5.09,6.44a6.53,6.53,0,0,0,2.63-.55,9.77,9.77,0,0,0,2.4-1.41,8.87,8.87,0,0,0,1.5-1.41c1.52,1.88,2.28,3.35,2.28,4.39a3.22,3.22,0,0,1-1.5,2.29,10.66,10.66,0,0,1-3.65,1.8,17,17,0,0,1-4.68.62q-7.85,0-10-5.88a21.69,21.69,0,0,1-.78-6.76Z"/><path class="a" d="M607.52,191.08a10.75,10.75,0,0,0-4.09-3,13,13,0,0,0-5.26-1.14,9.29,9.29,0,0,0-5.1,1.22,3.9,3.9,0,0,0-1.89,3.49,3.84,3.84,0,0,0,.67,2.24,5.37,5.37,0,0,0,2.24,1.73A27.76,27.76,0,0,0,599,197.2a27.37,27.37,0,0,1,7.12,2.59,9.76,9.76,0,0,1,3.76,3.73,10.86,10.86,0,0,1,1.22,5.3,10.25,10.25,0,0,1-4,8.45,16.26,16.26,0,0,1-10.37,3.18A21.55,21.55,0,0,1,588,219q-3.54-1.43-3.54-3.3a4.89,4.89,0,0,1,.4-1.77,19.73,19.73,0,0,1,1.56-2.86,17,17,0,0,0,5,2.94,15.24,15.24,0,0,0,5.5,1.05,9.21,9.21,0,0,0,5.57-1.44,4.92,4.92,0,0,0,2-4.21,4.84,4.84,0,0,0-1.73-3.88c-1.16-1-3.3-1.8-6.44-2.47-4.15-.9-7.11-2.22-8.92-4a9.29,9.29,0,0,1-2.7-7,9.11,9.11,0,0,1,3.77-7.66,15.34,15.34,0,0,1,9.57-2.87,23.43,23.43,0,0,1,5.34.59,14.55,14.55,0,0,1,4.09,1.53c1.78,1,2.67,2,2.67,3.07a9.16,9.16,0,0,1-1.5,4.24Z"/></svg>