<svg xmlns="http://www.w3.org/2000/svg" viewBox="0 0 648.04 170.66"><defs><style>.a{fill:#a85449;}.b{fill:#706f6f;}</style></defs><title>logo-smith-and-williamson</title><path class="a" d="M40.06,76.86H92.53V41.34H53.29a29.64,29.64,0,0,0-29.61,29.6V122H11.85V94.62a17.73,17.73,0,0,1,7.37-14.38v-9.3a34.72,34.72,0,0,1,.25-4.1A29.63,29.63,0,0,0,0,94.62v39.24H35.53V70.94A17.78,17.78,0,0,1,53.29,53.18H80.68V65H42c-1.31,1.32-1.91,3.72-1.91,5.92Z"/><path class="a" d="M88,133.86H35.53v35.53H74.77a29.64,29.64,0,0,0,29.6-29.61V88.71h11.84V116.1a17.74,17.74,0,0,1-7.38,14.39v9.29a34.72,34.72,0,0,1-.25,4.1,29.63,29.63,0,0,0,19.48-27.78V76.86H92.52v62.92a17.78,17.78,0,0,1-17.75,17.76H47.37V145.71H86.08C87.4,144.38,88,142,88,139.78Z"/><polygon class="b" points="240.66 154.32 240.45 154.32 222.78 94.25 211.11 94.25 193.44 154.32 193.23 154.32 176.62 94.25 166.01 94.25 187.98 169.39 198.8 169.39 216.84 108.05 217.05 108.05 235.19 169.39 246.02 169.39 267.88 94.25 257.27 94.25 240.66 154.32"/><path class="b" d="M279.68,94.05a7.05,7.05,0,1,0,4.93,2.06,6.78,6.78,0,0,0-4.93-2.06"/><polygon class="b" points="274.9 169.39 284.45 169.39 284.45 119.09 274.9 119.09 274.9 160.04 274.9 169.39"/><polygon class="b" points="295.81 169.39 305.36 169.39 305.36 94.26 295.81 94.26 295.81 160.04 295.81 169.39"/><polygon class="b" points="316.71 169.39 326.26 169.39 326.26 94.26 316.71 94.26 316.71 160.04 316.71 169.39"/><path class="b" d="M342.39,94.05a7.05,7.05,0,1,0,4.94,2.06,6.76,6.76,0,0,0-4.94-2.06"/><polygon class="b" points="337.62 169.39 347.17 169.39 347.17 119.09 337.62 119.09 337.62 160.04 337.62 169.39"/><path class="b" d="M400.37,160.26V134.58a16.56,16.56,0,0,0-1.22-6.31,14.52,14.52,0,0,0-3.77-5.37,18.48,18.48,0,0,0-6.52-3.7,29.07,29.07,0,0,0-9.5-1.39,31.89,31.89,0,0,0-10.61,1.86,26.79,26.79,0,0,0-9.34,5.57l5.73,5.94c.85-.63,1.74-1.3,2.66-2a16.36,16.36,0,0,1,3.08-1.86,21.78,21.78,0,0,1,3.76-1.33,19.8,19.8,0,0,1,4.83-.52,14.19,14.19,0,0,1,5.31.9,10.57,10.57,0,0,1,3.71,2.44,10.28,10.28,0,0,1,2.23,3.45,10.57,10.57,0,0,1,.74,3.81v2.13h-7a61.46,61.46,0,0,0-10.78.9,28.84,28.84,0,0,0-8.8,3,16.54,16.54,0,0,0-5.95,5.36,16.32,16.32,0,0,0-.79,14.7,13.71,13.71,0,0,0,3.77,4.72,16.18,16.18,0,0,0,5.57,2.87,23.35,23.35,0,0,0,6.68.95,23.88,23.88,0,0,0,10.09-2,18.35,18.35,0,0,0,7.53-6.9H392q0,3.81.32,7.64h8.49c-.14-1.34-.25-2.76-.32-4.25s-.11-3.11-.11-4.88m-8.91-11.88a18.84,18.84,0,0,1-.74,5.14,13.37,13.37,0,0,1-2.44,4.72,12.59,12.59,0,0,1-4.46,3.46,15.39,15.39,0,0,1-6.68,1.32,14.31,14.31,0,0,1-7.91-1.91c-2-1.28-2.92-3.36-2.92-6.26a6.7,6.7,0,0,1,1.86-4.88,12.35,12.35,0,0,1,4.77-3,27.26,27.26,0,0,1,6.48-1.44,66.12,66.12,0,0,1,6.95-.37h5.09Z"/><path class="b" d="M483,124.77a15.34,15.34,0,0,0-5.84-5,20.77,20.77,0,0,0-9.55-1.92,19.34,19.34,0,0,0-9,2.34,16,16,0,0,0-6.89,7,17.35,17.35,0,0,0-6.27-7,17.86,17.86,0,0,0-9.44-2.34,18.34,18.34,0,0,0-6.21,1,21.19,21.19,0,0,0-4.88,2.45,17,17,0,0,0-3.4,3,8.27,8.27,0,0,0-1.64,2.65h-.21v-7.85h-8.92v50.3h9.55V143.28a23.21,23.21,0,0,1,1.06-7.37,14.56,14.56,0,0,1,2.87-5.15,11.67,11.67,0,0,1,4.19-3,12.44,12.44,0,0,1,4.94-1A11,11,0,0,1,439,128a8.1,8.1,0,0,1,3.18,3.4,15.52,15.52,0,0,1,1.49,5.14,54.94,54.94,0,0,1,.37,6.58v26.32h9.55V141.9c0-4.45,1-8.1,3-10.92s5.27-4.25,9.87-4.25A11.26,11.26,0,0,1,472,128a8.73,8.73,0,0,1,3.29,3.23,12.85,12.85,0,0,1,1.54,4.68,39.21,39.21,0,0,1,.37,5.51v28h9.55V140.1a42,42,0,0,0-.8-8.23,19.23,19.23,0,0,0-2.91-7.1"/><path class="b" d="M530.63,144.77A16.16,16.16,0,0,0,526,142a45,45,0,0,0-5.78-1.81l-3.82-.74a19.27,19.27,0,0,1-4.19-1.27,11.21,11.21,0,0,1-3.4-2.23,4.76,4.76,0,0,1-1.43-3.61,4.57,4.57,0,0,1,2.49-4.19,11.68,11.68,0,0,1,5.89-1.43,12.13,12.13,0,0,1,6.1,1.43,14.5,14.5,0,0,1,4.19,3.56l7.43-5.63a15.45,15.45,0,0,0-7.43-6.36,25.39,25.39,0,0,0-9.76-1.92,25.83,25.83,0,0,0-6.95,1,19.7,19.7,0,0,0-6.16,2.87,14.55,14.55,0,0,0-4.34,4.82,13.6,13.6,0,0,0-1.65,6.85,12.92,12.92,0,0,0,1.27,6,11.72,11.72,0,0,0,3.4,4,17.49,17.49,0,0,0,4.88,2.54,60,60,0,0,0,5.84,1.7c1.06.22,2.28.48,3.66.8a23,23,0,0,1,3.92,1.27,9.53,9.53,0,0,1,3.18,2.18,4.81,4.81,0,0,1,1.33,3.5,4.6,4.6,0,0,1-.9,2.81,7.12,7.12,0,0,1-2.33,2,11,11,0,0,1-3.29,1.17,18.48,18.48,0,0,1-3.66.37,12.85,12.85,0,0,1-7-1.8,30,30,0,0,1-5.2-4.13L495,161.74a19.66,19.66,0,0,0,8.43,7,29.24,29.24,0,0,0,11,1.91,32.88,32.88,0,0,0,7.37-.85,19.62,19.62,0,0,0,6.53-2.76,15.3,15.3,0,0,0,4.67-4.93,14,14,0,0,0,1.8-7.27,14.25,14.25,0,0,0-1.11-5.94,12,12,0,0,0-3.08-4.14"/><path class="b" d="M586.71,125.56A26.85,26.85,0,0,0,543,134,25.57,25.57,0,0,0,541,144.24,26.18,26.18,0,0,0,548.72,163a27.2,27.2,0,0,0,38,0,26.12,26.12,0,0,0,7.74-18.73A25.73,25.73,0,0,0,592.39,134a26.82,26.82,0,0,0-5.68-8.39m-3.61,25.73a15.84,15.84,0,0,1-3.29,5.52,15.16,15.16,0,0,1-5.2,3.61,18.67,18.67,0,0,1-13.79,0,15.06,15.06,0,0,1-5.2-3.61,15.84,15.84,0,0,1-3.29-5.52,21.86,21.86,0,0,1,0-14.11,15.84,15.84,0,0,1,3.29-5.52,15.18,15.18,0,0,1,5.2-3.6,18.54,18.54,0,0,1,13.79,0,15.27,15.27,0,0,1,5.2,3.6,15.84,15.84,0,0,1,3.29,5.52,21.86,21.86,0,0,1,0,14.11"/><path class="b" d="M646.56,128.37a16.8,16.8,0,0,0-4-6,15.66,15.66,0,0,0-5.84-3.45,22,22,0,0,0-7-1.12,20.74,20.74,0,0,0-10.29,2.5,14.05,14.05,0,0,0-6.26,6.53H613v-7.75h-9.55v50.3H613v-25.9a23.82,23.82,0,0,1,1.07-7.53,14.34,14.34,0,0,1,3-5.26,11.75,11.75,0,0,1,4.46-3,15.76,15.76,0,0,1,5.52-1,13.49,13.49,0,0,1,4.3.69,9.49,9.49,0,0,1,3.66,2.23,11,11,0,0,1,2.55,4,16.92,16.92,0,0,1,1,6v29.72H648V137a22.93,22.93,0,0,0-1.48-8.65"/><path class="b" d="M183.11,66.22a15.78,15.78,0,0,1-4.83,2.38,18,18,0,0,1-5.2.79,21.1,21.1,0,0,1-8.86-2,16.57,16.57,0,0,1-7.05-6.1l-8.39,7.22a22.53,22.53,0,0,0,10.29,7.85A37,37,0,0,0,172.76,79,32,32,0,0,0,183,77.35a24.79,24.79,0,0,0,8.28-4.55,21.92,21.92,0,0,0,5.57-7.32,22.5,22.5,0,0,0,2.07-9.77q0-6.8-2.76-10.67a20.68,20.68,0,0,0-6.85-6.15,38.57,38.57,0,0,0-8.91-3.56,82.72,82.72,0,0,1-8.91-2.86,21.34,21.34,0,0,1-6.85-4.14q-2.76-2.55-2.76-7.32a11.61,11.61,0,0,1,.69-3.72,10.19,10.19,0,0,1,2.39-3.76,12.62,12.62,0,0,1,4.51-2.86,19.1,19.1,0,0,1,7.06-1.12,17.18,17.18,0,0,1,8,1.8,13.88,13.88,0,0,1,5.41,4.78l8.27-7.53a20.23,20.23,0,0,0-9.86-6.9A40.68,40.68,0,0,0,176.48,0a29.41,29.41,0,0,0-11.62,2.07A24.9,24.9,0,0,0,157,7.21,20,20,0,0,0,151,21q0,7.32,2.76,11.62a21.78,21.78,0,0,0,6.84,6.84,36,36,0,0,0,8.92,4c3.21,1,6.19,1.95,8.91,3a23.92,23.92,0,0,1,6.85,3.81A8.15,8.15,0,0,1,188,56.88a10.44,10.44,0,0,1-1.38,5.41,13.21,13.21,0,0,1-3.55,3.93"/><path class="b" d="M284.45,77V47.75a41.92,41.92,0,0,0-.79-8.23,19.25,19.25,0,0,0-2.92-7.1,15.41,15.41,0,0,0-5.84-5,20.77,20.77,0,0,0-9.55-1.92,19.22,19.22,0,0,0-9,2.34,16.09,16.09,0,0,0-6.9,7,17.26,17.26,0,0,0-6.26-7,17.74,17.74,0,0,0-9.44-2.34,18.3,18.3,0,0,0-6.21,1,21.19,21.19,0,0,0-4.88,2.45,17,17,0,0,0-3.4,3,8.37,8.37,0,0,0-1.64,2.65h-.21V26.74h-8.92V77H218V50.94a23.23,23.23,0,0,1,1.06-7.38A14.9,14.9,0,0,1,222,38.41a11.67,11.67,0,0,1,4.19-3,12.44,12.44,0,0,1,4.94-1,11,11,0,0,1,5.57,1.22,8.16,8.16,0,0,1,3.18,3.4,15.52,15.52,0,0,1,1.49,5.14,55.06,55.06,0,0,1,.37,6.58V77h9.55V49.55c0-4.45,1-8.1,3-10.92s5.27-4.25,9.87-4.25a11.29,11.29,0,0,1,5.62,1.22A8.75,8.75,0,0,1,273,38.84a12.74,12.74,0,0,1,1.54,4.67A39.21,39.21,0,0,1,274.9,49V77Z"/><path class="b" d="M300.6,1.7a6.76,6.76,0,0,0-4.94,2.07,6.73,6.73,0,0,0-2.07,4.93,6.76,6.76,0,0,0,2.07,4.94,6.94,6.94,0,0,0,9.87,0A6.76,6.76,0,0,0,307.6,8.7a6.73,6.73,0,0,0-2.07-4.93A6.73,6.73,0,0,0,300.6,1.7"/><polygon class="b" points="305.37 26.74 295.82 26.74 295.82 67.52 295.82 77.04 305.37 77.04 305.37 26.74"/><path class="b" d="M347.7,76.61v-8.7a10.23,10.23,0,0,1-3.29,1.17,20.39,20.39,0,0,1-3.5.31,7.3,7.3,0,0,1-4.2-1,6.07,6.07,0,0,1-2.12-2.65A11,11,0,0,1,333.8,62c-.08-1.38-.11-2.77-.11-4.19V35h13.69V26.74H333.69V12.63h-9.55V26.74h-11V35h11V61.22c0,2.06.09,4.09.27,6.11a12.86,12.86,0,0,0,1.69,5.47,10.5,10.5,0,0,0,4.46,4c2,1,4.86,1.54,8.54,1.54a31.1,31.1,0,0,0,4.19-.38,12.3,12.3,0,0,0,4.41-1.32"/><path class="b" d="M403.19,77V44.67A23,23,0,0,0,401.71,36a16.76,16.76,0,0,0-4-6,15.58,15.58,0,0,0-5.84-3.45,21.9,21.9,0,0,0-6.95-1.12A20.74,20.74,0,0,0,374.65,28a14.08,14.08,0,0,0-6.26,6.52h-.21V6.2h-9.56V77h9.56V51.15a23.86,23.86,0,0,1,1.06-7.54,14.23,14.23,0,0,1,3-5.25,11.51,11.51,0,0,1,4.46-3,15.67,15.67,0,0,1,5.51-.95,13.49,13.49,0,0,1,4.3.69,9.49,9.49,0,0,1,3.66,2.23,10.9,10.9,0,0,1,2.55,4,16.69,16.69,0,0,1,.95,6V77Z"/><path class="b" d="M470.1,49.21h-9.4l-5.91,9.63-8.41-8.76c1-.54,1.94-1.13,2.89-1.77a19.74,19.74,0,0,0,3.41-2.9,14.54,14.54,0,0,0,2.5-3.67,10.57,10.57,0,0,0,1-4.54A12,12,0,0,0,455.07,32a10.76,10.76,0,0,0-3-3.74A12.71,12.71,0,0,0,447.78,26a18,18,0,0,0-10.38.08A13.6,13.6,0,0,0,433,28.46a11.34,11.34,0,0,0-4.25,9.16,12.13,12.13,0,0,0,1.82,6.68A36.33,36.33,0,0,0,434,48.82a31.26,31.26,0,0,0-3.47,2,19.66,19.66,0,0,0-3.73,3.26,14.82,14.82,0,0,0-2.57,4.07,12.7,12.7,0,0,0-1,5,16,16,0,0,0,1,5.52,13.69,13.69,0,0,0,3.1,4.83A15.1,15.1,0,0,0,432.68,77a20.29,20.29,0,0,0,7.53,1.28,17.63,17.63,0,0,0,8.84-2.12,25.34,25.34,0,0,0,6.31-5.31L461.07,77h11.1L460.12,64.64ZM443.54,70.37a9.26,9.26,0,0,1-6.29-.09,9.68,9.68,0,0,1-2.75-1.71A8.37,8.37,0,0,1,432.59,66a6.86,6.86,0,0,1-.7-3.05,7,7,0,0,1,.66-3.05,9.08,9.08,0,0,1,1.78-2.49,16.13,16.13,0,0,1,2.56-2.06c.81-.53,1.62-1,2.42-1.49l11,11.49c-.51.6-1.06,1.17-1.64,1.73A15.17,15.17,0,0,1,446.32,69a13,13,0,0,1-2.78,1.36m-5.12-28.58a11.13,11.13,0,0,1-1.11-2,5.56,5.56,0,0,1-.4-2.09A4.36,4.36,0,0,1,438.57,34a6.59,6.59,0,0,1,4.15-1.34,5.64,5.64,0,0,1,3.83,1.25A4.08,4.08,0,0,1,448,37.2a5.18,5.18,0,0,1-.64,2.59A9.46,9.46,0,0,1,445.62,42a15.49,15.49,0,0,1-2.35,1.79c-.72.44-1.42.85-2.09,1.24q-.63-.65-1.26-1.32a18.32,18.32,0,0,1-1.5-1.87"/></svg>