<svg xmlns="http://www.w3.org/2000/svg" viewBox="0 0 662.61 283.98"><defs><style>.a{fill:#d13c16;}</style></defs><path d="M662.61,48.7V189.22H632.23V171.93c-4.82,8.42-18.51,20.72-44.34,20.72s-46.59-16.86-46.59-48.6V48.67h30.81V137c0,19,10.2,29,25.34,29a34.4,34.4,0,0,0,34-35.46V48.34h31.14ZM512.69,47.11c-21.41,0-35.57,11.42-40.68,23.4V48.7H441.79V189.22h30.78V123.13c0-28.61,15.71-43.88,35.17-45.95a45.55,45.55,0,0,1,16.13.69V48.34a39.19,39.19,0,0,0-11.25-1.45m-86.47,13c0,36.26-22.64,59.56-61,59.56h-47.9v69.68h-32.6V.07h80.24c38.4,0,61,23.26,61,59.78m-33.2,0a28.49,28.49,0,0,0-30.52-30.52H317.24V90.6h44.93A28.47,28.47,0,0,0,393,60"/><rect class="a" width="189.28" height="189.28"/><path class="a" d="M311.66,260.49c0,8.88-5.18,14.81-12,14.81a10.61,10.61,0,0,1-8.94-4.29v13h-6.34V246.37h6.34V250a10.71,10.71,0,0,1,9.1-4.36c6.67,0,11.85,5.81,11.85,14.82Zm-6.34,0c0-6.34-3.22-9.31-7.32-9.31s-7.48,3.6-7.48,9.31,3.16,9.57,7.41,9.57,7.33-3.5,7.33-9.57Zm33.53-3.1v17.55h-6.34v-3.63a9.11,9.11,0,0,1-8.34,4,8.8,8.8,0,0,1-9.64-8.81c0-6.33,5-8.91,13.63-8.91h4.28v-.19a5.37,5.37,0,0,0-5.57-6.34,8.64,8.64,0,0,0-6.83,3.5l-4.06-3.5a13.66,13.66,0,0,1,10.89-5.31,10.43,10.43,0,0,1,12,11.65Zm-6.34,5h-3.36c-5,0-8.55.89-8.55,4.29s1.85,4.12,4.88,4.12a6.9,6.9,0,0,0,7-6.34Zm49.23,12a17.27,17.27,0,0,1-5.51.93c-5,0-8.31-2-8.31-7.72v-16h-4.23v-5.24h4.23v-8h6.33v7.79h7v5.25h-7v14.45c0,3,.82,3.86,3.23,3.86a9.27,9.27,0,0,0,3-.5Zm14.45-13.88a14,14,0,1,1,14,14.81,13.66,13.66,0,0,1-14-14.81Zm21.58,0c0-5.78-3-9.38-7.59-9.38s-7.59,3.6-7.59,9.38,3,9.57,7.59,9.57,7.59-3.8,7.59-9.57Zm18.78-14.12h6.75v5.24h-6.75v23h-6.34v-23h-4.13v-5.24h4.13v-2.55a8.16,8.16,0,0,1,9-8.67,16.3,16.3,0,0,1,4.52.69l-1.29,4.82a9.45,9.45,0,0,0-2.54-.37c-2.64,0-3.53,1.46-3.53,4.49v1.59Zm62.52,28.24h-6.34V246.5l-9.9,28.11h-7l-9.57-28.05v28.05H459.9v-38.7h8.68l10.32,30.41,11.16-30.41h8.68v38.7Zm32.79,0-2.28-2.35a18.54,18.54,0,0,1-10.68,3c-7.7,0-13.57-3.86-13.57-10.95a12.64,12.64,0,0,1,7-10.63,13.6,13.6,0,0,1-4-9,10.68,10.68,0,0,1,21.21,0c0,4.62-3.16,7.85-8,10.52l8,8.48a18.54,18.54,0,0,0,2.28-5.58l5.71,1.45a23.87,23.87,0,0,1-3.92,8.75l5.44,6.34Zm-6.33-6.7-9-9.9c-2.93,1.85-4.55,3.57-4.55,6.34,0,3.79,3.4,5.51,7.46,5.51a11.22,11.22,0,0,0,6.27-1.95Zm-10.82-22.86a8.49,8.49,0,0,0,3,5.8c3.86-1.87,5.51-3.6,5.51-6.33a3.79,3.79,0,0,0-4.23-3.93,3.94,3.94,0,0,0-4.18,4.46Zm61.07,8.6v21h-5.71v-4.06a11.8,11.8,0,0,1-10.39,4.82c-10.7,0-17.92-8.06-17.92-20.13a18.25,18.25,0,0,1,18.54-20.16,17.61,17.61,0,0,1,14.92,7.72l-5.15,3.5a10.6,10.6,0,0,0-9.7-5.15c-7,0-11.91,5.35-11.91,14.16s4.82,14.11,11.91,14.11a8.93,8.93,0,0,0,9.76-9.43v-.89H560.3v-5.45Zm45,6.84c0,8.88-5.18,14.81-12,14.81a10.58,10.58,0,0,1-8.9-4.29v13h-6.34V246.37h6.34V250a10.71,10.71,0,0,1,9.1-4.36c6.67,0,11.85,5.81,11.85,14.82Zm-6.34,0c0-6.34-3.23-9.31-7.36-9.31s-7.78,3.6-7.78,9.31,3.49,9.57,7.72,9.57,7.35-3.5,7.35-9.57Zm11.28-24.58H632v38.7h-6.34Zm11.1,24.65a13.45,13.45,0,0,1,13.85-14.82,12.57,12.57,0,0,1,12,6.83l-5.17,2.67a6.89,6.89,0,0,0-6.34-4.06c-4.81,0-7.72,3.67-7.72,9.31s2.77,9.57,7.46,9.57a6.77,6.77,0,0,0,6.33-4.39l5.32,2.54a12,12,0,0,1-11.79,7.29,13.48,13.48,0,0,1-13.91-14.94ZM359.44,246.1a8.67,8.67,0,0,0-8.19,4.68v-4.35h-6.33v28.18h6.33V261.32a8.23,8.23,0,0,1,7.29-9.24,8.41,8.41,0,0,1,3.24,0v-5.91a11.76,11.76,0,0,0-2.22,0"/></svg>