<svg xmlns="http://www.w3.org/2000/svg" viewBox="0 0 717.21 153.33"><defs><style>.a{fill:#c10a27;}</style></defs><path class="a" d="M235.57,113h34.86v-.94s-7.07-.19-6.86-12.8c0,0,0-38.86,0-38.87,0-27-27.29-26-27.29-26-11.45.21-19.21,7.17-21.11,9.07v-9L180,35.87v1c7.28.49,6.65,11.48,6.65,11.78v52.73c-2.4,0-6.58,0-6.58-.08-11.73-.66-11.75-12.69-11.71-13,0,0-.31-24.31-.31-24.17.14-17.45-10.25-23-10.11-23.16-19.65-12.16-47.78-3.81-47.78-3.81S104.13,56.18,104,56c29.88-13.1,34.77-.14,34.61-.59a5.73,5.73,0,0,1,.35,3.42C138,64.54,127.59,66,127.46,66a130.05,130.05,0,0,0-18.77,4.49C89.77,77,92.26,93,92.26,93.1c3.24,20.52,30.94,20,30.94,20h11.88l6-12.32C128.76,103.22,125,96.49,125,96.49,119.83,88,127.6,83,127.6,83c3-2.36,12.75-4.53,12.75-4.53V90.91c1,23,25.48,22.2,26.24,22.11h55.3v-.93s-6.5-.22-6.81-11.16l0-35.56h0C214.87,52.2,225.71,52,225.7,52c10.56-.1,9.8,9.27,9.87,11.36V99.31h.27l-.27,0V113"/><path class="a" d="M78.86,0V.93c11.06,4.3,6.93,15.17,6.93,15.17L65.56,80.74,38.22.18H0V1.32c6.55,1.5,9.75,12.9,9.75,12.9L34.83,84.1c6.93,19.68,19.93,23.56,19.93,23.56l16.05,6.23L109.39,0H78.86"/><path class="a" d="M679.28,99.31l0-99.12L643.74,1.58v1c7.25.49,6.63,11.48,6.63,11.76V40c-24.83-15.85-42.86,4.7-42.74,4.33C596,56,596.52,74.24,596.4,74.13c0,19.3,11.23,29.13,11.23,29.13,14.76,15.91,32.56,9.72,32.56,9.72s7.69-13.76,7.69-13.89c-21.94,3.68-21.94-24.85-21.82-25,0-24.49,13-23.1,13.12-23.23,11.19.13,11.18,13,11.18,12.54l0,1V113h0l35.87,0v-1s-7.15.71-7-12.8"/><path class="a" d="M572.59,44.68V34.49l-35.12,1.39v1c7.25.49,6.64,11.48,6.64,11.78l0,46.5v6.23c-2.28,0-7,0-7-.07-11.75-.67-11.77-12.7-11.72-13,0,0-.3-24.32-.3-24.18.12-17.45-10.26-23-10.12-23.16-19.63-12.17-47.78-3.81-47.78-3.81S461.17,56.17,461,56c29.89-13.1,34.76-.15,34.61-.6a5.6,5.6,0,0,1,.33,3.43C495,64.54,484.61,66,484.48,66a128.1,128.1,0,0,0-18.76,4.5C446.8,77,449.29,93,449.29,93.1c3.23,20.52,30.93,20,30.93,20H492.1l6-12.33C485.79,103.22,482,96.49,482,96.49,476.87,88,484.62,83,484.62,83c3-2.35,12.75-4.53,12.75-4.53V90.91c1,23,25.49,22.2,26.23,22.11h55.95v-.92c-.34,0-7.14.54-7-12.83V67.73h0c0,.11-1-17.89,22.71-13.93V34.48s-14.93-4.58-22.72,10.2"/><path class="a" d="M391.21,34.39H309.83c-9.57.46-20.31,2.3-28.75,10.52,0,0-14.71,14.35-2.09,32.53.1,0,6,8.43,15.93,11.62a.53.53,0,0,1,.24,0l-.17,0c.91,0-7,.88-10.5,3-1.93,1.23-2.54,2.59-2,6S286,112.36,297.57,113c8.24.36,20.07-1.1,26.32,3.53,0,0,4.49,3.28,4.49,8.75,0,4.14-.48,12.61-17.74,13.5-.81,0-14.32-.1-17-9.67,0-.07-1.4-8.17,6.49-9.29,0,0-10.38-2.44-19.17,0-11.9,3.31-15.43,14.28-8.73,22.11-.1-.09,9.7,11.53,36.13,11.34C335,154,361.71,146,357,119.3c-.13,0-3.2-19.08-32-19H310.69s-6.06.45-7.3-2.41c0,0-2.7-4.35,5.73-4.64h0l1.54-.18s24.89-3,32.6-13.94c.1-.12,11.77-13-.23-28.54a17.42,17.42,0,0,0-1.86-2.1h21.39c0,9.76-.09,38.36,0,38.56-.05,27,27.76,26,27.76,26,11.95-.23,19.86-7.8,21.32-9.29V113h35.49v-.93c-7.61-.33-7-12.52-7-12.8V34.49L405,35.87v1c7.27.49,6.64,11.48,6.64,11.77V82.15s0,0,0,0c-.39,15-10.86,13.23-10.82,13.42-9.86.1-9.61-10.81-9.61-10.81V34.39M311,77.19c-.76.17-11-.75-9.87-15.07.11.14-.29-12.76,9.9-12.76,0,0,9.25-.39,9.47,12.54,0,.22,1.25,15.29-9.5,15.29"/><path class="a" d="M688.83,14.47A14.19,14.19,0,1,0,703,.26a14.21,14.21,0,0,0-14.19,14.21m2,0A12.23,12.23,0,1,1,703,26.7a12.24,12.24,0,0,1-12.23-12.23"/><path class="a" d="M699.89,13.37h3.84c2.56-.11,3.14-1.28,3.14-2.59s-.58-2.5-3.14-2.6h-3.84v5.19m.06,2v7.55h-2.33V6.19h6c2.8,0,5.69.88,5.69,4.19a4,4,0,0,1-3.13,4v0c2,.48,2.27,1.56,2.52,3.43a24.6,24.6,0,0,0,1.06,5h-2.49c-.2-1-.48-2.09-.6-3.08-.18-1.51-.18-2.88-.93-3.72a3.32,3.32,0,0,0-2.53-.75Z"/></svg>