<svg xmlns="http://www.w3.org/2000/svg" viewBox="0 0 594.81 180.57"><defs><style>.a{fill:#b8281f;}.b{fill:#fff;}.c{fill:#005a90;}</style></defs><rect class="a" width="180.57" height="180.57"/><polygon class="b" points="123.32 58.06 123.32 41.01 69.67 41.01 69.67 77.6 68.21 77.6 58.09 77.6 58.09 89.24 61.3 89.24 69.67 89.24 69.67 98.44 67.88 98.44 58.09 98.44 58.09 110.1 60.95 110.1 69.67 110.1 69.67 145.92 90.36 145.92 90.36 110.1 108.73 110.1 113.93 98.44 90.36 98.44 90.36 94.54 90.36 89.24 118.14 89.24 123.32 77.6 90.36 77.6 90.36 58.06 123.32 58.06"/><path class="c" d="M398.18,265.14h17.76v57.07H398.18Zm69.61,56.94v-8h-.22c-4.59,6.81-11.29,9.6-18.66,9.6-16,0-26.81-14.4-26.81-30.36s10.06-30.14,26.58-30.14c7.38,0,12.85,2.34,18.22,9.38h.22V233.7h16.07v88.38Zm-.12-28.56c0-8.62-4.69-16.74-14.74-16.74-9.26,0-14.07,8.26-14.07,17,0,9,5,17,14.51,17,9.16,0,14.3-7.59,14.3-17.19m79.81,0V298h-42c.67,6.68,4.8,13.4,13.4,13.4a12.4,12.4,0,0,0,11.51-6.82L546,305.77c-3.91,11.75-14.42,17.88-27.93,17.88-17.33,0-29.37-11.83-29.37-30.13,0-18.54,12-30.37,29.37-30.37s29.38,11.83,29.38,30.37m-16.07-5.81c-.58-5.58-4.82-12.27-12.53-12.27-8.38,0-12.51,5.81-13.4,12.27ZM553.3,235.2v86.88h16.1V233.7H553.3Zm32-3.52a9.37,9.37,0,1,0,9.37,9.25,9.54,9.54,0,0,0-9.37-9.25m-178.25,0a9.37,9.37,0,1,0,9.37,9.25,9.54,9.54,0,0,0-9.37-9.25m170.19,90.4h16.11V264.71H577.24Zm54.23-12.61a13,13,0,0,1-3.23.34c-4.13,0-5.24-1.23-5.24-3.8V277h8.47V264.71H623V246.76H606.9v17.95h-7.35V277h7.35V307.8c0,12.39,6.37,15,16.87,15a60.17,60.17,0,0,0,7.7-.68Zm19.95,28.94h16.81L696,264.71H678.35l-12.17,38H666l-12.19-38H636.14l21.55,57.37ZM336,281.1v10h8.44v31.31h17.75V291.1H379l4.44-10H362.23v-5.83h23.82l4.45-10H362.23V248.51H390.5V233.93h-46v31.35H336v10h8.44v5.83Z" transform="translate(-123.49 -192.95)"/><polygon class="c" points="576.01 30.64 573.01 30.64 573.01 28.61 581.28 28.61 581.28 30.64 578.29 30.64 578.29 39.99 576.01 39.99 576.01 30.64"/><polygon class="c" points="592.21 28.61 588.91 36.36 585.61 28.61 583.02 28.61 583.02 40 585.19 40 585.19 32.54 585.23 32.54 588.28 40 589.54 40 592.61 32.39 592.63 32.39 592.63 40 594.81 40 594.81 28.61 592.21 28.61"/><rect class="c" x="220.99" y="160" width="4.9" height="20.18"/><polygon class="c" points="243.71 180.17 238.81 180.17 238.81 160 243.71 160 251.06 171.34 251.06 160 255.96 160 255.96 180.17 251.06 180.17 243.71 168.68 243.71 180.17"/><polygon class="c" points="276.55 180.17 271.65 180.17 271.65 163.96 266.99 163.96 266.99 160 281.18 160 281.18 163.96 276.55 163.96 276.55 180.17"/><polygon class="c" points="296.66 168.07 303.32 168.07 303.32 172.04 296.66 172.04 296.66 176.21 303.32 176.21 303.32 180.17 291.76 180.17 291.76 159.99 303.32 159.99 303.32 163.96 296.66 163.96 296.66 168.07"/><path class="c" d="M444,373.12H439.1V352.94h6.54c2.66,0,4.6.48,5.93,1.51a6.31,6.31,0,0,1,2.18,5.12c0,3.05-1.31,5.11-3.91,6.14l4.45,7.41h-5.87L444,365.31Zm1.57-10.56c2,0,3.2-1,3.2-2.78a2.69,2.69,0,0,0-2.9-2.82H444v5.6Z" transform="translate(-123.49 -192.95)"/><polygon class="c" points="347.8 180.17 342.9 180.17 342.9 160 347.8 160 355.15 171.34 355.15 160 360.05 160 360.05 180.17 355.15 180.17 347.8 168.68 347.8 180.17"/><path class="c" d="M500.46,370.21l-.88,2.91h-5.23L501,352.94h6.24l6.62,20.18h-5.38l-.88-2.91ZM504,358.72l-2.36,7.53h4.72Z" transform="translate(-123.49 -192.95)"/><polygon class="c" points="408.13 180.17 403.23 180.17 403.23 163.96 398.57 163.96 398.57 160 412.76 160 412.76 163.96 408.13 163.96 408.13 180.17"/><rect class="c" x="425.76" y="160" width="4.9" height="20.18"/><path class="c" d="M586.83,363.08a10.68,10.68,0,1,1-18-7.72,10.83,10.83,0,0,1,7.53-2.81,10.23,10.23,0,0,1,10.43,10.53m-16.36,0a5.71,5.71,0,1,0,5.75-6,5.69,5.69,0,0,0-5.75,6" transform="translate(-123.49 -192.95)"/><polygon class="c" points="478.99 180.17 474.08 180.17 474.08 160 478.99 160 486.34 171.34 486.34 160 491.24 160 491.24 180.17 486.34 180.17 478.99 168.68 478.99 180.17"/><path class="c" d="M631.86,370.21l-.87,2.91h-5.23l6.65-20.18h6.23l6.62,20.18h-5.37l-.89-2.91Zm3.57-11.49-2.35,7.53h4.71Z" transform="translate(-123.49 -192.95)"/><polygon class="c" points="544.22 176.21 544.22 180.17 532.75 180.17 532.75 160 537.66 160 537.66 176.21 544.22 176.21"/></svg>