<svg xmlns="http://www.w3.org/2000/svg" viewBox="0 0 314.6 199.8"><defs><style>.a{fill:#003743;}</style></defs><path class="a" d="M314.74,140.5v-1.64H296.2v1.64h8.38v22.38h1.78V140.5Zm-22.5,10.44c0,5.93-4.26,10.74-10.2,10.74s-10.26-4.88-10.26-10.81v-.07c0-5.94,4.26-10.74,10.19-10.74s10.27,4.87,10.27,10.81Zm1.85-.07s0,0,0-.07c0-6.56-4.77-12.36-12-12.36s-12.11,5.87-12.11,12.43v.07c0,6.55,4.77,12.35,12,12.35s12.12-5.87,12.12-12.42m-30.23-12h-1.78v24h1.78Zm-6.59,0h-1.88L246,161l-9.41-22.1h-2l10.57,24.19h1.58Zm-26.64,24v-1.65H215.15v-9.64h13.77v-1.65H215.15V140.5h15.31v-1.64H213.37v24Zm-24.44,0v-24h-1.78V150H189V138.86h-1.78v24H189V151.62h15.38v11.26Zm-23.75-3.77-1.2-1.17c-2.44,2.4-4.8,3.74-8.27,3.74-5.73,0-10.16-4.74-10.16-10.81v-.07c0-6,4.36-10.74,10.13-10.74a11.05,11.05,0,0,1,8.1,3.53l1.26-1.3a12.64,12.64,0,0,0-9.33-3.85c-6.93,0-12,5.63-12,12.43v.07c0,6.9,5.08,12.35,11.94,12.35a12.67,12.67,0,0,0,9.54-4.18M143.8,145.82c0,3.47-3,5.49-7,5.49h-8.1V140.5h8.2c4.36,0,6.9,2,6.9,5.25Zm2.68,17.06-7.93-10.26c4-.55,7-2.85,7-6.87v-.06c0-4-3.39-6.83-8.58-6.83H126.91v24h1.79v-9.95h7.86l7.65,9.95Zm-24.57,0v-1.65H106.43v-9.64h13.76v-1.65H106.43V140.5h15.31v-1.64H104.65v24ZM99.79,140.5v-1.64H81.26v1.64h8.38v22.38h1.78V140.5ZM81.65,162.88v-1.65H67.54V138.86H65.76v24Zm-23.12-24H56.74v24h1.79Zm-8.84,13.83V138.86H47.91v14c0,5.8-3.12,8.75-8,8.75-5.08,0-8.13-3.26-8.13-8.92V138.86H30v14c0,6.73,4.09,10.37,9.85,10.37s9.85-3.67,9.85-10.57" transform="translate(-0.13 0)"/><path class="a" d="M12.29,138.43C5,138.43.13,144.32.13,150.89V151A12.27,12.27,0,0,0,7,162.19H7c-.38,0-.78,0-1.2.08v1.58c6.13-.6,8.5,2.75,14.29,2.08v-1.58c-3.8.38-5.59-1-8.67-1.75a16.17,16.17,0,0,1,2.85.56,12.18,12.18,0,0,0,10.06-12.27s0,0,0-.07C24.37,144.25,19.58,138.43,12.29,138.43ZM22.51,151c0,6-4.27,10.77-10.22,10.77S2,156.85,2,150.89v-.07c0-5.95,4.27-10.77,10.23-10.77s10.29,4.89,10.29,10.84Z" transform="translate(-0.13 0)"/><path class="a" d="M31.63,187v12.6H30.21V187Z" transform="translate(-0.13 0)"/><path class="a" d="M44.28,187h1.39v12.6H44.53L36.4,189.25v10.33H35V187h1.33l7.94,10.1Z" transform="translate(-0.13 0)"/><path class="a" d="M58.29,187h1.53L54.4,199.67H53.14L47.72,187H49.3l4.48,10.86Z" transform="translate(-0.13 0)"/><path class="a" d="M71,188.27H63.29v4.31h6.88v1.29H63.29v4.42h7.78v1.29h-9.2V187H71Z" transform="translate(-0.13 0)"/><path class="a" d="M78.14,192.6c2.81.61,4.1,1.63,4.1,3.58,0,2.18-1.8,3.58-4.3,3.58a7.33,7.33,0,0,1-5.15-2l.88-1A6,6,0,0,0,78,198.48c1.69,0,2.81-.88,2.81-2.16s-.63-1.85-3.28-2.41c-2.89-.63-4.23-1.57-4.23-3.66s1.75-3.45,4.14-3.45a6.56,6.56,0,0,1,4.43,1.55L81,189.44a5.59,5.59,0,0,0-3.64-1.36c-1.64,0-2.68.9-2.68,2S75.36,192,78.14,192.6Z" transform="translate(-0.13 0)"/><path class="a" d="M89.52,199.58H88.08V188.29H83.85V187h9.9v1.31H89.52Z" transform="translate(-0.13 0)"/><path class="a" d="M101.94,196.12h-.07l-4.59-6.73v10.19H95.89V187h1.44l4.59,6.88,4.59-6.88H108v12.6h-1.42V189.37Z" transform="translate(-0.13 0)"/><path class="a" d="M120.42,188.27h-7.69v4.31h6.88v1.29h-6.88v4.42h7.78v1.29h-9.2V187h9.11Z" transform="translate(-0.13 0)"/><path class="a" d="M132.12,187h1.39v12.6h-1.13l-8.14-10.33v10.33h-1.39V187h1.33l7.94,10.1Z" transform="translate(-0.13 0)"/><path class="a" d="M141.32,199.58h-1.44V188.29h-4.23V187h9.9v1.31h-4.23Z" transform="translate(-0.13 0)"/><path class="a" d="M160.74,196.12h-.07l-4.59-6.73v10.19h-1.39V187h1.44l4.6,6.88,4.59-6.88h1.44v12.6h-1.43V189.37Z" transform="translate(-0.13 0)"/><path class="a" d="M181.64,199.58H180.1l-1.47-3.33h-6.86l-1.5,3.33h-1.45l5.74-12.69h1.33Zm-6.43-11L172.33,195h5.74Z" transform="translate(-0.13 0)"/><path class="a" d="M193,187h1.39v12.6h-1.13l-8.14-10.33v10.33h-1.39V187H185l7.94,10.1Z" transform="translate(-0.13 0)"/><path class="a" d="M209.22,199.58h-1.53l-1.48-3.33h-6.86l-1.49,3.33H196.4l5.74-12.69h1.34Zm-6.43-11L199.91,195h5.74Z" transform="translate(-0.13 0)"/><path class="a" d="M216.42,199.8a6.18,6.18,0,0,1-6.41-6.5,6.32,6.32,0,0,1,6.32-6.54,6.64,6.64,0,0,1,4.7,1.68l-.92,1.08a5.38,5.38,0,0,0-3.84-1.44,4.93,4.93,0,0,0-4.79,5.18c0,3,1.93,5.26,5,5.26a6,6,0,0,0,3.64-1.26v-3.13h-3.84v-1.28h5.2v5A7.59,7.59,0,0,1,216.42,199.8Z" transform="translate(-0.13 0)"/><path class="a" d="M233.6,188.27h-7.69v4.31h6.88v1.29h-6.88v4.42h7.78v1.29h-9.2V187h9.11Z" transform="translate(-0.13 0)"/><path class="a" d="M242.08,196.12H242l-4.59-6.73v10.19H236V187h1.44l4.59,6.88,4.59-6.88h1.44v12.6h-1.42V189.37Z" transform="translate(-0.13 0)"/><path class="a" d="M260.56,188.27h-7.69v4.31h6.88v1.29h-6.88v4.42h7.78v1.29h-9.2V187h9.11Z" transform="translate(-0.13 0)"/><path class="a" d="M272.26,187h1.39v12.6h-1.14l-8.13-10.33v10.33H263V187h1.33l7.94,10.1Z" transform="translate(-0.13 0)"/><path class="a" d="M281.46,199.58H280V188.29h-4.23V187h9.9v1.31h-4.23Z" transform="translate(-0.13 0)"/><path class="a" d="M194.23,99.39l-3.63-4.13q1.88-1.65,3.57-3.46l4,3.77a54.79,54.79,0,0,1-4,3.82m-39.54,13.8.26-5.49,1.54,0c1.15,0,2.3,0,3.43-.06l.27,5.5q-1.89.11-3.81.06c-.57,0-1.13,0-1.69-.06m-38-17.63,4-3.76q1.69,1.82,3.56,3.45l-3.63,4.14c-1.38-1.22-2.69-2.49-3.95-3.83M163.8,1.93l-.62,5.47c-1.58-.18-3.18-.29-4.8-.32h-.16l.09-5.51h.17c1.8,0,3.57.15,5.32.35M200.58,22l-4.25,3.49c-1.05-1.27-2.16-2.5-3.33-3.67l3.89-3.89A54.82,54.82,0,0,1,200.58,22m6.09,45.91a49.52,49.52,0,0,0,.79-4.9l5.48.61c-.21,1.84-.51,3.65-.88,5.43Zm-1.74,6.2a47.25,47.25,0,0,0,1.41-4.75l5.35,1.3a54.49,54.49,0,0,1-1.57,5.28Zm-2.53,5.94a48.32,48.32,0,0,0,2-4.53l5.14,2a52.7,52.7,0,0,1-2.24,5Zm-3.27,5.55q1.38-2,2.58-4.23L206.54,84a54.48,54.48,0,0,1-2.86,4.7Zm-.86,1.23L202.73,90a54.88,54.88,0,0,1-3.44,4.3l-4.12-3.64c1.09-1.24,2.13-2.53,3.1-3.87m1.83-56.1c-.88-1.41-1.83-2.76-2.84-4.07l4.35-3.37a54.44,54.44,0,0,1,3.15,4.52Zm3.07,5.66a48.19,48.19,0,0,0-2.3-4.39l4.75-2.79q1.4,2.37,2.55,4.88Zm2.32,6c-.5-1.58-1.07-3.14-1.72-4.65l5.07-2.15c.71,1.68,1.35,3.4,1.9,5.16ZM207,48.66c-.29-1.64-.66-3.25-1.1-4.83l5.3-1.48a50.2,50.2,0,0,1,1.22,5.36Zm.24,1.47,5.44-.79c.27,1.81.44,3.63.53,5.48l-5.5.26c-.08-1.67-.23-3.32-.47-4.95M169.52,8.54c-1.59-.39-3.21-.71-4.86-.95l.78-5.45c1.83.26,3.63.62,5.4,1Zm6.15,2q-2.29-.9-4.7-1.57l1.47-5.31a54.18,54.18,0,0,1,5.22,1.75Zm5.85,2.73a48.48,48.48,0,0,0-4.47-2.17L179.2,6q2.55,1.09,5,2.41ZM187,16.67A47.77,47.77,0,0,0,182.81,14l2.78-4.75a54.37,54.37,0,0,1,4.6,3Zm1.2.89,3.36-4.36q2.17,1.7,4.19,3.58l-3.78,4c-1.2-1.13-2.46-2.21-3.77-3.22M116.59,86.83c1,1.34,2,2.63,3.1,3.87l-4.12,3.64c-1.21-1.37-2.36-2.81-3.44-4.3Zm-3.43-5.46c.8,1.45,1.65,2.87,2.58,4.23l-4.55,3.09a54.48,54.48,0,0,1-2.86-4.7Zm-2.7-5.85a48.39,48.39,0,0,0,2,4.53l-4.92,2.48q-1.23-2.44-2.24-5Zm-1.93-6.15c.39,1.62.87,3.2,1.41,4.76L104.75,76a51.82,51.82,0,0,1-1.57-5.28ZM107.4,63a49.52,49.52,0,0,0,.79,4.9l-5.38,1.14a53.89,53.89,0,0,1-.88-5.43Zm-.31-6.44c0,1.67,0,3.33.17,5l-5.49.45c-.15-1.82-.21-3.65-.18-5.51Zm.54-6.54c-.24,1.62-.4,3.27-.48,4.94l-5.5-.26a55,55,0,0,1,.53-5.48Zm1.35-6.3a48.37,48.37,0,0,0-1.11,4.83l-5.42-1c.32-1.82.74-3.61,1.23-5.37Zm2.15-6.08a46.11,46.11,0,0,0-1.72,4.65l-5.25-1.65a53.94,53.94,0,0,1,1.91-5.16Zm2.92-5.75a49.5,49.5,0,0,0-2.31,4.39l-5-2.31q1.17-2.51,2.56-4.88Zm3.62-5.34a47.71,47.71,0,0,0-2.85,4.06l-4.66-2.93c1-1.56,2-3.06,3.16-4.51ZM122,21.74a48.4,48.4,0,0,0-3.35,3.67l-4.24-3.51c1.17-1.41,2.41-2.77,3.7-4.06Zm4.85-4.25c-1.31,1-2.58,2.09-3.78,3.22l-3.77-4q2-1.88,4.2-3.56Zm5.35-3.59c-1.44.83-2.82,1.74-4.16,2.7l-3.22-4.45a54.43,54.43,0,0,1,4.61-3ZM137.91,11a48.32,48.32,0,0,0-4.47,2.15l-2.63-4.84q2.41-1.3,5-2.39ZM144,8.9a47,47,0,0,0-4.7,1.56l-2-5.13a54.13,54.13,0,0,1,5.22-1.74Zm6.31-1.32a48.7,48.7,0,0,0-4.87.94l-1.3-5.35q2.66-.64,5.4-1Zm1.48-.19-.61-5.47c1.8-.2,3.64-.32,5.49-.35l.07,5.51a47.66,47.66,0,0,0-4.95.31M148.55,107a49.34,49.34,0,0,0,4.92.63l-.43,5.49q-2.78-.23-5.46-.7Zm-6.26-1.54c1.56.49,3.17.91,4.79,1.26L146,112.07a52.76,52.76,0,0,1-5.33-1.39Zm-6-2.34a49.56,49.56,0,0,0,4.59,1.87l-1.81,5.2q-2.61-.91-5.1-2.07ZM130.61,100q2.1,1.32,4.32,2.44l-2.46,4.92c-1.65-.83-3.24-1.73-4.79-2.71Zm-1.24-.82-3.08,4.56a54.13,54.13,0,0,1-4.4-3.29l3.51-4.24a48.23,48.23,0,0,0,4,3m27.17,6a47.73,47.73,0,1,1,48.62-46.83,47.78,47.78,0,0,1-48.62,46.83m29-6c1.37-.93,2.7-1.92,4-3l3.5,4.24a54.13,54.13,0,0,1-4.4,3.29Zm-5.57,3.25c1.48-.74,2.92-1.56,4.32-2.44l2.94,4.65a55,55,0,0,1-4.79,2.71ZM174,105c1.57-.55,3.1-1.18,4.6-1.87l2.31,5a53.86,53.86,0,0,1-5.1,2.07Zm-6.21,1.73q2.44-.52,4.8-1.26l1.66,5.25c-1.75.55-3.52,1-5.33,1.4Zm-1.46.28,1,5.42a54.86,54.86,0,0,1-5.47.7l-.42-5.49q2.49-.19,4.92-.63m46.94-48.51q0,1.77-.18,3.51l-5.48-.44c.08-1.05.14-2.11.16-3.17,0-.6,0-1.2,0-1.79l5.5-.1c0,.67,0,1.33,0,2M158.51,0a57.42,57.42,0,1,0,56.33,58.48A57.48,57.48,0,0,0,158.51,0" transform="translate(-0.13 0)"/><path class="a" d="M173.7,36.53c-11.8,0-20.45,9.58-20.45,21.14v.12a21.93,21.93,0,0,0,2.69,10.56,14,14,0,0,0,2-3,19.77,19.77,0,0,1-1.55-7.69v-.11c0-10.29,7.42-18.29,17.23-18.29,6.13,0,10.21,2.58,13.78,6l2.16-2.22c-4.2-3.85-8.58-6.54-15.88-6.54" transform="translate(-0.13 0)"/><path class="a" d="M187.77,69.7c-4.15,4.09-8.18,6.37-14.07,6.37a16.62,16.62,0,0,1-10.07-3.42,25,25,0,0,1-2,2.2,19.89,19.89,0,0,0,12,4c7.24,0,11.91-2.86,16.23-7.13Z" transform="translate(-0.13 0)"/><path class="a" d="M165.78,57.55A22,22,0,0,0,163.06,47a14.63,14.63,0,0,0-2,3,19.54,19.54,0,0,1,1.56,7.65v.12c0,10.1-7.25,18.28-17.35,18.28s-17.46-8.3-17.46-18.4v-.12c0-10.1,7.24-18.27,17.35-18.27a16.82,16.82,0,0,1,10.21,3.43,23.74,23.74,0,0,1,2-2.27,20.05,20.05,0,0,0-12.07-3.91c-12.38,0-20.61,10-20.61,21.14v.12a20.8,20.8,0,0,0,11.56,19c-.62,0-1.25.07-1.92.13v2.68c10.35-1,14.36,4.63,24.85,3.51V80.47c-7.4.68-10.46-2-16.16-3.14a30.36,30.36,0,0,1,5.5,1.2c10.49-1.62,17.28-10.74,17.28-20.86C165.84,57.61,165.84,57.61,165.78,57.55Z" transform="translate(-0.13 0)"/></svg>