<svg xmlns="http://www.w3.org/2000/svg" viewBox="0 0 583.12 166.29"><defs><style>.a{fill:#4b4b4a;}.b{fill:#0981b7;}</style></defs><polygon class="a" points="371.85 88.28 388.27 88.28 388.27 23.41 371.85 40.22 371.85 88.28"/><polygon class="b" points="343.1 46.08 297.94 0 297.94 91.68 314.35 75.42 314.35 40.22 343.1 69.64 371.85 40.22 388.27 23.41 388.27 0 343.1 46.08"/><path class="a" d="M340.57,238.38h20.7l16.05-16.32H340.57V204h41c4.35,0,7.29,1.82,8.5,5.1l12.24-12.44c-6.46-6.88-15.61-8.18-25.18-8.18H324.24V276l16.33-16.53Z" transform="translate(-129.38 -187.7)"/><path class="b" d="M399.83,229.6a23.27,23.27,0,0,0,2.48-32.95L390.06,209.1a10.84,10.84,0,0,1,.61,3.75c0,5.68-3.39,9.21-8.85,9.21h-4.51l-16.05,16.32H383.1c6.54,0,10.6,4,10.6,10.48,0,6.64-4,10.6-10.6,10.6H340.56L324.24,276h52.89c14.88,0,34.29-4,34.29-26.18,0-9-4.4-16.62-11.59-20.21" transform="translate(-129.38 -187.7)"/><polygon class="a" points="276.95 131.54 276.95 164.53 271.26 164.53 271.25 145.71 260.04 157.31 248.81 145.78 248.81 164.53 243.1 164.53 243.1 131.54 260.04 149.13 276.95 131.54"/><path class="a" d="M638,352.53h5.84l-15.7-33.6-15.69,33.6h5.84l3.16-6.88h13.38Zm-9.86-21.4,4.34,9.41h-8.67Z" transform="translate(-129.38 -187.7)"/><path class="a" d="M441.8,352.53h5.84L432,318.93l-15.7,33.6h5.84l3.17-6.88h13.38ZM432,331.13l4.33,9.41h-8.67Z" transform="translate(-129.38 -187.7)"/><polygon class="a" points="467.2 132.72 467.2 153.77 445.23 131.26 445.23 164.87 450.59 164.87 450.59 144.94 472.57 166.29 472.57 132.72 467.2 132.72"/><path class="a" d="M471.47,347.69c-6.59,0-11.38-4.72-11.38-11.22s4.65-11.21,11.05-11.21a14,14,0,0,1,8.16,2.66l1.27.95v-6.44l-.4-.23a18.39,18.39,0,0,0-9-2.25c-9.67,0-16.69,7-16.69,16.61S461.55,353,471.26,353a18,18,0,0,0,9.41-2.48l.37-.24v-6.53l-1.3,1.05a13.06,13.06,0,0,1-8.27,2.9" transform="translate(-129.38 -187.7)"/><path class="a" d="M514.42,323h0c-2.94-1.78-6.5-2.61-11.2-2.61H494v32.12h8.18c5.82,0,9.84-1,13-3.22a15.57,15.57,0,0,0,6.41-13A15.12,15.12,0,0,0,514.42,323m-2.95,22.39h0c-2.08,1.33-4.66,1.9-8.63,1.9h-3.21V325.64h3.13c2.86,0,6.13.23,8.75,2a11,11,0,0,1,0,17.8" transform="translate(-129.38 -187.7)"/><path class="a" d="M547.26,320c-9.3,0-16.31,7.1-16.31,16.52S538,353,547.26,353s16.31-7.1,16.31-16.52-7-16.52-16.31-16.52m0,27.74c-6.1,0-10.71-4.83-10.71-11.22s4.61-11.21,10.71-11.21S558,330.08,558,336.47s-4.6,11.22-10.71,11.22" transform="translate(-129.38 -187.7)"/><polygon class="a" points="530.51 132.72 524.91 132.72 524.91 164.83 544.92 164.83 544.92 159.61 530.51 159.61 530.51 132.72"/><path class="a" d="M705.29,323h0c-2.94-1.78-6.5-2.61-11.19-2.61H684.9v32.12h8.17c5.83,0,9.84-1,13-3.22a15.57,15.57,0,0,0,6.41-13A15.13,15.13,0,0,0,705.29,323m-2.95,22.39h0c-2.09,1.33-4.67,1.9-8.64,1.9h-3.2V325.64h3.12c2.86,0,6.14.23,8.75,2a11,11,0,0,1,0,17.8" transform="translate(-129.38 -187.7)"/><path class="a" d="M184.37,337.7a8.9,8.9,0,0,0,4.3-7.84,8.59,8.59,0,0,0-4.62-7.82c-2.67-1.5-5.74-1.63-8.91-1.63h-9v32.12h5.59V339.46h4L185,352.53h6.82l-10-13.73a9.37,9.37,0,0,0,2.55-1.1m-12.69-12.06h3.17c3,0,4.71.14,6.15.91a3.93,3.93,0,0,1,2.07,3.64,3.69,3.69,0,0,1-1.5,3.16c-1.13.86-2.78,1.23-5.5,1.23h-4.39Z" transform="translate(-129.38 -187.7)"/><path class="a" d="M215.85,320c-9.3,0-16.31,7.1-16.31,16.52s7,16.52,16.31,16.52,16.31-7.1,16.31-16.52-7-16.52-16.31-16.52m0,27.74c-6.11,0-10.71-4.83-10.71-11.22s4.6-11.21,10.71-11.21,10.71,4.82,10.71,11.21-4.61,11.22-10.71,11.22" transform="translate(-129.38 -187.7)"/><path class="a" d="M258.25,320c-9.3,0-16.31,7.1-16.31,16.52S249,353,258.25,353s16.3-7.1,16.3-16.52-7-16.52-16.3-16.52m0,27.74c-6.11,0-10.71-4.83-10.71-11.22s4.6-11.21,10.71-11.21S269,330.08,269,336.47s-4.61,11.22-10.71,11.22" transform="translate(-129.38 -187.7)"/><polygon class="a" points="181.53 132.72 174.33 132.72 162.07 145.49 162.07 132.72 156.47 132.72 156.47 164.83 162.07 164.83 162.07 150.25 175.25 164.83 182.63 164.83 167.04 147.7 181.53 132.72"/><path class="a" d="M332.68,333.72h0l-.93-.25c-3.67-1-5.74-1.72-5.74-4.46,0-3.3,3.14-3.79,5-3.79a15.47,15.47,0,0,1,8.39,2.68l1.25.87v-6.18l-.37-.24a17.8,17.8,0,0,0-9.19-2.4c-6.58,0-10.66,3.57-10.66,9.31,0,5.94,4.35,8,9.05,9.33l.9.25c3.9,1.09,6.1,1.84,6.1,4.72,0,3.76-3.77,4.17-5.39,4.17a15.14,15.14,0,0,1-8.75-3l-1.28-1v6.45l.38.23a19.61,19.61,0,0,0,9.61,2.52c6.68,0,11-3.79,11-9.65,0-6.4-4.84-8.32-9.38-9.62" transform="translate(-129.38 -187.7)"/><path class="a" d="M129.38,352.53V320.42h11.55c3.17,0,6.73.35,9.17,2.93a8.35,8.35,0,0,1-.88,11.75l-.61.47.69.34a7.77,7.77,0,0,1,4.11,7.2c0,6.25-4.2,9.42-12.48,9.42Zm5.21-5.3.48,0h8.12a4.47,4.47,0,1,0,0-8.94h-8.6Zm0-14.12h8.11a3.66,3.66,0,0,0,3.84-4,4.69,4.69,0,0,0-.26-1.59,3.57,3.57,0,0,0-3.67-2.24h-8Z" transform="translate(-129.38 -187.7)"/></svg>