<svg xmlns="http://www.w3.org/2000/svg" viewBox="0 0 728.49 148.11"><defs><style>.a{fill:#0d92d2;}.b{fill:#183e75;}.c{fill:#144075;}</style></defs><path class="a" d="M56.68,226.72h53.09c23.55,0,37.93,12.38,37.93,36.73,0,19-7.59,31.73-23.76,35.12V299c19.57,2.59,22.56,13.36,22.95,43.51.21,15,1,22.75,6.4,25.55v1.19H122.15c-2.79-4-3.4-9.37-3.59-15l-.8-27.34c-.4-11.18-5.39-18-17-18H85.42v60.27H56.68ZM85.42,289h12c13.77,0,21.55-6,21.55-21.36,0-13.17-7-19.75-20-19.75H85.42Z" transform="translate(-56.68 -223.92)"/><path class="a" d="M186,324.72v4.19c0,13.38,3.79,22,19,22,8.78,0,17.17-5.59,17.17-17.56,0-13-6.59-17.77-25.55-24.36-25.56-8.77-37.33-19.36-37.33-43.11,0-27.74,17-41.92,44.11-41.92,25.55,0,44.11,11,44.11,38.33v4H219.88c0-13.37-4.59-21.15-15.57-21.15-13,0-16.37,8.18-16.37,16.56,0,8.78,2.6,14.17,14.78,19.36l22.15,9.58C246.42,300,252,311,252,328.31c0,30.15-18.36,43.72-49.5,43.72-32.53,0-45.31-15.17-45.31-41.52v-5.79Z" transform="translate(-56.68 -223.92)"/><polygon class="a" points="205.08 2.8 247.79 2.8 268.15 103.39 268.55 103.39 289.11 2.8 331.62 2.8 331.62 145.31 305.28 145.31 305.28 31.54 304.88 31.54 279.53 145.31 257.17 145.31 231.82 31.54 231.43 31.54 231.43 145.31 205.08 145.31 205.08 2.8"/><path class="b" d="M399.21,226.72H452.3c23.55,0,37.92,12.38,37.92,36.73,0,19-7.58,31.73-23.75,35.12V299c19.56,2.59,22.55,13.36,22.95,43.51.21,15,1,22.75,6.39,25.55v1.19H464.67c-2.79-4-3.39-9.37-3.59-15l-.8-27.34c-.4-11.18-5.39-18-17-18H428v60.27H399.21ZM428,289h12c13.76,0,21.55-6,21.55-21.36,0-13.17-7-19.75-20-19.75H428Z" transform="translate(-56.68 -223.92)"/><path class="c" d="M680.72,281.31a5,5,0,0,0,1.33,2.3,3.3,3.3,0,0,0,2.35.82,3.44,3.44,0,0,0,3.42-2.59c.63-1.73.95-4.57.95-8.55s-.32-6.81-.95-8.55a3.45,3.45,0,0,0-3.42-2.59,3.31,3.31,0,0,0-2.35.83,5,5,0,0,0-1.33,2.3,15.27,15.27,0,0,0-.56,3.53c-.08,1.38-.12,2.87-.12,4.48s0,3.11.12,4.48a15.27,15.27,0,0,0,.56,3.54" transform="translate(-56.68 -223.92)"/><path class="c" d="M721.22,320A3.38,3.38,0,0,0,720,318.5a3.79,3.79,0,0,0-2-.5,3.51,3.51,0,0,0-2,.56,4.12,4.12,0,0,0-1.27,1.47,7.19,7.19,0,0,0-.67,2,12.05,12.05,0,0,0-.21,2.24v1.24h8.31c0-1.22-.11-2.29-.23-3.22a8.35,8.35,0,0,0-.62-2.35" transform="translate(-56.68 -223.92)"/><path class="c" d="M605.62,320a3.38,3.38,0,0,0-1.24-1.48,3.79,3.79,0,0,0-2-.5,3.49,3.49,0,0,0-2,.56,4,4,0,0,0-1.26,1.47,6.9,6.9,0,0,0-.68,2,12.05,12.05,0,0,0-.21,2.24v1.24h8.31a31.11,31.11,0,0,0-.24-3.22,8,8,0,0,0-.61-2.35" transform="translate(-56.68 -223.92)"/><path class="c" d="M597.89,281.31a5.11,5.11,0,0,0,1.33,2.3,3.31,3.31,0,0,0,2.36.82,3.45,3.45,0,0,0,3.42-2.59c.62-1.73.94-4.57.94-8.55a27.84,27.84,0,0,0-.94-8.55,3.46,3.46,0,0,0-3.42-2.59,3.31,3.31,0,0,0-2.36.83,5.06,5.06,0,0,0-1.33,2.3,15.82,15.82,0,0,0-.56,3.53c-.07,1.38-.11,2.87-.11,4.48s0,3.11.11,4.48a15.82,15.82,0,0,0,.56,3.54" transform="translate(-56.68 -223.92)"/><path class="c" d="M572.87,253.31h-3.54V266.1h3.78a5.6,5.6,0,0,0,4.09-1.53,6.45,6.45,0,0,0,1.57-4.77,7.49,7.49,0,0,0-1.36-4.84c-.9-1.1-2.42-1.65-4.54-1.65" transform="translate(-56.68 -223.92)"/><path class="b" d="M535.28,226.31l-32,142.92H785.17V226.31Zm180.43,20.28h8.13v6.95h-8.13Zm0,10.85h8.13v31.71h-8.13Zm-14.15-10.38h8.13v42.09h-8.13ZM583.33,342.61q-3.86,3-10.75,3-7.2,0-10.29-3.13t-3.1-8.95v-1.72h8.49v1.24a13.76,13.76,0,0,0,.24,2.68,4.63,4.63,0,0,0,.88,2,4.28,4.28,0,0,0,1.74,1.29,6.83,6.83,0,0,0,2.74.48,5.4,5.4,0,0,0,3.51-1.27,4.74,4.74,0,0,0,1.56-3.92,7.16,7.16,0,0,0-.38-2.45,4.84,4.84,0,0,0-1.27-1.85,9.11,9.11,0,0,0-2.33-1.51,33.54,33.54,0,0,0-3.56-1.38,30.47,30.47,0,0,1-4.9-2.07,13.07,13.07,0,0,1-3.44-2.62,9.26,9.26,0,0,1-2-3.48,14.69,14.69,0,0,1-.65-4.57q0-6.24,3.48-9.31t9.55-3.07a20.93,20.93,0,0,1,5.22.62,11,11,0,0,1,4.13,2,9.47,9.47,0,0,1,2.71,3.53,12.64,12.64,0,0,1,1,5.16v1.18H577.7a8.44,8.44,0,0,0-1.06-4.63,3.91,3.91,0,0,0-3.53-1.62,6,6,0,0,0-2.36.41,4.11,4.11,0,0,0-1.51,1.09,3.77,3.77,0,0,0-.76,1.57,7.9,7.9,0,0,0-.21,1.83,6.11,6.11,0,0,0,.83,3.27,7.34,7.34,0,0,0,3.53,2.44l6.55,2.83a20,20,0,0,1,4,2.22,10.74,10.74,0,0,1,2.44,2.47,8.3,8.3,0,0,1,1.27,2.92,16.06,16.06,0,0,1,.36,3.54q0,6.66-3.87,9.69m2.95-77.27a10.23,10.23,0,0,1-2.71,3.94,11.26,11.26,0,0,1-4.22,2.3,18.46,18.46,0,0,1-5.48.77h-4.54v16.8h-8.49V247.06H575.7a12.2,12.2,0,0,1,5.45,1.09,10,10,0,0,1,3.57,2.86,11.41,11.41,0,0,1,1.95,4,18.47,18.47,0,0,1,.58,4.63,15.11,15.11,0,0,1-1,5.66m2.8,8a35.85,35.85,0,0,1,.65-7.19,13.92,13.92,0,0,1,2.12-5.22,9.46,9.46,0,0,1,3.86-3.18,14.08,14.08,0,0,1,5.87-1.09,14.84,14.84,0,0,1,6.07,1,8.49,8.49,0,0,1,3.83,3.16,14,14,0,0,1,2,5.24,40.18,40.18,0,0,1,.59,7.31,35.88,35.88,0,0,1-.65,7.2,14,14,0,0,1-2.12,5.21,8.85,8.85,0,0,1-3.87,3.1,15.1,15.1,0,0,1-5.86,1,15.43,15.43,0,0,1-6.07-.92,8.18,8.18,0,0,1-3.84-3.06,13.75,13.75,0,0,1-2-5.25,40.22,40.22,0,0,1-.59-7.28m25.17,57.09H598.16v2.54a18.9,18.9,0,0,0,.2,2.74A9.14,9.14,0,0,0,599,338a4.61,4.61,0,0,0,1.24,1.66,2.92,2.92,0,0,0,1.89.61,3.33,3.33,0,0,0,3-1.47,10.89,10.89,0,0,0,1.29-4.48h7.31c-.15,3.7-1.14,6.51-2.95,8.43s-4.65,2.89-8.54,2.89a13.56,13.56,0,0,1-6.9-1.47,9.15,9.15,0,0,1-3.66-3.9,15.32,15.32,0,0,1-1.44-5.42q-.27-3-.27-6a41.81,41.81,0,0,1,.44-6.13,14.75,14.75,0,0,1,1.78-5.25,9.49,9.49,0,0,1,3.8-3.65,13.67,13.67,0,0,1,6.6-1.36,12.71,12.71,0,0,1,5.8,1.15,8.68,8.68,0,0,1,3.57,3.24,13.45,13.45,0,0,1,1.77,5.07,41.92,41.92,0,0,1,.47,6.63Zm4.19-72.94h7.78v4.24h.12a11.57,11.57,0,0,1,3-3.68,6.7,6.7,0,0,1,4.3-1.39l.73,0c.26,0,.51.05.74.09v7.78l-1.26-.09c-.42,0-.84,0-1.27,0a7.88,7.88,0,0,0-2.13.3,5.8,5.8,0,0,0-1.94,1,4.78,4.78,0,0,0-1.41,1.77,6,6,0,0,0-.54,2.68v19h-8.13Zm16.74,62.92-1.27-.09q-.61,0-1.26,0a7.82,7.82,0,0,0-2.13.3,5.62,5.62,0,0,0-1.94,1,4.9,4.9,0,0,0-1.42,1.77,6.12,6.12,0,0,0-.53,2.68v19H618.5V313.28h7.78v4.25h.12a11.57,11.57,0,0,1,3-3.69,6.79,6.79,0,0,1,4.3-1.38l.74,0c.26,0,.51.05.74.09Zm.53-62.92h4.13v-9.08H648v9.08h4.72V263H648v17.15a4.81,4.81,0,0,0,.56,2.68,2.71,2.71,0,0,0,2.33.8c.31,0,.63,0,.94,0s.61-.05.89-.09v5.66c-.91,0-1.78,0-2.63.09s-1.73.09-2.68.09a18.42,18.42,0,0,1-3.85-.33,3.91,3.91,0,0,1-2.31-1.29,5.66,5.66,0,0,1-1.09-2.57,22.35,22.35,0,0,1-.29-4V263h-4.13ZM654.4,345H645l-8.19-31.72h8.49L649.8,336h.12l4.3-22.7h8.14Zm11-55.85h-8.13V263h-4.13v-5.54h4.13v-3.6a9.63,9.63,0,0,1,.59-3.6,5.62,5.62,0,0,1,1.67-2.35,6.65,6.65,0,0,1,2.69-1.27,14.9,14.9,0,0,1,3.54-.38c1.45,0,2.9,0,4.36.17v5.78a4.41,4.41,0,0,0-.83-.06h-.76a3.78,3.78,0,0,0-2.42.59,2.39,2.39,0,0,0-.71,1.94v2.78h4.72V263h-4.72ZM673.79,345h-8.13V313.28h8.13Zm0-35.61h-8.13v-6.95h8.13Zm.71-23.57a13.75,13.75,0,0,1-2-5.25,39.34,39.34,0,0,1-.59-7.28,35.13,35.13,0,0,1,.65-7.19,13.76,13.76,0,0,1,2.12-5.22,9.46,9.46,0,0,1,3.86-3.18,14,14,0,0,1,5.86-1.09,14.89,14.89,0,0,1,6.08,1,8.49,8.49,0,0,1,3.83,3.16,14,14,0,0,1,2,5.24,39.3,39.3,0,0,1,.59,7.31,35.88,35.88,0,0,1-.65,7.2,13.8,13.8,0,0,1-2.12,5.21,8.77,8.77,0,0,1-3.86,3.1,15.15,15.15,0,0,1-5.87,1,15.46,15.46,0,0,1-6.07-.92,8.11,8.11,0,0,1-3.83-3.06m12.14,48.42a14.62,14.62,0,0,0,.65,3.45,4,4,0,0,0,1.33,2,3.7,3.7,0,0,0,2.21.61,3.18,3.18,0,0,0,3-1.77,12.76,12.76,0,0,0,.94-5.66h7.78q0,6.25-2.8,9.53t-9.28,3.27a17.35,17.35,0,0,1-5.34-.74,7.71,7.71,0,0,1-3.77-2.65,13.25,13.25,0,0,1-2.27-5.13,35.11,35.11,0,0,1-.77-8,29.75,29.75,0,0,1,.94-8.11,13.17,13.17,0,0,1,2.66-5.12,9.05,9.05,0,0,1,4.06-2.68,16.52,16.52,0,0,1,5.19-.77c3.78,0,6.61,1.1,8.52,3.3s2.86,5.19,2.86,9h-7.78a17.42,17.42,0,0,0-.15-2.3,8.27,8.27,0,0,0-.53-2,3.65,3.65,0,0,0-1.09-1.48,3,3,0,0,0-1.88-.56,3.73,3.73,0,0,0-3.84,2.68,14.18,14.18,0,0,0-.65,3.37c-.11,1.35-.17,3-.17,4.8s.06,3.65.17,5m43.21-3.86H713.76v2.54a17.58,17.58,0,0,0,.21,2.74,8.76,8.76,0,0,0,.68,2.35,4.48,4.48,0,0,0,1.23,1.66,2.92,2.92,0,0,0,1.89.61,3.31,3.31,0,0,0,3-1.47,10.89,10.89,0,0,0,1.29-4.48h7.31c-.15,3.7-1.14,6.51-2.94,8.43s-4.66,2.89-8.55,2.89a13.56,13.56,0,0,1-6.9-1.47,9.15,9.15,0,0,1-3.66-3.9,15.53,15.53,0,0,1-1.44-5.42c-.18-2-.26-4-.26-6a40.48,40.48,0,0,1,.44-6.13,14.55,14.55,0,0,1,1.77-5.25,9.49,9.49,0,0,1,3.8-3.65,13.67,13.67,0,0,1,6.6-1.36,12.81,12.81,0,0,1,5.81,1.15,8.81,8.81,0,0,1,3.57,3.24,13.62,13.62,0,0,1,1.76,5.07,41.92,41.92,0,0,1,.47,6.63Zm1.24-44.56a13.75,13.75,0,0,1-2-5.25,40.22,40.22,0,0,1-.59-7.28,35.85,35.85,0,0,1,.65-7.19,13.92,13.92,0,0,1,2.12-5.22,9.46,9.46,0,0,1,3.86-3.18,14,14,0,0,1,5.87-1.09,14.87,14.87,0,0,1,6.07,1,8.49,8.49,0,0,1,3.83,3.16,14,14,0,0,1,2,5.24,40.18,40.18,0,0,1,.59,7.31,35.88,35.88,0,0,1-.65,7.2,13.81,13.81,0,0,1-2.13,5.21,8.77,8.77,0,0,1-3.86,3.1,15.13,15.13,0,0,1-5.86,1,15.51,15.51,0,0,1-6.08-.92,8.11,8.11,0,0,1-3.83-3.06m24.23,54.44a8.63,8.63,0,0,1-2.45,3.09,9.55,9.55,0,0,1-3.71,1.77,20,20,0,0,1-4.74.53,21.16,21.16,0,0,1-5.69-.65,8.32,8.32,0,0,1-3.6-1.94,7.17,7.17,0,0,1-1.86-3.16,15.19,15.19,0,0,1-.53-4.15v-1.13h7.31v1.06a5,5,0,0,0,1.09,3.34,4,4,0,0,0,3.16,1.26,4.49,4.49,0,0,0,3-.94,3.49,3.49,0,0,0,1.13-2.83,3,3,0,0,0-.89-2.33,6.83,6.83,0,0,0-2.06-1.26l-5.72-2.07a10.93,10.93,0,0,1-5.07-3.33A8.57,8.57,0,0,1,733,322a10.44,10.44,0,0,1,.65-3.68,7.72,7.72,0,0,1,2.06-3,10.1,10.1,0,0,1,3.63-2.06,16.09,16.09,0,0,1,5.33-.77c3.69,0,6.43.79,8.2,2.36a8.47,8.47,0,0,1,2.65,6.66v1.29h-7.31a6.41,6.41,0,0,0-.8-3.62,3.15,3.15,0,0,0-2.8-1.15,4.37,4.37,0,0,0-2.68.85,3,3,0,0,0-1.15,2.57,3.32,3.32,0,0,0,.74,2.12,5.62,5.62,0,0,0,2.8,1.59l4.89,1.65a11.16,11.16,0,0,1,5.42,3.39,9.15,9.15,0,0,1,1.59,5.69,10.16,10.16,0,0,1-.88,4.4" transform="translate(-56.68 -223.92)"/><path class="c" d="M737.31,281.31a5.11,5.11,0,0,0,1.33,2.3,3.31,3.31,0,0,0,2.36.82,3.45,3.45,0,0,0,3.42-2.59c.62-1.73.94-4.57.94-8.55a27.84,27.84,0,0,0-.94-8.55,3.46,3.46,0,0,0-3.42-2.59,3.31,3.31,0,0,0-2.36.83,5.06,5.06,0,0,0-1.33,2.3,15.82,15.82,0,0,0-.56,3.53c-.08,1.38-.12,2.87-.12,4.48s0,3.11.12,4.48a15.82,15.82,0,0,0,.56,3.54" transform="translate(-56.68 -223.92)"/></svg>