<svg xmlns="http://www.w3.org/2000/svg" viewBox="0 0 640.51 150.55"><defs><style>.a{fill:#23244d;}.b{fill:#1ba9e2;}.c{fill:#8a8c8e;}</style></defs><title>logo-aberdeen-standard-investments</title><path class="a" d="M346.64,66.94c5.39,3.64,6.44,7.37,6.44,12.46,0,10-6.06,14.68-18,15a46.68,46.68,0,0,1-14.61-1.91c0-2.68,0-8.79,0-8.79,3.25.51,7.22,1,11.1,1.24,4.59.24,6.48.12,8.2-1a4.2,4.2,0,0,0,1.62-4.24c-.32-1.69-1-2.57-3.63-4.28-3.1-2-6.09-3.77-8.5-5.16-7.44-4.29-9.43-7.11-9.43-13.52,0-9.88,5.36-14,17.78-14a55.17,55.17,0,0,1,12.73,1.59c-.05,1.67,0,9.23,0,9.22A76.51,76.51,0,0,0,338,52.1c-3.13-.08-5.06.12-6.13,1.28a3.36,3.36,0,0,0-.82,2.68c.12,2.09,1.55,2.81,4.33,4.43,2.34,1.38,8.42,4.5,11.3,6.45m25.74,27.48a35.24,35.24,0,0,0,8-.85l0-7.41a50,50,0,0,1-6.48.1c-1-.09-1.18-.3-1.53-.82a7,7,0,0,1-.28-3V62.52H380V55h-7.83V45.52l-10.9,1.89V55h-5.53v7.48h5.53V84.1c0,7.71,3.47,10.3,11.13,10.32m34-9.56,0-8.29c-3.66-.2-6.44,0-7.78.76s-2.09,1.68-2.09,4.24c0,.12,0,.34,0,.47.07,2.78,1.95,4.16,4.89,4A12.27,12.27,0,0,0,406.38,84.86ZM402,54.47c9,.08,15.25,3.83,15.26,13.52V93.87H406.61V91.61c-2.53,2-5.4,2.79-9.17,2.81-7.68,0-11.39-5.15-11.4-11.49V81.54c.22-8.58,5.69-11.23,17-11.25h3.34V68c0-2-.52-3.16-1.63-3.92s-3.43-1-5.82-.93c-3.37.08-7.67.56-10.22.83l0-7.77A52.77,52.77,0,0,1,402,54.47M526,84.86V76.57c-3.67-.2-6.46,0-7.79.76s-2.09,1.68-2.09,4.24c0,.12,0,.34,0,.47.07,2.78,2,4.16,4.89,4A12.23,12.23,0,0,0,526,84.86Zm-4.37-30.39c9,.08,15.24,3.83,15.25,13.52V93.87H526.27V91.61c-2.54,2-5.41,2.79-9.18,2.81-7.67,0-11.39-5.15-11.39-11.49V81.54c.21-8.58,5.69-11.23,17-11.25h3.35V68c0-2-.53-3.16-1.64-3.92s-3.42-1-5.81-.93c-3.37.08-7.68.56-10.23.83l0-7.77a52.85,52.85,0,0,1,13.31-1.73M447.8,93.87h10.9V67.28c0-6.65-3.25-12.78-12-12.79a18.78,18.78,0,0,0-11.18,3.66V55H425.37V93.87h10.94V65.39a16.65,16.65,0,0,1,5.95-2c2.29-.18,3.4.1,4.57,1.4.88,1,1,2.66,1,5.06Zm40.51-9,0-22.35a18,18,0,0,0-6.49-.27c-4.29.94-5.42,3.89-5.42,10.53,0,.21,0,3.15,0,3.35.06,5.16.49,6.82,2,8.45,1.06,1.14,2.58,1.57,4.66,1.57A10.21,10.21,0,0,0,488.31,84.84Zm0-42.81h10.9V93.87H488.55V91.64a13.49,13.49,0,0,1-9,2.82c-8.83,0-14-4.91-14-15.93,0-.3,0-6,0-6.25.1-7.89,2-11.77,5.22-14.75,2.58-2.41,6.47-3.68,11.29-3.69a33.23,33.23,0,0,1,6.22.55ZM593.1,84.84l0-22.35a18.07,18.07,0,0,0-6.5-.27c-4.28.94-5.41,3.89-5.41,10.53V76.1c.06,5.16.5,6.82,2,8.45,1.06,1.14,2.58,1.57,4.66,1.57A10.24,10.24,0,0,0,593.1,84.84Zm0-42.81H604V93.87H593.33V91.64a13.49,13.49,0,0,1-9,2.82c-8.83,0-14-4.91-14-15.93V72.28c.1-7.89,2-11.77,5.22-14.75,2.58-2.41,6.48-3.68,11.29-3.69a33.27,33.27,0,0,1,6.23.55ZM567,54.57c-4.57-.52-9.59,1.49-11.36,3.3V55H545V93.87h10.89v-28A20.09,20.09,0,0,1,567,63.45s0-8,0-8.88"/><polyline class="b" points="640.51 0 616.39 47.13 605.91 26.52 640.51 0"/><path class="b" d="M14.71,78.16c-5,0-10.59,1.16-14.71,4.58C3.74,76.44,10.12,71,18.14,71c6.46,0,11.14,3.66,20,3.66A37,37,0,0,0,57.61,69c-4.75,6.86-12.69,12.86-21.88,12.86-8.25,0-11.91-3.66-21-3.66"/><path class="a" d="M77.45,54.47A24,24,0,0,0,68.81,56V38.06h-7V92.23a25.1,25.1,0,0,0,11.67,2.51c12.61,0,22-5.95,22-21.28,0-11.48-6.77-19-18.06-19M73.62,88.55a13.36,13.36,0,0,1-4.83-.71V62.44a20.12,20.12,0,0,1,7.95-1.56c7.63,0,11.6,4.22,11.6,12.58C88.34,82.77,83.36,88.4,73.62,88.55ZM256.11,54.47c-11.6,0-18.22,8.57-18.22,20,0,12.23,8.49,20.26,20.87,20.26a22.92,22.92,0,0,0,12.68-3.59l-2.72-5.77A19.37,19.37,0,0,1,259.3,88c-6.69,0-13.31-3.19-14.09-11.52h28V74.33C273.16,64.67,268.41,54.55,256.11,54.47ZM245.37,70.12c.85-5.69,5-9.34,10.19-9.34,5.69,0,9.35,3.73,10.2,9.34ZM117,54.47c-11.61,0-18.22,8.57-18.22,20,0,12.23,8.49,20.26,20.87,20.26a22.94,22.94,0,0,0,12.68-3.59l-2.72-5.77A19.4,19.4,0,0,1,120.17,88c-6.7,0-13.31-3.19-14.09-11.52h28V74.33C134,64.67,129.28,54.55,117,54.47ZM106.24,70.12c.85-5.69,5.06-9.34,10.2-9.34,5.68,0,9.34,3.73,10.19,9.34ZM309.83,73.7V93.87h-7V74.33c0-8.65-3.5-13.78-12.22-13.78a24.54,24.54,0,0,0-6.39.77V93.87h-7V57.28a32.64,32.64,0,0,1,13.7-2.81C303.36,54.47,309.83,61.87,309.83,73.7ZM217.65,54.47c-11.6,0-18.22,8.57-18.22,20,0,12.23,8.49,20.26,20.87,20.26A22.92,22.92,0,0,0,233,91.15l-2.72-5.77A19.37,19.37,0,0,1,220.84,88c-6.7,0-13.31-3.19-14.1-11.52h28V74.33C234.7,64.67,230,54.55,217.65,54.47ZM206.9,70.12c.86-5.69,5.07-9.34,10.2-9.34,5.69,0,9.34,3.73,10.2,9.34ZM163.53,58.21l-3.65,5.14a16.73,16.73,0,0,0-9.5-2.73,15.25,15.25,0,0,0-5.29.94V93.87h-7V57.2a26.11,26.11,0,0,1,11.75-2.73C155,54.47,159.88,55.48,163.53,58.21Zm25-3.2a32.94,32.94,0,0,0-5.91-.54c-12.3,0-21.1,8.05-21.1,20.29s9.49,20,21.88,20a29.59,29.59,0,0,0,12.14-2.56V38.06h-7Zm0,33a16.6,16.6,0,0,1-4.81.54c-8.58-.15-15.18-4.82-15.18-13.92,0-8.49,5-13.77,14.56-13.77a19.82,19.82,0,0,1,5.43.69ZM17.13,80.82,10.74,93.87H1.85L8.18,81.51a26.67,26.67,0,0,1,6.53-.81C15.58,80.7,16.36,80.76,17.13,80.82Zm34.2-1.67,7.54,14.72H50L44.56,82.78A29.21,29.21,0,0,0,51.33,79.15ZM22.91,69a22,22,0,0,0-4.77-.55,19,19,0,0,0-3.45.34L30.36,38.2,47,70.73a34.12,34.12,0,0,1-7.77,1.2L30.36,53.77Z"/><path class="c" d="M427.51,124.11c1.74-1.71,4.65-2.54,9-2.54a36.84,36.84,0,0,1,8.19,1v6.2a62.65,62.65,0,0,0-6.69-.88,14.47,14.47,0,0,0-3.41,0,1.38,1.38,0,0,0-1.17.81c-.23.68,0,1.27.86,1.84,1.69,1.1,5,2.27,8.44,4.44a7.39,7.39,0,0,1,3.58,6.59c0,3.12-.77,4.73-2.22,6.18-1.77,1.78-4.9,2.81-9.7,2.81a30,30,0,0,1-8.53-1.2v-5.83a61.23,61.23,0,0,0,7.13.78c3.06.15,4.79-.15,5.11-1.22a1.83,1.83,0,0,0-.92-2.23c-2.57-1.78-5.36-2.7-8.43-4.75a6.94,6.94,0,0,1-3.28-6.33,8,8,0,0,1,2-5.66m-19.72-7.61V122h-4v5.41h4v15.64c0,5.58,2.5,7.45,8.06,7.47a25.62,25.62,0,0,0,5.82-.61l0-5.38a38.67,38.67,0,0,1-4.7.09c-.76-.07-.85-.23-1.1-.61a5,5,0,0,1-.21-2.17V127.44h5.67V122h-5.67v-6.9Zm-24,7.76V122h-7.33v28.13h7.93V129.51a12.12,12.12,0,0,1,4.31-1.44c1.66-.13,2.46.08,3.31,1,.63.7.71,1.93.71,3.67v17.39h7.89V130.88c0-4.82-2.35-9.26-8.72-9.27a13.59,13.59,0,0,0-8.1,2.65M347,134.67c0-9.17,5.54-13.07,12.66-13.07,4.47,0,7.67,1.92,9.29,4.1,2.19,3,2.62,5.18,2.61,11.12,0,.4,0,1.22,0,1.64H354.73c.13,3,1.3,5.23,5.21,5.65,3.29.35,7.77-.54,10.69-1.22,0,0,0,4.07,0,5.84a30.28,30.28,0,0,1-10.9,1.82c-7.77,0-12.7-3.93-12.7-13.44v-2.44m12.48-7.14c-2.68,0-4.72,1.68-4.76,5.84h9.53c-.08-4.07-2-5.83-4.77-5.84m-32.89-3.27s-.42.33-.9.78a7.35,7.35,0,0,0-6.7-3.43,12.14,12.14,0,0,0-7.57,2.65V122h-6.85v28.13H312V129.51a10.88,10.88,0,0,1,4-1.44c1.54-.13,2.3.08,3.09,1,.59.7.66,1.93.66,3.67v17.39h7.39V129.51a10.89,10.89,0,0,1,4-1.44c1.55-.13,2.31.08,3.11,1,.59.7.65,1.93.65,3.67v17.39h7.37V130.88c0-4.82-2.19-9.26-8.14-9.27a12.14,12.14,0,0,0-7.57,2.65m-40.34-7.76V122h-4v5.41h4v15.64c0,5.58,2.51,7.45,8.06,7.47a25.65,25.65,0,0,0,5.83-.61v-5.38a38.54,38.54,0,0,1-4.69.09c-.76-.07-.86-.23-1.11-.61a5,5,0,0,1-.21-2.17V127.44h5.67V122h-5.67v-6.9ZM261,124.11a8,8,0,0,0-2,5.66,6.94,6.94,0,0,0,3.26,6.33c3.08,2.05,5.87,3,8.44,4.75a1.83,1.83,0,0,1,.92,2.23c-.32,1.07-2.05,1.37-5.11,1.22a61,61,0,0,1-7.13-.78v5.83a30,30,0,0,0,8.53,1.2c4.8,0,7.93-1,9.7-2.81,1.44-1.45,2.23-3.06,2.23-6.18a7.4,7.4,0,0,0-3.59-6.59c-3.43-2.17-6.75-3.34-8.44-4.44-.86-.57-1.08-1.16-.87-1.84a1.4,1.4,0,0,1,1.18-.81,14.41,14.41,0,0,1,3.4,0,62.51,62.51,0,0,1,6.7.88v-6.2a36.76,36.76,0,0,0-8.19-1c-4.35,0-7.26.83-9,2.54m-30.74,10.56c.05-9.17,5.54-13.07,12.66-13.07,4.46,0,7.66,1.92,9.29,4.1,2.19,3,2.62,5.18,2.6,11.12,0,.4,0,1.22,0,1.64H238c.13,3,1.3,5.23,5.21,5.65,3.29.35,7.76-.54,10.69-1.22v5.84a30.21,30.21,0,0,1-10.9,1.82c-7.76,0-12.69-3.93-12.69-13.44v-2.44m12.48-7.14c-2.68,0-4.72,1.68-4.77,5.84h9.54c-.08-4.07-2-5.83-4.77-5.84M220.05,122l-5.32,21.41L209.4,122h-8.51l7.66,25.43c.68,2.24,2.28,3,4.79,3h2.76c2.5,0,4.11-.74,4.79-3L228.56,122Zm-38.24,2.25V122h-7.33v28.13h7.93V129.51a12.12,12.12,0,0,1,4.31-1.44c1.66-.13,2.46.08,3.31,1,.63.7.71,1.93.71,3.67v17.39h7.88V130.88c0-4.82-2.35-9.26-8.71-9.27a13.59,13.59,0,0,0-8.1,2.65m-22.27,25.88h8.37V113.51h-8.37Z"/></svg>