<svg xmlns="http://www.w3.org/2000/svg" viewBox="0 0 630.78 276.06"><defs><style>.a{fill:#007a35;}</style></defs><title>logo-quilter-investors</title><path class="a" d="M610.78,234.22c-9.58-3.94-18-6.9-18-15.34,0-6.77,5.35-11.55,13.52-11.55,6.76,0,13.52,3.1,19.72,14.22l1-.28-1.42-13.8a51.19,51.19,0,0,0-16.33-2.68c-11.83,0-23.81,4.65-23.81,18.31,0,13.1,11.14,17.61,20.43,21.41s16.48,7.18,16.48,15.63c0,6.9-4.65,13.38-15.07,13.38-9.44,0-16.2-5.35-22-17.75l-1,.29,1.41,16.05a51,51,0,0,0,19.57,3.95c15.5,0,25.5-6.91,25.5-19.72,0-13.38-10.14-18.17-20-22.12m-375.3-8.87c0-12.67-6.9-20.56-19.86-20.56-9.29,0-17.46,4.65-24.08,12.54l-.56-.14v-13.1l-15.91,7.46v.28c3.23,2.82,6.19,6.91,6.19,14.09v26.33c0,9.86-.42,15.21-3.1,21.41v.28h16.48v-.28c-2.82-6.2-3.1-11.83-3.1-21.54V220a26.89,26.89,0,0,1,19.16-8.31c10.7,0,14.5,7.19,14.5,15.92v24.64c0,9.3-.56,15.21-3.09,21.41v.28h16.47v-.28c-3-6.2-3.1-11.4-3.1-21.54Zm-91.35-54.22c4.64,7.18,5.63,11.27,5.63,20.84v60.85c0,9.58-1,13.66-5.63,20.84v.28h21.64v-.28c-4.65-7.18-5.64-11.13-5.64-20.84V192c0-9.71,1-13.66,5.64-20.84v-.28H144.13Zm253.05,63.09c-9.57-3.94-18-6.9-18-15.34,0-6.77,5.35-11.55,13.52-11.55,6.75,0,13.52,3.1,19.71,14.22l1-.28L412,207.47a51.21,51.21,0,0,0-16.34-2.68c-11.83,0-23.8,4.65-23.8,18.31,0,13.1,11.13,17.61,20.42,21.41s16.48,7.18,16.48,15.63c0,6.9-4.64,13.38-15.07,13.38-9.44,0-16.19-5.35-22-17.75l-1,.29,1.4,16.05a51,51,0,0,0,19.58,3.95c15.5,0,25.49-6.91,25.49-19.72,0-13.38-10.14-18.17-20-22.12M498,204.79c-19.16,0-35.21,16.34-35.36,35.77a35.36,35.36,0,1,0,70.71,0c0-19.43-16.06-35.77-35.35-35.77m0,68.59c-15.92,0-23.52-15.21-23.52-32.82s7.74-33.09,23.52-33.09,23.52,15.35,23.52,33.09-7.61,32.82-23.52,32.82m58.45-52.11-.7-.14v-17l-15.92,7.46v.28c3.24,2.82,6.2,6.91,6.2,14.09v26.33c0,9.86-.42,15.21-3.1,21.41v.28h16.48v-.28c-2.82-6.2-3.1-11.83-3.1-21.54V224.37c3.8-4.93,8.45-8.73,10.84-8.73,3.24,0,9,1.55,11.27,3.1h.42l.15-14c-9.72,0-16.34,9.86-22.54,16.48M341.69,267c-15.92,0-24.93-11.41-24.93-30.28,0-1.69,0-3.23.14-4.78h46.9A25.7,25.7,0,0,0,338,204.79c-16.33,0-32,14.37-32,36.76,0,20.14,12.39,34.51,31,34.51,13.8,0,23.52-8.17,27-19.15l-.71-.43c-4.78,7.18-13.09,10.56-21.68,10.56m-4.23-59.71c9.72,0,14.93,6.48,14.93,20.56V229H317.32c2-13.11,9.08-21.69,20.14-21.69m-48.31-.14c3.24,2.82,4.65,8.73,1.41,17.46l-13.24,34.93-19.74-52.67H243.52v.28c3.38,2.95,5.21,6.62,8.59,15.35l20.42,52.39h1.41l20-51.83c3.1-8.45,5.06-11.69,9.72-15.91v-.28H289.15Zm161,63.23c-7,0-10.14-3.66-10.14-10.56V209.44h19.72v-3.71H440V194.09h-.7l-17.19,14.79v.56h7.61v50.42c0,12.68,7.46,16.2,14.93,16.2a20.91,20.91,0,0,0,16.47-7.75l-.27-.56a23.55,23.55,0,0,1-10.71,2.67"/><path class="a" d="M204.19,103.84V49.65l-23.88,8.72v.72h0v.18c4.64,3.66,7.29,9.45,7.29,17.74v33.8c-3.15,6-8.12,10.44-16.08,10.44-9.28,0-14.58-6-14.58-17.57v-54L133.4,58.37v.57h0v.33c4.15,3.66,7,9.29,7,17.74v29.32c0,17.24,7.3,28.18,21.39,28.18,13.43,0,21.06-10.27,26.69-21V134l23.21-5.3v-.34c-5.3-3.81-7.46-7-7.46-24.54"/><path class="a" d="M242.92,49.63l-24,8.79v1.16c4,4.47,7.46,10.78,7.46,21.39V99.86c0,14.43-1.49,22.72-3.81,31.83V132h24v-.34c-3.33-9.11-3.65-17.73-3.65-32Z"/><path class="a" d="M280,0l-24,8.79v1c4,4.31,7.46,10.61,7.46,21.38V109c0,12.44-1.49,18.08-3.65,22.71V132h24v-.34c-2.33-4.47-3.82-10.44-3.82-22.87Z"/><path class="a" d="M441.51,69.86h-.66V49.63l-23.38,8.79v1c4,4.47,7.46,10.61,7.46,21.55V99.87c0,14.58-.66,22.7-3.81,31.83V132h24v-.33c-3.32-9.13-3.65-17.57-3.65-32V73.17c3.65-5,8-7.45,10.61-7.45,3.64,0,11.6,2.48,14.76,5h.66l.32-20.22c-10.77-.17-19.72,11.61-26.35,19.4"/><path class="a" d="M386,120.43c-17.4,0-29-11.11-29-34.49V82.79h53.22c1-14.59-12.27-32.33-31.67-32.33-18.23,0-38.29,16.74-38.29,43.44,0,23,15.09,40.61,37.3,40.61,17.24,0,28.51-10.94,32.82-24.53l-1-.66c-5.64,7.13-13.27,11.11-23.38,11.11m-8.12-67c10.24,0,15.38,7.57,15.42,23.86H357.66c1.88-13.69,8.44-23.86,20.24-23.86"/><path class="a" d="M328.21,126.23c-7.95,0-11.6-4.31-11.6-12.27V58.44H338V53h0v0H316.61V34.21H315l-24,20.73v1h8.95v58.53c0,15.58,8.79,20.06,18.57,20.06,9.29,0,16.58-4,21.22-10.45l-.49-.66a22.68,22.68,0,0,1-11,2.82"/><path class="a" d="M21.05,71.51c0-34.14,12.77-60,41.29-60C91,11.5,104,37.37,104,71.51,104,105.83,91,131.2,62.34,131.2c-28.52,0-41.29-25.53-41.29-59.69m99,77.44a49.86,49.86,0,0,1-5.61.77c-18.81,1.44-39.38-5.08-49.14-15.31C95.43,132.55,125,105.52,125,71.51,125,36.37,93.5,8.19,62.34,8.19S0,36.37,0,71.51c0,33.83,28.85,60.85,58.86,62.84.07.09.12.19.19.28,9.14,18.7,28.44,33.45,51.11,34.28a36.89,36.89,0,0,0,7.24-.36q1.38-.21,2.67-.54Z"/><path class="a" d="M233.8,36.78a10,10,0,0,0,9.95-9.94,10,10,0,1,0-19.9,0,10,10,0,0,0,10,9.94"/></svg>