<svg xmlns="http://www.w3.org/2000/svg" viewBox="0 0 703.98 210.24"><defs><style>.a{fill:#86151e;}.b{fill:#9d9d9c;}</style></defs><path class="a" d="M149.83,118c15.11,0,18.64-16.8,18.64-35.28s-3.53-35.27-18.64-35.27-18.65,16.8-18.65,35.27S134.71,118,149.83,118M110.35,82.71c0-25.53,16.63-39,39.48-39s39.47,13.44,39.47,39-16.63,39-39.47,39S110.35,108.24,110.35,82.71Z"/><path class="a" d="M194,116.14h11.08V49.29H194v-3.7H223.2v21.5h.34c2-9.07,6.21-23.35,24.36-23.35,10.08,0,16.46,5.38,16.46,15.29,0,7.39-2.36,11.25-9.58,11.25-6.38,0-9.57-3.36-9.57-8.56,0-2.86.67-5.21.67-8.07s-2-4.53-4.87-4.53c-12.77,0-16.8,21.16-16.8,38.8v28.22h15.12v3.69c-7.94,0-17,0-24.72,0-6.76,0-13.73,0-20.63,0"/><path class="a" d="M265.87,116.14H277V49.29H265.87v-3.7H295.1V68.27h.33c1.51-12.27,8.23-24.53,27.21-24.53,19.49,0,24.86,11.93,24.86,27.21v45.19h11.09v3.69c-6.86,0-14,0-20.68,0s-13.76,0-20.64,0v-3.69h11.08V71c0-13.94-2-21.83-11.76-21.83-15.95,0-20.49,21.33-20.49,39.81v27.21h11.09v3.69c-6.93,0-13.94,0-20.66,0s-13.77,0-20.66,0"/><path class="a" d="M416.51,78.35c0-14.62-1.69-30.91-15.79-30.91-15,0-16.8,20.66-16.8,30.91M436,100.18c-2.69,6.22-9.07,21.5-33.26,21.5-23,0-39.64-13.77-39.64-37.79,0-24.69,13.1-40.15,38.13-40.15,29.39,0,36.11,23.35,36.11,38.3H383.92c0,10.75,1.51,35.95,20.49,35.95,20,0,25.36-13.27,27.88-19.15Z"/><path class="a" d="M439.93,116.14H451V5.61H439.93V1.92c5.07,0,10.09,0,15.12,0s9.82,0,15.12,0V116.14h14.66v3.69c-10.51,0-17.6,0-24.32,0s-13.68,0-20.58,0"/><path class="a" d="M492.5,12.33c0-7.39,5.21-11.08,12.6-11.08s12.6,3.69,12.6,11.08-5.21,11.09-12.6,11.09-12.6-3.7-12.6-11.09m-8.06,103.81h11.09V49.29H484.44v-3.7h30.24v70.55h11.08v3.69c-7,0-13.95,0-20.67,0s-13.76,0-20.65,0Z"/><path class="a" d="M562.88,116.31C581,116.31,581,88.93,581,78.51c-15.95.51-29.56,2-29.56,21.17,0,8.73,2.85,16.63,11.42,16.63M582,101.86h-.33c-2.86,8.4-7.23,19.82-25.7,19.82-15.29,0-25.37-8.23-25.37-20.49,0-25,29.4-25.2,50.39-26.37V66.25c0-10.92-1.84-18.81-15.62-18.81-6,0-11.59,2.69-11.59,6.72,0,2.52.67,4.87.67,7.39,0,6-3.19,8.56-10.07,8.56-5.55,0-9.08-2.85-9.08-7.72,0-14.11,16.63-18.65,30.57-18.65,18.32,0,34.27,5.88,34.27,22.51v49.89H611.7v3.69c-6.06,0-11.39,0-16.26,0-4.71,0-8.63,0-13.41,0Z"/><path class="a" d="M611.26,116.14h11.09V49.29H611.26v-3.7h29.22V68.27h.34C642.33,56,649.05,43.74,668,43.74c19.48,0,24.86,11.93,24.86,27.21v45.19H704v3.69c-7,0-14,0-20.67,0s-13.78,0-20.66,0v-3.69h11.09V71c0-13.94-2-21.83-11.76-21.83-16,0-20.49,21.33-20.49,39.81v27.21h11.09v3.69c-7.05,0-13.85,0-20.58,0s-13.82,0-20.74,0"/><path class="a" d="M99.67,81.1v35.29c-10,.1-23.15,5.22-37.95,5.22C20.06,121.61,0,95.18,0,60.58S20.06,0,61.72,0C76.12,0,88,4.26,98.52,4.48c0,0,0,28,0,33.48h-4C92.79,26.2,89.6,4,61.72,4,36,4,25.77,29.23,25.77,60.8s10.25,56.78,36,56.78c29.56,0,33-24.56,34-36.48"/><path class="b" d="M4.65,200.77H6.41a1.52,1.52,0,0,0,1.3-1.34V178.25a1.51,1.51,0,0,0-1.3-1.38H4.65V174.1h12c6.88,0,11.28,2.51,11.28,8.89s-4.32,9-11.36,9h-4v8.77H16.3v2.68H4.65M16.56,189c4.65,0,6.37-2,6.37-6s-1.85-5.91-6.37-5.91h-4V189Z"/><path class="b" d="M29.71,197.16c0-4.53,3.6-6.67,8.68-6.67a20.07,20.07,0,0,1,5,.59v-2.89c0-2.81-1.64-3.82-4.45-3.82a7.91,7.91,0,0,0-5.7,2.06h-2.1V183a19,19,0,0,1,8.6-1.72c5.16,0,8.18,1.63,8.18,6.5v11.7a1.25,1.25,0,0,0,1.34,1.34h1.13V203a5.64,5.64,0,0,1-2.89.67c-2.39,0-3.65-1-4-3a8,8,0,0,1-6.71,3c-4.19,0-7.12-2.18-7.12-6.54m13.71,1.22V193.6a21.1,21.1,0,0,0-4.11-.42c-3.19,0-5.12,1.13-5.12,3.86s1.51,3.77,4.07,3.77A6.7,6.7,0,0,0,43.42,198.38Z"/><path class="b" d="M52.39,200.77H54a1.26,1.26,0,0,0,1.13-1.13V185.5A1.34,1.34,0,0,0,54,184.33h-1.8v-2.85h6.41c.63,0,1,.54,1,2.93v.72c1.55-2,3.48-3.82,6.54-3.82a5.26,5.26,0,0,1,1.26.17v3.73h-.88c-3.36,0-5.28.8-6.92,2.22v13.34h3.48v2.68H52.39"/><path class="b" d="M72.23,198.25V184.33H69.42v-2.85h2.81v-5.91h4.53v5.91h5v2.85h-5v13.42c0,2.47.84,3,3.06,3H82v2.43a11.17,11.17,0,0,1-3.64.54c-3.9,0-6.17-1.38-6.17-5.49"/><path class="b" d="M92.11,192.55c0-7.05,4.91-11.32,11.2-11.32s11.19,4.27,11.19,11.32-4.86,11.15-11.19,11.15-11.2-4.19-11.2-11.15m17.7,0c0-5.45-2.69-8.3-6.5-8.3s-6.5,2.85-6.5,8.3,2.68,8.18,6.5,8.18S109.81,198,109.81,192.59Z"/><path class="b" d="M116.77,200.77h1.55a1.26,1.26,0,0,0,1.18-1.13V184.33h-2.9v-2.85h2.9v-1.89c0-4.11,2.51-5.83,6.41-5.83a9.77,9.77,0,0,1,3.44.51v2.6h-2.1c-1.92,0-3.22.42-3.22,2.85v1.76h4.61v2.85H124v15.31a1.22,1.22,0,0,0,1.13,1.13h2.14v2.68H116.77"/><path class="b" d="M141.18,198.25V184.33h-2.81v-2.85h2.81v-5.91h4.53v5.91h5v2.85h-5v13.42c0,2.47.84,3,3.06,3H151v2.43a11.29,11.29,0,0,1-3.65.54c-3.9,0-6.16-1.38-6.16-5.49"/><path class="b" d="M160.3,200.77h3.06v2.68H153v-2.68h1.63a1.25,1.25,0,0,0,1.13-1.13V178a1.33,1.33,0,0,0-1.13-1.17h-1.76V174.1h6.58c.55,0,.84.38.84,1.13v9.52a12.92,12.92,0,0,1,8.64-3.52c3.15,0,5.74,1.13,5.74,5.45v13a1.22,1.22,0,0,0,1.1,1.13h1.38v2.68h-10v-2.68h3V188.19c0-2.73-1.22-3.4-3.44-3.4a12.72,12.72,0,0,0-6.42,2.1"/><path class="b" d="M179.43,192.55c0-7,4.32-11.32,10.69-11.32,6.16,0,9.73,3.23,9.73,10.57,0,.62,0,1.21,0,1.38H184.17c.16,5.11,2.39,7.63,6.75,7.63,3.1,0,4.53-1.09,5.66-2.47h2.6v3.1c-1.72,1.13-4.2,2.26-8.6,2.26-7.38,0-11.15-4.27-11.15-11.15m15.85-2.1c-.17-4.65-2-6.41-5.16-6.41s-5.45,2.09-5.87,6.41Z"/><path class="b" d="M209.92,200.68h1.76a1.51,1.51,0,0,0,1.3-1.34V178.17a1.52,1.52,0,0,0-1.3-1.39h-1.76V174.1h11.7c6.54,0,10.52,2.14,10.52,7.42,0,3.77-2.26,5.62-5.91,6.37V188c4.36.59,7.17,2.77,7.17,7.09,0,5.7-4.53,8.34-11.32,8.34H209.92m11.53-16.73c3.9,0,5.83-1.43,5.83-4.86s-1.93-4.78-5.79-4.78h-3.65v9.64Zm.5,13.79c4.49,0,6.38-1.88,6.38-5.61s-1.81-5.33-6.55-5.33h-3.94v10.94Z"/><path class="b" d="M235.71,200.77h1.64a1.26,1.26,0,0,0,1.13-1.13V185.5a1.34,1.34,0,0,0-1.13-1.17h-1.81v-2.85H242c.63,0,1,.54,1,2.93v.72c1.55-2,3.48-3.82,6.54-3.82a5.17,5.17,0,0,1,1.25.17v3.73h-.88c-3.35,0-5.28.8-6.91,2.22v13.34h3.48v2.68H235.71"/><path class="b" d="M252.07,192.55c0-7.05,4.9-11.32,11.19-11.32s11.2,4.27,11.2,11.32-4.87,11.15-11.2,11.15-11.19-4.19-11.19-11.15m17.69,0c0-5.45-2.68-8.3-6.5-8.3s-6.5,2.85-6.5,8.3,2.69,8.18,6.5,8.18S269.76,198,269.76,192.59Z"/><path class="b" d="M277.08,192.55c0-7.05,4.91-11.32,11.2-11.32s11.19,4.27,11.19,11.32-4.86,11.15-11.19,11.15-11.2-4.19-11.2-11.15m17.7,0c0-5.45-2.69-8.3-6.5-8.3s-6.5,2.85-6.5,8.3,2.68,8.18,6.5,8.18S294.78,198,294.78,192.59Z"/><path class="b" d="M301.65,200.77h1.64a1.26,1.26,0,0,0,1.13-1.13V178a1.34,1.34,0,0,0-1.13-1.17h-1.76V174.1h6.58c.55,0,.84.38.84,1.13V193l7-7.09c.63-.67.38-1.55-.42-1.55h-1v-2.85h9.1v2.85H322.5a3,3,0,0,0-1.85.88l-5.45,5.45,6.12,8.81a2.55,2.55,0,0,0,1.85,1.3h.63v2.68h-5l-6.62-9.77L309,196.83v3.94h2.77v2.68H301.65"/><path class="b" d="M325.9,202.44v-4.57h2.72c.51,2.06,1.93,2.9,4.87,2.9s4.86-1.09,4.86-3.36c0-2-1.51-2.64-5.24-3.23-4.53-.67-6.88-2.09-6.88-6.45,0-4.11,3.15-6.5,8.39-6.5a20,20,0,0,1,7.21,1.09v4.36h-2.64c-.46-1.64-1.68-2.43-4.74-2.43-2.68,0-4.28,1.09-4.28,2.89s1.18,2.6,5,3.19c5,.75,7.38,2.09,7.38,6.45,0,4.2-2.93,6.92-9,6.92a19.14,19.14,0,0,1-7.63-1.26"/><path class="b" d="M352.49,200.77h1.72a1.49,1.49,0,0,0,1.3-1.34V178.25a1.48,1.48,0,0,0-1.3-1.38h-1.72V174.1h10.65L370.06,196h.12l7-21.93h10.52v2.77H386a1.48,1.48,0,0,0-1.3,1.38v21.18a1.48,1.48,0,0,0,1.3,1.34h1.76v2.68h-11.2v-2.68h3.27V177.33h-.29l-8.34,26.12h-3.4l-8.3-26.12h-.25v23.44h3.31v2.68h-10"/><path class="b" d="M389.86,197.16c0-4.53,3.6-6.67,8.67-6.67a20.1,20.1,0,0,1,5,.59v-2.89c0-2.81-1.64-3.82-4.45-3.82a7.91,7.91,0,0,0-5.7,2.06h-2.1V183a19,19,0,0,1,8.6-1.72c5.16,0,8.17,1.63,8.17,6.5v11.7a1.26,1.26,0,0,0,1.35,1.34h1.13V203a5.64,5.64,0,0,1-2.89.67c-2.39,0-3.65-1-4-3a8,8,0,0,1-6.7,3c-4.2,0-7.13-2.18-7.13-6.54m13.71,1.22V193.6a21.1,21.1,0,0,0-4.11-.42c-3.19,0-5.12,1.13-5.12,3.86s1.51,3.77,4.07,3.77A6.7,6.7,0,0,0,403.57,198.38Z"/><path class="b" d="M412.75,192.51c0-7,4.49-11.28,11.32-11.28a18.18,18.18,0,0,1,7.3,1.17V187h-2.89c-.38-2.18-1.93-2.85-4.49-2.85-4,0-6.5,2.77-6.5,8.39s2.1,8.22,6.42,8.22a6,6,0,0,0,5.36-2.52h2.31v3.27a13.14,13.14,0,0,1-7.76,2.18c-7.33,0-11.07-4.23-11.07-11.19"/><path class="b" d="M434.77,192.72c0-8.39,5.2-11.49,9.61-11.49a9,9,0,0,1,6.75,2.6v-7h-3.19V174.1h6.87c.59,0,.84.42.84,1.13v24.36a1.3,1.3,0,0,0,1.14,1.18h1.63v2.68h-6.33c-.5,0-.84-.63-.88-3a9.34,9.34,0,0,1-7.3,3.27c-4.44,0-9.14-2.56-9.14-11M451.13,198v-11.7a8.15,8.15,0,0,0-5.29-1.85c-3.23,0-6.37,1.77-6.37,8.18,0,6.71,2.94,8.3,5.74,8.3A7.84,7.84,0,0,0,451.13,198Z"/><path class="b" d="M460.61,192.55c0-7.05,4.9-11.32,11.19-11.32S483,185.5,483,192.55s-4.87,11.15-11.2,11.15-11.19-4.19-11.19-11.15m17.69,0c0-5.45-2.68-8.3-6.5-8.3s-6.5,2.85-6.5,8.3,2.69,8.18,6.5,8.18S478.3,198,478.3,192.59Z"/><path class="b" d="M485.18,200.77h1.64a1.26,1.26,0,0,0,1.13-1.13V185.5a1.34,1.34,0,0,0-1.13-1.17H485v-2.85h6.42c.63,0,1.09.59,1.05,2.68v.59a12.92,12.92,0,0,1,8.64-3.52c3.14,0,5.74,1.13,5.74,5.45v13a1.22,1.22,0,0,0,1.09,1.13h1.39v2.68h-10v-2.68h3V188.19c0-2.73-1.21-3.4-3.43-3.4a12.69,12.69,0,0,0-6.42,2.1v13.88h3.06v2.68H485.18"/><path class="b" d="M511.4,197.16c0-4.53,3.6-6.67,8.68-6.67a20.07,20.07,0,0,1,5,.59v-2.89c0-2.81-1.64-3.82-4.45-3.82a7.91,7.91,0,0,0-5.7,2.06h-2.1V183a19,19,0,0,1,8.6-1.72c5.16,0,8.18,1.63,8.18,6.5v11.7a1.25,1.25,0,0,0,1.34,1.34h1.13V203a5.64,5.64,0,0,1-2.89.67c-2.39,0-3.65-1-4-3a8,8,0,0,1-6.71,3c-4.19,0-7.12-2.18-7.12-6.54m13.71,1.22V193.6a21.1,21.1,0,0,0-4.11-.42c-3.19,0-5.12,1.13-5.12,3.86s1.51,3.77,4.07,3.77A6.7,6.7,0,0,0,525.11,198.38Z"/><path class="b" d="M534,200.77h1.59a1.26,1.26,0,0,0,1.18-1.13V178a1.34,1.34,0,0,0-1.18-1.17h-1.72V174.1h6.59c.58,0,.84.38.84,1.13v24.41a1.22,1.22,0,0,0,1.13,1.13h1.63v2.68H534"/><path class="b" d="M546.33,192.72c0-8.39,5.2-11.49,9.6-11.49a9,9,0,0,1,6.76,2.6v-7H559.5V174.1h6.87c.59,0,.84.42.84,1.13v24.36a1.3,1.3,0,0,0,1.14,1.18H570v2.68h-6.33c-.51,0-.84-.63-.88-3a9.35,9.35,0,0,1-7.3,3.27c-4.44,0-9.14-2.56-9.14-11M562.69,198v-11.7a8.17,8.17,0,0,0-5.29-1.85c-3.23,0-6.37,1.77-6.37,8.18,0,6.71,2.93,8.3,5.74,8.3A7.85,7.85,0,0,0,562.69,198Z"/><path class="b" d="M580.05,188.78c0-9.73,5.87-15,14.25-15a13.5,13.5,0,0,1,5.71,1.1c.25,0,.59-.21.67-.8h3.06v8.72h-3.31l-.51-3.73a8.72,8.72,0,0,0-5.57-2c-5.2,0-9.19,3.48-9.19,11.53s3.07,11.95,8.64,11.95a10.4,10.4,0,0,0,5.45-1.3v-6.67h-3.48v-2.77h10.78v2.77h-1.22a1.48,1.48,0,0,0-1.3,1.34v9.52h-2.68c0-.46-.34-1.22-1.05-1.22a15.15,15.15,0,0,1-6.71,1.51c-8.34,0-13.54-5.24-13.54-15"/><path class="b" d="M608.44,200.77h1.64a1.26,1.26,0,0,0,1.13-1.13V185.5a1.34,1.34,0,0,0-1.13-1.17h-1.81v-2.85h6.42c.63,0,1,.54,1,2.93v.72c1.55-2,3.48-3.82,6.54-3.82a5.33,5.33,0,0,1,1.26.17v3.73h-.89c-3.35,0-5.28.8-6.91,2.22v13.34h3.48v2.68H608.44"/><path class="b" d="M624.74,192.55c0-7.05,4.91-11.32,11.2-11.32s11.19,4.27,11.19,11.32-4.86,11.15-11.19,11.15-11.2-4.19-11.2-11.15m17.7,0c0-5.45-2.69-8.3-6.5-8.3s-6.5,2.85-6.5,8.3,2.68,8.18,6.5,8.18S642.44,198,642.44,192.59Z"/><path class="b" d="M651.83,198.29V185.46a1.26,1.26,0,0,0-1.13-1.13h-1.63v-2.85h7.29v15.39c0,2.85,1.47,3.56,3.52,3.56a11.63,11.63,0,0,0,6.25-2.18V184.33H663v-2.85h7.67v18.11a1.29,1.29,0,0,0,1.17,1.18h1.68v2.68h-6.33c-.59,0-1-.5-1-2.56v-.54a12.24,12.24,0,0,1-8.47,3.39c-3.06,0-5.87-1.21-5.87-5.45"/><path class="b" d="M675.5,207.73h1.63a1.26,1.26,0,0,0,1.14-1.13V185.5a1.34,1.34,0,0,0-1.14-1.17h-1.8v-2.85h6.42c.58,0,1,.42,1,2.56v.54a10.1,10.1,0,0,1,7.43-3.35c4.15,0,8.42,2.81,8.42,10.86,0,8.26-4.9,11.11-9.56,11.11a8.82,8.82,0,0,1-6.24-2v6.54h3.27v2.51H675.5m18.41-17.78c0-6.37-2.81-7.92-5.75-7.92a8.68,8.68,0,0,0-5.36,2.35v11.66a6.83,6.83,0,0,0,5,2C690.72,200.51,693.91,199.09,693.91,192.46Z"/></svg>