<svg xmlns="http://www.w3.org/2000/svg" viewBox="0 0 721.06 271.46"><defs><style>.a{fill:#c01634;}.b{fill:#8c8772;}.c{fill:#fff;}</style></defs><path class="a" d="M669.61,123.36c-13.79,0-22.26,13.74-22.26,27.51a29,29,0,0,0,.53,5.34c20.94-4,31.15-15.18,31.15-24C679,126.59,675.51,123.36,669.61,123.36Z"/><path class="a" d="M483.41,150.27a235.16,235.16,0,0,1,5.65-35.39C496.18,84,508.22,60.5,525.21,60.5c11.82,0,16.21,8.21,16.31,17.92C541.78,104,521,135.29,496.25,155c-.32,12.29,3.62,18,10.83,18,13,0,25.89-13.21,37-39.8,1.52-3.63,3-7.81,4.56-11.82,2.22-5.6,13.86-2.36,12.2,3.22-3.57,11.9-9.29,27.66-9.29,38.07,0,7,3.51,9.86,8.68,9.79,7.17-.1,13-5.26,17.26-10.27,0,0,3-14.8,3.82-18.89,12.14-57.65,26.16-82.72,44.54-82.72,11,0,16.55,6.75,16.55,17.65,0,20-13.77,43-40.26,74.7a84.54,84.54,0,0,0,29,5h2.94a53,53,0,0,1-.49-6.89c0-22.42,16.05-38.41,35.85-38.41,12.94,0,23,6.06,23,19.37,0,16.67-17.67,29.87-39.94,34.47,3.47,4.13,10.28,7.08,19.8,7.08,21.38,0,37.86-10.49,48.78-20.71V0H449.59V168.32A143.78,143.78,0,0,0,483.41,150.27Zm79.84-62A8.75,8.75,0,0,1,572.07,97c0,.18,0,.37,0,.55a9.75,9.75,0,0,1-9.64,9.22,8.74,8.74,0,0,1-8.82-8.67c0-.19,0-.37,0-.55A9.79,9.79,0,0,1,563.25,88.27Z"/><path class="a" d="M625.7,71.28c-6.53,0-19.72,18.9-31.18,73.2,19.4-24.54,35.14-52.3,35.14-66.73C629.66,74,628.55,71.28,625.7,71.28Z"/><path class="a" d="M672.28,185c-18.62,0-29.11-7.23-34.73-16.39-1.82.09-4,.14-5.95.14a83.47,83.47,0,0,1-25-3.44A92.64,92.64,0,0,1,614.86,203c-.06,24.4-8.84,40.44-25.6,40.44-11.94,0-18.73-8.71-19-26.69-.18-13.11,1.57-24,4.16-38.7a25.85,25.85,0,0,1-16.57,5.86c-12.31.05-19.18-7.79-19.67-18.59-9.58,12.92-21.11,19.14-33.14,19.14-13.1,0-20.1-8.42-21.49-21a170.85,170.85,0,0,1-34,16.88v91.14H721.06V167.52A77.58,77.58,0,0,1,672.28,185Z"/><path class="a" d="M525.23,71.31c-7.06,0-19.53,21.11-27.28,67.5,22.1-21.58,31.12-49.49,31.12-60.59C529.08,73.08,527.71,71.31,525.23,71.31Z"/><path class="a" d="M590.31,164.92c-2.88,13.36-6.83,36.89-6.83,51.83,0,8.69,1.89,14.19,6.93,14.19,8.74,0,11.35-15.4,11.35-26.78,0-14.77-3.82-30.31-9.71-41.06Z"/><path class="b" d="M14.34,152.83a40.3,40.3,0,0,0,1.09,9.54,22.17,22.17,0,0,0,3.47,7.76,16.92,16.92,0,0,0,6.18,5.21,20,20,0,0,0,9.12,1.92,19.36,19.36,0,0,0,6.87-1.14,23.38,23.38,0,0,0,5.18-2.63,22.76,22.76,0,0,0,4.54-3.77,41.08,41.08,0,0,1,2.92,3.92,8.9,8.9,0,0,1,1.79,4.88,4,4,0,0,1-.39,1.47,9.51,9.51,0,0,1-2.57,3,22.75,22.75,0,0,1-7.81,4,39.71,39.71,0,0,1-12.39,1.7A45.48,45.48,0,0,1,22,187.42a26.28,26.28,0,0,1-10.5-5.22,30.11,30.11,0,0,1-8.19-10.84Q0,164.4,0,153q0-10.59,3.48-17.45A31,31,0,0,1,12,124.72a30.71,30.71,0,0,1,10.78-5.5,38.61,38.61,0,0,1,10.07-1.58,38.85,38.85,0,0,1,9.61,1.12,29.79,29.79,0,0,1,7.31,2.89,15.74,15.74,0,0,1,4.33,3.45,5.65,5.65,0,0,1,1.44,3.6c0,2.33-1.74,5.72-3.93,8.62A28.26,28.26,0,0,0,44.75,132a19.52,19.52,0,0,0-10.11-2.69,21.68,21.68,0,0,0-9.23,1.78,16.76,16.76,0,0,0-6.31,5,20.9,20.9,0,0,0-3.62,7.54A35.48,35.48,0,0,0,14.34,152.83Z"/><path class="b" d="M125,185a13.67,13.67,0,0,1-2.18-6.21,88.14,88.14,0,0,1-.66-12.26V142.83a43.49,43.49,0,0,0-1.24-11,17.51,17.51,0,0,0-4.34-8,19.14,19.14,0,0,0-8.08-4.79A41.53,41.53,0,0,0,96,117.44a57.69,57.69,0,0,0-9,.74,48,48,0,0,0-8.32,2.07,24.41,24.41,0,0,0-6.1,3,4.63,4.63,0,0,0-2.35,3.61,12.93,12.93,0,0,0,.91,3.87,20.14,20.14,0,0,0,2.44,4.75,41,41,0,0,1,9.16-4.85,32.77,32.77,0,0,1,11.6-1.87q8.28,0,11.2,3.15t2.92,9.2v2.26c-1-.09-2-.14-3-.14h-3a91.87,91.87,0,0,0-11.6,1.15A41.26,41.26,0,0,0,79,148.1a26.75,26.75,0,0,0-9.31,7.41,18.72,18.72,0,0,0-3.77,12.11h0A21.59,21.59,0,0,0,68,177.69,17.82,17.82,0,0,0,73.21,184a18.42,18.42,0,0,0,7.06,3.21,35.86,35.86,0,0,0,7.73.88,28.27,28.27,0,0,0,12.79-2.47,31.43,31.43,0,0,0,8.35-6,7.16,7.16,0,0,0,3.58,5.85,14.94,14.94,0,0,0,7.16,1.64,22.88,22.88,0,0,0,2.48-.12,17.35,17.35,0,0,0,2-.33,1.07,1.07,0,0,0,.84-1A1.43,1.43,0,0,0,125,185Zm-16.36-18a5.74,5.74,0,0,1-1.42,3.47,14.8,14.8,0,0,1-3.85,3.33,25,25,0,0,1-5.59,2.56,21.28,21.28,0,0,1-6.67,1q-6.61,0-9-3.19a11.79,11.79,0,0,1-2.42-7.36,10.69,10.69,0,0,1,2.28-7.16,15.57,15.57,0,0,1,5.94-4.23,31,31,0,0,1,8.09-2.09,73.32,73.32,0,0,1,8.76-.55h3.91V167Z"/><path class="b" d="M198.2,186.63h-14V148.1q0-4-.28-7.42a16.2,16.2,0,0,0-1.49-5.88,8.49,8.49,0,0,0-3.94-3.8,17.25,17.25,0,0,0-7.57-1.35,21,21,0,0,0-11.77,3c-3.27,2.12-4.9,4.89-4.9,8v45.92H140.18V118.88l.73-.08.85,0h1.17a13.3,13.3,0,0,1,6.72,1.72,7.69,7.69,0,0,1,3.65,5.91,30.07,30.07,0,0,1,8.92-6.17,30.55,30.55,0,0,1,13.35-2.72q9.72,0,14.88,4.35a20,20,0,0,1,6.72,10.86,32.49,32.49,0,0,1,.86,6.44c.08,2.37.13,4.67.13,6.88v40.62Z"/><path class="b" d="M271.09,185a13.67,13.67,0,0,1-2.18-6.21,86.63,86.63,0,0,1-.66-12.26V142.83a44,44,0,0,0-1.24-11,17.51,17.51,0,0,0-4.34-8,19.14,19.14,0,0,0-8.08-4.79,41.53,41.53,0,0,0-12.49-1.6,57.59,57.59,0,0,0-9,.74,48,48,0,0,0-8.32,2.07,24.41,24.41,0,0,0-6.1,3,4.63,4.63,0,0,0-2.35,3.61,12.93,12.93,0,0,0,.91,3.87,20.14,20.14,0,0,0,2.44,4.75,41,41,0,0,1,9.16-4.85,32.77,32.77,0,0,1,11.6-1.87q8.28,0,11.2,3.15t2.92,9.2v2.26c-1-.09-2-.14-3-.14h-3a92.24,92.24,0,0,0-11.6,1.15,41.29,41.29,0,0,0-11.87,3.71,26.91,26.91,0,0,0-9.33,7.41A18.84,18.84,0,0,0,212,167.62h0a21.71,21.71,0,0,0,2.06,10.07A17.93,17.93,0,0,0,219.3,184a18.46,18.46,0,0,0,7.07,3.21,35.77,35.77,0,0,0,7.72.88,28.34,28.34,0,0,0,12.8-2.47,31.38,31.38,0,0,0,8.34-6,7.16,7.16,0,0,0,3.58,5.85,15,15,0,0,0,7.17,1.64,22.69,22.69,0,0,0,2.47-.12,17.52,17.52,0,0,0,2-.33,1,1,0,0,0,.61-1.66Zm-16.36-18a5.74,5.74,0,0,1-1.42,3.47,14.8,14.8,0,0,1-3.85,3.33,25,25,0,0,1-5.59,2.56,21.28,21.28,0,0,1-6.67,1q-6.62,0-9-3.19a11.79,11.79,0,0,1-2.42-7.36,10.69,10.69,0,0,1,2.28-7.16,15.57,15.57,0,0,1,5.94-4.23,31,31,0,0,1,8.09-2.09,73.32,73.32,0,0,1,8.76-.55h3.91V167Z"/><path class="b" d="M346.16,185a13.8,13.8,0,0,1-2.19-6.21,88.13,88.13,0,0,1-.65-12.26V96.73a17.53,17.53,0,0,0-.84-5.93,9,9,0,0,0-2.3-3.58,7.55,7.55,0,0,0-3.31-1.76,15.88,15.88,0,0,0-3.63-.44c-.62,0-1.32,0-2.1,0a15.07,15.07,0,0,0-1.77.14v39.15a26.87,26.87,0,0,0-6.85-4.32,27.57,27.57,0,0,0-11.79-2.18A26.69,26.69,0,0,0,300.26,120a24.35,24.35,0,0,0-8.87,6.45,32.33,32.33,0,0,0-6.11,11.13A51.19,51.19,0,0,0,283,153.73a50.53,50.53,0,0,0,2.34,16.51,28.4,28.4,0,0,0,6.29,10.66,22.8,22.8,0,0,0,9,5.71,32.36,32.36,0,0,0,10.46,1.73,23.69,23.69,0,0,0,19.22-8.73,7.12,7.12,0,0,0,3.58,5.85A14.83,14.83,0,0,0,341,187.1a20.59,20.59,0,0,0,2.48-.12,17.35,17.35,0,0,0,2-.33,1.06,1.06,0,0,0,.84-1A1,1,0,0,0,346.16,185ZM329.37,168.2a6,6,0,0,1-1.07,3.31,9.64,9.64,0,0,1-3.07,2.89,19.5,19.5,0,0,1-4.73,2.06,20.25,20.25,0,0,1-5.94.83,15.94,15.94,0,0,1-8.06-1.86,14.22,14.22,0,0,1-5.27-5.23,23.5,23.5,0,0,1-2.8-7.92,57.7,57.7,0,0,1-.81-9.91q0-11.58,4.4-17.5A14.16,14.16,0,0,1,314,129a20.14,20.14,0,0,1,5.73.76,22,22,0,0,1,4.48,1.86,16.33,16.33,0,0,1,3.2,2.34c.78.76,1.42,1.4,1.94,1.93V168.2Z"/><path class="b" d="M416.72,185a13.67,13.67,0,0,1-2.18-6.21,88.14,88.14,0,0,1-.66-12.26V142.83a43.49,43.49,0,0,0-1.24-11,17.51,17.51,0,0,0-4.34-8,19.14,19.14,0,0,0-8.08-4.79,41.49,41.49,0,0,0-12.49-1.6,57.46,57.46,0,0,0-9,.74,47.53,47.53,0,0,0-8.32,2.07,24.47,24.47,0,0,0-6.11,3,4.63,4.63,0,0,0-2.35,3.61,12.65,12.65,0,0,0,.92,3.87,19.74,19.74,0,0,0,2.43,4.75,40.87,40.87,0,0,1,9.17-4.85,32.7,32.7,0,0,1,11.6-1.87c5.51,0,9.25,1,11.19,3.15s2.92,5.18,2.92,9.2v2.26c-1-.09-2-.14-3-.14h-3a92.05,92.05,0,0,0-11.6,1.15,41.26,41.26,0,0,0-11.88,3.71,26.75,26.75,0,0,0-9.31,7.41,18.72,18.72,0,0,0-3.77,12.11h0a21.71,21.71,0,0,0,2.06,10.07A17.93,17.93,0,0,0,365,184a18.49,18.49,0,0,0,7.06,3.21,35.93,35.93,0,0,0,7.73.88,28.27,28.27,0,0,0,12.79-2.47,31.43,31.43,0,0,0,8.35-6,7.16,7.16,0,0,0,3.58,5.85,14.94,14.94,0,0,0,7.16,1.64,22.75,22.75,0,0,0,2.48-.12,17.35,17.35,0,0,0,2-.33,1.06,1.06,0,0,0,.84-1A1.16,1.16,0,0,0,416.72,185Zm-16.35-18a5.62,5.62,0,0,1-1.42,3.47,14.92,14.92,0,0,1-3.84,3.33,25,25,0,0,1-5.59,2.56,21.34,21.34,0,0,1-6.68,1c-4.41,0-7.41-1.07-9-3.19a11.8,11.8,0,0,1-2.43-7.36,10.75,10.75,0,0,1,2.29-7.16,15.46,15.46,0,0,1,5.93-4.23,31,31,0,0,1,8.09-2.09,73.45,73.45,0,0,1,8.76-.55h3.91V167Z"/><path class="c" d="M562.43,106.72a9.74,9.74,0,0,0,9.64-9.22,8.75,8.75,0,0,0-8.27-9.21l-.54,0a9.76,9.76,0,0,0-9.64,9.23,8.75,8.75,0,0,0,8.26,9.21Z"/><path class="c" d="M672.27,173.47c-9.52,0-16.34-2.95-19.8-7.08,22.28-4.6,39.93-17.8,39.93-34.47,0-13.31-10.06-19.37-23-19.37-19.79,0-35.84,16-35.84,38.41a51.26,51.26,0,0,0,.49,6.89H631.1a84.54,84.54,0,0,1-29-5.05c26.49-31.73,40.26-54.7,40.26-74.7,0-10.91-5.58-17.65-16.55-17.65-18.37,0-32.4,25.06-44.54,82.72-.87,4.1-3.82,18.89-3.82,18.89-4.2,5-10.08,10.17-17.27,10.27-5.16.07-8.67-2.82-8.67-9.79,0-10.41,5.72-26.17,9.29-38.07,1.67-5.57-10-8.81-12.2-3.22-1.6,4-3,8.2-4.57,11.82-11.13,26.59-24.05,39.8-37,39.8-7.21,0-11.16-5.67-10.83-18C521,135.24,541.77,104,541.51,78.37c-.1-9.71-4.49-17.92-16.32-17.92-17,0-29,23.51-36.14,54.38a235.16,235.16,0,0,0-5.65,35.39,144.38,144.38,0,0,1-33.82,18.06v12a171.93,171.93,0,0,0,34-16.88c1.38,12.58,8.38,21,21.49,21,12,0,23.56-6.22,33.14-19.14.49,10.81,7.35,18.64,19.67,18.59A25.82,25.82,0,0,0,574.42,178c-2.59,14.73-4.33,25.59-4.16,38.7.24,18,7,26.69,19,26.69,16.76,0,25.55-16,25.6-40.44a92.65,92.65,0,0,0-8.3-37.69,83.58,83.58,0,0,0,25,3.44c2,0,4.11-.05,5.94-.14,5.61,9.16,16.11,16.39,34.74,16.39A77.53,77.53,0,0,0,721,167.47V152.69C710.11,163,693.65,173.47,672.27,173.47Zm-147-102.16c2.48,0,3.84,1.77,3.84,6.92,0,11.1-9,39-31.12,60.59C505.72,92.41,518.17,71.31,525.23,71.31Zm100.47,0c2.85,0,4,2.67,4,6.49,0,14.42-15.74,42.17-35.14,66.72C606,90.2,619.17,71.28,625.7,71.28ZM590.42,230.94c-5,0-6.92-5.52-6.92-14.19,0-14.93,3.94-38.46,6.82-51.83l1.76-1.82c5.88,10.75,9.7,26.29,9.7,41.06C601.77,215.54,599.15,230.94,590.42,230.94Zm56.93-80.07c0-13.77,8.47-27.51,22.26-27.51,5.9,0,9.44,3.23,9.44,8.81,0,8.85-10.22,20-31.16,24A26.51,26.51,0,0,1,647.35,150.87Z"/></svg>