<svg xmlns="http://www.w3.org/2000/svg" viewBox="0 0 591.26 351.14"><defs><style>.a{fill:#1d1d1b;}</style></defs><polygon class="a" points="13.14 86.27 0 126.03 125.34 126.03 28.4 351.14 78.12 351.14 190.67 86.27 13.14 86.27"/><path class="a" d="M373.73,100.84A30.66,30.66,0,1,0,404.4,131.5a30.66,30.66,0,0,0-30.67-30.66" transform="translate(-125.11 -100.84)"/><rect class="a" x="224.7" y="86.27" width="47.85" height="264.88"/><polygon class="a" points="367.39 169.28 367.39 351.14 319.5 351.14 319.5 86.27 369.87 86.27 457.5 224.98 541.94 86.27 591.26 86.27 591.26 351.14 543.36 351.14 543.36 170.35 460.34 303.04 453.24 303.04 367.39 169.28"/></svg>