<svg xmlns="http://www.w3.org/2000/svg" viewBox="0 0 181.42 28.35"><defs><style>.a{fill:#9ca299;}.b{fill:#efeff0;}.c{fill:#fff;}</style></defs><title>cautious</title><polygon class="a" points="37.45 28.1 48.19 17.36 58.92 28.1 37.45 28.1"/><path class="b" d="M48.19,17.71,58.32,27.85H38.06L48.19,17.71m0-.7L36.85,28.35H59.53L48.19,17Z"/><path class="c" d="M48.39,26.5a1.12,1.12,0,0,1-1.28-1.21v-3.1h-.92v-1h.92V20l1.32-.39V21.2H50l-.38,1H48.43V24.8c0,.41.15.6.49.6a1.73,1.73,0,0,0,.87-.29l.35.83A3.16,3.16,0,0,1,48.39,26.5Z"/></svg>