<svg xmlns="http://www.w3.org/2000/svg" xmlns:xlink="http://www.w3.org/1999/xlink" width="64mm" height="10mm" viewBox="0 0 181.42 28.35"><defs><linearGradient id="ff1e2de0-28e0-47c2-8196-26c7c55e7f19" x1="11.34" y1="14.17" x2="153.07" y2="14.17" gradientUnits="userSpaceOnUse"><stop offset="0" stop-color="#38af73"/><stop offset="0.57" stop-color="#2c3b8d"/><stop offset="1" stop-color="#63328a"/></linearGradient></defs><g id="b14c4dfc-0a57-47d9-8717-50806133beb8" data-name="Out of range"><rect x="153.07" y="5.67" width="28.35" height="17.01" style="fill:#d3d3d4"/></g><g id="ff4eaffe-e539-47e3-9ad1-ce0f34b972b9" data-name="Bar"><rect x="11.34" y="5.67" width="141.73" height="17.01" style="fill:url(#ff1e2de0-28e0-47c2-8196-26c7c55e7f19)"/><line x1="39.69" y1="5.67" x2="39.69" y2="22.68" style="fill:none;stroke:#fff;stroke-miterlimit:10;stroke-width:0.5px;opacity:0.6000000000000001"/><line x1="68.03" y1="5.67" x2="68.03" y2="22.68" style="fill:none;stroke:#fff;stroke-miterlimit:10;stroke-width:0.5px;opacity:0.6000000000000001"/><line x1="96.38" y1="5.67" x2="96.38" y2="22.68" style="fill:none;stroke:#fff;stroke-miterlimit:10;stroke-width:0.5px;opacity:0.6000000000000001"/><line x1="124.72" y1="5.67" x2="124.72" y2="22.68" style="fill:none;stroke:#fff;stroke-miterlimit:10;stroke-width:0.5px;opacity:0.6000000000000001"/><g style="opacity:0.6000000000000001"><path d="M16.33,17h-.91V12l-1.42.6-.26-.7L15.62,11h.71Z" style="fill:#fff"/></g><g style="opacity:0.6000000000000001"><path d="M46,17H42.06a3.85,3.85,0,0,1,.87-2.23,9.67,9.67,0,0,1,1.34-1.14,1.38,1.38,0,0,0,.68-1c0-.52-.31-.78-.92-.78a3.29,3.29,0,0,0-1.51.42l-.25-.75A4.41,4.41,0,0,1,44.19,11a1.94,1.94,0,0,1,1.35.44A1.41,1.41,0,0,1,46,12.54a1.8,1.8,0,0,1-.63,1.33l-1.23,1a2.41,2.41,0,0,0-.88,1.34L46,16.15Z" style="fill:#fff"/></g><g style="opacity:0.6000000000000001"><path d="M74.41,15.24a1.66,1.66,0,0,1-.59,1.3A2.76,2.76,0,0,1,72,17.1a3.87,3.87,0,0,1-1.61-.34l.27-.71a3.46,3.46,0,0,0,1.35.27,1.75,1.75,0,0,0,.94-.23.85.85,0,0,0,.46-.76c0-.61-.48-.92-1.42-.92h-.79v-.78h.64c.94,0,1.4-.36,1.4-1a.7.7,0,0,0-.26-.57,1,1,0,0,0-.7-.23,3.39,3.39,0,0,0-1.48.42l-.23-.74A4.61,4.61,0,0,1,72.5,11a1.81,1.81,0,0,1,1.3.46,1.43,1.43,0,0,1,.42,1.06,1.4,1.4,0,0,1-.91,1.35h0a1.31,1.31,0,0,1,.8.45A1.36,1.36,0,0,1,74.41,15.24Z" style="fill:#fff"/></g><g style="opacity:0.6000000000000001"><path d="M103.36,15.51h-.9V17h-.92V15.51H98.89v-.65L101.81,11h.65v3.68h.9Zm-1.78-2.95-1.64,2.19,1.6,0v-1.5C101.55,13,101.57,12.75,101.58,12.56Z" style="fill:#fff"/></g><g style="opacity:0.6000000000000001"><path d="M131.61,11.09l-.19.83-2.27,0v1.5a2.59,2.59,0,0,1,1.94.5,1.55,1.55,0,0,1,.52,1.24A1.75,1.75,0,0,1,131,16.5a2.63,2.63,0,0,1-1.84.6,3,3,0,0,1-1.41-.3l.27-.71a2.47,2.47,0,0,0,1.17.25,1.66,1.66,0,0,0,1-.29,1,1,0,0,0,.39-.81c0-.74-.54-1.11-1.61-1.11h-.79V11.09Z" style="fill:#fff"/></g></g><g id="aea00625-dce0-4380-9350-07f9da6a292d" data-name="S marker"><polygon points="71.47 0.25 92.94 0.25 82.2 10.98 71.47 0.25" style="fill:#00a1c1"/><path d="M92.34.5,82.2,10.63,72.07.5H92.34m1.2-.5H70.87L82.2,11.34,93.54,0Z" style="fill:#efeff0"/><path d="M82.11,7.28a3.57,3.57,0,0,1-1.93-.49l.43-1a2.57,2.57,0,0,0,1.4.46c.54,0,.89-.2.89-.55,0-.94-2.4-.58-2.4-2.35,0-.9.72-1.54,2-1.54A4.05,4.05,0,0,1,84,2.11v1.1a4.12,4.12,0,0,0-1.48-.34c-.46,0-.73.14-.73.45,0,.83,2.44.55,2.44,2.34C84.23,6.83,83.2,7.28,82.11,7.28Z" style="fill:#fff"/></g></svg>