<svg xmlns="http://www.w3.org/2000/svg" viewBox="0 0 181.42 28.35"><defs><style>.a{fill:#00a1c1;}.b{fill:#efeff0;}.c{fill:#fff;}</style></defs><title>myportfolio-index-plus-i</title><polygon class="a" points="40.29 0.25 61.76 0.25 51.02 10.98 40.29 0.25"/><path class="b" d="M61.16.5,51,10.63,40.89.5H61.16m1.2-.5H39.69L51,11.34,62.36,0Z"/><path class="c" d="M50.92,7.28A3.56,3.56,0,0,1,49,6.79l.43-1a2.57,2.57,0,0,0,1.4.46c.53,0,.89-.2.89-.55,0-.94-2.4-.58-2.4-2.35,0-.9.71-1.54,2-1.54a4,4,0,0,1,1.52.26v1.1a4.06,4.06,0,0,0-1.47-.34c-.46,0-.73.14-.73.45,0,.83,2.44.55,2.44,2.34C53.05,6.83,52,7.28,50.92,7.28Z"/></svg>