<svg xmlns="http://www.w3.org/2000/svg" viewBox="0 0 615.12 226.77"><defs><style>.a{fill:#8c978e;}.b{fill:#f4792c;}.c{fill:none;}</style></defs><title>logo-synaptic_analyser</title><path class="a" d="M93.24,62.63H56.9A20.19,20.19,0,0,1,36.74,42.46a6.72,6.72,0,0,1,13.44,0h0a6.73,6.73,0,0,0,6.71,6.72H93.24a6.72,6.72,0,0,1,0,13.44Z" transform="translate(0 0)"/><path class="a" d="M76.45,45.84A20.18,20.18,0,0,1,56.29,25.68a6.72,6.72,0,0,1,13.44,0,6.72,6.72,0,0,0,6.72,6.71,6.72,6.72,0,0,1,0,13.44Z" transform="translate(0 0)"/><path class="a" d="M93.24,205.44a6.72,6.72,0,0,1-6.72-6.72h0V20.16a6.73,6.73,0,0,0-6.72-6.72H53.34a6.73,6.73,0,0,0-6.72,6.72,6.72,6.72,0,1,1-13.44,0A20.18,20.18,0,0,1,53.34,0H79.8A20.17,20.17,0,0,1,100,20.16h0V198.72a6.72,6.72,0,0,1-6.72,6.72Z" transform="translate(0 0)"/><path class="a" d="M146.57,27.47a6.72,6.72,0,0,1-6.72-6.72h0A6.73,6.73,0,0,0,133.14,14H106.67A6.72,6.72,0,0,0,100,20.76a6.72,6.72,0,1,1-13.44,0A20.18,20.18,0,0,1,106.67.6h26.46a20.18,20.18,0,0,1,20.16,20.16A6.72,6.72,0,0,1,146.57,27.47Z" transform="translate(0 0)"/><path class="a" d="M36.16,103.52A20.19,20.19,0,0,1,16,83.35V38.53A20.18,20.18,0,0,1,36.16,18.37H62.61a6.72,6.72,0,0,1,0,13.44H36.16a6.73,6.73,0,0,0-6.72,6.72V83.35a6.73,6.73,0,0,0,6.72,6.72,6.72,6.72,0,0,1,0,13.44Z" transform="translate(0 0)"/><path class="a" d="M20.16,122.47A20.18,20.18,0,0,1,0,102.32V74.08A20.18,20.18,0,0,1,20.16,53.93a6.72,6.72,0,0,1,0,13.44,6.72,6.72,0,0,0-6.72,6.71v28.24A6.71,6.71,0,0,0,20.16,109a6.72,6.72,0,0,1,0,13.44Z" transform="translate(0 0)"/><path class="a" d="M20.16,154.47A20.18,20.18,0,0,1,0,134.32V129.2A20.17,20.17,0,0,1,20.16,109h0a6.72,6.72,0,0,1,0,13.44,6.73,6.73,0,0,0-6.72,6.72v5.12A6.73,6.73,0,0,0,20.16,141a6.72,6.72,0,0,1,0,13.44Z" transform="translate(0 0)"/><path class="a" d="M165.72,154.47a6.72,6.72,0,0,1,0-13.44,6.73,6.73,0,0,0,6.72-6.72V106.08a6.72,6.72,0,0,0-6.72-6.71,6.72,6.72,0,0,1,0-13.44,20.18,20.18,0,0,1,20.16,20.15v28.24A20.18,20.18,0,0,1,165.72,154.47Z" transform="translate(0 0)"/><path class="a" d="M166.32,99.36a6.72,6.72,0,0,1,0-13.44h0A6.74,6.74,0,0,0,173,79.2V74.08a6.73,6.73,0,0,0-6.71-6.71,6.72,6.72,0,1,1,0-13.44,20.17,20.17,0,0,1,20.15,20.15V79.2A20.18,20.18,0,0,1,166.32,99.36Z" transform="translate(0 0)"/><path class="a" d="M47.8,190H37.93a20.19,20.19,0,0,1-20.15-20.15V131.16a6.72,6.72,0,0,1,13.44,0v38.71a6.73,6.73,0,0,0,6.71,6.71H47.8a6.73,6.73,0,0,0,6.71-6.71,6.72,6.72,0,0,1,13.44,0A20.16,20.16,0,0,1,47.8,190Z" transform="translate(0 0)"/><path class="a" d="M148,190.62h-9.87a20.18,20.18,0,0,1-20.16-20.15,6.72,6.72,0,0,1,13.44,0,6.72,6.72,0,0,0,6.72,6.71H148a6.72,6.72,0,1,1,0,13.44Z" transform="translate(0 0)"/><path class="a" d="M148,190.62a6.72,6.72,0,1,1,0-13.44,6.73,6.73,0,0,0,6.71-6.71V125a6.73,6.73,0,0,0-6.71-6.72H137.68a6.72,6.72,0,0,1,0-13.44H148A20.18,20.18,0,0,1,168.1,125v45.42A20.17,20.17,0,0,1,148,190.62Z" transform="translate(0 0)"/><path class="a" d="M74.68,189.44a20.18,20.18,0,0,1-20.16-20.16,6.72,6.72,0,0,1,13.44,0h0A6.73,6.73,0,0,0,74.68,176a6.72,6.72,0,1,1,0,13.44Z" transform="translate(0 0)"/><path class="a" d="M111,189.44A6.72,6.72,0,1,1,111,176a6.73,6.73,0,0,0,6.72-6.72,6.72,6.72,0,0,1,13.44,0h0A20.18,20.18,0,0,1,111,189.44Z" transform="translate(0 0)"/><path class="a" d="M110.42,45.84a6.72,6.72,0,0,1,0-13.44h0a6.72,6.72,0,0,0,6.72-6.71,6.72,6.72,0,0,1,13.44,0A20.18,20.18,0,0,1,110.42,45.84Z" transform="translate(0 0)"/><path class="a" d="M76.05,209.59H53.94a20.18,20.18,0,0,1-20.16-20.16v-6.12a6.72,6.72,0,0,1,13.44,0v6.12a6.73,6.73,0,0,0,6.72,6.72H76.05a6.72,6.72,0,0,1,0,13.44Z" transform="translate(0 0)"/><path class="a" d="M132.54,209.59H112.2a6.72,6.72,0,0,1,0-13.44h20.34a6.73,6.73,0,0,0,6.72-6.72V184.5a6.72,6.72,0,1,1,13.44,0v4.93A20.18,20.18,0,0,1,132.54,209.59Z" transform="translate(0 0)"/><path class="a" d="M118.94,226.77H68.16A19.59,19.59,0,0,1,48.59,207.2a6.72,6.72,0,0,1,13.44,0,6.15,6.15,0,0,0,6.13,6.13h50.78a6.13,6.13,0,0,0,6.12-6.13,6.72,6.72,0,1,1,13.44,0A19.59,19.59,0,0,1,118.94,226.77Z" transform="translate(0 0)"/><path class="a" d="M108.83,171.66a6.72,6.72,0,0,1-6.72-6.72h0V140.26a20.18,20.18,0,0,1,20.16-20.16,6.72,6.72,0,1,1,0,13.44,6.73,6.73,0,0,0-6.72,6.72v24.68a6.72,6.72,0,0,1-6.72,6.72Z" transform="translate(0 0)"/><path class="a" d="M138.27,118.32a20.18,20.18,0,0,1-20.16-20.16,6.72,6.72,0,0,1,13.44,0,6.73,6.73,0,0,0,6.72,6.72,6.72,6.72,0,0,1,0,13.44Z" transform="translate(0 0)"/><path class="a" d="M111.4,118.32a6.72,6.72,0,0,1,0-13.44,6.72,6.72,0,0,0,6.71-6.72,6.72,6.72,0,0,1,13.44,0A20.18,20.18,0,0,1,111.4,118.32Z" transform="translate(0 0)"/><path class="a" d="M132.54,86.73a6.72,6.72,0,0,1,0-13.44,6.73,6.73,0,0,0,6.72-6.72,6.72,6.72,0,1,1,13.44,0A20.18,20.18,0,0,1,132.54,86.73Z" transform="translate(0 0)"/><path class="a" d="M143,100a6.72,6.72,0,0,1-6.72-6.72h0c0-3.64-4.06-6.71-8.86-6.71h-3.2c-4.81,0-8.87,3.08-8.87,6.71a6.72,6.72,0,0,1-13.44,0h0c0-11.11,10-20.15,22.31-20.15h3.2c12.3,0,22.3,9,22.3,20.15A6.72,6.72,0,0,1,143,100Z" transform="translate(0 0)"/><path class="a" d="M164.94,83.37a6.72,6.72,0,0,1-6.72-6.72h0V38.53a6.73,6.73,0,0,0-6.72-6.72H125a6.72,6.72,0,0,1,0-13.44h26.5a20.18,20.18,0,0,1,20.16,20.16V76.65a6.72,6.72,0,0,1-6.72,6.72Z" transform="translate(0 0)"/><path class="b" d="M42.27,174a6.72,6.72,0,0,1-6.72-6.72h0V144a20.18,20.18,0,0,1,20.16-20.16,6.72,6.72,0,0,1,0,13.44A6.73,6.73,0,0,0,49,144v23.3A6.71,6.71,0,0,1,42.27,174Z" transform="translate(0 0)"/><path class="b" d="M56.5,137.1a6.72,6.72,0,0,1-6.72-6.72h0a20.18,20.18,0,0,1,20.16-20.16,6.72,6.72,0,0,1,0,13.44,6.73,6.73,0,0,0-6.72,6.72,6.72,6.72,0,0,1-6.72,6.72Z" transform="translate(0 0)"/><path class="a" d="M127.41,66.58a6.72,6.72,0,0,1-6.72-6.72h0A20.18,20.18,0,0,1,140.85,39.7h7.5a6.72,6.72,0,0,1,0,13.44h-7.51a6.73,6.73,0,0,0-6.72,6.72,6.72,6.72,0,0,1-6.72,6.72Z" transform="translate(0 0)"/><path class="a" d="M127,67.37H109.83a6.72,6.72,0,1,1,0-13.44H127a6.72,6.72,0,0,1,0,13.44Z" transform="translate(0 0)"/><path class="a" d="M76.05,168.7a6.72,6.72,0,0,1-6.72-6.7,6.73,6.73,0,0,0-6.72-6.72,6.72,6.72,0,0,1,0-13.44A20.18,20.18,0,0,1,82.77,162,6.72,6.72,0,0,1,76.05,168.7Z" transform="translate(0 0)"/><path class="b" d="M41.09,120.7a6.72,6.72,0,0,1,0-13.44c3.64,0,6.72-4.06,6.72-8.87V95.2c0-4.81-3.08-8.87-6.72-8.87a6.72,6.72,0,0,1,0-13.44c11.12,0,20.16,10,20.16,22.31v3.2C61.25,110.69,52.21,120.7,41.09,120.7Z" transform="translate(0 0)"/><path class="a" d="M70.91,91.66a6.72,6.72,0,0,1-6.72-6.72h0A20.18,20.18,0,0,1,84.35,64.79l8.74-.19A6.72,6.72,0,1,1,94.37,78a6.55,6.55,0,0,1-1,0l-8.89.2a6.77,6.77,0,0,0-6.87,6.65v.07a6.72,6.72,0,0,1-6.7,6.74Z" transform="translate(0 0)"/><path class="b" d="M71.91,123.66a6.72,6.72,0,0,1-6.72-6.72h0V102.72a6.72,6.72,0,0,1,13.44,0v14.22a6.72,6.72,0,0,1-6.72,6.72Z" transform="translate(0 0)"/><path class="a" d="M129.58,155.15a6.72,6.72,0,0,1,0-13.44A6.73,6.73,0,0,0,136.3,135a6.72,6.72,0,1,1,13.44,0A20.18,20.18,0,0,1,129.58,155.15Z" transform="translate(0 0)"/><path class="a" d="M143,168.59a6.72,6.72,0,0,1-6.72-6.72h0a6.73,6.73,0,0,0-6.72-6.72,6.72,6.72,0,0,1,0-13.44,20.18,20.18,0,0,1,20.16,20.16,6.72,6.72,0,0,1-6.72,6.72Z" transform="translate(0 0)"/><path class="a" d="M231.84,107.34a17.71,17.71,0,0,1-10-3l2.53-4.72a12.94,12.94,0,0,0,7.2,2.43c2.29,0,4.87-.86,4.87-3.24,0-4.15-7.63-4.87-11.45-9.21A8.16,8.16,0,0,1,223,84c0-4.77,3.77-9,10.68-9a16,16,0,0,1,7.9,2l-.1,5.63A15.43,15.43,0,0,0,234,80.34c-2.34,0-4.15,1-4.15,2.86,0,5.44,13.5,5,13.5,14.83C243.34,103.76,238.28,107.34,231.84,107.34Z" transform="translate(0 0)"/><path class="a" d="M273.63,94.51v12.35h-6.54V94.41l-10.87-19h7.2l4.77,8.78c.76,1.34,1.67,3.1,2.34,4.53h.1c.67-1.43,1.53-3.1,2.24-4.44l4.82-8.87h6.82Z" transform="translate(0 0)"/><path class="a" d="M322.15,106.86,308.5,89.4c-1.19-1.53-2.05-2.77-3-4.15h-.1c.1,1,.1,3,.1,4.39v17.22H299V75.43h6.58l13.17,16.79c1.24,1.57,2.1,2.81,3,4.1h.1c-.1-1.48-.1-3.53-.1-4.87v-16h6.49v31.43Z" transform="translate(0 0)"/><path class="a" d="M365.8,106.86l-3.05-7.68H352.06l-2.91,7.68h-6.44L355,75.28h5l12.83,31.58Zm-7.2-19A34.25,34.25,0,0,1,357.45,84h0a24.46,24.46,0,0,1-1.14,3.77L354,94h6.82Z" transform="translate(0 0)"/><path class="a" d="M395,96h-1.19v10.83h-6.53V75.43h8.59c6.92,0,11.54,3.48,11.54,10.21C407.44,89.69,404.39,96,395,96Zm.19-15.17h-1.38V91.07h1.43c3.86,0,5.63-2,5.63-5.2,0-2.81-1.87-5-5.64-5Z" transform="translate(0 0)"/><path class="a" d="M444.84,80.77H436.4v26.09h-6.58V80.77h-9.21V75.43h25.71Z" transform="translate(0 0)"/><path class="a" d="M460.59,106.86V75.43h6.53v31.43Z" transform="translate(0 0)"/><path class="a" d="M499,107.34c-10.25,0-16.07-7-16.07-15.88S489.7,75.1,500.44,75.1a18.69,18.69,0,0,1,8.2,1.67l-.1,5.82a15.26,15.26,0,0,0-7.87-2.19C493.28,80.4,490,85.55,490,91c0,6,3.86,10.73,10.06,10.73A15.82,15.82,0,0,0,508,99.56l1.76,4.58A19.68,19.68,0,0,1,499,107.34Z" transform="translate(0 0)"/><rect class="c" width="615.12" height="226.77"/><path class="b" d="M234.71,122.75h5l12.11,29.79h-6.62l-2.88-7.25H232.23l-2.74,7.25h-6.35Zm5.76,17.59-1.76-5c-.72-2.16-1.08-3.42-1.35-4.41h-.09a34.65,34.65,0,0,1-1.48,4.45l-1.8,5Z" transform="translate(0 0)"/><path class="b" d="M287.31,152.54l-12.42-16.25c-1.08-1.44-2-2.79-3.06-4.09h-.09a41.75,41.75,0,0,1,.14,4.36v16h-6.17V122.88h6.17L283.8,138.5c1.17,1.48,2.12,2.79,3,4.09h.09c-.09-1.57-.09-3.55-.09-5V122.88H293v29.66Z" transform="translate(0 0)"/><path class="b" d="M318.45,122.75h5l12.1,29.79h-6.61l-2.88-7.25H316l-2.75,7.25h-6.34Zm5.76,17.59-1.75-5c-.72-2.16-1.08-3.42-1.35-4.41H321a36.88,36.88,0,0,1-1.49,4.45l-1.8,5Z" transform="translate(0 0)"/><path class="b" d="M349.46,122.88h6.16v24.44H366v5.22H349.46Z" transform="translate(0 0)"/><path class="b" d="M387.39,140.79l-10.22-17.91h6.67l6.66,12.6h.09l6.66-12.6h6.61l-10.3,18v11.66h-6.17Z" transform="translate(0 0)"/><path class="b" d="M418.76,145.65a12.09,12.09,0,0,0,6.75,2.21c2.29,0,4.59-.81,4.59-3.06,0-5.36-12.69-4.68-12.69-13.77,0-4.46,3.55-8.47,9.94-8.47a17.41,17.41,0,0,1,7.52,1.58v5.54a16.57,16.57,0,0,0-7.34-1.94c-1.89,0-3.55.68-3.55,2.75,0,5,12.69,4.32,12.69,13.77,0,5.4-4.73,8.73-10.94,8.73a16.15,16.15,0,0,1-9.31-2.7Z" transform="translate(0 0)"/><path class="b" d="M452.64,122.88h17.15l-1.62,5.22h-9.36v6.84h9.4v5.18h-9.4v7.2h10.93v5.22h-17.1Z" transform="translate(0 0)"/><path class="b" d="M486,122.88h8.86a14.69,14.69,0,0,1,6.21,1.13,7.59,7.59,0,0,1,4.73,7.47,7.75,7.75,0,0,1-5.76,7.6v.09c.9.5,2.2,2.12,3.78,4.86l4.81,8.51h-7.06l-3.92-7.11c-1.48-2.79-2.52-3.92-3.24-4.1h-2.25v11.21H486Zm8.46,13.46a6,6,0,0,0,3-.63,4.08,4.08,0,0,0,2-3.6,3.88,3.88,0,0,0-2-3.6,5.3,5.3,0,0,0-2.88-.63h-2.34v8.46Z" transform="translate(0 0)"/></svg>