<svg xmlns="http://www.w3.org/2000/svg" viewBox="0 0 727 599.55"><defs><style>.a{fill:#d8d4cd;}.b{fill:#d9d5ce;}.c{fill:#c01634;}.d{fill:#fff;}</style></defs><polygon class="a" points="224.5 90.36 157.68 95.95 196.4 151.25 224.5 90.36"/><path class="b" d="M372.32,53.2A272.26,272.26,0,0,0,236.76,73.5l12.07,21.82A247.53,247.53,0,0,1,369.72,77.88C506.33,92.23,605.79,215.05,591.43,351.66S454.26,587.72,317.65,573.36,81.58,436.19,95.94,299.58c8.36-79.5,53.45-146.4,116.61-185.63l-12-21.72c-70,43-120,116.91-129.27,204.76C55.48,447.2,164.84,582.25,315.05,598S600.32,504.46,616.1,354.25,522.53,69,372.32,53.2"/><rect class="c" x="230.67" width="260.1" height="134.85" rx="27.07"/><rect class="c" y="190.77" width="260.1" height="134.85" rx="27.07"/><rect class="c" x="47.39" y="399.37" width="260.1" height="134.85" rx="27.07"/><rect class="c" x="466.9" y="190.77" width="260.1" height="134.85" rx="27.07"/><rect class="c" x="423.96" y="399.37" width="260.1" height="134.85" rx="27.07"/><path class="d" d="M282.13,26.51a20.83,20.83,0,0,1,3.95-.35,6.92,6.92,0,0,1,4.59,1.22,3.5,3.5,0,0,1,1.39,2.95A4,4,0,0,1,289.23,34v0a4.31,4.31,0,0,1,3.45,4.2,4.49,4.49,0,0,1-1.42,3.35c-1.16,1.06-3.05,1.56-5.78,1.56a25,25,0,0,1-3.35-.2Zm2.16,6.85h2c2.28,0,3.62-1.19,3.62-2.8,0-2-1.48-2.74-3.67-2.74a9.6,9.6,0,0,0-1.91.15Zm0,8a10.84,10.84,0,0,0,1.81.1c2.24,0,4.3-.82,4.3-3.25s-2-3.22-4.32-3.22h-1.79Z"/><path class="d" d="M305.55,39.74c0,1.24,0,2.33.1,3.27h-1.93l-.13-2h0a4.5,4.5,0,0,1-4,2.23c-1.88,0-4.14-1-4.14-5.26V31h2.18v6.65c0,2.28.7,3.82,2.68,3.82a3.15,3.15,0,0,0,2.88-2,3.06,3.06,0,0,0,.2-1.12V31h2.18Z"/><path class="d" d="M308.88,40.78a5.7,5.7,0,0,0,2.88.87c1.58,0,2.33-.8,2.33-1.79s-.62-1.61-2.24-2.21c-2.15-.77-3.17-2-3.17-3.4,0-1.93,1.56-3.52,4.14-3.52a6.09,6.09,0,0,1,3,.74l-.55,1.59a4.66,4.66,0,0,0-2.46-.69c-1.29,0-2,.74-2,1.63s.72,1.44,2.29,2c2.08.79,3.15,1.83,3.15,3.62,0,2.11-1.64,3.6-4.49,3.6a6.83,6.83,0,0,1-3.38-.82Z"/><path class="d" d="M321.43,27.63a1.35,1.35,0,0,1-2.7,0,1.33,1.33,0,0,1,1.36-1.37A1.3,1.3,0,0,1,321.43,27.63ZM319,43V31h2.18V43Z"/><path class="d" d="M324.8,34.25c0-1.24,0-2.26-.09-3.25h1.93l.12,2h.05a4.41,4.41,0,0,1,4-2.26c1.67,0,4.25,1,4.25,5.11V43h-2.19V36.09c0-1.94-.72-3.55-2.78-3.55a3.1,3.1,0,0,0-2.92,2.23,3.17,3.17,0,0,0-.15,1V43H324.8Z"/><path class="d" d="M339.79,37.4c0,3,1.93,4.17,4.12,4.17a7.81,7.81,0,0,0,3.32-.62l.38,1.57a9.9,9.9,0,0,1-4,.74c-3.7,0-5.9-2.43-5.9-6s2.13-6.48,5.63-6.48c3.92,0,5,3.45,5,5.66a9.47,9.47,0,0,1-.07,1Zm6.4-1.56c0-1.39-.57-3.55-3-3.55-2.2,0-3.17,2-3.35,3.55Z"/><path class="d" d="M350.7,40.78a5.77,5.77,0,0,0,2.88.87c1.59,0,2.34-.8,2.34-1.79s-.62-1.61-2.24-2.21c-2.16-.77-3.17-2-3.17-3.4,0-1.93,1.56-3.52,4.14-3.52a6,6,0,0,1,3,.74l-.54,1.59a4.66,4.66,0,0,0-2.46-.69c-1.29,0-2,.74-2,1.63s.72,1.44,2.28,2c2.09.79,3.15,1.83,3.15,3.62,0,2.11-1.63,3.6-4.49,3.6a6.79,6.79,0,0,1-3.37-.82Z"/><path class="d" d="M360.53,40.78a5.74,5.74,0,0,0,2.88.87c1.59,0,2.33-.8,2.33-1.79s-.62-1.61-2.23-2.21c-2.16-.77-3.18-2-3.18-3.4,0-1.93,1.56-3.52,4.14-3.52a6.09,6.09,0,0,1,3,.74l-.55,1.59a4.65,4.65,0,0,0-2.45-.69c-1.3,0-2,.74-2,1.63s.71,1.44,2.28,2c2.08.79,3.15,1.83,3.15,3.62,0,2.11-1.64,3.6-4.49,3.6a6.83,6.83,0,0,1-3.38-.82Z"/><path class="d" d="M382.56,43l-.17-1.51h-.08a4.48,4.48,0,0,1-3.67,1.78A3.42,3.42,0,0,1,375,39.84c0-2.91,2.58-4.5,7.22-4.47v-.25a2.48,2.48,0,0,0-2.73-2.78,6.06,6.06,0,0,0-3.13.89l-.49-1.43a7.39,7.39,0,0,1,3.94-1.07c3.67,0,4.57,2.5,4.57,4.91v4.49a16.83,16.83,0,0,0,.2,2.88Zm-.32-6.13c-2.38-.05-5.09.37-5.09,2.71a1.93,1.93,0,0,0,2.06,2.08,3,3,0,0,0,2.91-2,2.38,2.38,0,0,0,.12-.69Z"/><path class="d" d="M398.24,25.39V39.91c0,1.07,0,2.28.1,3.1h-2l-.1-2.08h0a4.43,4.43,0,0,1-4.09,2.35c-2.9,0-5.14-2.45-5.14-6.1,0-4,2.46-6.45,5.39-6.45A4,4,0,0,1,396,32.56h.05V25.39Zm-2.18,10.5A3.6,3.6,0,0,0,396,35a3.2,3.2,0,0,0-3.15-2.53c-2.26,0-3.6,2-3.6,4.64,0,2.43,1.19,4.44,3.55,4.44a3.28,3.28,0,0,0,3.2-2.6,3.6,3.6,0,0,0,.1-1Z"/><path class="d" d="M402.71,31l2.35,6.75a30.74,30.74,0,0,1,1,3.08h.08c.27-1,.62-2,1-3.08L409.46,31h2.28L407,43h-2.08l-4.57-12Z"/><path class="d" d="M416.23,27.63a1.36,1.36,0,0,1-2.71,0,1.34,1.34,0,0,1,1.37-1.37A1.3,1.3,0,0,1,416.23,27.63ZM413.8,43V31H416V43Z"/><path class="d" d="M428.16,42.56a8,8,0,0,1-3.45.7c-3.62,0-6-2.46-6-6.13a6.1,6.1,0,0,1,6.45-6.38,7.42,7.42,0,0,1,3,.62l-.5,1.69a5,5,0,0,0-2.53-.57c-2.75,0-4.24,2-4.24,4.54,0,2.78,1.79,4.49,4.17,4.49a6.26,6.26,0,0,0,2.68-.59Z"/><path class="d" d="M431.78,37.4a3.85,3.85,0,0,0,4.12,4.17,7.86,7.86,0,0,0,3.33-.62l.37,1.57a9.86,9.86,0,0,1-4,.74c-3.69,0-5.9-2.43-5.9-6s2.13-6.48,5.63-6.48c3.92,0,5,3.45,5,5.66a7.38,7.38,0,0,1-.07,1Zm6.41-1.56c0-1.39-.57-3.55-3-3.55-2.21,0-3.18,2-3.35,3.55Z"/><path class="d" d="M271.84,66.5c0-1.53,0-2.77-.1-3.92h2l.1,2.06h.05a4.71,4.71,0,0,1,4.26-2.33c2.91,0,5.09,2.46,5.09,6.11,0,4.31-2.63,6.45-5.46,6.45A4.22,4.22,0,0,1,274,73h0v6.53h-2.16ZM274,69.71a4.87,4.87,0,0,0,.09.89,3.39,3.39,0,0,0,3.28,2.56c2.31,0,3.65-1.89,3.65-4.65,0-2.4-1.27-4.46-3.58-4.46a3.5,3.5,0,0,0-3.3,2.7,3.84,3.84,0,0,0-.14.9Z"/><path class="d" d="M286,66.33c0-1.41,0-2.63-.1-3.75h1.91l.08,2.36h.1a3.6,3.6,0,0,1,3.32-2.63,2.86,2.86,0,0,1,.62.07v2.06a3.88,3.88,0,0,0-.74-.07,3.07,3.07,0,0,0-2.93,2.81,6,6,0,0,0-.1,1v6.4H286Z"/><path class="d" d="M304.68,68.49c0,4.44-3.07,6.38-6,6.38-3.25,0-5.75-2.39-5.75-6.18,0-4,2.63-6.38,5.95-6.38S304.68,64.82,304.68,68.49Zm-9.52.12c0,2.63,1.51,4.62,3.64,4.62s3.65-2,3.65-4.67c0-2-1-4.61-3.6-4.61S295.16,66.33,295.16,68.61Z"/><path class="d" d="M307.44,66.5c0-1.53-.05-2.77-.1-3.92h2l.1,2.06h.05a4.71,4.71,0,0,1,4.26-2.33c2.91,0,5.09,2.46,5.09,6.11,0,4.31-2.63,6.45-5.46,6.45A4.19,4.19,0,0,1,309.65,73h0v6.53h-2.16Zm2.16,3.21a4.84,4.84,0,0,0,.1.89A3.37,3.37,0,0,0,313,73.16c2.31,0,3.65-1.89,3.65-4.65,0-2.4-1.27-4.46-3.57-4.46a3.51,3.51,0,0,0-3.31,2.7,3.84,3.84,0,0,0-.14.9Z"/><path class="d" d="M332.42,68.49c0,4.44-3.07,6.38-6,6.38-3.25,0-5.76-2.39-5.76-6.18,0-4,2.64-6.38,6-6.38S332.42,64.82,332.42,68.49Zm-9.53.12c0,2.63,1.52,4.62,3.65,4.62s3.65-2,3.65-4.67c0-2-1-4.61-3.6-4.61S322.89,66.33,322.89,68.61Z"/><path class="d" d="M334.88,72.36a5.7,5.7,0,0,0,2.87.87c1.59,0,2.34-.79,2.34-1.79s-.62-1.61-2.24-2.21c-2.15-.77-3.17-2-3.17-3.4,0-1.93,1.56-3.52,4.14-3.52a6,6,0,0,1,2.95.74l-.54,1.59a4.75,4.75,0,0,0-2.46-.69c-1.29,0-2,.74-2,1.64s.72,1.44,2.29,2c2.08.8,3.15,1.84,3.15,3.62,0,2.11-1.64,3.6-4.49,3.6a6.81,6.81,0,0,1-3.38-.82Z"/><path class="d" d="M347.43,59.21a1.35,1.35,0,0,1-2.7,0,1.32,1.32,0,0,1,1.36-1.36A1.29,1.29,0,0,1,347.43,59.21ZM345,74.59v-12h2.18v12Z"/><path class="d" d="M353.43,59.14v3.44h3.13v1.67h-3.13v6.47c0,1.49.43,2.34,1.64,2.34a5.14,5.14,0,0,0,1.27-.15l.1,1.63a5.28,5.28,0,0,1-1.94.3,3,3,0,0,1-2.36-.92,4.43,4.43,0,0,1-.84-3.12V64.25h-1.86V62.58h1.86V59.71Z"/><path class="d" d="M361.45,59.21a1.36,1.36,0,0,1-2.71,0,1.33,1.33,0,0,1,1.37-1.36A1.29,1.29,0,0,1,361.45,59.21ZM359,74.59v-12h2.18v12Z"/><path class="d" d="M375.69,68.49c0,4.44-3.08,6.38-6,6.38-3.25,0-5.76-2.39-5.76-6.18,0-4,2.63-6.38,6-6.38S375.69,64.82,375.69,68.49Zm-9.53.12c0,2.63,1.52,4.62,3.65,4.62s3.65-2,3.65-4.67c0-2-1-4.61-3.6-4.61S366.16,66.33,366.16,68.61Z"/><path class="d" d="M378.44,65.83c0-1.24,0-2.25-.1-3.25h1.94l.12,2h.05a4.43,4.43,0,0,1,4-2.26c1.66,0,4.25,1,4.25,5.11v7.17h-2.19V67.67c0-1.94-.72-3.55-2.78-3.55a3.18,3.18,0,0,0-3.07,3.25v7.22h-2.19Z"/><path class="d" d="M408,74.59c-.48-.47-.92-.94-1.57-1.64a6.82,6.82,0,0,1-4.89,1.92c-3.24,0-5.13-2.19-5.13-4.69a5.48,5.48,0,0,1,3.27-4.89v-.07a5.75,5.75,0,0,1-1.38-3.5,4.05,4.05,0,0,1,4.24-4.12,3.48,3.48,0,0,1,3.7,3.54c0,1.77-1,3.16-3.68,4.47v.08c1.42,1.63,3,3.47,4.07,4.66a12.24,12.24,0,0,0,1.61-4.89h2a12.75,12.75,0,0,1-2.41,6.18c.9.94,1.77,1.89,2.76,3Zm-2.63-2.88c-1-1.09-2.86-3.12-4.72-5.25a4.1,4.1,0,0,0-2.16,3.39,3.3,3.3,0,0,0,3.43,3.38A4.68,4.68,0,0,0,405.39,71.71ZM400.3,61.52a4.72,4.72,0,0,0,1.26,3c1.69-1,2.78-1.86,2.78-3.28a2,2,0,0,0-1.93-2.15A2.18,2.18,0,0,0,400.3,61.52Z"/><path class="d" d="M417.74,66.33c0-1.41,0-2.63-.1-3.75h1.91l.07,2.36h.1a3.62,3.62,0,0,1,3.33-2.63,2.86,2.86,0,0,1,.62.07v2.06a4,4,0,0,0-.74-.07A3.06,3.06,0,0,0,420,67.18a6,6,0,0,0-.1,1v6.4h-2.16Z"/><path class="d" d="M428.36,59.21a1.36,1.36,0,0,1-2.71,0A1.33,1.33,0,0,1,427,57.85,1.29,1.29,0,0,1,428.36,59.21Zm-2.43,15.38v-12h2.18v12Z"/><path class="d" d="M431.43,72.36a5.77,5.77,0,0,0,2.88.87c1.59,0,2.33-.79,2.33-1.79s-.61-1.61-2.23-2.21c-2.16-.77-3.18-2-3.18-3.4,0-1.93,1.57-3.52,4.15-3.52a6,6,0,0,1,2.95.74l-.55,1.59a4.71,4.71,0,0,0-2.45-.69c-1.29,0-2,.74-2,1.64s.72,1.44,2.28,2c2.09.8,3.15,1.84,3.15,3.62,0,2.11-1.63,3.6-4.49,3.6a6.79,6.79,0,0,1-3.37-.82Z"/><path class="d" d="M443.71,68.09h.05c.3-.42.72-.94,1.07-1.36l3.52-4.15H451l-4.64,4.94,5.29,7.07H449l-4.15-5.75-1.12,1.24v4.51h-2.15V57h2.15Z"/><path class="d" d="M292.68,97.42c0-1.24,0-2.26-.1-3.25h1.91l.1,1.93h.07a4.15,4.15,0,0,1,3.77-2.21,3.56,3.56,0,0,1,3.4,2.41h.05a5,5,0,0,1,1.34-1.56,4.1,4.1,0,0,1,2.66-.85c1.59,0,3.94,1,3.94,5.21v7.08h-2.13v-6.8c0-2.31-.84-3.7-2.61-3.7a2.83,2.83,0,0,0-2.58,2,3.51,3.51,0,0,0-.17,1.09v7.42H300.2V99c0-1.91-.85-3.3-2.51-3.3A3,3,0,0,0,295,97.86a3.16,3.16,0,0,0-.17,1.07v7.25h-2.13Z"/><path class="d" d="M320,106.18l-.18-1.52h-.07a4.45,4.45,0,0,1-3.67,1.79,3.42,3.42,0,0,1-3.67-3.45c0-2.9,2.58-4.49,7.22-4.47v-.24a2.48,2.48,0,0,0-2.73-2.78,5.94,5.94,0,0,0-3.13.89l-.5-1.44a7.52,7.52,0,0,1,3.95-1.07c3.67,0,4.56,2.51,4.56,4.92v4.49a16.83,16.83,0,0,0,.2,2.88Zm-.33-6.13c-2.38,0-5.08.37-5.08,2.7a1.93,1.93,0,0,0,2.06,2.09,3,3,0,0,0,2.9-2,2.19,2.19,0,0,0,.12-.7Z"/><path class="d" d="M325.33,97.42c0-1.24,0-2.26-.1-3.25h1.93l.13,2h0a4.41,4.41,0,0,1,4-2.26c1.66,0,4.24,1,4.24,5.11v7.18h-2.18V99.25c0-1.93-.72-3.54-2.78-3.54A3.2,3.2,0,0,0,327.51,99v7.22h-2.18Z"/><path class="d" d="M345.75,106.18l-.18-1.52h-.07a4.46,4.46,0,0,1-3.68,1.79,3.42,3.42,0,0,1-3.67-3.45c0-2.9,2.58-4.49,7.22-4.47v-.24a2.47,2.47,0,0,0-2.73-2.78,5.93,5.93,0,0,0-3.12.89L339,95a7.49,7.49,0,0,1,4-1.07c3.67,0,4.56,2.51,4.56,4.92v4.49a16.83,16.83,0,0,0,.2,2.88Zm-.33-6.13c-2.38,0-5.08.37-5.08,2.7a1.93,1.93,0,0,0,2.06,2.09,3,3,0,0,0,2.9-2,2.51,2.51,0,0,0,.12-.7Z"/><path class="d" d="M361.4,94.17c0,.87-.1,1.83-.1,3.3v7c0,2.75-.55,4.44-1.71,5.48a6.33,6.33,0,0,1-4.37,1.44,7.66,7.66,0,0,1-4-1l.54-1.66a6.87,6.87,0,0,0,3.53.94c2.23,0,3.87-1.17,3.87-4.19v-1.34h-.05a4.3,4.3,0,0,1-3.82,2c-3,0-5.12-2.54-5.12-5.86,0-4.07,2.66-6.38,5.41-6.38A4,4,0,0,1,359.34,96h.05l.1-1.81Zm-2.26,4.74a3.12,3.12,0,0,0-.12-1,3.15,3.15,0,0,0-3-2.3c-2.09,0-3.58,1.76-3.58,4.54,0,2.35,1.19,4.31,3.55,4.31a3.19,3.19,0,0,0,3-2.23,3.9,3.9,0,0,0,.17-1.17Z"/><path class="d" d="M366.14,100.57a3.85,3.85,0,0,0,4.12,4.17,8,8,0,0,0,3.32-.62l.37,1.56a9.64,9.64,0,0,1-4,.74c-3.7,0-5.91-2.43-5.91-6s2.14-6.48,5.64-6.48c3.92,0,5,3.45,5,5.66a7.09,7.09,0,0,1-.08,1Zm6.4-1.57c0-1.39-.57-3.54-3-3.54-2.2,0-3.17,2-3.35,3.54Z"/><path class="d" d="M377.35,97.42c0-1.24,0-2.26-.1-3.25h1.91l.1,1.93h.08a4.13,4.13,0,0,1,3.77-2.21,3.56,3.56,0,0,1,3.4,2.41h.05a4.84,4.84,0,0,1,1.34-1.56,4.07,4.07,0,0,1,2.65-.85c1.59,0,3.95,1,3.95,5.21v7.08h-2.14v-6.8c0-2.31-.84-3.7-2.6-3.7a2.83,2.83,0,0,0-2.58,2,3.5,3.5,0,0,0-.18,1.09v7.42h-2.13V99c0-1.91-.84-3.3-2.51-3.3a3,3,0,0,0-2.7,2.18,3.16,3.16,0,0,0-.17,1.07v7.25h-2.14Z"/><path class="d" d="M399.26,100.57a3.85,3.85,0,0,0,4.12,4.17,8,8,0,0,0,3.32-.62l.37,1.56a9.64,9.64,0,0,1-4,.74c-3.7,0-5.91-2.43-5.91-6s2.14-6.48,5.64-6.48c3.92,0,5,3.45,5,5.66a9.49,9.49,0,0,1-.07,1Zm6.4-1.57c0-1.39-.57-3.54-3-3.54-2.2,0-3.17,2-3.35,3.54Z"/><path class="d" d="M410.47,97.42c0-1.24,0-2.26-.1-3.25h1.94l.12,2h.05a4.43,4.43,0,0,1,4-2.26c1.66,0,4.25,1,4.25,5.11v7.18h-2.19V99.25c0-1.93-.72-3.54-2.78-3.54A3.2,3.2,0,0,0,412.66,99v7.22h-2.19Z"/><path class="d" d="M426.77,90.72v3.45h3.13v1.66h-3.13v6.48c0,1.49.42,2.33,1.64,2.33a5.14,5.14,0,0,0,1.27-.15l.09,1.64a5.43,5.43,0,0,1-1.93.29,3,3,0,0,1-2.36-.91,4.46,4.46,0,0,1-.84-3.13V95.83h-1.86V94.17h1.86V91.29Z"/><path class="d" d="M56.27,245.18l-1.74,5.26H52.3L58,233.72h2.6l5.71,16.72H64l-1.78-5.26Zm5.48-1.68-1.64-4.82c-.37-1.09-.62-2.08-.87-3.05h0c-.25,1-.53,2-.85,3l-1.64,4.84Z"/><path class="d" d="M78.77,232.83v14.51c0,1.07,0,2.28.1,3.1h-2l-.1-2.08h0a4.44,4.44,0,0,1-4.09,2.36c-2.91,0-5.14-2.46-5.14-6.11,0-4,2.46-6.45,5.38-6.45A4,4,0,0,1,76.54,240h0v-7.17Zm-2.18,10.49a4.18,4.18,0,0,0-.1-.92,3.22,3.22,0,0,0-3.15-2.53c-2.26,0-3.6,2-3.6,4.64,0,2.44,1.19,4.44,3.55,4.44a3.28,3.28,0,0,0,3.2-2.6,4,4,0,0,0,.1-.94Z"/><path class="d" d="M83.23,238.43l2.36,6.75a30.74,30.74,0,0,1,1,3.08h.07c.28-1,.62-2,1-3.08L90,238.43h2.29l-4.72,12H85.47l-4.57-12Z"/><path class="d" d="M96.76,235.06a1.36,1.36,0,0,1-2.71,0,1.33,1.33,0,0,1,1.37-1.36A1.29,1.29,0,0,1,96.76,235.06Zm-2.44,15.38v-12h2.19v12Z"/><path class="d" d="M108.69,250a8.19,8.19,0,0,1-3.45.69c-3.62,0-6-2.46-6-6.13a6.09,6.09,0,0,1,6.45-6.37,7.3,7.3,0,0,1,3,.62l-.5,1.68a5.15,5.15,0,0,0-2.53-.57c-2.75,0-4.24,2-4.24,4.54,0,2.78,1.79,4.49,4.17,4.49a6.26,6.26,0,0,0,2.68-.59Z"/><path class="d" d="M112.31,244.84a3.85,3.85,0,0,0,4.12,4.17,7.79,7.79,0,0,0,3.32-.63l.38,1.57a9.9,9.9,0,0,1-4,.74c-3.7,0-5.9-2.43-5.9-6.05s2.13-6.48,5.63-6.48c3.92,0,5,3.45,5,5.66a9.7,9.7,0,0,1-.07,1Zm6.4-1.57c0-1.39-.57-3.55-3-3.55-2.21,0-3.18,2-3.35,3.55Z"/><path class="d" d="M128.49,248.21a5.7,5.7,0,0,0,2.87.87c1.59,0,2.34-.79,2.34-1.79s-.62-1.61-2.24-2.21c-2.16-.77-3.17-2-3.17-3.4,0-1.93,1.56-3.52,4.14-3.52a6,6,0,0,1,2.95.74l-.54,1.59a4.75,4.75,0,0,0-2.46-.69c-1.29,0-2,.74-2,1.64s.72,1.44,2.28,2c2.09.8,3.16,1.84,3.16,3.62,0,2.11-1.64,3.6-4.5,3.6a6.79,6.79,0,0,1-3.37-.82Z"/><path class="d" d="M148.66,247.17c0,1.24,0,2.33.1,3.27h-1.94l-.12-2h0a4.52,4.52,0,0,1-4,2.24c-1.89,0-4.15-1.05-4.15-5.26v-7h2.19v6.65c0,2.29.69,3.83,2.68,3.83a3.17,3.17,0,0,0,2.88-2,3.29,3.29,0,0,0,.19-1.12v-7.37h2.19Z"/><path class="d" d="M152.28,242.35c0-1.53-.05-2.77-.1-3.92h2l.1,2.06h0a4.73,4.73,0,0,1,4.27-2.33c2.9,0,5.08,2.46,5.08,6.11,0,4.31-2.63,6.45-5.46,6.45a4.21,4.21,0,0,1-3.69-1.89h-.05v6.53h-2.16Zm2.16,3.21a4.84,4.84,0,0,0,.1.89,3.37,3.37,0,0,0,3.27,2.56c2.31,0,3.65-1.89,3.65-4.65,0-2.4-1.27-4.46-3.57-4.46a3.49,3.49,0,0,0-3.3,2.7,3.39,3.39,0,0,0-.15.9Z"/><path class="d" d="M166.39,242.35c0-1.53,0-2.77-.09-3.92h2l.09,2.06h.05a4.74,4.74,0,0,1,4.27-2.33c2.9,0,5.09,2.46,5.09,6.11,0,4.31-2.63,6.45-5.46,6.45a4.22,4.22,0,0,1-3.7-1.89h0v6.53h-2.16Zm2.16,3.21a4.84,4.84,0,0,0,.1.89,3.38,3.38,0,0,0,3.28,2.56c2.31,0,3.64-1.89,3.64-4.65,0-2.4-1.26-4.46-3.57-4.46a3.49,3.49,0,0,0-3.3,2.7,3.85,3.85,0,0,0-.15.9Z"/><path class="d" d="M191.38,244.34c0,4.44-3.08,6.38-6,6.38-3.25,0-5.76-2.39-5.76-6.18,0-4,2.63-6.38,6-6.38S191.38,240.67,191.38,244.34Zm-9.53.12c0,2.63,1.51,4.62,3.65,4.62s3.65-2,3.65-4.67c0-2-1-4.61-3.6-4.61S181.85,242.18,181.85,244.46Z"/><path class="d" d="M194.13,242.18c0-1.41,0-2.63-.1-3.75h1.91l.08,2.36h.1a3.6,3.6,0,0,1,3.32-2.63,2.86,2.86,0,0,1,.62.07v2.06a4,4,0,0,0-.74-.07,3.07,3.07,0,0,0-2.93,2.81,6,6,0,0,0-.1,1v6.4h-2.16Z"/><path class="d" d="M205.44,235v3.44h3.13v1.67h-3.13v6.47c0,1.49.43,2.34,1.64,2.34a5.14,5.14,0,0,0,1.27-.15l.1,1.63a5.2,5.2,0,0,1-1.94.3,3,3,0,0,1-2.36-.92,4.43,4.43,0,0,1-.84-3.12V240.1h-1.86v-1.67h1.86v-2.87Z"/><path class="d" d="M31.68,273.94c0-1.54-.05-2.78-.1-3.92h2l.1,2.06h0A4.71,4.71,0,0,1,38,269.75c2.9,0,5.08,2.45,5.08,6.1,0,4.32-2.63,6.45-5.46,6.45a4.21,4.21,0,0,1-3.69-1.88h0v6.52H31.68Zm2.16,3.2a4.84,4.84,0,0,0,.1.89,3.36,3.36,0,0,0,3.27,2.56c2.31,0,3.65-1.89,3.65-4.64,0-2.41-1.27-4.47-3.57-4.47a3.48,3.48,0,0,0-3.3,2.71,3.25,3.25,0,0,0-.15.89Z"/><path class="d" d="M45.8,273.77c0-1.42,0-2.64-.1-3.75h1.91l.07,2.36h.1a3.6,3.6,0,0,1,3.33-2.63,2.4,2.4,0,0,1,.62.07v2.06a3.36,3.36,0,0,0-.75-.07,3.06,3.06,0,0,0-2.93,2.8,6.07,6.07,0,0,0-.1,1V282H45.8Z"/><path class="d" d="M64.53,275.92c0,4.45-3.08,6.38-6,6.38-3.25,0-5.76-2.38-5.76-6.18,0-4,2.63-6.37,6-6.37S64.53,272.25,64.53,275.92Zm-9.53.13c0,2.63,1.51,4.61,3.65,4.61s3.65-2,3.65-4.66c0-2-1-4.62-3.6-4.62S55,273.77,55,276.05Z"/><path class="d" d="M75.84,281.58a8,8,0,0,1-3.45.7c-3.62,0-6-2.46-6-6.13a6.1,6.1,0,0,1,6.45-6.38,7.3,7.3,0,0,1,3,.62l-.5,1.69a5,5,0,0,0-2.53-.57c-2.75,0-4.24,2-4.24,4.54,0,2.78,1.79,4.49,4.17,4.49a6.1,6.1,0,0,0,2.68-.6Z"/><path class="d" d="M79.46,276.42a3.85,3.85,0,0,0,4.12,4.17,7.9,7.9,0,0,0,3.33-.62l.37,1.56a9.7,9.7,0,0,1-4,.75c-3.69,0-5.9-2.43-5.9-6.06s2.13-6.47,5.63-6.47c3.92,0,5,3.44,5,5.65a9.49,9.49,0,0,1-.07,1Zm6.4-1.56c0-1.39-.57-3.55-3-3.55-2.21,0-3.18,2-3.35,3.55Z"/><path class="d" d="M90.38,279.79a5.64,5.64,0,0,0,2.88.87c1.58,0,2.33-.79,2.33-1.78s-.62-1.62-2.23-2.21c-2.16-.77-3.18-2-3.18-3.4,0-1.94,1.56-3.52,4.14-3.52a6,6,0,0,1,3,.74l-.55,1.59a4.65,4.65,0,0,0-2.46-.7c-1.29,0-2,.75-2,1.64s.72,1.44,2.29,2c2.08.8,3.15,1.84,3.15,3.63,0,2.11-1.64,3.6-4.49,3.6a6.94,6.94,0,0,1-3.38-.82Z"/><path class="d" d="M100.2,279.79a5.67,5.67,0,0,0,2.88.87c1.59,0,2.33-.79,2.33-1.78s-.62-1.62-2.23-2.21c-2.16-.77-3.18-2-3.18-3.4,0-1.94,1.57-3.52,4.15-3.52a6,6,0,0,1,2.95.74l-.55,1.59a4.61,4.61,0,0,0-2.45-.7c-1.29,0-2,.75-2,1.64s.72,1.44,2.28,2c2.09.8,3.15,1.84,3.15,3.63,0,2.11-1.64,3.6-4.49,3.6a6.9,6.9,0,0,1-3.37-.82Z"/><path class="d" d="M126,264.41v14.52c0,1.06,0,2.28.1,3.1h-2l-.1-2.09h0a4.45,4.45,0,0,1-4.1,2.36c-2.9,0-5.13-2.45-5.13-6.1,0-4,2.45-6.45,5.38-6.45a4,4,0,0,1,3.62,1.83h0v-7.17Zm-2.19,10.5a3.56,3.56,0,0,0-.1-.92,3.2,3.2,0,0,0-3.15-2.53c-2.26,0-3.6,2-3.6,4.64,0,2.43,1.2,4.44,3.55,4.44a3.27,3.27,0,0,0,3.2-2.61,3.48,3.48,0,0,0,.1-.94Z"/><path class="d" d="M140.44,275.92c0,4.45-3.07,6.38-6,6.38-3.25,0-5.75-2.38-5.75-6.18,0-4,2.63-6.37,5.95-6.37S140.44,272.25,140.44,275.92Zm-9.52.13c0,2.63,1.51,4.61,3.64,4.61s3.65-2,3.65-4.66c0-2-1-4.62-3.6-4.62S130.92,273.77,130.92,276.05Z"/><path class="d" d="M151.76,281.58a8,8,0,0,1-3.45.7c-3.62,0-6-2.46-6-6.13a6.1,6.1,0,0,1,6.45-6.38,7.3,7.3,0,0,1,3,.62l-.5,1.69a5,5,0,0,0-2.53-.57c-2.75,0-4.24,2-4.24,4.54,0,2.78,1.78,4.49,4.17,4.49a6.1,6.1,0,0,0,2.68-.6Z"/><path class="d" d="M164.36,278.75c0,1.24,0,2.34.1,3.28h-1.93l-.13-2h-.05a4.52,4.52,0,0,1-4,2.23c-1.88,0-4.14-1-4.14-5.26v-7h2.18v6.65c0,2.28.7,3.82,2.68,3.82a3.16,3.16,0,0,0,2.88-2,3.23,3.23,0,0,0,.2-1.11V270h2.18Z"/><path class="d" d="M168,273.27c0-1.24,0-2.26-.1-3.25h1.91l.1,1.93H170a4.13,4.13,0,0,1,3.77-2.2,3.55,3.55,0,0,1,3.4,2.4h.05a4.84,4.84,0,0,1,1.34-1.56,4.06,4.06,0,0,1,2.65-.84c1.59,0,3.95,1,3.95,5.21V282H183v-6.8c0-2.31-.84-3.7-2.6-3.7a2.83,2.83,0,0,0-2.58,2,3.5,3.5,0,0,0-.18,1.09V282H175.5v-7.2c0-1.91-.84-3.3-2.51-3.3a3,3,0,0,0-2.7,2.19,3.06,3.06,0,0,0-.18,1.06V282H168Z"/><path class="d" d="M189.89,276.42a3.85,3.85,0,0,0,4.12,4.17,7.85,7.85,0,0,0,3.32-.62l.38,1.56a9.7,9.7,0,0,1-4,.75c-3.7,0-5.91-2.43-5.91-6.06s2.14-6.47,5.64-6.47c3.92,0,5,3.44,5,5.65a9.49,9.49,0,0,1-.07,1Zm6.4-1.56c0-1.39-.57-3.55-3-3.55-2.2,0-3.17,2-3.35,3.55Z"/><path class="d" d="M201.1,273.27c0-1.24,0-2.26-.1-3.25h1.94l.12,2h.05a4.43,4.43,0,0,1,4-2.25c1.66,0,4.25,1,4.25,5.11V282h-2.19v-6.92c0-1.94-.72-3.55-2.78-3.55a3.08,3.08,0,0,0-2.92,2.23,3.13,3.13,0,0,0-.15,1V282H201.1Z"/><path class="d" d="M217.4,266.57V270h3.13v1.66H217.4v6.48c0,1.49.42,2.33,1.64,2.33a4.7,4.7,0,0,0,1.27-.15l.09,1.64a5.39,5.39,0,0,1-1.93.3,3,3,0,0,1-2.36-.92,4.46,4.46,0,0,1-.84-3.13v-6.55h-1.86V270h1.86v-2.88Z"/><path class="d" d="M222.69,279.79a5.6,5.6,0,0,0,2.87.87c1.59,0,2.34-.79,2.34-1.78s-.62-1.62-2.24-2.21c-2.16-.77-3.17-2-3.17-3.4,0-1.94,1.56-3.52,4.14-3.52a5.94,5.94,0,0,1,3,.74l-.54,1.59a4.65,4.65,0,0,0-2.46-.7c-1.29,0-2,.75-2,1.64s.72,1.44,2.28,2c2.09.8,3.16,1.84,3.16,3.63,0,2.11-1.64,3.6-4.5,3.6a6.9,6.9,0,0,1-3.37-.82Z"/><path class="d" d="M123.08,438.7v16.72h-2.16V438.7Z"/><path class="d" d="M127,446.66c0-1.24,0-2.25-.1-3.25h1.94l.12,2H129a4.43,4.43,0,0,1,4-2.26c1.66,0,4.25,1,4.25,5.11v7.17h-2.19V448.5c0-1.94-.72-3.55-2.78-3.55a3.21,3.21,0,0,0-3.07,3.25v7.22H127Z"/><path class="d" d="M141.31,443.41l2.36,6.75a30.74,30.74,0,0,1,1,3.08h.07c.27-1,.62-2,1-3.08l2.33-6.75h2.28l-4.71,12h-2.08l-4.57-12Z"/><path class="d" d="M153.4,449.82a3.84,3.84,0,0,0,4.11,4.17,7.84,7.84,0,0,0,3.33-.63l.37,1.57a9.85,9.85,0,0,1-4,.74c-3.7,0-5.91-2.43-5.91-6.05s2.13-6.48,5.63-6.48c3.92,0,5,3.45,5,5.66a7.23,7.23,0,0,1-.08,1Zm6.4-1.57c0-1.39-.57-3.55-3-3.55-2.21,0-3.18,2-3.35,3.55Z"/><path class="d" d="M164.31,453.19a5.77,5.77,0,0,0,2.88.87c1.59,0,2.33-.8,2.33-1.79s-.62-1.61-2.23-2.21c-2.16-.77-3.18-2-3.18-3.4,0-1.93,1.57-3.52,4.15-3.52a6.08,6.08,0,0,1,3,.74l-.55,1.59a4.65,4.65,0,0,0-2.45-.69c-1.29,0-2,.74-2,1.64s.72,1.44,2.28,2c2.08.8,3.15,1.84,3.15,3.62,0,2.11-1.64,3.6-4.49,3.6a6.79,6.79,0,0,1-3.37-.82Z"/><path class="d" d="M177.06,440v3.44h3.13v1.67h-3.13v6.47c0,1.49.43,2.34,1.64,2.34a5.14,5.14,0,0,0,1.27-.15l.1,1.63a5.28,5.28,0,0,1-1.94.3,3,3,0,0,1-2.36-.92,4.43,4.43,0,0,1-.84-3.12v-6.55h-1.86v-1.67h1.86v-2.87Z"/><path class="d" d="M182.65,446.66c0-1.24,0-2.25-.1-3.25h1.91l.1,1.94h.07a4.15,4.15,0,0,1,3.77-2.21,3.54,3.54,0,0,1,3.4,2.41h0a4.84,4.84,0,0,1,1.34-1.56,4.07,4.07,0,0,1,2.65-.85c1.59,0,3.95,1,3.95,5.21v7.07h-2.13v-6.8c0-2.3-.85-3.69-2.61-3.69a2.82,2.82,0,0,0-2.58,2,3.63,3.63,0,0,0-.17,1.1v7.41h-2.14v-7.19c0-1.91-.84-3.3-2.5-3.3a3,3,0,0,0-2.71,2.18,3.08,3.08,0,0,0-.17,1.07v7.24h-2.13Z"/><path class="d" d="M204.55,449.82a3.85,3.85,0,0,0,4.12,4.17,7.88,7.88,0,0,0,3.33-.63l.37,1.57a9.9,9.9,0,0,1-4,.74c-3.69,0-5.9-2.43-5.9-6.05s2.13-6.48,5.63-6.48c3.92,0,5,3.45,5,5.66a9.7,9.7,0,0,1-.07,1Zm6.4-1.57c0-1.39-.57-3.55-3-3.55-2.21,0-3.18,2-3.35,3.55Z"/><path class="d" d="M215.77,446.66c0-1.24,0-2.25-.1-3.25h1.93l.13,2h.05a4.41,4.41,0,0,1,4-2.26c1.66,0,4.24,1,4.24,5.11v7.17h-2.18V448.5c0-1.94-.72-3.55-2.78-3.55a3.1,3.1,0,0,0-2.93,2.24,3.07,3.07,0,0,0-.15,1v7.22h-2.18Z"/><path class="d" d="M232.07,440v3.44h3.12v1.67h-3.12v6.47c0,1.49.42,2.34,1.63,2.34a5.08,5.08,0,0,0,1.27-.15l.1,1.63a5.2,5.2,0,0,1-1.94.3,3,3,0,0,1-2.35-.92,4.43,4.43,0,0,1-.85-3.12v-6.55h-1.86v-1.67h1.86v-2.87Z"/><path class="d" d="M121.32,478.92c0-1.54,0-2.78-.1-3.92h2l.1,2.05h0a4.71,4.71,0,0,1,4.26-2.33c2.91,0,5.09,2.46,5.09,6.11,0,4.31-2.63,6.45-5.46,6.45a4.19,4.19,0,0,1-3.69-1.89h0v6.53h-2.16Zm2.16,3.2a6,6,0,0,0,.09.89,3.39,3.39,0,0,0,3.28,2.56c2.31,0,3.65-1.89,3.65-4.64,0-2.41-1.27-4.47-3.58-4.47a3.5,3.5,0,0,0-3.3,2.7,3.84,3.84,0,0,0-.14.9Z"/><path class="d" d="M135.43,469.39h2.19v7.49h0a4.05,4.05,0,0,1,1.56-1.54,4.49,4.49,0,0,1,2.23-.62c1.62,0,4.2,1,4.2,5.14V487h-2.19v-6.9c0-1.94-.72-3.58-2.78-3.58a3.13,3.13,0,0,0-2.92,2.19,2.51,2.51,0,0,0-.15,1V487h-2.19Z"/><path class="d" d="M151.63,471.62a1.28,1.28,0,0,1-1.39,1.34,1.3,1.3,0,0,1-1.31-1.34,1.32,1.32,0,0,1,1.36-1.36A1.29,1.29,0,0,1,151.63,471.62ZM149.2,487V475h2.19v12Z"/><path class="d" d="M155,469.39h2.18V487H155Z"/><path class="d" d="M171.73,480.9c0,4.44-3.08,6.38-6,6.38-3.25,0-5.76-2.38-5.76-6.18,0-4,2.63-6.38,6-6.38S171.73,477.23,171.73,480.9Zm-9.53.13c0,2.63,1.52,4.61,3.65,4.61s3.65-2,3.65-4.66c0-2-1-4.62-3.6-4.62S162.2,478.74,162.2,481Z"/><path class="d" d="M174.19,484.77a5.6,5.6,0,0,0,2.87.87c1.59,0,2.34-.79,2.34-1.79s-.62-1.61-2.24-2.2c-2.16-.77-3.17-2-3.17-3.4,0-1.94,1.56-3.53,4.14-3.53a5.94,5.94,0,0,1,3,.75l-.54,1.58a4.75,4.75,0,0,0-2.46-.69c-1.29,0-2,.75-2,1.64s.72,1.44,2.28,2c2.09.8,3.16,1.84,3.16,3.63,0,2.11-1.64,3.59-4.5,3.59a6.9,6.9,0,0,1-3.37-.81Z"/><path class="d" d="M195.18,480.9c0,4.44-3.08,6.38-6,6.38-3.25,0-5.76-2.38-5.76-6.18,0-4,2.63-6.38,5.95-6.38S195.18,477.23,195.18,480.9Zm-9.53.13c0,2.63,1.51,4.61,3.65,4.61s3.64-2,3.64-4.66c0-2-1-4.62-3.59-4.62S185.65,478.74,185.65,481Z"/><path class="d" d="M197.93,478.92c0-1.54-.05-2.78-.1-3.92h2l.1,2.05h.05a4.71,4.71,0,0,1,4.26-2.33c2.91,0,5.09,2.46,5.09,6.11,0,4.31-2.63,6.45-5.46,6.45a4.19,4.19,0,0,1-3.69-1.89h0v6.53h-2.16Zm2.16,3.2a4.84,4.84,0,0,0,.1.89,3.37,3.37,0,0,0,3.27,2.56c2.31,0,3.65-1.89,3.65-4.64,0-2.41-1.27-4.47-3.57-4.47a3.51,3.51,0,0,0-3.31,2.7,3.84,3.84,0,0,0-.14.9Z"/><path class="d" d="M212,469.39h2.19v7.49h.05a4.05,4.05,0,0,1,1.56-1.54,4.52,4.52,0,0,1,2.23-.62c1.62,0,4.2,1,4.2,5.14V487h-2.19v-6.9c0-1.94-.72-3.58-2.78-3.58a3.13,3.13,0,0,0-2.92,2.19,2.51,2.51,0,0,0-.15,1V487H212Z"/><path class="d" d="M226.28,475l2.63,7.09c.28.8.57,1.74.77,2.46h0c.23-.72.47-1.64.77-2.51l2.38-7h2.31l-3.27,8.56c-1.57,4.12-2.63,6.23-4.12,7.52a6,6,0,0,1-2.68,1.41l-.55-1.84a5.69,5.69,0,0,0,1.91-1.06,6.65,6.65,0,0,0,1.84-2.43,1.56,1.56,0,0,0,.17-.53,2,2,0,0,0-.15-.57L223.9,475Z"/><path class="d" d="M519.74,252.2a22.76,22.76,0,0,1,4.14-.34c2.31,0,3.8.42,4.84,1.36A4.19,4.19,0,0,1,530,256.4a4.4,4.4,0,0,1-3.15,4.27v.07c1.29.45,2.06,1.64,2.46,3.37a25.48,25.48,0,0,0,1.29,4.59H528.4a20.61,20.61,0,0,1-1.12-4c-.5-2.31-1.39-3.18-3.35-3.25h-2v7.24h-2.15Zm2.15,7.62h2.21c2.31,0,3.77-1.26,3.77-3.17,0-2.16-1.56-3.11-3.84-3.13a8.91,8.91,0,0,0-2.14.2Z"/><path class="d" d="M534.32,263.1a3.85,3.85,0,0,0,4.12,4.17,8,8,0,0,0,3.33-.62l.37,1.56a9.69,9.69,0,0,1-4,.74c-3.69,0-5.9-2.43-5.9-6.05s2.13-6.48,5.63-6.48c3.92,0,5,3.45,5,5.66a7.56,7.56,0,0,1-.07,1Zm6.41-1.57c0-1.39-.57-3.54-3-3.54-2.21,0-3.18,2-3.35,3.54Z"/><path class="d" d="M546.38,256.69l2.36,6.76a30.59,30.59,0,0,1,1,3.07h.07c.27-1,.62-2,1-3.07l2.33-6.76h2.28l-4.71,12h-2.09l-4.56-12Z"/><path class="d" d="M559.9,253.32a1.35,1.35,0,0,1-2.7,0,1.32,1.32,0,0,1,1.36-1.36A1.29,1.29,0,0,1,559.9,253.32Zm-2.43,15.38v-12h2.18v12Z"/><path class="d" d="M564.49,263.1a3.85,3.85,0,0,0,4.12,4.17,8,8,0,0,0,3.32-.62l.38,1.56a9.73,9.73,0,0,1-4,.74c-3.7,0-5.9-2.43-5.9-6.05s2.13-6.48,5.63-6.48c3.92,0,5,3.45,5,5.66a9.7,9.7,0,0,1-.07,1Zm6.4-1.57c0-1.39-.57-3.54-3-3.54-2.21,0-3.18,2-3.35,3.54Z"/><path class="d" d="M576.57,256.69l1.59,6.11c.35,1.34.67,2.58.89,3.82h.08c.27-1.21.67-2.51,1.07-3.8l2-6.13H584l1.86,6c.45,1.44.8,2.71,1.07,3.92H587a38.3,38.3,0,0,1,.92-3.89l1.71-6h2.16l-3.87,12h-2L584.09,263c-.42-1.34-.77-2.53-1.07-3.94h0a34.23,34.23,0,0,1-1.1,4L580,268.7h-2l-3.62-12Z"/><path class="d" d="M599.22,260.61c0-1.53,0-2.77-.1-3.92h2l.1,2.06h.05a4.74,4.74,0,0,1,4.27-2.33c2.9,0,5.09,2.46,5.09,6.11,0,4.31-2.63,6.45-5.46,6.45a4.22,4.22,0,0,1-3.7-1.89h0v6.53h-2.16Zm2.16,3.21a4.84,4.84,0,0,0,.1.89,3.38,3.38,0,0,0,3.28,2.56c2.3,0,3.64-1.89,3.64-4.64,0-2.41-1.26-4.47-3.57-4.47a3.49,3.49,0,0,0-3.3,2.7,3.85,3.85,0,0,0-.15.9Z"/><path class="d" d="M613.34,260.44c0-1.41,0-2.63-.1-3.75h1.91l.08,2.36h.09a3.62,3.62,0,0,1,3.33-2.63,2.33,2.33,0,0,1,.62.08v2.06a3.22,3.22,0,0,0-.74-.08,3.06,3.06,0,0,0-2.93,2.81,6,6,0,0,0-.1,1v6.4h-2.16Z"/><path class="d" d="M632.07,262.6c0,4.44-3.07,6.38-6,6.38-3.25,0-5.76-2.39-5.76-6.18,0-4,2.63-6.38,6-6.38S632.07,258.93,632.07,262.6Zm-9.53.13c0,2.62,1.52,4.61,3.65,4.61s3.65-2,3.65-4.67c0-2-1-4.61-3.6-4.61S622.54,260.44,622.54,262.73Z"/><path class="d" d="M643.38,268.26a8,8,0,0,1-3.44.69c-3.63,0-6-2.45-6-6.13a6.1,6.1,0,0,1,6.45-6.37,7.3,7.3,0,0,1,3,.62l-.5,1.68a5.15,5.15,0,0,0-2.53-.57c-2.76,0-4.25,2-4.25,4.55,0,2.77,1.79,4.49,4.17,4.49a6.24,6.24,0,0,0,2.68-.6Z"/><path class="d" d="M647,263.1c0,2.95,1.93,4.17,4.11,4.17a8,8,0,0,0,3.33-.62l.37,1.56a9.68,9.68,0,0,1-4,.74c-3.7,0-5.91-2.43-5.91-6.05s2.14-6.48,5.63-6.48c3.92,0,5,3.45,5,5.66a7.23,7.23,0,0,1-.08,1Zm6.4-1.57c0-1.39-.57-3.54-3-3.54-2.21,0-3.18,2-3.35,3.54Z"/><path class="d" d="M657.92,266.47a5.77,5.77,0,0,0,2.88.87c1.59,0,2.33-.79,2.33-1.79s-.62-1.61-2.23-2.2c-2.16-.77-3.18-2-3.18-3.4,0-1.94,1.57-3.53,4.15-3.53a6,6,0,0,1,3,.75l-.55,1.58a4.74,4.74,0,0,0-2.45-.69c-1.29,0-2,.74-2,1.64s.72,1.44,2.28,2c2.08.8,3.15,1.84,3.15,3.62,0,2.11-1.64,3.6-4.49,3.6a6.79,6.79,0,0,1-3.37-.82Z"/><path class="d" d="M667.75,266.47a5.7,5.7,0,0,0,2.88.87c1.58,0,2.33-.79,2.33-1.79s-.62-1.61-2.23-2.2c-2.16-.77-3.18-2-3.18-3.4,0-1.94,1.56-3.53,4.14-3.53a6,6,0,0,1,3,.75l-.55,1.58a4.75,4.75,0,0,0-2.46-.69c-1.29,0-2,.74-2,1.64s.72,1.44,2.29,2c2.08.8,3.15,1.84,3.15,3.62,0,2.11-1.64,3.6-4.49,3.6a6.81,6.81,0,0,1-3.38-.82Z"/><path class="d" d="M509.83,440.54h-5.08V438.7h12.38v1.84H512v14.88h-2.19Z"/><path class="d" d="M528,449.32c0,4.44-3.07,6.38-6,6.38-3.25,0-5.75-2.39-5.75-6.18,0-4,2.63-6.38,6-6.38S528,445.65,528,449.32Zm-9.53.12c0,2.63,1.52,4.62,3.65,4.62s3.65-2,3.65-4.67c0-2-1-4.61-3.6-4.61S518.49,447.16,518.49,449.44Z"/><path class="d" d="M541.64,449.32c0,4.44-3.07,6.38-6,6.38-3.25,0-5.75-2.39-5.75-6.18,0-4,2.63-6.38,6-6.38S541.64,445.65,541.64,449.32Zm-9.53.12c0,2.63,1.52,4.62,3.65,4.62s3.65-2,3.65-4.67c0-2-1-4.61-3.6-4.61S532.11,447.16,532.11,449.44Z"/><path class="d" d="M544.4,437.81h2.18v17.61H544.4Z"/><path class="d" d="M550,453.19a5.77,5.77,0,0,0,2.88.87c1.59,0,2.33-.8,2.33-1.79s-.62-1.61-2.23-2.21c-2.16-.77-3.18-2-3.18-3.4,0-1.93,1.57-3.52,4.15-3.52a6.08,6.08,0,0,1,3,.74l-.55,1.59a4.62,4.62,0,0,0-2.45-.69c-1.29,0-2,.74-2,1.64s.72,1.44,2.28,2c2.09.8,3.15,1.84,3.15,3.62,0,2.11-1.64,3.6-4.49,3.6a6.79,6.79,0,0,1-3.37-.82Z"/><path class="d" d="M572,455.42l-.17-1.51h-.07a4.49,4.49,0,0,1-3.68,1.79,3.42,3.42,0,0,1-3.67-3.45c0-2.91,2.58-4.49,7.22-4.47v-.25a2.48,2.48,0,0,0-2.73-2.78,5.94,5.94,0,0,0-3.12.9l-.5-1.44a7.39,7.39,0,0,1,3.94-1.07c3.68,0,4.57,2.51,4.57,4.91v4.49a16.76,16.76,0,0,0,.2,2.88Zm-.32-6.13c-2.38,0-5.09.38-5.09,2.71a1.93,1.93,0,0,0,2.06,2.08,3,3,0,0,0,2.91-2,2.38,2.38,0,0,0,.12-.69Z"/><path class="d" d="M577.29,446.66c0-1.24,0-2.25-.1-3.25h1.94l.12,2h0a4.43,4.43,0,0,1,4-2.26c1.66,0,4.24,1,4.24,5.11v7.17h-2.18V448.5c0-1.94-.72-3.55-2.78-3.55a3.21,3.21,0,0,0-3.07,3.25v7.22h-2.19Z"/><path class="d" d="M601.43,437.81v14.51c0,1.07,0,2.28.1,3.1h-2l-.1-2.08h-.05a4.44,4.44,0,0,1-4.09,2.36c-2.9,0-5.14-2.46-5.14-6.11,0-4,2.46-6.45,5.39-6.45A4,4,0,0,1,599.2,445h0v-7.17Zm-2.18,10.49a3.65,3.65,0,0,0-.1-.92,3.2,3.2,0,0,0-3.15-2.53c-2.26,0-3.6,2-3.6,4.64,0,2.44,1.19,4.44,3.55,4.44a3.28,3.28,0,0,0,3.2-2.6,3.57,3.57,0,0,0,.1-.94Z"/><path class="d" d="M466.72,486.56a8,8,0,0,1-3.45.69c-3.62,0-6-2.45-6-6.12a6.1,6.1,0,0,1,6.45-6.38,7.3,7.3,0,0,1,3,.62l-.5,1.68a5.15,5.15,0,0,0-2.53-.57c-2.75,0-4.24,2-4.24,4.55,0,2.78,1.78,4.49,4.17,4.49a6.1,6.1,0,0,0,2.68-.6Z"/><path class="d" d="M475.92,487l-.17-1.52h-.08a4.45,4.45,0,0,1-3.67,1.79,3.42,3.42,0,0,1-3.67-3.45c0-2.9,2.58-4.49,7.22-4.47v-.24a2.47,2.47,0,0,0-2.73-2.78,6,6,0,0,0-3.13.89l-.49-1.44a7.48,7.48,0,0,1,3.94-1.07c3.67,0,4.57,2.51,4.57,4.92v4.49a16.83,16.83,0,0,0,.2,2.88Zm-.32-6.13c-2.38-.05-5.09.37-5.09,2.7a1.94,1.94,0,0,0,2.06,2.09,3,3,0,0,0,2.91-2,2.51,2.51,0,0,0,.12-.7Z"/><path class="d" d="M481.23,469.39h2.19V487h-2.19Z"/><path class="d" d="M495.65,486.56a8,8,0,0,1-3.45.69c-3.63,0-6-2.45-6-6.12a6.1,6.1,0,0,1,6.45-6.38,7.21,7.21,0,0,1,3,.62l-.49,1.68a5.15,5.15,0,0,0-2.53-.57c-2.76,0-4.25,2-4.25,4.55,0,2.78,1.79,4.49,4.17,4.49a6.1,6.1,0,0,0,2.68-.6Z"/><path class="d" d="M508.25,483.73c0,1.24,0,2.33.1,3.28h-1.94l-.12-2h-.05a4.54,4.54,0,0,1-4,2.23c-1.89,0-4.14-1-4.14-5.26v-7h2.18v6.65c0,2.28.69,3.82,2.68,3.82a3.17,3.17,0,0,0,2.88-2,3.27,3.27,0,0,0,.2-1.11V475h2.18Z"/><path class="d" d="M511.87,469.39h2.19V487h-2.19Z"/><path class="d" d="M524.37,487l-.17-1.52h-.07a4.46,4.46,0,0,1-3.68,1.79,3.42,3.42,0,0,1-3.67-3.45c0-2.9,2.58-4.49,7.22-4.47v-.24a2.47,2.47,0,0,0-2.73-2.78,5.93,5.93,0,0,0-3.12.89l-.5-1.44a7.49,7.49,0,0,1,4-1.07c3.67,0,4.56,2.51,4.56,4.92v4.49a16.83,16.83,0,0,0,.2,2.88Zm-.32-6.13c-2.38-.05-5.09.37-5.09,2.7a1.94,1.94,0,0,0,2.06,2.09,3,3,0,0,0,2.91-2,2.51,2.51,0,0,0,.12-.7Z"/><path class="d" d="M532.24,471.55V475h3.12v1.66h-3.12v6.48c0,1.48.42,2.33,1.64,2.33a5,5,0,0,0,1.26-.15l.1,1.64a5.43,5.43,0,0,1-1.93.29,3,3,0,0,1-2.36-.91,4.48,4.48,0,0,1-.84-3.13v-6.55h-1.87V475h1.87v-2.88Z"/><path class="d" d="M548.54,480.9c0,4.44-3.08,6.38-6,6.38-3.25,0-5.76-2.38-5.76-6.18,0-4,2.63-6.38,6-6.38S548.54,477.23,548.54,480.9ZM539,481c0,2.63,1.52,4.61,3.65,4.61s3.65-2,3.65-4.66c0-2-1-4.62-3.6-4.62S539,478.74,539,481Z"/><path class="d" d="M551.29,478.74c0-1.41,0-2.63-.1-3.74h1.91l.08,2.35h.1a3.6,3.6,0,0,1,3.32-2.63,2.33,2.33,0,0,1,.62.08v2.06a3.16,3.16,0,0,0-.74-.08,3.07,3.07,0,0,0-2.93,2.81,6.06,6.06,0,0,0-.1,1V487h-2.16Z"/><path class="d" d="M559.11,484.77a5.6,5.6,0,0,0,2.87.87c1.59,0,2.34-.79,2.34-1.79s-.62-1.61-2.24-2.2c-2.15-.77-3.17-2-3.17-3.4,0-1.94,1.56-3.53,4.14-3.53a5.94,5.94,0,0,1,3,.75l-.54,1.58a4.75,4.75,0,0,0-2.46-.69c-1.29,0-2,.75-2,1.64s.72,1.44,2.29,2c2.08.8,3.15,1.84,3.15,3.63,0,2.11-1.64,3.59-4.49,3.59a6.94,6.94,0,0,1-3.38-.81Z"/><path class="d" d="M574.49,478.25c0-1.24,0-2.26-.1-3.25h1.93l.13,2h0a4.41,4.41,0,0,1,4-2.26c1.66,0,4.24,1,4.24,5.11V487h-2.18v-6.93c0-1.93-.72-3.55-2.78-3.55a3.21,3.21,0,0,0-3.08,3.26V487h-2.18Z"/><path class="d" d="M589.47,481.4a3.85,3.85,0,0,0,4.12,4.17,8,8,0,0,0,3.33-.62l.37,1.56a9.69,9.69,0,0,1-4,.74c-3.69,0-5.9-2.43-5.9-6.05s2.13-6.48,5.63-6.48c3.92,0,5,3.45,5,5.66a9.49,9.49,0,0,1-.07,1Zm6.41-1.57c0-1.39-.57-3.54-3-3.54-2.21,0-3.18,2-3.35,3.54Z"/><path class="d" d="M601.9,481.4a3.85,3.85,0,0,0,4.12,4.17,8.06,8.06,0,0,0,3.33-.62l.37,1.56a9.68,9.68,0,0,1-4,.74c-3.7,0-5.91-2.43-5.91-6.05s2.13-6.48,5.63-6.48c3.92,0,5,3.45,5,5.66a9.49,9.49,0,0,1-.07,1Zm6.4-1.57c0-1.39-.57-3.54-3-3.54-2.21,0-3.18,2-3.35,3.54Z"/><path class="d" d="M623.49,469.39V483.9c0,1.07,0,2.29.1,3.11h-2l-.1-2.09h0a4.45,4.45,0,0,1-4.1,2.36c-2.9,0-5.13-2.46-5.13-6.1,0-4,2.46-6.46,5.38-6.46a4,4,0,0,1,3.63,1.84h0v-7.17Zm-2.19,10.5a3.56,3.56,0,0,0-.1-.92,3.2,3.2,0,0,0-3.15-2.53c-2.25,0-3.59,2-3.59,4.64,0,2.43,1.19,4.44,3.54,4.44a3.27,3.27,0,0,0,3.2-2.61,3.52,3.52,0,0,0,.1-.94Z"/><path class="d" d="M628.33,481.4a3.84,3.84,0,0,0,4.11,4.17,8,8,0,0,0,3.33-.62l.37,1.56a9.68,9.68,0,0,1-4,.74c-3.7,0-5.91-2.43-5.91-6.05s2.13-6.48,5.63-6.48c3.92,0,5,3.45,5,5.66a7.09,7.09,0,0,1-.08,1Zm6.4-1.57c0-1.39-.57-3.54-3-3.54-2.21,0-3.18,2-3.35,3.54Z"/><path class="d" d="M649.91,469.39V483.9c0,1.07,0,2.29.1,3.11h-2l-.1-2.09h-.05a4.44,4.44,0,0,1-4.09,2.36c-2.91,0-5.14-2.46-5.14-6.1,0-4,2.46-6.46,5.38-6.46a4,4,0,0,1,3.63,1.84h.05v-7.17Zm-2.18,10.5a4.05,4.05,0,0,0-.1-.92,3.21,3.21,0,0,0-3.15-2.53c-2.26,0-3.6,2-3.6,4.64,0,2.43,1.19,4.44,3.55,4.44a3.29,3.29,0,0,0,3.2-2.61,4,4,0,0,0,.1-.94Z"/></svg>