<svg xmlns="http://www.w3.org/2000/svg" viewBox="0 0 375.83 262.25"><defs><style>.a{fill:#fab630;}.b{fill:#5c5c5c;}.c{fill:#f8ac18;}</style></defs><path class="a" d="M307.24,96.35h25V232.28h-25Zm-87.36,98.4h25v37.53h-25Zm-87.36,27.36h25v10.17h-25ZM45.16,134h25v98.25h-25Z"/><path class="b" d="M332.2,172.67h25v59.61h-25Zm-87.36,40.8h25v18.81h-25Zm-87.36,15.84h25v3h-25ZM70.12,36.11h25V232.28h-25Z"/><polyline class="b" points="26.28 232.28 26.28 3.94 26.78 3.94 26.78 232.28"/><polyline class="b" points="26.53 232.03 375.83 232.03 375.83 232.53 26.53 232.53"/><path d="M16.36,228.78l.05-.13,0-.09-.13-.06-.26,0h-.24l-.17,0-.12.07-.09.09-4.54,6.22-.06.12,0,.09.13.06a1,1,0,0,0,.26,0h.24l.17,0,.12-.06.09-.1Zm-.36,5.1a.77.77,0,0,1-.08.3l-.15.18a.43.43,0,0,1-.24.06l-.21,0-.16-.15a.87.87,0,0,1-.1-.3,3.43,3.43,0,0,1,0-.5,2.81,2.81,0,0,1,0-.45.89.89,0,0,1,.09-.3l.15-.17.22-.05.23.05.16.17A1,1,0,0,1,16,233a3,3,0,0,1,0,.46A2.76,2.76,0,0,1,16,233.88Zm.94-1.1a1.5,1.5,0,0,0-.23-.53,1.16,1.16,0,0,0-.45-.36,1.63,1.63,0,0,0-.72-.13,1.76,1.76,0,0,0-.68.12,1.18,1.18,0,0,0-.46.36,1.32,1.32,0,0,0-.26.53,2.38,2.38,0,0,0-.09.68,3.45,3.45,0,0,0,.07.67,1.39,1.39,0,0,0,.24.52,1.14,1.14,0,0,0,.45.35,1.74,1.74,0,0,0,.69.12,1.72,1.72,0,0,0,.68-.12,1.38,1.38,0,0,0,.47-.35,1.32,1.32,0,0,0,.26-.53,2.53,2.53,0,0,0,.09-.7A3.21,3.21,0,0,0,16.94,232.78Zm-4.78-2.08a.82.82,0,0,1-.08.3l-.15.17a.43.43,0,0,1-.24.06l-.21,0-.16-.15a1.41,1.41,0,0,1-.1-.31,3.34,3.34,0,0,1,0-.5,2.81,2.81,0,0,1,0-.45,1.07,1.07,0,0,1,.09-.3l.15-.17.22-.05.23.06.16.17a1,1,0,0,1,.09.31,3,3,0,0,1,0,.46A2.85,2.85,0,0,1,12.16,230.7Zm.94-1.11a1.45,1.45,0,0,0-.23-.52,1.11,1.11,0,0,0-.44-.36,1.69,1.69,0,0,0-.73-.14,1.75,1.75,0,0,0-.68.13,1.15,1.15,0,0,0-.46.35,1.38,1.38,0,0,0-.26.53,2.48,2.48,0,0,0-.09.68,3.55,3.55,0,0,0,.07.68,1.46,1.46,0,0,0,.24.52,1,1,0,0,0,.45.34,1.75,1.75,0,0,0,.7.13,1.7,1.7,0,0,0,.67-.13,1.17,1.17,0,0,0,.47-.34,1.52,1.52,0,0,0,.27-.54,2.93,2.93,0,0,0,.08-.7A3.21,3.21,0,0,0,13.1,229.59Zm-4.7,3a4.21,4.21,0,0,1-.06.55,2,2,0,0,1-.12.43,1,1,0,0,1-.18.31.67.67,0,0,1-.26.19.9.9,0,0,1-.34.06.74.74,0,0,1-.74-.47,2.74,2.74,0,0,1-.17-.71c0-.3,0-.67,0-1.13a9.29,9.29,0,0,1,0-1,2.5,2.5,0,0,1,.16-.7.85.85,0,0,1,.3-.42.72.72,0,0,1,.48-.14,1,1,0,0,1,.3,0,.64.64,0,0,1,.25.15.9.9,0,0,1,.18.29,1.84,1.84,0,0,1,.13.43,4.38,4.38,0,0,1,.08.6c0,.23,0,.5,0,.8S8.42,232.36,8.4,232.57Zm1.23-2.13a3,3,0,0,0-.35-1,1.74,1.74,0,0,0-.68-.64,2.35,2.35,0,0,0-1.09-.23,2.21,2.21,0,0,0-1.08.24,1.85,1.85,0,0,0-.73.66,3.11,3.11,0,0,0-.4,1.05,7.19,7.19,0,0,0-.13,1.38,9.25,9.25,0,0,0,.1,1.37,2.91,2.91,0,0,0,.36,1,1.64,1.64,0,0,0,.68.65,2.41,2.41,0,0,0,1.08.22,2.41,2.41,0,0,0,1.09-.23,1.86,1.86,0,0,0,.72-.67,2.86,2.86,0,0,0,.4-1,6.47,6.47,0,0,0,.13-1.38A9.5,9.5,0,0,0,9.63,230.44Z"/><path d="M16.33,200.22l.05-.13,0-.09-.13-.06-.26,0h-.24l-.17,0-.12.07-.09.09-4.54,6.22-.06.12,0,.09.13.06a1,1,0,0,0,.26,0h.24l.17,0,.12-.06.09-.1Zm-.36,5.1a.77.77,0,0,1-.08.3l-.15.18a.43.43,0,0,1-.24.06l-.21-.05-.16-.15a.87.87,0,0,1-.1-.3,3.43,3.43,0,0,1,0-.5,2.81,2.81,0,0,1,0-.45.89.89,0,0,1,.09-.3l.15-.17.22-.05.23.05.16.17a1,1,0,0,1,.09.31,3,3,0,0,1,0,.46A2.76,2.76,0,0,1,16,205.32Zm.94-1.1a1.5,1.5,0,0,0-.23-.53,1.16,1.16,0,0,0-.45-.36,1.63,1.63,0,0,0-.72-.13,1.76,1.76,0,0,0-.68.12,1.18,1.18,0,0,0-.46.36,1.32,1.32,0,0,0-.26.53,2.38,2.38,0,0,0-.09.68,3.45,3.45,0,0,0,.07.67,1.39,1.39,0,0,0,.24.52,1.14,1.14,0,0,0,.45.35,1.74,1.74,0,0,0,.69.12,1.72,1.72,0,0,0,.68-.12,1.38,1.38,0,0,0,.47-.35,1.32,1.32,0,0,0,.26-.53,2.53,2.53,0,0,0,.09-.7A3.21,3.21,0,0,0,16.91,204.22Zm-4.78-2.08a.82.82,0,0,1-.08.3l-.15.17a.43.43,0,0,1-.24.06l-.21,0-.16-.15a1.41,1.41,0,0,1-.1-.31,3.34,3.34,0,0,1,0-.5,2.81,2.81,0,0,1,0-.45,1.07,1.07,0,0,1,.09-.3l.15-.17.22-.05.23.06.16.17a1,1,0,0,1,.09.31,3,3,0,0,1,0,.46A2.85,2.85,0,0,1,12.13,202.14Zm.94-1.11a1.45,1.45,0,0,0-.23-.52,1.11,1.11,0,0,0-.44-.36,1.69,1.69,0,0,0-.73-.14,1.75,1.75,0,0,0-.68.13,1.15,1.15,0,0,0-.46.35,1.38,1.38,0,0,0-.26.53,2.48,2.48,0,0,0-.09.68,3.55,3.55,0,0,0,.07.68,1.46,1.46,0,0,0,.24.52,1,1,0,0,0,.45.34,1.75,1.75,0,0,0,.7.13,1.7,1.7,0,0,0,.67-.13,1.17,1.17,0,0,0,.47-.34,1.52,1.52,0,0,0,.27-.54,2.93,2.93,0,0,0,.08-.7A3.21,3.21,0,0,0,13.07,201Zm-4.7,3a4.21,4.21,0,0,1-.06.55,2,2,0,0,1-.12.43,1,1,0,0,1-.18.31.67.67,0,0,1-.26.19.9.9,0,0,1-.34.06.74.74,0,0,1-.74-.47,2.74,2.74,0,0,1-.17-.71c0-.3,0-.67,0-1.13a9.29,9.29,0,0,1,0-1,2.5,2.5,0,0,1,.16-.7.85.85,0,0,1,.3-.42.72.72,0,0,1,.48-.14,1,1,0,0,1,.3,0,.64.64,0,0,1,.25.15.9.9,0,0,1,.18.29,1.84,1.84,0,0,1,.13.43,4.38,4.38,0,0,1,.08.6c0,.23,0,.5,0,.8S8.39,203.8,8.37,204Zm1.23-2.13a3,3,0,0,0-.35-1,1.74,1.74,0,0,0-.68-.64A2.35,2.35,0,0,0,7.48,200a2.21,2.21,0,0,0-1.08.24,1.85,1.85,0,0,0-.73.66,3.11,3.11,0,0,0-.4,1.05,7.19,7.19,0,0,0-.13,1.38,9.25,9.25,0,0,0,.1,1.37,2.91,2.91,0,0,0,.36,1,1.64,1.64,0,0,0,.68.65,2.41,2.41,0,0,0,1.08.22,2.41,2.41,0,0,0,1.09-.23,1.86,1.86,0,0,0,.72-.67,2.86,2.86,0,0,0,.4-1,6.47,6.47,0,0,0,.13-1.38A9.5,9.5,0,0,0,9.6,201.88Zm-5.14,3.86,0-.16-.07-.09-.08,0h-1v-5.26l0-.08-.07,0-.18,0h-.8l-.06,0L.73,201l-.1.08-.05.09,0,.13v.19a2.07,2.07,0,0,0,0,.29l.05.15.12,0,.18-.07,1-.57v4.15H.76l-.08,0-.06.09,0,.16a1.55,1.55,0,0,0,0,.23,1.7,1.7,0,0,0,0,.24l0,.15.06.08.08,0H4.27l.08,0,.06-.08,0-.15a1.54,1.54,0,0,0,0-.24C4.47,205.88,4.46,205.8,4.46,205.74Z"/><path d="M16.33,171.66l.05-.13,0-.09-.13-.06-.26,0h-.24l-.17,0-.12.07-.09.09-4.54,6.22-.06.12,0,.09.13.06a1,1,0,0,0,.26,0h.24l.17,0,.12-.06.09-.1Zm-.36,5.1a.77.77,0,0,1-.08.3l-.15.18a.43.43,0,0,1-.24.06l-.21-.05-.16-.15a.87.87,0,0,1-.1-.3,3.43,3.43,0,0,1,0-.5,2.81,2.81,0,0,1,0-.45.89.89,0,0,1,.09-.3l.15-.17.22,0,.23,0,.16.17a1,1,0,0,1,.09.31,3,3,0,0,1,0,.46A2.76,2.76,0,0,1,16,176.76Zm.94-1.1a1.5,1.5,0,0,0-.23-.53,1.16,1.16,0,0,0-.45-.36,1.63,1.63,0,0,0-.72-.13,1.76,1.76,0,0,0-.68.12,1.18,1.18,0,0,0-.46.36,1.32,1.32,0,0,0-.26.53,2.38,2.38,0,0,0-.09.68,3.45,3.45,0,0,0,.07.67,1.39,1.39,0,0,0,.24.52,1.14,1.14,0,0,0,.45.35,1.74,1.74,0,0,0,.69.12,1.72,1.72,0,0,0,.68-.12,1.38,1.38,0,0,0,.47-.35,1.32,1.32,0,0,0,.26-.53,2.53,2.53,0,0,0,.09-.7A3.21,3.21,0,0,0,16.91,175.66Zm-4.78-2.08a.82.82,0,0,1-.08.3l-.15.17a.43.43,0,0,1-.24.06l-.21,0-.16-.15a1.41,1.41,0,0,1-.1-.31,3.34,3.34,0,0,1,0-.5,2.81,2.81,0,0,1,0-.45,1.07,1.07,0,0,1,.09-.3l.15-.17.22-.05.23.06.16.17a1,1,0,0,1,.09.31,3,3,0,0,1,0,.46A2.85,2.85,0,0,1,12.13,173.58Zm.94-1.11a1.45,1.45,0,0,0-.23-.52,1.11,1.11,0,0,0-.44-.36,1.69,1.69,0,0,0-.73-.14,1.75,1.75,0,0,0-.68.13,1.15,1.15,0,0,0-.46.35,1.38,1.38,0,0,0-.26.53,2.48,2.48,0,0,0-.09.68,3.55,3.55,0,0,0,.07.68,1.46,1.46,0,0,0,.24.52,1,1,0,0,0,.45.34,1.75,1.75,0,0,0,.7.13,1.7,1.7,0,0,0,.67-.13,1.17,1.17,0,0,0,.47-.34,1.52,1.52,0,0,0,.27-.54,2.93,2.93,0,0,0,.08-.7A3.21,3.21,0,0,0,13.07,172.47Zm-4.7,3a4.21,4.21,0,0,1-.06.55,2,2,0,0,1-.12.43,1,1,0,0,1-.18.31.67.67,0,0,1-.26.19.9.9,0,0,1-.34.06.74.74,0,0,1-.74-.47,2.74,2.74,0,0,1-.17-.71c0-.3,0-.67,0-1.13a9.29,9.29,0,0,1,0-1,2.5,2.5,0,0,1,.16-.7.85.85,0,0,1,.3-.42.72.72,0,0,1,.48-.14,1,1,0,0,1,.3,0,.64.64,0,0,1,.25.15.9.9,0,0,1,.18.29,1.84,1.84,0,0,1,.13.43,4.38,4.38,0,0,1,.08.6c0,.23,0,.5,0,.8S8.39,175.24,8.37,175.45Zm1.23-2.13a3,3,0,0,0-.35-1,1.74,1.74,0,0,0-.68-.64,2.35,2.35,0,0,0-1.09-.23,2.21,2.21,0,0,0-1.08.24,1.85,1.85,0,0,0-.73.66,3.11,3.11,0,0,0-.4,1.05,7.19,7.19,0,0,0-.13,1.38,9.25,9.25,0,0,0,.1,1.37,2.91,2.91,0,0,0,.36,1,1.64,1.64,0,0,0,.68.65,2.41,2.41,0,0,0,1.08.22,2.41,2.41,0,0,0,1.09-.23,1.86,1.86,0,0,0,.72-.67,2.86,2.86,0,0,0,.4-1,6.47,6.47,0,0,0,.13-1.38A9.5,9.5,0,0,0,9.6,173.32Zm-5.09,3.82,0-.16-.07-.09-.09,0H1.8l.74-.77c.37-.37.67-.69.9-1a5.37,5.37,0,0,0,.53-.77,2.48,2.48,0,0,0,.24-.65,3.08,3.08,0,0,0,.06-.61,1.84,1.84,0,0,0-.12-.66,1.38,1.38,0,0,0-.37-.53,1.66,1.66,0,0,0-.61-.35,2.84,2.84,0,0,0-.87-.13,3.08,3.08,0,0,0-.61.06,3.69,3.69,0,0,0-.53.15,2.16,2.16,0,0,0-.4.18,1.13,1.13,0,0,0-.23.15l-.09.1,0,.09,0,.14v.19a2.16,2.16,0,0,0,0,.28l0,.18,0,.1.08,0L.72,173a3.22,3.22,0,0,1,.29-.17,2.4,2.4,0,0,1,.39-.17,2,2,0,0,1,.51-.07,1,1,0,0,1,.36.06.69.69,0,0,1,.26.17.74.74,0,0,1,.15.26.94.94,0,0,1,0,.3,1.69,1.69,0,0,1,0,.38,1.92,1.92,0,0,1-.16.43,3.32,3.32,0,0,1-.31.51,5.21,5.21,0,0,1-.53.63l-1.1,1.18-.16.19-.11.18,0,.21a2.18,2.18,0,0,0,0,.27,1.23,1.23,0,0,0,0,.29l.07.16.13.08.18,0H4.33l.08,0,.07-.09,0-.17c0-.06,0-.15,0-.24A1.66,1.66,0,0,0,4.51,177.14Z"/><path d="M16.33,143.1l.05-.13,0-.09-.13-.06-.26,0h-.24l-.17,0-.12.07-.09.09-4.54,6.22-.06.12,0,.09.13.06a1,1,0,0,0,.26,0h.24l.17,0,.12-.06.09-.1ZM16,148.2a.77.77,0,0,1-.08.3l-.15.18a.43.43,0,0,1-.24.06l-.21-.05-.16-.15a.87.87,0,0,1-.1-.3,3.43,3.43,0,0,1,0-.5,2.81,2.81,0,0,1,0-.45.89.89,0,0,1,.09-.3l.15-.17.22,0,.23,0,.16.17a1,1,0,0,1,.09.31,3,3,0,0,1,0,.46A2.76,2.76,0,0,1,16,148.2Zm.94-1.1a1.5,1.5,0,0,0-.23-.53,1.16,1.16,0,0,0-.45-.36,1.63,1.63,0,0,0-.72-.13,1.76,1.76,0,0,0-.68.12,1.18,1.18,0,0,0-.46.36,1.32,1.32,0,0,0-.26.53,2.38,2.38,0,0,0-.09.68,3.45,3.45,0,0,0,.07.67,1.39,1.39,0,0,0,.24.52,1.14,1.14,0,0,0,.45.35,1.74,1.74,0,0,0,.69.12,1.72,1.72,0,0,0,.68-.12,1.38,1.38,0,0,0,.47-.35,1.32,1.32,0,0,0,.26-.53,2.53,2.53,0,0,0,.09-.7A3.21,3.21,0,0,0,16.91,147.1ZM12.13,145a.82.82,0,0,1-.08.3l-.15.17a.43.43,0,0,1-.24.06l-.21,0-.16-.15a1.41,1.41,0,0,1-.1-.31,3.34,3.34,0,0,1,0-.5,2.81,2.81,0,0,1,0-.45,1.07,1.07,0,0,1,.09-.3l.15-.17.22,0,.23.06.16.17a1,1,0,0,1,.09.31,3,3,0,0,1,0,.46A2.85,2.85,0,0,1,12.13,145Zm.94-1.11a1.45,1.45,0,0,0-.23-.52,1.11,1.11,0,0,0-.44-.36,1.69,1.69,0,0,0-.73-.14A1.75,1.75,0,0,0,11,143a1.15,1.15,0,0,0-.46.35,1.38,1.38,0,0,0-.26.53,2.48,2.48,0,0,0-.09.68,3.55,3.55,0,0,0,.07.68,1.46,1.46,0,0,0,.24.52,1,1,0,0,0,.45.34,1.75,1.75,0,0,0,.7.13,1.7,1.7,0,0,0,.67-.13,1.17,1.17,0,0,0,.47-.34,1.52,1.52,0,0,0,.27-.54,2.93,2.93,0,0,0,.08-.7A3.21,3.21,0,0,0,13.07,143.91Zm-4.7,3a4.21,4.21,0,0,1-.06.55,2,2,0,0,1-.12.43,1,1,0,0,1-.18.31.67.67,0,0,1-.26.19.9.9,0,0,1-.34.06.74.74,0,0,1-.74-.47,2.74,2.74,0,0,1-.17-.71c0-.3,0-.67,0-1.13a9.29,9.29,0,0,1,0-1,2.5,2.5,0,0,1,.16-.7A.85.85,0,0,1,7,144a.72.72,0,0,1,.48-.14,1,1,0,0,1,.3,0,.64.64,0,0,1,.25.15.9.9,0,0,1,.18.29,1.84,1.84,0,0,1,.13.43,4.38,4.38,0,0,1,.08.6c0,.23,0,.5,0,.8S8.39,146.68,8.37,146.89Zm1.23-2.13a3,3,0,0,0-.35-1,1.74,1.74,0,0,0-.68-.64,2.35,2.35,0,0,0-1.09-.23,2.21,2.21,0,0,0-1.08.24,1.85,1.85,0,0,0-.73.66,3.11,3.11,0,0,0-.4,1.05,7.19,7.19,0,0,0-.13,1.38,9.25,9.25,0,0,0,.1,1.37,2.91,2.91,0,0,0,.36,1,1.64,1.64,0,0,0,.68.65,2.41,2.41,0,0,0,1.08.22,2.41,2.41,0,0,0,1.09-.23,1.86,1.86,0,0,0,.72-.67,2.86,2.86,0,0,0,.4-1,6.47,6.47,0,0,0,.13-1.38A9.5,9.5,0,0,0,9.6,144.76ZM4.4,147a1.48,1.48,0,0,0-.28-.45,1.87,1.87,0,0,0-.45-.33,2.21,2.21,0,0,0-.6-.17h0a1.81,1.81,0,0,0,.49-.21,1.42,1.42,0,0,0,.36-.33,1.33,1.33,0,0,0,.21-.45,1.91,1.91,0,0,0,.08-.54,1.6,1.6,0,0,0-.13-.67,1.24,1.24,0,0,0-.37-.51,1.7,1.7,0,0,0-.6-.31,2.86,2.86,0,0,0-.82-.11,2.7,2.7,0,0,0-.65.07,3.2,3.2,0,0,0-.54.15,1.93,1.93,0,0,0-.38.18l-.2.14-.07.08,0,.1,0,.13v.21c0,.1,0,.18,0,.24l0,.14,0,.07H.54l.19-.07a2,2,0,0,1,.3-.17,3.17,3.17,0,0,1,.41-.17,1.51,1.51,0,0,1,.48-.08,1.14,1.14,0,0,1,.39.06,1,1,0,0,1,.28.17.82.82,0,0,1,.16.25,1.06,1.06,0,0,1,0,.31,1,1,0,0,1-.08.39.8.8,0,0,1-.23.29.87.87,0,0,1-.37.19,1.61,1.61,0,0,1-.51.07H1.06l-.1,0-.07.07,0,.14a1.55,1.55,0,0,0,0,.23,1.78,1.78,0,0,0,0,.25l0,.15.07.07.11,0h.55a2.18,2.18,0,0,1,.61.07,1.43,1.43,0,0,1,.43.19,1,1,0,0,1,.26.31,1,1,0,0,1,.08.39.87.87,0,0,1-.07.37.67.67,0,0,1-.22.28.89.89,0,0,1-.35.18,1.66,1.66,0,0,1-.47.07,2.49,2.49,0,0,1-.58-.07c-.16-.05-.31-.09-.43-.14a1.8,1.8,0,0,1-.31-.15L.4,148l-.12.09a.85.85,0,0,0,0,.33,1.77,1.77,0,0,0,0,.24l0,.17,0,.11.07.09a.86.86,0,0,0,.19.11,2.18,2.18,0,0,0,.36.15,4.24,4.24,0,0,0,.5.11,4,4,0,0,0,.61.05,3.44,3.44,0,0,0,1-.13,2.58,2.58,0,0,0,.78-.38,1.79,1.79,0,0,0,.51-.62,1.93,1.93,0,0,0,.18-.85A1.32,1.32,0,0,0,4.4,147Z"/><path d="M16.33,114.54l.05-.13,0-.09-.13-.06-.26,0h-.24l-.17,0-.12.07-.09.09-4.54,6.22-.06.12,0,.09.13.06a1,1,0,0,0,.26,0h.24l.17,0,.12-.06.09-.1Zm-.36,5.1a.77.77,0,0,1-.08.3l-.15.18a.43.43,0,0,1-.24.06l-.21-.05-.16-.15a.87.87,0,0,1-.1-.3,3.43,3.43,0,0,1,0-.5,2.81,2.81,0,0,1,0-.45.89.89,0,0,1,.09-.3l.15-.17.22-.05.23.05.16.17a1,1,0,0,1,.09.31,3,3,0,0,1,0,.46A2.76,2.76,0,0,1,16,119.64Zm.94-1.1a1.5,1.5,0,0,0-.23-.53,1.16,1.16,0,0,0-.45-.36,1.63,1.63,0,0,0-.72-.13,1.76,1.76,0,0,0-.68.12,1.18,1.18,0,0,0-.46.36,1.32,1.32,0,0,0-.26.53,2.38,2.38,0,0,0-.09.68,3.45,3.45,0,0,0,.07.67,1.39,1.39,0,0,0,.24.52,1.14,1.14,0,0,0,.45.35,1.74,1.74,0,0,0,.69.12,1.72,1.72,0,0,0,.68-.12,1.38,1.38,0,0,0,.47-.35,1.32,1.32,0,0,0,.26-.53,2.53,2.53,0,0,0,.09-.7A3.21,3.21,0,0,0,16.91,118.54Zm-4.78-2.08a.82.82,0,0,1-.08.3l-.15.17a.43.43,0,0,1-.24.06l-.21,0-.16-.15a1.41,1.41,0,0,1-.1-.31,3.34,3.34,0,0,1,0-.5,2.9,2.9,0,0,1,0-.45,1.07,1.07,0,0,1,.09-.3l.15-.17.22,0,.23.06.16.17a1,1,0,0,1,.09.31,3,3,0,0,1,0,.46A2.85,2.85,0,0,1,12.13,116.46Zm.94-1.11a1.45,1.45,0,0,0-.23-.52,1.11,1.11,0,0,0-.44-.36,1.69,1.69,0,0,0-.73-.14,1.75,1.75,0,0,0-.68.13,1.15,1.15,0,0,0-.46.35,1.38,1.38,0,0,0-.26.53,2.48,2.48,0,0,0-.09.68,3.55,3.55,0,0,0,.07.68,1.46,1.46,0,0,0,.24.52,1,1,0,0,0,.45.34,1.75,1.75,0,0,0,.7.13,1.7,1.7,0,0,0,.67-.13,1.17,1.17,0,0,0,.47-.34,1.52,1.52,0,0,0,.27-.54,2.93,2.93,0,0,0,.08-.7A3.21,3.21,0,0,0,13.07,115.35Zm-4.7,3a4.21,4.21,0,0,1-.06.55,2,2,0,0,1-.12.43,1,1,0,0,1-.18.31.67.67,0,0,1-.26.19.9.9,0,0,1-.34.06.74.74,0,0,1-.74-.47,2.74,2.74,0,0,1-.17-.71c0-.3,0-.67,0-1.13a9.29,9.29,0,0,1,0-1,2.5,2.5,0,0,1,.16-.7.85.85,0,0,1,.3-.42.72.72,0,0,1,.48-.14,1,1,0,0,1,.3,0,.64.64,0,0,1,.25.15.9.9,0,0,1,.18.29,1.84,1.84,0,0,1,.13.43,4.38,4.38,0,0,1,.08.6c0,.23,0,.5,0,.8S8.39,118.12,8.37,118.33ZM9.6,116.2a3,3,0,0,0-.35-1,1.74,1.74,0,0,0-.68-.64,2.35,2.35,0,0,0-1.09-.23,2.21,2.21,0,0,0-1.08.24,1.85,1.85,0,0,0-.73.66,3.11,3.11,0,0,0-.4,1,7.19,7.19,0,0,0-.13,1.38,9.25,9.25,0,0,0,.1,1.37,2.91,2.91,0,0,0,.36,1,1.64,1.64,0,0,0,.68.65,2.41,2.41,0,0,0,1.08.22,2.41,2.41,0,0,0,1.09-.23,1.86,1.86,0,0,0,.72-.67,2.86,2.86,0,0,0,.4-1,6.47,6.47,0,0,0,.13-1.38A9.5,9.5,0,0,0,9.6,116.2Zm-6.88,2.23H1l1.68-2.93h0Zm1.95.12-.14-.12H4V114.6l-.05-.09-.16-.07a1.55,1.55,0,0,0-.28,0H2.66a1,1,0,0,0-.27,0l-.17,0-.08.08-2,3.49-.08.18,0,.17,0,.21a2.35,2.35,0,0,0,0,.28,2.23,2.23,0,0,0,0,.3l.05.18.09.08.13,0H2.72v1.15l0,.08.1.07.19,0,.3,0,.3,0,.19,0,.11-.07,0-.08v-1.15h.56l.14-.13a1,1,0,0,0,.06-.38A1,1,0,0,0,4.67,118.55Z"/><path d="M16.33,86l.05-.13,0-.09-.13-.06-.26,0h-.24l-.17,0-.12.07-.09.09L10.8,92.1l-.06.12,0,.09.13.06a1,1,0,0,0,.26,0h.24l.17,0,.12-.06.09-.1ZM16,91.08a.77.77,0,0,1-.08.3l-.15.18a.43.43,0,0,1-.24.06l-.21-.05-.16-.15a.87.87,0,0,1-.1-.3,3.43,3.43,0,0,1,0-.5,2.81,2.81,0,0,1,0-.45.89.89,0,0,1,.09-.3l.15-.17.22,0,.23,0,.16.17a1,1,0,0,1,.09.31,3,3,0,0,1,0,.46A2.76,2.76,0,0,1,16,91.08Zm.94-1.1a1.5,1.5,0,0,0-.23-.53,1.16,1.16,0,0,0-.45-.36,1.63,1.63,0,0,0-.72-.13,1.76,1.76,0,0,0-.68.12,1.18,1.18,0,0,0-.46.36,1.32,1.32,0,0,0-.26.53,2.38,2.38,0,0,0-.09.68,3.45,3.45,0,0,0,.07.67,1.39,1.39,0,0,0,.24.52,1.14,1.14,0,0,0,.45.35,1.74,1.74,0,0,0,.69.12,1.72,1.72,0,0,0,.68-.12,1.38,1.38,0,0,0,.47-.35,1.32,1.32,0,0,0,.26-.53,2.53,2.53,0,0,0,.09-.7A3.21,3.21,0,0,0,16.91,90ZM12.13,87.9a.82.82,0,0,1-.08.3l-.15.17a.43.43,0,0,1-.24.06l-.21,0-.16-.15a1.41,1.41,0,0,1-.1-.31,3.34,3.34,0,0,1,0-.5,2.9,2.9,0,0,1,0-.45,1.07,1.07,0,0,1,.09-.3l.15-.17.22-.05.23.06.16.17a1,1,0,0,1,.09.31,3,3,0,0,1,0,.46A2.85,2.85,0,0,1,12.13,87.9Zm.94-1.11a1.45,1.45,0,0,0-.23-.52,1.11,1.11,0,0,0-.44-.36,1.69,1.69,0,0,0-.73-.14,1.75,1.75,0,0,0-.68.13,1.15,1.15,0,0,0-.46.35,1.38,1.38,0,0,0-.26.53,2.48,2.48,0,0,0-.09.68,3.55,3.55,0,0,0,.07.68,1.46,1.46,0,0,0,.24.52,1,1,0,0,0,.45.34,1.75,1.75,0,0,0,.7.13,1.7,1.7,0,0,0,.67-.13,1.17,1.17,0,0,0,.47-.34,1.52,1.52,0,0,0,.27-.54,2.93,2.93,0,0,0,.08-.7A3.21,3.21,0,0,0,13.07,86.79Zm-4.7,3a4.21,4.21,0,0,1-.06.55,2,2,0,0,1-.12.43,1,1,0,0,1-.18.31.67.67,0,0,1-.26.19.9.9,0,0,1-.34.06.74.74,0,0,1-.74-.47,2.74,2.74,0,0,1-.17-.71c0-.3,0-.67,0-1.13a9.29,9.29,0,0,1,0-1,2.5,2.5,0,0,1,.16-.7.85.85,0,0,1,.3-.42.72.72,0,0,1,.48-.14,1,1,0,0,1,.3,0A.64.64,0,0,1,8,87a.9.9,0,0,1,.18.29,1.84,1.84,0,0,1,.13.43,4.38,4.38,0,0,1,.08.6c0,.23,0,.5,0,.8S8.39,89.56,8.37,89.77ZM9.6,87.64a3,3,0,0,0-.35-1A1.74,1.74,0,0,0,8.57,86a2.35,2.35,0,0,0-1.09-.23A2.21,2.21,0,0,0,6.4,86a1.85,1.85,0,0,0-.73.66,3.11,3.11,0,0,0-.4,1,7.19,7.19,0,0,0-.13,1.38,9.25,9.25,0,0,0,.1,1.37,2.91,2.91,0,0,0,.36,1,1.64,1.64,0,0,0,.68.65,2.41,2.41,0,0,0,1.08.22,2.41,2.41,0,0,0,1.09-.23,1.86,1.86,0,0,0,.72-.67,2.86,2.86,0,0,0,.4-1A6.47,6.47,0,0,0,9.7,89,9.5,9.5,0,0,0,9.6,87.64ZM4.33,89.35a1.63,1.63,0,0,0-.42-.58,1.94,1.94,0,0,0-.67-.35,3.26,3.26,0,0,0-.92-.12H2c-.11,0-.23,0-.34,0V87H3.88L4,86.83a1.12,1.12,0,0,0,.06-.43,1.81,1.81,0,0,0,0-.25L4,86,4,85.89l-.09,0h-3a.34.34,0,0,0-.25.08.46.46,0,0,0-.07.29V89a.45.45,0,0,0,.06.27.28.28,0,0,0,.2.07l.44,0a4.17,4.17,0,0,1,.52,0,2.68,2.68,0,0,1,.61.06,1,1,0,0,1,.41.19.73.73,0,0,1,.23.32,1.08,1.08,0,0,1,.08.42,1.13,1.13,0,0,1-.09.47,1,1,0,0,1-.25.33,1.14,1.14,0,0,1-.4.19,2.12,2.12,0,0,1-.52.06,2.37,2.37,0,0,1-.57-.06,2.69,2.69,0,0,1-.4-.13A1.62,1.62,0,0,1,.61,91l-.15-.06L.39,91l0,.08,0,.15a1.77,1.77,0,0,0,0,.24v.22l0,.16,0,.1L.41,92a.67.67,0,0,0,.18.1l.35.11a3,3,0,0,0,.47.09,3.43,3.43,0,0,0,.56,0,3.22,3.22,0,0,0,1-.15,2.38,2.38,0,0,0,.79-.42,1.94,1.94,0,0,0,.51-.69,2.43,2.43,0,0,0,0-1.73Z"/><path d="M16.33,57.42l.05-.13,0-.09-.13-.06-.26,0h-.24l-.17,0-.12.07-.09.09L10.8,63.54l-.06.12,0,.09.13.06a1,1,0,0,0,.26,0h.24l.17,0,.12-.06.09-.1ZM16,62.52a.77.77,0,0,1-.08.3l-.15.18a.43.43,0,0,1-.24.06L15.29,63l-.16-.15a.87.87,0,0,1-.1-.3,3.43,3.43,0,0,1,0-.5,2.81,2.81,0,0,1,0-.45.89.89,0,0,1,.09-.3l.15-.17.22,0,.23,0,.16.17a1,1,0,0,1,.09.31,3,3,0,0,1,0,.46A2.76,2.76,0,0,1,16,62.52Zm.94-1.1a1.5,1.5,0,0,0-.23-.53,1.16,1.16,0,0,0-.45-.36,1.63,1.63,0,0,0-.72-.13,1.76,1.76,0,0,0-.68.12,1.18,1.18,0,0,0-.46.36,1.32,1.32,0,0,0-.26.53,2.38,2.38,0,0,0-.09.68,3.45,3.45,0,0,0,.07.67,1.39,1.39,0,0,0,.24.52,1.14,1.14,0,0,0,.45.35,1.74,1.74,0,0,0,.69.12,1.72,1.72,0,0,0,.68-.12,1.38,1.38,0,0,0,.47-.35,1.32,1.32,0,0,0,.26-.53,2.53,2.53,0,0,0,.09-.7A3.21,3.21,0,0,0,16.91,61.42Zm-4.78-2.08a.82.82,0,0,1-.08.3l-.15.17a.43.43,0,0,1-.24.06l-.21,0-.16-.15a1.41,1.41,0,0,1-.1-.31,3.34,3.34,0,0,1,0-.5,2.9,2.9,0,0,1,0-.45,1.07,1.07,0,0,1,.09-.3l.15-.17.22-.05.23.06.16.17a1,1,0,0,1,.09.31,3,3,0,0,1,0,.46A2.85,2.85,0,0,1,12.13,59.34Zm.94-1.11a1.45,1.45,0,0,0-.23-.52,1,1,0,0,0-.44-.36,1.69,1.69,0,0,0-.73-.14,1.75,1.75,0,0,0-.68.13,1.15,1.15,0,0,0-.46.35,1.38,1.38,0,0,0-.26.53,2.48,2.48,0,0,0-.09.68,3.55,3.55,0,0,0,.07.68,1.46,1.46,0,0,0,.24.52,1,1,0,0,0,.45.34,1.75,1.75,0,0,0,.7.13,1.7,1.7,0,0,0,.67-.13,1.17,1.17,0,0,0,.47-.34,1.52,1.52,0,0,0,.27-.54,2.93,2.93,0,0,0,.08-.7A3.21,3.21,0,0,0,13.07,58.23Zm-4.7,3a4.21,4.21,0,0,1-.06.55,2,2,0,0,1-.12.43A1,1,0,0,1,8,62.5a.67.67,0,0,1-.26.19.9.9,0,0,1-.34.06.74.74,0,0,1-.74-.47,2.74,2.74,0,0,1-.17-.71c0-.3,0-.67,0-1.13a9.29,9.29,0,0,1,0-1,2.5,2.5,0,0,1,.16-.7.85.85,0,0,1,.3-.42.72.72,0,0,1,.48-.14,1,1,0,0,1,.3,0A.64.64,0,0,1,8,58.4a.9.9,0,0,1,.18.29,1.84,1.84,0,0,1,.13.43,4.38,4.38,0,0,1,.08.6c0,.23,0,.5,0,.8S8.39,61,8.37,61.21ZM9.6,59.08a3,3,0,0,0-.35-1,1.74,1.74,0,0,0-.68-.64,2.35,2.35,0,0,0-1.09-.23,2.21,2.21,0,0,0-1.08.24,1.85,1.85,0,0,0-.73.66,3.11,3.11,0,0,0-.4,1.05,7.19,7.19,0,0,0-.13,1.38,9.25,9.25,0,0,0,.1,1.37,2.91,2.91,0,0,0,.36,1,1.64,1.64,0,0,0,.68.65,2.41,2.41,0,0,0,1.08.22,2.41,2.41,0,0,0,1.09-.23,1.86,1.86,0,0,0,.72-.67,2.86,2.86,0,0,0,.4-1,6.47,6.47,0,0,0,.13-1.38A9.5,9.5,0,0,0,9.6,59.08Zm-6.3,3a1.49,1.49,0,0,1-.17.36.73.73,0,0,1-.29.23.8.8,0,0,1-.39.09A.88.88,0,0,1,2,62.7a.73.73,0,0,1-.29-.29,1.75,1.75,0,0,1-.18-.56A7.1,7.1,0,0,1,1.52,61l.22-.13L2,60.73l.26-.07.28,0a.94.94,0,0,1,.39.07.63.63,0,0,1,.26.19.84.84,0,0,1,.14.32,2,2,0,0,1,0,.44A1.63,1.63,0,0,1,3.3,62.11Zm1.22-1.35a1.47,1.47,0,0,0-.32-.59,1.39,1.39,0,0,0-.56-.38,2.29,2.29,0,0,0-.83-.14,2.71,2.71,0,0,0-.41,0l-.35.08a1.43,1.43,0,0,0-.31.12L1.49,60a3.13,3.13,0,0,1,.08-.7,1.76,1.76,0,0,1,.26-.59,1.13,1.13,0,0,1,.44-.4A1.42,1.42,0,0,1,3,58.18a2.46,2.46,0,0,1,.41,0,2.21,2.21,0,0,1,.32.07l.22.07.16,0,.08,0,.05-.09,0-.15a2,2,0,0,0,0-.26v-.28l0-.09,0-.07L4,57.35a1.58,1.58,0,0,0-.28-.08,3.17,3.17,0,0,0-.35-.06l-.38,0a2.88,2.88,0,0,0-1,.16,2.09,2.09,0,0,0-.73.42,2.36,2.36,0,0,0-.5.63,4,4,0,0,0-.29.75,5.37,5.37,0,0,0-.15.8q0,.4,0,.78c0,.3,0,.58,0,.85a4.23,4.23,0,0,0,.13.74,2.77,2.77,0,0,0,.24.61,1.57,1.57,0,0,0,.39.46,1.91,1.91,0,0,0,.57.29,2.59,2.59,0,0,0,.78.1,2.61,2.61,0,0,0,1-.17,1.92,1.92,0,0,0,1.14-1.18,2.56,2.56,0,0,0,.15-.89A2.72,2.72,0,0,0,4.52,60.76Z"/><path d="M16.33,28.86l.05-.13,0-.09-.13-.06-.26,0h-.24l-.17,0-.12.07-.09.09L10.8,35l-.06.12,0,.09.13.06a1,1,0,0,0,.26,0h.24l.17,0,.12-.06.09-.1ZM16,34a.77.77,0,0,1-.08.3l-.15.18a.43.43,0,0,1-.24.06l-.21,0-.16-.15A.87.87,0,0,1,15,34a3.43,3.43,0,0,1,0-.5,2.81,2.81,0,0,1,0-.45.89.89,0,0,1,.09-.3l.15-.17.22,0,.23,0,.16.17a1,1,0,0,1,.09.31,3,3,0,0,1,0,.46A2.76,2.76,0,0,1,16,34Zm.94-1.1a1.5,1.5,0,0,0-.23-.53,1.16,1.16,0,0,0-.45-.36,1.63,1.63,0,0,0-.72-.13,1.76,1.76,0,0,0-.68.12,1.18,1.18,0,0,0-.46.36,1.32,1.32,0,0,0-.26.53,2.38,2.38,0,0,0-.09.68,3.45,3.45,0,0,0,.07.67,1.39,1.39,0,0,0,.24.52,1.14,1.14,0,0,0,.45.35,1.74,1.74,0,0,0,.69.12,1.72,1.72,0,0,0,.68-.12,1.38,1.38,0,0,0,.47-.35,1.32,1.32,0,0,0,.26-.53,2.53,2.53,0,0,0,.09-.7A3.21,3.21,0,0,0,16.91,32.86Zm-4.78-2.08a.82.82,0,0,1-.08.3l-.15.17a.43.43,0,0,1-.24.06l-.21,0-.16-.15a1.41,1.41,0,0,1-.1-.31,3.34,3.34,0,0,1,0-.5,2.81,2.81,0,0,1,0-.45,1.07,1.07,0,0,1,.09-.3l.15-.17.22-.05.23.06.16.17a1,1,0,0,1,.09.31,3,3,0,0,1,0,.46A2.85,2.85,0,0,1,12.13,30.78Zm.94-1.11a1.45,1.45,0,0,0-.23-.52,1.11,1.11,0,0,0-.44-.36,1.69,1.69,0,0,0-.73-.14,1.75,1.75,0,0,0-.68.13,1.15,1.15,0,0,0-.46.35,1.38,1.38,0,0,0-.26.53,2.48,2.48,0,0,0-.09.68,3.55,3.55,0,0,0,.07.68,1.46,1.46,0,0,0,.24.52,1,1,0,0,0,.45.34,1.75,1.75,0,0,0,.7.13,1.7,1.7,0,0,0,.67-.13,1.17,1.17,0,0,0,.47-.34,1.52,1.52,0,0,0,.27-.54,2.93,2.93,0,0,0,.08-.7A3.21,3.21,0,0,0,13.07,29.67Zm-4.7,3a4.21,4.21,0,0,1-.06.55,2,2,0,0,1-.12.43,1,1,0,0,1-.18.31.67.67,0,0,1-.26.19.9.9,0,0,1-.34.06.74.74,0,0,1-.74-.47A2.74,2.74,0,0,1,6.5,33c0-.3,0-.67,0-1.13a9.29,9.29,0,0,1,0-1,2.5,2.5,0,0,1,.16-.7.85.85,0,0,1,.3-.42.72.72,0,0,1,.48-.14,1,1,0,0,1,.3,0,.64.64,0,0,1,.25.15.9.9,0,0,1,.18.29,1.84,1.84,0,0,1,.13.43,4.38,4.38,0,0,1,.08.6c0,.23,0,.5,0,.8S8.39,32.44,8.37,32.65ZM9.6,30.52a3,3,0,0,0-.35-1,1.74,1.74,0,0,0-.68-.64,2.35,2.35,0,0,0-1.09-.23,2.21,2.21,0,0,0-1.08.24,1.85,1.85,0,0,0-.73.66,3.11,3.11,0,0,0-.4,1.05A7.19,7.19,0,0,0,5.14,32a9.25,9.25,0,0,0,.1,1.37,2.91,2.91,0,0,0,.36,1,1.64,1.64,0,0,0,.68.65,2.41,2.41,0,0,0,1.08.22A2.41,2.41,0,0,0,8.45,35a1.86,1.86,0,0,0,.72-.67,2.86,2.86,0,0,0,.4-1A6.47,6.47,0,0,0,9.7,31.9,9.5,9.5,0,0,0,9.6,30.52ZM4.51,29l-.06-.17-.09-.08H.43l-.09,0-.06.1,0,.17a1.69,1.69,0,0,0,0,.25,1.43,1.43,0,0,0,.05.43c0,.09.09.14.16.14H3.11l-2.26,5,0,.14.07.09a.58.58,0,0,0,.23.06l.41,0h.32l.22,0L2.2,35l.07-.11,2.1-4.85.07-.18,0-.17,0-.2a1.85,1.85,0,0,0,0-.25A2.27,2.27,0,0,0,4.51,29Z"/><path d="M16.33.3l.05-.13,0-.09L16.22,0,16,0h-.24l-.17,0-.12.07L15.34.2,10.8,6.42l-.06.12,0,.09.13.06a1,1,0,0,0,.26,0h.24l.17,0,.12-.06.09-.1ZM16,5.4a.77.77,0,0,1-.08.3l-.15.18a.43.43,0,0,1-.24.06l-.21-.05-.16-.15a.87.87,0,0,1-.1-.3,3.43,3.43,0,0,1,0-.5,2.81,2.81,0,0,1,0-.45.89.89,0,0,1,.09-.3L15.27,4l.22,0,.23,0,.16.17A1,1,0,0,1,16,4.5,3,3,0,0,1,16,5,2.76,2.76,0,0,1,16,5.4Zm.94-1.1a1.5,1.5,0,0,0-.23-.53,1.16,1.16,0,0,0-.45-.36,1.63,1.63,0,0,0-.72-.13,1.76,1.76,0,0,0-.68.12,1.18,1.18,0,0,0-.46.36,1.32,1.32,0,0,0-.26.53A2.38,2.38,0,0,0,14,5a3.45,3.45,0,0,0,.07.67,1.39,1.39,0,0,0,.24.52,1.14,1.14,0,0,0,.45.35,1.74,1.74,0,0,0,.69.12,1.72,1.72,0,0,0,.68-.12,1.38,1.38,0,0,0,.47-.35,1.32,1.32,0,0,0,.26-.53,2.53,2.53,0,0,0,.09-.7A3.21,3.21,0,0,0,16.91,4.3ZM12.13,2.22a.82.82,0,0,1-.08.3l-.15.17a.43.43,0,0,1-.24.06l-.21,0-.16-.15a1.41,1.41,0,0,1-.1-.31,3.34,3.34,0,0,1,0-.5,2.81,2.81,0,0,1,0-.45,1.07,1.07,0,0,1,.09-.3l.15-.17.22,0,.23.06L12,1a1,1,0,0,1,.09.31,3,3,0,0,1,0,.46A2.85,2.85,0,0,1,12.13,2.22Zm.94-1.11a1.45,1.45,0,0,0-.23-.52A1.11,1.11,0,0,0,12.4.23a1.69,1.69,0,0,0-.73-.14A1.75,1.75,0,0,0,11,.22a1.15,1.15,0,0,0-.46.35,1.38,1.38,0,0,0-.26.53,2.48,2.48,0,0,0-.09.68,3.55,3.55,0,0,0,.07.68,1.46,1.46,0,0,0,.24.52,1,1,0,0,0,.45.34,1.75,1.75,0,0,0,.7.13,1.7,1.7,0,0,0,.67-.13A1.17,1.17,0,0,0,12.78,3a1.52,1.52,0,0,0,.27-.54,2.93,2.93,0,0,0,.08-.7A3.21,3.21,0,0,0,13.07,1.11Zm-4.7,3a4.21,4.21,0,0,1-.06.55,2,2,0,0,1-.12.43A1,1,0,0,1,8,5.38a.67.67,0,0,1-.26.19.9.9,0,0,1-.34.06.74.74,0,0,1-.74-.47,2.74,2.74,0,0,1-.17-.71c0-.3,0-.67,0-1.13a9.29,9.29,0,0,1,0-1,2.5,2.5,0,0,1,.16-.7A.85.85,0,0,1,7,1.23a.72.72,0,0,1,.48-.14,1,1,0,0,1,.3,0A.64.64,0,0,1,8,1.28a.9.9,0,0,1,.18.29A1.84,1.84,0,0,1,8.29,2a4.38,4.38,0,0,1,.08.6c0,.23,0,.5,0,.8S8.39,3.88,8.37,4.09ZM9.6,2a3,3,0,0,0-.35-1A1.74,1.74,0,0,0,8.57.29,2.35,2.35,0,0,0,7.48.06,2.21,2.21,0,0,0,6.4.3,1.85,1.85,0,0,0,5.67,1a3.11,3.11,0,0,0-.4,1,7.19,7.19,0,0,0-.13,1.38,9.25,9.25,0,0,0,.1,1.37,2.91,2.91,0,0,0,.36,1,1.64,1.64,0,0,0,.68.65,2.41,2.41,0,0,0,1.08.22,2.41,2.41,0,0,0,1.09-.23,1.86,1.86,0,0,0,.72-.67,2.86,2.86,0,0,0,.4-1A6.47,6.47,0,0,0,9.7,3.34,9.5,9.5,0,0,0,9.6,2ZM3.11,5.5a1.07,1.07,0,0,1-.72.2,1.11,1.11,0,0,1-.74-.2.69.69,0,0,1-.25-.58,1.14,1.14,0,0,1,.05-.33,1.17,1.17,0,0,1,.17-.28,1.48,1.48,0,0,1,.29-.26c.11-.08.25-.16.4-.25.17.09.32.17.46.26a1.42,1.42,0,0,1,.32.25,1,1,0,0,1,.2.28.93.93,0,0,1,.06.34A.72.72,0,0,1,3.11,5.5ZM3,2.28a1.86,1.86,0,0,1-.55.46L2,2.5a1.74,1.74,0,0,1-.28-.24L1.6,2a.88.88,0,0,1-.05-.29.69.69,0,0,1,.2-.52A.87.87,0,0,1,2.37,1a1.25,1.25,0,0,1,.36.05A.65.65,0,0,1,3,1.2a.54.54,0,0,1,.16.24,1,1,0,0,1,.05.31A.83.83,0,0,1,3,2.28ZM4.54,4.34a1.61,1.61,0,0,0-.25-.44,2.08,2.08,0,0,0-.4-.38,3.73,3.73,0,0,0-.53-.34,2.55,2.55,0,0,0,.45-.31,1.94,1.94,0,0,0,.34-.37,1.54,1.54,0,0,0,.22-.42,1.41,1.41,0,0,0,.07-.45A1.66,1.66,0,0,0,4.33,1,1.25,1.25,0,0,0,4,.5,1.52,1.52,0,0,0,3.35.18a3,3,0,0,0-.9-.12,3.21,3.21,0,0,0-.93.13A1.9,1.9,0,0,0,.84.54a1.52,1.52,0,0,0-.4.54,1.75,1.75,0,0,0-.13.7,1.57,1.57,0,0,0,.07.49,1.25,1.25,0,0,0,.22.41A1.61,1.61,0,0,0,.94,3a2.93,2.93,0,0,0,.45.3,4.72,4.72,0,0,0-.55.34,1.8,1.8,0,0,0-.39.39A1.48,1.48,0,0,0,.2,4.5,1.7,1.7,0,0,0,.12,5a1.76,1.76,0,0,0,.14.71,1.34,1.34,0,0,0,.41.51,2,2,0,0,0,.69.32,3.82,3.82,0,0,0,1,.11,3.75,3.75,0,0,0,1-.12A1.87,1.87,0,0,0,4,6.18a1.4,1.4,0,0,0,.45-.57,1.89,1.89,0,0,0,.15-.77A1.35,1.35,0,0,0,4.54,4.34Z"/><path d="M107.18,242l.06-.13,0-.09-.14-.06-.26,0h-.24l-.17,0-.11.07-.09.09-4.54,6.22-.06.12,0,.09.14.06a.94.94,0,0,0,.26,0h.24l.17,0,.11-.06.09-.1Zm-.35,5.1a1.41,1.41,0,0,1-.08.3l-.15.18a.48.48,0,0,1-.24.06l-.22-.05-.15-.15a.7.7,0,0,1-.1-.3,2.35,2.35,0,0,1,0-.5,2.81,2.81,0,0,1,0-.45.89.89,0,0,1,.09-.3l.16-.17.22,0,.23,0,.15.17a1,1,0,0,1,.09.31,3,3,0,0,1,0,.46C106.85,246.81,106.84,247,106.83,247.08Zm.93-1.1a1.48,1.48,0,0,0-.22-.53,1.16,1.16,0,0,0-.45-.36,1.69,1.69,0,0,0-.72-.13,1.72,1.72,0,0,0-.68.12,1.18,1.18,0,0,0-.46.36,1.47,1.47,0,0,0-.27.53,3.08,3.08,0,0,0,0,1.35,1.24,1.24,0,0,0,.23.52,1.22,1.22,0,0,0,.45.35,1.79,1.79,0,0,0,.7.12,1.76,1.76,0,0,0,.68-.12,1.25,1.25,0,0,0,.46-.35,1.47,1.47,0,0,0,.27-.53,2.53,2.53,0,0,0,.09-.7A2.59,2.59,0,0,0,107.76,246ZM103,243.9a1.6,1.6,0,0,1-.08.3l-.15.17a.45.45,0,0,1-.24.06l-.22,0-.15-.15a.81.81,0,0,1-.1-.31,3.15,3.15,0,0,1,0-.5,2.9,2.9,0,0,1,0-.45,1.07,1.07,0,0,1,.09-.3l.16-.17.22,0,.23.06.15.17a1,1,0,0,1,.09.31,3,3,0,0,1,0,.46C103,243.63,103,243.77,103,243.9Zm.93-1.11a1.28,1.28,0,0,0-.22-.52,1.08,1.08,0,0,0-.45-.36,1.68,1.68,0,0,0-.72-.14,1.72,1.72,0,0,0-.68.13,1.15,1.15,0,0,0-.46.35,1.56,1.56,0,0,0-.27.53,3,3,0,0,0-.08.68,2.9,2.9,0,0,0,.07.68,1.29,1.29,0,0,0,.23.52,1.17,1.17,0,0,0,.45.34,1.78,1.78,0,0,0,.7.13,1.75,1.75,0,0,0,.68-.13,1.13,1.13,0,0,0,.46-.34,1.52,1.52,0,0,0,.27-.54,2.48,2.48,0,0,0,.09-.7A2.59,2.59,0,0,0,103.92,242.79Zm-7.29,3.79c-.11.13-.2.24-.29.33a1.6,1.6,0,0,1-.26.22l-.25.12-.25,0a.7.7,0,0,1-.42-.12.89.89,0,0,1-.27-.33,2.06,2.06,0,0,1-.14-.46,3.29,3.29,0,0,1,0-.54,2.94,2.94,0,0,1,0-.51,1.83,1.83,0,0,1,.16-.45.88.88,0,0,1,.28-.32.74.74,0,0,1,.42-.12.89.89,0,0,1,.51.17,2.8,2.8,0,0,1,.51.52Zm1.23-5,0-.09-.1-.06-.19,0h-.6l-.19,0-.1.06,0,.09V244a2.3,2.3,0,0,0-.6-.44,1.47,1.47,0,0,0-.67-.15,1.8,1.8,0,0,0-.82.18,1.52,1.52,0,0,0-.6.5,2.19,2.19,0,0,0-.37.8,3.77,3.77,0,0,0-.13,1,4.57,4.57,0,0,0,.1.93,2.32,2.32,0,0,0,.32.77,1.47,1.47,0,0,0,.56.52,1.86,1.86,0,0,0,1.68,0,3.07,3.07,0,0,0,.71-.57v.49l0,.09.09.06.16,0h.5l.16,0,.08-.06,0-.09Zm-5,2.2,0-.16,0-.08,0-.05-.08,0-.14,0-.15,0h-.14a1.33,1.33,0,0,0-.28,0,.87.87,0,0,0-.27.14,1.29,1.29,0,0,0-.29.25,3.71,3.71,0,0,0-.33.4v-.54l0-.09-.08-.06-.16,0h-.52l-.16,0-.09.06,0,.09v4.39l0,.08.1.07.19,0,.3,0,.3,0,.19,0,.1-.07,0-.08v-2.74c.1-.14.18-.26.26-.36a1.79,1.79,0,0,1,.23-.24l.22-.13.2,0,.17,0,.13,0,.11,0,.09,0,.08,0,.05-.09,0-.17a2.44,2.44,0,0,0,0-.29Zm-5.09,3.14a2,2,0,0,1-.45.39.86.86,0,0,1-.48.13.71.71,0,0,1-.48-.15.56.56,0,0,1-.18-.44.68.68,0,0,1,.06-.29l.2-.21a1,1,0,0,1,.34-.13,2.54,2.54,0,0,1,.52-.05h.47ZM89,245.12a2.59,2.59,0,0,0-.1-.78,1.27,1.27,0,0,0-.35-.54,1.55,1.55,0,0,0-.6-.31,3.31,3.31,0,0,0-.89-.1,3.43,3.43,0,0,0-.56,0,5.16,5.16,0,0,0-.5.13,2,2,0,0,0-.41.16,1.12,1.12,0,0,0-.24.15l-.09.16a.78.78,0,0,0,0,.24l0,.21,0,.16.07.1.1,0,.2-.07.31-.15a2.41,2.41,0,0,1,.43-.15,2,2,0,0,1,.56-.07,1.12,1.12,0,0,1,.39,0,.56.56,0,0,1,.26.15.65.65,0,0,1,.14.26,1.79,1.79,0,0,1,0,.36v.27h-.43a6.25,6.25,0,0,0-1,.08,2.16,2.16,0,0,0-.74.28,1.19,1.19,0,0,0-.45.47,1.37,1.37,0,0,0-.15.66,1.49,1.49,0,0,0,.12.62,1.25,1.25,0,0,0,.33.45,1.47,1.47,0,0,0,.51.27,2.2,2.2,0,0,0,.64.09,1.77,1.77,0,0,0,.77-.16,2,2,0,0,0,.62-.46v.35l0,.11.14.06.33,0,.31,0,.15-.06,0-.11Zm-4.48-1.55-.1-.06-.18,0h-.6l-.18,0-.1.06,0,.1-.84,3.23v0l-.88-3.25,0-.08-.09-.06-.18,0h-.6l-.18,0-.09.06-.05.1-.81,3.23v0l-.88-3.23,0-.1-.09-.06-.2,0h-.62l-.19,0-.1.06,0,.09,0,.13a.87.87,0,0,0,0,.23l1.16,4,.06.13.13.08a.75.75,0,0,0,.24,0l.39,0h.4l.24,0,.12-.08.06-.14.68-2.67v0l.74,2.67.06.13.12.08a.75.75,0,0,0,.24,0l.39,0h.39l.24,0,.12-.08.06-.14,1.17-4c0-.1,0-.18.06-.23v-.13Zm-7.48.23,0-.16,0-.08,0-.05-.09,0-.13,0-.16,0h-.13a1.27,1.27,0,0,0-.28,0,.87.87,0,0,0-.27.14,1.58,1.58,0,0,0-.3.25,3.72,3.72,0,0,0-.32.4v-.54l0-.09-.09-.06-.16,0h-.51l-.17,0-.08.06,0,.09v4.39l0,.08.1.07.19,0,.3,0,.3,0,.19,0,.1-.07,0-.08v-2.74a4.28,4.28,0,0,1,.26-.36,1.79,1.79,0,0,1,.23-.24l.22-.13.2,0,.16,0,.14,0,.11,0,.09,0,.08,0,0-.09,0-.17a2.44,2.44,0,0,0,0-.29Zm-5.23,2.69a1.55,1.55,0,0,1-.2.47,1,1,0,0,1-.34.29,1.07,1.07,0,0,1-.49.1,1.13,1.13,0,0,1-.51-.11.82.82,0,0,1-.33-.31,1.7,1.7,0,0,1-.17-.48,2.77,2.77,0,0,1-.06-.6,2.86,2.86,0,0,1,.07-.62,1.55,1.55,0,0,1,.2-.47.87.87,0,0,1,.34-.29,1.06,1.06,0,0,1,.48-.1,1.14,1.14,0,0,1,.52.11.89.89,0,0,1,.32.32,1.32,1.32,0,0,1,.18.47,3.64,3.64,0,0,1,.05.6A2.9,2.9,0,0,1,71.84,246.49Zm1.2-1.71a1.87,1.87,0,0,0-.42-.76,1.71,1.71,0,0,0-.72-.47,2.88,2.88,0,0,0-1-.16,2.83,2.83,0,0,0-1.06.18,2,2,0,0,0-.75.51,2.25,2.25,0,0,0-.45.8,3.33,3.33,0,0,0-.15,1,3.56,3.56,0,0,0,.14,1,1.87,1.87,0,0,0,.42.76,1.82,1.82,0,0,0,.72.48,2.88,2.88,0,0,0,1,.16,2.91,2.91,0,0,0,1.06-.18,2,2,0,0,0,.75-.52,2.16,2.16,0,0,0,.45-.8,3.31,3.31,0,0,0,.15-1A3.64,3.64,0,0,0,73,244.78Zm-4.78-3,0-.16-.06-.09-.13-.07a1.31,1.31,0,0,0-.27-.07,2.22,2.22,0,0,0-.37,0,1.82,1.82,0,0,0-.69.11,1.05,1.05,0,0,0-.48.34,1.34,1.34,0,0,0-.28.56,3,3,0,0,0-.09.78v.37h-.55l-.08,0-.06.08,0,.15c0,.07,0,.15,0,.24a1.18,1.18,0,0,0,0,.39l.14.12h.55v3.55l0,.08.1.07.19,0,.3,0,.3,0,.19,0,.1-.07,0-.08v-3.55h.8l.14-.12a1.18,1.18,0,0,0,0-.39,1.77,1.77,0,0,0,0-.24l0-.15-.06-.08-.08,0h-.8v-.4a1.86,1.86,0,0,1,0-.36.75.75,0,0,1,.09-.24l.16-.13.23,0,.19,0,.15,0,.1,0,.08,0,.05,0,0-.06,0-.14c0-.05,0-.13,0-.22S68.26,241.82,68.26,241.76Zm-3.41,5.64,0-.14,0-.07-.06,0-.07,0-.11,0-.14,0-.18,0a.44.44,0,0,1-.4-.18,1.09,1.09,0,0,1-.11-.54v-2.06h1l.14-.12a1.18,1.18,0,0,0,0-.39,1.77,1.77,0,0,0,0-.24l0-.15-.06-.08-.09,0h-.95v-1l0-.09-.1-.06-.19,0-.3,0-.3,0-.19,0-.1.06,0,.09v1H62l-.09,0-.06.08,0,.15a1.66,1.66,0,0,0,0,.24,1.18,1.18,0,0,0,0,.39l.15.12h.52v2.24a2.38,2.38,0,0,0,.09.7,1.1,1.1,0,0,0,.26.49,1,1,0,0,0,.44.29,2.11,2.11,0,0,0,.64.09h.28l.25,0,.2-.07.13-.08.07-.16a1.42,1.42,0,0,0,0-.33A1.48,1.48,0,0,0,64.85,247.4Zm-3.91-2a3.29,3.29,0,0,0-.09-.83,1.5,1.5,0,0,0-.27-.6,1.17,1.17,0,0,0-.5-.4,1.67,1.67,0,0,0-.75-.15,1.65,1.65,0,0,0-.69.15A2.48,2.48,0,0,0,58,244v-2.42l0-.09-.11-.07-.18,0-.31,0-.3,0-.18,0-.11.07,0,.09v6.47l0,.08.11.07.18,0,.3,0,.31,0,.18,0,.11-.07,0-.08v-2.92a2.35,2.35,0,0,1,.5-.5.78.78,0,0,1,.47-.17.67.67,0,0,1,.33.07.5.5,0,0,1,.23.2,1.26,1.26,0,0,1,.14.31,2.23,2.23,0,0,1,0,.5v2.51l0,.08.1.07.19,0,.3,0,.3,0,.19,0,.1-.07,0-.08Zm-6.14,3.39-.17.21a1,1,0,0,1-.31.15,1.63,1.63,0,0,1-.47.06,1.66,1.66,0,0,1-.71-.13.41.41,0,0,1-.24-.38v-.15l.06-.15.12-.17.21-.18.88,0a1,1,0,0,1,.49.13.37.37,0,0,1,.17.34Zm-.29-3.46a.68.68,0,0,1-.14.23.66.66,0,0,1-.23.17.79.79,0,0,1-.32.06.74.74,0,0,1-.55-.2.71.71,0,0,1-.2-.53.93.93,0,0,1,0-.29.75.75,0,0,1,.13-.25.63.63,0,0,1,.23-.16.66.66,0,0,1,.32-.07.77.77,0,0,1,.56.2.75.75,0,0,1,.19.55A1,1,0,0,1,54.51,245.3Zm1.58-1.69L56,243.5h-1.4l-.35-.07-.39,0a2.17,2.17,0,0,0-.74.11,1.55,1.55,0,0,0-.58.32,1.46,1.46,0,0,0-.37.51A1.52,1.52,0,0,0,52,245a1.51,1.51,0,0,0,.1.6,1.2,1.2,0,0,0,.28.41,1.79,1.79,0,0,0-.35.43,1.19,1.19,0,0,0-.13.53.82.82,0,0,0,.12.43.72.72,0,0,0,.32.3l-.27.24a1.64,1.64,0,0,0-.2.26,1.39,1.39,0,0,0-.12.28,1.06,1.06,0,0,0,0,.31,1,1,0,0,0,.12.48,1,1,0,0,0,.36.38,2.33,2.33,0,0,0,.65.24,4.48,4.48,0,0,0,1,.09,3.78,3.78,0,0,0,1-.12,2,2,0,0,0,.71-.34,1.31,1.31,0,0,0,.57-1.11,1.24,1.24,0,0,0-.1-.52,1,1,0,0,0-.31-.4,1.34,1.34,0,0,0-.49-.26,2.63,2.63,0,0,0-.67-.1l-1.06,0a.73.73,0,0,1-.36-.1.29.29,0,0,1-.12-.24l.05-.19.1-.16a1.07,1.07,0,0,0,.3.13,1.75,1.75,0,0,0,.4.05,2.47,2.47,0,0,0,.75-.11,1.54,1.54,0,0,0,.58-.31,1.28,1.28,0,0,0,.36-.5,1.65,1.65,0,0,0,.13-.68,1.12,1.12,0,0,0,0-.32.87.87,0,0,0-.16-.26H56l.13-.12a.78.78,0,0,0,0-.35A.8.8,0,0,0,56.09,243.61ZM51,241.68a.84.84,0,0,0-.56-.14.81.81,0,0,0-.57.15.7.7,0,0,0-.15.52.64.64,0,0,0,.15.49.77.77,0,0,0,.56.14.87.87,0,0,0,.57-.14.72.72,0,0,0,.15-.52A.68.68,0,0,0,51,241.68Zm.06,2,0-.09-.1-.06-.19,0-.3,0-.3,0-.19,0-.1.06,0,.09v4.38l0,.08.1.07.19,0,.3,0,.3,0,.19,0,.1-.07,0-.08Zm-3.76,3.26a2,2,0,0,1-.45.39.86.86,0,0,1-.48.13.71.71,0,0,1-.48-.15.56.56,0,0,1-.18-.44.57.57,0,0,1,.07-.29l.19-.21a1,1,0,0,1,.34-.13,2.62,2.62,0,0,1,.52-.05h.47Zm1.21-1.82a2.59,2.59,0,0,0-.1-.78,1.27,1.27,0,0,0-.35-.54,1.55,1.55,0,0,0-.6-.31,3.31,3.31,0,0,0-.89-.1,3.43,3.43,0,0,0-.56,0,5.16,5.16,0,0,0-.5.13,2,2,0,0,0-.41.16,1.12,1.12,0,0,0-.24.15l-.09.16a.78.78,0,0,0,0,.24l0,.21,0,.16.07.1.1,0,.2-.07.31-.15a2.41,2.41,0,0,1,.43-.15,2,2,0,0,1,.56-.07,1.12,1.12,0,0,1,.39,0,.56.56,0,0,1,.26.15.65.65,0,0,1,.14.26,1.79,1.79,0,0,1,0,.36v.27h-.43a6.25,6.25,0,0,0-1,.08,2.16,2.16,0,0,0-.74.28,1.19,1.19,0,0,0-.45.47,1.37,1.37,0,0,0-.15.66,1.49,1.49,0,0,0,.12.62,1.25,1.25,0,0,0,.33.45,1.47,1.47,0,0,0,.51.27,2.2,2.2,0,0,0,.64.09,1.77,1.77,0,0,0,.77-.16,2,2,0,0,0,.62-.46v.35l0,.11.14.06.33,0,.31,0,.15-.06,0-.11ZM44,243.8l0-.16,0-.08,0-.05-.08,0-.14,0-.15,0h-.14a1.33,1.33,0,0,0-.28,0,.87.87,0,0,0-.27.14,1.29,1.29,0,0,0-.29.25,3.71,3.71,0,0,0-.33.4v-.54l0-.09-.08-.06-.16,0h-.52l-.16,0-.09.06,0,.09v4.39l0,.08.1.07.19,0,.3,0,.3,0,.19,0,.1-.07,0-.08v-2.74c.1-.14.18-.26.26-.36a1.79,1.79,0,0,1,.23-.24l.22-.13.2,0,.17,0,.13,0,.11,0,.09,0,.08,0,.05-.09,0-.17a2.44,2.44,0,0,0,0-.29Zm-3.59,3.6,0-.14,0-.07,0,0-.08,0-.1,0-.14,0-.18,0a.45.45,0,0,1-.41-.18,1.09,1.09,0,0,1-.11-.54v-2.06h1l.14-.12a1,1,0,0,0,.05-.39,1.77,1.77,0,0,0,0-.24l0-.15-.06-.08-.08,0h-1v-1l0-.09-.1-.06-.19,0-.3,0-.3,0-.19,0-.1.06,0,.09v1h-.53l-.08,0-.06.08,0,.15a1.77,1.77,0,0,0,0,.24,1,1,0,0,0,0,.39l.14.12H38v2.24a2.41,2.41,0,0,0,.08.7,1.21,1.21,0,0,0,.26.49,1.06,1.06,0,0,0,.45.29,2,2,0,0,0,.64.09h.27l.25,0,.2-.07.13-.08.08-.16a2.63,2.63,0,0,0,0-.33A1.48,1.48,0,0,0,40.37,247.4Zm-3.66-1.75a1.46,1.46,0,0,0-.31-.49,1.87,1.87,0,0,0-.43-.36,5,5,0,0,0-.51-.27l-.5-.22a3.61,3.61,0,0,1-.44-.23,1.05,1.05,0,0,1-.31-.28.61.61,0,0,1-.11-.36.59.59,0,0,1,0-.27l.16-.22a.81.81,0,0,1,.26-.15,1.32,1.32,0,0,1,.37-.05,2,2,0,0,1,.5.07,1.76,1.76,0,0,1,.39.15,1.54,1.54,0,0,1,.29.15l.18.07.08,0,0-.1,0-.16v-.45l0-.15,0-.09-.06-.08a1,1,0,0,0-.21-.13,3.32,3.32,0,0,0-.35-.13,2.59,2.59,0,0,0-.42-.09,3.42,3.42,0,0,0-.45,0,2.82,2.82,0,0,0-.83.12,1.89,1.89,0,0,0-.68.34,1.67,1.67,0,0,0-.46.58,1.81,1.81,0,0,0-.17.8,1.72,1.72,0,0,0,.12.68,1.69,1.69,0,0,0,.31.5,1.87,1.87,0,0,0,.43.36,4.82,4.82,0,0,0,.5.27l.49.22a2.86,2.86,0,0,1,.43.23,1.18,1.18,0,0,1,.31.27.61.61,0,0,1,.12.37.74.74,0,0,1-.07.34.65.65,0,0,1-.2.26,1,1,0,0,1-.32.16,1.33,1.33,0,0,1-.42.06,2,2,0,0,1-.63-.09,3.14,3.14,0,0,1-.47-.17l-.32-.18-.2-.09-.09,0-.05.09,0,.17c0,.07,0,.15,0,.26a1.46,1.46,0,0,0,0,.34l.09.19A.83.83,0,0,0,33,248a2,2,0,0,0,.36.16,3,3,0,0,0,.5.14,4,4,0,0,0,.62.05,3,3,0,0,0,.91-.13,2,2,0,0,0,.75-.38,2,2,0,0,0,.51-.63,2.07,2.07,0,0,0,.18-.88A1.71,1.71,0,0,0,36.71,245.65Z"/><path d="M80.84,258.82l-.29.33a1.6,1.6,0,0,1-.26.22l-.25.12-.25,0a.7.7,0,0,1-.42-.12.89.89,0,0,1-.27-.33,1.65,1.65,0,0,1-.14-.46,3.29,3.29,0,0,1,0-.54,2.94,2.94,0,0,1,0-.51,1.83,1.83,0,0,1,.16-.45.88.88,0,0,1,.28-.32.74.74,0,0,1,.42-.12.94.94,0,0,1,.51.17,2.8,2.8,0,0,1,.51.52Zm1.23-5,0-.09-.1-.06-.19-.05h-.6l-.19.05-.1.06,0,.09v2.38a2.3,2.3,0,0,0-.6-.44,1.47,1.47,0,0,0-.67-.15,1.84,1.84,0,0,0-.83.18,1.68,1.68,0,0,0-.6.5,2.35,2.35,0,0,0-.36.8,3.77,3.77,0,0,0-.13,1.05,4,4,0,0,0,.1.93,2.32,2.32,0,0,0,.32.77,1.47,1.47,0,0,0,.56.52,1.75,1.75,0,0,0,.85.2,1.78,1.78,0,0,0,.83-.2,3.07,3.07,0,0,0,.71-.57v.49l0,.09.08.06.16,0h.51l.16,0,.08-.06,0-.09Zm-8.2,3.78a1.93,1.93,0,0,1,.07-.43,1,1,0,0,1,.18-.36.76.76,0,0,1,.29-.24.86.86,0,0,1,.41-.09.81.81,0,0,1,.69.3,1.27,1.27,0,0,1,.21.82Zm3,.16a2.93,2.93,0,0,0-.12-.86,1.8,1.8,0,0,0-.37-.68,1.68,1.68,0,0,0-.64-.45,2.4,2.4,0,0,0-.94-.16,2.54,2.54,0,0,0-.94.17,2,2,0,0,0-.71.5,2.21,2.21,0,0,0-.44.8,3.41,3.41,0,0,0-.15,1,3.88,3.88,0,0,0,.14,1.08,2,2,0,0,0,.44.75,1.92,1.92,0,0,0,.74.45,3.2,3.2,0,0,0,1,.15,4,4,0,0,0,.61,0,4.4,4.4,0,0,0,.5-.1l.37-.12.17-.09,0-.07,0-.09,0-.13v-.39l0-.13-.05-.06-.07,0-.2.05a1.9,1.9,0,0,1-.29.1,3,3,0,0,1-.43.11,3.18,3.18,0,0,1-.57,0,1.52,1.52,0,0,1-.55-.08,1,1,0,0,1-.37-.24.92.92,0,0,1-.21-.39,1.61,1.61,0,0,1-.07-.51h2.67a.38.38,0,0,0,.28-.11.45.45,0,0,0,.1-.33Zm-5.14.76a1.23,1.23,0,0,0-.24-.38,1.77,1.77,0,0,0-.35-.26,2.33,2.33,0,0,0-.39-.19l-.4-.15-.35-.15a.76.76,0,0,1-.24-.18.4.4,0,0,1-.1-.26l0-.18.12-.15.2-.1a1.27,1.27,0,0,1,.29,0,1.44,1.44,0,0,1,.43.06,2,2,0,0,1,.32.11,1.67,1.67,0,0,1,.23.11l.14.05.07,0,0-.06,0-.14v-.4l0-.13,0-.09-.07-.07-.16-.09a1.28,1.28,0,0,0-.26-.1l-.35-.07a2.69,2.69,0,0,0-.4,0,2.48,2.48,0,0,0-.75.1A1.74,1.74,0,0,0,69,256a1.28,1.28,0,0,0-.36.45,1.53,1.53,0,0,0,0,1.11,1.12,1.12,0,0,0,.24.38,1.5,1.5,0,0,0,.34.27l.39.19.39.15.34.15a.76.76,0,0,1,.24.18.39.39,0,0,1,.09.26l0,.22-.14.17-.23.09a1,1,0,0,1-.3,0,1.37,1.37,0,0,1-.47-.07,2.25,2.25,0,0,1-.37-.13l-.26-.14-.16-.06-.08,0,0,.07,0,.13c0,.06,0,.14,0,.23a1.31,1.31,0,0,0,0,.33l.09.16.17.11.29.12a2.26,2.26,0,0,0,.41.09,2.35,2.35,0,0,0,.47,0,2.57,2.57,0,0,0,.75-.1,1.81,1.81,0,0,0,.61-.28,1.43,1.43,0,0,0,.4-.48,1.53,1.53,0,0,0,.14-.66A1.38,1.38,0,0,0,71.78,258.54Zm-5.51.64a2.16,2.16,0,0,1-.44.39.91.91,0,0,1-.48.13.74.74,0,0,1-.49-.15.55.55,0,0,1-.17-.44.68.68,0,0,1,.06-.29l.19-.21a1,1,0,0,1,.35-.13,2.44,2.44,0,0,1,.51-.05h.47Zm1.22-1.82a2.57,2.57,0,0,0-.11-.78A1.18,1.18,0,0,0,67,256a1.42,1.42,0,0,0-.6-.31,3.23,3.23,0,0,0-.88-.1,3.56,3.56,0,0,0-.57,0,5.16,5.16,0,0,0-.5.13,1.85,1.85,0,0,0-.4.16.76.76,0,0,0-.24.15l-.1.16a1.44,1.44,0,0,0,0,.24v.21l0,.16.07.1.1,0,.2-.07.32-.15a2,2,0,0,1,.43-.15,1.84,1.84,0,0,1,.55-.07,1.18,1.18,0,0,1,.4.05.53.53,0,0,1,.25.15.55.55,0,0,1,.14.26,1.28,1.28,0,0,1,0,.36v.27h-.43a6.25,6.25,0,0,0-1,.08,2.16,2.16,0,0,0-.74.28,1.24,1.24,0,0,0-.44.47,1.37,1.37,0,0,0-.15.66,1.67,1.67,0,0,0,.11.62,1.17,1.17,0,0,0,.34.45,1.42,1.42,0,0,0,.5.27,2.22,2.22,0,0,0,.65.09,1.8,1.8,0,0,0,.77-.16,1.93,1.93,0,0,0,.61-.46v.35l.05.11.14.06.32,0,.31,0,.16-.06,0-.11Zm-5.94,1.28a1.29,1.29,0,0,1-.16.44.87.87,0,0,1-.28.32.6.6,0,0,1-.4.13.81.81,0,0,1-.5-.18,2.43,2.43,0,0,1-.5-.51v-1.45a2,2,0,0,1,.28-.33l.26-.22.24-.12.24,0a.7.7,0,0,1,.42.12.75.75,0,0,1,.26.32,1.55,1.55,0,0,1,.15.46,3.27,3.27,0,0,1,0,.54A2.21,2.21,0,0,1,61.55,258.64Zm1.24-1.52a2.44,2.44,0,0,0-.31-.77,1.67,1.67,0,0,0-.56-.53,1.61,1.61,0,0,0-.82-.19,2.25,2.25,0,0,0-.38,0,1.93,1.93,0,0,0-.34.11,1.68,1.68,0,0,0-.34.2,2.73,2.73,0,0,0-.33.28v-2.42l0-.09-.1-.07-.19,0-.3,0-.3,0-.19,0-.1.07,0,.09v6.47l0,.09.09.06.16,0h.5l.17,0,.09-.06,0-.09v-.48a3.84,3.84,0,0,0,.35.35,2.33,2.33,0,0,0,.35.23,1.58,1.58,0,0,0,.36.14,1.87,1.87,0,0,0,.42,0,1.74,1.74,0,0,0,.8-.18,1.66,1.66,0,0,0,.59-.5,2.57,2.57,0,0,0,.37-.8,4.21,4.21,0,0,0,.13-1.06A4.55,4.55,0,0,0,62.79,257.12Z"/><path d="M190.74,246.3a1.23,1.23,0,0,0-.24-.38,1.77,1.77,0,0,0-.35-.26,2.09,2.09,0,0,0-.4-.19l-.39-.15-.35-.15a.76.76,0,0,1-.24-.18.4.4,0,0,1-.1-.26l0-.18.12-.15.2-.1a1.27,1.27,0,0,1,.29,0,1.33,1.33,0,0,1,.42.06,1.82,1.82,0,0,1,.33.11,1.67,1.67,0,0,1,.23.11l.14.05.07,0,.05-.06,0-.14V244l0-.13,0-.09-.06-.07-.16-.09a1.28,1.28,0,0,0-.26-.1l-.35-.07a2.73,2.73,0,0,0-.41,0,2.45,2.45,0,0,0-.74.1,1.74,1.74,0,0,0-.56.29,1.28,1.28,0,0,0-.36.45,1.53,1.53,0,0,0,0,1.11,1.12,1.12,0,0,0,.24.38,1.5,1.5,0,0,0,.34.27l.39.19.39.15.34.15a.76.76,0,0,1,.24.18.39.39,0,0,1,.09.26l0,.22-.15.17-.22.09a1,1,0,0,1-.3,0,1.33,1.33,0,0,1-.47-.07,2.25,2.25,0,0,1-.37-.13l-.26-.14-.16-.06-.08,0,0,.07,0,.13c0,.06,0,.14,0,.23a1.31,1.31,0,0,0,0,.33l.09.16.17.11.29.12a2.35,2.35,0,0,0,.4.09,2.45,2.45,0,0,0,.48,0,2.57,2.57,0,0,0,.75-.1,1.81,1.81,0,0,0,.61-.28,1.29,1.29,0,0,0,.39-.48,1.59,1.59,0,0,0,.05-1.18Zm-7-.92a1.49,1.49,0,0,1,.07-.43,1,1,0,0,1,.18-.36.76.76,0,0,1,.29-.24.86.86,0,0,1,.41-.09.81.81,0,0,1,.69.3,1.27,1.27,0,0,1,.21.82Zm3,.16a2.93,2.93,0,0,0-.12-.86,1.8,1.8,0,0,0-.37-.68,1.76,1.76,0,0,0-.64-.45,2.43,2.43,0,0,0-.94-.16,2.54,2.54,0,0,0-.94.17,2,2,0,0,0-.71.5,2.21,2.21,0,0,0-.44.8,3.41,3.41,0,0,0-.15,1,3.88,3.88,0,0,0,.14,1.08,2,2,0,0,0,.44.75,1.92,1.92,0,0,0,.74.45,3.2,3.2,0,0,0,1,.15,4,4,0,0,0,.61,0,4.4,4.4,0,0,0,.5-.1l.37-.12.17-.09.05-.07,0-.09,0-.13v-.39l0-.13-.05-.06-.07,0-.2.05a2.39,2.39,0,0,1-.29.1,3.34,3.34,0,0,1-.43.11,3.18,3.18,0,0,1-.57,0,1.52,1.52,0,0,1-.55-.08,1,1,0,0,1-.37-.24,1.07,1.07,0,0,1-.22-.39,2,2,0,0,1-.06-.51h2.67a.38.38,0,0,0,.28-.11.45.45,0,0,0,.1-.33Zm-8.09-.16a1.49,1.49,0,0,1,.07-.43,1,1,0,0,1,.18-.36.76.76,0,0,1,.29-.24.86.86,0,0,1,.41-.09.81.81,0,0,1,.69.3,1.27,1.27,0,0,1,.21.82Zm3.05.16a2.93,2.93,0,0,0-.12-.86,1.8,1.8,0,0,0-.37-.68,1.76,1.76,0,0,0-.64-.45,2.43,2.43,0,0,0-.94-.16,2.54,2.54,0,0,0-.94.17,2,2,0,0,0-.71.5,2.21,2.21,0,0,0-.44.8,3.41,3.41,0,0,0-.15,1,3.88,3.88,0,0,0,.14,1.08,2,2,0,0,0,.44.75,1.92,1.92,0,0,0,.74.45,3.2,3.2,0,0,0,1,.15,4,4,0,0,0,.61,0,4.4,4.4,0,0,0,.5-.1l.37-.12.17-.09.05-.07,0-.09,0-.13v-.39l0-.13,0-.06-.07,0-.2.05a2.39,2.39,0,0,1-.29.1,3.34,3.34,0,0,1-.43.11,3.18,3.18,0,0,1-.57,0,1.52,1.52,0,0,1-.55-.08,1,1,0,0,1-.37-.24,1.07,1.07,0,0,1-.22-.39,2,2,0,0,1-.06-.51h2.67a.38.38,0,0,0,.28-.11.45.45,0,0,0,.1-.33ZM177,241.76l0-.16,0-.09-.14-.07a1,1,0,0,0-.27-.07,2,2,0,0,0-.36,0,1.78,1.78,0,0,0-.69.11,1.05,1.05,0,0,0-.48.34,1.34,1.34,0,0,0-.28.56,3,3,0,0,0-.09.78v.37H174l-.08,0-.06.08,0,.15a1.77,1.77,0,0,0,0,.24,1.18,1.18,0,0,0,.05.39l.14.12h.55v3.55l0,.08.09.07.2,0,.29,0,.3,0,.2,0,.09-.07,0-.08v-3.55h.81l.14-.12a1.18,1.18,0,0,0,.05-.39c0-.09,0-.17,0-.24l0-.15-.06-.08-.08,0h-.81v-.4a1.86,1.86,0,0,1,0-.36.58.58,0,0,1,.1-.24l.16-.13.23,0,.19,0,.15,0,.1,0,.08,0,.05,0,0-.06,0-.14c0-.05,0-.13,0-.22S177,241.82,177,241.76Zm-7.15,4.82a3.4,3.4,0,0,1-.29.33,1.27,1.27,0,0,1-.26.22l-.24.12-.25,0a.75.75,0,0,1-.43-.12.78.78,0,0,1-.26-.33,1.66,1.66,0,0,1-.15-.46,3.27,3.27,0,0,1,0-.54,2.21,2.21,0,0,1,.05-.51,1.5,1.5,0,0,1,.16-.45.8.8,0,0,1,.28-.32.69.69,0,0,1,.41-.12.89.89,0,0,1,.51.17,2.8,2.8,0,0,1,.51.52Zm1.23-5,0-.09-.1-.06-.18,0h-.6l-.19,0-.1.06,0,.09V244a2.26,2.26,0,0,0-.59-.44,1.5,1.5,0,0,0-.67-.15,1.81,1.81,0,0,0-.83.18,1.52,1.52,0,0,0-.6.5,2.57,2.57,0,0,0-.37.8,4.21,4.21,0,0,0-.12,1,4,4,0,0,0,.1.93,2.31,2.31,0,0,0,.31.77,1.58,1.58,0,0,0,.57.52,1.7,1.7,0,0,0,.85.2,1.74,1.74,0,0,0,.82-.2,2.87,2.87,0,0,0,.71-.57v.49l0,.09.09.06.16,0h.5l.16,0,.09-.06,0-.09Zm-8.2,3.78a1.93,1.93,0,0,1,.07-.43,1,1,0,0,1,.18-.36.85.85,0,0,1,.29-.24.88.88,0,0,1,.41-.09.81.81,0,0,1,.69.3,1.27,1.27,0,0,1,.21.82Zm3,.16a3.32,3.32,0,0,0-.11-.86,1.94,1.94,0,0,0-.37-.68,1.72,1.72,0,0,0-.65-.45,2.4,2.4,0,0,0-.94-.16,2.54,2.54,0,0,0-.94.17,2,2,0,0,0-.7.5,2.22,2.22,0,0,0-.45.8,3.41,3.41,0,0,0-.15,1,3.52,3.52,0,0,0,.15,1.08,1.76,1.76,0,0,0,.44.75,1.81,1.81,0,0,0,.73.45,3.24,3.24,0,0,0,1,.15,3.91,3.91,0,0,0,.61,0,5.13,5.13,0,0,0,.51-.1l.36-.12.18-.09,0-.07,0-.09v-.52l0-.13,0-.06-.07,0-.19.05-.3.1a3,3,0,0,1-.43.11,3.18,3.18,0,0,1-.57,0,1.55,1.55,0,0,1-.55-.08,1.08,1.08,0,0,1-.37-.24.92.92,0,0,1-.21-.39,1.61,1.61,0,0,1-.07-.51h2.67a.36.36,0,0,0,.28-.11.45.45,0,0,0,.1-.33Zm-5.14.76a1.23,1.23,0,0,0-.24-.38,1.52,1.52,0,0,0-.35-.26,2.33,2.33,0,0,0-.39-.19l-.4-.15-.34-.15a.7.7,0,0,1-.25-.18.39.39,0,0,1-.09-.26l0-.18.11-.15.21-.1a1.12,1.12,0,0,1,.29,0,1.42,1.42,0,0,1,.42.06,2,2,0,0,1,.32.11l.24.11.13.05.07,0,.05-.06,0-.14v-.53l0-.09-.07-.07-.16-.09a1.28,1.28,0,0,0-.26-.1l-.35-.07a2.69,2.69,0,0,0-.4,0,2.48,2.48,0,0,0-.75.1,1.74,1.74,0,0,0-.56.29,1.28,1.28,0,0,0-.36.45,1.53,1.53,0,0,0,0,1.11,1.12,1.12,0,0,0,.24.38,1.5,1.5,0,0,0,.34.27l.39.19.39.15.34.15a.76.76,0,0,1,.24.18.39.39,0,0,1,.09.26l0,.22-.14.17-.23.09a1,1,0,0,1-.3,0,1.37,1.37,0,0,1-.47-.07,2.64,2.64,0,0,1-.37-.13l-.26-.14-.16-.06-.08,0,0,.07,0,.13c0,.06,0,.14,0,.23a1.31,1.31,0,0,0,0,.33l.09.16.17.11.3.12a2,2,0,0,0,.4.09,2.35,2.35,0,0,0,.47,0,2.57,2.57,0,0,0,.75-.1,1.81,1.81,0,0,0,.61-.28,1.43,1.43,0,0,0,.4-.48,1.53,1.53,0,0,0,.14-.66A1.21,1.21,0,0,0,160.74,246.3Zm-5.27.64a2.16,2.16,0,0,1-.44.39.91.91,0,0,1-.48.13.74.74,0,0,1-.49-.15.59.59,0,0,1-.17-.44.68.68,0,0,1,.06-.29l.19-.21a1,1,0,0,1,.35-.13,2.44,2.44,0,0,1,.51-.05h.47Zm1.22-1.82a2.57,2.57,0,0,0-.11-.78,1.25,1.25,0,0,0-.34-.54,1.53,1.53,0,0,0-.61-.31,3.23,3.23,0,0,0-.88-.1,3.43,3.43,0,0,0-.56,0l-.51.13a1.85,1.85,0,0,0-.4.16.76.76,0,0,0-.24.15l-.1.16a1.44,1.44,0,0,0,0,.24v.21l0,.16.07.1.1,0,.2-.07.32-.15a2,2,0,0,1,.43-.15,1.84,1.84,0,0,1,.55-.07,1.18,1.18,0,0,1,.4,0,.53.53,0,0,1,.25.15.55.55,0,0,1,.14.26,1.28,1.28,0,0,1,0,.36v.27H155a6,6,0,0,0-1,.08,2.13,2.13,0,0,0-.75.28,1.24,1.24,0,0,0-.44.47,1.37,1.37,0,0,0-.15.66,1.49,1.49,0,0,0,.12.62,1.06,1.06,0,0,0,.33.45,1.42,1.42,0,0,0,.5.27,2.22,2.22,0,0,0,.65.09,1.77,1.77,0,0,0,.77-.16,1.93,1.93,0,0,0,.61-.46v.35l.05.11.14.06.32,0,.31,0,.16-.06.05-.11Zm-6.18,1.28a1.54,1.54,0,0,1-.16.44,1,1,0,0,1-.28.32.63.63,0,0,1-.41.13.83.83,0,0,1-.5-.18,2.7,2.7,0,0,1-.5-.51v-1.45a2.63,2.63,0,0,1,.28-.33l.26-.22.25-.12.24,0a.66.66,0,0,1,.41.12.86.86,0,0,1,.27.32,1.55,1.55,0,0,1,.15.46,4.9,4.9,0,0,1,0,.54A2.94,2.94,0,0,1,150.51,246.4Zm1.24-1.52a2.23,2.23,0,0,0-.32-.77,1.55,1.55,0,0,0-.55-.53,1.64,1.64,0,0,0-.83-.19,2.22,2.22,0,0,0-.37,0,2,2,0,0,0-.35.11,1.94,1.94,0,0,0-.33.2,3.84,3.84,0,0,0-.34.28v-2.42l0-.09-.1-.07-.19,0-.3,0-.3,0-.19,0-.1.07,0,.09v6.47l0,.09.08.06.17,0h.5l.17,0,.08-.06,0-.09v-.48a3.84,3.84,0,0,0,.35.35,2.26,2.26,0,0,0,.34.23,1.66,1.66,0,0,0,.37.14,1.84,1.84,0,0,0,.41,0,1.71,1.71,0,0,0,.8-.18,1.61,1.61,0,0,0,.6-.5,2.57,2.57,0,0,0,.37-.8,4.24,4.24,0,0,0,.12-1.06A4.56,4.56,0,0,0,151.75,244.88Zm-10.52.5a1.93,1.93,0,0,1,.07-.43,1,1,0,0,1,.18-.36.85.85,0,0,1,.29-.24.88.88,0,0,1,.41-.09.81.81,0,0,1,.69.3,1.27,1.27,0,0,1,.21.82Zm3.05.16a2.93,2.93,0,0,0-.12-.86,1.71,1.71,0,0,0-1-1.13,2.4,2.4,0,0,0-.94-.16,2.54,2.54,0,0,0-.94.17,2,2,0,0,0-.7.5,2.09,2.09,0,0,0-.45.8,3.41,3.41,0,0,0-.15,1,3.52,3.52,0,0,0,.15,1.08,1.76,1.76,0,0,0,.44.75,1.81,1.81,0,0,0,.73.45,3.24,3.24,0,0,0,1,.15,4,4,0,0,0,.61,0,5.13,5.13,0,0,0,.51-.1l.36-.12L144,248l.06-.07,0-.09v-.52l0-.13,0-.06-.07,0-.19.05-.3.1a3,3,0,0,1-.43.11,3.18,3.18,0,0,1-.57,0,1.55,1.55,0,0,1-.55-.08,1.08,1.08,0,0,1-.37-.24.92.92,0,0,1-.21-.39,1.61,1.61,0,0,1-.07-.51h2.67a.38.38,0,0,0,.28-.11.45.45,0,0,0,.1-.33Zm-5.22-.29a3.38,3.38,0,0,0-.08-.72,1.6,1.6,0,0,0-.27-.59,1.18,1.18,0,0,0-.48-.4,1.65,1.65,0,0,0-.74-.15,1.64,1.64,0,0,0-.38,0,1.84,1.84,0,0,0-.36.15,1.66,1.66,0,0,0-.38.25,4.15,4.15,0,0,0-.39.36,1.38,1.38,0,0,0-.2-.33,1.16,1.16,0,0,0-.29-.25,1.71,1.71,0,0,0-.39-.17,2.46,2.46,0,0,0-.49-.05,1.55,1.55,0,0,0-.75.19,2.8,2.8,0,0,0-.73.6v-.51l0-.09-.09-.06-.16,0h-.51l-.17,0-.08.06,0,.09v4.39l0,.08.1.07.19,0,.3,0,.3,0,.19,0,.1-.07,0-.08v-2.92a2.92,2.92,0,0,1,.49-.5.71.71,0,0,1,.45-.17.62.62,0,0,1,.31.07l.22.2a1,1,0,0,1,.12.31,1.7,1.7,0,0,1,0,.41v2.6l0,.08.1.07.19,0,.3,0,.29,0,.19,0,.1-.07,0-.08v-2.92a2.92,2.92,0,0,1,.49-.5.71.71,0,0,1,.45-.17.59.59,0,0,1,.31.07l.22.2a1,1,0,0,1,.13.31,1.73,1.73,0,0,1,0,.41v2.6l0,.08.1.07.19,0,.3,0,.3,0,.19,0,.1-.07,0-.08Zm-8.2-3.57a.86.86,0,0,0-.56-.14.81.81,0,0,0-.57.15.7.7,0,0,0-.15.52.68.68,0,0,0,.14.49.82.82,0,0,0,.57.14.86.86,0,0,0,.56-.14.92.92,0,0,0,0-1Zm0,2,0-.09-.1-.06-.19,0-.3,0-.3,0-.19,0-.1.06,0,.09v4.38l0,.08.1.07.19,0,.3,0,.3,0,.19,0,.1-.07,0-.08Zm-2-1.54,0-.17-.07-.09-.08,0h-4.49l-.08,0-.06.09,0,.17c0,.07,0,.15,0,.25s0,.18,0,.24l0,.16.06.1.08,0h1.6v5.13l0,.09.11.06.2,0,.31,0,.31,0,.2,0,.11-.06,0-.09v-5.13h1.59l.08,0,.07-.1,0-.16a1.7,1.7,0,0,0,0-.24A1.85,1.85,0,0,0,128.93,242.14Z"/><path d="M285,245.35a3.26,3.26,0,0,0-.09-.82,1.45,1.45,0,0,0-.27-.59,1.24,1.24,0,0,0-.5-.4,1.7,1.7,0,0,0-.75-.15,1.67,1.67,0,0,0-.79.19,2.83,2.83,0,0,0-.74.6v-.51l0-.09-.09-.06-.16,0h-.51l-.16,0-.09.06,0,.09v4.39l0,.08.1.07.19,0,.3,0,.3,0,.19,0,.1-.07,0-.08v-2.92a2.61,2.61,0,0,1,.5-.5.8.8,0,0,1,.48-.17.67.67,0,0,1,.33.07.55.55,0,0,1,.23.2,1,1,0,0,1,.13.31,2.14,2.14,0,0,1,0,.5v2.51l0,.08.1.07.19,0,.3,0,.3,0,.19,0,.1-.07,0-.08Zm-6.37,1.14a1.55,1.55,0,0,1-.2.47,1,1,0,0,1-.34.29,1.07,1.07,0,0,1-.49.1,1.13,1.13,0,0,1-.51-.11.82.82,0,0,1-.33-.31,1.7,1.7,0,0,1-.17-.48,2.8,2.8,0,0,1-.05-.6,2.9,2.9,0,0,1,.06-.62,1.55,1.55,0,0,1,.2-.47.87.87,0,0,1,.34-.29,1.06,1.06,0,0,1,.48-.1,1.14,1.14,0,0,1,.52.11.89.89,0,0,1,.32.32,1.15,1.15,0,0,1,.18.47,3.64,3.64,0,0,1,.05.6A2.9,2.9,0,0,1,278.64,246.49Zm1.2-1.71a1.87,1.87,0,0,0-.42-.76,1.71,1.71,0,0,0-.72-.47,2.88,2.88,0,0,0-1-.16,2.83,2.83,0,0,0-1.06.18,2,2,0,0,0-.75.51,2.25,2.25,0,0,0-.45.8,3.33,3.33,0,0,0-.15,1,3.56,3.56,0,0,0,.14,1,1.87,1.87,0,0,0,.42.76,1.82,1.82,0,0,0,.72.48,3.27,3.27,0,0,0,2.08,0,2,2,0,0,0,.75-.52,2.16,2.16,0,0,0,.45-.8,3.31,3.31,0,0,0,.15-1A3.64,3.64,0,0,0,279.84,244.78Zm-9,1.8a3.4,3.4,0,0,1-.29.33,1.27,1.27,0,0,1-.26.22l-.24.12-.25,0a.75.75,0,0,1-.43-.12.78.78,0,0,1-.26-.33,1.66,1.66,0,0,1-.15-.46,3.27,3.27,0,0,1,0-.54,2.21,2.21,0,0,1,.05-.51,1.5,1.5,0,0,1,.16-.45.8.8,0,0,1,.28-.32.69.69,0,0,1,.41-.12.89.89,0,0,1,.51.17,2.8,2.8,0,0,1,.51.52Zm1.23-5,0-.09-.1-.06-.18,0h-.6l-.19,0-.1.06,0,.09V244a2.26,2.26,0,0,0-.59-.44,1.5,1.5,0,0,0-.67-.15,1.81,1.81,0,0,0-.83.18,1.52,1.52,0,0,0-.6.5,2.57,2.57,0,0,0-.37.8,4.21,4.21,0,0,0-.12,1,4,4,0,0,0,.1.93,2.31,2.31,0,0,0,.31.77,1.58,1.58,0,0,0,.57.52,1.7,1.7,0,0,0,.85.2,1.74,1.74,0,0,0,.82-.2,2.87,2.87,0,0,0,.71-.57v.49l0,.09.09.06.16,0h.5l.16,0,.09-.06,0-.09Zm-8.2,3.78a1.49,1.49,0,0,1,.07-.43,1,1,0,0,1,.18-.36.76.76,0,0,1,.29-.24.86.86,0,0,1,.41-.09.81.81,0,0,1,.69.3,1.27,1.27,0,0,1,.21.82Zm3.05.16a2.93,2.93,0,0,0-.12-.86,1.8,1.8,0,0,0-.37-.68,1.76,1.76,0,0,0-.64-.45,2.43,2.43,0,0,0-.94-.16,2.54,2.54,0,0,0-.94.17,2,2,0,0,0-.71.5,2.21,2.21,0,0,0-.44.8,3.41,3.41,0,0,0-.15,1,3.88,3.88,0,0,0,.14,1.08,2,2,0,0,0,.44.75,1.92,1.92,0,0,0,.74.45,3.15,3.15,0,0,0,1,.15,4,4,0,0,0,.61,0,4.4,4.4,0,0,0,.5-.1l.37-.12.17-.09.05-.07,0-.09,0-.13v-.39l0-.13-.05-.06-.07,0-.2.05a2.39,2.39,0,0,1-.29.1,3.34,3.34,0,0,1-.43.11,3.18,3.18,0,0,1-.57,0,1.52,1.52,0,0,1-.55-.08,1,1,0,0,1-.37-.24,1.07,1.07,0,0,1-.22-.39,2,2,0,0,1-.06-.51h2.67a.38.38,0,0,0,.28-.11.45.45,0,0,0,.1-.33Zm-5.14.76a1.23,1.23,0,0,0-.24-.38,1.52,1.52,0,0,0-.35-.26,2.33,2.33,0,0,0-.39-.19l-.4-.15-.34-.15a.8.8,0,0,1-.25-.18.39.39,0,0,1-.09-.26l0-.18.11-.15.21-.1a1.19,1.19,0,0,1,.29,0,1.42,1.42,0,0,1,.42.06,2,2,0,0,1,.32.11l.24.11.13.05.07,0,.05-.06,0-.14v-.53l0-.09-.07-.07-.15-.09a1.39,1.39,0,0,0-.27-.1l-.35-.07a2.6,2.6,0,0,0-.4,0,2.48,2.48,0,0,0-.75.1,1.74,1.74,0,0,0-.56.29,1.42,1.42,0,0,0-.39,1.56,1.12,1.12,0,0,0,.24.38,1.76,1.76,0,0,0,.34.27l.39.19.39.15.34.15a.76.76,0,0,1,.24.18.39.39,0,0,1,.09.26l-.05.22-.14.17-.23.09a.91.91,0,0,1-.3,0,1.41,1.41,0,0,1-.47-.07,2.64,2.64,0,0,1-.37-.13l-.26-.14-.16-.06-.08,0,0,.07,0,.13a1.55,1.55,0,0,0,0,.23,1.31,1.31,0,0,0,0,.33l.08.16.17.11.3.12a2.15,2.15,0,0,0,.4.09,2.35,2.35,0,0,0,.47,0,2.68,2.68,0,0,0,.76-.1,1.85,1.85,0,0,0,.6-.28,1.43,1.43,0,0,0,.4-.48,1.53,1.53,0,0,0,.14-.66A1.21,1.21,0,0,0,261.73,246.3Zm-5.27.64a2,2,0,0,1-.45.39.86.86,0,0,1-.48.13.73.73,0,0,1-.48-.15.55.55,0,0,1-.17-.44.68.68,0,0,1,.06-.29l.19-.21a1,1,0,0,1,.35-.13,2.44,2.44,0,0,1,.51-.05h.47Zm1.22-1.82a2.57,2.57,0,0,0-.11-.78,1.18,1.18,0,0,0-.35-.54,1.48,1.48,0,0,0-.6-.31,3.23,3.23,0,0,0-.88-.1,3.56,3.56,0,0,0-.57,0,5.16,5.16,0,0,0-.5.13,2,2,0,0,0-.41.16,1.12,1.12,0,0,0-.24.15l-.09.16a.82.82,0,0,0,0,.24v.21l0,.16.07.1.1,0,.2-.07.31-.15a2.41,2.41,0,0,1,.43-.15,2,2,0,0,1,.56-.07,1.09,1.09,0,0,1,.39,0,.51.51,0,0,1,.26.15.65.65,0,0,1,.14.26,1.28,1.28,0,0,1,0,.36v.27H256a6.25,6.25,0,0,0-1,.08,2.16,2.16,0,0,0-.74.28,1.19,1.19,0,0,0-.45.47,1.37,1.37,0,0,0-.15.66,1.49,1.49,0,0,0,.12.62,1.25,1.25,0,0,0,.33.45,1.56,1.56,0,0,0,.51.27,2.2,2.2,0,0,0,.64.09,1.74,1.74,0,0,0,.77-.16,1.86,1.86,0,0,0,.62-.46v.35l0,.11.15.06.32,0,.31,0,.16-.06.05-.11Zm-6.18,1.28a1.29,1.29,0,0,1-.16.44.94.94,0,0,1-.27.32.65.65,0,0,1-.41.13.81.81,0,0,1-.5-.18,2.43,2.43,0,0,1-.5-.51v-1.45a2,2,0,0,1,.28-.33l.26-.22.24-.12.24,0a.7.7,0,0,1,.42.12.86.86,0,0,1,.27.32,1.91,1.91,0,0,1,.14.46,3.27,3.27,0,0,1,0,.54A2.21,2.21,0,0,1,251.5,246.4Zm1.24-1.52a2.44,2.44,0,0,0-.31-.77,1.67,1.67,0,0,0-.56-.53,1.61,1.61,0,0,0-.82-.19,2.25,2.25,0,0,0-.38,0,1.93,1.93,0,0,0-.34.11,2,2,0,0,0-.34.2,2.73,2.73,0,0,0-.33.28v-2.42l0-.09-.1-.07-.19,0-.3,0-.3,0-.19,0-.1.07,0,.09v6.47l0,.09.09.06.16,0h.5l.17,0,.09-.06,0-.09v-.48a2.85,2.85,0,0,0,.34.35,2.33,2.33,0,0,0,.35.23,1.58,1.58,0,0,0,.36.14,1.87,1.87,0,0,0,.42,0,1.74,1.74,0,0,0,.8-.18,1.66,1.66,0,0,0,.59-.5,2.57,2.57,0,0,0,.37-.8,4.21,4.21,0,0,0,.13-1.06A4.55,4.55,0,0,0,252.74,244.88Zm-7.56,1.42a1.47,1.47,0,0,0-.25-.38,1.52,1.52,0,0,0-.35-.26,2.33,2.33,0,0,0-.39-.19l-.39-.15-.35-.15a.94.94,0,0,1-.25-.18.39.39,0,0,1-.09-.26l0-.18.12-.15.2-.1a1.19,1.19,0,0,1,.29,0,1.33,1.33,0,0,1,.42.06,2.55,2.55,0,0,1,.33.11,1.67,1.67,0,0,1,.23.11l.14.05.07,0,0-.06,0-.14V244l0-.13,0-.09-.07-.07-.15-.09a1.18,1.18,0,0,0-.27-.1l-.35-.07a2.6,2.6,0,0,0-.4,0,2.52,2.52,0,0,0-.75.1,1.85,1.85,0,0,0-.56.29,1.37,1.37,0,0,0-.35.45,1.27,1.27,0,0,0-.13.58,1.4,1.4,0,0,0,.09.53,1.32,1.32,0,0,0,.25.38,1.5,1.5,0,0,0,.34.27l.38.19.39.15.34.15a.76.76,0,0,1,.24.18.39.39,0,0,1,.09.26l0,.22-.15.17-.23.09a.85.85,0,0,1-.29,0,1.43,1.43,0,0,1-.48-.07,2.64,2.64,0,0,1-.37-.13l-.26-.14-.16-.06-.07,0,0,.07,0,.13a1.55,1.55,0,0,0,0,.23,1.31,1.31,0,0,0,0,.33l.08.16.17.11.3.12a2.15,2.15,0,0,0,.4.09,2.42,2.42,0,0,0,.47,0,2.64,2.64,0,0,0,.76-.1,1.85,1.85,0,0,0,.6-.28,1.32,1.32,0,0,0,.4-.48,1.53,1.53,0,0,0,.14-.66A1.38,1.38,0,0,0,245.18,246.3Zm-7-.92a1.93,1.93,0,0,1,.07-.43,1,1,0,0,1,.18-.36.85.85,0,0,1,.29-.24.88.88,0,0,1,.41-.09.81.81,0,0,1,.69.3,1.27,1.27,0,0,1,.21.82Zm3.05.16a2.93,2.93,0,0,0-.12-.86,1.8,1.8,0,0,0-.37-.68,1.68,1.68,0,0,0-.64-.45,2.4,2.4,0,0,0-.94-.16,2.54,2.54,0,0,0-.94.17,1.87,1.87,0,0,0-.7.5,2.09,2.09,0,0,0-.45.8,3.41,3.41,0,0,0-.15,1A3.88,3.88,0,0,0,237,247a1.88,1.88,0,0,0,.45.75,1.81,1.81,0,0,0,.73.45,3.2,3.2,0,0,0,1,.15,4,4,0,0,0,.61,0,4.4,4.4,0,0,0,.5-.1l.37-.12.17-.09.06-.07,0-.09,0-.13v-.39l0-.13,0-.06-.07,0-.19.05-.3.1a3,3,0,0,1-.43.11,3.18,3.18,0,0,1-.57,0,1.52,1.52,0,0,1-.55-.08,1,1,0,0,1-.37-.24.92.92,0,0,1-.21-.39,1.61,1.61,0,0,1-.07-.51h2.67a.38.38,0,0,0,.28-.11.45.45,0,0,0,.1-.33Zm-8.09-.16a1.49,1.49,0,0,1,.07-.43,1.2,1.2,0,0,1,.17-.36,1,1,0,0,1,.29-.24.93.93,0,0,1,.42-.09.81.81,0,0,1,.69.3,1.27,1.27,0,0,1,.21.82Zm3.05.16a2.93,2.93,0,0,0-.12-.86,1.8,1.8,0,0,0-.37-.68,1.76,1.76,0,0,0-.64-.45,2.43,2.43,0,0,0-.94-.16,2.5,2.5,0,0,0-.94.17,1.91,1.91,0,0,0-.71.5,2.21,2.21,0,0,0-.44.8,3.41,3.41,0,0,0-.15,1A3.54,3.54,0,0,0,232,247a1.87,1.87,0,0,0,.44.75,1.84,1.84,0,0,0,.74.45,3.13,3.13,0,0,0,1,.15,3.91,3.91,0,0,0,.61,0,5.13,5.13,0,0,0,.51-.1l.36-.12.18-.09,0-.07,0-.09,0-.13v-.39l0-.13,0-.06-.08,0-.19.05-.3.1a3.16,3.16,0,0,1-.42.11,3.32,3.32,0,0,1-.57,0,1.49,1.49,0,0,1-.55-.08,1.12,1.12,0,0,1-.38-.24,1.22,1.22,0,0,1-.21-.39,2,2,0,0,1-.06-.51h2.67a.38.38,0,0,0,.28-.11.5.5,0,0,0,.1-.33Zm-4.54-3.78,0-.16-.06-.09-.13-.07a1.31,1.31,0,0,0-.27-.07,2.22,2.22,0,0,0-.37,0,1.85,1.85,0,0,0-.69.11,1.17,1.17,0,0,0-.48.34,1.34,1.34,0,0,0-.28.56,3,3,0,0,0-.09.78v.37h-.54l-.09,0-.06.08,0,.15a1.77,1.77,0,0,0,0,.24,1.24,1.24,0,0,0,0,.39l.14.12h.55v3.55l0,.08.1.07.19,0,.3,0,.3,0,.19,0,.1-.07,0-.08v-3.55h.8l.14-.12a1,1,0,0,0,.05-.39,1.77,1.77,0,0,0,0-.24l0-.15-.06-.08-.08,0h-.8v-.4a1.86,1.86,0,0,1,0-.36.75.75,0,0,1,.09-.24l.16-.13.23,0,.2,0,.14,0,.11,0,.07,0,.06,0,0-.06,0-.14a1.35,1.35,0,0,0,0-.22A1.63,1.63,0,0,0,231.61,241.76Zm-7.38,4.82c-.11.13-.2.24-.29.33a1.6,1.6,0,0,1-.26.22l-.25.12-.25,0a.7.7,0,0,1-.42-.12.89.89,0,0,1-.27-.33,2.06,2.06,0,0,1-.14-.46,3.29,3.29,0,0,1,0-.54,2.94,2.94,0,0,1,0-.51,1.83,1.83,0,0,1,.16-.45.88.88,0,0,1,.28-.32.74.74,0,0,1,.42-.12.89.89,0,0,1,.51.17,2.8,2.8,0,0,1,.51.52Zm1.23-5,0-.09-.1-.06-.19,0h-.6l-.19,0-.1.06,0,.09V244a2.3,2.3,0,0,0-.6-.44,1.47,1.47,0,0,0-.67-.15,1.8,1.8,0,0,0-.82.18,1.52,1.52,0,0,0-.6.5,2.19,2.19,0,0,0-.37.8,3.77,3.77,0,0,0-.13,1,4.57,4.57,0,0,0,.1.93,2.32,2.32,0,0,0,.32.77,1.47,1.47,0,0,0,.56.52,1.86,1.86,0,0,0,1.68,0,3.07,3.07,0,0,0,.71-.57v.49l0,.09.09.06.16,0h.5l.16,0,.08-.06,0-.09Zm-8,3.78a1.49,1.49,0,0,1,.07-.43,1.2,1.2,0,0,1,.17-.36,1,1,0,0,1,.29-.24.93.93,0,0,1,.42-.09.81.81,0,0,1,.69.3,1.27,1.27,0,0,1,.21.82Zm3.05.16a2.93,2.93,0,0,0-.12-.86,1.8,1.8,0,0,0-.37-.68,1.76,1.76,0,0,0-.64-.45,2.43,2.43,0,0,0-.94-.16,2.5,2.5,0,0,0-.94.17,1.91,1.91,0,0,0-.71.5,2.21,2.21,0,0,0-.44.8,3.41,3.41,0,0,0-.15,1,3.54,3.54,0,0,0,.14,1.08,1.87,1.87,0,0,0,.44.75,1.84,1.84,0,0,0,.74.45,3.13,3.13,0,0,0,1,.15,3.91,3.91,0,0,0,.61,0,5.13,5.13,0,0,0,.51-.1l.37-.12.17-.09,0-.07,0-.09,0-.13v-.39l0-.13-.05-.06-.08,0-.19.05-.3.1a3.16,3.16,0,0,1-.42.11,3.32,3.32,0,0,1-.57,0,1.49,1.49,0,0,1-.55-.08,1.12,1.12,0,0,1-.38-.24,1.22,1.22,0,0,1-.21-.39,2,2,0,0,1-.06-.51h2.67a.38.38,0,0,0,.28-.11.5.5,0,0,0,.1-.33Zm-6.25.24,1.09-2,.06-.16-.06-.09-.18-.05h-.65l-.18,0-.09.05,0,.07-.77,1.47-.79-1.47-.06-.08-.1-.05-.21,0H212l-.39,0a.44.44,0,0,0-.2,0l-.06.09,0,.15,1.13,2L211.27,248l0,.14.06.09.19,0,.34,0h.34l.2,0,.1-.06.06-.08.81-1.56.81,1.56.06.08.11.06.21,0h.36l.38,0a.56.56,0,0,0,.21,0l.07-.09,0-.14Zm-3.83-4.1a.84.84,0,0,0-.56-.14.81.81,0,0,0-.57.15.7.7,0,0,0-.15.52.64.64,0,0,0,.15.49.77.77,0,0,0,.56.14.87.87,0,0,0,.57-.14.72.72,0,0,0,.15-.52A.68.68,0,0,0,210.47,241.68Zm.06,2,0-.09-.1-.06-.19,0-.3,0-.3,0-.19,0-.1.06,0,.09v4.38l0,.08.1.07.19,0,.3,0,.3,0,.19,0,.1-.07,0-.08Zm-2.17-1.54,0-.17-.06-.09-.08,0h-3a.42.42,0,0,0-.27.09.43.43,0,0,0-.11.32V248l0,.09.11.07.2,0,.31,0,.31,0,.2,0,.11-.07,0-.09v-2.37h2l.08,0,.06-.09,0-.16a1.57,1.57,0,0,0,0-.5l0-.15-.06-.09-.08,0h-2v-1.71h2.08l.08,0,.06-.09,0-.16a3.13,3.13,0,0,0,0-.5Z"/><path d="M262.41,257.62a1.93,1.93,0,0,1,.07-.43,1,1,0,0,1,.18-.36.76.76,0,0,1,.29-.24.86.86,0,0,1,.41-.09.81.81,0,0,1,.69.3,1.27,1.27,0,0,1,.21.82Zm3,.16a2.93,2.93,0,0,0-.12-.86,1.8,1.8,0,0,0-.37-.68,1.68,1.68,0,0,0-.64-.45,2.4,2.4,0,0,0-.94-.16,2.54,2.54,0,0,0-.94.17,2,2,0,0,0-.71.5,2.21,2.21,0,0,0-.44.8,3.41,3.41,0,0,0-.15,1,3.88,3.88,0,0,0,.14,1.08,2,2,0,0,0,.44.75,1.92,1.92,0,0,0,.74.45,3.2,3.2,0,0,0,1,.15,4,4,0,0,0,.61,0,4.4,4.4,0,0,0,.5-.1l.37-.12.17-.09.05-.07,0-.09,0-.13v-.39l0-.13-.05-.06-.07,0-.2.05a1.9,1.9,0,0,1-.29.1,3,3,0,0,1-.43.11,3.18,3.18,0,0,1-.57,0,1.52,1.52,0,0,1-.55-.08,1,1,0,0,1-.37-.24.92.92,0,0,1-.21-.39,1.61,1.61,0,0,1-.07-.51h2.67a.38.38,0,0,0,.28-.11.45.45,0,0,0,.1-.33Zm-6.26.85a1.5,1.5,0,0,1-.16.45.87.87,0,0,1-.28.32.63.63,0,0,1-.41.13.8.8,0,0,1-.49-.18,3,3,0,0,1-.5-.51v-1.45a3.41,3.41,0,0,1,.28-.33l.26-.22.25-.12.24,0a.66.66,0,0,1,.41.12.86.86,0,0,1,.27.32,1.55,1.55,0,0,1,.14.46,3.12,3.12,0,0,1,0,.54A2.12,2.12,0,0,1,259.2,258.63Zm1.24-1.53a2.25,2.25,0,0,0-.31-.76,1.52,1.52,0,0,0-.55-.52,1.63,1.63,0,0,0-.82-.19,1.56,1.56,0,0,0-.44.05,1.49,1.49,0,0,0-.4.15,2,2,0,0,0-.37.25,3,3,0,0,0-.38.35v-.52l0-.09-.09-.06-.16,0h-.5l-.17,0-.08.06,0,.09V262l0,.09.1.07.19,0h.6l.19,0,.1-.07,0-.09V260a3.5,3.5,0,0,0,.31.27,1.66,1.66,0,0,0,.3.19,1.15,1.15,0,0,0,.31.11,1.25,1.25,0,0,0,.35,0,1.8,1.8,0,0,0,.82-.18,1.61,1.61,0,0,0,.6-.5,2.57,2.57,0,0,0,.37-.8,4.35,4.35,0,0,0,.12-1.06A4.11,4.11,0,0,0,260.44,257.1Zm-5.11-.94,0-.21-.07-.14a.34.34,0,0,0-.2-.08l-.36,0-.38,0-.15.06-.08.17-.94,3h0l-1-2.94-.07-.17-.1-.09-.19,0h-.34l-.37,0a.42.42,0,0,0-.2.07l-.06.15a.72.72,0,0,0,.07.26l1.51,4,.07.14.12.09-.59,1.47,0,.14.07.1.17.06h.32a2.65,2.65,0,0,0,.57-.05.34.34,0,0,0,.25-.18l.53-1.55Zm-4.78,3.48,0-.14,0-.07,0,0-.08,0-.1,0-.14,0-.18,0a.43.43,0,0,1-.4-.18,1,1,0,0,1-.12-.54v-2.06h1l.14-.12a1,1,0,0,0,.05-.39,1.77,1.77,0,0,0,0-.24l0-.15-.06-.08-.08,0h-1v-1l0-.09-.1-.06-.18,0-.31,0-.3,0-.19,0-.1.06,0,.09v1h-.52l-.09,0-.06.08,0,.15a1.77,1.77,0,0,0,0,.24,1,1,0,0,0,0,.39l.14.12h.53V259a2.41,2.41,0,0,0,.08.7,1.21,1.21,0,0,0,.26.49,1.06,1.06,0,0,0,.45.29,2,2,0,0,0,.64.09h.27l.25,0,.21-.07.13-.08.07-.16a1.52,1.52,0,0,0,0-.33A1.48,1.48,0,0,0,250.55,259.64Zm-5.73.53-.09-.17-1.48-2.3,1.28-1.45.11-.18,0-.16,0-.09-.11-.06-.2,0h-.61l-.2,0-.14.07-.08.1-1.3,1.75v-3.85l0-.09-.1-.07-.19,0-.3,0-.3,0-.19,0-.1.07,0,.09v6.47l0,.08.1.07.19,0,.3,0,.3,0,.19,0,.1-.07,0-.08V258l1.46,2.31.08.1.12.06.21,0h.33l.32,0,.19,0,.1-.06,0-.09ZM240,256v-.16l0-.08,0-.05-.09-.05-.14,0-.15,0h-.14a1.24,1.24,0,0,0-.27,0,.82.82,0,0,0-.28.14,1.56,1.56,0,0,0-.29.25,3.72,3.72,0,0,0-.32.4v-.54l0-.09-.08-.06-.16,0h-.52l-.16,0-.09.06,0,.09v4.39l0,.08.1.07.19,0,.3,0,.3,0,.19,0,.1-.07,0-.08v-2.74a4.28,4.28,0,0,1,.26-.36,1.33,1.33,0,0,1,.23-.24l.21-.13.21,0,.16,0,.14,0,.11,0,.08,0,.09,0,0-.09,0-.17c0-.08,0-.17,0-.29A2.18,2.18,0,0,0,240,256Zm-5,2.69a1.33,1.33,0,0,1-.19.47,1,1,0,0,1-.34.29,1.07,1.07,0,0,1-.49.1,1.13,1.13,0,0,1-.51-.11.82.82,0,0,1-.33-.31,1.44,1.44,0,0,1-.17-.48,2.77,2.77,0,0,1-.06-.6,2.86,2.86,0,0,1,.07-.62,1.34,1.34,0,0,1,.2-.47.87.87,0,0,1,.34-.29,1.06,1.06,0,0,1,.48-.1,1.14,1.14,0,0,1,.52.11.89.89,0,0,1,.32.32,1.54,1.54,0,0,1,.18.47,3.64,3.64,0,0,1,.05.6A2.35,2.35,0,0,1,235,258.73Zm1.21-1.71a2,2,0,0,0-.43-.76,1.61,1.61,0,0,0-.71-.47,2.9,2.9,0,0,0-1-.16,2.82,2.82,0,0,0-1.05.18,2,2,0,0,0-.75.51,2.25,2.25,0,0,0-.45.8,3.33,3.33,0,0,0-.15,1,3.25,3.25,0,0,0,.14,1,1.87,1.87,0,0,0,.42.76,1.82,1.82,0,0,0,.72.48,2.88,2.88,0,0,0,1,.16,2.82,2.82,0,0,0,1.05-.18,2,2,0,0,0,.76-.52,2.16,2.16,0,0,0,.45-.8,4,4,0,0,0,0-2.06Zm-5.05-1.21-.09-.06-.19,0h-.59l-.19,0-.1.06,0,.1-.84,3.23v.06l0-.06-.88-3.25,0-.08-.09-.06-.18,0h-.59l-.18,0-.1.06-.05.1-.81,3.23v0l-.87-3.23-.05-.1-.09-.06-.19,0h-.63l-.19,0-.1.06,0,.09V256a2,2,0,0,0,.06.23l1.16,4,.06.13.12.08a.75.75,0,0,0,.24,0l.39,0h.4a1.19,1.19,0,0,0,.24,0l.12-.08.06-.14.68-2.67v0l.74,2.67.06.13.12.08a.75.75,0,0,0,.24,0l.39,0h.4l.23,0,.12-.08.06-.14,1.17-4c0-.1,0-.18.06-.23v-.13Z"/><path d="M365.39,245.37a3.33,3.33,0,0,0-.08-.83,1.65,1.65,0,0,0-.27-.6,1.24,1.24,0,0,0-.5-.4,1.7,1.7,0,0,0-.75-.15,1.73,1.73,0,0,0-.7.15,2.65,2.65,0,0,0-.65.47v-2.42l0-.09-.1-.07-.19,0-.3,0-.3,0-.19,0-.1.07,0,.09v6.47l0,.08.1.07.19,0,.3,0,.3,0,.19,0,.1-.07,0-.08v-2.92a2.61,2.61,0,0,1,.5-.5.78.78,0,0,1,.48-.17.67.67,0,0,1,.33.07.55.55,0,0,1,.23.2,1,1,0,0,1,.13.31,2.14,2.14,0,0,1,.05.5v2.51l0,.08.1.07.19,0,.3,0,.3,0,.19,0,.1-.07,0-.08Zm-5,1.72,0-.17,0-.09-.08,0-.15.07a1.66,1.66,0,0,1-.24.17,1.38,1.38,0,0,1-.32.17,1,1,0,0,1-.44.08,1,1,0,0,1-.44-.09.74.74,0,0,1-.31-.27,1.2,1.2,0,0,1-.19-.46,2.35,2.35,0,0,1-.07-.62,1.93,1.93,0,0,1,.26-1.09.83.83,0,0,1,.74-.37,1.09,1.09,0,0,1,.42.07,1.05,1.05,0,0,1,.3.15l.23.15.17.07.13-.12a1.17,1.17,0,0,0,.05-.4v-.21l0-.14,0-.1-.08-.09-.18-.13a2.08,2.08,0,0,0-.3-.13,2,2,0,0,0-.35-.09,1.72,1.72,0,0,0-.39,0,2.3,2.3,0,0,0-.88.16,1.75,1.75,0,0,0-.7.46,2.16,2.16,0,0,0-.46.8,3.51,3.51,0,0,0-.17,1.14,3.42,3.42,0,0,0,.14,1,1.92,1.92,0,0,0,.4.75,1.74,1.74,0,0,0,.66.47,2.48,2.48,0,0,0,.89.15,3,3,0,0,0,.44,0,3.26,3.26,0,0,0,.4-.11,2.52,2.52,0,0,0,.33-.14,1.58,1.58,0,0,0,.2-.14l.07-.09,0-.1,0-.15v-.21A2.1,2.1,0,0,0,360.43,247.09Zm-5.83-.15a2.16,2.16,0,0,1-.44.39.91.91,0,0,1-.48.13.74.74,0,0,1-.49-.15.59.59,0,0,1-.17-.44.68.68,0,0,1,.06-.29l.19-.21a1,1,0,0,1,.35-.13,2.44,2.44,0,0,1,.51-.05h.47Zm1.22-1.82a2.57,2.57,0,0,0-.11-.78,1.18,1.18,0,0,0-.35-.54,1.42,1.42,0,0,0-.6-.31,3.23,3.23,0,0,0-.88-.1,3.56,3.56,0,0,0-.57,0,5.16,5.16,0,0,0-.5.13,1.85,1.85,0,0,0-.4.16.76.76,0,0,0-.24.15l-.1.16a1.44,1.44,0,0,0,0,.24v.21l0,.16.07.1.1,0,.2-.07.32-.15a2,2,0,0,1,.43-.15,1.84,1.84,0,0,1,.55-.07,1.18,1.18,0,0,1,.4,0,.53.53,0,0,1,.25.15.55.55,0,0,1,.14.26,1.28,1.28,0,0,1,0,.36v.27h-.43a6,6,0,0,0-1,.08,2.13,2.13,0,0,0-.75.28,1.24,1.24,0,0,0-.44.47,1.37,1.37,0,0,0-.15.66,1.67,1.67,0,0,0,.11.62,1.17,1.17,0,0,0,.34.45,1.42,1.42,0,0,0,.5.27,2.22,2.22,0,0,0,.65.09,1.8,1.8,0,0,0,.77-.16,1.93,1.93,0,0,0,.61-.46v.35l0,.11.14.06.32,0,.31,0,.16-.06.05-.11Zm-5.92,1.37a1.55,1.55,0,0,1-.2.47,1,1,0,0,1-.34.29,1.07,1.07,0,0,1-.49.1,1.13,1.13,0,0,1-.51-.11.82.82,0,0,1-.33-.31,1.44,1.44,0,0,1-.17-.48,2.77,2.77,0,0,1-.06-.6,2.86,2.86,0,0,1,.07-.62,1.34,1.34,0,0,1,.2-.47.87.87,0,0,1,.34-.29,1.06,1.06,0,0,1,.48-.1,1.14,1.14,0,0,1,.52.11.89.89,0,0,1,.32.32,1.54,1.54,0,0,1,.18.47,3.64,3.64,0,0,1,0,.6A2.9,2.9,0,0,1,349.9,246.49Zm1.2-1.71a2.14,2.14,0,0,0-.42-.76,1.71,1.71,0,0,0-.72-.47,2.88,2.88,0,0,0-1-.16,2.83,2.83,0,0,0-1.06.18,2,2,0,0,0-.75.51,2.25,2.25,0,0,0-.45.8,3.33,3.33,0,0,0-.15,1,3.25,3.25,0,0,0,.14,1,1.87,1.87,0,0,0,.42.76,1.82,1.82,0,0,0,.72.48,2.88,2.88,0,0,0,1,.16,2.91,2.91,0,0,0,1.06-.18,2,2,0,0,0,.75-.52,2.16,2.16,0,0,0,.45-.8,4,4,0,0,0,0-2.06Zm-5.09-1v-.16l0-.08,0-.05-.08,0-.14,0-.15,0h-.14l-.28,0a.87.87,0,0,0-.27.14,1.56,1.56,0,0,0-.29.25c-.1.11-.21.24-.33.4v-.54l0-.09-.08-.06-.16,0h-.52l-.16,0-.09.06,0,.09v4.39l0,.08.11.07.18,0,.3,0,.31,0,.18,0,.11-.07,0-.08v-2.74a4.37,4.37,0,0,1,.25-.36,1.79,1.79,0,0,1,.23-.24l.22-.13.21,0,.16,0,.13,0,.11,0,.09,0,.08,0,.06-.09,0-.17v-.57Zm-5.26,2.59a1.83,1.83,0,0,1-.16.45,1,1,0,0,1-.28.32.63.63,0,0,1-.41.13.78.78,0,0,1-.49-.18,2.7,2.7,0,0,1-.5-.51v-1.45a3.41,3.41,0,0,1,.28-.33l.26-.22.25-.12.24,0a.69.69,0,0,1,.41.12.86.86,0,0,1,.27.32,1.91,1.91,0,0,1,.14.46,3.12,3.12,0,0,1,0,.54A2.83,2.83,0,0,1,340.75,246.39Zm1.24-1.53a2.25,2.25,0,0,0-.31-.76,1.47,1.47,0,0,0-.56-.52,1.61,1.61,0,0,0-.82-.19,1.77,1.77,0,0,0-.83.2,2.07,2.07,0,0,0-.38.25,3.89,3.89,0,0,0-.37.35v-.52l0-.09-.08-.06-.16,0h-.51l-.16,0-.09.06,0,.09v6.13l0,.09.1.07.19,0h.6l.19,0,.1-.07,0-.09v-2.07a3.5,3.5,0,0,0,.31.27,1.32,1.32,0,0,0,.29.19,1.28,1.28,0,0,0,.31.11,1.37,1.37,0,0,0,.36,0,1.83,1.83,0,0,0,.82-.18,1.61,1.61,0,0,0,.6-.5,2.35,2.35,0,0,0,.36-.8,3.9,3.9,0,0,0,.13-1.06A4.11,4.11,0,0,0,342,244.86Zm-6.52,1.53a1.83,1.83,0,0,1-.16.45,1.1,1.1,0,0,1-.28.32.65.65,0,0,1-.41.13.83.83,0,0,1-.5-.18,3,3,0,0,1-.49-.51v-1.45a3.41,3.41,0,0,1,.28-.33l.26-.22.24-.12.25,0a.69.69,0,0,1,.41.12.75.75,0,0,1,.26.32,1.55,1.55,0,0,1,.15.46,4.56,4.56,0,0,1,0,.54A2.83,2.83,0,0,1,335.47,246.39Zm1.24-1.53a2.48,2.48,0,0,0-.31-.76,1.55,1.55,0,0,0-.56-.52,1.9,1.9,0,0,0-1.26-.14,1.56,1.56,0,0,0-.39.15,1.78,1.78,0,0,0-.38.25,3,3,0,0,0-.37.35v-.52l0-.09-.09-.06-.16,0h-.5l-.16,0-.09.06,0,.09v6.13l0,.09.1.07.19,0h.6l.19,0,.1-.07,0-.09v-2.07a2.44,2.44,0,0,0,.3.27,1.66,1.66,0,0,0,.3.19,1.15,1.15,0,0,0,.31.11,1.29,1.29,0,0,0,.35,0,1.8,1.8,0,0,0,.82-.18,1.61,1.61,0,0,0,.6-.5,2.19,2.19,0,0,0,.37-.8,4.33,4.33,0,0,0,.13-1.06A4.75,4.75,0,0,0,336.71,244.86Zm-6.6,2.08a2.16,2.16,0,0,1-.44.39.91.91,0,0,1-.48.13.74.74,0,0,1-.49-.15.59.59,0,0,1-.17-.44.68.68,0,0,1,.06-.29l.19-.21a1,1,0,0,1,.35-.13,2.44,2.44,0,0,1,.51-.05h.47Zm1.22-1.82a2.57,2.57,0,0,0-.11-.78,1.25,1.25,0,0,0-.34-.54,1.53,1.53,0,0,0-.61-.31,3.23,3.23,0,0,0-.88-.1,3.43,3.43,0,0,0-.56,0l-.51.13a1.85,1.85,0,0,0-.4.16.76.76,0,0,0-.24.15l-.1.16a1.44,1.44,0,0,0,0,.24v.21l0,.16.07.1.1,0,.2-.07.32-.15a2,2,0,0,1,.43-.15,1.84,1.84,0,0,1,.55-.07,1.18,1.18,0,0,1,.4,0,.53.53,0,0,1,.25.15.55.55,0,0,1,.14.26,1.28,1.28,0,0,1,0,.36v.27h-.43a6,6,0,0,0-1,.08,2,2,0,0,0-.74.28,1.19,1.19,0,0,0-.45.47,1.37,1.37,0,0,0-.15.66,1.49,1.49,0,0,0,.12.62,1.06,1.06,0,0,0,.33.45,1.42,1.42,0,0,0,.5.27,2.22,2.22,0,0,0,.65.09,1.77,1.77,0,0,0,.77-.16,1.93,1.93,0,0,0,.61-.46v.35l.05.11.14.06.32,0,.31,0,.16-.06.05-.11Zm-8.49,1.46c-.11.13-.2.24-.29.33a1.6,1.6,0,0,1-.26.22l-.25.12-.25,0a.7.7,0,0,1-.42-.12.89.89,0,0,1-.27-.33,2.06,2.06,0,0,1-.14-.46,3.29,3.29,0,0,1,0-.54,2.22,2.22,0,0,1,.06-.51,1.49,1.49,0,0,1,.15-.45.88.88,0,0,1,.28-.32.74.74,0,0,1,.42-.12.89.89,0,0,1,.51.17,2.8,2.8,0,0,1,.51.52Zm1.23-5,0-.09-.1-.06-.19,0h-.6l-.19,0-.09.06,0,.09V244a2.3,2.3,0,0,0-.6-.44,1.47,1.47,0,0,0-.67-.15,1.8,1.8,0,0,0-.82.18,1.52,1.52,0,0,0-.6.5,2.36,2.36,0,0,0-.37.8,4.19,4.19,0,0,0-.13,1,4.57,4.57,0,0,0,.1.93,2.32,2.32,0,0,0,.32.77,1.5,1.5,0,0,0,.57.52,1.68,1.68,0,0,0,.84.2,1.76,1.76,0,0,0,.83-.2,3.07,3.07,0,0,0,.71-.57v.49l0,.09.09.06.16,0h.5l.16,0,.08-.06,0-.09Zm-8.2,3.78a1.49,1.49,0,0,1,.07-.43,1,1,0,0,1,.18-.36.76.76,0,0,1,.29-.24.86.86,0,0,1,.41-.09.81.81,0,0,1,.69.3,1.27,1.27,0,0,1,.21.82Zm3.05.16a2.93,2.93,0,0,0-.12-.86,1.8,1.8,0,0,0-.37-.68,1.76,1.76,0,0,0-.64-.45,2.43,2.43,0,0,0-.94-.16,2.54,2.54,0,0,0-.94.17,2,2,0,0,0-.71.5,2.21,2.21,0,0,0-.44.8,3.41,3.41,0,0,0-.15,1,3.88,3.88,0,0,0,.14,1.08,2,2,0,0,0,.44.75,1.92,1.92,0,0,0,.74.45,3.2,3.2,0,0,0,1,.15,4,4,0,0,0,.61,0,4.4,4.4,0,0,0,.5-.1l.37-.12.17-.09.05-.07,0-.09,0-.13v-.39l0-.13-.05-.06-.07,0-.2.05a2.39,2.39,0,0,1-.29.1,3.34,3.34,0,0,1-.43.11,3.18,3.18,0,0,1-.57,0,1.52,1.52,0,0,1-.55-.08,1,1,0,0,1-.37-.24,1.07,1.07,0,0,1-.22-.39,2,2,0,0,1-.06-.51h2.67a.38.38,0,0,0,.28-.11.45.45,0,0,0,.1-.33Zm-6,.24,1.09-2,.05-.16-.05-.09-.19-.05h-.65l-.17,0-.09.05-.05.07-.78,1.47-.78-1.47-.06-.08-.11-.05-.2,0h-.35l-.38,0a.44.44,0,0,0-.2,0l-.07.09.05.15,1.12,2L309.89,248l0,.14.06.09.18,0,.35,0h.33l.2,0,.11-.06.05-.08.82-1.56.81,1.56.05.08.12.06.21,0h.36l.37,0a.57.57,0,0,0,.22,0l.07-.09,0-.14Zm-4.07-4.1a.84.84,0,0,0-.56-.14.81.81,0,0,0-.57.15.7.7,0,0,0-.15.52.64.64,0,0,0,.15.49.77.77,0,0,0,.56.14.89.89,0,0,0,.57-.14.72.72,0,0,0,.15-.52A.68.68,0,0,0,308.85,241.68Zm0,2,0-.09-.11-.06-.19,0-.3,0-.3,0-.19,0-.1.06,0,.09v4.38l0,.08.1.07.19,0,.3,0,.3,0,.19,0,.11-.07,0-.08Zm-2.38-1.31,0-.22-.09-.16-.16-.1-.23,0h-.87a1.51,1.51,0,0,0-.32,0,.7.7,0,0,0-.24.13.84.84,0,0,0-.18.23,2,2,0,0,0-.14.35l-1.43,3.79h0l-1.37-3.8a2,2,0,0,0-.14-.35.61.61,0,0,0-.2-.22.8.8,0,0,0-.28-.13,2.21,2.21,0,0,0-.39,0h-.84a.48.48,0,0,0-.36.13.52.52,0,0,0-.13.38v5.68l0,.09.09.06.19,0,.3,0,.3,0,.19,0,.1-.06,0-.09v-5.18h0l1.79,5.17.06.1.12.06.19,0,.29,0h.28l.2,0,.12-.07.06-.11,1.85-5.17h0v5.18l0,.09.09.06.19,0,.3,0,.3,0,.19,0,.09-.06,0-.09Z"/><rect class="c" x="307.97" y="38.41" width="5.49" height="5.49"/><path d="M339.05,37.23l0-.08-.1-.07-.19,0-.3,0-.3,0-.19,0-.1.07,0,.08v6.48l0,.08.1.06.19,0h.6l.19,0,.1-.06,0-.08Zm-3.75,5.36a2,2,0,0,1-.45.39.86.86,0,0,1-.48.13.66.66,0,0,1-.48-.16.54.54,0,0,1-.18-.43.68.68,0,0,1,.06-.29L334,42a1,1,0,0,1,.34-.13,2.54,2.54,0,0,1,.52,0h.47Zm1.21-1.82a2.59,2.59,0,0,0-.1-.78,1.27,1.27,0,0,0-.35-.54,1.43,1.43,0,0,0-.6-.31,3.31,3.31,0,0,0-.89-.1,3.43,3.43,0,0,0-.56,0,3.33,3.33,0,0,0-.5.12c-.16,0-.29.11-.41.16a1.09,1.09,0,0,0-.24.16l-.09.16a.78.78,0,0,0,0,.24l0,.21,0,.16.07.09.09,0,.21-.07a2.26,2.26,0,0,1,.31-.15,2.41,2.41,0,0,1,.43-.15,1.91,1.91,0,0,1,.56-.07,1.12,1.12,0,0,1,.39.05.56.56,0,0,1,.26.15.65.65,0,0,1,.14.26,1.79,1.79,0,0,1,0,.36v.26h-.43a5.26,5.26,0,0,0-1,.09,2.16,2.16,0,0,0-.74.28,1.17,1.17,0,0,0-.45.46,1.41,1.41,0,0,0-.15.67,1.49,1.49,0,0,0,.12.62,1.25,1.25,0,0,0,.33.45,1.47,1.47,0,0,0,.51.27,2.15,2.15,0,0,0,.64.09,1.93,1.93,0,0,0,.77-.16,2,2,0,0,0,.62-.46v.35l0,.11.14.06h.64l.15-.06.05-.11Zm-4.95-3.44a.84.84,0,0,0-.56-.14.81.81,0,0,0-.57.15.7.7,0,0,0-.15.52.65.65,0,0,0,.15.49.82.82,0,0,0,.56.14.89.89,0,0,0,.57-.14.72.72,0,0,0,.15-.52A.66.66,0,0,0,331.56,37.33Zm.06,2,0-.09-.11-.06-.18,0h-.61l-.18,0-.11.06,0,.09v4.38l0,.08.11.06.18,0h.61l.18,0,.11-.06,0-.08Zm-2,3.72,0-.14,0-.07-.06,0-.08,0-.1,0-.14,0H329a.43.43,0,0,1-.4-.18.93.93,0,0,1-.11-.53V40.15h1l.14-.11a1.18,1.18,0,0,0,.05-.39c0-.09,0-.17,0-.24l0-.15-.06-.09-.09,0h-.95v-1l0-.09-.1-.06-.19,0-.3,0-.3,0-.19,0-.1.06,0,.09v1h-.52l-.09,0-.06.09,0,.15c0,.07,0,.15,0,.24a1.18,1.18,0,0,0,.05.39l.14.11h.53V42.4a2.87,2.87,0,0,0,.08.7,1.22,1.22,0,0,0,.27.49,1,1,0,0,0,.44.29,2.06,2.06,0,0,0,.64.09h.28l.25,0,.2-.07.13-.08.07-.16a1.46,1.46,0,0,0,0-.34C329.62,43.18,329.61,43.11,329.61,43.05Zm-4-5.72a.87.87,0,0,0-.57-.14.8.8,0,0,0-.56.15.7.7,0,0,0-.15.52.65.65,0,0,0,.14.49.86.86,0,0,0,.56.14.87.87,0,0,0,.57-.14,1,1,0,0,0,0-1Zm.05,2,0-.09-.1-.06-.19,0h-.6l-.19,0-.1.06,0,.09v4.38l0,.08.1.06.19,0h.6l.19,0,.1-.06,0-.08ZM323.29,41a3.79,3.79,0,0,0-.08-.82,1.54,1.54,0,0,0-.28-.59,1.31,1.31,0,0,0-.49-.41,1.91,1.91,0,0,0-.76-.14,1.66,1.66,0,0,0-.78.19,2.78,2.78,0,0,0-.74.59v-.5l0-.09-.08-.06-.16,0h-.51l-.17,0-.09.06,0,.09v4.39l0,.08.1.06.19,0h.6l.19,0,.1-.06,0-.08V40.79a2.35,2.35,0,0,1,.5-.5.8.8,0,0,1,.48-.18.73.73,0,0,1,.33.08.47.47,0,0,1,.22.2.89.89,0,0,1,.14.31,2.14,2.14,0,0,1,.05.5v2.51l0,.08.09.06.19,0h.6l.19,0,.1-.06,0-.08Zm-5.46-3.32,0-.09-.11-.06-.19,0h-.63l-.2,0-.11.06,0,.09v6l0,.09.11.06.2,0h.63l.19,0,.11-.06,0-.09Z"/><rect class="b" x="307.97" y="56.49" width="5.49" height="5.49"/><path d="M349.07,62.41l-.17.21a1,1,0,0,1-.31.15,1.65,1.65,0,0,1-.47,0,1.63,1.63,0,0,1-.7-.12.41.41,0,0,1-.25-.38v-.15l.06-.15.13-.17.2-.18.88,0a.86.86,0,0,1,.49.13.37.37,0,0,1,.18.33Zm-.29-3.47a.72.72,0,0,1-.14.24.53.53,0,0,1-.23.16.79.79,0,0,1-.32.06.74.74,0,0,1-.55-.19.72.72,0,0,1-.2-.53.93.93,0,0,1,.05-.29.66.66,0,0,1,.13-.25.81.81,0,0,1,.23-.17.79.79,0,0,1,.32-.06.77.77,0,0,1,.56.2.74.74,0,0,1,.2.55A.87.87,0,0,1,348.78,58.94Zm1.58-1.68-.13-.11h-1.39l-.36-.07a2.42,2.42,0,0,0-.39,0,2.17,2.17,0,0,0-.74.11,1.64,1.64,0,0,0-.58.32,1.46,1.46,0,0,0-.37.51,1.67,1.67,0,0,0-.14.69,1.79,1.79,0,0,0,.1.6,1.49,1.49,0,0,0,.28.41,1.54,1.54,0,0,0-.34.43,1.08,1.08,0,0,0-.14.53.84.84,0,0,0,.45.73,1.64,1.64,0,0,0-.27.24,1.21,1.21,0,0,0-.2.26,1,1,0,0,0-.13.28,1.06,1.06,0,0,0,0,.31,1,1,0,0,0,.12.48,1,1,0,0,0,.37.38,2.11,2.11,0,0,0,.65.24,4.31,4.31,0,0,0,.95.09,3.78,3.78,0,0,0,1-.12,2.19,2.19,0,0,0,.72-.34,1.26,1.26,0,0,0,.42-.5,1.32,1.32,0,0,0,0-1.14,1.14,1.14,0,0,0-.3-.39,1.48,1.48,0,0,0-.5-.26,2.54,2.54,0,0,0-.66-.1l-1.07,0a.66.66,0,0,1-.35-.1.27.27,0,0,1-.13-.24l.05-.19.1-.16a.85.85,0,0,0,.3.12,1.34,1.34,0,0,0,.4.06,2.47,2.47,0,0,0,.75-.11,1.54,1.54,0,0,0,.58-.31,1.42,1.42,0,0,0,.37-.5,1.83,1.83,0,0,0,.12-.68,1.12,1.12,0,0,0,0-.32.74.74,0,0,0-.16-.27h.52l.13-.11a.76.76,0,0,0,.06-.35A.78.78,0,0,0,350.36,57.26Zm-5,1.74a3.79,3.79,0,0,0-.08-.82,1.69,1.69,0,0,0-.27-.59,1.43,1.43,0,0,0-.5-.41,1.91,1.91,0,0,0-.76-.14,1.66,1.66,0,0,0-.78.19,2.78,2.78,0,0,0-.74.59v-.5l0-.09-.08-.06-.16,0h-.51l-.17,0-.09.06,0,.09v4.39l0,.08.1.06.19,0h.6l.19,0,.1-.06,0-.08V58.79a2.35,2.35,0,0,1,.5-.5.8.8,0,0,1,.48-.18.73.73,0,0,1,.33.08.55.55,0,0,1,.23.2,1.11,1.11,0,0,1,.13.31,2.14,2.14,0,0,1,.05.5v2.51l0,.08.1.06.18,0h.61l.18,0,.1-.06,0-.08ZM340,55.33a.86.86,0,0,0-.56-.14.81.81,0,0,0-.57.15.7.7,0,0,0-.15.52.65.65,0,0,0,.15.49.82.82,0,0,0,.56.14.86.86,0,0,0,.56-.14.67.67,0,0,0,.16-.52A.66.66,0,0,0,340,55.33Zm0,2,0-.09-.1-.06-.19,0h-.6l-.19,0-.1.06,0,.09v4.38l0,.08.1.06.19,0h.6l.19,0,.1-.06,0-.08Zm-3.66,2.81a1.2,1.2,0,0,1-.19.46,1,1,0,0,1-.34.3,1.22,1.22,0,0,1-.49.1,1.13,1.13,0,0,1-.51-.11.9.9,0,0,1-.33-.31,1.44,1.44,0,0,1-.17-.48,2.77,2.77,0,0,1-.06-.6,2.35,2.35,0,0,1,.07-.62,1.34,1.34,0,0,1,.2-.47.79.79,0,0,1,.34-.29,1,1,0,0,1,.48-.1,1,1,0,0,1,.51.11.82.82,0,0,1,.33.31,1.71,1.71,0,0,1,.18.48,3.64,3.64,0,0,1,.05.6A2.35,2.35,0,0,1,336.36,60.14Zm1.2-1.71a1.87,1.87,0,0,0-.42-.76,1.67,1.67,0,0,0-.71-.47,2.9,2.9,0,0,0-1-.16,2.82,2.82,0,0,0-1,.18,2,2,0,0,0-.75.51,2.16,2.16,0,0,0-.45.8,3.33,3.33,0,0,0-.15,1,3.63,3.63,0,0,0,.13,1,2,2,0,0,0,.43.76,1.82,1.82,0,0,0,.72.48,3.08,3.08,0,0,0,1,.16,2.82,2.82,0,0,0,1.05-.18,2.1,2.1,0,0,0,.76-.52,2,2,0,0,0,.44-.8,3.73,3.73,0,0,0,0-2.06Zm-6.25,4-.17.21a1,1,0,0,1-.31.15,1.61,1.61,0,0,1-.47,0,1.63,1.63,0,0,1-.7-.12.41.41,0,0,1-.25-.38v-.15l.06-.15.13-.17.2-.18.88,0a.86.86,0,0,1,.49.13.37.37,0,0,1,.18.33ZM331,58.94a.72.72,0,0,1-.14.24.48.48,0,0,1-.23.16.79.79,0,0,1-.32.06.75.75,0,0,1-.55-.19.72.72,0,0,1-.19-.53.92.92,0,0,1,0-.29.56.56,0,0,1,.14-.25A.76.76,0,0,1,330,58a.83.83,0,0,1,.32-.06.77.77,0,0,1,.56.2.74.74,0,0,1,.2.55A.87.87,0,0,1,331,58.94Zm1.58-1.68-.13-.11h-1.39l-.36-.07a2.42,2.42,0,0,0-.39,0,2.17,2.17,0,0,0-.74.11,1.73,1.73,0,0,0-.58.32,1.46,1.46,0,0,0-.37.51,1.67,1.67,0,0,0-.14.69,1.57,1.57,0,0,0,.11.6,1.27,1.27,0,0,0,.27.41,1.74,1.74,0,0,0-.34.43,1.08,1.08,0,0,0-.14.53.76.76,0,0,0,.12.42.82.82,0,0,0,.33.31l-.27.24a1.21,1.21,0,0,0-.2.26,1,1,0,0,0-.13.28,1.55,1.55,0,0,0,0,.31,1,1,0,0,0,.12.48,1,1,0,0,0,.37.38,2.21,2.21,0,0,0,.65.24,4.31,4.31,0,0,0,.95.09,3.78,3.78,0,0,0,1-.12,2.19,2.19,0,0,0,.72-.34,1.26,1.26,0,0,0,.42-.5,1.32,1.32,0,0,0,0-1.14,1.14,1.14,0,0,0-.3-.39,1.48,1.48,0,0,0-.5-.26,2.54,2.54,0,0,0-.66-.1l-1.07,0a.66.66,0,0,1-.35-.1.27.27,0,0,1-.13-.24l0-.19.1-.16a.85.85,0,0,0,.3.12,1.34,1.34,0,0,0,.4.06,2.47,2.47,0,0,0,.75-.11,1.54,1.54,0,0,0,.58-.31,1.42,1.42,0,0,0,.37-.5,1.83,1.83,0,0,0,.12-.68,1.12,1.12,0,0,0,0-.32.74.74,0,0,0-.16-.27h.52l.13-.11a.76.76,0,0,0,.06-.35A.78.78,0,0,0,332.6,57.26ZM327.37,59a3.79,3.79,0,0,0-.08-.82,1.69,1.69,0,0,0-.27-.59,1.43,1.43,0,0,0-.5-.41,1.91,1.91,0,0,0-.76-.14,1.66,1.66,0,0,0-.78.19,2.78,2.78,0,0,0-.74.59v-.5l0-.09-.08-.06-.16,0h-.51l-.17,0-.09.06,0,.09v4.39l0,.08.1.06.19,0h.6l.19,0,.1-.06,0-.08V58.79a2.35,2.35,0,0,1,.5-.5.8.8,0,0,1,.48-.18.73.73,0,0,1,.33.08.47.47,0,0,1,.22.2.89.89,0,0,1,.14.31,2.14,2.14,0,0,1,.05.5v2.51l0,.08.09.06.19,0h.6l.19,0,.1-.06,0-.08Zm-6.55.55a2,2,0,0,1-.28.71,1.47,1.47,0,0,1-.51.48,1.63,1.63,0,0,1-.8.18,1.68,1.68,0,0,1-.79-.16,1.23,1.23,0,0,1-.51-.45,2,2,0,0,1-.26-.71,5.2,5.2,0,0,1-.08-.93,4.54,4.54,0,0,1,.08-.85,2.1,2.1,0,0,1,.28-.7,1.42,1.42,0,0,1,.52-.48,1.59,1.59,0,0,1,.79-.18,1.68,1.68,0,0,1,.79.16,1.23,1.23,0,0,1,.51.45,2,2,0,0,1,.26.7,4.38,4.38,0,0,1,.08.92A4,4,0,0,1,320.82,59.55Zm1.25-2.37a2.44,2.44,0,0,0-.56-1,2.3,2.3,0,0,0-.92-.6,4.15,4.15,0,0,0-1.28-.19,3.59,3.59,0,0,0-1.33.23,2.59,2.59,0,0,0-1,.67,3,3,0,0,0-.58,1.05,4.57,4.57,0,0,0-.2,1.39,4.88,4.88,0,0,0,.19,1.46,2.46,2.46,0,0,0,.55,1,2.21,2.21,0,0,0,.92.59,3.9,3.9,0,0,0,1.3.2,3.67,3.67,0,0,0,1.33-.23,2.52,2.52,0,0,0,1-.67,2.79,2.79,0,0,0,.58-1.06,4.41,4.41,0,0,0,.2-1.41A4.79,4.79,0,0,0,322.07,57.18Z"/></svg>