<svg xmlns="http://www.w3.org/2000/svg" viewBox="0 0 181.42 28.35"><defs><style>.a{fill:#9ca299;}.b{fill:#efeff0;}.c{fill:#fff;}</style></defs><title>janus-henderson-mm-active</title><polygon class="a" points="111.16 28.1 121.89 17.36 132.63 28.1 111.16 28.1"/><path class="b" d="M121.89,17.71,132,27.85H111.76l10.13-10.14m0-.7L110.55,28.35h22.68L121.89,17Z"/><path class="c" d="M122.1,26.5a1.12,1.12,0,0,1-1.29-1.21v-3.1h-.92v-1h.92V20l1.32-.39V21.2h1.61l-.38,1h-1.23V24.8c0,.41.15.6.49.6a1.73,1.73,0,0,0,.87-.29l.35.83A3.16,3.16,0,0,1,122.1,26.5Z"/></svg>