<svg xmlns="http://www.w3.org/2000/svg" viewBox="0 0 181.42 28.35"><defs><style>.a{fill:#9ca299;}.b{fill:#efeff0;}.c{fill:#fff;}</style></defs><title>governed-portfolio-adventurous-growth</title><polygon class="a" points="128.16 28.1 138.9 17.36 149.63 28.1 128.16 28.1"/><path class="b" d="M138.9,17.71,149,27.85H128.77L138.9,17.71m0-.7L127.56,28.35h22.68L138.9,17Z"/><path class="c" d="M139.1,26.5a1.12,1.12,0,0,1-1.28-1.21v-3.1h-.93v-1h.93V20l1.32-.39V21.2h1.61l-.38,1h-1.23V24.8c0,.41.15.6.49.6a1.73,1.73,0,0,0,.87-.29l.35.83A3.16,3.16,0,0,1,139.1,26.5Z"/></svg>