<svg xmlns="http://www.w3.org/2000/svg" viewBox="0 0 181.42 28.35"><defs><style>.a{fill:#9ca299;}.b{fill:#efeff0;}.c{fill:#fff;}</style></defs><title>morningstar-moderately-cautious-passive-portfolio</title><polygon class="a" points="45.96 28.1 56.69 17.36 67.43 28.1 45.96 28.1"/><path class="b" d="M56.69,17.71,66.82,27.85H46.56L56.69,17.71m0-.7L45.35,28.35H68L56.69,17Z"/><path class="c" d="M56.9,26.5a1.12,1.12,0,0,1-1.29-1.21v-3.1h-.92v-1h.92V20l1.32-.39V21.2h1.62l-.39,1H56.93V24.8c0,.41.16.6.5.6a1.66,1.66,0,0,0,.86-.29l.36.83A3.19,3.19,0,0,1,56.9,26.5Z"/></svg>