<svg xmlns="http://www.w3.org/2000/svg" viewBox="0 0 181.42 28.35"><defs><style>.a{fill:#9ca299;}.b{fill:#efeff0;}.c{fill:#fff;}</style></defs><title>morningstar-cautious-passive-portfolio</title><polygon class="a" points="26.11 28.1 36.85 17.36 47.59 28.1 26.11 28.1"/><path class="b" d="M36.85,17.71,47,27.85H26.72L36.85,17.71m0-.7L25.51,28.35H48.19L36.85,17Z"/><path class="c" d="M37.06,26.5a1.12,1.12,0,0,1-1.29-1.21v-3.1h-.92v-1h.92V20l1.32-.39V21.2H38.7l-.38,1H37.09V24.8c0,.41.15.6.49.6a1.73,1.73,0,0,0,.87-.29l.35.83A3.16,3.16,0,0,1,37.06,26.5Z"/></svg>