<svg xmlns="http://www.w3.org/2000/svg" viewBox="0 0 181.42 28.35"><defs><style>.a{fill:#9ca299;}.b{fill:#efeff0;}.c{fill:#fff;}</style></defs><title>morningstar-adventurous-active-portfolio</title><polygon class="a" points="131 28.1 141.73 17.36 152.47 28.1 131 28.1"/><path class="b" d="M141.73,17.71l10.13,10.14H131.6l10.13-10.14m0-.7L130.39,28.35h22.68L141.73,17Z"/><path class="c" d="M141.94,26.5a1.12,1.12,0,0,1-1.29-1.21v-3.1h-.92v-1h.92V20l1.32-.39V21.2h1.62l-.39,1H142V24.8c0,.41.15.6.5.6a1.69,1.69,0,0,0,.86-.29l.35.83A3.13,3.13,0,0,1,141.94,26.5Z"/></svg>