<svg xmlns="http://www.w3.org/2000/svg" viewBox="0 0 181.42 28.35"><defs><style>.a{fill:#9ca299;}.b{fill:#efeff0;}.c{fill:#fff;}</style></defs><title>mps-dynamic-beta-5</title><polygon class="a" points="102.65 28.1 113.39 17.36 124.12 28.1 102.65 28.1"/><path class="b" d="M113.39,17.71l10.13,10.14H103.25l10.14-10.14m0-.7L102.05,28.35h22.67L113.39,17Z"/><path class="c" d="M113.59,26.5a1.12,1.12,0,0,1-1.28-1.21v-3.1h-.93v-1h.93V20l1.31-.39V21.2h1.62l-.39,1h-1.23V24.8c0,.41.16.6.5.6a1.73,1.73,0,0,0,.87-.29l.35.83A3.16,3.16,0,0,1,113.59,26.5Z"/></svg>