<svg xmlns="http://www.w3.org/2000/svg" viewBox="0 0 181.42 28.35"><defs><style>.a{fill:#9ca299;}.b{fill:#efeff0;}.c{fill:#fff;}</style></defs><title>mps-growth-7</title><polygon class="a" points="136.67 28.1 147.4 17.36 158.14 28.1 136.67 28.1"/><path class="b" d="M147.4,17.71l10.13,10.14H137.27L147.4,17.71m0-.7L136.06,28.35h22.68L147.4,17Z"/><path class="c" d="M147.61,26.5a1.12,1.12,0,0,1-1.29-1.21v-3.1h-.92v-1h.92V20l1.32-.39V21.2h1.62l-.39,1h-1.23V24.8c0,.41.15.6.49.6a1.73,1.73,0,0,0,.87-.29l.35.83A3.13,3.13,0,0,1,147.61,26.5Z"/></svg>