<svg xmlns="http://www.w3.org/2000/svg" viewBox="0 0 181.42 28.35"><defs><style>.a{fill:#9ca299;}.b{fill:#efeff0;}.c{fill:#fff;}.d{fill:#00a1c1;}</style></defs><title>dynamic-passive-1</title><polygon class="a" points="48.79 28.1 59.53 17.36 70.26 28.1 48.79 28.1"/><path class="b" d="M59.53,17.71,69.66,27.85H49.4L59.53,17.71m0-.7L48.19,28.35H70.87L59.53,17Z"/><path class="c" d="M59.73,26.5a1.12,1.12,0,0,1-1.28-1.21v-3.1h-.93v-1h.93V20l1.32-.39V21.2h1.61l-.38,1H59.77V24.8c0,.41.15.6.49.6a1.73,1.73,0,0,0,.87-.29l.35.83A3.16,3.16,0,0,1,59.73,26.5Z"/><polygon class="d" points="37.45 0.25 58.92 0.25 48.19 10.98 37.45 0.25"/><path class="b" d="M58.32.5,48.19,10.63,38.06.5H58.32M59.53,0H36.85L48.19,11.34,59.53,0Z"/><path class="c" d="M48.09,7.28a3.53,3.53,0,0,1-1.92-.49l.43-1A2.51,2.51,0,0,0,48,6.29c.54,0,.89-.2.89-.55,0-.94-2.39-.58-2.39-2.35,0-.9.71-1.54,2-1.54A4.05,4.05,0,0,1,50,2.11v1.1a4.06,4.06,0,0,0-1.47-.34c-.46,0-.74.14-.74.45,0,.83,2.44.55,2.44,2.34C50.21,6.83,49.19,7.28,48.09,7.28Z"/></svg>