<svg xmlns="http://www.w3.org/2000/svg" viewBox="0 0 181.42 28.35"><defs><style>.a{fill:#9ca299;}.b{fill:#efeff0;}.c{fill:#fff;}.d{fill:#00a1c1;}</style></defs><title>mps-ris-medium-high-risk</title><polygon class="a" points="108.32 28.1 119.06 17.36 129.79 28.1 108.32 28.1"/><path class="b" d="M119.06,17.71l10.13,10.14H108.92l10.14-10.14m0-.7L107.72,28.35h22.67L119.06,17Z"/><path class="c" d="M119.26,26.5A1.12,1.12,0,0,1,118,25.29v-3.1h-.93v-1H118V20l1.31-.39V21.2h1.62l-.39,1h-1.23V24.8c0,.41.16.6.5.6a1.73,1.73,0,0,0,.87-.29l.35.83A3.16,3.16,0,0,1,119.26,26.5Z"/><polygon class="d" points="116.82 0.25 138.29 0.25 127.56 10.98 116.82 0.25"/><path class="b" d="M137.69.5,127.56,10.63,117.43.5h20.26M138.9,0H116.22l11.34,11.34L138.9,0Z"/><path class="c" d="M127.46,7.28a3.53,3.53,0,0,1-1.92-.49l.43-1a2.51,2.51,0,0,0,1.39.46c.54,0,.89-.2.89-.55,0-.94-2.39-.58-2.39-2.35,0-.9.71-1.54,2-1.54a4.05,4.05,0,0,1,1.53.26v1.1a4.06,4.06,0,0,0-1.47-.34c-.46,0-.74.14-.74.45,0,.83,2.44.55,2.44,2.34C129.58,6.83,128.56,7.28,127.46,7.28Z"/></svg>