<svg xmlns="http://www.w3.org/2000/svg" viewBox="0 0 181.42 28.35"><defs><style>.a{fill:#9ca299;}.b{fill:#efeff0;}.c{fill:#fff;}</style></defs><title>vds-sw-6</title><polygon class="a" points="88.48 28.1 99.21 17.36 109.95 28.1 88.48 28.1"/><path class="b" d="M99.21,17.71l10.13,10.14H89.08L99.21,17.71m0-.7L87.87,28.35h22.68L99.21,17Z"/><path class="c" d="M99.42,26.5a1.12,1.12,0,0,1-1.29-1.21v-3.1h-.92v-1h.92V20l1.32-.39V21.2h1.62l-.39,1H99.45V24.8c0,.41.15.6.5.6a1.66,1.66,0,0,0,.86-.29l.36.83A3.19,3.19,0,0,1,99.42,26.5Z"/></svg>