<svg xmlns="http://www.w3.org/2000/svg" viewBox="0 0 181.42 28.35"><defs><style>.a{fill:#00a1c1;}.b{fill:#efeff0;}.c{fill:#fff;}</style></defs><title>multi-asset-allocator-defensive</title><polygon class="a" points="60.13 0.25 81.6 0.25 70.87 10.98 60.13 0.25"/><path class="b" d="M81,.5,70.87,10.63,60.73.5H81M82.2,0H59.53L70.87,11.34,82.2,0Z"/><path class="c" d="M70.77,7.28a3.59,3.59,0,0,1-1.93-.49l.43-1a2.57,2.57,0,0,0,1.4.46c.54,0,.89-.2.89-.55,0-.94-2.4-.58-2.4-2.35,0-.9.72-1.54,2-1.54a4.05,4.05,0,0,1,1.53.26v1.1a4.12,4.12,0,0,0-1.48-.34c-.46,0-.73.14-.73.45,0,.83,2.44.55,2.44,2.34C72.89,6.83,71.87,7.28,70.77,7.28Z"/></svg>