<svg xmlns="http://www.w3.org/2000/svg" viewBox="0 0 181.42 28.35"><defs><style>.a{fill:#9ca299;}.b{fill:#efeff0;}.c{fill:#fff;}.d{fill:#00a1c1;}</style></defs><title>hsbc-global-sustainable-multi-asset-conservative-portfolio</title><polygon class="a" points="60.13 28.1 70.87 17.36 81.6 28.1 60.13 28.1"/><path class="b" d="M70.87,17.71,81,27.85H60.73L70.87,17.71m0-.7L59.53,28.35H82.2L70.87,17Z"/><path class="c" d="M71.07,26.5a1.12,1.12,0,0,1-1.28-1.21v-3.1h-.93v-1h.93V20l1.31-.39V21.2h1.62l-.38,1H71.1V24.8c0,.41.16.6.5.6a1.73,1.73,0,0,0,.87-.29l.35.83A3.16,3.16,0,0,1,71.07,26.5Z"/><polygon class="d" points="62.97 0.25 84.44 0.25 73.7 10.98 62.97 0.25"/><path class="b" d="M83.83.5,73.7,10.63,63.57.5H83.83M85,0H62.36L73.7,11.34,85,0Z"/><path class="c" d="M73.6,7.28a3.53,3.53,0,0,1-1.92-.49l.43-1a2.54,2.54,0,0,0,1.39.46c.54,0,.89-.2.89-.55,0-.94-2.39-.58-2.39-2.35,0-.9.71-1.54,2-1.54a4,4,0,0,1,1.53.26v1.1A4.06,4.06,0,0,0,74,2.87c-.46,0-.74.14-.74.45,0,.83,2.44.55,2.44,2.34C75.72,6.83,74.7,7.28,73.6,7.28Z"/></svg>