<svg xmlns="http://www.w3.org/2000/svg" viewBox="0 0 181.42 28.35"><defs><style>.a{fill:#9ca299;}.b{fill:#efeff0;}.c{fill:#fff;}.d{fill:#00a1c1;}</style></defs><title>cazenove-equity-risk-active-passive-portfolio</title><polygon class="a" points="125.33 28.1 136.06 17.36 146.8 28.1 125.33 28.1"/><path class="b" d="M136.06,17.71l10.13,10.14H125.93l10.13-10.14m0-.7L124.72,28.35H147.4L136.06,17Z"/><path class="c" d="M136.27,26.5A1.12,1.12,0,0,1,135,25.29v-3.1h-.92v-1H135V20l1.32-.39V21.2h1.62l-.39,1H136.3V24.8c0,.41.16.6.5.6a1.66,1.66,0,0,0,.86-.29l.36.83A3.19,3.19,0,0,1,136.27,26.5Z"/><polygon class="d" points="125.33 0.25 146.8 0.25 136.06 10.98 125.33 0.25"/><path class="b" d="M146.19.5,136.06,10.63,125.93.5h20.26M147.4,0H124.72l11.34,11.34L147.4,0Z"/><path class="c" d="M136,7.28A3.56,3.56,0,0,1,134,6.79l.43-1a2.54,2.54,0,0,0,1.4.46c.53,0,.89-.2.89-.55,0-.94-2.4-.58-2.4-2.35,0-.9.71-1.54,2-1.54a4,4,0,0,1,1.52.26v1.1a4.06,4.06,0,0,0-1.47-.34c-.46,0-.73.14-.73.45,0,.83,2.43.55,2.43,2.34C138.08,6.83,137.06,7.28,136,7.28Z"/></svg>