<svg xmlns="http://www.w3.org/2000/svg" viewBox="0 0 181.42 28.35"><defs><style>.a{fill:#00a1c1;}.b{fill:#efeff0;}.c{fill:#fff;}</style></defs><title>strategy-6-adventurous</title><polygon class="a" points="88.48 0.25 109.95 0.25 99.21 10.98 88.48 0.25"/><path class="b" d="M109.34.5,99.21,10.63,89.08.5h20.26m1.21-.5H87.87L99.21,11.34,110.55,0Z"/><path class="c" d="M99.11,7.28a3.56,3.56,0,0,1-1.92-.49l.43-1A2.54,2.54,0,0,0,99,6.29c.54,0,.89-.2.89-.55,0-.94-2.39-.58-2.39-2.35,0-.9.71-1.54,2-1.54a4,4,0,0,1,1.52.26v1.1a4.06,4.06,0,0,0-1.47-.34c-.46,0-.73.14-.73.45,0,.83,2.43.55,2.43,2.34C101.23,6.83,100.21,7.28,99.11,7.28Z"/></svg>