<svg xmlns="http://www.w3.org/2000/svg" viewBox="0 0 181.42 28.35"><defs><style>.a{fill:#9ca299;}.b{fill:#efeff0;}.c{fill:#fff;}</style></defs><title>ma-active-dynamic</title><polygon class="a" points="156.51 28.1 167.24 17.36 177.98 28.1 156.51 28.1"/><path class="b" d="M167.24,17.71l10.14,10.14H157.11l10.13-10.14m0-.7L155.91,28.35h22.67L167.24,17Z"/><path class="c" d="M167.45,26.5a1.12,1.12,0,0,1-1.29-1.21v-3.1h-.92v-1h.92V20l1.32-.39V21.2h1.62l-.39,1h-1.23V24.8c0,.41.16.6.5.6a1.66,1.66,0,0,0,.86-.29l.36.83A3.16,3.16,0,0,1,167.45,26.5Z"/></svg>