<svg xmlns="http://www.w3.org/2000/svg" viewBox="0 0 181.42 28.35"><defs><style>.a{fill:#9ca299;}.b{fill:#efeff0;}.c{fill:#fff;}.d{fill:#00a1c1;}</style></defs><title>investec-global-multi-asset-total-return-fund</title><polygon class="a" points="43.12 28.1 53.86 17.36 64.59 28.1 43.12 28.1"/><path class="b" d="M53.86,17.71,64,27.85H43.73L53.86,17.71m0-.7L42.52,28.35H65.2L53.86,17Z"/><path class="c" d="M54.06,26.5a1.12,1.12,0,0,1-1.28-1.21v-3.1h-.92v-1h.92V20l1.32-.39V21.2h1.61l-.38,1H54.1V24.8c0,.41.15.6.49.6a1.73,1.73,0,0,0,.87-.29l.35.83A3.16,3.16,0,0,1,54.06,26.5Z"/><polygon class="d" points="71.47 0.25 92.94 0.25 82.2 10.98 71.47 0.25"/><path class="b" d="M92.34.5,82.2,10.63,72.07.5H92.34m1.2-.5H70.87L82.2,11.34,93.54,0Z"/><path class="c" d="M82.11,7.28a3.57,3.57,0,0,1-1.93-.49l.43-1a2.57,2.57,0,0,0,1.4.46c.54,0,.89-.2.89-.55,0-.94-2.4-.58-2.4-2.35,0-.9.72-1.54,2-1.54A4.05,4.05,0,0,1,84,2.11v1.1a4.12,4.12,0,0,0-1.48-.34c-.46,0-.73.14-.73.45,0,.83,2.44.55,2.44,2.34C84.23,6.83,83.2,7.28,82.11,7.28Z"/></svg>