<svg xmlns="http://www.w3.org/2000/svg" viewBox="0 0 181.42 28.35"><defs><style>.a{fill:#00a1c1;}.b{fill:#efeff0;}.c{fill:#fff;}</style></defs><title>strategy-1-defensive</title><polygon class="a" points="48.79 0.25 70.26 0.25 59.53 10.98 48.79 0.25"/><path class="b" d="M69.66.5,59.53,10.63,49.4.5H69.66M70.87,0H48.19L59.53,11.34,70.87,0Z"/><path class="c" d="M59.43,7.28a3.53,3.53,0,0,1-1.92-.49l.42-1a2.57,2.57,0,0,0,1.4.46c.54,0,.89-.2.89-.55,0-.94-2.4-.58-2.4-2.35,0-.9.72-1.54,2-1.54a4.05,4.05,0,0,1,1.53.26v1.1a4.06,4.06,0,0,0-1.47-.34c-.47,0-.74.14-.74.45,0,.83,2.44.55,2.44,2.34C61.55,6.83,60.53,7.28,59.43,7.28Z"/></svg>