<svg xmlns="http://www.w3.org/2000/svg" viewBox="0 0 181.42 28.35"><defs><style>.a{fill:#00a1c1;}.b{fill:#efeff0;}.c{fill:#fff;}</style></defs><title>strategy-7-maximum-growth</title><polygon class="a" points="108.32 0.25 129.79 0.25 119.06 10.98 108.32 0.25"/><path class="b" d="M129.19.5,119.06,10.63,108.92.5h20.27m1.2-.5H107.72l11.34,11.34L130.39,0Z"/><path class="c" d="M119,7.28A3.57,3.57,0,0,1,117,6.79l.43-1a2.57,2.57,0,0,0,1.4.46c.54,0,.89-.2.89-.55,0-.94-2.4-.58-2.4-2.35,0-.9.72-1.54,2-1.54a4.05,4.05,0,0,1,1.53.26v1.1a4.12,4.12,0,0,0-1.48-.34c-.46,0-.73.14-.73.45,0,.83,2.44.55,2.44,2.34C121.08,6.83,120.05,7.28,119,7.28Z"/></svg>