<svg xmlns="http://www.w3.org/2000/svg" viewBox="0 0 181.42 28.35"><defs><style>.a{fill:#00a1c1;}.b{fill:#efeff0;}.c{fill:#fff;}</style></defs><title>tilney-platform-model-strategic-income</title><polygon class="a" points="74.31 0.25 95.77 0.25 85.04 10.98 74.31 0.25"/><path class="b" d="M95.17.5,85,10.63,74.91.5H95.17M96.38,0H73.7L85,11.34,96.38,0Z"/><path class="c" d="M84.94,7.28A3.53,3.53,0,0,1,83,6.79l.43-1a2.54,2.54,0,0,0,1.39.46c.54,0,.89-.2.89-.55,0-.94-2.39-.58-2.39-2.35,0-.9.71-1.54,2-1.54a4.05,4.05,0,0,1,1.53.26v1.1a4.06,4.06,0,0,0-1.47-.34c-.46,0-.74.14-.74.45,0,.83,2.44.55,2.44,2.34C87.06,6.83,86,7.28,84.94,7.28Z"/></svg>