<svg xmlns="http://www.w3.org/2000/svg" viewBox="0 0 181.42 28.35"><defs><style>.a{fill:#9ca299;}.b{fill:#efeff0;}.c{fill:#fff;}</style></defs><title>prufund-protected-cautious</title><polygon class="a" points="48.79 28.1 59.53 17.36 70.26 28.1 48.79 28.1"/><path class="b" d="M59.53,17.71,69.66,27.85H49.4L59.53,17.71m0-.7L48.19,28.35H70.87L59.53,17Z"/><path class="c" d="M59.73,26.5a1.12,1.12,0,0,1-1.28-1.21v-3.1h-.93v-1h.93V20l1.32-.39V21.2h1.61l-.38,1H59.77V24.8c0,.41.15.6.49.6a1.73,1.73,0,0,0,.87-.29l.35.83A3.16,3.16,0,0,1,59.73,26.5Z"/></svg>