<svg xmlns="http://www.w3.org/2000/svg" viewBox="0 0 181.42 28.35"><defs><style>.a{fill:#9ca299;}.b{fill:#efeff0;}.c{fill:#fff;}</style></defs><title>risk-managed-passive-3</title><polygon class="a" points="62.97 28.1 73.7 17.36 84.44 28.1 62.97 28.1"/><path class="b" d="M73.7,17.71,83.83,27.85H63.57L73.7,17.71m0-.7L62.36,28.35H85L73.7,17Z"/><path class="c" d="M73.91,26.5a1.12,1.12,0,0,1-1.29-1.21v-3.1H71.7v-1h.92V20l1.32-.39V21.2h1.61l-.38,1H73.94V24.8c0,.41.15.6.49.6a1.73,1.73,0,0,0,.87-.29l.35.83A3.16,3.16,0,0,1,73.91,26.5Z"/></svg>