<svg xmlns="http://www.w3.org/2000/svg" viewBox="0 0 181.42 28.35"><defs><style>.a{fill:#9ca299;}.b{fill:#efeff0;}.c{fill:#fff;}</style></defs><title>thesis-optima-income</title><polygon class="a" points="60.13 28.1 70.87 17.36 81.6 28.1 60.13 28.1"/><path class="b" d="M70.87,17.71,81,27.85H60.73L70.87,17.71m0-.7L59.53,28.35H82.2L70.87,17Z"/><path class="c" d="M71.07,26.5a1.12,1.12,0,0,1-1.28-1.21v-3.1h-.93v-1h.93V20l1.31-.39V21.2h1.62l-.38,1H71.1V24.8c0,.41.16.6.5.6a1.73,1.73,0,0,0,.87-.29l.35.83A3.16,3.16,0,0,1,71.07,26.5Z"/></svg>