<svg xmlns="http://www.w3.org/2000/svg" viewBox="0 0 23.62 20.41"><defs><style>.a,.e{fill:none;}.a{stroke:#0086ab;stroke-linecap:round;stroke-linejoin:round;stroke-width:0.5px;}.b{fill:#0086ab;}.c{fill:#fff;}.d{fill:#ea8b2d;}</style></defs><path class="a" d="M11.81,11.9h0"/><rect class="b" x="3.31" y="3.4" width="17.01" height="17.01"/><path class="c" d="M9.69,14.49a3.24,3.24,0,0,0,1.6.46c1.26,0,1.65-.8,1.64-1.4,0-1-.92-1.45-1.87-1.45h-.55v-.74h.55c.71,0,1.61-.36,1.61-1.22,0-.58-.36-1.09-1.26-1.09A2.6,2.6,0,0,0,10,9.53L9.7,8.81a3.5,3.5,0,0,1,1.89-.55c1.43,0,2.08.84,2.08,1.72a1.81,1.81,0,0,1-1.34,1.71v0A1.9,1.9,0,0,1,14,13.57c0,1.16-.91,2.17-2.65,2.17a3.63,3.63,0,0,1-1.88-.49Z"/><rect class="d" x="0.47" width="6.61" height="6.61"/><rect class="e" width="23.62" height="20.41"/></svg>