<svg xmlns="http://www.w3.org/2000/svg" viewBox="0 0 23.62 20.32"><defs><style>.a{fill:#ea8b2d;}.b{fill:#fff;}.c{fill:#0086ab;}.d{fill:none;}</style></defs><rect class="a" x="3.31" y="3.31" width="17.01" height="17.01"/><path class="b" d="M9.46,15.52v-.6l.76-.74c1.85-1.76,2.69-2.7,2.7-3.79A1.3,1.3,0,0,0,11.48,9,2.45,2.45,0,0,0,10,9.59L9.63,8.9a3.17,3.17,0,0,1,2-.74,2,2,0,0,1,2.22,2.11c0,1.33-1,2.41-2.49,3.88l-.58.54v0h3.25v.81Z"/><rect class="c" x="17.01" width="6.61" height="6.61"/><rect class="d" width="23.62" height="20.32"/></svg>