<svg xmlns="http://www.w3.org/2000/svg" viewBox="0 0 181.42 28.35"><defs><style>.a{fill:#00a1c1;}.b{fill:#efeff0;}.c{fill:#fff;}</style></defs><title>investec-uk-alpha</title><polygon class="a" points="131 0.25 152.47 0.25 141.73 10.98 131 0.25"/><path class="b" d="M151.86.5,141.73,10.63,131.6.5h20.26m1.21-.5H130.39l11.34,11.34L153.07,0Z"/><path class="c" d="M141.63,7.28a3.56,3.56,0,0,1-1.92-.49l.43-1a2.54,2.54,0,0,0,1.39.46c.54,0,.89-.2.89-.55,0-.94-2.39-.58-2.39-2.35,0-.9.71-1.54,2-1.54a4,4,0,0,1,1.52.26v1.1a4.06,4.06,0,0,0-1.47-.34c-.46,0-.74.14-.74.45,0,.83,2.44.55,2.44,2.34C143.75,6.83,142.73,7.28,141.63,7.28Z"/></svg>