<svg xmlns="http://www.w3.org/2000/svg" viewBox="0 0 181.42 28.35"><defs><style>.a{fill:#9ca299;}.b{fill:#efeff0;}.c{fill:#fff;}.d{fill:#00a1c1;}</style></defs><title>rsmr-rfolio-adventurous</title><polygon class="a" points="119.66 28.1 130.39 17.36 141.13 28.1 119.66 28.1"/><path class="b" d="M130.39,17.71l10.14,10.14H120.26l10.13-10.14m0-.7L119.06,28.35h22.67L130.39,17Z"/><path class="c" d="M130.6,26.5a1.12,1.12,0,0,1-1.29-1.21v-3.1h-.92v-1h.92V20l1.32-.39V21.2h1.62l-.39,1h-1.23V24.8c0,.41.16.6.5.6a1.66,1.66,0,0,0,.86-.29l.36.83A3.19,3.19,0,0,1,130.6,26.5Z"/><polygon class="d" points="113.99 0.25 135.46 0.25 124.72 10.98 113.99 0.25"/><path class="b" d="M134.86.5,124.72,10.63,114.59.5h20.27m1.2-.5H113.39l11.33,11.34L136.06,0Z"/><path class="c" d="M124.63,7.28a3.57,3.57,0,0,1-1.93-.49l.43-1a2.57,2.57,0,0,0,1.4.46c.53,0,.89-.2.89-.55,0-.94-2.4-.58-2.4-2.35,0-.9.72-1.54,2-1.54a4.05,4.05,0,0,1,1.53.26v1.1A4.17,4.17,0,0,0,125,2.87c-.46,0-.73.14-.73.45,0,.83,2.44.55,2.44,2.34C126.75,6.83,125.72,7.28,124.63,7.28Z"/></svg>