<svg xmlns="http://www.w3.org/2000/svg" viewBox="0 0 181.42 28.35"><defs><style>.a{fill:#9ca299;}.b{fill:#efeff0;}.c{fill:#fff;}.d{fill:#00a1c1;}</style></defs><title>rsmr-rfolio-cautious</title><polygon class="a" points="57.3 28.1 68.03 17.36 78.77 28.1 57.3 28.1"/><path class="b" d="M68,17.71,78.16,27.85H57.9L68,17.71m0-.7L56.69,28.35H79.37L68,17Z"/><path class="c" d="M68.24,26.5A1.12,1.12,0,0,1,67,25.29v-3.1H66v-1H67V20l1.32-.39V21.2h1.62l-.39,1H68.27V24.8c0,.41.15.6.49.6a1.73,1.73,0,0,0,.87-.29l.35.83A3.13,3.13,0,0,1,68.24,26.5Z"/><polygon class="d" points="54.46 0.25 75.93 0.25 65.2 10.98 54.46 0.25"/><path class="b" d="M75.33.5,65.2,10.63,55.07.5H75.33M76.54,0H53.86L65.2,11.34,76.54,0Z"/><path class="c" d="M65.1,7.28a3.53,3.53,0,0,1-1.92-.49l.42-1a2.57,2.57,0,0,0,1.4.46c.54,0,.89-.2.89-.55,0-.94-2.4-.58-2.4-2.35,0-.9.72-1.54,2-1.54A4.05,4.05,0,0,1,67,2.11v1.1a4.11,4.11,0,0,0-1.47-.34c-.47,0-.74.14-.74.45,0,.83,2.44.55,2.44,2.34C67.22,6.83,66.2,7.28,65.1,7.28Z"/></svg>