<svg xmlns="http://www.w3.org/2000/svg" viewBox="0 0 181.42 28.35"><defs><style>.a{fill:#9ca299;}.b{fill:#efeff0;}.c{fill:#fff;}.d{fill:#00a1c1;}</style></defs><title>rsmr-rfolio-prudent</title><polygon class="a" points="65.8 28.1 76.54 17.36 87.27 28.1 65.8 28.1"/><path class="b" d="M76.54,17.71,86.67,27.85H66.4L76.54,17.71m0-.7L65.2,28.35H87.87L76.54,17Z"/><path class="c" d="M76.74,26.5a1.12,1.12,0,0,1-1.28-1.21v-3.1h-.93v-1h.93V20l1.31-.39V21.2h1.62l-.39,1H76.77V24.8c0,.41.16.6.5.6a1.73,1.73,0,0,0,.87-.29l.35.83A3.16,3.16,0,0,1,76.74,26.5Z"/><polygon class="d" points="65.8 0.25 87.27 0.25 76.54 10.98 65.8 0.25"/><path class="b" d="M86.67.5,76.54,10.63,66.4.5H86.67m1.2-.5H65.2L76.54,11.34,87.87,0Z"/><path class="c" d="M76.44,7.28a3.57,3.57,0,0,1-1.93-.49l.43-1a2.57,2.57,0,0,0,1.4.46c.54,0,.89-.2.89-.55,0-.94-2.4-.58-2.4-2.35,0-.9.72-1.54,2-1.54a4.05,4.05,0,0,1,1.53.26v1.1a4.12,4.12,0,0,0-1.48-.34c-.46,0-.73.14-.73.45,0,.83,2.44.55,2.44,2.34C78.56,6.83,77.54,7.28,76.44,7.28Z"/></svg>