<svg xmlns="http://www.w3.org/2000/svg" viewBox="0 0 181.42 28.35"><defs><style>.a{fill:#9ca299;}.b{fill:#efeff0;}.c{fill:#fff;}.d{fill:#00a1c1;}</style></defs><title>vt-aj-bell-income-fund</title><polygon class="a" points="45.96 28.1 56.69 17.36 67.43 28.1 45.96 28.1"/><path class="b" d="M56.69,17.71,66.82,27.85H46.56L56.69,17.71m0-.7L45.35,28.35H68L56.69,17Z"/><path class="c" d="M56.9,26.5a1.12,1.12,0,0,1-1.29-1.21v-3.1h-.92v-1h.92V20l1.32-.39V21.2h1.62l-.39,1H56.93V24.8c0,.41.16.6.5.6a1.66,1.66,0,0,0,.86-.29l.36.83A3.19,3.19,0,0,1,56.9,26.5Z"/><polygon class="d" points="45.96 0.25 67.43 0.25 56.69 10.98 45.96 0.25"/><path class="b" d="M66.82.5,56.69,10.63,46.56.5H66.82M68,0H45.35L56.69,11.34,68,0Z"/><path class="c" d="M56.59,7.28a3.56,3.56,0,0,1-1.92-.49l.43-1a2.54,2.54,0,0,0,1.4.46c.53,0,.89-.2.89-.55,0-.94-2.4-.58-2.4-2.35,0-.9.71-1.54,2-1.54a4,4,0,0,1,1.52.26v1.1A4.06,4.06,0,0,0,57,2.87c-.46,0-.73.14-.73.45,0,.83,2.43.55,2.43,2.34C58.71,6.83,57.69,7.28,56.59,7.28Z"/></svg>