<svg id="fc0d68f6-6569-4e7c-ba75-98c5c7a1d414" data-name="Layer 1" xmlns="http://www.w3.org/2000/svg" xmlns:xlink="http://www.w3.org/1999/xlink" width="727" height="391.36" viewBox="0 0 727 391.36"><defs><clipPath id="b4a1660c-65fd-47a0-9675-44a43e40fae7"><rect x="46.15" width="680.6" height="328.39" style="fill:none"/></clipPath></defs><path d="M47,23H725.9M47,67.21H725.9M47,109.75H725.9M47,154H725.9M47,198.23H725.9M47,240.76H725.9M47,285H725.9" style="fill:none;stroke:#d9d9d9;stroke-linejoin:round;stroke-width:1.2759969759977665px"/><line x1="47" y1="327.54" x2="725.9" y2="327.54" style="fill:none;stroke:#d9d9d9;stroke-linejoin:round;stroke-width:1.2759969759977665px"/><path d="M724.2,327.54v5.11m-56.15-5.11v5.11m-57.85-5.11v5.11m-54.45-5.11v5.11m-57.85-5.11v5.11m-52.75-5.11v5.11M389,327.54v5.11m-57.85-5.11v5.11M275,327.54v5.11m-57.85-5.11v5.11m-54.45-5.11v5.11m-57.85-5.11v5.11M47,327.54v5.11" style="fill:none;stroke:#d9d9d9;stroke-linejoin:round;stroke-width:1.2759969759977665px"/><g style="clip-path:url(#b4a1660c-65fd-47a0-9675-44a43e40fae7)"><polyline points="47.85 294.36 49.55 285.85 51.25 279.05 52.95 280.75 54.66 279.05 61.46 273.94 63.16 272.24 64.86 267.14 66.57 277.35 68.27 280.75 73.37 275.64 75.07 280.75 78.48 272.24 80.18 273.94 81.88 268.84 86.98 263.74 88.69 262.03 90.39 256.93 92.09 251.82 93.79 251.82 100.6 250.12 102.3 255.23 104 245.02 105.7 246.72 107.4 246.72 112.51 245.02 114.21 243.32 115.91 246.72 119.31 243.32 121.02 241.62 126.12 234.81 127.82 231.41 129.52 224.6 131.22 222.9 132.93 217.79 139.73 219.5 141.43 212.69 143.13 200.78 144.84 229.71 146.54 234.81 151.64 234.81 153.34 255.23 155.04 241.62 156.75 253.53 160.15 253.53 165.25 245.02 166.96 239.91 168.66 243.32 170.36 250.12 172.06 258.63 177.16 267.14 180.57 258.63 182.27 277.35 183.97 273.94 185.67 263.74 190.78 251.82 192.48 255.23 194.18 248.42 195.88 245.02 197.58 251.82 204.39 239.91 206.09 250.12 207.79 236.51 209.49 231.41 211.19 224.6 216.3 210.99 218 216.09 221.4 221.2 223.11 222.9 224.81 222.9 229.91 234.81 231.61 231.41 233.31 233.11 235.02 229.71 236.72 226.3 243.52 239.91 245.22 243.32 246.93 268.84 248.63 260.33 250.33 268.84 255.44 260.33 257.13 248.42 258.84 231.41 260.54 216.09 263.94 217.79 269.05 207.59 270.75 209.29 272.45 204.18 274.15 210.99 275.85 200.78 280.96 192.27 284.36 195.68 286.06 204.18 287.76 200.78 289.46 205.88 294.57 202.48 296.27 188.87 297.97 190.57 299.67 190.57 301.38 188.87 308.18 192.27 309.88 183.76 311.58 182.06 313.29 182.06 314.99 175.26 320.09 176.96 321.79 175.26 325.19 182.06 326.9 182.06 328.6 183.76 333.7 187.17 335.41 176.96 337.11 175.26 338.81 170.15 340.51 173.55 347.32 176.96 349.02 178.66 350.72 176.96 352.42 175.26 354.12 175.26 359.23 168.45 360.93 170.15 362.63 168.45 366.03 163.35 367.73 163.35 372.84 175.26 374.54 170.15 376.24 165.05 377.94 153.14 379.64 148.03 386.45 153.14 388.15 153.14 389.85 151.44 391.55 154.84 393.26 159.94 398.36 159.94 400.06 154.84 401.76 142.93 403.46 142.93 406.87 144.63 411.97 141.23 413.67 142.93 415.38 165.05 417.08 156.54 418.78 171.85 423.88 159.94 427.29 148.03 428.99 148.03 430.69 137.82 432.39 134.42 437.5 129.32 439.2 129.32 440.9 129.32 442.6 129.32 444.3 124.21 451.11 124.21 452.81 124.21 454.51 125.91 456.21 129.32 457.91 131.02 463.02 137.82 464.72 136.12 468.12 125.91 469.82 148.03 471.52 151.44 476.63 131.02 478.33 137.82 480.03 149.73 481.74 159.94 483.44 144.63 490.24 149.73 491.94 137.82 493.64 132.72 495.35 124.21 497.05 122.51 502.15 117.41 503.85 119.11 505.56 115.7 507.26 129.32 510.66 129.32 515.76 122.51 517.47 129.32 519.17 134.42 520.87 129.32 522.57 115.7 527.68 117.41 531.08 119.11 532.78 115.7 534.48 105.49 536.18 105.49 541.29 93.58 542.99 93.58 544.69 93.58 546.39 88.48 548.09 81.67 554.9 81.67 556.6 79.97 558.3 83.38 560 73.17 561.7 69.76 566.81 74.87 568.51 81.67 571.91 73.17 573.62 81.67 575.32 71.47 580.42 69.76 582.12 69.76 583.82 69.76 585.53 64.66 587.23 71.47 594.03 68.06 595.73 74.87 597.44 73.17 599.14 66.36 600.84 59.55 605.95 69.76 607.65 76.57 609.35 96.99 612.75 85.08 614.45 73.17 619.56 74.87 621.26 81.67 622.96 85.08 624.66 74.87 626.36 76.57 633.17 68.06 634.87 69.76 636.57 68.06 638.27 66.36 639.98 66.36 645.08 66.36 646.78 66.36 648.48 64.66 650.18 68.06 653.59 59.55 658.69 61.26 660.39 61.26 662.09 62.96 663.79 57.85 665.5 56.15 670.6 54.45 674 56.15 675.71 61.26 677.41 61.26 679.11 73.17 684.21 61.26 685.92 56.15 687.62 57.85 689.32 52.75 691.02 49.34 697.83 47.64 699.53 45.94 701.23 45.94 702.93 40.84 704.63 34.03 709.74 34.03 711.44 35.73 713.14 32.33 716.54 40.84 718.24 28.93 723.35 27.22 725.05 30.63" style="fill:none;stroke:#16182f;stroke-linecap:round;stroke-linejoin:round;stroke-width:3.8279909279932993px"/></g><path d="M1.91,329.22l1.2-.16a2.6,2.6,0,0,0,.7,1.47A1.72,1.72,0,0,0,5,331a1.94,1.94,0,0,0,1.43-.59A2,2,0,0,0,7,328.94a1.84,1.84,0,0,0-.54-1.36,1.88,1.88,0,0,0-1.37-.53,3.38,3.38,0,0,0-.84.13l.13-1.05h.19A2.52,2.52,0,0,0,6,325.75a1.37,1.37,0,0,0,.61-1.23,1.46,1.46,0,0,0-.44-1.09A1.58,1.58,0,0,0,5,323a1.65,1.65,0,0,0-1.17.44,2.14,2.14,0,0,0-.59,1.32L2,324.54a3,3,0,0,1,1-1.87A2.86,2.86,0,0,1,5,322a3.18,3.18,0,0,1,1.47.34,2.48,2.48,0,0,1,1,.94,2.43,2.43,0,0,1,.35,1.25,2,2,0,0,1-.34,1.15,2.31,2.31,0,0,1-1,.83,2.25,2.25,0,0,1,1.34.82,2.54,2.54,0,0,1,.48,1.58,2.87,2.87,0,0,1-.93,2.16A3.29,3.29,0,0,1,5,332a3,3,0,0,1-2.13-.77A2.94,2.94,0,0,1,1.91,329.22Z" style="fill:#5a5a5a"/><path d="M9.35,331.79v-1.36h1.37v1.36a2.42,2.42,0,0,1-.27,1.22,1.8,1.8,0,0,1-.84.71l-.33-.51a1.1,1.1,0,0,0,.55-.49,2,2,0,0,0,.2-.93Z" style="fill:#5a5a5a"/><path d="M13.81,327a8.8,8.8,0,0,1,.36-2.78,3.44,3.44,0,0,1,1.06-1.63A2.68,2.68,0,0,1,17,322a2.93,2.93,0,0,1,1.38.32,2.56,2.56,0,0,1,1,.91,4.83,4.83,0,0,1,.61,1.45,9.85,9.85,0,0,1,.22,2.3,8.82,8.82,0,0,1-.36,2.77,3.37,3.37,0,0,1-1,1.62A2.68,2.68,0,0,1,17,332a2.67,2.67,0,0,1-2.21-1A6.36,6.36,0,0,1,13.81,327ZM15,327a6.14,6.14,0,0,0,.56,3.19,1.61,1.61,0,0,0,2.78,0,9.39,9.39,0,0,0,0-6.39A1.67,1.67,0,0,0,17,323a1.53,1.53,0,0,0-1.32.7A6.19,6.19,0,0,0,15,327Z" style="fill:#5a5a5a"/><path d="M20.62,327a8.8,8.8,0,0,1,.36-2.78A3.43,3.43,0,0,1,22,322.58,2.72,2.72,0,0,1,23.8,322a2.86,2.86,0,0,1,1.37.32,2.59,2.59,0,0,1,1,.91,4.83,4.83,0,0,1,.61,1.45A9.85,9.85,0,0,1,27,327a8.82,8.82,0,0,1-.36,2.77,3.37,3.37,0,0,1-1.05,1.62,3,3,0,0,1-4-.43A6.43,6.43,0,0,1,20.62,327Zm1.23,0a6.14,6.14,0,0,0,.56,3.19,1.67,1.67,0,0,0,1.39.8,1.64,1.64,0,0,0,1.38-.8,9.24,9.24,0,0,0,0-6.39,1.65,1.65,0,0,0-1.39-.79,1.53,1.53,0,0,0-1.32.7A6.19,6.19,0,0,0,21.85,327Z" style="fill:#5a5a5a"/><path d="M29.12,327a9.14,9.14,0,0,1,.35-2.78,3.44,3.44,0,0,1,1.06-1.63,2.72,2.72,0,0,1,1.76-.57,2.87,2.87,0,0,1,1.38.32,2.66,2.66,0,0,1,1,.91,4.83,4.83,0,0,1,.6,1.45,9.33,9.33,0,0,1,.22,2.3,9.16,9.16,0,0,1-.35,2.77,3.52,3.52,0,0,1-1,1.62,3,3,0,0,1-4-.43A6.43,6.43,0,0,1,29.12,327Zm1.23,0a6,6,0,0,0,.56,3.19,1.6,1.6,0,0,0,2.77,0,9.39,9.39,0,0,0,0-6.39,1.65,1.65,0,0,0-1.4-.79,1.5,1.5,0,0,0-1.31.7A6.09,6.09,0,0,0,30.35,327Z" style="fill:#5a5a5a"/><path d="M1.91,285l1.2-.16a2.6,2.6,0,0,0,.7,1.47,1.72,1.72,0,0,0,1.2.45,1.94,1.94,0,0,0,1.43-.59A2,2,0,0,0,7,284.7a1.84,1.84,0,0,0-.54-1.36,1.88,1.88,0,0,0-1.37-.53,3.38,3.38,0,0,0-.84.13l.13-1.05.19,0a2.53,2.53,0,0,0,1.38-.4,1.37,1.37,0,0,0,.61-1.23,1.48,1.48,0,0,0-.44-1.09A1.58,1.58,0,0,0,5,278.75a1.65,1.65,0,0,0-1.17.44,2.17,2.17,0,0,0-.59,1.32L2,280.3a3.06,3.06,0,0,1,1-1.87A2.86,2.86,0,0,1,5,277.77a3.31,3.31,0,0,1,1.47.34,2.48,2.48,0,0,1,1,.94,2.43,2.43,0,0,1,.35,1.25,2,2,0,0,1-.34,1.15,2.31,2.31,0,0,1-1,.83,2.29,2.29,0,0,1,1.34.82,2.54,2.54,0,0,1,.48,1.58,2.87,2.87,0,0,1-.93,2.16,3.29,3.29,0,0,1-2.35.89A3,3,0,0,1,2.88,287,2.94,2.94,0,0,1,1.91,285Z" style="fill:#5a5a5a"/><path d="M9.35,287.56v-1.37h1.37v1.37a2.38,2.38,0,0,1-.27,1.21,1.75,1.75,0,0,1-.84.71L9.28,289a1.1,1.1,0,0,0,.55-.49,2,2,0,0,0,.2-.92Z" style="fill:#5a5a5a"/><path d="M20.1,286.41v1.15H13.66a2.18,2.18,0,0,1,.14-.84,4.36,4.36,0,0,1,.79-1.29A12.11,12.11,0,0,1,16.15,284a13.15,13.15,0,0,0,2.15-2.06,2.5,2.5,0,0,0,.56-1.44,1.61,1.61,0,0,0-.51-1.2,1.82,1.82,0,0,0-1.33-.49,1.86,1.86,0,0,0-1.38.52,2,2,0,0,0-.52,1.44l-1.23-.13a3,3,0,0,1,.95-2.1,3.23,3.23,0,0,1,2.21-.72,3.08,3.08,0,0,1,2.22.78,2.58,2.58,0,0,1,.82,1.93,2.93,2.93,0,0,1-.24,1.15,4.68,4.68,0,0,1-.8,1.19,20.6,20.6,0,0,1-1.84,1.71,17.06,17.06,0,0,0-1.38,1.23,3.3,3.3,0,0,0-.51.65Z" style="fill:#5a5a5a"/><path d="M20.62,282.75A8.8,8.8,0,0,1,21,280,3.48,3.48,0,0,1,22,278.34a2.72,2.72,0,0,1,1.77-.57,2.86,2.86,0,0,1,1.37.32,2.59,2.59,0,0,1,1,.91,4.83,4.83,0,0,1,.61,1.45,9.91,9.91,0,0,1,.22,2.3,8.78,8.78,0,0,1-.36,2.77,3.45,3.45,0,0,1-1.05,1.63,3,3,0,0,1-4-.44A6.43,6.43,0,0,1,20.62,282.75Zm1.23,0a6.14,6.14,0,0,0,.56,3.19,1.67,1.67,0,0,0,1.39.8,1.64,1.64,0,0,0,1.38-.8,9.24,9.24,0,0,0,0-6.39,1.67,1.67,0,0,0-1.39-.79,1.53,1.53,0,0,0-1.32.7A6.19,6.19,0,0,0,21.85,282.75Z" style="fill:#5a5a5a"/><path d="M29.12,282.75a9.14,9.14,0,0,1,.35-2.78,3.49,3.49,0,0,1,1.06-1.63,2.72,2.72,0,0,1,1.76-.57,2.87,2.87,0,0,1,1.38.32,2.66,2.66,0,0,1,1,.91,4.83,4.83,0,0,1,.6,1.45,9.38,9.38,0,0,1,.22,2.3,9.12,9.12,0,0,1-.35,2.77,3.61,3.61,0,0,1-1,1.63,2.73,2.73,0,0,1-1.78.57,2.69,2.69,0,0,1-2.21-1A6.43,6.43,0,0,1,29.12,282.75Zm1.23,0a6,6,0,0,0,.56,3.19,1.6,1.6,0,0,0,2.77,0,9.39,9.39,0,0,0,0-6.39,1.68,1.68,0,0,0-1.4-.79,1.5,1.5,0,0,0-1.31.7A6.09,6.09,0,0,0,30.35,282.75Z" style="fill:#5a5a5a"/><path d="M1.91,242.45l1.2-.16a2.6,2.6,0,0,0,.7,1.46,1.72,1.72,0,0,0,1.2.45,1.93,1.93,0,0,0,1.43-.58A2,2,0,0,0,7,242.17a1.82,1.82,0,0,0-.54-1.36,1.85,1.85,0,0,0-1.37-.54,3.47,3.47,0,0,0-.84.14l.13-1.06.19,0A2.45,2.45,0,0,0,6,239a1.37,1.37,0,0,0,.61-1.23,1.48,1.48,0,0,0-.44-1.09A1.58,1.58,0,0,0,5,236.22a1.61,1.61,0,0,0-1.17.44A2.14,2.14,0,0,0,3.23,238L2,237.76a3,3,0,0,1,1-1.86A2.82,2.82,0,0,1,5,235.23a3.19,3.19,0,0,1,1.47.35,2.42,2.42,0,0,1,1.38,2.19,2,2,0,0,1-.34,1.15,2.29,2.29,0,0,1-1,.82,2.26,2.26,0,0,1,1.34.83,2.51,2.51,0,0,1,.48,1.57,2.87,2.87,0,0,1-.93,2.16,3.25,3.25,0,0,1-2.35.89,3,3,0,0,1-2.13-.76A2.94,2.94,0,0,1,1.91,242.45Z" style="fill:#5a5a5a"/><path d="M9.35,245v-1.36h1.37V245a2.38,2.38,0,0,1-.27,1.21,1.77,1.77,0,0,1-.84.72l-.33-.52a1.13,1.13,0,0,0,.55-.48A2.07,2.07,0,0,0,10,245Z" style="fill:#5a5a5a"/><path d="M17.65,245v-2.33H13.42v-1.1l4.45-6.32h1v6.32h1.32v1.1H18.84V245Zm0-3.43v-4.4l-3,4.4Z" style="fill:#5a5a5a"/><path d="M20.62,240.21a8.8,8.8,0,0,1,.36-2.78A3.44,3.44,0,0,1,22,235.81a2.68,2.68,0,0,1,1.77-.58,2.86,2.86,0,0,1,1.37.32,2.59,2.59,0,0,1,1,.91,5,5,0,0,1,.61,1.45,10,10,0,0,1,.22,2.3,8.73,8.73,0,0,1-.36,2.77,3.4,3.4,0,0,1-1.05,1.63,2.72,2.72,0,0,1-1.77.57,2.67,2.67,0,0,1-2.22-1A6.43,6.43,0,0,1,20.62,240.21Zm1.23,0a6.19,6.19,0,0,0,.56,3.2,1.66,1.66,0,0,0,1.39.79,1.64,1.64,0,0,0,1.38-.8,9.21,9.21,0,0,0,0-6.38,1.66,1.66,0,0,0-1.39-.8,1.56,1.56,0,0,0-1.32.7A6.21,6.21,0,0,0,21.85,240.21Z" style="fill:#5a5a5a"/><path d="M29.12,240.21a9.14,9.14,0,0,1,.35-2.78,3.46,3.46,0,0,1,1.06-1.62,2.67,2.67,0,0,1,1.76-.58,2.87,2.87,0,0,1,1.38.32,2.66,2.66,0,0,1,1,.91,4.94,4.94,0,0,1,.6,1.45,9.44,9.44,0,0,1,.22,2.3,9.07,9.07,0,0,1-.35,2.77,3.55,3.55,0,0,1-1,1.63,2.73,2.73,0,0,1-1.78.57,2.67,2.67,0,0,1-2.21-1A6.43,6.43,0,0,1,29.12,240.21Zm1.23,0a6.08,6.08,0,0,0,.56,3.2,1.6,1.6,0,0,0,2.77,0,9.37,9.37,0,0,0,0-6.38,1.66,1.66,0,0,0-1.4-.8,1.53,1.53,0,0,0-1.31.7A6.11,6.11,0,0,0,30.35,240.21Z" style="fill:#5a5a5a"/><path d="M1.91,198.21l1.2-.16a2.57,2.57,0,0,0,.7,1.46A1.72,1.72,0,0,0,5,200a1.93,1.93,0,0,0,1.43-.58A2,2,0,0,0,7,197.93a1.82,1.82,0,0,0-.54-1.36A1.85,1.85,0,0,0,5.11,196a3.47,3.47,0,0,0-.84.14l.13-1h.19a2.45,2.45,0,0,0,1.38-.4,1.37,1.37,0,0,0,.61-1.23,1.48,1.48,0,0,0-.44-1.09A1.58,1.58,0,0,0,5,192a1.61,1.61,0,0,0-1.17.44,2.14,2.14,0,0,0-.59,1.31L2,193.52a3,3,0,0,1,1-1.86A2.87,2.87,0,0,1,5,191a3.19,3.19,0,0,1,1.47.35,2.52,2.52,0,0,1,1,.93,2.47,2.47,0,0,1,.35,1.26,2,2,0,0,1-.34,1.15,2.29,2.29,0,0,1-1,.82,2.26,2.26,0,0,1,1.34.83,2.51,2.51,0,0,1,.48,1.57,2.87,2.87,0,0,1-.93,2.16A3.25,3.25,0,0,1,5,201a3,3,0,0,1-2.13-.76A2.94,2.94,0,0,1,1.91,198.21Z" style="fill:#5a5a5a"/><path d="M9.35,200.78v-1.36h1.37v1.36a2.38,2.38,0,0,1-.27,1.21,1.77,1.77,0,0,1-.84.72l-.33-.52a1.13,1.13,0,0,0,.55-.48,2.07,2.07,0,0,0,.2-.93Z" style="fill:#5a5a5a"/><path d="M20,193.42l-1.19.09a2.21,2.21,0,0,0-.45-1,1.69,1.69,0,0,0-2.2-.19,2.67,2.67,0,0,0-.89,1.2,6.25,6.25,0,0,0-.34,2.25,2.8,2.8,0,0,1,1.06-1,2.73,2.73,0,0,1,1.31-.32,2.7,2.7,0,0,1,2,.88,3.15,3.15,0,0,1,.84,2.27,3.8,3.8,0,0,1-.39,1.71,3,3,0,0,1-1.09,1.21,2.94,2.94,0,0,1-1.57.41,3.06,3.06,0,0,1-2.44-1.1,5.53,5.53,0,0,1-.94-3.62,6.56,6.56,0,0,1,1-4.11A3,3,0,0,1,17.26,191,2.62,2.62,0,0,1,20,193.42Zm-4.88,4.2a2.67,2.67,0,0,0,.26,1.18,2,2,0,0,0,.73.87,1.92,1.92,0,0,0,1,.29,1.7,1.7,0,0,0,1.31-.61,2.42,2.42,0,0,0,.54-1.66,2.22,2.22,0,0,0-.54-1.59,1.77,1.77,0,0,0-1.35-.59,1.86,1.86,0,0,0-1.38.59A2.05,2.05,0,0,0,15.14,197.62Z" style="fill:#5a5a5a"/><path d="M20.62,196a8.8,8.8,0,0,1,.36-2.78A3.44,3.44,0,0,1,22,191.57,2.73,2.73,0,0,1,23.8,191a2.86,2.86,0,0,1,1.37.32,2.59,2.59,0,0,1,1,.91,5,5,0,0,1,.61,1.45A10,10,0,0,1,27,196a8.73,8.73,0,0,1-.36,2.77,3.4,3.4,0,0,1-1.05,1.63,2.72,2.72,0,0,1-1.77.57,2.67,2.67,0,0,1-2.22-1A6.43,6.43,0,0,1,20.62,196Zm1.23,0a6.19,6.19,0,0,0,.56,3.2,1.66,1.66,0,0,0,1.39.79,1.62,1.62,0,0,0,1.38-.8,9.21,9.21,0,0,0,0-6.38,1.65,1.65,0,0,0-1.39-.79,1.55,1.55,0,0,0-1.32.69A6.21,6.21,0,0,0,21.85,196Z" style="fill:#5a5a5a"/><path d="M29.12,196a9.14,9.14,0,0,1,.35-2.78,3.46,3.46,0,0,1,1.06-1.62,2.72,2.72,0,0,1,1.76-.58,2.87,2.87,0,0,1,1.38.32,2.66,2.66,0,0,1,1,.91,4.94,4.94,0,0,1,.6,1.45,9.44,9.44,0,0,1,.22,2.3,9.07,9.07,0,0,1-.35,2.77,3.55,3.55,0,0,1-1,1.63,2.73,2.73,0,0,1-1.78.57,2.67,2.67,0,0,1-2.21-1A6.43,6.43,0,0,1,29.12,196Zm1.23,0a6.08,6.08,0,0,0,.56,3.2,1.6,1.6,0,0,0,2.77,0,9.37,9.37,0,0,0,0-6.38,1.65,1.65,0,0,0-1.4-.79,1.52,1.52,0,0,0-1.31.69A6.11,6.11,0,0,0,30.35,196Z" style="fill:#5a5a5a"/><path d="M1.91,155.67l1.2-.16a2.6,2.6,0,0,0,.7,1.47,1.76,1.76,0,0,0,1.2.44,1.93,1.93,0,0,0,1.43-.58A2,2,0,0,0,7,155.39a1.83,1.83,0,0,0-1.91-1.89,3.38,3.38,0,0,0-.84.13l.13-1h.19a2.45,2.45,0,0,0,1.38-.4A1.35,1.35,0,0,0,6.58,151a1.48,1.48,0,0,0-.44-1.09A1.62,1.62,0,0,0,5,149.44a1.65,1.65,0,0,0-1.17.44,2.14,2.14,0,0,0-.59,1.32L2,151a3,3,0,0,1,1-1.86A2.86,2.86,0,0,1,5,148.46a3.18,3.18,0,0,1,1.47.34A2.42,2.42,0,0,1,7.81,151a2,2,0,0,1-.34,1.15,2.23,2.23,0,0,1-1,.82,2.31,2.31,0,0,1,1.34.83,2.51,2.51,0,0,1,.48,1.57,2.89,2.89,0,0,1-.93,2.17,3.28,3.28,0,0,1-2.35.88,3,3,0,0,1-2.13-.76A2.94,2.94,0,0,1,1.91,155.67Z" style="fill:#5a5a5a"/><path d="M9.35,158.24v-1.36h1.37v1.36a2.36,2.36,0,0,1-.27,1.21,1.77,1.77,0,0,1-.84.72l-.33-.51a1.15,1.15,0,0,0,.55-.49,2,2,0,0,0,.2-.93Z" style="fill:#5a5a5a"/><path d="M15.65,153a2.25,2.25,0,0,1-1.1-.78,2,2,0,0,1-.36-1.21,2.38,2.38,0,0,1,.77-1.79,2.83,2.83,0,0,1,2-.72,2.81,2.81,0,0,1,2.05.74,2.38,2.38,0,0,1,.78,1.8,2,2,0,0,1-.35,1.18,2.23,2.23,0,0,1-1.08.78,2.48,2.48,0,0,1,1.83,2.5,2.8,2.8,0,0,1-.88,2.1,3.26,3.26,0,0,1-2.33.85,3.22,3.22,0,0,1-2.33-.86,2.84,2.84,0,0,1-.88-2.13,2.59,2.59,0,0,1,.48-1.59A2.37,2.37,0,0,1,15.65,153ZM15,155.43a2.19,2.19,0,0,0,.24,1,1.66,1.66,0,0,0,.72.74,2.08,2.08,0,0,0,1,.26,1.91,1.91,0,0,0,1.42-.55,2,2,0,0,0,0-2.83,1.94,1.94,0,0,0-1.44-.56,1.88,1.88,0,0,0-2,2Zm.39-4.5a1.5,1.5,0,0,0,.44,1.13,1.59,1.59,0,0,0,1.16.44,1.54,1.54,0,0,0,1.13-.44,1.44,1.44,0,0,0,.44-1.06,1.51,1.51,0,0,0-.45-1.11,1.67,1.67,0,0,0-2.27,0A1.41,1.41,0,0,0,15.42,150.93Z" style="fill:#5a5a5a"/><path d="M20.62,153.44a8.87,8.87,0,0,1,.36-2.79A3.44,3.44,0,0,1,22,149a2.72,2.72,0,0,1,1.77-.57,2.86,2.86,0,0,1,1.37.31,2.67,2.67,0,0,1,1,.91,5,5,0,0,1,.61,1.45,10,10,0,0,1,.22,2.31,8.71,8.71,0,0,1-.36,2.76,3.35,3.35,0,0,1-1.05,1.63,3,3,0,0,1-4-.43A6.43,6.43,0,0,1,20.62,153.44Zm1.23,0a6.14,6.14,0,0,0,.56,3.19,1.66,1.66,0,0,0,1.39.79,1.63,1.63,0,0,0,1.38-.79,9.24,9.24,0,0,0,0-6.39,1.65,1.65,0,0,0-1.39-.79,1.53,1.53,0,0,0-1.32.7A6.19,6.19,0,0,0,21.85,153.44Z" style="fill:#5a5a5a"/><path d="M29.12,153.44a9.21,9.21,0,0,1,.35-2.79A3.46,3.46,0,0,1,30.53,149a2.72,2.72,0,0,1,1.76-.57,2.87,2.87,0,0,1,1.38.31,2.75,2.75,0,0,1,1,.91,4.94,4.94,0,0,1,.6,1.45,9.47,9.47,0,0,1,.22,2.31,9,9,0,0,1-.35,2.76,3.5,3.5,0,0,1-1,1.63,3,3,0,0,1-4-.43A6.43,6.43,0,0,1,29.12,153.44Zm1.23,0a6,6,0,0,0,.56,3.19,1.61,1.61,0,0,0,2.77,0,9.39,9.39,0,0,0,0-6.39,1.65,1.65,0,0,0-1.4-.79,1.5,1.5,0,0,0-1.31.7A6.09,6.09,0,0,0,30.35,153.44Z" style="fill:#5a5a5a"/><path d="M5.74,114v-2.33H1.51v-1.1L6,104.26h1v6.31H8.25v1.1H6.93V114Zm0-3.43v-4.39l-3.05,4.39Z" style="fill:#5a5a5a"/><path d="M9.35,114v-1.36h1.37V114a2.42,2.42,0,0,1-.27,1.22,1.8,1.8,0,0,1-.84.71l-.33-.51a1.1,1.1,0,0,0,.55-.49A2,2,0,0,0,10,114Z" style="fill:#5a5a5a"/><path d="M13.81,109.2a8.8,8.8,0,0,1,.36-2.78,3.44,3.44,0,0,1,1.06-1.63,2.68,2.68,0,0,1,1.76-.57,2.92,2.92,0,0,1,1.38.31,2.67,2.67,0,0,1,1,.92,4.88,4.88,0,0,1,.61,1.44,10,10,0,0,1,.22,2.31,8.82,8.82,0,0,1-.36,2.77,3.37,3.37,0,0,1-1,1.62,2.68,2.68,0,0,1-1.77.58,2.67,2.67,0,0,1-2.21-1A6.36,6.36,0,0,1,13.81,109.2Zm1.23,0a6.14,6.14,0,0,0,.56,3.19,1.61,1.61,0,0,0,2.78,0,6.17,6.17,0,0,0,.56-3.19,6.16,6.16,0,0,0-.56-3.2,1.67,1.67,0,0,0-1.4-.79,1.53,1.53,0,0,0-1.32.7A6.19,6.19,0,0,0,15,109.2Z" style="fill:#5a5a5a"/><path d="M20.62,109.2a8.8,8.8,0,0,1,.36-2.78A3.43,3.43,0,0,1,22,104.79a2.72,2.72,0,0,1,1.77-.57,2.86,2.86,0,0,1,1.37.31,2.69,2.69,0,0,1,1,.92,4.88,4.88,0,0,1,.61,1.44A10,10,0,0,1,27,109.2a8.82,8.82,0,0,1-.36,2.77,3.37,3.37,0,0,1-1.05,1.62,3,3,0,0,1-4-.43A6.43,6.43,0,0,1,20.62,109.2Zm1.23,0a6.14,6.14,0,0,0,.56,3.19,1.67,1.67,0,0,0,1.39.8,1.64,1.64,0,0,0,1.38-.8,6,6,0,0,0,.57-3.19,6,6,0,0,0-.57-3.2,1.65,1.65,0,0,0-1.39-.79,1.53,1.53,0,0,0-1.32.7A6.19,6.19,0,0,0,21.85,109.2Z" style="fill:#5a5a5a"/><path d="M29.12,109.2a9.14,9.14,0,0,1,.35-2.78,3.44,3.44,0,0,1,1.06-1.63,2.72,2.72,0,0,1,1.76-.57,2.87,2.87,0,0,1,1.38.31,2.78,2.78,0,0,1,1,.92,4.88,4.88,0,0,1,.6,1.44,9.47,9.47,0,0,1,.22,2.31,9.16,9.16,0,0,1-.35,2.77,3.52,3.52,0,0,1-1,1.62,3,3,0,0,1-4-.43A6.43,6.43,0,0,1,29.12,109.2Zm1.23,0a6,6,0,0,0,.56,3.19,1.6,1.6,0,0,0,2.77,0,6.07,6.07,0,0,0,.56-3.19,6.06,6.06,0,0,0-.56-3.2,1.65,1.65,0,0,0-1.4-.79,1.5,1.5,0,0,0-1.31.7A6.09,6.09,0,0,0,30.35,109.2Z" style="fill:#5a5a5a"/><path d="M5.74,69.77V67.43H1.51V66.34L6,60h1v6.32H8.25v1.09H6.93v2.34Zm0-3.43v-4.4l-3.05,4.4Z" style="fill:#5a5a5a"/><path d="M9.35,69.77V68.4h1.37v1.37A2.38,2.38,0,0,1,10.45,71a1.7,1.7,0,0,1-.84.71l-.33-.51a1.1,1.1,0,0,0,.55-.49,2,2,0,0,0,.2-.92Z" style="fill:#5a5a5a"/><path d="M20.1,68.62v1.15H13.66a2.1,2.1,0,0,1,.14-.83,4.28,4.28,0,0,1,.79-1.3,12.11,12.11,0,0,1,1.56-1.48A12.74,12.74,0,0,0,18.3,64.1a2.5,2.5,0,0,0,.56-1.44,1.61,1.61,0,0,0-.51-1.2A1.86,1.86,0,0,0,17,61a1.9,1.9,0,0,0-1.38.52,2,2,0,0,0-.52,1.44l-1.23-.13a3,3,0,0,1,.95-2.1A3.23,3.23,0,0,1,17.05,60a3.08,3.08,0,0,1,2.22.78,2.58,2.58,0,0,1,.82,1.93,2.93,2.93,0,0,1-.24,1.15,4.68,4.68,0,0,1-.8,1.19,19.2,19.2,0,0,1-1.84,1.71A17.06,17.06,0,0,0,15.83,68a3.3,3.3,0,0,0-.51.65Z" style="fill:#5a5a5a"/><path d="M20.62,65A8.8,8.8,0,0,1,21,62.18,3.53,3.53,0,0,1,22,60.55,2.72,2.72,0,0,1,23.8,60a2.86,2.86,0,0,1,1.37.32,2.59,2.59,0,0,1,1,.91,4.83,4.83,0,0,1,.61,1.45A9.91,9.91,0,0,1,27,65a8.78,8.78,0,0,1-.36,2.77,3.45,3.45,0,0,1-1.05,1.63,2.72,2.72,0,0,1-1.77.57,2.67,2.67,0,0,1-2.22-1A6.43,6.43,0,0,1,20.62,65Zm1.23,0a6.14,6.14,0,0,0,.56,3.19,1.67,1.67,0,0,0,1.39.8,1.64,1.64,0,0,0,1.38-.8A6,6,0,0,0,25.75,65a6.06,6.06,0,0,0-.57-3.2A1.67,1.67,0,0,0,23.79,61a1.56,1.56,0,0,0-1.32.7A6.19,6.19,0,0,0,21.85,65Z" style="fill:#5a5a5a"/><path d="M29.12,65a9.14,9.14,0,0,1,.35-2.78,3.54,3.54,0,0,1,1.06-1.63A2.72,2.72,0,0,1,32.29,60a2.87,2.87,0,0,1,1.38.32,2.66,2.66,0,0,1,1,.91,4.83,4.83,0,0,1,.6,1.45,9.38,9.38,0,0,1,.22,2.3,9.12,9.12,0,0,1-.35,2.77,3.61,3.61,0,0,1-1,1.63,2.73,2.73,0,0,1-1.78.57,2.67,2.67,0,0,1-2.21-1A6.43,6.43,0,0,1,29.12,65Zm1.23,0a6,6,0,0,0,.56,3.19,1.6,1.6,0,0,0,2.77,0A6,6,0,0,0,34.24,65a6.08,6.08,0,0,0-.56-3.2,1.68,1.68,0,0,0-1.4-.79,1.53,1.53,0,0,0-1.31.7A6.09,6.09,0,0,0,30.35,65Z" style="fill:#5a5a5a"/><path d="M5.74,27.23V24.9H1.51V23.8L6,17.48h1V23.8H8.25v1.1H6.93v2.33Zm0-3.43V19.41L2.69,23.8Z" style="fill:#5a5a5a"/><path d="M9.35,27.23V25.87h1.37v1.36a2.38,2.38,0,0,1-.27,1.21,1.77,1.77,0,0,1-.84.72l-.33-.52a1.13,1.13,0,0,0,.55-.48,2.07,2.07,0,0,0,.2-.93Z" style="fill:#5a5a5a"/><path d="M17.65,27.23V24.9H13.42V23.8l4.45-6.32h1V23.8h1.32v1.1H18.84v2.33Zm0-3.43V19.41l-3,4.39Z" style="fill:#5a5a5a"/><path d="M20.62,22.42A8.8,8.8,0,0,1,21,19.64,3.44,3.44,0,0,1,22,18a2.73,2.73,0,0,1,1.77-.58,2.86,2.86,0,0,1,1.37.32,2.59,2.59,0,0,1,1,.91,5,5,0,0,1,.61,1.45,10,10,0,0,1,.22,2.3,8.73,8.73,0,0,1-.36,2.77,3.4,3.4,0,0,1-1.05,1.63,2.72,2.72,0,0,1-1.77.57,2.67,2.67,0,0,1-2.22-1A6.43,6.43,0,0,1,20.62,22.42Zm1.23,0a6.19,6.19,0,0,0,.56,3.2,1.66,1.66,0,0,0,1.39.79,1.62,1.62,0,0,0,1.38-.8,6,6,0,0,0,.57-3.19,6,6,0,0,0-.57-3.19,1.65,1.65,0,0,0-1.39-.79,1.55,1.55,0,0,0-1.32.69A6.21,6.21,0,0,0,21.85,22.42Z" style="fill:#5a5a5a"/><path d="M29.12,22.42a9.14,9.14,0,0,1,.35-2.78A3.46,3.46,0,0,1,30.53,18a2.72,2.72,0,0,1,1.76-.58,2.87,2.87,0,0,1,1.38.32,2.66,2.66,0,0,1,1,.91,4.94,4.94,0,0,1,.6,1.45,9.44,9.44,0,0,1,.22,2.3,9.07,9.07,0,0,1-.35,2.77,3.55,3.55,0,0,1-1,1.63,2.73,2.73,0,0,1-1.78.57,2.67,2.67,0,0,1-2.21-1A6.43,6.43,0,0,1,29.12,22.42Zm1.23,0a6.08,6.08,0,0,0,.56,3.2,1.6,1.6,0,0,0,2.77,0,6,6,0,0,0,.56-3.19,6,6,0,0,0-.56-3.19,1.65,1.65,0,0,0-1.4-.79,1.52,1.52,0,0,0-1.31.69A6.11,6.11,0,0,0,30.35,22.42Z" style="fill:#5a5a5a"/><path d="M2.73,381.5l-.82-.81,4.46-4.47.66.66a13.61,13.61,0,0,0,.56,3.17A16,16,0,0,0,9,383.43a12.39,12.39,0,0,0,1.57,2.22l-.87.87A12.27,12.27,0,0,1,8,384.24a14.74,14.74,0,0,1-1.34-3.1,13.59,13.59,0,0,1-.59-3Z" style="fill:#5a5a5a"/><path d="M13.19,383.25l-5.13-9.13.68-.67,5.13,9.11Z" style="fill:#5a5a5a"/><path d="M20.27,375.93l-.85.85L14,371.39a5.93,5.93,0,0,1-.22,1.38,7.89,7.89,0,0,1-.45,1.33l-.82-.82a6.89,6.89,0,0,0,.43-2,4.45,4.45,0,0,0-.17-1.67l.55-.54Z" style="fill:#5a5a5a"/><path d="M20.08,372.48l.73-1a2.54,2.54,0,0,0,1.54.54,1.76,1.76,0,0,0,1.17-.53,2,2,0,0,0,0-2.86,1.84,1.84,0,0,0-2.69,0,3.25,3.25,0,0,0-.5.69l-.65-.84.14-.12a2.46,2.46,0,0,0,.69-1.26,1.36,1.36,0,0,0-.43-1.3A1.44,1.44,0,0,0,19,365.4a1.58,1.58,0,0,0-1.12.5,1.62,1.62,0,0,0-.51,1.14,2.24,2.24,0,0,0,.51,1.35l-1,.69a3.05,3.05,0,0,1-.61-2,2.81,2.81,0,0,1,.9-1.83,3,3,0,0,1,1.28-.8,2.55,2.55,0,0,1,1.39-.07A2.49,2.49,0,0,1,21,365a2.17,2.17,0,0,1,.57,1.05,2.38,2.38,0,0,1-.13,1.3,2.24,2.24,0,0,1,1.54-.37,2.56,2.56,0,0,1,1.45.77,2.91,2.91,0,0,1,.87,2.19,3.27,3.27,0,0,1-1,2.29,3,3,0,0,1-2,1A3,3,0,0,1,20.08,372.48Z" style="fill:#5a5a5a"/><path d="M27.62,368.82l-5.13-9.13.68-.67,5.13,9.11Z" style="fill:#5a5a5a"/><path d="M34,360.62l.81.82L30.21,366a2.19,2.19,0,0,1-.49-.68,4.66,4.66,0,0,1-.36-1.48,12.62,12.62,0,0,1,.06-2.15,12.66,12.66,0,0,0,.06-3,2.43,2.43,0,0,0-.62-1.42,1.63,1.63,0,0,0-1.21-.49,1.81,1.81,0,0,0-1.28.6,1.83,1.83,0,0,0-.61,1.34,2,2,0,0,0,.64,1.39l-1,.78a3,3,0,0,1-.81-2.16,3.21,3.21,0,0,1,1.06-2.07,3.1,3.1,0,0,1,2.12-1,2.55,2.55,0,0,1,1.94.78,3,3,0,0,1,.64,1,4.24,4.24,0,0,1,.28,1.41,20.53,20.53,0,0,1-.09,2.51c-.08.94-.12,1.55-.11,1.85a3.9,3.9,0,0,0,.1.81Z" style="fill:#5a5a5a"/><path d="M31.73,357.67A8.83,8.83,0,0,1,30,355.45a3.34,3.34,0,0,1-.4-1.89,2.69,2.69,0,0,1,.84-1.65,2.88,2.88,0,0,1,1.2-.75,2.59,2.59,0,0,1,1.33-.05,4.86,4.86,0,0,1,1.45.6,9.44,9.44,0,0,1,1.79,1.47,9.31,9.31,0,0,1,1.71,2.21,3.52,3.52,0,0,1,.4,1.89,2.71,2.71,0,0,1-.84,1.66,2.66,2.66,0,0,1-2.28.85A6.42,6.42,0,0,1,31.73,357.67Zm.87-.87a6.11,6.11,0,0,0,2.66,1.86,1.6,1.6,0,0,0,2-2,6.29,6.29,0,0,0-1.86-2.65,6.13,6.13,0,0,0-2.66-1.87,1.7,1.7,0,0,0-1.55.43,1.56,1.56,0,0,0-.44,1.43A6.2,6.2,0,0,0,32.6,356.8Z" style="fill:#5a5a5a"/><path d="M44.77,349.8l.81.82L41,355.17a2.23,2.23,0,0,1-.49-.69,4.53,4.53,0,0,1-.36-1.47,12.79,12.79,0,0,1,.07-2.15,13.18,13.18,0,0,0,0-3,2.43,2.43,0,0,0-.62-1.41,1.61,1.61,0,0,0-1.21-.49,2.07,2.07,0,0,0-1.89,1.94,1.93,1.93,0,0,0,.64,1.38l-.95.78a3,3,0,0,1-.82-2.15,3.25,3.25,0,0,1,1.06-2.08,3,3,0,0,1,2.12-1,2.55,2.55,0,0,1,1.94.78,2.82,2.82,0,0,1,.64,1,4.23,4.23,0,0,1,.28,1.4,17.2,17.2,0,0,1-.09,2.52c-.08.94-.12,1.55-.11,1.85a4.08,4.08,0,0,0,.1.81Z" style="fill:#5a5a5a"/><path d="M42.55,346.85a8.83,8.83,0,0,1-1.71-2.22,3.43,3.43,0,0,1-.4-1.89,2.69,2.69,0,0,1,.84-1.66,2.88,2.88,0,0,1,1.2-.75,2.6,2.6,0,0,1,1.33,0,4.82,4.82,0,0,1,1.45.59,9.25,9.25,0,0,1,1.79,1.48,9,9,0,0,1,1.71,2.2,3.48,3.48,0,0,1,.4,1.9,2.74,2.74,0,0,1-.84,1.66A2.69,2.69,0,0,1,46,349,6.48,6.48,0,0,1,42.55,346.85Zm.87-.87a6.17,6.17,0,0,0,2.66,1.86,1.61,1.61,0,0,0,2-2,6,6,0,0,0-1.86-2.65,6.13,6.13,0,0,0-2.66-1.87,1.68,1.68,0,0,0-1.55.43,1.53,1.53,0,0,0-.43,1.43A6.07,6.07,0,0,0,43.42,346Z" style="fill:#5a5a5a"/><path d="M63.72,382.51a2.25,2.25,0,0,1-1.33.23,2,2,0,0,1-1.1-.61,2.33,2.33,0,0,1-.73-1.8,3.23,3.23,0,0,1,2.9-2.88,2.4,2.4,0,0,1,1.83.73,2,2,0,0,1,.58,1.08,2.24,2.24,0,0,1-.21,1.31,2.61,2.61,0,0,1,1.63-.29,2.58,2.58,0,0,1,1.43.76,2.8,2.8,0,0,1,.86,2.12,3.23,3.23,0,0,1-1,2.24,3.19,3.19,0,0,1-2.25,1,2.82,2.82,0,0,1-2.13-.88,2.61,2.61,0,0,1-.79-1.47A2.43,2.43,0,0,1,63.72,382.51Zm-1.6-1.27a1.53,1.53,0,0,0,1.12.49,1.62,1.62,0,0,0,1.12-.51,1.58,1.58,0,0,0,.5-1.11,1.5,1.5,0,0,0-.44-1.07,1.53,1.53,0,0,0-1.11-.46,1.58,1.58,0,0,0-1.12.49,1.53,1.53,0,0,0-.49,1.11A1.39,1.39,0,0,0,62.12,381.24ZM65,384.7a2.27,2.27,0,0,0,.87.53,1.76,1.76,0,0,0,1,0,2.07,2.07,0,0,0,.91-.54,2,2,0,0,0,.61-1.39,1.86,1.86,0,0,0-.6-1.39,1.92,1.92,0,0,0-1.41-.61,2,2,0,0,0-1.42.62,1.89,1.89,0,0,0-.59,1.39A1.93,1.93,0,0,0,65,384.7Z" style="fill:#5a5a5a"/><path d="M70.69,383.25l-5.13-9.13.68-.67,5.13,9.12Z" style="fill:#5a5a5a"/><path d="M77.77,375.94l-.85.84-5.39-5.39a6.09,6.09,0,0,1-.22,1.39,8.07,8.07,0,0,1-.45,1.32l-.82-.81a7,7,0,0,0,.43-2.05,4.51,4.51,0,0,0-.17-1.68l.55-.54Z" style="fill:#5a5a5a"/><path d="M77.58,372.49l.73-1a2.68,2.68,0,0,0,1.54.54,1.77,1.77,0,0,0,1.17-.54,2,2,0,0,0,0-2.86,1.88,1.88,0,0,0-1.34-.58,1.86,1.86,0,0,0-1.35.59,3.25,3.25,0,0,0-.5.69l-.65-.83.14-.13a2.47,2.47,0,0,0,.69-1.25,1.37,1.37,0,0,0-.43-1.31,1.44,1.44,0,0,0-1.09-.45,1.55,1.55,0,0,0-1.12.51,1.58,1.58,0,0,0-.51,1.13,2.22,2.22,0,0,0,.51,1.35l-1,.7a3.08,3.08,0,0,1-.61-2,2.81,2.81,0,0,1,.9-1.83,3.15,3.15,0,0,1,1.28-.8,2.49,2.49,0,0,1,2.53.57,2.16,2.16,0,0,1,.57,1.06,2.35,2.35,0,0,1-.13,1.29,2.29,2.29,0,0,1,1.54-.37,2.52,2.52,0,0,1,1.45.78,2.87,2.87,0,0,1,.87,2.18,3.29,3.29,0,0,1-1,2.3,3.07,3.07,0,0,1-2,1A3,3,0,0,1,77.58,372.49Z" style="fill:#5a5a5a"/><path d="M85.12,368.82,80,359.7l.68-.68,5.13,9.12Z" style="fill:#5a5a5a"/><path d="M91.45,360.63l.81.81L87.71,366a2.08,2.08,0,0,1-.49-.68,4.66,4.66,0,0,1-.36-1.48,12.62,12.62,0,0,1,.06-2.15,12.66,12.66,0,0,0,.06-3,2.43,2.43,0,0,0-.62-1.42,1.62,1.62,0,0,0-1.21-.48,1.8,1.8,0,0,0-1.28.59,1.85,1.85,0,0,0-.61,1.34,2,2,0,0,0,.64,1.39l-1,.78a3,3,0,0,1-.81-2.16,3.23,3.23,0,0,1,1.06-2.07,3.1,3.1,0,0,1,2.12-1,2.55,2.55,0,0,1,1.94.78,3,3,0,0,1,.64,1,4.18,4.18,0,0,1,.28,1.4,18.8,18.8,0,0,1-.09,2.52c-.08.93-.12,1.54-.11,1.84a4.09,4.09,0,0,0,.1.82Z" style="fill:#5a5a5a"/><path d="M89.23,357.67a9,9,0,0,1-1.71-2.21,3.39,3.39,0,0,1-.4-1.9,2.69,2.69,0,0,1,.84-1.65,2.88,2.88,0,0,1,1.2-.75,2.59,2.59,0,0,1,1.33-.05,4.86,4.86,0,0,1,1.45.6,9.85,9.85,0,0,1,1.79,1.47,9.24,9.24,0,0,1,1.71,2.21,3.43,3.43,0,0,1,.4,1.89,3,3,0,0,1-3.12,2.51A6.42,6.42,0,0,1,89.23,357.67Zm.87-.87a6.07,6.07,0,0,0,2.66,1.87,1.65,1.65,0,0,0,1.54-.42,1.67,1.67,0,0,0,.42-1.55,6.29,6.29,0,0,0-1.86-2.65,6.08,6.08,0,0,0-2.66-1.86,1.65,1.65,0,0,0-1.55.43,1.54,1.54,0,0,0-.44,1.42A6.2,6.2,0,0,0,90.1,356.8Z" style="fill:#5a5a5a"/><path d="M102.27,349.81l.81.81-4.55,4.55a2.19,2.19,0,0,1-.49-.68,4.66,4.66,0,0,1-.36-1.48,12.79,12.79,0,0,1,.07-2.15,13.88,13.88,0,0,0,.06-3,2.5,2.5,0,0,0-.63-1.42A1.61,1.61,0,0,0,96,346a2.09,2.09,0,0,0-1.89,1.94,2,2,0,0,0,.64,1.39l-1,.78a3.08,3.08,0,0,1-.82-2.16A3.21,3.21,0,0,1,94,345.86a3.1,3.1,0,0,1,2.12-1,2.55,2.55,0,0,1,1.94.78,2.92,2.92,0,0,1,.64,1A4.24,4.24,0,0,1,99,348a17.1,17.1,0,0,1-.09,2.51c-.08.94-.12,1.55-.11,1.85a3.9,3.9,0,0,0,.1.81Z" style="fill:#5a5a5a"/><path d="M100.06,346.85a8.67,8.67,0,0,1-1.72-2.22,3.43,3.43,0,0,1-.4-1.89,2.74,2.74,0,0,1,.84-1.66,3,3,0,0,1,1.2-.74,2.6,2.6,0,0,1,1.33,0,4.86,4.86,0,0,1,1.45.6,9.14,9.14,0,0,1,1.79,1.47,8.81,8.81,0,0,1,1.71,2.21,3.43,3.43,0,0,1,.4,1.89,2.71,2.71,0,0,1-.84,1.66,2.66,2.66,0,0,1-2.28.85A6.37,6.37,0,0,1,100.06,346.85Zm.86-.87a6.17,6.17,0,0,0,2.66,1.86,1.6,1.6,0,0,0,2-2,6.1,6.1,0,0,0-1.86-2.65,6,6,0,0,0-2.66-1.86,1.68,1.68,0,0,0-1.55.42,1.53,1.53,0,0,0-.43,1.43A6.07,6.07,0,0,0,100.92,346Z" style="fill:#5a5a5a"/><path d="M122.19,385.82l.74-.88a2,2,0,0,0,1.23.43,1.49,1.49,0,0,0,1-.49,1.83,1.83,0,0,0,.51-.86,2,2,0,0,0,0-1,3.7,3.7,0,0,0-.49-1.12,5.61,5.61,0,0,0-.91-1.16,1.42,1.42,0,0,0-.17-.16,2.66,2.66,0,0,1,0,1.34,2.6,2.6,0,0,1-.7,1.21,2.76,2.76,0,0,1-2.07.83,3.2,3.2,0,0,1-2.22-1.05,3.27,3.27,0,0,1-1.07-2.3,2.9,2.9,0,0,1,.91-2.19,3.09,3.09,0,0,1,1.59-.87,3.16,3.16,0,0,1,1.88.19,7,7,0,0,1,2.22,1.65,8.78,8.78,0,0,1,1.82,2.39,3.51,3.51,0,0,1,.34,2,3.16,3.16,0,0,1-.92,1.74,2.57,2.57,0,0,1-3.65.22Zm.43-6.5a2.35,2.35,0,0,0-1.55-.77,1.69,1.69,0,0,0-1.36.51,1.78,1.78,0,0,0-.52,1.44,2.47,2.47,0,0,0,.77,1.61,2.09,2.09,0,0,0,1.47.67,1.84,1.84,0,0,0,1.39-.57,1.78,1.78,0,0,0,.56-1.37A2.29,2.29,0,0,0,122.62,379.32Z" style="fill:#5a5a5a"/><path d="M128.19,383.25l-5.13-9.13.68-.67,5.13,9.11Z" style="fill:#5a5a5a"/><path d="M135.27,375.94l-.85.84L129,371.39a5.93,5.93,0,0,1-.22,1.38,7.89,7.89,0,0,1-.45,1.33l-.82-.81a7,7,0,0,0,.43-2.05,4.48,4.48,0,0,0-.17-1.68l.55-.54Z" style="fill:#5a5a5a"/><path d="M135.08,372.48l.73-1a2.68,2.68,0,0,0,1.54.54,1.77,1.77,0,0,0,1.17-.54,1.93,1.93,0,0,0,.59-1.42,2,2,0,0,0-.61-1.44,1.84,1.84,0,0,0-2.69,0,3.25,3.25,0,0,0-.5.69l-.65-.83.14-.13a2.46,2.46,0,0,0,.69-1.26,1.36,1.36,0,0,0-.43-1.3,1.44,1.44,0,0,0-1.09-.45,1.58,1.58,0,0,0-1.12.5,1.62,1.62,0,0,0-.51,1.14,2.24,2.24,0,0,0,.51,1.35l-1,.7a3.08,3.08,0,0,1-.61-2,2.81,2.81,0,0,1,.9-1.83,3.15,3.15,0,0,1,1.28-.8,2.55,2.55,0,0,1,1.39-.07A2.58,2.58,0,0,1,136,365a2.17,2.17,0,0,1,.57,1.05,2.38,2.38,0,0,1-.13,1.3,2.24,2.24,0,0,1,1.54-.37,2.52,2.52,0,0,1,1.45.78,2.87,2.87,0,0,1,.87,2.18,3.27,3.27,0,0,1-1,2.29,3,3,0,0,1-2,1A3,3,0,0,1,135.08,372.48Z" style="fill:#5a5a5a"/><path d="M142.62,368.82l-5.13-9.13.68-.67,5.13,9.11Z" style="fill:#5a5a5a"/><path d="M149,360.63l.81.81L145.21,366a2.08,2.08,0,0,1-.49-.68,4.66,4.66,0,0,1-.36-1.48,13.76,13.76,0,0,1,.06-2.15,12.66,12.66,0,0,0,.06-3,2.43,2.43,0,0,0-.62-1.42,1.61,1.61,0,0,0-1.21-.48,1.76,1.76,0,0,0-1.28.59,1.83,1.83,0,0,0-.61,1.34,2,2,0,0,0,.64,1.39l-1,.78a3,3,0,0,1-.81-2.16,3.21,3.21,0,0,1,1.06-2.07,3.1,3.1,0,0,1,2.12-1,2.55,2.55,0,0,1,1.94.78,3,3,0,0,1,.64,1,4.13,4.13,0,0,1,.28,1.4,18.66,18.66,0,0,1-.09,2.51c-.08.94-.12,1.55-.11,1.85a4.09,4.09,0,0,0,.1.82Z" style="fill:#5a5a5a"/><path d="M146.73,357.67a9,9,0,0,1-1.71-2.21,3.48,3.48,0,0,1-.4-1.9,2.69,2.69,0,0,1,.84-1.65,2.88,2.88,0,0,1,1.2-.75,2.59,2.59,0,0,1,1.33-.05,4.86,4.86,0,0,1,1.45.6,9.85,9.85,0,0,1,1.79,1.47,9,9,0,0,1,1.71,2.21,3.43,3.43,0,0,1,.4,1.89,2.71,2.71,0,0,1-.84,1.66,2.66,2.66,0,0,1-2.28.85A6.42,6.42,0,0,1,146.73,357.67Zm.87-.87a6,6,0,0,0,2.66,1.86,1.6,1.6,0,0,0,2-2,6.19,6.19,0,0,0-1.86-2.65,6.08,6.08,0,0,0-2.66-1.86,1.65,1.65,0,0,0-1.55.43,1.54,1.54,0,0,0-.44,1.42A6.2,6.2,0,0,0,147.6,356.8Z" style="fill:#5a5a5a"/><path d="M159.77,349.8l.81.82L156,355.17a2.19,2.19,0,0,1-.49-.68,4.66,4.66,0,0,1-.36-1.48,12.79,12.79,0,0,1,.07-2.15,14,14,0,0,0,.06-3,2.5,2.5,0,0,0-.63-1.41,1.61,1.61,0,0,0-1.21-.49,2.09,2.09,0,0,0-1.89,1.94,2,2,0,0,0,.64,1.39l-.95.78a3.08,3.08,0,0,1-.82-2.16,3.21,3.21,0,0,1,1.06-2.07,3.1,3.1,0,0,1,2.12-1,2.55,2.55,0,0,1,1.94.78,2.82,2.82,0,0,1,.64,1,4.24,4.24,0,0,1,.28,1.41,17.1,17.1,0,0,1-.09,2.51c-.08.94-.12,1.55-.11,1.85a4,4,0,0,0,.1.81Z" style="fill:#5a5a5a"/><path d="M157.56,346.85a8.67,8.67,0,0,1-1.72-2.22,3.43,3.43,0,0,1-.4-1.89,2.74,2.74,0,0,1,.84-1.66,2.88,2.88,0,0,1,1.2-.75,2.71,2.71,0,0,1,1.33,0,5.26,5.26,0,0,1,1.46.59,9.55,9.55,0,0,1,1.78,1.48,9,9,0,0,1,1.71,2.2,3.48,3.48,0,0,1,.4,1.9A3,3,0,0,1,161,349,6.37,6.37,0,0,1,157.56,346.85Zm.86-.87a6.17,6.17,0,0,0,2.66,1.86,1.61,1.61,0,0,0,2-2,9.42,9.42,0,0,0-4.52-4.52,1.71,1.71,0,0,0-1.55.43,1.53,1.53,0,0,0-.43,1.43A6.07,6.07,0,0,0,158.42,346Z" style="fill:#5a5a5a"/><path d="M177.15,389.46l-.85.84-5.39-5.39a6.09,6.09,0,0,1-.22,1.39,9.15,9.15,0,0,1-.45,1.32l-.82-.81a7.37,7.37,0,0,0,.43-2.05,4.51,4.51,0,0,0-.17-1.68l.55-.54Z" style="fill:#5a5a5a"/><path d="M175.38,384.43a8.67,8.67,0,0,1-1.72-2.22,3.43,3.43,0,0,1-.4-1.89,2.69,2.69,0,0,1,.84-1.65,2.88,2.88,0,0,1,1.2-.75,2.6,2.6,0,0,1,1.33-.05,4.76,4.76,0,0,1,1.45.6,9.52,9.52,0,0,1,1.79,1.47,8.81,8.81,0,0,1,1.71,2.21A3.43,3.43,0,0,1,182,384a2.71,2.71,0,0,1-.84,1.66,2.66,2.66,0,0,1-2.28.85A6.37,6.37,0,0,1,175.38,384.43Zm.87-.87a6.1,6.1,0,0,0,2.65,1.86,1.6,1.6,0,0,0,2-2,6.1,6.1,0,0,0-1.86-2.65,5.94,5.94,0,0,0-2.66-1.86,1.65,1.65,0,0,0-1.55.43,1.51,1.51,0,0,0-.43,1.42A6,6,0,0,0,176.25,383.56Z" style="fill:#5a5a5a"/><path d="M184.5,382.34l-5.13-9.12.68-.68,5.13,9.12Z" style="fill:#5a5a5a"/><path d="M190.38,376.22l-.84.85-5.39-5.39a6.52,6.52,0,0,1-.22,1.38,7.83,7.83,0,0,1-.46,1.33l-.81-.82a7.29,7.29,0,0,0,.43-2.05,4.43,4.43,0,0,0-.17-1.67l.54-.55Z" style="fill:#5a5a5a"/><path d="M191.39,371.58l.73-1a2.68,2.68,0,0,0,1.53.54,1.73,1.73,0,0,0,1.18-.54,2,2,0,0,0,0-2.85,1.86,1.86,0,0,0-1.35-.59,1.89,1.89,0,0,0-1.34.59,4,4,0,0,0-.51.69l-.64-.83a.92.92,0,0,0,.14-.13,2.47,2.47,0,0,0,.69-1.25,1.36,1.36,0,0,0-.43-1.3,1.46,1.46,0,0,0-1.09-.46,1.75,1.75,0,0,0-1.63,1.64,2.2,2.2,0,0,0,.51,1.35l-1,.7a3.07,3.07,0,0,1-.61-2,2.85,2.85,0,0,1,.9-1.84,3.15,3.15,0,0,1,1.28-.8,2.51,2.51,0,0,1,1.38-.06,2.37,2.37,0,0,1,1.14.63,2.1,2.1,0,0,1,.58,1.06,2.35,2.35,0,0,1-.13,1.29,2.21,2.21,0,0,1,1.53-.36,2.5,2.5,0,0,1,1.46.77,2.88,2.88,0,0,1,.87,2.19,3.29,3.29,0,0,1-1,2.29,3.08,3.08,0,0,1-2.05,1A3,3,0,0,1,191.39,371.58Z" style="fill:#5a5a5a"/><path d="M197.74,369.1,192.61,360l.68-.68,5.13,9.12Z" style="fill:#5a5a5a"/><path d="M204.07,360.91l.81.82-4.56,4.55a2.23,2.23,0,0,1-.49-.69,4.29,4.29,0,0,1-.35-1.47,11.64,11.64,0,0,1,.06-2.15,14,14,0,0,0,.06-3,2.56,2.56,0,0,0-.62-1.41,1.63,1.63,0,0,0-1.21-.49,1.88,1.88,0,0,0-1.29.59,1.91,1.91,0,0,0-.61,1.35,1.94,1.94,0,0,0,.65,1.38l-1,.79a3,3,0,0,1-.81-2.16A3.28,3.28,0,0,1,195.8,357a3,3,0,0,1,2.12-1,2.55,2.55,0,0,1,1.94.78,3,3,0,0,1,.65,1,4.81,4.81,0,0,1,.28,1.41,20.53,20.53,0,0,1-.09,2.51c-.09.94-.12,1.55-.12,1.85a4.06,4.06,0,0,0,.11.81Z" style="fill:#5a5a5a"/><path d="M203,356.77a9.2,9.2,0,0,1-1.71-2.22,3.49,3.49,0,0,1-.41-1.9,2.76,2.76,0,0,1,.85-1.65,2.91,2.91,0,0,1,1.19-.75,2.64,2.64,0,0,1,1.34-.05,4.86,4.86,0,0,1,1.45.6,9.51,9.51,0,0,1,1.78,1.47,9,9,0,0,1,1.71,2.21,3.46,3.46,0,0,1,.41,1.9,3,3,0,0,1-3.13,2.51A6.49,6.49,0,0,1,203,356.77Zm.87-.87a6.11,6.11,0,0,0,2.66,1.86,1.65,1.65,0,0,0,1.54-.42,1.62,1.62,0,0,0,.41-1.54,9.24,9.24,0,0,0-4.51-4.52,1.65,1.65,0,0,0-1.55.43,1.52,1.52,0,0,0-.44,1.42A6.22,6.22,0,0,0,203.91,355.9Z" style="fill:#5a5a5a"/><path d="M214.89,350.09l.81.81-4.55,4.56a2.07,2.07,0,0,1-.49-.69,4.07,4.07,0,0,1-.36-1.47,11.64,11.64,0,0,1,.06-2.15,12.74,12.74,0,0,0,.06-3,2.5,2.5,0,0,0-.62-1.41,1.59,1.59,0,0,0-1.21-.49,1.84,1.84,0,0,0-1.28.59,1.88,1.88,0,0,0-.62,1.35,1.94,1.94,0,0,0,.65,1.38l-1,.78a3,3,0,0,1-.81-2.15,3.28,3.28,0,0,1,1.05-2.08,3.12,3.12,0,0,1,2.12-1,2.58,2.58,0,0,1,1.95.79,2.87,2.87,0,0,1,.64,1,4.5,4.5,0,0,1,.28,1.4,20.63,20.63,0,0,1-.09,2.52c-.08.93-.12,1.55-.11,1.85a3.45,3.45,0,0,0,.1.81Z" style="fill:#5a5a5a"/><path d="M213.86,345.94a9,9,0,0,1-1.71-2.21,3.48,3.48,0,0,1-.4-1.9,2.69,2.69,0,0,1,.84-1.65,2.88,2.88,0,0,1,1.2-.75,2.59,2.59,0,0,1,1.33-.05,4.86,4.86,0,0,1,1.45.6,9.85,9.85,0,0,1,1.79,1.47,8.91,8.91,0,0,1,1.7,2.21,3.36,3.36,0,0,1,.41,1.89,3,3,0,0,1-3.12,2.51A6.36,6.36,0,0,1,213.86,345.94Zm.87-.86a6.11,6.11,0,0,0,2.66,1.86,1.61,1.61,0,0,0,2-2,6.1,6.1,0,0,0-1.86-2.65,6.17,6.17,0,0,0-2.66-1.86,1.65,1.65,0,0,0-1.55.43,1.54,1.54,0,0,0-.44,1.42A6.27,6.27,0,0,0,214.73,345.08Z" style="fill:#5a5a5a"/><path d="M234.65,389.46l-.85.85-5.39-5.39a6.1,6.1,0,0,1-.22,1.38,9.31,9.31,0,0,1-.45,1.33l-.82-.82a7.37,7.37,0,0,0,.43-2.05,4.43,4.43,0,0,0-.17-1.67l.55-.55Z" style="fill:#5a5a5a"/><path d="M239.46,384.65l-.85.84-5.39-5.39a6.09,6.09,0,0,1-.22,1.39,7.22,7.22,0,0,1-.45,1.32l-.82-.81a7.39,7.39,0,0,0,.44-2.05,4.72,4.72,0,0,0-.17-1.68l.54-.54Z" style="fill:#5a5a5a"/><path d="M242,382.34l-5.13-9.12.68-.68,5.13,9.12Z" style="fill:#5a5a5a"/><path d="M247.88,376.22l-.84.85-5.39-5.39a6.52,6.52,0,0,1-.22,1.38,7.83,7.83,0,0,1-.46,1.33l-.81-.82a7.22,7.22,0,0,0,.43-2.05,4.45,4.45,0,0,0-.17-1.67l.54-.54Z" style="fill:#5a5a5a"/><path d="M248.89,371.58l.73-1a2.68,2.68,0,0,0,1.53.54,1.73,1.73,0,0,0,1.18-.54,2,2,0,0,0,0-2.85,1.85,1.85,0,0,0-1.35-.58,1.82,1.82,0,0,0-1.34.59,3.63,3.63,0,0,0-.51.69l-.64-.84a.92.92,0,0,0,.14-.13,2.43,2.43,0,0,0,.69-1.25,1.36,1.36,0,0,0-.43-1.3,1.5,1.5,0,0,0-1.09-.46,1.75,1.75,0,0,0-1.63,1.64,2.24,2.24,0,0,0,.51,1.36l-1,.69a3.05,3.05,0,0,1-.61-2,2.85,2.85,0,0,1,.9-1.84,3.12,3.12,0,0,1,1.28-.79,2.43,2.43,0,0,1,1.38-.07,2.31,2.31,0,0,1,1.14.64,2.07,2.07,0,0,1,.58,1,2.35,2.35,0,0,1-.13,1.29,2.28,2.28,0,0,1,1.54-.36,2.56,2.56,0,0,1,1.45.77,2.88,2.88,0,0,1,.87,2.19,3.27,3.27,0,0,1-1,2.29,3.09,3.09,0,0,1-2.05,1A2.93,2.93,0,0,1,248.89,371.58Z" style="fill:#5a5a5a"/><path d="M255.24,369.11,250.11,360l.68-.67,5.13,9.11Z" style="fill:#5a5a5a"/><path d="M261.57,360.92l.81.81-4.56,4.55a2.19,2.19,0,0,1-.49-.68,4.41,4.41,0,0,1-.35-1.48A11.66,11.66,0,0,1,257,362a13.88,13.88,0,0,0,.06-3,2.57,2.57,0,0,0-.62-1.42,1.63,1.63,0,0,0-1.21-.49,1.85,1.85,0,0,0-1.29.6,1.87,1.87,0,0,0-.61,1.34,2,2,0,0,0,.65,1.39l-1,.78a3,3,0,0,1-.81-2.16A3.24,3.24,0,0,1,253.3,357a3.1,3.1,0,0,1,2.12-1,2.55,2.55,0,0,1,1.94.78,3,3,0,0,1,.65,1,4.81,4.81,0,0,1,.28,1.41,20.53,20.53,0,0,1-.09,2.51c-.09.94-.12,1.55-.12,1.85a3.87,3.87,0,0,0,.11.81Z" style="fill:#5a5a5a"/><path d="M260.54,356.77a9.2,9.2,0,0,1-1.71-2.22,3.48,3.48,0,0,1-.41-1.9,2.76,2.76,0,0,1,.85-1.65,2.91,2.91,0,0,1,1.19-.75,2.64,2.64,0,0,1,1.34,0,4.57,4.57,0,0,1,1.45.59,9.24,9.24,0,0,1,1.78,1.48,8.78,8.78,0,0,1,1.71,2.2,3.48,3.48,0,0,1,.41,1.9,2.7,2.7,0,0,1-.85,1.66,2.67,2.67,0,0,1-2.28.85A6.49,6.49,0,0,1,260.54,356.77Zm.87-.87a6.11,6.11,0,0,0,2.66,1.86,1.65,1.65,0,0,0,1.54-.42,1.62,1.62,0,0,0,.41-1.54,9.24,9.24,0,0,0-4.51-4.52,1.67,1.67,0,0,0-1.55.43,1.55,1.55,0,0,0-.44,1.43A6.2,6.2,0,0,0,261.41,355.9Z" style="fill:#5a5a5a"/><path d="M272.39,350.09l.81.82-4.55,4.55a2.07,2.07,0,0,1-.49-.69,4.07,4.07,0,0,1-.36-1.47,11.64,11.64,0,0,1,.06-2.15,12.74,12.74,0,0,0,.06-3,2.5,2.5,0,0,0-.62-1.41,1.63,1.63,0,0,0-1.21-.49,2.07,2.07,0,0,0-1.89,1.94,1.89,1.89,0,0,0,.64,1.38l-1,.79a3,3,0,0,1-.81-2.16,3.28,3.28,0,0,1,1.05-2.08,3.06,3.06,0,0,1,2.12-1,2.57,2.57,0,0,1,1.95.78,3,3,0,0,1,.64,1,4.5,4.5,0,0,1,.28,1.4,20.63,20.63,0,0,1-.09,2.52c-.08.94-.12,1.55-.11,1.85a3.45,3.45,0,0,0,.1.81Z" style="fill:#5a5a5a"/><path d="M271.36,346a9.2,9.2,0,0,1-1.71-2.22,3.48,3.48,0,0,1-.4-1.9,2.69,2.69,0,0,1,.84-1.65,2.88,2.88,0,0,1,1.2-.75,2.71,2.71,0,0,1,1.33-.05,4.86,4.86,0,0,1,1.45.6,9.85,9.85,0,0,1,1.79,1.47,9,9,0,0,1,1.71,2.21,3.46,3.46,0,0,1,.4,1.9,3,3,0,0,1-3.12,2.51A6.48,6.48,0,0,1,271.36,346Zm.87-.87a6.11,6.11,0,0,0,2.66,1.86,1.61,1.61,0,0,0,2-2,9.31,9.31,0,0,0-4.52-4.52,1.65,1.65,0,0,0-1.55.43,1.54,1.54,0,0,0-.44,1.42A6.22,6.22,0,0,0,272.23,345.08Z" style="fill:#5a5a5a"/><path d="M290.3,389.46l-.85.84-5.39-5.39a6.09,6.09,0,0,1-.22,1.39,7.35,7.35,0,0,1-.45,1.33l-.82-.82a7,7,0,0,0,.43-2.05,4.45,4.45,0,0,0-.16-1.67l.54-.55Z" style="fill:#5a5a5a"/><path d="M295.56,382.57l.81.81-4.55,4.56a2.23,2.23,0,0,1-.49-.69,4.53,4.53,0,0,1-.36-1.47,12.6,12.6,0,0,1,.06-2.15,12.74,12.74,0,0,0,.06-3,2.43,2.43,0,0,0-.62-1.41,1.58,1.58,0,0,0-1.21-.49,1.84,1.84,0,0,0-1.28.59,1.87,1.87,0,0,0-.61,1.35,1.93,1.93,0,0,0,.64,1.38l-1,.78a3,3,0,0,1-.81-2.15,3.25,3.25,0,0,1,1.06-2.08,3.1,3.1,0,0,1,2.12-1,2.56,2.56,0,0,1,1.94.79,3,3,0,0,1,.64,1,4.23,4.23,0,0,1,.28,1.4,20.63,20.63,0,0,1-.09,2.52c-.08.93-.12,1.55-.11,1.85a4.08,4.08,0,0,0,.1.81Z" style="fill:#5a5a5a"/><path d="M297.65,382.34l-5.13-9.12.68-.68,5.13,9.12Z" style="fill:#5a5a5a"/><path d="M303.54,376.22l-.85.85-5.39-5.39a5.93,5.93,0,0,1-.22,1.38,8.9,8.9,0,0,1-.45,1.33l-.82-.82a7.29,7.29,0,0,0,.43-2.05,4.43,4.43,0,0,0-.17-1.67l.55-.55Z" style="fill:#5a5a5a"/><path d="M304.54,371.58l.74-1a2.63,2.63,0,0,0,1.53.54,1.73,1.73,0,0,0,1.17-.54,2,2,0,0,0,0-2.85,1.84,1.84,0,0,0-2.69,0,3.25,3.25,0,0,0-.5.69l-.65-.84.15-.13a2.47,2.47,0,0,0,.69-1.25,1.36,1.36,0,0,0-.44-1.3,1.45,1.45,0,0,0-1.09-.46,1.75,1.75,0,0,0-1.63,1.64,2.2,2.2,0,0,0,.51,1.35l-1,.7a3.12,3.12,0,0,1-.61-2,3,3,0,0,1,.9-1.84,3.33,3.33,0,0,1,1.28-.8,2.54,2.54,0,0,1,1.39-.06,2.47,2.47,0,0,1,1.14.63,2,2,0,0,1,.57,1.06,2.26,2.26,0,0,1-.13,1.29,2.25,2.25,0,0,1,1.54-.36,2.5,2.5,0,0,1,1.45.77,2.88,2.88,0,0,1,.87,2.19,3.29,3.29,0,0,1-1,2.29,3.05,3.05,0,0,1-2,1A3,3,0,0,1,304.54,371.58Z" style="fill:#5a5a5a"/><path d="M310.89,369.1,305.76,360l.68-.68,5.13,9.12Z" style="fill:#5a5a5a"/><path d="M317.22,360.91l.81.82-4.55,4.55a2.07,2.07,0,0,1-.49-.69,4.07,4.07,0,0,1-.36-1.47,11.64,11.64,0,0,1,.06-2.15,12.74,12.74,0,0,0,.06-3,2.43,2.43,0,0,0-.62-1.41,1.63,1.63,0,0,0-1.21-.49,1.84,1.84,0,0,0-1.28.59A1.87,1.87,0,0,0,309,359a2,2,0,0,0,.64,1.39l-1,.78a3,3,0,0,1-.81-2.16A3.21,3.21,0,0,1,309,357a3,3,0,0,1,2.12-1,2.56,2.56,0,0,1,1.94.78,3,3,0,0,1,.64,1,4.51,4.51,0,0,1,.28,1.41,20.53,20.53,0,0,1-.09,2.51c-.08.94-.12,1.55-.11,1.85a4.08,4.08,0,0,0,.1.81Z" style="fill:#5a5a5a"/><path d="M316.19,356.77a9.2,9.2,0,0,1-1.71-2.22,3.48,3.48,0,0,1-.4-1.9,2.69,2.69,0,0,1,.84-1.65,2.88,2.88,0,0,1,1.2-.75,2.6,2.6,0,0,1,1.33-.05,4.86,4.86,0,0,1,1.45.6,9.52,9.52,0,0,1,1.79,1.47,9,9,0,0,1,1.71,2.21,3.46,3.46,0,0,1,.4,1.9,3,3,0,0,1-3.12,2.51A6.48,6.48,0,0,1,316.19,356.77Zm.87-.87a6.17,6.17,0,0,0,2.66,1.86,1.61,1.61,0,0,0,2-2,9.31,9.31,0,0,0-4.52-4.52,1.65,1.65,0,0,0-1.55.43,1.51,1.51,0,0,0-.43,1.42A6.09,6.09,0,0,0,317.06,355.9Z" style="fill:#5a5a5a"/><path d="M328,350.09l.81.81-4.55,4.56a2.23,2.23,0,0,1-.49-.69,4.53,4.53,0,0,1-.36-1.47,13.73,13.73,0,0,1,.06-2.15,12.74,12.74,0,0,0,.06-3,2.43,2.43,0,0,0-.62-1.41,1.58,1.58,0,0,0-1.21-.49,1.84,1.84,0,0,0-1.28.59,1.87,1.87,0,0,0-.61,1.35,1.93,1.93,0,0,0,.64,1.38l-1,.78a3,3,0,0,1-.81-2.15,3.25,3.25,0,0,1,1.06-2.08,3.1,3.1,0,0,1,2.12-1,2.56,2.56,0,0,1,1.94.79,2.87,2.87,0,0,1,.64,1,4.23,4.23,0,0,1,.28,1.4,20.63,20.63,0,0,1-.09,2.52c-.08.93-.12,1.55-.11,1.85a4.08,4.08,0,0,0,.1.81Z" style="fill:#5a5a5a"/><path d="M327,345.94a8.82,8.82,0,0,1-1.72-2.21,3.48,3.48,0,0,1-.4-1.9,2.69,2.69,0,0,1,.84-1.65,2.88,2.88,0,0,1,1.2-.75,2.6,2.6,0,0,1,1.33-.05,4.91,4.91,0,0,1,1.46.6,9.84,9.84,0,0,1,1.78,1.47,9,9,0,0,1,1.71,2.21,3.43,3.43,0,0,1,.4,1.89,2.64,2.64,0,0,1-.84,1.66,2.7,2.7,0,0,1-2.28.86A6.39,6.39,0,0,1,327,345.94Zm.87-.86a6.1,6.1,0,0,0,2.65,1.86,1.64,1.64,0,0,0,1.54-.42,1.66,1.66,0,0,0,.42-1.55,9.35,9.35,0,0,0-4.52-4.51,1.66,1.66,0,0,0-1.55.43,1.54,1.54,0,0,0-.43,1.42A6.27,6.27,0,0,0,327.89,345.08Z" style="fill:#5a5a5a"/><path d="M353.15,384.36l-.85.84-5.39-5.39a6.09,6.09,0,0,1-.22,1.39,7,7,0,0,1-.45,1.32l-.82-.81a7,7,0,0,0,.43-2,4.45,4.45,0,0,0-.16-1.67l.54-.55Z" style="fill:#5a5a5a"/><path d="M354.49,383.25l-5.12-9.13.67-.67,5.14,9.12Z" style="fill:#5a5a5a"/><path d="M361.57,375.94l-.84.84-5.4-5.39a6,6,0,0,1-.21,1.39,8,8,0,0,1-.46,1.32l-.82-.81a7.05,7.05,0,0,0,.44-2.05,4.72,4.72,0,0,0-.17-1.68l.54-.54Z" style="fill:#5a5a5a"/><path d="M361.39,372.49l.73-1a2.66,2.66,0,0,0,1.53.54,1.75,1.75,0,0,0,1.17-.54,1.94,1.94,0,0,0,.6-1.42,2,2,0,0,0-.62-1.44,1.84,1.84,0,0,0-2.69,0,3.64,3.64,0,0,0-.5.69l-.65-.83.15-.13a2.47,2.47,0,0,0,.69-1.25,1.38,1.38,0,0,0-.44-1.31,1.43,1.43,0,0,0-1.08-.45,1.52,1.52,0,0,0-1.12.51,1.58,1.58,0,0,0-.51,1.13,2.16,2.16,0,0,0,.5,1.35l-1,.7a3.09,3.09,0,0,1-.62-2,2.93,2.93,0,0,1,.9-1.83,3.28,3.28,0,0,1,1.28-.8,2.45,2.45,0,0,1,1.39-.06,2.37,2.37,0,0,1,1.14.63,2,2,0,0,1,.57,1.05,2.28,2.28,0,0,1-.12,1.3,2.22,2.22,0,0,1,1.53-.37,2.49,2.49,0,0,1,1.45.78,2.87,2.87,0,0,1,.87,2.18,3.28,3.28,0,0,1-1,2.3,3.1,3.1,0,0,1-2,1A3,3,0,0,1,361.39,372.49Z" style="fill:#5a5a5a"/><path d="M368.92,368.82l-5.12-9.12.67-.68,5.14,9.12Z" style="fill:#5a5a5a"/><path d="M375.25,360.63l.82.81L371.51,366a2.08,2.08,0,0,1-.49-.68,4.66,4.66,0,0,1-.36-1.48,12.79,12.79,0,0,1,.07-2.15,13.88,13.88,0,0,0,.06-3,2.5,2.5,0,0,0-.63-1.42,1.58,1.58,0,0,0-1.2-.48,1.84,1.84,0,0,0-1.29.59,1.89,1.89,0,0,0-.61,1.34,2,2,0,0,0,.65,1.39l-1,.78a3,3,0,0,1-.81-2.16,3.21,3.21,0,0,1,1.05-2.07,3.1,3.1,0,0,1,2.12-1,2.55,2.55,0,0,1,1.94.78,3,3,0,0,1,.65,1,4.74,4.74,0,0,1,.28,1.4,19.2,19.2,0,0,1-.1,2.52c-.08.93-.11,1.54-.11,1.84a3.46,3.46,0,0,0,.11.82Z" style="fill:#5a5a5a"/><path d="M373,357.67a8.82,8.82,0,0,1-1.72-2.21,3.48,3.48,0,0,1-.4-1.9,2.69,2.69,0,0,1,.84-1.65,2.88,2.88,0,0,1,1.2-.75,2.6,2.6,0,0,1,1.33-.05,4.91,4.91,0,0,1,1.46.6,9.84,9.84,0,0,1,1.78,1.47,8.81,8.81,0,0,1,1.71,2.21,3.44,3.44,0,0,1,.41,1.89,2.7,2.7,0,0,1-.85,1.66,2.66,2.66,0,0,1-2.28.85A6.37,6.37,0,0,1,373,357.67Zm.87-.87a6.06,6.06,0,0,0,2.65,1.87,1.65,1.65,0,0,0,1.54-.42,1.67,1.67,0,0,0,.42-1.55,6.1,6.1,0,0,0-1.86-2.65,6,6,0,0,0-2.66-1.86,1.65,1.65,0,0,0-1.55.43A1.53,1.53,0,0,0,372,354,6.2,6.2,0,0,0,373.91,356.8Z" style="fill:#5a5a5a"/><path d="M386.08,349.81l.81.81-4.56,4.55a1.91,1.91,0,0,1-.48-.68,4.18,4.18,0,0,1-.36-1.48,11.66,11.66,0,0,1,.06-2.15,13.24,13.24,0,0,0,.06-3,2.5,2.5,0,0,0-.62-1.42,1.63,1.63,0,0,0-1.21-.49,1.81,1.81,0,0,0-1.28.6,1.85,1.85,0,0,0-.62,1.34,2,2,0,0,0,.65,1.39l-1,.78a3,3,0,0,1-.81-2.16,3.24,3.24,0,0,1,1.05-2.07,3.12,3.12,0,0,1,2.12-1,2.54,2.54,0,0,1,1.94.78,3,3,0,0,1,.65,1,4.67,4.67,0,0,1,.28,1.4,20.53,20.53,0,0,1-.09,2.51,17.27,17.27,0,0,0-.11,1.85,3.32,3.32,0,0,0,.1.81Z" style="fill:#5a5a5a"/><path d="M390.44,347.06l-.84.85-5.39-5.39a6.52,6.52,0,0,1-.22,1.38,7.83,7.83,0,0,1-.46,1.33l-.81-.82a7.22,7.22,0,0,0,.43-2.05,4.45,4.45,0,0,0-.17-1.67l.55-.54Z" style="fill:#5a5a5a"/><path d="M411.1,382.28l.81.82-4.55,4.55a2.07,2.07,0,0,1-.49-.69,4.07,4.07,0,0,1-.36-1.47,11.64,11.64,0,0,1,.06-2.15,12.74,12.74,0,0,0,.06-3A2.5,2.5,0,0,0,406,379a1.63,1.63,0,0,0-1.21-.49,2.07,2.07,0,0,0-1.89,1.94,2,2,0,0,0,.64,1.39l-1,.77a3,3,0,0,1-.81-2.15,3.28,3.28,0,0,1,1.05-2.08,3.07,3.07,0,0,1,2.13-1,2.56,2.56,0,0,1,1.94.78,3,3,0,0,1,.64,1,4.51,4.51,0,0,1,.28,1.41,20.53,20.53,0,0,1-.09,2.51c-.08.94-.12,1.55-.11,1.85a4,4,0,0,0,.1.81Z" style="fill:#5a5a5a"/><path d="M412,383.25l-5.13-9.13.68-.67,5.13,9.11Z" style="fill:#5a5a5a"/><path d="M419.07,375.93l-.84.85-5.39-5.39a6.52,6.52,0,0,1-.22,1.38,7.83,7.83,0,0,1-.46,1.33l-.81-.82a7.29,7.29,0,0,0,.43-2,4.43,4.43,0,0,0-.17-1.67l.54-.54Z" style="fill:#5a5a5a"/><path d="M418.89,372.48l.73-1a2.54,2.54,0,0,0,1.53.54,1.72,1.72,0,0,0,1.17-.53,1.94,1.94,0,0,0,.6-1.42,2,2,0,0,0-.62-1.44,1.81,1.81,0,0,0-1.34-.58,1.89,1.89,0,0,0-1.35.59,3.64,3.64,0,0,0-.5.69l-.65-.83.15-.13a2.46,2.46,0,0,0,.69-1.26,1.37,1.37,0,0,0-.44-1.3,1.43,1.43,0,0,0-1.08-.45,1.55,1.55,0,0,0-1.12.5,1.62,1.62,0,0,0-.51,1.14,2.16,2.16,0,0,0,.5,1.35l-1,.69a3.06,3.06,0,0,1-.62-2,2.9,2.9,0,0,1,.9-1.83,3.17,3.17,0,0,1,1.28-.8,2.43,2.43,0,0,1,2.53.57,2,2,0,0,1,.57,1.05,2.28,2.28,0,0,1-.12,1.3,2.22,2.22,0,0,1,1.53-.37,2.53,2.53,0,0,1,1.45.77,2.91,2.91,0,0,1,.87,2.19,3.26,3.26,0,0,1-1,2.29,3.06,3.06,0,0,1-2,1A2.93,2.93,0,0,1,418.89,372.48Z" style="fill:#5a5a5a"/><path d="M426.43,368.81l-5.13-9.12L422,359l5.13,9.11Z" style="fill:#5a5a5a"/><path d="M432.76,360.62l.81.82L429,366a2,2,0,0,1-.48-.68,4.18,4.18,0,0,1-.36-1.48,11.66,11.66,0,0,1,.06-2.15,13.24,13.24,0,0,0,.06-3,2.5,2.5,0,0,0-.62-1.42,1.63,1.63,0,0,0-1.21-.49,1.85,1.85,0,0,0-1.29.6,1.87,1.87,0,0,0-.61,1.34,2,2,0,0,0,.65,1.39l-1,.78a3,3,0,0,1-.81-2.16,3.24,3.24,0,0,1,1.05-2.07,3.1,3.1,0,0,1,2.12-1,2.54,2.54,0,0,1,1.94.78,3,3,0,0,1,.65,1,4.51,4.51,0,0,1,.28,1.41,20.53,20.53,0,0,1-.09,2.51,17.27,17.27,0,0,0-.11,1.85,3.39,3.39,0,0,0,.1.81Z" style="fill:#5a5a5a"/><path d="M430.54,357.67a8.67,8.67,0,0,1-1.72-2.22,3.52,3.52,0,0,1-.4-1.89,2.69,2.69,0,0,1,.84-1.65,2.88,2.88,0,0,1,1.2-.75,2.63,2.63,0,0,1,1.34-.05,5,5,0,0,1,1.45.6,9.43,9.43,0,0,1,1.78,1.47,9,9,0,0,1,1.71,2.2,3.49,3.49,0,0,1,.41,1.9,3,3,0,0,1-3.13,2.51A6.37,6.37,0,0,1,430.54,357.67Zm.87-.87a6.1,6.1,0,0,0,2.65,1.86,1.59,1.59,0,0,0,2-2,9.42,9.42,0,0,0-4.52-4.52,1.66,1.66,0,0,0-1.54.44,1.51,1.51,0,0,0-.44,1.42A6.2,6.2,0,0,0,431.41,356.8Z" style="fill:#5a5a5a"/><path d="M443.58,349.8l.81.82-4.55,4.55a2.07,2.07,0,0,1-.49-.69A4.07,4.07,0,0,1,439,353a11.64,11.64,0,0,1,.06-2.15,12.74,12.74,0,0,0,.06-3,2.5,2.5,0,0,0-.62-1.41,1.63,1.63,0,0,0-1.21-.49,2.07,2.07,0,0,0-1.89,1.94,1.93,1.93,0,0,0,.64,1.38l-1,.78a3,3,0,0,1-.81-2.15,3.24,3.24,0,0,1,1.05-2.07,3.09,3.09,0,0,1,2.13-1,2.61,2.61,0,0,1,1.94.79,3,3,0,0,1,.64,1,4.51,4.51,0,0,1,.28,1.41,20.53,20.53,0,0,1-.09,2.51c-.08.94-.12,1.55-.11,1.85a4.08,4.08,0,0,0,.1.81Z" style="fill:#5a5a5a"/><path d="M448,347.06l-.85.85-5.39-5.39a5.93,5.93,0,0,1-.22,1.38,8.9,8.9,0,0,1-.45,1.33l-.82-.82a7.37,7.37,0,0,0,.43-2.05,4.43,4.43,0,0,0-.17-1.67l.55-.55Z" style="fill:#5a5a5a"/><path d="M457.59,385.72l.73-1a2.68,2.68,0,0,0,1.53.54,1.72,1.72,0,0,0,1.17-.53,2,2,0,0,0,0-2.86,1.81,1.81,0,0,0-1.34-.58,1.85,1.85,0,0,0-1.34.59,3.63,3.63,0,0,0-.51.69l-.65-.84.15-.12a2.46,2.46,0,0,0,.69-1.26,1.34,1.34,0,0,0-.44-1.3,1.48,1.48,0,0,0-1.08-.46,1.6,1.6,0,0,0-1.12.51,1.62,1.62,0,0,0-.51,1.13,2.17,2.17,0,0,0,.5,1.36l-1,.69a3.06,3.06,0,0,1-.62-2,3,3,0,0,1,.9-1.84,3.22,3.22,0,0,1,1.29-.79,2.42,2.42,0,0,1,1.38-.07,2.31,2.31,0,0,1,1.14.64,2.11,2.11,0,0,1,.58,1.05,2.34,2.34,0,0,1-.13,1.29,2.27,2.27,0,0,1,1.53-.36,2.5,2.5,0,0,1,1.45.77,2.88,2.88,0,0,1,.87,2.19,3.26,3.26,0,0,1-1,2.29,3.06,3.06,0,0,1-2.05,1A2.93,2.93,0,0,1,457.59,385.72Z" style="fill:#5a5a5a"/><path d="M463.93,383.25l-5.12-9.13.67-.67,5.14,9.11Z" style="fill:#5a5a5a"/><path d="M471,375.93l-.85.85-5.39-5.39a5.93,5.93,0,0,1-.22,1.38,7.09,7.09,0,0,1-.45,1.33l-.82-.82a7.25,7.25,0,0,0,.44-2,4.67,4.67,0,0,0-.17-1.67l.54-.54Z" style="fill:#5a5a5a"/><path d="M470.82,372.48l.74-1a2.54,2.54,0,0,0,1.53.53,1.76,1.76,0,0,0,1.17-.53,1.89,1.89,0,0,0,.59-1.42,2,2,0,0,0-.61-1.44,1.83,1.83,0,0,0-1.34-.58,1.86,1.86,0,0,0-1.35.59,3.25,3.25,0,0,0-.5.69l-.65-.83.15-.13a2.46,2.46,0,0,0,.69-1.26,1.37,1.37,0,0,0-.44-1.3,1.44,1.44,0,0,0-1.09-.45,1.54,1.54,0,0,0-1.11.5,1.68,1.68,0,0,0-.52,1.14,2.24,2.24,0,0,0,.51,1.35l-1,.7a3.13,3.13,0,0,1-.61-2,2.9,2.9,0,0,1,.9-1.83,3.21,3.21,0,0,1,1.28-.8,2.55,2.55,0,0,1,1.39-.07,2.48,2.48,0,0,1,1.14.64,2,2,0,0,1,.57,1.05,2.29,2.29,0,0,1-.13,1.3,2.26,2.26,0,0,1,1.54-.37,2.56,2.56,0,0,1,1.45.77,2.91,2.91,0,0,1,.87,2.19,3.3,3.3,0,0,1-1,2.29,3.06,3.06,0,0,1-2,1A3,3,0,0,1,470.82,372.48Z" style="fill:#5a5a5a"/><path d="M478.36,368.82l-5.12-9.13.67-.67,5.13,9.11Z" style="fill:#5a5a5a"/><path d="M484.69,360.63l.82.81L481,366a2.08,2.08,0,0,1-.49-.68,4.66,4.66,0,0,1-.36-1.48,12.79,12.79,0,0,1,.07-2.15,13.88,13.88,0,0,0,.06-3,2.5,2.5,0,0,0-.63-1.42,1.65,1.65,0,0,0-1.2-.49,2.09,2.09,0,0,0-1.9,1.94,2,2,0,0,0,.64,1.39l-.95.78a3,3,0,0,1-.81-2.16,3.15,3.15,0,0,1,1.05-2.07,3.1,3.1,0,0,1,2.12-1,2.55,2.55,0,0,1,1.94.78,2.92,2.92,0,0,1,.64,1,4.24,4.24,0,0,1,.28,1.41,17.1,17.1,0,0,1-.09,2.51c-.08.94-.11,1.55-.11,1.85a3.9,3.9,0,0,0,.1.81Z" style="fill:#5a5a5a"/><path d="M482.48,357.67a8.82,8.82,0,0,1-1.72-2.21,3.48,3.48,0,0,1-.4-1.9,2.69,2.69,0,0,1,.84-1.65,2.88,2.88,0,0,1,1.2-.75,2.6,2.6,0,0,1,1.33-.05,4.91,4.91,0,0,1,1.46.6,9.84,9.84,0,0,1,1.78,1.47,8.81,8.81,0,0,1,1.71,2.21,3.43,3.43,0,0,1,.4,1.89,2.71,2.71,0,0,1-.84,1.66,2.66,2.66,0,0,1-2.28.85A6.37,6.37,0,0,1,482.48,357.67Zm.86-.87a6.17,6.17,0,0,0,2.66,1.86,1.6,1.6,0,0,0,2-2,6.1,6.1,0,0,0-1.86-2.65,6,6,0,0,0-2.66-1.86,1.65,1.65,0,0,0-1.55.43,1.51,1.51,0,0,0-.43,1.42A6.07,6.07,0,0,0,483.34,356.8Z" style="fill:#5a5a5a"/><path d="M495.52,349.8l.81.82-4.56,4.55a2.19,2.19,0,0,1-.49-.68,4.41,4.41,0,0,1-.35-1.48,11.66,11.66,0,0,1,.06-2.15,14,14,0,0,0,.06-3,2.5,2.5,0,0,0-.63-1.41,1.59,1.59,0,0,0-1.2-.49,1.85,1.85,0,0,0-1.29.6,1.87,1.87,0,0,0-.61,1.34,2,2,0,0,0,.65,1.39l-1,.78a3,3,0,0,1-.81-2.16,3.24,3.24,0,0,1,1.05-2.07,3.06,3.06,0,0,1,2.12-1,2.55,2.55,0,0,1,1.94.78,3,3,0,0,1,.65,1,4.81,4.81,0,0,1,.28,1.41,19.06,19.06,0,0,1-.1,2.51c-.08.94-.11,1.55-.11,1.85a4.06,4.06,0,0,0,.11.81Z" style="fill:#5a5a5a"/><path d="M499.88,347.06l-.84.85-5.39-5.39a6.52,6.52,0,0,1-.22,1.38,7.83,7.83,0,0,1-.46,1.33l-.81-.82a7.29,7.29,0,0,0,.43-2.05,4.43,4.43,0,0,0-.17-1.67l.54-.55Z" style="fill:#5a5a5a"/><path d="M519.61,384.83,518,383.18l-3,3-.77-.77-1.32-7.61.69-.69,4.46,4.46.93-.93.78.78-.93.93,1.65,1.65Zm-2.42-2.42-3.11-3.11.95,5.26Z" style="fill:#5a5a5a"/><path d="M521.43,383.25l-5.13-9.13.68-.67,5.13,9.11Z" style="fill:#5a5a5a"/><path d="M528.51,375.94l-.85.84-5.39-5.39a5.93,5.93,0,0,1-.22,1.38,7.09,7.09,0,0,1-.45,1.33l-.82-.81a7,7,0,0,0,.43-2.05,4.28,4.28,0,0,0-.17-1.68l.55-.54Z" style="fill:#5a5a5a"/><path d="M528.32,372.48l.74-1a2.63,2.63,0,0,0,1.53.54,1.77,1.77,0,0,0,1.17-.54,1.93,1.93,0,0,0,.59-1.42,2,2,0,0,0-.61-1.44,1.84,1.84,0,0,0-2.69,0,3.25,3.25,0,0,0-.5.69l-.65-.83.14-.13a2.41,2.41,0,0,0,.7-1.26,1.37,1.37,0,0,0-.44-1.3,1.44,1.44,0,0,0-1.09-.45,1.58,1.58,0,0,0-1.12.5,1.67,1.67,0,0,0-.51,1.14,2.24,2.24,0,0,0,.51,1.35l-1,.7a3.08,3.08,0,0,1-.61-2,2.86,2.86,0,0,1,.9-1.83,3.21,3.21,0,0,1,1.28-.8,2.49,2.49,0,0,1,2.53.57,2,2,0,0,1,.57,1.05,2.38,2.38,0,0,1-.13,1.3,2.25,2.25,0,0,1,1.54-.37,2.52,2.52,0,0,1,1.45.78,2.87,2.87,0,0,1,.87,2.18,3.27,3.27,0,0,1-1,2.29,3,3,0,0,1-2,1A3,3,0,0,1,528.32,372.48Z" style="fill:#5a5a5a"/><path d="M535.86,368.82l-5.13-9.13.68-.67,5.13,9.11Z" style="fill:#5a5a5a"/><path d="M542.19,360.63l.81.81L538.45,366a2.08,2.08,0,0,1-.49-.68,4.66,4.66,0,0,1-.36-1.48,12.79,12.79,0,0,1,.07-2.15,13.09,13.09,0,0,0,.05-3,2.43,2.43,0,0,0-.62-1.42,1.61,1.61,0,0,0-1.21-.48,1.78,1.78,0,0,0-1.28.59,1.83,1.83,0,0,0-.61,1.34,2,2,0,0,0,.64,1.39l-1,.78a3.12,3.12,0,0,1-.81-2.16,3.21,3.21,0,0,1,1.06-2.07,3.1,3.1,0,0,1,2.12-1,2.55,2.55,0,0,1,1.94.78,2.86,2.86,0,0,1,.64,1,4.13,4.13,0,0,1,.28,1.4,17.1,17.1,0,0,1-.09,2.51c-.08.94-.12,1.55-.11,1.85a4.09,4.09,0,0,0,.1.82Z" style="fill:#5a5a5a"/><path d="M540,357.67a9,9,0,0,1-1.71-2.21,3.48,3.48,0,0,1-.4-1.9,2.69,2.69,0,0,1,.84-1.65,2.88,2.88,0,0,1,1.2-.75,2.59,2.59,0,0,1,1.33-.05,4.86,4.86,0,0,1,1.45.6,9.52,9.52,0,0,1,1.79,1.47,8.81,8.81,0,0,1,1.71,2.21,3.43,3.43,0,0,1,.4,1.89,2.71,2.71,0,0,1-.84,1.66,2.66,2.66,0,0,1-2.28.85A6.42,6.42,0,0,1,540,357.67Zm.87-.87a6.16,6.16,0,0,0,2.66,1.87,1.61,1.61,0,0,0,2-2,9.35,9.35,0,0,0-4.52-4.51,1.65,1.65,0,0,0-1.55.43A1.51,1.51,0,0,0,539,354,6.07,6.07,0,0,0,540.84,356.8Z" style="fill:#5a5a5a"/><path d="M553,349.8l.82.82-4.56,4.55a2.19,2.19,0,0,1-.49-.68,4.66,4.66,0,0,1-.36-1.48,12.79,12.79,0,0,1,.07-2.15,14,14,0,0,0,.06-3,2.5,2.5,0,0,0-.63-1.41,1.59,1.59,0,0,0-1.2-.49,2.09,2.09,0,0,0-1.9,1.94,2,2,0,0,0,.64,1.39l-1,.78a3,3,0,0,1-.81-2.16,3.19,3.19,0,0,1,1-2.07,3.1,3.1,0,0,1,2.12-1,2.55,2.55,0,0,1,1.94.78,3,3,0,0,1,.65,1,4.81,4.81,0,0,1,.28,1.41,19.06,19.06,0,0,1-.1,2.51c-.08.94-.11,1.55-.11,1.85a4.85,4.85,0,0,0,.1.81Z" style="fill:#5a5a5a"/><path d="M557.38,347.06l-.84.85-5.4-5.39a5.87,5.87,0,0,1-.21,1.38,7.83,7.83,0,0,1-.46,1.33l-.82-.82a7,7,0,0,0,.44-2.05,4.64,4.64,0,0,0-.17-1.67l.54-.55Z" style="fill:#5a5a5a"/><path d="M570.75,385.74l.81-1a2.31,2.31,0,0,0,1.44.51,1.73,1.73,0,0,0,1.19-.54,1.86,1.86,0,0,0,.57-1.49,2.44,2.44,0,0,0-.8-1.65,2.21,2.21,0,0,0-1.54-.73,2,2,0,0,0-1.49.64,2.17,2.17,0,0,0-.55.93,2,2,0,0,0,0,1l-.9.69-2.87-4.21L570,376.5l.81.81-2.75,2.75,1.48,2.23a3.21,3.21,0,0,1,.87-1.74,2.94,2.94,0,0,1,2.15-.9,3.15,3.15,0,0,1,2.23,1,3.54,3.54,0,0,1,1.07,2.16,3.1,3.1,0,0,1-1,2.65,3.18,3.18,0,0,1-2.06,1A3,3,0,0,1,570.75,385.74Z" style="fill:#5a5a5a"/><path d="M577.09,383.25,572,374.12l.68-.67,5.13,9.12Z" style="fill:#5a5a5a"/><path d="M584.16,375.94l-.84.84-5.39-5.39a6.52,6.52,0,0,1-.22,1.38,7.83,7.83,0,0,1-.46,1.33l-.81-.81a7.37,7.37,0,0,0,.43-2.05,4.51,4.51,0,0,0-.17-1.68l.55-.54Z" style="fill:#5a5a5a"/><path d="M584,372.48l.73-1a2.68,2.68,0,0,0,1.53.54,1.73,1.73,0,0,0,1.17-.54,1.94,1.94,0,0,0,.6-1.42,2,2,0,0,0-.62-1.44,1.83,1.83,0,0,0-2.68,0,3.63,3.63,0,0,0-.51.69l-.65-.83a1.16,1.16,0,0,0,.15-.13,2.46,2.46,0,0,0,.69-1.26,1.38,1.38,0,0,0-.44-1.3,1.43,1.43,0,0,0-1.08-.45,1.52,1.52,0,0,0-1.12.51,1.58,1.58,0,0,0-.51,1.13,2.16,2.16,0,0,0,.5,1.35l-1,.7a3.15,3.15,0,0,1-.62-2,2.87,2.87,0,0,1,.91-1.83,3.15,3.15,0,0,1,1.28-.8,2.42,2.42,0,0,1,1.38-.06,2.37,2.37,0,0,1,1.14.63,2.1,2.1,0,0,1,.58,1.06,2.35,2.35,0,0,1-.13,1.29,2.22,2.22,0,0,1,1.53-.37,2.49,2.49,0,0,1,1.45.78,2.88,2.88,0,0,1,.88,2.18,3.33,3.33,0,0,1-1,2.3,3.1,3.1,0,0,1-2.05,1A2.93,2.93,0,0,1,584,372.48Z" style="fill:#5a5a5a"/><path d="M591.52,368.82l-5.13-9.13.68-.67,5.13,9.12Z" style="fill:#5a5a5a"/><path d="M597.85,360.63l.81.81L594.11,366a1.94,1.94,0,0,1-.49-.68,4.18,4.18,0,0,1-.36-1.48,11.66,11.66,0,0,1,.06-2.15,12.66,12.66,0,0,0,.06-3,2.5,2.5,0,0,0-.62-1.42,1.62,1.62,0,0,0-1.21-.48,1.76,1.76,0,0,0-1.28.59,1.85,1.85,0,0,0-.62,1.34,2,2,0,0,0,.65,1.39l-1,.78a3,3,0,0,1-.81-2.16,3.24,3.24,0,0,1,1.05-2.07,3.12,3.12,0,0,1,2.12-1,2.54,2.54,0,0,1,1.94.78,3,3,0,0,1,.65,1,4.44,4.44,0,0,1,.28,1.4,20.68,20.68,0,0,1-.09,2.52c-.08.93-.12,1.54-.11,1.84a3.47,3.47,0,0,0,.1.82Z" style="fill:#5a5a5a"/><path d="M595.63,357.67a8.52,8.52,0,0,1-1.71-2.21,3.41,3.41,0,0,1-.41-1.9,2.65,2.65,0,0,1,.85-1.65,2.85,2.85,0,0,1,1.19-.75,2.63,2.63,0,0,1,1.34-.05,5,5,0,0,1,1.45.6,9.84,9.84,0,0,1,1.78,1.47,8.81,8.81,0,0,1,1.71,2.21,3.44,3.44,0,0,1,.41,1.89,2.68,2.68,0,0,1-.85,1.66,2.64,2.64,0,0,1-2.28.85A6.37,6.37,0,0,1,595.63,357.67Zm.87-.87a6.2,6.2,0,0,0,2.65,1.87,1.67,1.67,0,0,0,1.55-.42,1.69,1.69,0,0,0,.41-1.55,9.38,9.38,0,0,0-4.51-4.51,1.65,1.65,0,0,0-1.55.43,1.51,1.51,0,0,0-.44,1.42A6.2,6.2,0,0,0,596.5,356.8Z" style="fill:#5a5a5a"/><path d="M608.67,349.8l.81.82-4.55,4.55a2,2,0,0,1-.49-.68,4.18,4.18,0,0,1-.36-1.48,11.66,11.66,0,0,1,.06-2.15,12.74,12.74,0,0,0,.06-3,2.43,2.43,0,0,0-.62-1.41,1.63,1.63,0,0,0-1.21-.49,1.81,1.81,0,0,0-1.28.6,1.83,1.83,0,0,0-.61,1.34,2,2,0,0,0,.64,1.39l-1,.78a3,3,0,0,1-.81-2.16,3.21,3.21,0,0,1,1.06-2.07,3.08,3.08,0,0,1,2.12-1,2.56,2.56,0,0,1,1.94.78,3,3,0,0,1,.64,1,4.51,4.51,0,0,1,.28,1.41,20.53,20.53,0,0,1-.09,2.51c-.08.94-.12,1.55-.11,1.85a4,4,0,0,0,.1.81Z" style="fill:#5a5a5a"/><path d="M613,347.06l-.85.85-5.39-5.39a5.93,5.93,0,0,1-.22,1.38,7.89,7.89,0,0,1-.45,1.33l-.82-.82a7,7,0,0,0,.43-2.05,4.43,4.43,0,0,0-.17-1.67l.55-.55Z" style="fill:#5a5a5a"/><path d="M629.24,378l-.77.91a2.2,2.2,0,0,0-1.05-.4,1.55,1.55,0,0,0-1.21.48,1.62,1.62,0,0,0-.48.93,2.72,2.72,0,0,0,.22,1.48,6.36,6.36,0,0,0,1.35,1.84,2.9,2.9,0,0,1,.06-1.44,2.77,2.77,0,0,1,.7-1.15,2.68,2.68,0,0,1,2.06-.82,3.19,3.19,0,0,1,2.21,1,3.76,3.76,0,0,1,.92,1.49,2.82,2.82,0,0,1,.09,1.62,3.19,3.19,0,0,1-3.32,2.35,5.53,5.53,0,0,1-3.23-1.89,6.57,6.57,0,0,1-2.17-3.64,3,3,0,0,1,1-2.53,2.74,2.74,0,0,1,1.79-.87A2.71,2.71,0,0,1,629.24,378Zm-.48,6.43a2.74,2.74,0,0,0,1,.65,2,2,0,0,0,1.13.09,2,2,0,0,0,.91-.49,1.69,1.69,0,0,0,.48-1.36,2.43,2.43,0,0,0-.78-1.56A2.28,2.28,0,0,0,630,381a1.77,1.77,0,0,0-1.37.54,1.87,1.87,0,0,0-.56,1.39A2.06,2.06,0,0,0,628.76,384.38Z" style="fill:#5a5a5a"/><path d="M634.59,383.25l-5.13-9.12.67-.68,5.14,9.12Z" style="fill:#5a5a5a"/><path d="M641.66,375.94l-.84.84-5.39-5.39a6.7,6.7,0,0,1-.22,1.39,8,8,0,0,1-.46,1.32l-.81-.81a7.37,7.37,0,0,0,.43-2.05,4.51,4.51,0,0,0-.17-1.68l.54-.54Z" style="fill:#5a5a5a"/><path d="M641.48,372.49l.73-1a2.68,2.68,0,0,0,1.53.54,1.73,1.73,0,0,0,1.17-.54,1.94,1.94,0,0,0,.6-1.42,2,2,0,0,0-.62-1.44,1.84,1.84,0,0,0-2.69,0,3.64,3.64,0,0,0-.5.69l-.65-.83a1.08,1.08,0,0,0,.15-.13,2.47,2.47,0,0,0,.69-1.25,1.38,1.38,0,0,0-.44-1.31,1.43,1.43,0,0,0-1.08-.45,1.52,1.52,0,0,0-1.12.51,1.58,1.58,0,0,0-.51,1.13,2.14,2.14,0,0,0,.5,1.35l-1,.7a3.09,3.09,0,0,1-.62-2,2.93,2.93,0,0,1,.9-1.83,3.25,3.25,0,0,1,1.29-.8,2.42,2.42,0,0,1,1.38-.06,2.37,2.37,0,0,1,1.14.63,2,2,0,0,1,.57,1.06,2.25,2.25,0,0,1-.12,1.29,2.22,2.22,0,0,1,1.53-.37,2.49,2.49,0,0,1,1.45.78,2.84,2.84,0,0,1,.87,2.18,3.28,3.28,0,0,1-1,2.3,3.1,3.1,0,0,1-2.05,1A3,3,0,0,1,641.48,372.49Z" style="fill:#5a5a5a"/><path d="M649,368.82l-5.13-9.12.68-.68,5.13,9.12Z" style="fill:#5a5a5a"/><path d="M655.35,360.63l.81.81L651.6,366a1.91,1.91,0,0,1-.48-.68,4.18,4.18,0,0,1-.36-1.48,11.66,11.66,0,0,1,.06-2.15,13.88,13.88,0,0,0,.06-3,2.53,2.53,0,0,0-.63-1.42,1.58,1.58,0,0,0-1.2-.48,1.84,1.84,0,0,0-1.29.59,1.89,1.89,0,0,0-.61,1.34,2,2,0,0,0,.65,1.39l-1,.78a3,3,0,0,1-.81-2.16,3.26,3.26,0,0,1,1.05-2.07,3.1,3.1,0,0,1,2.12-1,2.55,2.55,0,0,1,1.94.78,3,3,0,0,1,.65,1,4.74,4.74,0,0,1,.28,1.4,20.68,20.68,0,0,1-.09,2.52,17.13,17.13,0,0,0-.11,1.84,3.47,3.47,0,0,0,.1.82Z" style="fill:#5a5a5a"/><path d="M653.13,357.67a8.82,8.82,0,0,1-1.72-2.21,3.48,3.48,0,0,1-.4-1.9,2.69,2.69,0,0,1,.84-1.65,2.88,2.88,0,0,1,1.2-.75,2.63,2.63,0,0,1,1.34-.05,5,5,0,0,1,1.45.6,9.84,9.84,0,0,1,1.78,1.47,9,9,0,0,1,1.71,2.21,3.44,3.44,0,0,1,.41,1.89,2.7,2.7,0,0,1-.85,1.66,2.64,2.64,0,0,1-2.28.85A6.37,6.37,0,0,1,653.13,357.67Zm.87-.87a6.06,6.06,0,0,0,2.65,1.87,1.67,1.67,0,0,0,1.55-.42,1.69,1.69,0,0,0,.41-1.55,6.1,6.1,0,0,0-1.86-2.65,6,6,0,0,0-2.66-1.86,1.66,1.66,0,0,0-1.55.43,1.54,1.54,0,0,0-.43,1.42A6.2,6.2,0,0,0,654,356.8Z" style="fill:#5a5a5a"/><path d="M666.17,349.81l.81.81-4.55,4.55a1.94,1.94,0,0,1-.49-.68,4.18,4.18,0,0,1-.36-1.48,11.66,11.66,0,0,1,.06-2.15,13.24,13.24,0,0,0,.06-3,2.5,2.5,0,0,0-.62-1.42,1.67,1.67,0,0,0-1.21-.49,1.81,1.81,0,0,0-1.28.6,1.83,1.83,0,0,0-.61,1.34,1.93,1.93,0,0,0,.64,1.39l-1,.78a3,3,0,0,1-.81-2.16,3.24,3.24,0,0,1,1-2.07,3.12,3.12,0,0,1,2.12-1,2.54,2.54,0,0,1,1.94.78,2.89,2.89,0,0,1,.65,1,4.38,4.38,0,0,1,.28,1.4,20.53,20.53,0,0,1-.09,2.51c-.08.94-.12,1.55-.11,1.85a3.9,3.9,0,0,0,.1.81Z" style="fill:#5a5a5a"/><path d="M670.54,347.06l-.85.85-5.39-5.39a5.93,5.93,0,0,1-.22,1.38,8.9,8.9,0,0,1-.45,1.33l-.82-.82a7.22,7.22,0,0,0,.43-2.05,4.45,4.45,0,0,0-.17-1.67l.55-.54Z" style="fill:#5a5a5a"/><path d="M679.77,381.5l-.81-.81,4.46-4.46.66.66a13,13,0,0,0,.56,3.16,15.58,15.58,0,0,0,1.39,3.39,12.6,12.6,0,0,0,1.57,2.22l-.87.86a11.42,11.42,0,0,1-1.65-2.28,14.52,14.52,0,0,1-1.34-3.1,13.06,13.06,0,0,1-.59-3Z" style="fill:#5a5a5a"/><path d="M690.24,383.25l-5.13-9.13.68-.67,5.13,9.12Z" style="fill:#5a5a5a"/><path d="M697.31,375.94l-.84.84-5.39-5.39a5.93,5.93,0,0,1-.22,1.38,8.9,8.9,0,0,1-.45,1.33l-.82-.81a7.37,7.37,0,0,0,.43-2.05,4.51,4.51,0,0,0-.17-1.68l.55-.54Z" style="fill:#5a5a5a"/><path d="M697.13,372.48l.73-1a2.68,2.68,0,0,0,1.53.54,1.73,1.73,0,0,0,1.17-.54,1.94,1.94,0,0,0,.6-1.42,2,2,0,0,0-.62-1.44,1.83,1.83,0,0,0-2.68,0,3.63,3.63,0,0,0-.51.69l-.64-.83.14-.13a2.46,2.46,0,0,0,.69-1.26,1.36,1.36,0,0,0-.44-1.3,1.43,1.43,0,0,0-1.08-.45,1.54,1.54,0,0,0-1.12.51,1.58,1.58,0,0,0-.51,1.13,2.16,2.16,0,0,0,.51,1.35l-1,.7a3,3,0,0,1-.61-2,2.81,2.81,0,0,1,.9-1.83,3.15,3.15,0,0,1,1.28-.8,2.42,2.42,0,0,1,1.38-.06A2.37,2.37,0,0,1,698,365a2.1,2.1,0,0,1,.58,1.06,2.35,2.35,0,0,1-.13,1.29A2.22,2.22,0,0,1,700,367a2.46,2.46,0,0,1,1.45.78,2.8,2.8,0,0,1,.87,2.18,3.28,3.28,0,0,1-1,2.3,3.1,3.1,0,0,1-2,1A2.93,2.93,0,0,1,697.13,372.48Z" style="fill:#5a5a5a"/><path d="M704.67,368.82l-5.13-9.12.68-.68,5.13,9.12Z" style="fill:#5a5a5a"/><path d="M711,360.63l.81.81L707.26,366a1.94,1.94,0,0,1-.49-.68,4.18,4.18,0,0,1-.36-1.48,11.66,11.66,0,0,1,.06-2.15,13.24,13.24,0,0,0,.06-3,2.53,2.53,0,0,0-.62-1.42,1.62,1.62,0,0,0-1.21-.48,1.8,1.8,0,0,0-1.28.59,1.85,1.85,0,0,0-.62,1.34,2,2,0,0,0,.65,1.39l-1,.78a3,3,0,0,1-.81-2.16,3.26,3.26,0,0,1,1.05-2.07,3.12,3.12,0,0,1,2.13-1,2.56,2.56,0,0,1,1.94.78,3,3,0,0,1,.64,1,4.44,4.44,0,0,1,.28,1.4,20.68,20.68,0,0,1-.09,2.52c-.08.93-.12,1.55-.11,1.84a3.47,3.47,0,0,0,.1.82Z" style="fill:#5a5a5a"/><path d="M708.78,357.67a8.52,8.52,0,0,1-1.71-2.21,3.49,3.49,0,0,1-.41-1.9,2.65,2.65,0,0,1,.85-1.65,2.85,2.85,0,0,1,1.19-.75,2.64,2.64,0,0,1,1.34-.05,5,5,0,0,1,1.45.6,9.51,9.51,0,0,1,1.78,1.47,9,9,0,0,1,1.71,2.21,3.44,3.44,0,0,1,.41,1.89,3,3,0,0,1-3.13,2.51A6.4,6.4,0,0,1,708.78,357.67Zm.87-.87a6.11,6.11,0,0,0,2.65,1.87,1.6,1.6,0,0,0,2-2,9.38,9.38,0,0,0-4.51-4.51,1.65,1.65,0,0,0-1.55.43,1.51,1.51,0,0,0-.44,1.42A6.2,6.2,0,0,0,709.65,356.8Z" style="fill:#5a5a5a"/><path d="M721.82,349.81l.81.81-4.55,4.55a2.19,2.19,0,0,1-.49-.68,4.41,4.41,0,0,1-.36-1.48,12.62,12.62,0,0,1,.06-2.15,12.74,12.74,0,0,0,.06-3,2.43,2.43,0,0,0-.62-1.41,1.63,1.63,0,0,0-1.21-.49,1.81,1.81,0,0,0-1.28.6,1.83,1.83,0,0,0-.61,1.34,2,2,0,0,0,.64,1.39l-1,.78a3,3,0,0,1-.81-2.16,3.21,3.21,0,0,1,1.06-2.07,3.08,3.08,0,0,1,2.12-1,2.55,2.55,0,0,1,1.94.78,3.08,3.08,0,0,1,.64,1,4.24,4.24,0,0,1,.28,1.41,20.53,20.53,0,0,1-.09,2.51c-.08.94-.12,1.55-.11,1.85a4.09,4.09,0,0,0,.1.82Z" style="fill:#5a5a5a"/><path d="M726.19,347.06l-.85.85L720,342.52a5.93,5.93,0,0,1-.22,1.38,8.9,8.9,0,0,1-.45,1.33l-.82-.82a7,7,0,0,0,.43-2.05,4.43,4.43,0,0,0-.17-1.67l.55-.55Z" style="fill:#5a5a5a"/></svg>