<svg xmlns="http://www.w3.org/2000/svg" width="727" height="376.29" viewBox="0 0 727 376.29"><g id="aa2d2c85-96f9-4a62-b73d-42780803e2fd" data-name="Layer 5"><path d="M153.76,255.22,61.68,212.28c17.07-36.61,51.68-58.65,92.08-58.65Z" style="fill:#7edfe2;stroke:#fff;stroke-miterlimit:10;stroke-width:1.7304750415363737px"/><path d="M153.76,255.22l-100-17.64a100.78,100.78,0,0,1,8-25.3Z" style="fill:#7a909e;stroke:#fff;stroke-miterlimit:10;stroke-width:1.7304750415363737px"/><path d="M153.76,255.22,53.15,269.36a96.59,96.59,0,0,1,.56-31.78Z" style="fill:#155c5e;stroke:#fff;stroke-miterlimit:10;stroke-width:1.7304750415363737px"/><path d="M153.76,255.22l-63.94,79C68.89,317.22,56.9,296,53.15,269.36Z" style="fill:#c8cdfe;stroke:#fff;stroke-miterlimit:10;stroke-width:1.7304750415363737px"/><path d="M153.76,255.22l38.06,94.2c-35.38,14.29-72.35,8.76-102-15.25Z" style="fill:#7681fc;stroke:#fff;stroke-miterlimit:10;stroke-width:1.7304750415363737px;fill-rule:evenodd"/><path d="M153.76,255.22V153.63A101.59,101.59,0,0,1,255.35,255.22c0,42.64-24,78.22-63.53,94.2Z" style="fill:#0d1826;stroke:#fff;stroke-miterlimit:10;stroke-width:1.7304750415363737px;fill-rule:evenodd"/><rect x="226.84" y="63.74" width="30.54" height="13.4" style="fill:#7edfe2"/><path d="M266.13,77.63q-4.67,0-4.66-7.14t4.66-7.15q4.67,0,4.66,7.15T266.13,77.63Zm0-1.55a2.21,2.21,0,0,0,2.12-1.34,10,10,0,0,0,.67-4.25,10.06,10.06,0,0,0-.67-4.26,2.34,2.34,0,0,0-4.23,0,10,10,0,0,0-.68,4.26,10,10,0,0,0,.68,4.25A2.2,2.2,0,0,0,266.13,76.08Z"/><path d="M276.53,77.51a2.69,2.69,0,0,1-2.14-.74,4,4,0,0,1-.63-2.54V68.35h-1.53V67.07l1-.07a.75.75,0,0,0,.51-.17.86.86,0,0,0,.16-.54l.16-2.3h1.41v3h2.71v1.37h-2.71v6a2.35,2.35,0,0,0,.29,1.38,1.45,1.45,0,0,0,1.15.35,4.82,4.82,0,0,0,1.12-.14v1.35A5.63,5.63,0,0,1,276.53,77.51Z"/><path d="M280,77.35V62.85h1.77v5.34a2.9,2.9,0,0,1,2.6-1.47,2.35,2.35,0,0,1,2,.89,4.17,4.17,0,0,1,.68,2.57v7.17h-1.77v-7a2.65,2.65,0,0,0-.38-1.6,1.33,1.33,0,0,0-1.13-.49,2.43,2.43,0,0,0-1.07.26,2.63,2.63,0,0,0-.9.69v8.17Z"/><path d="M293.1,77.61A3.68,3.68,0,0,1,290,76.32a6.63,6.63,0,0,1-1-4.06,7.16,7.16,0,0,1,1-4.1,3.2,3.2,0,0,1,2.8-1.44q3.56,0,3.56,5.35v.68h-5.62a4.56,4.56,0,0,0,.62,2.59,2.22,2.22,0,0,0,1.88.76,4.38,4.38,0,0,0,1.19-.17,4.84,4.84,0,0,0,1.2-.5l.48,1.35a6,6,0,0,1-3,.83Zm-.34-9.47a1.61,1.61,0,0,0-1.46.83,5.41,5.41,0,0,0-.56,2.53h3.85a5.46,5.46,0,0,0-.45-2.54A1.49,1.49,0,0,0,292.76,68.14Z"/><path d="M298.34,77.35V67h1.47l.18,1.69a3.15,3.15,0,0,1,3-1.81h.21v1.69H303a4.76,4.76,0,0,0-1.67.26,3.17,3.17,0,0,0-1.22.82v7.72Z"/><rect x="226.84" y="32.31" width="30.54" height="13.4" style="fill:#7a909e"/><path d="M262,45.92V32.2h2.38l3.2,9.77,3.21-9.77h2.31V45.92h-1.67V34.68l-3.06,9.14h-1.65l-3.05-9.14V45.92Z"/><path d="M279.46,46.19a3.65,3.65,0,0,1-3.11-1.3,6.61,6.61,0,0,1-1-4.06,7.18,7.18,0,0,1,1-4.1,3.19,3.19,0,0,1,2.8-1.44q3.56,0,3.56,5.36v.67h-5.62a4.59,4.59,0,0,0,.62,2.6,2.21,2.21,0,0,0,1.88.76,4.67,4.67,0,0,0,1.18-.17A5.33,5.33,0,0,0,282,44l.48,1.34A5.6,5.6,0,0,1,281,46,5.84,5.84,0,0,1,279.46,46.19Zm-.34-9.47a1.6,1.6,0,0,0-1.46.82,5.46,5.46,0,0,0-.56,2.54H281a5.53,5.53,0,0,0-.45-2.55A1.48,1.48,0,0,0,279.12,36.72Z"/><path d="M288,46.08a2.67,2.67,0,0,1-2.14-.74,3.93,3.93,0,0,1-.63-2.53V36.92h-1.52V35.64l1-.06a.71.71,0,0,0,.51-.17.91.91,0,0,0,.17-.54l.16-2.3H287v3h2.71v1.36H287v6a2.21,2.21,0,0,0,.3,1.37,1.45,1.45,0,0,0,1.15.36,5.51,5.51,0,0,0,1.12-.14v1.34A5.34,5.34,0,0,1,288,46.08Z"/><path d="M293.67,46.17a2.4,2.4,0,0,1-1.92-.78,3.19,3.19,0,0,1-.69-2.2,3.29,3.29,0,0,1,.86-2.41,3.51,3.51,0,0,1,2.61-.86h1.67v-.66a3.64,3.64,0,0,0-.37-1.95,1.62,1.62,0,0,0-1.39-.51,5.07,5.07,0,0,0-1.25.17,11,11,0,0,0-1.19.4l-.34-1.4a7.3,7.3,0,0,1,1.49-.47,7.49,7.49,0,0,1,1.68-.21,3,3,0,0,1,2.39.88A4.21,4.21,0,0,1,298,39v6.94h-1.51l-.16-1.36a3.31,3.31,0,0,1-1.14,1.18A3,3,0,0,1,293.67,46.17Zm.59-1.43a2.28,2.28,0,0,0,1-.29,2.89,2.89,0,0,0,.9-.75V41.08h-1.55c-1.21,0-1.81.64-1.81,1.93S293.31,44.74,294.26,44.74Z"/><path d="M302.52,46.08a2,2,0,0,1-1.63-.62,3,3,0,0,1-.53-2v-12h1.78V43.54a1.67,1.67,0,0,0,.18.93.8.8,0,0,0,.65.23l.33,0a2,2,0,0,0,.36-.08v1.32a3.25,3.25,0,0,1-.59.12A3.48,3.48,0,0,1,302.52,46.08Z"/><rect x="226.84" y="0.89" width="30.54" height="13.4" style="fill:#155c5e"/><path d="M266.54,14.78a4.4,4.4,0,0,1-3.84-1.7,9.11,9.11,0,0,1-1.23-5.3,9,9,0,0,1,1.38-5.44A4.79,4.79,0,0,1,266.93.49a6.19,6.19,0,0,1,2.87.63l-.47,1.41A6.38,6.38,0,0,0,266.91,2a3,3,0,0,0-2.69,1.4,8.39,8.39,0,0,0-.88,4.36,12.5,12.5,0,0,0,.33,3.2,3.1,3.1,0,0,0,1.06,1.76,3.17,3.17,0,0,0,1.93.53,6.13,6.13,0,0,0,1.65-.22V8.71H266V7.23h4v6.86a6.66,6.66,0,0,1-1.63.51A9.62,9.62,0,0,1,266.54,14.78Z"/><path d="M274.46,14.66a2,2,0,0,1-1.63-.62,3,3,0,0,1-.53-2V0h1.77V12.11a1.62,1.62,0,0,0,.18.93.78.78,0,0,0,.65.23,1.83,1.83,0,0,0,.33,0,2.07,2.07,0,0,0,.37-.08V14.5l-.59.12A3.56,3.56,0,0,1,274.46,14.66Z"/><path d="M279.68,14.74a2.43,2.43,0,0,1-1.92-.77,3.21,3.21,0,0,1-.69-2.2,3.27,3.27,0,0,1,.86-2.41,3.51,3.51,0,0,1,2.61-.87h1.66V7.84a3.7,3.7,0,0,0-.36-2,1.65,1.65,0,0,0-1.39-.5,4.64,4.64,0,0,0-1.25.17A9.22,9.22,0,0,0,278,6l-.35-1.41a9.26,9.26,0,0,1,1.5-.47,8.06,8.06,0,0,1,1.68-.2,3,3,0,0,1,2.39.87A4.25,4.25,0,0,1,284,7.55v7h-1.51l-.16-1.37a3.23,3.23,0,0,1-1.14,1.18A2.86,2.86,0,0,1,279.68,14.74Zm.59-1.42a2.18,2.18,0,0,0,1-.3,2.71,2.71,0,0,0,.89-.74V9.65h-1.54c-1.21,0-1.81.65-1.81,1.94S279.32,13.32,280.27,13.32Z"/><path d="M288.62,14.76a6.77,6.77,0,0,1-1.62-.19,3.68,3.68,0,0,1-1.27-.52l.4-1.43a4.91,4.91,0,0,0,2.57.68,1.72,1.72,0,0,0,1.27-.43,1.66,1.66,0,0,0,.42-1.2,1.58,1.58,0,0,0-.28-1,1.82,1.82,0,0,0-1-.56l-.9-.29a3.51,3.51,0,0,1-1.74-1A2.74,2.74,0,0,1,286,7a3,3,0,0,1,.92-2.27,3.38,3.38,0,0,1,2.4-.86,8.12,8.12,0,0,1,1.38.11,4.57,4.57,0,0,1,1.18.4l-.32,1.36a6.36,6.36,0,0,0-1-.3,5.66,5.66,0,0,0-1.11-.1,1.9,1.9,0,0,0-1.32.41,1.53,1.53,0,0,0-.47,1.19,1.32,1.32,0,0,0,.28.89,2.28,2.28,0,0,0,1,.58l.67.22a4.2,4.2,0,0,1,2,1.12,2.91,2.91,0,0,1,.55,1.9,2.93,2.93,0,0,1-.91,2.29A3.62,3.62,0,0,1,288.62,14.76Z"/><path d="M296.19,14.76a6.89,6.89,0,0,1-1.62-.19,3.77,3.77,0,0,1-1.27-.52l.41-1.43a4.85,4.85,0,0,0,2.56.68,1.75,1.75,0,0,0,1.28-.43,1.69,1.69,0,0,0,.41-1.2,1.64,1.64,0,0,0-.27-1,1.9,1.9,0,0,0-1-.56l-.9-.29a3.6,3.6,0,0,1-1.74-1A2.74,2.74,0,0,1,293.52,7a3,3,0,0,1,.92-2.27,3.38,3.38,0,0,1,2.4-.86,8.25,8.25,0,0,1,1.39.11,4.7,4.7,0,0,1,1.18.4l-.33,1.36a6.36,6.36,0,0,0-1-.3,5.52,5.52,0,0,0-1.11-.1,1.9,1.9,0,0,0-1.32.41,1.53,1.53,0,0,0-.47,1.19,1.32,1.32,0,0,0,.29.89,2.28,2.28,0,0,0,1,.58l.67.22a4.15,4.15,0,0,1,1.95,1.12,2.91,2.91,0,0,1,.55,1.9,3,3,0,0,1-.9,2.29A3.64,3.64,0,0,1,296.19,14.76Z"/><rect y="63.74" width="30.54" height="13.4" style="fill:#c8cdfe"/><path d="M35.16,77.35V63.63h3.68A4,4,0,0,1,42,64.73a4.8,4.8,0,0,1,1,3.25,4.65,4.65,0,0,1-1,3.19,4,4,0,0,1-3.12,1.09H37v5.09Zm3.5-12.22H37v5.62h1.67a2.29,2.29,0,0,0,1.82-.67,3.15,3.15,0,0,0,.58-2.1,3.32,3.32,0,0,0-.58-2.16A2.26,2.26,0,0,0,38.66,65.13Z"/><path d="M46.94,77.51a2,2,0,0,1-1.63-.62,3.06,3.06,0,0,1-.53-2V62.85h1.77V75a1.51,1.51,0,0,0,.19.92.76.76,0,0,0,.65.24,1.73,1.73,0,0,0,.32,0,2.07,2.07,0,0,0,.37-.08v1.33l-.59.12A3.48,3.48,0,0,1,46.94,77.51Z"/><path d="M52.16,77.59a2.44,2.44,0,0,1-1.92-.77,3.2,3.2,0,0,1-.68-2.2,3.27,3.27,0,0,1,.85-2.41A3.51,3.51,0,0,1,53,71.34h1.67v-.65a3.62,3.62,0,0,0-.37-2,1.59,1.59,0,0,0-1.38-.51,4.53,4.53,0,0,0-1.25.17,9.37,9.37,0,0,0-1.2.4l-.34-1.41a8.81,8.81,0,0,1,1.49-.47,8.14,8.14,0,0,1,1.68-.2,3,3,0,0,1,2.4.88,4.2,4.2,0,0,1,.76,2.8v6.95H55L54.81,76a3.08,3.08,0,0,1-1.14,1.18A2.86,2.86,0,0,1,52.16,77.59Zm.59-1.42a2.15,2.15,0,0,0,1-.3,2.75,2.75,0,0,0,.9-.74V72.5H53.14c-1.21,0-1.81.65-1.81,1.94S51.8,76.17,52.75,76.17Z"/><path d="M61.1,77.61a6.89,6.89,0,0,1-1.62-.19,3.77,3.77,0,0,1-1.27-.52l.41-1.43a4.85,4.85,0,0,0,2.56.68,1.71,1.71,0,0,0,1.27-.43,2,2,0,0,0,.15-2.21,1.9,1.9,0,0,0-1-.56l-.9-.29a3.6,3.6,0,0,1-1.74-1,2.73,2.73,0,0,1-.56-1.76,3,3,0,0,1,.92-2.27,3.34,3.34,0,0,1,2.4-.87,8.25,8.25,0,0,1,1.39.11,4.7,4.7,0,0,1,1.18.4L64,68.59a6.36,6.36,0,0,0-1-.3,5.52,5.52,0,0,0-1.11-.1,1.9,1.9,0,0,0-1.32.41,1.53,1.53,0,0,0-.47,1.19,1.32,1.32,0,0,0,.29.89,2.28,2.28,0,0,0,1,.58l.67.22a4.21,4.21,0,0,1,2,1.12,3.43,3.43,0,0,1-.36,4.19A3.6,3.6,0,0,1,61.1,77.61Z"/><path d="M70,77.51a2.7,2.7,0,0,1-2.14-.74,4,4,0,0,1-.63-2.54V68.35H65.69V67.07l1-.07a.71.71,0,0,0,.51-.17.86.86,0,0,0,.17-.54l.16-2.3H69v3h2.71v1.37H69v6a2.26,2.26,0,0,0,.3,1.38,1.44,1.44,0,0,0,1.15.35A4.88,4.88,0,0,0,71.54,76v1.35A5.71,5.71,0,0,1,70,77.51Z"/><path d="M74.22,77.35v-9H73V67h3V77.35ZM74.1,64.81v-2H76v2Z"/><path d="M81.89,77.61Q78,77.61,78,72.22a6.89,6.89,0,0,1,1-4.08A3.41,3.41,0,0,1,82,66.72a5,5,0,0,1,2.32.57l-.43,1.38a3.75,3.75,0,0,0-1.71-.44,1.9,1.9,0,0,0-1.77,1,6.31,6.31,0,0,0-.57,3.06,5.82,5.82,0,0,0,.55,2.91,1.89,1.89,0,0,0,1.75.91A4.06,4.06,0,0,0,84,75.62L84.33,77a5.23,5.23,0,0,1-1.16.48A5.06,5.06,0,0,1,81.89,77.61Z"/><rect y="32.31" width="30.54" height="13.4" style="fill:#7681fc"/><path d="M35.16,45.92V32.2h3.68A4,4,0,0,1,42,33.31a4.78,4.78,0,0,1,1,3.25,4.62,4.62,0,0,1-1,3.18,4,4,0,0,1-3.12,1.09H37v5.09Zm3.5-12.21H37v5.62h1.67a2.29,2.29,0,0,0,1.82-.68,3.11,3.11,0,0,0,.58-2.09,3.3,3.3,0,0,0-.58-2.16A2.26,2.26,0,0,0,38.66,33.71Z"/><path d="M46.87,46.17a2.44,2.44,0,0,1-1.93-.78,3.24,3.24,0,0,1-.68-2.2,3.29,3.29,0,0,1,.86-2.41,3.5,3.5,0,0,1,2.6-.86h1.67v-.66A3.66,3.66,0,0,0,49,37.31a1.62,1.62,0,0,0-1.39-.51,5,5,0,0,0-1.25.17,11,11,0,0,0-1.19.4L44.85,36A9.12,9.12,0,0,1,48,35.29a3,3,0,0,1,2.39.88A4.22,4.22,0,0,1,51.18,39v6.94h-1.5l-.16-1.36a3.25,3.25,0,0,1-1.15,1.18A2.89,2.89,0,0,1,46.87,46.17Zm.59-1.43a2.31,2.31,0,0,0,1-.29,2.85,2.85,0,0,0,.89-.75V41.08H47.85c-1.21,0-1.82.64-1.82,1.93S46.51,44.74,47.46,44.74Z"/><path d="M53.61,49.83V35.56h1.47l.16,1.36a3.24,3.24,0,0,1,1.12-1.2,2.94,2.94,0,0,1,1.55-.43q3.17,0,3.17,5.46c0,3.62-1,5.44-3.13,5.44a3,3,0,0,1-2.57-1.31v4.95Zm3.66-5.13a1.6,1.6,0,0,0,1.52-.92,6.89,6.89,0,0,0,.48-3,7,7,0,0,0-.48-3,1.59,1.59,0,0,0-1.52-.93,2.22,2.22,0,0,0-1,.27,2.6,2.6,0,0,0-.88.67v6a2.63,2.63,0,0,0,.88.68A2.33,2.33,0,0,0,57.27,44.7Z"/><path d="M66.88,46.19a3.65,3.65,0,0,1-3.11-1.3,6.61,6.61,0,0,1-1-4.06,7.18,7.18,0,0,1,1-4.1,3.18,3.18,0,0,1,2.79-1.44q3.57,0,3.57,5.36v.67H64.5a4.59,4.59,0,0,0,.62,2.6,2.21,2.21,0,0,0,1.88.76,4.67,4.67,0,0,0,1.18-.17,5.25,5.25,0,0,0,1.2-.5l.49,1.34a5.6,5.6,0,0,1-1.43.61A5.84,5.84,0,0,1,66.88,46.19Zm-.35-9.47a1.59,1.59,0,0,0-1.45.82,5.46,5.46,0,0,0-.56,2.54h3.85a5.53,5.53,0,0,0-.45-2.55A1.48,1.48,0,0,0,66.53,36.72Z"/><path d="M72.12,45.92V35.56h1.47l.18,1.69a3.13,3.13,0,0,1,3-1.81H77v1.69h-.19a4.88,4.88,0,0,0-1.68.25,3.17,3.17,0,0,0-1.21.83v7.71Z"/><path d="M85.94,46.21a4.18,4.18,0,0,1-3-1.05,3.84,3.84,0,0,1-1.1-2.9,4.75,4.75,0,0,1,2-3.89,4.92,4.92,0,0,1-.52-1.29,6.07,6.07,0,0,1-.16-1.38,3.73,3.73,0,0,1,1-2.76,4.15,4.15,0,0,1,3-1,6.29,6.29,0,0,1,2.78.54l-.46,1.39a6.56,6.56,0,0,0-1.08-.33,6.05,6.05,0,0,0-1.06-.1,2.19,2.19,0,0,0-2.5,2.46,3.57,3.57,0,0,0,.5,1.78,14,14,0,0,0,1.8,2.28l2.07,2.24a14.62,14.62,0,0,0,.49-4.08H88V36.78h3.22v1.28a13.24,13.24,0,0,1-.88,5.32l2.34,2.54H90.4l-1-1.1A4.48,4.48,0,0,1,85.94,46.21ZM83.6,42c0,1.83.86,2.75,2.57,2.75a2.8,2.8,0,0,0,2.26-1l-3.06-3.34c-.31-.33-.58-.65-.81-.93A3.33,3.33,0,0,0,83.6,42Z"/><path d="M102.31,46.21c-3.32,0-5-2.32-5-7a9.49,9.49,0,0,1,1.32-5.43,4.42,4.42,0,0,1,3.92-1.91,5.45,5.45,0,0,1,2.5.54l-.51,1.39a4.79,4.79,0,0,0-1.93-.39A2.78,2.78,0,0,0,100,34.89a9.3,9.3,0,0,0-.79,4.37,8.27,8.27,0,0,0,.78,4.11,2.68,2.68,0,0,0,2.47,1.29,6.23,6.23,0,0,0,2.16-.45l.47,1.41a5,5,0,0,1-1.27.42A7.11,7.11,0,0,1,102.31,46.21Z"/><path d="M109,46.17a2.44,2.44,0,0,1-1.93-.78,3.24,3.24,0,0,1-.68-2.2,3.29,3.29,0,0,1,.86-2.41,3.5,3.5,0,0,1,2.6-.86h1.67v-.66a3.66,3.66,0,0,0-.36-1.95,1.62,1.62,0,0,0-1.39-.51,5,5,0,0,0-1.25.17,10.35,10.35,0,0,0-1.19.4L107,36a7.22,7.22,0,0,1,1.5-.47,7.42,7.42,0,0,1,1.68-.21,3,3,0,0,1,2.39.88,4.22,4.22,0,0,1,.76,2.81v6.94h-1.5l-.17-1.36a3.15,3.15,0,0,1-1.14,1.18A2.89,2.89,0,0,1,109,46.17Zm.59-1.43a2.31,2.31,0,0,0,1-.29,2.85,2.85,0,0,0,.89-.75V41.08H110c-1.2,0-1.81.64-1.81,1.93S108.64,44.74,109.59,44.74Z"/><path d="M115.74,45.92V35.56h1.47l.18,1.69a3.13,3.13,0,0,1,3-1.81h.2v1.69h-.18a4.88,4.88,0,0,0-1.68.25,3.17,3.17,0,0,0-1.21.83v7.71Z"/><path d="M124.92,46.19c-2.09,0-3.13-1.82-3.13-5.44s1-5.46,3.17-5.46a2.89,2.89,0,0,1,2.53,1.39V31.43h1.77V45.92h-1.49l-.14-1.26A2.94,2.94,0,0,1,124.92,46.19Zm.67-1.49a2.41,2.41,0,0,0,1-.26,2.49,2.49,0,0,0,.87-.68v-6a2.47,2.47,0,0,0-.87-.67,2.29,2.29,0,0,0-1-.27,1.58,1.58,0,0,0-1.52.94,7.05,7.05,0,0,0-.47,3,6.9,6.9,0,0,0,.47,3A1.58,1.58,0,0,0,125.59,44.7Z"/><path d="M136.08,46.19a2.94,2.94,0,0,1-2.71-1.53l-.14,1.26h-1.49V31.43h1.77v5.25A2.89,2.89,0,0,1,136,35.29c2.12,0,3.17,1.82,3.17,5.46S138.17,46.19,136.08,46.19Zm-.67-1.49a1.58,1.58,0,0,0,1.52-.93,6.9,6.9,0,0,0,.47-3,7.05,7.05,0,0,0-.47-3,1.58,1.58,0,0,0-1.52-.94,2.22,2.22,0,0,0-1,.27,2.71,2.71,0,0,0-.88.67v6a2.73,2.73,0,0,0,.88.68A2.34,2.34,0,0,0,135.41,44.7Z"/><path d="M144.78,46.21q-3.85,0-3.85-5.46t3.85-5.46c2.56,0,3.85,1.82,3.85,5.46S147.34,46.21,144.78,46.21Zm0-1.47a1.62,1.62,0,0,0,1.56-1,7.11,7.11,0,0,0,.48-3,7.11,7.11,0,0,0-.48-3,1.75,1.75,0,0,0-3.11,0,7.08,7.08,0,0,0-.49,3,7.08,7.08,0,0,0,.49,3A1.62,1.62,0,0,0,144.78,44.74Z"/><path d="M152.84,46.17a2.4,2.4,0,0,1-1.92-.78,3.19,3.19,0,0,1-.68-2.2,3.28,3.28,0,0,1,.85-2.41,3.51,3.51,0,0,1,2.61-.86h1.67v-.66a3.55,3.55,0,0,0-.37-1.95,1.6,1.6,0,0,0-1.38-.51,5.09,5.09,0,0,0-1.26.17,11.84,11.84,0,0,0-1.19.4l-.34-1.4a7.3,7.3,0,0,1,1.49-.47,7.56,7.56,0,0,1,1.68-.21,3,3,0,0,1,2.4.88,4.27,4.27,0,0,1,.76,2.81v6.94h-1.51l-.16-1.36a3.31,3.31,0,0,1-1.14,1.18A3,3,0,0,1,152.84,46.17Zm.59-1.43a2.25,2.25,0,0,0,1-.29,2.78,2.78,0,0,0,.9-.75V41.08h-1.55c-1.21,0-1.81.64-1.81,1.93S152.48,44.74,153.43,44.74Z"/><path d="M159.58,45.92V35.56h1.47l.18,1.69a3.14,3.14,0,0,1,3-1.81h.2v1.69h-.18a4.8,4.8,0,0,0-1.68.25,3.09,3.09,0,0,0-1.21.83v7.71Z"/><path d="M168.77,46.19c-2.09,0-3.14-1.82-3.14-5.44s1.06-5.46,3.18-5.46a2.88,2.88,0,0,1,2.52,1.39V31.43h1.77V45.92h-1.48l-.15-1.26A2.92,2.92,0,0,1,168.77,46.19Zm.67-1.49a2.58,2.58,0,0,0,1.89-.94v-6a2.43,2.43,0,0,0-.86-.67,2.33,2.33,0,0,0-1-.27,1.58,1.58,0,0,0-1.53.94,7.21,7.21,0,0,0-.47,3,7.05,7.05,0,0,0,.47,3A1.59,1.59,0,0,0,169.44,44.7Z"/><rect y="0.89" width="30.54" height="13.4" style="fill:#0d1826"/><path d="M35.16,14.5V.77h6.61V2.28H37V7h4.23V8.51H37v6Z"/><path d="M47,14.78q-3.85,0-3.85-5.45T47,3.87c2.56,0,3.85,1.82,3.85,5.46S49.55,14.78,47,14.78Zm0-1.46a1.63,1.63,0,0,0,1.56-1,7.3,7.3,0,0,0,.48-3,7.32,7.32,0,0,0-.48-3,1.76,1.76,0,0,0-3.11,0A7.13,7.13,0,0,0,45,9.33a7.11,7.11,0,0,0,.49,3A1.64,1.64,0,0,0,47,13.32Z"/><path d="M56.34,14.78q-3.84,0-3.84-5.45t3.84-5.46q3.85,0,3.85,5.46T56.34,14.78Zm0-1.46a1.63,1.63,0,0,0,1.56-1,7.14,7.14,0,0,0,.48-3,7.16,7.16,0,0,0-.48-3,1.75,1.75,0,0,0-3.1,0,7,7,0,0,0-.49,3.05,7,7,0,0,0,.49,3A1.62,1.62,0,0,0,56.34,13.32Z"/><path d="M65,14.76q-3.13,0-3.13-5.43c0-3.64,1-5.46,3.17-5.46a2.89,2.89,0,0,1,2.53,1.38V0h1.77V14.5H67.87l-.14-1.27A2.94,2.94,0,0,1,65,14.76Zm.67-1.49a2.28,2.28,0,0,0,1-.26,2.59,2.59,0,0,0,.87-.67v-6a2.59,2.59,0,0,0-.87-.67,2.28,2.28,0,0,0-1-.26,1.58,1.58,0,0,0-1.52.93,7.14,7.14,0,0,0-.47,3,7,7,0,0,0,.47,3A1.57,1.57,0,0,0,65.69,13.27Z"/><path d="M79.29,14.78a4.18,4.18,0,0,1-3-1,3.82,3.82,0,0,1-1.1-2.9,4.75,4.75,0,0,1,2-3.89,4.66,4.66,0,0,1-.52-1.29,5.48,5.48,0,0,1-.16-1.37,3.7,3.7,0,0,1,1-2.76,4.1,4.1,0,0,1,3-1A6.14,6.14,0,0,1,83.32,1l-.46,1.38a7.59,7.59,0,0,0-1.08-.32A5.29,5.29,0,0,0,80.72,2a2.2,2.2,0,0,0-2.51,2.46,3.57,3.57,0,0,0,.51,1.77,13.5,13.5,0,0,0,1.79,2.28l2.08,2.24a14.49,14.49,0,0,0,.49-4.07H81.35V5.36h3.22V6.64A13.37,13.37,0,0,1,83.69,12L86,14.5H83.75l-1-1.1A4.49,4.49,0,0,1,79.29,14.78ZM77,10.57c0,1.83.86,2.75,2.57,2.75a2.83,2.83,0,0,0,2.26-1L78.72,9c-.31-.34-.58-.65-.81-.94A3.35,3.35,0,0,0,77,10.57Z"/><path d="M95.74,14.78a4.43,4.43,0,0,1-3.84-1.7,9.11,9.11,0,0,1-1.23-5.3,9,9,0,0,1,1.39-5.44A4.77,4.77,0,0,1,96.13.49,6.19,6.19,0,0,1,99,1.12l-.47,1.41A6.34,6.34,0,0,0,96.11,2a3,3,0,0,0-2.69,1.4,8.51,8.51,0,0,0-.87,4.36,12.57,12.57,0,0,0,.32,3.2,3.1,3.1,0,0,0,1.06,1.76,3.17,3.17,0,0,0,1.93.53,6.13,6.13,0,0,0,1.65-.22V8.71h-2.3V7.23h4v6.86a6.66,6.66,0,0,1-1.63.51A9.62,9.62,0,0,1,95.74,14.78Z"/><path d="M101.57,14.5V4.13H103l.19,1.69a3.14,3.14,0,0,1,3-1.81h.2V5.7h-.18a4.78,4.78,0,0,0-1.68.26,3.07,3.07,0,0,0-1.21.82V14.5Z"/><path d="M111.64,14.76a3.68,3.68,0,0,1-3.11-1.29,6.63,6.63,0,0,1-1-4.06,7.21,7.21,0,0,1,1-4.11,3.21,3.21,0,0,1,2.8-1.43q3.56,0,3.56,5.35V9.9h-5.62a4.56,4.56,0,0,0,.62,2.59,2.21,2.21,0,0,0,1.88.76,4.26,4.26,0,0,0,1.18-.17,4.75,4.75,0,0,0,1.21-.5l.48,1.35a6,6,0,0,1-1.43.61A5.81,5.81,0,0,1,111.64,14.76Zm-.34-9.47a1.61,1.61,0,0,0-1.46.83,5.41,5.41,0,0,0-.56,2.53h3.85a5.46,5.46,0,0,0-.45-2.54A1.49,1.49,0,0,0,111.3,5.29Z"/><path d="M120.61,14.76a3.68,3.68,0,0,1-3.11-1.29,6.63,6.63,0,0,1-1-4.06,7.3,7.3,0,0,1,1-4.11,3.22,3.22,0,0,1,2.8-1.43q3.57,0,3.57,5.35V9.9h-5.62a4.48,4.48,0,0,0,.62,2.59,2.21,2.21,0,0,0,1.88.76,4.26,4.26,0,0,0,1.18-.17,4.84,4.84,0,0,0,1.2-.5l.49,1.35a6,6,0,0,1-1.43.61A5.81,5.81,0,0,1,120.61,14.76Zm-.35-9.47a1.6,1.6,0,0,0-1.45.83,5.41,5.41,0,0,0-.56,2.53h3.85a5.46,5.46,0,0,0-.45-2.54A1.49,1.49,0,0,0,120.26,5.29Z"/><path d="M125.85,14.5V4.13h1.45l.16,1.47a3.12,3.12,0,0,1,1.15-1.28,3,3,0,0,1,1.62-.45,2.3,2.3,0,0,1,2,.89,4.1,4.1,0,0,1,.68,2.57V14.5H131.1v-7a2.71,2.71,0,0,0-.37-1.61,1.35,1.35,0,0,0-1.13-.48,2.43,2.43,0,0,0-1.07.26,2.58,2.58,0,0,0-.91.69V14.5Z"/><path d="M527.94,258.17,501.65,160a101.86,101.86,0,0,1,26.29-3.46Z" style="fill:#08548a;stroke:#fff;stroke-miterlimit:10;stroke-width:1.7304750415363737px"/><path d="M527.94,258.17,468.22,176A95.12,95.12,0,0,1,501.65,160Z" style="fill:#7edfe2;stroke:#fff;stroke-miterlimit:10;stroke-width:1.7304750415363737px"/><path d="M527.94,258.17l-92.08-42.93A98.92,98.92,0,0,1,468.22,176Z" style="fill:#7a909e;stroke:#fff;stroke-miterlimit:10;stroke-width:1.7304750415363737px"/><path d="M527.94,258.17l-98.58,24.58c-5.9-23.68-3.81-45.39,6.5-67.51Z" style="fill:#155c5e;stroke:#fff;stroke-miterlimit:10;stroke-width:1.7304750415363737px"/><path d="M527.94,258.17,483.4,349.48c-27.93-13.62-46.52-36.57-54-66.73Z" style="fill:#c8cdfe;stroke:#fff;stroke-miterlimit:10;stroke-width:1.7304750415363737px"/><path d="M527.94,258.17l90.52,46.13A101.42,101.42,0,0,1,483.4,349.48Z" style="fill:#7681fc;stroke:#fff;stroke-miterlimit:10;stroke-width:1.7304750415363737px;fill-rule:evenodd"/><path d="M527.94,258.17V156.58A101.59,101.59,0,0,1,629.53,258.17a95,95,0,0,1-11.07,46.13Z" style="fill:#0d1826;stroke:#fff;stroke-miterlimit:10;stroke-width:1.7304750415363737px;fill-rule:evenodd"/><rect x="553.31" y="95.06" width="30.54" height="13.4" style="fill:#08548a"/><path d="M592.92,109c-3.32,0-5-2.31-5-6.94a9.53,9.53,0,0,1,1.32-5.44,4.44,4.44,0,0,1,3.92-1.91,5.33,5.33,0,0,1,2.5.55l-.51,1.38a5,5,0,0,0-1.93-.38,2.76,2.76,0,0,0-2.63,1.42,9.31,9.31,0,0,0-.79,4.38,8.22,8.22,0,0,0,.78,4.1,2.68,2.68,0,0,0,2.47,1.29,6.44,6.44,0,0,0,2.16-.44l.47,1.4a5,5,0,0,1-1.27.43A7.09,7.09,0,0,1,592.92,109Z"/><path d="M600.6,109q-3.86,0-3.85-5.45T600.6,98c2.56,0,3.85,1.82,3.85,5.46S603.16,109,600.6,109Zm0-1.46a1.63,1.63,0,0,0,1.56-.95,9.9,9.9,0,0,0,0-6.09,1.75,1.75,0,0,0-3.11,0,9.71,9.71,0,0,0,0,6.09A1.64,1.64,0,0,0,600.6,107.49Z"/><path d="M606.52,108.67V98.3H608l.17,1.47a3.05,3.05,0,0,1,1.15-1.28,3,3,0,0,1,1.61-.45,2.34,2.34,0,0,1,2,.88,4.2,4.2,0,0,1,.68,2.58v7.17h-1.77v-7a2.7,2.7,0,0,0-.38-1.61,1.34,1.34,0,0,0-1.13-.48,2.47,2.47,0,0,0-1.07.26,2.63,2.63,0,0,0-.9.69v8.17Z"/><path d="M619.29,108.83a2.7,2.7,0,0,1-2.14-.74,4,4,0,0,1-.63-2.54V99.67H615V98.39l1-.07a.7.7,0,0,0,.5-.17.86.86,0,0,0,.17-.54l.16-2.3h1.4v3H621v1.37h-2.71v6a2.26,2.26,0,0,0,.3,1.38,1.45,1.45,0,0,0,1.15.35,4.82,4.82,0,0,0,1.12-.14v1.35A5.71,5.71,0,0,1,619.29,108.83Z"/><path d="M622.72,108.67V98.3h1.47l.18,1.69a3.14,3.14,0,0,1,3-1.81h.21v1.69h-.19a4.86,4.86,0,0,0-1.68.26,3.14,3.14,0,0,0-1.21.82v7.72Z"/><path d="M632.56,109c-2.56,0-3.85-1.82-3.85-5.45S630,98,632.56,98s3.85,1.82,3.85,5.46S635.13,109,632.56,109Zm0-1.46a1.63,1.63,0,0,0,1.56-.95,9.9,9.9,0,0,0,0-6.09,1.75,1.75,0,0,0-3.11,0,9.9,9.9,0,0,0,0,6.09A1.65,1.65,0,0,0,632.56,107.49Z"/><path d="M640.61,108.83a2.05,2.05,0,0,1-1.63-.62,3.08,3.08,0,0,1-.53-2v-12h1.77v12.11a1.63,1.63,0,0,0,.19.93.77.77,0,0,0,.65.23,1.67,1.67,0,0,0,.32,0,1.9,1.9,0,0,0,.37-.08v1.33l-.59.12A3.48,3.48,0,0,1,640.61,108.83Z"/><path d="M645.64,108.83a2,2,0,0,1-1.63-.62,3.08,3.08,0,0,1-.53-2v-12h1.77v12.11a1.64,1.64,0,0,0,.18.93.78.78,0,0,0,.65.23,1.83,1.83,0,0,0,.33,0,2.07,2.07,0,0,0,.37-.08v1.33l-.59.12A3.56,3.56,0,0,1,645.64,108.83Z"/><path d="M652.11,108.93a3.71,3.71,0,0,1-3.12-1.29,6.7,6.7,0,0,1-1-4.06,7.3,7.3,0,0,1,1-4.11,3.21,3.21,0,0,1,2.8-1.43q3.57,0,3.57,5.35v.68h-5.62a4.48,4.48,0,0,0,.62,2.59,2.21,2.21,0,0,0,1.88.76,4.26,4.26,0,0,0,1.18-.17,4.84,4.84,0,0,0,1.2-.5l.49,1.35a6,6,0,0,1-1.43.61A5.81,5.81,0,0,1,652.11,108.93Zm-.35-9.47a1.59,1.59,0,0,0-1.45.83,5.29,5.29,0,0,0-.56,2.53h3.84a5.48,5.48,0,0,0-.44-2.54A1.49,1.49,0,0,0,651.76,99.46Z"/><path d="M660.1,108.93q-3.14,0-3.14-5.43T660.14,98a2.9,2.9,0,0,1,2.53,1.38V94.17h1.77v14.5H663l-.14-1.27A2.94,2.94,0,0,1,660.1,108.93Zm.67-1.49a2.28,2.28,0,0,0,1-.26,2.59,2.59,0,0,0,.87-.67v-6a2.59,2.59,0,0,0-.87-.67,2.28,2.28,0,0,0-1-.26,1.58,1.58,0,0,0-1.52.93,7.14,7.14,0,0,0-.47,3,7,7,0,0,0,.47,3A1.57,1.57,0,0,0,660.77,107.44Z"/><path d="M671,108.67V94.94h1.83v12.22h4.67v1.51Z"/><path d="M681.74,108.91a2.43,2.43,0,0,1-1.92-.77,3.21,3.21,0,0,1-.69-2.2,3.27,3.27,0,0,1,.86-2.41,3.5,3.5,0,0,1,2.6-.87h1.67V102a3.7,3.7,0,0,0-.36-2,1.65,1.65,0,0,0-1.39-.5,4.64,4.64,0,0,0-1.25.17,9.22,9.22,0,0,0-1.19.4l-.35-1.41a8.36,8.36,0,0,1,1.5-.47,8,8,0,0,1,1.68-.2,3,3,0,0,1,2.39.87,4.23,4.23,0,0,1,.77,2.81v7h-1.51l-.16-1.37a3.23,3.23,0,0,1-1.14,1.18A2.86,2.86,0,0,1,681.74,108.91Zm.59-1.42a2.18,2.18,0,0,0,1-.3,2.82,2.82,0,0,0,.89-.74v-2.63h-1.54c-1.21,0-1.82.65-1.82,1.94S681.38,107.49,682.33,107.49Z"/><path d="M688.48,108.67V98.3h1.45l.16,1.47a3.12,3.12,0,0,1,1.15-1.28,3,3,0,0,1,1.62-.45,2.32,2.32,0,0,1,2,.88,4.13,4.13,0,0,1,.68,2.58v7.17h-1.77v-7a2.71,2.71,0,0,0-.37-1.61,1.35,1.35,0,0,0-1.13-.48,2.43,2.43,0,0,0-1.07.26,2.67,2.67,0,0,0-.91.69v8.17Z"/><path d="M700.68,108.93q-3.13,0-3.14-5.43T700.72,98a2.87,2.87,0,0,1,2.52,1.38V94.17H705v14.5h-1.48l-.15-1.27A2.92,2.92,0,0,1,700.68,108.93Zm.67-1.49a2.31,2.31,0,0,0,1-.26,2.55,2.55,0,0,0,.86-.67v-6a2.55,2.55,0,0,0-.86-.67,2.31,2.31,0,0,0-1-.26,1.59,1.59,0,0,0-1.53.93,7.3,7.3,0,0,0-.47,3,7.12,7.12,0,0,0,.47,3A1.58,1.58,0,0,0,701.35,107.44Z"/><path d="M708.24,108.67v-9h-1.59V98.3h1.59v-1a3.68,3.68,0,0,1,.74-2.56,3,3,0,0,1,2.25-.8c.27,0,.52,0,.74,0a2.41,2.41,0,0,1,.66.12v1.36c-.2,0-.39-.06-.55-.08l-.48,0a1.66,1.66,0,0,0-1.28.39,2.78,2.78,0,0,0-.33,1.65v.89h2.64v1.37H710v9Zm6.19,0v-9H713.2V98.3h3v10.37Zm-.13-12.54v-2h1.88v2Z"/><path d="M720.83,108.83a2,2,0,0,1-1.62-.62,3,3,0,0,1-.53-2v-12h1.77v12.11a1.64,1.64,0,0,0,.18.93.77.77,0,0,0,.65.23,2.21,2.21,0,0,0,.69-.1v1.33l-.59.12A3.48,3.48,0,0,1,720.83,108.83Z"/><path d="M725.86,108.83a2,2,0,0,1-1.63-.62,3.08,3.08,0,0,1-.53-2v-12h1.77v12.11a1.55,1.55,0,0,0,.19.93.77.77,0,0,0,.65.23,1.72,1.72,0,0,0,.32,0,2.07,2.07,0,0,0,.37-.08v1.33l-.59.12A3.48,3.48,0,0,1,725.86,108.83Z"/><rect x="553.31" y="63.74" width="30.54" height="13.4" style="fill:#7edfe2"/><path d="M592.92,77.63q-5,0-5-6.94a9.53,9.53,0,0,1,1.32-5.44,4.44,4.44,0,0,1,3.92-1.91,5.33,5.33,0,0,1,2.5.55l-.51,1.38a5,5,0,0,0-1.93-.38,2.76,2.76,0,0,0-2.63,1.42,9.31,9.31,0,0,0-.79,4.38,8.22,8.22,0,0,0,.78,4.1,2.68,2.68,0,0,0,2.47,1.29,6.2,6.2,0,0,0,2.16-.44l.47,1.4a5,5,0,0,1-1.27.43A7.09,7.09,0,0,1,592.92,77.63Z"/><path d="M600.6,77.63q-3.86,0-3.85-5.45t3.85-5.46c2.56,0,3.85,1.82,3.85,5.46S603.16,77.63,600.6,77.63Zm0-1.46a1.63,1.63,0,0,0,1.56-1,7.14,7.14,0,0,0,.48-3,7.16,7.16,0,0,0-.48-3.05,1.76,1.76,0,0,0-3.11,0,7.13,7.13,0,0,0-.49,3.05,7.11,7.11,0,0,0,.49,3A1.64,1.64,0,0,0,600.6,76.17Z"/><path d="M606.52,77.35V67H608l.19,1.45a3.11,3.11,0,0,1,1.05-1.27,2.68,2.68,0,0,1,1.51-.44,2.53,2.53,0,0,1,1.45.41,2.38,2.38,0,0,1,.87,1.3,3.12,3.12,0,0,1,1.12-1.26,2.86,2.86,0,0,1,1.55-.45,2.26,2.26,0,0,1,1.88.85,4.39,4.39,0,0,1,.68,2.75v7h-1.77v-6.9a3.24,3.24,0,0,0-.35-1.78,1.27,1.27,0,0,0-1.07-.46,1.94,1.94,0,0,0-1,.29,2.79,2.79,0,0,0-.82.74,8.78,8.78,0,0,1,.06,1.06v7h-1.77v-6.9a3.13,3.13,0,0,0-.36-1.78,1.26,1.26,0,0,0-1.07-.46,1.94,1.94,0,0,0-1,.26,2.79,2.79,0,0,0-.82.71v8.17Z"/><path d="M620.69,81.26V67h1.47l.16,1.37a3.09,3.09,0,0,1,1.12-1.2,2.85,2.85,0,0,1,1.55-.43q3.16,0,3.17,5.46T625,77.61a3,3,0,0,1-2.57-1.3v5Zm3.67-5.13a1.59,1.59,0,0,0,1.51-.92,6.92,6.92,0,0,0,.48-3,7.07,7.07,0,0,0-.48-3,1.59,1.59,0,0,0-1.51-.92,2.21,2.21,0,0,0-1,.26,2.74,2.74,0,0,0-.88.67v6a2.74,2.74,0,0,0,.88.67A2.22,2.22,0,0,0,624.36,76.13Z"/><path d="M633.73,77.63q-3.86,0-3.85-5.45t3.85-5.46c2.56,0,3.85,1.82,3.85,5.46S636.29,77.63,633.73,77.63Zm0-1.46a1.63,1.63,0,0,0,1.56-1,7.33,7.33,0,0,0,.47-3,7.35,7.35,0,0,0-.47-3.05,1.76,1.76,0,0,0-3.11,0,7,7,0,0,0-.49,3.05,7,7,0,0,0,.49,3A1.64,1.64,0,0,0,633.73,76.17Z"/><path d="M641.84,77.61a6.89,6.89,0,0,1-1.62-.19A3.77,3.77,0,0,1,639,76.9l.41-1.43a4.85,4.85,0,0,0,2.56.68,1.75,1.75,0,0,0,1.28-.43,1.69,1.69,0,0,0,.41-1.2,1.64,1.64,0,0,0-.27-1,1.9,1.9,0,0,0-1-.56l-.9-.29a3.6,3.6,0,0,1-1.74-1,2.73,2.73,0,0,1-.56-1.76,3,3,0,0,1,.92-2.27,3.34,3.34,0,0,1,2.4-.87,8.25,8.25,0,0,1,1.39.11,4.7,4.7,0,0,1,1.18.4l-.33,1.36a6.36,6.36,0,0,0-1-.3,5.52,5.52,0,0,0-1.11-.1,1.9,1.9,0,0,0-1.32.41,1.53,1.53,0,0,0-.47,1.19,1.32,1.32,0,0,0,.29.89,2.28,2.28,0,0,0,1,.58l.67.22a4.15,4.15,0,0,1,2,1.12,2.91,2.91,0,0,1,.55,1.9,3,3,0,0,1-.9,2.29A3.64,3.64,0,0,1,641.84,77.61Z"/><path d="M650.73,77.51a2.7,2.7,0,0,1-2.14-.74,4,4,0,0,1-.63-2.54V68.35h-1.52V67.07l1-.07a.71.71,0,0,0,.51-.17.86.86,0,0,0,.17-.54l.16-2.3h1.4v3h2.71v1.37h-2.71v6a2.26,2.26,0,0,0,.3,1.38,1.45,1.45,0,0,0,1.15.35,4.88,4.88,0,0,0,1.12-.14v1.35A5.71,5.71,0,0,1,650.73,77.51Z"/><path d="M655,77.35v-9h-1.22V67h3V77.35Zm-.12-12.54v-2h1.87v2Z"/><path d="M659.18,77.35V67h1.44l.17,1.47a3.12,3.12,0,0,1,1.15-1.28,3,3,0,0,1,1.62-.45,2.33,2.33,0,0,1,2,.89,4.1,4.1,0,0,1,.68,2.57v7.17h-1.77v-7a2.58,2.58,0,0,0-.38-1.6,1.32,1.32,0,0,0-1.13-.49,2.43,2.43,0,0,0-1.06.26,2.58,2.58,0,0,0-.91.69v8.17Z"/><path d="M671.55,81.46a6.75,6.75,0,0,1-1.54-.18,5.59,5.59,0,0,1-1.35-.51l.33-1.41a5.37,5.37,0,0,0,2.44.63,2.43,2.43,0,0,0,1.94-.66,3.58,3.58,0,0,0,.56-2.31V75.8a2.88,2.88,0,0,1-2.56,1.45A2.58,2.58,0,0,1,669,75.92a7.69,7.69,0,0,1-.8-3.91,7.79,7.79,0,0,1,.81-4,2.58,2.58,0,0,1,2.35-1.34,2.89,2.89,0,0,1,1.57.43,3.17,3.17,0,0,1,1.12,1.2l.16-1.37h1.47V77a4.68,4.68,0,0,1-1,3.41A4.33,4.33,0,0,1,671.55,81.46Zm.49-5.68a2.21,2.21,0,0,0,1-.29,2.38,2.38,0,0,0,.86-.73V69.2a2.6,2.6,0,0,0-.88-.72,2.34,2.34,0,0,0-1-.27,1.57,1.57,0,0,0-1.49.91,6.8,6.8,0,0,0-.46,2.91,6.51,6.51,0,0,0,.46,2.86A1.62,1.62,0,0,0,672,75.78Z"/><rect x="553.31" y="32.31" width="30.54" height="13.4" style="fill:#7a909e"/><path d="M591.15,46.21a8.17,8.17,0,0,1-1.89-.21,6.23,6.23,0,0,1-1.61-.57l.51-1.44a6.84,6.84,0,0,0,2.93.67,2.46,2.46,0,0,0,1.79-.62,2.37,2.37,0,0,0,.63-1.76,2.67,2.67,0,0,0-.37-1.55,2.41,2.41,0,0,0-1.32-.83l-1.06-.33a3.91,3.91,0,0,1-2.09-1.31,4,4,0,0,1-.61-2.4A3.78,3.78,0,0,1,589.18,33a4.14,4.14,0,0,1,3-1,6.26,6.26,0,0,1,1.54.18,7.44,7.44,0,0,1,1.33.47L594.57,34a10.67,10.67,0,0,0-1.2-.37,5.55,5.55,0,0,0-1.18-.12,2.43,2.43,0,0,0-1.75.6,2.86,2.86,0,0,0-.28,3.16,2.65,2.65,0,0,0,1.27.76l.88.29a6,6,0,0,1,1.8.86,2.74,2.74,0,0,1,.94,1.23,5.46,5.46,0,0,1,.27,1.86,3.83,3.83,0,0,1-1.12,2.92A4.23,4.23,0,0,1,591.15,46.21Z"/><path d="M599.59,46.17a2.44,2.44,0,0,1-1.93-.78,3.24,3.24,0,0,1-.68-2.2,3.29,3.29,0,0,1,.86-2.41,3.49,3.49,0,0,1,2.6-.86h1.67v-.66a3.55,3.55,0,0,0-.37-1.95,1.59,1.59,0,0,0-1.38-.51,5,5,0,0,0-1.25.17,10.35,10.35,0,0,0-1.19.4l-.35-1.4a7.22,7.22,0,0,1,1.5-.47,7.42,7.42,0,0,1,1.68-.21,3,3,0,0,1,2.39.88A4.22,4.22,0,0,1,603.9,39v6.94h-1.5l-.17-1.36a3.15,3.15,0,0,1-1.14,1.18A2.89,2.89,0,0,1,599.59,46.17Zm.59-1.43a2.24,2.24,0,0,0,1-.29,2.78,2.78,0,0,0,.9-.75V41.08h-1.55c-1.2,0-1.81.64-1.81,1.93S599.23,44.74,600.18,44.74Z"/><path d="M606.33,45.92V35.56h1.44l.17,1.46a3.18,3.18,0,0,1,1.15-1.28,3,3,0,0,1,1.62-.45,2.33,2.33,0,0,1,2,.89,4.13,4.13,0,0,1,.68,2.58v7.16h-1.77v-7a2.61,2.61,0,0,0-.38-1.61,1.32,1.32,0,0,0-1.13-.49,2.45,2.45,0,0,0-1.06.27,2.37,2.37,0,0,0-.91.69v8.16Z"/><path d="M616.15,45.92v-9h-1.23V35.56h3V45.92ZM616,33.38v-2h1.88v2Z"/><path d="M623.78,46.08a2.65,2.65,0,0,1-2.14-.74,3.93,3.93,0,0,1-.63-2.53V36.92h-1.53V35.64l1-.06a.71.71,0,0,0,.51-.17.85.85,0,0,0,.16-.54l.17-2.3h1.4v3h2.71v1.36h-2.71v6a2.21,2.21,0,0,0,.3,1.37,1.44,1.44,0,0,0,1.15.36,5.51,5.51,0,0,0,1.12-.14v1.34A5.34,5.34,0,0,1,623.78,46.08Z"/><path d="M629.44,46.17a2.4,2.4,0,0,1-1.92-.78,3.19,3.19,0,0,1-.69-2.2,3.29,3.29,0,0,1,.86-2.41,3.5,3.5,0,0,1,2.6-.86H632v-.66a3.66,3.66,0,0,0-.36-1.95,1.62,1.62,0,0,0-1.39-.51A5.07,5.07,0,0,0,629,37a11,11,0,0,0-1.19.4l-.35-1.4a7.63,7.63,0,0,1,1.5-.47,7.42,7.42,0,0,1,1.68-.21,3,3,0,0,1,2.39.88,4.21,4.21,0,0,1,.77,2.81v6.94h-1.51l-.16-1.36A3.31,3.31,0,0,1,631,45.74,3,3,0,0,1,629.44,46.17Zm.59-1.43a2.28,2.28,0,0,0,1-.29,2.85,2.85,0,0,0,.89-.75V41.08h-1.54c-1.21,0-1.81.64-1.81,1.93S629.08,44.74,630,44.74Z"/><path d="M636.18,45.92V35.56h1.47l.18,1.69a3.14,3.14,0,0,1,3-1.81H641v1.69h-.19a4.88,4.88,0,0,0-1.68.25,3.24,3.24,0,0,0-1.21.83v7.71Z"/><path d="M643.23,50a2.87,2.87,0,0,1-.69-.07,5.36,5.36,0,0,1-.55-.15V48.53l.51.1a2.79,2.79,0,0,0,.47,0,1.54,1.54,0,0,0,1.32-.57,5.18,5.18,0,0,0,.75-1.83l.08-.33-3-10.38H644l2,8.08,2.12-8.08h1.81l-3.62,11.79a4.24,4.24,0,0,1-1.21,2.1A2.88,2.88,0,0,1,643.23,50Z"/><path d="M655.28,45.92V32.2h1.84V44.42h4.66v1.5Z"/><path d="M666,46.17a2.4,2.4,0,0,1-1.92-.78,3.19,3.19,0,0,1-.68-2.2,3.28,3.28,0,0,1,.85-2.41,3.51,3.51,0,0,1,2.61-.86h1.67v-.66a3.64,3.64,0,0,0-.37-1.95,1.62,1.62,0,0,0-1.39-.51,5.07,5.07,0,0,0-1.25.17,11.84,11.84,0,0,0-1.19.4L664,36a7.3,7.3,0,0,1,1.49-.47,7.56,7.56,0,0,1,1.68-.21,3,3,0,0,1,2.39.88,4.21,4.21,0,0,1,.77,2.81v6.94h-1.51l-.16-1.36a3.31,3.31,0,0,1-1.14,1.18A3,3,0,0,1,666,46.17Zm.59-1.43a2.28,2.28,0,0,0,1-.29,2.89,2.89,0,0,0,.9-.75V41.08H667c-1.21,0-1.81.64-1.81,1.93S665.65,44.74,666.6,44.74Z"/><path d="M672.75,45.92V35.56h1.45l.16,1.46a3.26,3.26,0,0,1,1.15-1.28,3,3,0,0,1,1.62-.45,2.31,2.31,0,0,1,2,.89,4.13,4.13,0,0,1,.69,2.58v7.16H678v-7a2.68,2.68,0,0,0-.38-1.61,1.33,1.33,0,0,0-1.13-.49,2.81,2.81,0,0,0-2,1v8.16Z"/><path d="M685,46.19c-2.09,0-3.14-1.82-3.14-5.44s1.06-5.46,3.18-5.46a2.88,2.88,0,0,1,2.52,1.39V31.43h1.77V45.92H687.8l-.14-1.26A2.94,2.94,0,0,1,685,46.19Zm.67-1.49a2.41,2.41,0,0,0,1-.26,2.37,2.37,0,0,0,.86-.68v-6a2.34,2.34,0,0,0-.86-.67,2.29,2.29,0,0,0-1-.27,1.59,1.59,0,0,0-1.53.94,7.21,7.21,0,0,0-.47,3,7.05,7.05,0,0,0,.47,3A1.6,1.6,0,0,0,685.62,44.7Z"/><path d="M692.51,45.92v-9h-1.59V35.56h1.59v-1a3.68,3.68,0,0,1,.74-2.55,2.92,2.92,0,0,1,2.25-.81l.74,0a3.05,3.05,0,0,1,.67.13v1.36a4.43,4.43,0,0,0-.56-.08,4,4,0,0,0-.48,0,1.66,1.66,0,0,0-1.27.38,2.69,2.69,0,0,0-.34,1.65v.9h2.65v1.36h-2.63v9Zm6.19,0v-9h-1.22V35.56h2.95V45.92Zm-.12-12.54v-2h1.87v2Z"/><path d="M705.11,46.08a2,2,0,0,1-1.63-.62,3,3,0,0,1-.53-2v-12h1.77V43.54a1.67,1.67,0,0,0,.18.93.81.81,0,0,0,.65.23l.33,0a2.07,2.07,0,0,0,.37-.08v1.32a3.43,3.43,0,0,1-.59.12A3.56,3.56,0,0,1,705.11,46.08Z"/><path d="M710.13,46.08a2,2,0,0,1-1.63-.62,3,3,0,0,1-.53-2v-12h1.77V43.54a1.65,1.65,0,0,0,.19.93.8.8,0,0,0,.65.23l.33,0a2,2,0,0,0,.36-.08v1.32a3.25,3.25,0,0,1-.59.12A3.48,3.48,0,0,1,710.13,46.08Z"/><rect x="553.31" y="0.89" width="30.54" height="13.4" style="fill:#155c5e"/><path d="M588.46,14.5V.77h1.83V14.5Z"/><path d="M592.94,14.5V4.13h1.45l.16,1.47a3.12,3.12,0,0,1,1.15-1.28,3,3,0,0,1,1.62-.45,2.3,2.3,0,0,1,2,.89A4.1,4.1,0,0,1,600,7.33V14.5h-1.77v-7a2.71,2.71,0,0,0-.37-1.61,1.35,1.35,0,0,0-1.13-.48,2.43,2.43,0,0,0-1.07.26,2.58,2.58,0,0,0-.91.69V14.5Z"/><path d="M605.84,14.76q-3.86,0-3.86-5.39a6.94,6.94,0,0,1,1-4.08,3.42,3.42,0,0,1,3-1.42,5,5,0,0,1,2.32.57l-.43,1.38a3.75,3.75,0,0,0-1.71-.44,1.9,1.9,0,0,0-1.77,1,6.28,6.28,0,0,0-.57,3.06,5.82,5.82,0,0,0,.55,2.91,1.88,1.88,0,0,0,1.75.91,4.06,4.06,0,0,0,1.83-.46l.37,1.34a5.44,5.44,0,0,1-1.16.48A5.07,5.07,0,0,1,605.84,14.76Z"/><path d="M610.78,14.5v-9h-1.22V4.13h3V14.5ZM610.66,2v-2h1.87V2Z"/><path d="M615,14.5V4.13h1.44l.16,1.47a3.19,3.19,0,0,1,1.15-1.28,3,3,0,0,1,1.62-.45,2.32,2.32,0,0,1,2,.89A4.17,4.17,0,0,1,622,7.33V14.5h-1.77v-7a2.7,2.7,0,0,0-.38-1.61,1.35,1.35,0,0,0-1.13-.48,2.47,2.47,0,0,0-1.07.26,2.63,2.63,0,0,0-.9.69V14.5Z"/><path d="M628.14,14.76A3.68,3.68,0,0,1,625,13.47a6.63,6.63,0,0,1-1-4.06,7.21,7.21,0,0,1,1-4.11,3.21,3.21,0,0,1,2.8-1.43q3.55,0,3.56,5.35V9.9h-5.62a4.56,4.56,0,0,0,.62,2.59,2.23,2.23,0,0,0,1.89.76,4.36,4.36,0,0,0,1.18-.17,4.84,4.84,0,0,0,1.2-.5l.48,1.35a6,6,0,0,1-3,.83Zm-.34-9.47a1.61,1.61,0,0,0-1.46.83,5.41,5.41,0,0,0-.56,2.53h3.85a5.46,5.46,0,0,0-.45-2.54A1.49,1.49,0,0,0,627.8,5.29Z"/><path d="M633.38,14.5V4.13h1.47L635,5.82A3.15,3.15,0,0,1,638,4h.21V5.7H638a4.86,4.86,0,0,0-1.68.26,3.22,3.22,0,0,0-1.21.82V14.5Z"/><path d="M642,14.74a2.43,2.43,0,0,1-1.92-.77,3.2,3.2,0,0,1-.68-2.2,3.27,3.27,0,0,1,.85-2.41,3.51,3.51,0,0,1,2.61-.87h1.67V7.84a3.68,3.68,0,0,0-.37-2,1.63,1.63,0,0,0-1.38-.5,4.65,4.65,0,0,0-1.26.17,9.76,9.76,0,0,0-1.19.4L640,4.54a8.81,8.81,0,0,1,1.49-.47,8.14,8.14,0,0,1,1.68-.2,3,3,0,0,1,2.39.87,4.25,4.25,0,0,1,.77,2.81v7h-1.51l-.16-1.37a3.23,3.23,0,0,1-1.14,1.18A2.86,2.86,0,0,1,642,14.74Zm.59-1.42a2.18,2.18,0,0,0,1-.3,2.75,2.75,0,0,0,.9-.74V9.65H643c-1.21,0-1.81.65-1.81,1.94S641.61,13.32,642.56,13.32Z"/><path d="M652,14.66a2.69,2.69,0,0,1-2.14-.74,4,4,0,0,1-.63-2.54V5.5h-1.53V4.22l1-.07a.75.75,0,0,0,.51-.17.86.86,0,0,0,.16-.54l.16-2.3H651v3h2.71V5.5H651v6a2.35,2.35,0,0,0,.29,1.38,1.48,1.48,0,0,0,1.16.35,5,5,0,0,0,1.12-.14v1.35A5.76,5.76,0,0,1,652,14.66Z"/><path d="M656.25,14.5v-9H655V4.13h3V14.5ZM656.12,2v-2H658V2Z"/><path d="M663.9,14.78q-3.85,0-3.85-5.45t3.85-5.46q3.84,0,3.84,5.46T663.9,14.78Zm0-1.46a1.63,1.63,0,0,0,1.55-1,7.14,7.14,0,0,0,.48-3,7.16,7.16,0,0,0-.48-3,1.75,1.75,0,0,0-3.1,0,7,7,0,0,0-.49,3.05,7,7,0,0,0,.49,3A1.63,1.63,0,0,0,663.9,13.32Z"/><path d="M669.81,14.5V4.13h1.45l.16,1.47a3.19,3.19,0,0,1,1.15-1.28,3,3,0,0,1,1.62-.45,2.32,2.32,0,0,1,2,.89,4.17,4.17,0,0,1,.68,2.57V14.5h-1.77v-7a2.7,2.7,0,0,0-.38-1.61,1.35,1.35,0,0,0-1.13-.48,2.43,2.43,0,0,0-1.07.26,2.63,2.63,0,0,0-.9.69V14.5Z"/><rect x="374.75" y="95.05" width="30.54" height="13.4" style="fill:#c8cdfe"/><path d="M409.9,108.67V94.94h3.83a3.79,3.79,0,0,1,2.8,1,4.35,4.35,0,0,1,1,3.16,4.41,4.41,0,0,1-.64,2.57,3.11,3.11,0,0,1-1.62,1.19l3.09,5.81h-2l-2.81-5.52h-1.79v5.52Zm3.69-12.26h-1.87v5.29h1.89a2.07,2.07,0,0,0,1.52-.55,2.9,2.9,0,0,0,.56-2.07,3,3,0,0,0-.56-2.1A2.08,2.08,0,0,0,413.59,96.41Z"/><path d="M423.45,108.93a3.71,3.71,0,0,1-3.12-1.29,6.7,6.7,0,0,1-1-4.06,7.22,7.22,0,0,1,1-4.11,3.22,3.22,0,0,1,2.8-1.43q3.57,0,3.57,5.35v.68h-5.62a4.48,4.48,0,0,0,.62,2.59,2.19,2.19,0,0,0,1.88.76,4.26,4.26,0,0,0,1.18-.17,4.84,4.84,0,0,0,1.2-.5l.49,1.35a6,6,0,0,1-1.43.61A5.81,5.81,0,0,1,423.45,108.93Zm-.35-9.47a1.59,1.59,0,0,0-1.45.83,5.29,5.29,0,0,0-.56,2.53h3.85a5.46,5.46,0,0,0-.45-2.54A1.49,1.49,0,0,0,423.1,99.46Z"/><path d="M432.17,108.93q-3.87,0-3.87-5.39a6.94,6.94,0,0,1,1-4.08A3.41,3.41,0,0,1,432.27,98a5,5,0,0,1,2.32.57l-.42,1.38a3.75,3.75,0,0,0-1.71-.44,1.9,1.9,0,0,0-1.77,1,6.28,6.28,0,0,0-.57,3.06,5.82,5.82,0,0,0,.55,2.91,1.88,1.88,0,0,0,1.75.91,4.13,4.13,0,0,0,1.83-.46l.37,1.34a5.52,5.52,0,0,1-1.17.48A5,5,0,0,1,432.17,108.93Z"/><path d="M436.81,112.78a3.49,3.49,0,0,1-.69-.07,4.63,4.63,0,0,1-.55-.16v-1.28a3.84,3.84,0,0,0,.51.1,2.71,2.71,0,0,0,.47,0,1.56,1.56,0,0,0,1.32-.57,5.58,5.58,0,0,0,.75-1.83l.08-.32-3-10.39h1.87l2,8.09,2.12-8.09h1.81l-3.63,11.79a4.2,4.2,0,0,1-1.2,2.11A2.9,2.9,0,0,1,436.81,112.78Z"/><path d="M448.17,108.93q-3.87,0-3.87-5.39a6.87,6.87,0,0,1,1-4.08A3.39,3.39,0,0,1,448.27,98a5,5,0,0,1,2.32.57l-.43,1.38a3.75,3.75,0,0,0-1.71-.44,1.9,1.9,0,0,0-1.77,1,6.28,6.28,0,0,0-.57,3.06,5.82,5.82,0,0,0,.55,2.91,1.89,1.89,0,0,0,1.75.91,4.06,4.06,0,0,0,1.83-.46l.37,1.34a5.23,5.23,0,0,1-1.16.48A5.06,5.06,0,0,1,448.17,108.93Z"/><path d="M454.43,108.83a2,2,0,0,1-1.63-.62,3.08,3.08,0,0,1-.53-2v-12H454v12.11a1.64,1.64,0,0,0,.18.93.78.78,0,0,0,.65.23,1.83,1.83,0,0,0,.33,0,2.07,2.07,0,0,0,.37-.08v1.33l-.59.12A3.56,3.56,0,0,1,454.43,108.83Z"/><path d="M457.53,108.67v-9h-1.22V98.3h2.95v10.37Zm-.12-12.54v-2h1.87v2Z"/><path d="M461.75,108.67V98.3h1.44l.16,1.47a3.19,3.19,0,0,1,1.15-1.28,3,3,0,0,1,1.62-.45,2.34,2.34,0,0,1,2,.88,4.2,4.2,0,0,1,.68,2.58v7.17H467v-7a2.7,2.7,0,0,0-.38-1.61,1.35,1.35,0,0,0-1.13-.48,2.47,2.47,0,0,0-1.07.26,2.63,2.63,0,0,0-.9.69v8.17Z"/><path d="M474.12,112.78a6.83,6.83,0,0,1-1.55-.18,5.67,5.67,0,0,1-1.34-.51l.32-1.41a5.41,5.41,0,0,0,2.45.63,2.43,2.43,0,0,0,1.94-.66,3.65,3.65,0,0,0,.56-2.31v-1.22a2.87,2.87,0,0,1-2.56,1.44,2.57,2.57,0,0,1-2.35-1.32,10.11,10.11,0,0,1,0-7.86A2.6,2.6,0,0,1,474,98a2.86,2.86,0,0,1,1.56.43,3.09,3.09,0,0,1,1.12,1.2l.17-1.37h1.46v10.06a4.64,4.64,0,0,1-1,3.41A4.29,4.29,0,0,1,474.12,112.78Zm.49-5.68a2.24,2.24,0,0,0,1-.29,2.46,2.46,0,0,0,.86-.73v-5.56a2.58,2.58,0,0,0-.88-.72,2.34,2.34,0,0,0-1.05-.27,1.56,1.56,0,0,0-1.49.91,6.77,6.77,0,0,0-.47,2.91,6.49,6.49,0,0,0,.47,2.86A1.6,1.6,0,0,0,474.61,107.1Z"/><rect x="374.75" y="32.31" width="30.54" height="13.4" style="fill:#7681fc"/><path d="M409.9,45.92V32.2h1.84V44.42h4.66v1.5Z"/><path d="M420.63,46.17a2.4,2.4,0,0,1-1.92-.78,3.19,3.19,0,0,1-.69-2.2,3.29,3.29,0,0,1,.86-2.41,3.51,3.51,0,0,1,2.61-.86h1.67v-.66a3.64,3.64,0,0,0-.37-1.95,1.62,1.62,0,0,0-1.39-.51,5.07,5.07,0,0,0-1.25.17,11,11,0,0,0-1.19.4l-.35-1.4a9.12,9.12,0,0,1,3.18-.68,3,3,0,0,1,2.39.88A4.21,4.21,0,0,1,425,39v6.94h-1.51l-.16-1.36a3.31,3.31,0,0,1-1.14,1.18A3,3,0,0,1,420.63,46.17Zm.59-1.43a2.28,2.28,0,0,0,1-.29,2.78,2.78,0,0,0,.9-.75V41.08h-1.55c-1.21,0-1.81.64-1.81,1.93S420.27,44.74,421.22,44.74Z"/><path d="M427.37,45.92V35.56h1.45L429,37a3.26,3.26,0,0,1,1.15-1.28,3,3,0,0,1,1.62-.45,2.31,2.31,0,0,1,2,.89,4.13,4.13,0,0,1,.69,2.58v7.16h-1.77v-7a2.68,2.68,0,0,0-.38-1.61,1.33,1.33,0,0,0-1.13-.49,2.81,2.81,0,0,0-2,1v8.16Z"/><path d="M439.57,46.19c-2.09,0-3.14-1.82-3.14-5.44s1.06-5.46,3.18-5.46a2.88,2.88,0,0,1,2.52,1.39V31.43h1.78V45.92h-1.49l-.14-1.26A2.94,2.94,0,0,1,439.57,46.19Zm.67-1.49a2.41,2.41,0,0,0,1-.26,2.37,2.37,0,0,0,.86-.68v-6a2.34,2.34,0,0,0-.86-.67,2.29,2.29,0,0,0-1-.27,1.59,1.59,0,0,0-1.53.94,7.24,7.24,0,0,0-.46,3,7.08,7.08,0,0,0,.46,3A1.6,1.6,0,0,0,440.24,44.7Z"/><path d="M447.13,45.92v-9h-1.59V35.56h1.59v-1a3.68,3.68,0,0,1,.74-2.55,2.92,2.92,0,0,1,2.25-.81l.75,0a3.08,3.08,0,0,1,.66.13v1.36a4.43,4.43,0,0,0-.56-.08,4,4,0,0,0-.48,0,1.66,1.66,0,0,0-1.27.38,2.69,2.69,0,0,0-.34,1.65v.9h2.65v1.36H448.9v9Zm6.19,0v-9H452.1V35.56h2.95V45.92Zm-.12-12.54v-2h1.87v2Z"/><path d="M459.73,46.08a2,2,0,0,1-1.63-.62,3,3,0,0,1-.53-2v-12h1.77V43.54a1.67,1.67,0,0,0,.18.93.82.82,0,0,0,.66.23l.32,0a2.07,2.07,0,0,0,.37-.08v1.32a3.43,3.43,0,0,1-.59.12A3.56,3.56,0,0,1,459.73,46.08Z"/><path d="M464.75,46.08a2,2,0,0,1-1.63-.62,3,3,0,0,1-.53-2v-12h1.78V43.54a1.67,1.67,0,0,0,.18.93.8.8,0,0,0,.65.23l.33,0a1.82,1.82,0,0,0,.36-.08v1.32a3.25,3.25,0,0,1-.59.12A3.48,3.48,0,0,1,464.75,46.08Z"/><path d="M412.27,71.61a17.82,17.82,0,0,1-2.33-9.22,17.74,17.74,0,0,1,2.33-9.2H414a20.05,20.05,0,0,0,0,18.42Z"/><path d="M417.68,68.58a2.29,2.29,0,0,1-1.94-.88,4.22,4.22,0,0,1-.67-2.58V58h1.77v7a2.8,2.8,0,0,0,.36,1.6,1.28,1.28,0,0,0,1.11.49,2.33,2.33,0,0,0,1.06-.26,2.72,2.72,0,0,0,.87-.69V58H422V68.32h-1.44l-.17-1.47a3.2,3.2,0,0,1-1.12,1.28A2.93,2.93,0,0,1,417.68,68.58Z"/><path d="M424.5,68.32V58h1.44l.17,1.47a3.12,3.12,0,0,1,1.15-1.28,3,3,0,0,1,1.62-.45,2.32,2.32,0,0,1,2,.88,4.13,4.13,0,0,1,.68,2.58v7.17h-1.77v-7a2.63,2.63,0,0,0-.38-1.61,1.33,1.33,0,0,0-1.12-.48,2.43,2.43,0,0,0-1.07.26,2.58,2.58,0,0,0-.91.69v8.17Z"/><path d="M436.14,68.58a6.75,6.75,0,0,1-1.61-.19,3.83,3.83,0,0,1-1.28-.52l.41-1.43a4.88,4.88,0,0,0,2.57.67,1.72,1.72,0,0,0,1.27-.42,1.94,1.94,0,0,0,.14-2.21,1.79,1.79,0,0,0-1-.56l-.89-.29a3.51,3.51,0,0,1-1.74-1,2.68,2.68,0,0,1-.56-1.77,3,3,0,0,1,.91-2.27,3.38,3.38,0,0,1,2.41-.86,8.21,8.21,0,0,1,1.38.11,4.57,4.57,0,0,1,1.18.4L439,59.56a5.72,5.72,0,0,0-1-.3,5.65,5.65,0,0,0-1.11-.11,2,2,0,0,0-1.33.42,1.52,1.52,0,0,0-.46,1.19,1.34,1.34,0,0,0,.28.89,2.28,2.28,0,0,0,1,.58l.67.22a4.11,4.11,0,0,1,2,1.12,3.47,3.47,0,0,1-.36,4.19A3.64,3.64,0,0,1,436.14,68.58Z"/><path d="M441.41,72.22V58h1.46l.16,1.37a3.17,3.17,0,0,1,1.12-1.2,2.85,2.85,0,0,1,1.55-.43q3.18,0,3.18,5.45t-3.14,5.44a2.94,2.94,0,0,1-2.56-1.3v4.94Zm3.66-5.13a1.6,1.6,0,0,0,1.52-.91,7.11,7.11,0,0,0,.47-3,7.26,7.26,0,0,0-.47-3.05,1.59,1.59,0,0,0-1.52-.92,2.21,2.21,0,0,0-1,.26,2.81,2.81,0,0,0-.87.67v6a2.81,2.81,0,0,0,.87.67A2.21,2.21,0,0,0,445.07,67.09Z"/><path d="M454.67,68.58a3.68,3.68,0,0,1-3.11-1.29,6.63,6.63,0,0,1-1-4.06,7.21,7.21,0,0,1,1-4.11,3.21,3.21,0,0,1,2.8-1.43q3.56,0,3.56,5.35v.67h-5.62a4.65,4.65,0,0,0,.62,2.6,2.23,2.23,0,0,0,1.89.76A4.31,4.31,0,0,0,456,66.9a4.84,4.84,0,0,0,1.2-.5l.49,1.35a5.89,5.89,0,0,1-1.44.61A5.7,5.7,0,0,1,454.67,68.58Zm-.34-9.47a1.61,1.61,0,0,0-1.46.83,5.41,5.41,0,0,0-.56,2.53h3.85a5.46,5.46,0,0,0-.45-2.54A1.49,1.49,0,0,0,454.33,59.11Z"/><path d="M463.4,68.58q-3.87,0-3.87-5.39a6.87,6.87,0,0,1,1-4.08,3.39,3.39,0,0,1,2.94-1.42,5,5,0,0,1,2.32.57l-.43,1.38a3.63,3.63,0,0,0-1.71-.44,1.9,1.9,0,0,0-1.77,1,6.28,6.28,0,0,0-.57,3.06,5.82,5.82,0,0,0,.55,2.91,1.89,1.89,0,0,0,1.75.91,4.06,4.06,0,0,0,1.83-.46l.37,1.34a5.23,5.23,0,0,1-1.16.48A5.06,5.06,0,0,1,463.4,68.58Z"/><path d="M468.33,68.32v-9h-1.22V58h2.95V68.32Zm-.12-12.54v-2h1.87v2Z"/><path d="M473.29,68.32v-9H471.7V58h1.59V57a3.73,3.73,0,0,1,.74-2.56,3,3,0,0,1,2.25-.8c.27,0,.52,0,.74,0a2.55,2.55,0,0,1,.67.12v1.36c-.21,0-.4-.06-.56-.08l-.48,0a1.66,1.66,0,0,0-1.28.39,2.78,2.78,0,0,0-.33,1.65V58h2.65v1.37h-2.63v9Zm6.19,0v-9h-1.22V58h2.95V68.32Zm-.13-12.54v-2h1.88v2Z"/><path d="M487.47,68.58a3.68,3.68,0,0,1-3.11-1.29,6.63,6.63,0,0,1-1-4.06,7.21,7.21,0,0,1,1-4.11,3.21,3.21,0,0,1,2.8-1.43q3.56,0,3.56,5.35v.67h-5.62a4.65,4.65,0,0,0,.62,2.6,2.23,2.23,0,0,0,1.89.76,4.31,4.31,0,0,0,1.18-.17,4.84,4.84,0,0,0,1.2-.5l.49,1.35a5.89,5.89,0,0,1-1.44.61A5.7,5.7,0,0,1,487.47,68.58Zm-.34-9.47a1.61,1.61,0,0,0-1.46.83,5.41,5.41,0,0,0-.56,2.53H489a5.46,5.46,0,0,0-.45-2.54A1.49,1.49,0,0,0,487.13,59.11Z"/><path d="M495.46,68.58q-3.13,0-3.13-5.44t3.18-5.45A2.87,2.87,0,0,1,498,59.07V53.82h1.77v14.5h-1.49l-.14-1.27A2.94,2.94,0,0,1,495.46,68.58Zm.68-1.49a2.27,2.27,0,0,0,1-.26,2.59,2.59,0,0,0,.87-.67v-6a2.59,2.59,0,0,0-.87-.67,2.27,2.27,0,0,0-1-.26,1.59,1.59,0,0,0-1.53.93,7.3,7.3,0,0,0-.47,3,7.12,7.12,0,0,0,.47,3A1.58,1.58,0,0,0,496.14,67.09Z"/><path d="M501.54,71.61a20.13,20.13,0,0,0,0-18.42h1.73a17.84,17.84,0,0,1,2.32,9.2,17.91,17.91,0,0,1-2.32,9.22Z"/><rect x="374.75" y="0.89" width="30.54" height="13.4" style="fill:#0d1826"/><path d="M414,14.78q-4.67,0-4.66-7.14T414,.49q4.66,0,4.66,7.15T414,14.78Zm0-1.55a2.2,2.2,0,0,0,2.11-1.34,10,10,0,0,0,.68-4.25,10,10,0,0,0-.68-4.26,2.34,2.34,0,0,0-4.23,0,10.06,10.06,0,0,0-.67,4.26,10,10,0,0,0,.67,4.25A2.21,2.21,0,0,0,414,13.23Z"/><path d="M421,18.41V4.13h1.47l.16,1.37a3.17,3.17,0,0,1,1.12-1.2,2.85,2.85,0,0,1,1.55-.43c2.12,0,3.17,1.82,3.17,5.46s-1,5.43-3.13,5.43a3,3,0,0,1-2.57-1.3v4.95Zm3.67-5.14a1.58,1.58,0,0,0,1.51-.91,6.92,6.92,0,0,0,.48-3,7.07,7.07,0,0,0-.48-3,1.57,1.57,0,0,0-1.51-.92,2.21,2.21,0,0,0-1,.26,3,3,0,0,0-.88.67v6a3,3,0,0,0,.88.67A2.21,2.21,0,0,0,424.62,13.27Z"/><path d="M434.22,14.76a3.68,3.68,0,0,1-3.11-1.29,6.63,6.63,0,0,1-1-4.06,7.21,7.21,0,0,1,1-4.11,3.21,3.21,0,0,1,2.8-1.43q3.56,0,3.56,5.35V9.9h-5.62a4.56,4.56,0,0,0,.62,2.59,2.23,2.23,0,0,0,1.89.76,4.36,4.36,0,0,0,1.18-.17,4.84,4.84,0,0,0,1.2-.5l.49,1.35a6.06,6.06,0,0,1-1.44.61A5.81,5.81,0,0,1,434.22,14.76Zm-.34-9.47a1.61,1.61,0,0,0-1.46.83,5.41,5.41,0,0,0-.56,2.53h3.85a5.46,5.46,0,0,0-.45-2.54A1.49,1.49,0,0,0,433.88,5.29Z"/><path d="M439.46,14.5V4.13h1.45l.16,1.47a3.19,3.19,0,0,1,1.15-1.28,3,3,0,0,1,1.62-.45,2.3,2.3,0,0,1,2,.89,4.1,4.1,0,0,1,.69,2.57V14.5h-1.77v-7a2.7,2.7,0,0,0-.38-1.61,1.35,1.35,0,0,0-1.13-.48,2.43,2.43,0,0,0-1.07.26,2.67,2.67,0,0,0-.91.69V14.5Z"/><path d="M452.94,14.5V.77h3.4q5.24,0,5.23,6.89t-5.23,6.84Zm3.3-12.22h-1.47V13h1.47a2.92,2.92,0,0,0,2.63-1.25,7.72,7.72,0,0,0,.83-4.1,7.77,7.77,0,0,0-.82-4.11A2.92,2.92,0,0,0,456.24,2.28Z"/><path d="M466.27,14.76a2.29,2.29,0,0,1-1.94-.88,4.27,4.27,0,0,1-.67-2.58V4.13h1.77v7a2.8,2.8,0,0,0,.36,1.6,1.28,1.28,0,0,0,1.11.49A2.33,2.33,0,0,0,468,13a2.72,2.72,0,0,0,.87-.69V4.13h1.77V14.5h-1.44L469,13a3.3,3.3,0,0,1-1.13,1.28A2.9,2.9,0,0,1,466.27,14.76Z"/><path d="M473.09,14.5V4.13h1.45l.18,1.45a3.06,3.06,0,0,1,1.06-1.27,2.62,2.62,0,0,1,1.5-.44,2.5,2.5,0,0,1,1.45.41,2.45,2.45,0,0,1,.88,1.3,3.1,3.1,0,0,1,1.11-1.26,2.88,2.88,0,0,1,1.55-.45,2.26,2.26,0,0,1,1.88.85,4.39,4.39,0,0,1,.69,2.75v7h-1.77V7.6a3.13,3.13,0,0,0-.36-1.78,1.26,1.26,0,0,0-1.07-.46,2,2,0,0,0-1,.29,2.79,2.79,0,0,0-.82.74,8.78,8.78,0,0,1,.06,1.06V14.5h-1.77V7.6a3.13,3.13,0,0,0-.36-1.78,1.26,1.26,0,0,0-1.07-.46,1.9,1.9,0,0,0-1,.26,2.68,2.68,0,0,0-.83.71V14.5Z"/><path d="M487.26,18.41V4.13h1.47l.16,1.37A3.17,3.17,0,0,1,490,4.3a2.85,2.85,0,0,1,1.55-.43c2.12,0,3.17,1.82,3.17,5.46s-1,5.43-3.13,5.43a3,3,0,0,1-2.57-1.3v4.95Zm3.67-5.14a1.58,1.58,0,0,0,1.51-.91,6.92,6.92,0,0,0,.48-3,7.07,7.07,0,0,0-.48-3,1.57,1.57,0,0,0-1.51-.92,2.21,2.21,0,0,0-1,.26,3,3,0,0,0-.88.67v6a3,3,0,0,0,.88.67A2.21,2.21,0,0,0,490.93,13.27Z"/><path d="M269.26,239.27v-3.13h-5.57v-1.45l5.21-9.14h2v9.08h1.57v1.51h-1.57v3.13Zm-3.91-4.64h3.91v-7Z"/><path d="M279.53,239.27v-3.13H274v-1.45l5.21-9.14h2v9.08h1.57v1.51h-1.57v3.13Zm-3.91-4.64h3.91v-7Z"/><path d="M286.15,233.11a2.19,2.19,0,0,1-1.93-1,5.22,5.22,0,0,1-.66-2.86,5.13,5.13,0,0,1,.66-2.85,2.18,2.18,0,0,1,1.93-1,2.15,2.15,0,0,1,1.92,1,5.13,5.13,0,0,1,.66,2.85,5.22,5.22,0,0,1-.66,2.86A2.16,2.16,0,0,1,286.15,233.11Zm0-1.21a.86.86,0,0,0,.84-.59,8.37,8.37,0,0,0,0-4.14.86.86,0,0,0-.84-.58.88.88,0,0,0-.84.58,8.37,8.37,0,0,0,0,4.14A.88.88,0,0,0,286.15,231.9Zm-.29,7.37,6.68-13.72h1.67l-6.68,13.72Zm8.07.19a2.16,2.16,0,0,1-1.93-1,6.51,6.51,0,0,1,0-5.71,2.35,2.35,0,0,1,3.85,0,6.51,6.51,0,0,1,0,5.71A2.16,2.16,0,0,1,293.93,239.46Zm0-1.2a.87.87,0,0,0,.84-.59,5.91,5.91,0,0,0,.25-2.08,5.81,5.81,0,0,0-.25-2.07.88.88,0,0,0-.84-.58.89.89,0,0,0-.84.58,5.53,5.53,0,0,0-.26,2.07,5.63,5.63,0,0,0,.26,2.08A.89.89,0,0,0,293.93,238.26Z"/><path d="M120.67,376.1v-1.52h2.85V364.8h-2.9v-1.34l2.16-.06a1.46,1.46,0,0,0,.74-.17,1,1,0,0,0,.28-.66l.08-.66h1.41v12.67H128v1.52Z"/><path d="M130.64,376.1l4.41-12.19h-5.9v-1.53h7.71v1.41l-4.31,12.31Z"/><path d="M141.22,369.94a2.16,2.16,0,0,1-1.92-1,5.22,5.22,0,0,1-.66-2.86,5.13,5.13,0,0,1,.66-2.85,2.35,2.35,0,0,1,3.85,0,5.13,5.13,0,0,1,.66,2.85,5.22,5.22,0,0,1-.66,2.86A2.18,2.18,0,0,1,141.22,369.94Zm0-1.21a.86.86,0,0,0,.85-.59,8.69,8.69,0,0,0,0-4.14.9.9,0,0,0-1.68,0,8.07,8.07,0,0,0,0,4.14A.85.85,0,0,0,141.22,368.73Zm-.28,7.37,6.68-13.72h1.66l-6.67,13.72Zm8.06.19a2.16,2.16,0,0,1-1.92-1,5.13,5.13,0,0,1-.67-2.86,5,5,0,0,1,.67-2.85,2.34,2.34,0,0,1,3.84,0,5.13,5.13,0,0,1,.67,2.85,5.21,5.21,0,0,1-.67,2.86A2.16,2.16,0,0,1,149,376.29Zm0-1.2a.86.86,0,0,0,.84-.59,5.86,5.86,0,0,0,.26-2.08,5.76,5.76,0,0,0-.26-2.07.89.89,0,0,0-1.67,0,5.49,5.49,0,0,0-.27,2.07,5.58,5.58,0,0,0,.27,2.08A.87.87,0,0,0,149,375.09Z"/><path d="M29.22,319.25v-1.53h2.85V308H29.18V306.6l2.15-.06a1.46,1.46,0,0,0,.74-.17.89.89,0,0,0,.28-.66l.08-.65h1.41v12.66h2.67v1.53Z"/><path d="M38.52,319.25v-1.39l3.4-4a12.94,12.94,0,0,0,1.22-1.64,5.58,5.58,0,0,0,.65-1.42,5.94,5.94,0,0,0,.19-1.48,2.73,2.73,0,0,0-.56-1.84,2,2,0,0,0-1.58-.64,4.69,4.69,0,0,0-1.3.17,5.84,5.84,0,0,0-1.35.58l-.61-1.38a5.16,5.16,0,0,1,1.58-.71,7.15,7.15,0,0,1,1.76-.23,3.77,3.77,0,0,1,2.88,1.06,4.12,4.12,0,0,1,1,3,6.22,6.22,0,0,1-.23,1.72,7.09,7.09,0,0,1-.81,1.68,20.15,20.15,0,0,1-1.61,2.14l-2.44,2.91H46.1v1.51Z"/><path d="M50.42,313.08a2.16,2.16,0,0,1-1.92-1,5.22,5.22,0,0,1-.66-2.86,5.13,5.13,0,0,1,.66-2.85,2.35,2.35,0,0,1,3.85,0,5.13,5.13,0,0,1,.66,2.85,5.22,5.22,0,0,1-.66,2.86A2.16,2.16,0,0,1,50.42,313.08Zm0-1.2a.87.87,0,0,0,.85-.59,5.91,5.91,0,0,0,.25-2.08,5.81,5.81,0,0,0-.25-2.07.9.9,0,0,0-1.68,0,5.49,5.49,0,0,0-.27,2.07,5.58,5.58,0,0,0,.27,2.08A.88.88,0,0,0,50.42,311.88Zm-.28,7.37,6.68-13.73h1.67l-6.68,13.73Zm8.06.18a2.16,2.16,0,0,1-1.92-1,6.51,6.51,0,0,1,0-5.71,2.34,2.34,0,0,1,3.84,0,6.42,6.42,0,0,1,0,5.71A2.16,2.16,0,0,1,58.2,319.43Zm0-1.2a.88.88,0,0,0,.85-.59,5.91,5.91,0,0,0,.25-2.08,5.81,5.81,0,0,0-.25-2.07.89.89,0,0,0-.85-.58.87.87,0,0,0-.83.58,5.49,5.49,0,0,0-.27,2.07,5.58,5.58,0,0,0,.27,2.08A.87.87,0,0,0,58.2,318.23Z"/><path d="M25.29,260.82a5.57,5.57,0,0,1-3.59-1.1l.53-1.4a5.16,5.16,0,0,0,2.93,1c1.65,0,2.47-.9,2.47-2.72s-.76-2.85-2.26-2.85a3.14,3.14,0,0,0-2.12.79l-1.14-.65v-7.07h6.78v1.53H23.72v4.75a3.44,3.44,0,0,1,2.22-.74,3.15,3.15,0,0,1,2.56,1.13,4.61,4.61,0,0,1,.94,3,4.43,4.43,0,0,1-1.07,3.16A4,4,0,0,1,25.29,260.82Z"/><path d="M33.5,254.37a2.16,2.16,0,0,1-1.92-1,5.19,5.19,0,0,1-.66-2.86,5.13,5.13,0,0,1,.66-2.85,2.35,2.35,0,0,1,3.85,0,5.13,5.13,0,0,1,.66,2.85,5.19,5.19,0,0,1-.66,2.86A2.18,2.18,0,0,1,33.5,254.37Zm0-1.2a.87.87,0,0,0,.85-.59,5.91,5.91,0,0,0,.25-2.08,5.81,5.81,0,0,0-.25-2.07.9.9,0,0,0-1.68,0,5.49,5.49,0,0,0-.27,2.07,5.58,5.58,0,0,0,.27,2.08A.87.87,0,0,0,33.5,253.17Zm-.28,7.37,6.68-13.73h1.66l-6.67,13.73Zm8.06.18a2.16,2.16,0,0,1-1.92-1,6.42,6.42,0,0,1,0-5.71,2.34,2.34,0,0,1,3.84,0,6.42,6.42,0,0,1,0,5.71A2.16,2.16,0,0,1,41.28,260.72Zm0-1.2a.86.86,0,0,0,.84-.59,5.86,5.86,0,0,0,.26-2.08,5.65,5.65,0,0,0-.26-2.06.89.89,0,0,0-1.67,0,5.39,5.39,0,0,0-.27,2.06,5.58,5.58,0,0,0,.27,2.08A.87.87,0,0,0,41.28,259.52Z"/><path d="M33.3,224.1V221H27.72v-1.44l5.21-9.14h2v9.08h1.56V221H35v3.14Zm-3.91-4.64H33.3v-7Z"/><path d="M39.91,217.93a2.16,2.16,0,0,1-1.92-1,6.51,6.51,0,0,1,0-5.71,2.35,2.35,0,0,1,3.85,0,6.51,6.51,0,0,1,0,5.71A2.18,2.18,0,0,1,39.91,217.93Zm0-1.2a.87.87,0,0,0,.85-.59,5.91,5.91,0,0,0,.25-2.08,5.71,5.71,0,0,0-.25-2.06.9.9,0,0,0-1.68,0,5.39,5.39,0,0,0-.27,2.06,5.58,5.58,0,0,0,.27,2.08A.87.87,0,0,0,39.91,216.73Zm-.28,7.37,6.68-13.72H48L41.3,224.1Zm8.06.18a2.14,2.14,0,0,1-1.92-1,6.42,6.42,0,0,1,0-5.71,2.36,2.36,0,0,1,3.84,0,6.42,6.42,0,0,1,0,5.71A2.14,2.14,0,0,1,47.69,224.28Zm0-1.2a.87.87,0,0,0,.84-.59,5.82,5.82,0,0,0,.26-2.08,5.65,5.65,0,0,0-.26-2.06.86.86,0,0,0-.84-.58.88.88,0,0,0-.84.58,5.65,5.65,0,0,0-.26,2.06,5.82,5.82,0,0,0,.26,2.08A.89.89,0,0,0,47.69,223.08Z"/><path d="M70.36,161.11v-1.53h2.85v-9.77H70.32v-1.34l2.16-.06a1.44,1.44,0,0,0,.73-.18.89.89,0,0,0,.28-.66l.08-.65H75v12.66h2.67v1.53Z"/><path d="M83.41,161.4a4.06,4.06,0,0,1-3-1,3.76,3.76,0,0,1-1-2.83,3.89,3.89,0,0,1,.65-2.33,2.76,2.76,0,0,1,1.79-1.14A2.61,2.61,0,0,1,80.3,153a4.18,4.18,0,0,1,.42-4.84,4.06,4.06,0,0,1,5.38,0,3.75,3.75,0,0,1,1,2.73,3.68,3.68,0,0,1-.58,2.11A2.59,2.59,0,0,1,85,154.08a2.79,2.79,0,0,1,1.79,1.14,4,4,0,0,1,.65,2.33,3.76,3.76,0,0,1-1,2.83A4.08,4.08,0,0,1,83.41,161.4Zm0-1.45a2.07,2.07,0,0,0,1.64-.65,2.86,2.86,0,0,0,.56-1.89c0-1.73-.73-2.59-2.2-2.59s-2.2.86-2.2,2.59a2.81,2.81,0,0,0,.57,1.89A2.06,2.06,0,0,0,83.41,160Zm0-6.56q1.95,0,2-2.4a2.86,2.86,0,0,0-.49-1.82,2,2,0,0,0-2.91,0,2.8,2.8,0,0,0-.5,1.82Q81.46,153.39,83.41,153.39Z"/><path d="M91.62,154.94a2.14,2.14,0,0,1-1.93-1,6.51,6.51,0,0,1,0-5.71,2.37,2.37,0,0,1,3.85,0,6.51,6.51,0,0,1,0,5.71A2.14,2.14,0,0,1,91.62,154.94Zm0-1.2a.87.87,0,0,0,.84-.59,5.82,5.82,0,0,0,.26-2.08,5.65,5.65,0,0,0-.26-2.06.86.86,0,0,0-.84-.58.88.88,0,0,0-.84.58,5.44,5.44,0,0,0-.26,2.06,5.6,5.6,0,0,0,.26,2.08A.89.89,0,0,0,91.62,153.74Zm-.29,7.37L98,147.39h1.67L93,161.11Zm8.06.18a2.15,2.15,0,0,1-1.92-1,5.24,5.24,0,0,1-.66-2.86,5.13,5.13,0,0,1,.66-2.85,2.35,2.35,0,0,1,3.85,0,5.13,5.13,0,0,1,.66,2.85,5.24,5.24,0,0,1-.66,2.86A2.16,2.16,0,0,1,99.39,161.29Zm0-1.2a.86.86,0,0,0,.85-.59,8.69,8.69,0,0,0,0-4.14.9.9,0,0,0-1.68,0,8.37,8.37,0,0,0,0,4.14A.85.85,0,0,0,99.39,160.09Z"/><path d="M628.85,205.68a6,6,0,0,1-3.48-.94l.63-1.34a5.65,5.65,0,0,0,2.81.79c1.67,0,2.5-.89,2.5-2.66a2.16,2.16,0,0,0-2.44-2.45h-1.16v-1.5h1.08a2.2,2.2,0,0,0,1.65-.63,2.38,2.38,0,0,0,.61-1.69c0-1.59-.73-2.39-2.18-2.39a6.09,6.09,0,0,0-2.63.7l-.53-1.31a7,7,0,0,1,3.3-.87,4,4,0,0,1,2.84,1,3.6,3.6,0,0,1,1,2.73,3.51,3.51,0,0,1-.55,2,2.87,2.87,0,0,1-1.47,1.17,2.9,2.9,0,0,1,1.69,1.2,4.34,4.34,0,0,1-.53,5.18A4.45,4.45,0,0,1,628.85,205.68Z"/><path d="M638.24,205.68a6.07,6.07,0,0,1-3.48-.94l.63-1.34a5.68,5.68,0,0,0,2.81.79c1.67,0,2.51-.89,2.51-2.66a2.17,2.17,0,0,0-2.45-2.45H637.1v-1.5h1.08a2.2,2.2,0,0,0,1.65-.63,2.34,2.34,0,0,0,.61-1.69c0-1.59-.72-2.39-2.18-2.39a6.05,6.05,0,0,0-2.62.7l-.53-1.31a6.77,6.77,0,0,1,1.6-.64,6.87,6.87,0,0,1,1.7-.23,4,4,0,0,1,2.84,1,3.63,3.63,0,0,1,1,2.73,3.51,3.51,0,0,1-.55,2,2.85,2.85,0,0,1-1.46,1.17,2.93,2.93,0,0,1,1.69,1.2,4.38,4.38,0,0,1-.53,5.18A4.48,4.48,0,0,1,638.24,205.68Z"/><path d="M646.94,199.23a2.16,2.16,0,0,1-1.92-1,5.13,5.13,0,0,1-.67-2.86,5,5,0,0,1,.67-2.85,2.34,2.34,0,0,1,3.84,0,5.13,5.13,0,0,1,.66,2.85,5.22,5.22,0,0,1-.66,2.86A2.16,2.16,0,0,1,646.94,199.23Zm0-1.21a.86.86,0,0,0,.84-.59,8.37,8.37,0,0,0,0-4.14.86.86,0,0,0-.84-.58.88.88,0,0,0-.84.58,8.37,8.37,0,0,0,0,4.14A.88.88,0,0,0,646.94,198Zm-.29,7.37,6.68-13.72H655l-6.68,13.72Zm8.07.19a2.16,2.16,0,0,1-1.93-1,5.22,5.22,0,0,1-.66-2.86,5.13,5.13,0,0,1,.66-2.85,2.35,2.35,0,0,1,3.85,0,5.13,5.13,0,0,1,.66,2.85,5.22,5.22,0,0,1-.66,2.86A2.16,2.16,0,0,1,654.72,205.58Zm0-1.2a.87.87,0,0,0,.84-.59,5.91,5.91,0,0,0,.25-2.08,5.81,5.81,0,0,0-.25-2.07.88.88,0,0,0-.84-.58.89.89,0,0,0-.84.58,5.53,5.53,0,0,0-.26,2.07,5.63,5.63,0,0,0,.26,2.08A.89.89,0,0,0,654.72,204.38Z"/><path d="M553.43,376v-1.38l3.4-4a14.21,14.21,0,0,0,1.23-1.64,5.78,5.78,0,0,0,.64-1.43,5.44,5.44,0,0,0,.19-1.47,2.72,2.72,0,0,0-.56-1.84,2,2,0,0,0-1.58-.65,4.69,4.69,0,0,0-1.3.18,5.6,5.6,0,0,0-1.34.58l-.61-1.39a5.22,5.22,0,0,1,1.57-.7,6.7,6.7,0,0,1,1.76-.23,3.8,3.8,0,0,1,2.88,1.05,4.16,4.16,0,0,1,1,3,6.22,6.22,0,0,1-.23,1.72,7.09,7.09,0,0,1-.81,1.68,21.35,21.35,0,0,1-1.6,2.13l-2.45,2.92H561V376Z"/><path d="M566.63,376.29a5.63,5.63,0,0,1-3.59-1.1l.53-1.41a5.1,5.1,0,0,0,2.94,1q2.46,0,2.46-2.73c0-1.9-.75-2.85-2.26-2.85a3.15,3.15,0,0,0-2.12.8l-1.14-.65v-7.07h6.78v1.53h-5.17v4.74a3.43,3.43,0,0,1,2.22-.73,3.15,3.15,0,0,1,2.56,1.13,4.59,4.59,0,0,1,.94,3,4.45,4.45,0,0,1-1.07,3.17A4,4,0,0,1,566.63,376.29Z"/><path d="M574.84,369.83a2.15,2.15,0,0,1-1.92-1,5.24,5.24,0,0,1-.66-2.86,5.13,5.13,0,0,1,.66-2.85,2.35,2.35,0,0,1,3.85,0,5.13,5.13,0,0,1,.66,2.85,5.24,5.24,0,0,1-.66,2.86A2.16,2.16,0,0,1,574.84,369.83Zm0-1.2a.86.86,0,0,0,.85-.59,8.69,8.69,0,0,0,0-4.14.9.9,0,0,0-1.68,0,8.07,8.07,0,0,0,0,4.14A.86.86,0,0,0,574.84,368.63Zm-.28,7.37,6.68-13.72h1.67L576.23,376Zm8.06.19a2.16,2.16,0,0,1-1.92-1,5.22,5.22,0,0,1-.66-2.86,5.13,5.13,0,0,1,.66-2.85,2.15,2.15,0,0,1,1.92-1,2.18,2.18,0,0,1,1.93,1,5.13,5.13,0,0,1,.66,2.85,5.22,5.22,0,0,1-.66,2.86A2.19,2.19,0,0,1,582.62,376.19Zm0-1.21a.87.87,0,0,0,.85-.59,8.69,8.69,0,0,0,0-4.14.87.87,0,0,0-.85-.58.86.86,0,0,0-.83.58,8.07,8.07,0,0,0,0,4.14A.85.85,0,0,0,582.62,375Z"/><path d="M413.09,338.65v-1.53h2.85v-9.77h-2.89V326l2.16-.06a1.42,1.42,0,0,0,.73-.17.89.89,0,0,0,.29-.66l.08-.65h1.4v12.66h2.67v1.53Z"/><path d="M427,338.65v-3.14h-5.58v-1.44l5.21-9.14h2V334h1.57v1.5h-1.57v3.14ZM423.1,334H427v-7Z"/><path d="M433.62,332.48a2.16,2.16,0,0,1-1.92-1,6.42,6.42,0,0,1,0-5.71,2.34,2.34,0,0,1,3.84,0,6.42,6.42,0,0,1,0,5.71A2.16,2.16,0,0,1,433.62,332.48Zm0-1.2a.87.87,0,0,0,.84-.59,5.86,5.86,0,0,0,.26-2.08,5.76,5.76,0,0,0-.26-2.07.89.89,0,0,0-1.67,0,5.49,5.49,0,0,0-.27,2.07,5.58,5.58,0,0,0,.27,2.08A.87.87,0,0,0,433.62,331.28Zm-.29,7.37L440,324.93h1.67L435,338.65Zm8.07.18a2.18,2.18,0,0,1-1.93-1,6.51,6.51,0,0,1,0-5.71,2.35,2.35,0,0,1,3.85,0,6.51,6.51,0,0,1,0,5.71A2.16,2.16,0,0,1,441.4,338.83Zm0-1.2a.87.87,0,0,0,.84-.59,5.86,5.86,0,0,0,.26-2.08,5.65,5.65,0,0,0-.26-2.06.86.86,0,0,0-.84-.58.88.88,0,0,0-.84.58,5.65,5.65,0,0,0-.26,2.06,5.86,5.86,0,0,0,.26,2.08A.89.89,0,0,0,441.4,337.63Z"/><path d="M386.42,252.71v-1.53h2.85v-9.77h-2.89v-1.34l2.16-.06a1.51,1.51,0,0,0,.73-.18.93.93,0,0,0,.29-.66l.08-.65H391v12.66h2.67v1.53Z"/><path d="M395.93,252.71v-1.53h2.85v-9.77h-2.89v-1.34L398,240a1.56,1.56,0,0,0,.74-.18.89.89,0,0,0,.28-.66l.08-.65h1.41v12.66h2.67v1.53Z"/><path d="M406.46,246.54a2.16,2.16,0,0,1-1.92-1,6.51,6.51,0,0,1,0-5.71,2.35,2.35,0,0,1,3.85,0,6.51,6.51,0,0,1,0,5.71A2.18,2.18,0,0,1,406.46,246.54Zm0-1.2a.87.87,0,0,0,.85-.59,5.88,5.88,0,0,0,.25-2.08,5.71,5.71,0,0,0-.25-2.06.9.9,0,0,0-1.68,0,5.39,5.39,0,0,0-.27,2.06,5.55,5.55,0,0,0,.27,2.08A.87.87,0,0,0,406.46,245.34Zm-.28,7.37L412.86,239h1.66l-6.67,13.72Zm8.06.18a2.14,2.14,0,0,1-1.92-1,6.42,6.42,0,0,1,0-5.71,2.36,2.36,0,0,1,3.84,0,6.42,6.42,0,0,1,0,5.71A2.14,2.14,0,0,1,414.24,252.89Zm0-1.2a.86.86,0,0,0,.84-.59,5.82,5.82,0,0,0,.26-2.08,5.65,5.65,0,0,0-.26-2.06.89.89,0,0,0-1.67,0,5.39,5.39,0,0,0-.27,2.06,5.55,5.55,0,0,0,.27,2.08A.87.87,0,0,0,414.24,251.69Z"/><path d="M426.57,189.6a4.08,4.08,0,0,1-3-1,3.76,3.76,0,0,1-1.05-2.83,4,4,0,0,1,.65-2.33,2.78,2.78,0,0,1,1.8-1.14,2.51,2.51,0,0,1-1.54-1.12,4.19,4.19,0,0,1,.41-4.83,4.06,4.06,0,0,1,5.38,0,3.72,3.72,0,0,1,1,2.72,3.76,3.76,0,0,1-.58,2.11,2.53,2.53,0,0,1-1.54,1.12,2.76,2.76,0,0,1,1.79,1.14,3.91,3.91,0,0,1,.65,2.33,3.76,3.76,0,0,1-1.05,2.83A4,4,0,0,1,426.57,189.6Zm0-1.45a2,2,0,0,0,1.64-.65,2.82,2.82,0,0,0,.56-1.89c0-1.72-.73-2.59-2.2-2.59s-2.2.87-2.2,2.59a2.77,2.77,0,0,0,.57,1.89A2,2,0,0,0,426.57,188.15Zm0-6.55c1.3,0,2-.8,2-2.4a2.91,2.91,0,0,0-.5-1.83,2,2,0,0,0-2.9,0,2.85,2.85,0,0,0-.51,1.83Q424.62,181.6,426.57,181.6Z"/><path d="M434.78,183.15a2.16,2.16,0,0,1-1.92-1,5.22,5.22,0,0,1-.66-2.86,5.13,5.13,0,0,1,.66-2.85,2.15,2.15,0,0,1,1.92-1,2.18,2.18,0,0,1,1.93,1,5.13,5.13,0,0,1,.66,2.85,5.22,5.22,0,0,1-.66,2.86A2.19,2.19,0,0,1,434.78,183.15Zm0-1.21a.87.87,0,0,0,.85-.59,8.69,8.69,0,0,0,0-4.14.87.87,0,0,0-.85-.58.86.86,0,0,0-.83.58,8.07,8.07,0,0,0,0,4.14A.85.85,0,0,0,434.78,181.94Zm-.28,7.37,6.67-13.72h1.67l-6.67,13.72Zm8.06.19a2.19,2.19,0,0,1-1.93-1,5.22,5.22,0,0,1-.66-2.86,5.13,5.13,0,0,1,.66-2.85,2.18,2.18,0,0,1,1.93-1,2.15,2.15,0,0,1,1.92,1,5.13,5.13,0,0,1,.66,2.85,5.22,5.22,0,0,1-.66,2.86A2.16,2.16,0,0,1,442.56,189.5Zm0-1.2a.87.87,0,0,0,.84-.59,5.86,5.86,0,0,0,.26-2.08,5.76,5.76,0,0,0-.26-2.07.88.88,0,0,0-.84-.58.89.89,0,0,0-.84.58,5.76,5.76,0,0,0-.26,2.07,5.86,5.86,0,0,0,.26,2.08A.89.89,0,0,0,442.56,188.3Z"/><path d="M469,160.74q-4.21,0-4.22-6.8a10.26,10.26,0,0,1,1.24-5.6,4.05,4.05,0,0,1,3.63-1.89,5.13,5.13,0,0,1,2.93.79l-.51,1.39a4.41,4.41,0,0,0-2.26-.63,2.55,2.55,0,0,0-2.39,1.4,9.37,9.37,0,0,0-.8,4.34,3.46,3.46,0,0,1,1.21-1.06,3.3,3.3,0,0,1,1.62-.41,3.23,3.23,0,0,1,2.59,1.08,4.46,4.46,0,0,1,.93,3,4.64,4.64,0,0,1-1.06,3.21A3.74,3.74,0,0,1,469,160.74Zm.1-7.08a2.83,2.83,0,0,0-1.33.36,3.71,3.71,0,0,0-1.15,1c.09,2.88.88,4.31,2.36,4.31a1.93,1.93,0,0,0,1.63-.75,3.45,3.45,0,0,0,.57-2.12C471.22,154.58,470.52,153.66,469.14,153.66Z"/><path d="M476.84,154.29a2.16,2.16,0,0,1-1.92-1,5.22,5.22,0,0,1-.66-2.86,5.13,5.13,0,0,1,.66-2.85,2.35,2.35,0,0,1,3.85,0,5.13,5.13,0,0,1,.66,2.85,5.22,5.22,0,0,1-.66,2.86A2.16,2.16,0,0,1,476.84,154.29Zm0-1.2a.87.87,0,0,0,.85-.59,5.91,5.91,0,0,0,.25-2.08,5.81,5.81,0,0,0-.25-2.07.88.88,0,0,0-.85-.58.89.89,0,0,0-.83.58,5.53,5.53,0,0,0-.26,2.07,5.63,5.63,0,0,0,.26,2.08A.89.89,0,0,0,476.84,153.09Zm-.28,7.37,6.68-13.73h1.67l-6.68,13.73Zm8.06.18a2.16,2.16,0,0,1-1.92-1,6.51,6.51,0,0,1,0-5.71,2.17,2.17,0,0,1,1.92-1,2.2,2.2,0,0,1,1.93,1,6.51,6.51,0,0,1,0,5.71A2.19,2.19,0,0,1,484.62,160.64Zm0-1.2a.88.88,0,0,0,.85-.59,5.91,5.91,0,0,0,.25-2.08,5.81,5.81,0,0,0-.25-2.07.89.89,0,0,0-.85-.58.87.87,0,0,0-.83.58,5.49,5.49,0,0,0-.27,2.07,5.58,5.58,0,0,0,.27,2.08A.87.87,0,0,0,484.62,159.44Z"/><path d="M510,149.26v-3.14H504.4v-1.44l5.21-9.14h2v9.08h1.56v1.5h-1.56v3.14Zm-3.91-4.64H510v-7Z"/><path d="M516.59,143.09a2.16,2.16,0,0,1-1.92-1,6.51,6.51,0,0,1,0-5.71,2.35,2.35,0,0,1,3.85,0,6.51,6.51,0,0,1,0,5.71A2.18,2.18,0,0,1,516.59,143.09Zm0-1.2a.87.87,0,0,0,.85-.59,5.91,5.91,0,0,0,.25-2.08,5.81,5.81,0,0,0-.25-2.07.9.9,0,0,0-1.68,0,5.49,5.49,0,0,0-.27,2.07,5.58,5.58,0,0,0,.27,2.08A.87.87,0,0,0,516.59,141.89Zm-.28,7.37L523,135.54h1.66L518,149.26Zm8.06.18a2.14,2.14,0,0,1-1.92-1,6.42,6.42,0,0,1,0-5.71,2.36,2.36,0,0,1,3.84,0,6.42,6.42,0,0,1,0,5.71A2.14,2.14,0,0,1,524.37,149.44Zm0-1.2a.86.86,0,0,0,.84-.59,5.82,5.82,0,0,0,.26-2.08,5.65,5.65,0,0,0-.26-2.06.89.89,0,0,0-1.67,0,5.39,5.39,0,0,0-.27,2.06,5.55,5.55,0,0,0,.27,2.08A.87.87,0,0,0,524.37,148.24Z"/><line x1="339.44" x2="339.44" y2="376.29" style="fill:none;stroke:#d3d2d2;stroke-miterlimit:10;stroke-width:2.0358529900427924px"/></g></svg>