<svg xmlns="http://www.w3.org/2000/svg" width="727" height="391.37" viewBox="0 0 727 391.37"><g id="f2ed795f-32bf-4dad-8a6a-0d0a0ecece2a" data-name="axis"><path d="M0,12.51V.9h2l2.7,8.27L7.48.9H9.42V12.51H8V3L5.43,10.74H4L1.45,3v9.51Z"/><path d="M12,12.51V4.89H11V3.74h2.5v8.77ZM11.93,1.9V.19h1.58V1.9Z"/><path d="M17.4,12.65A1.72,1.72,0,0,1,16,12.12a2.56,2.56,0,0,1-.45-1.68V.24h1.5V10.5a1.29,1.29,0,0,0,.16.78.65.65,0,0,0,.55.2l.27,0a1.35,1.35,0,0,0,.31-.07v1.12a3.16,3.16,0,0,1-.5.1A2.45,2.45,0,0,1,17.4,12.65Z"/><path d="M21.65,12.65a1.72,1.72,0,0,1-1.38-.53,2.56,2.56,0,0,1-.44-1.68V.24h1.5V10.5a1.39,1.39,0,0,0,.15.78.67.67,0,0,0,.55.2l.28,0a1.48,1.48,0,0,0,.31-.07v1.12a3.16,3.16,0,0,1-.5.1A2.56,2.56,0,0,1,21.65,12.65Z"/><path d="M24.28,12.51V4.89h-1V3.74h2.5v8.77ZM24.17,1.9V.19h1.59V1.9Z"/><path d="M30.75,12.75q-3.26,0-3.26-4.62c0-3.08,1.09-4.61,3.26-4.61S34,5.05,34,8.13,32.92,12.75,30.75,12.75Zm0-1.24a1.38,1.38,0,0,0,1.32-.8,6,6,0,0,0,.41-2.58,6,6,0,0,0-.41-2.57,1.48,1.48,0,0,0-2.63,0A6,6,0,0,0,29,8.13a6,6,0,0,0,.41,2.58A1.38,1.38,0,0,0,30.75,11.51Z"/><path d="M35.76,12.51V3.74H37L37.12,5a2.73,2.73,0,0,1,1-1.09,2.54,2.54,0,0,1,1.37-.37,2,2,0,0,1,1.66.74,3.5,3.5,0,0,1,.58,2.18v6.07h-1.5V6.57a2.3,2.3,0,0,0-.32-1.37,1.14,1.14,0,0,0-1-.41A2.24,2.24,0,0,0,38,5a2.2,2.2,0,0,0-.77.59v6.91Z"/><path d="M45.62,12.74a5.78,5.78,0,0,1-1.37-.17,3.19,3.19,0,0,1-1.08-.44l.35-1.2a4.1,4.1,0,0,0,2.17.56,1.47,1.47,0,0,0,1.08-.36,1.41,1.41,0,0,0,.35-1,1.42,1.42,0,0,0-.23-.86,1.56,1.56,0,0,0-.82-.47l-.76-.24a3,3,0,0,1-1.47-.89,2.26,2.26,0,0,1-.48-1.49,2.52,2.52,0,0,1,.78-1.92,2.81,2.81,0,0,1,2-.73,6.79,6.79,0,0,1,1.17.09,3.58,3.58,0,0,1,1,.34L48.07,5.1a5.75,5.75,0,0,0-.87-.26,4.77,4.77,0,0,0-.94-.08,1.6,1.6,0,0,0-1.12.35,1.25,1.25,0,0,0-.4,1,1.13,1.13,0,0,0,.24.75,1.94,1.94,0,0,0,.86.49l.57.19a3.42,3.42,0,0,1,1.66,1,2.44,2.44,0,0,1,.46,1.6A2.49,2.49,0,0,1,47.77,12,3.12,3.12,0,0,1,45.62,12.74Z"/><path d="M56.22,12.75Q53,12.75,53,8.13c0-3.08,1.09-4.61,3.26-4.61s3.26,1.53,3.26,4.61S58.39,12.75,56.22,12.75Zm0-1.24a1.38,1.38,0,0,0,1.32-.8,6.06,6.06,0,0,0,.4-2.58,6,6,0,0,0-.4-2.57,1.48,1.48,0,0,0-2.63,0,5.86,5.86,0,0,0-.41,2.57,5.88,5.88,0,0,0,.41,2.58A1.38,1.38,0,0,0,56.22,11.51Z"/><path d="M61.66,12.51V4.89H60.32V3.74h1.34V2.91A3.1,3.1,0,0,1,62.29.75,2.46,2.46,0,0,1,64.2.07a6.22,6.22,0,0,1,.63,0,2.2,2.2,0,0,1,.56.1V1.34l-.48-.07h-.4a1.43,1.43,0,0,0-1.08.32A2.33,2.33,0,0,0,63.15,3v.76h2.24V4.89H63.16v7.62Z"/><path d="M71.73,12.51V2.17H69V.9h7V2.17H73.28V12.51Z"/><path d="M79.27,12.75Q76,12.75,76,8.13c0-3.08,1.09-4.61,3.26-4.61s3.26,1.53,3.26,4.61S81.44,12.75,79.27,12.75Zm0-1.24a1.38,1.38,0,0,0,1.32-.8A6.06,6.06,0,0,0,81,8.13a6,6,0,0,0-.4-2.57,1.48,1.48,0,0,0-2.63,0,5.86,5.86,0,0,0-.41,2.57A5.88,5.88,0,0,0,78,10.71,1.38,1.38,0,0,0,79.27,11.51Z"/><path d="M84.28,12.51V3.74H85.5L85.64,5a2.79,2.79,0,0,1,1-1.09A2.58,2.58,0,0,1,88,3.52a2,2,0,0,1,1.67.74,3.56,3.56,0,0,1,.57,2.18v6.07H88.73V6.57a2.3,2.3,0,0,0-.32-1.37,1.17,1.17,0,0,0-1-.41,2.2,2.2,0,0,0-.9.22,2.11,2.11,0,0,0-.77.59v6.91Z"/><path d="M92.28,12.51V3.74H93.5L93.64,5a2.79,2.79,0,0,1,1-1.09A2.58,2.58,0,0,1,96,3.52a2,2,0,0,1,1.67.74,3.56,3.56,0,0,1,.57,2.18v6.07H96.73V6.57a2.3,2.3,0,0,0-.32-1.37,1.17,1.17,0,0,0-1-.41,2.2,2.2,0,0,0-.9.22,2.11,2.11,0,0,0-.77.59v6.91Z"/><path d="M103.41,12.74a3.12,3.12,0,0,1-2.64-1.1,5.65,5.65,0,0,1-.84-3.44,6.16,6.16,0,0,1,.83-3.47,2.71,2.71,0,0,1,2.37-1.21q3,0,3,4.53v.57h-4.76a3.8,3.8,0,0,0,.53,2.19,1.88,1.88,0,0,0,1.59.65,3.68,3.68,0,0,0,1-.15,3.79,3.79,0,0,0,1-.42l.41,1.14a4.75,4.75,0,0,1-1.21.52A5.26,5.26,0,0,1,103.41,12.74Zm-.29-8a1.36,1.36,0,0,0-1.24.7,4.52,4.52,0,0,0-.47,2.14h3.26a4.69,4.69,0,0,0-.38-2.15A1.26,1.26,0,0,0,103.12,4.72Z"/><path d="M109.76,12.74a5.78,5.78,0,0,1-1.37-.17,3.19,3.19,0,0,1-1.08-.44l.35-1.2a4.1,4.1,0,0,0,2.17.56,1.47,1.47,0,0,0,1.08-.36,1.41,1.41,0,0,0,.35-1,1.42,1.42,0,0,0-.23-.86,1.56,1.56,0,0,0-.82-.47l-.76-.24A3,3,0,0,1,108,7.66a2.26,2.26,0,0,1-.48-1.49,2.52,2.52,0,0,1,.78-1.92,2.81,2.81,0,0,1,2-.73,6.79,6.79,0,0,1,1.17.09,3.58,3.58,0,0,1,1,.34l-.27,1.15a5.75,5.75,0,0,0-.87-.26,4.77,4.77,0,0,0-.94-.08,1.58,1.58,0,0,0-1.12.35,1.25,1.25,0,0,0-.4,1,1.13,1.13,0,0,0,.24.75,1.94,1.94,0,0,0,.86.49l.57.19a3.47,3.47,0,0,1,1.66,1,2.44,2.44,0,0,1,.46,1.6,2.49,2.49,0,0,1-.76,1.94A3.12,3.12,0,0,1,109.76,12.74Z"/><path d="M117.65,12.51V.9h3.12a3.36,3.36,0,0,1,2.64.93,4.07,4.07,0,0,1,.83,2.75,3.91,3.91,0,0,1-.83,2.7,3.36,3.36,0,0,1-2.64.92H119.2v4.31Zm3-10.34H119.2V6.93h1.42a1.93,1.93,0,0,0,1.54-.57,2.67,2.67,0,0,0,.49-1.78,2.79,2.79,0,0,0-.49-1.82A1.9,1.9,0,0,0,120.62,2.17Z"/><path d="M128.92,12.74a3.14,3.14,0,0,1-2.64-1.1,5.65,5.65,0,0,1-.84-3.44,6.07,6.07,0,0,1,.84-3.47,2.69,2.69,0,0,1,2.37-1.21q3,0,3,4.53v.57h-4.75a3.81,3.81,0,0,0,.52,2.19,1.89,1.89,0,0,0,1.6.65,3.73,3.73,0,0,0,1-.15,3.86,3.86,0,0,0,1-.42l.42,1.14a5,5,0,0,1-1.22.52A5.13,5.13,0,0,1,128.92,12.74Zm-.29-8a1.34,1.34,0,0,0-1.23.7,4.63,4.63,0,0,0-.48,2.14h3.26a4.69,4.69,0,0,0-.38-2.15A1.24,1.24,0,0,0,128.63,4.72Z"/><path d="M133.36,12.51V3.74h1.24l.15,1.43a2.67,2.67,0,0,1,2.54-1.53h.17V5.07h-.16a4.21,4.21,0,0,0-1.42.21,2.78,2.78,0,0,0-1,.7v6.53Z"/><path d="M144.27,12.51V8.39L141.13.9h1.67l2.31,5.85L147.44.9H149l-3.13,7.32v4.29Z"/><path d="M152.48,12.74a3.11,3.11,0,0,1-2.63-1.1A5.58,5.58,0,0,1,149,8.2a6.07,6.07,0,0,1,.84-3.47,2.69,2.69,0,0,1,2.37-1.21q3,0,3,4.53v.57h-4.75a3.81,3.81,0,0,0,.52,2.19,1.89,1.89,0,0,0,1.6.65,3.73,3.73,0,0,0,1-.15,3.86,3.86,0,0,0,1-.42L155,12a5,5,0,0,1-1.22.52A5.13,5.13,0,0,1,152.48,12.74Zm-.29-8a1.34,1.34,0,0,0-1.23.7,4.63,4.63,0,0,0-.48,2.14h3.26a4.69,4.69,0,0,0-.38-2.15A1.24,1.24,0,0,0,152.19,4.72Z"/><path d="M158.69,12.72a2.06,2.06,0,0,1-1.63-.66,2.72,2.72,0,0,1-.57-1.86,2.79,2.79,0,0,1,.72-2,3,3,0,0,1,2.21-.73h1.41V6.88a3,3,0,0,0-.31-1.66,1.36,1.36,0,0,0-1.17-.43,3.93,3.93,0,0,0-1.06.15,8.55,8.55,0,0,0-1,.33L157,4.08a7.6,7.6,0,0,1,2.69-.56,2.52,2.52,0,0,1,2,.74,3.55,3.55,0,0,1,.65,2.37v5.88h-1.28l-.14-1.15a2.79,2.79,0,0,1-1,1A2.46,2.46,0,0,1,158.69,12.72Zm.5-1.21a1.82,1.82,0,0,0,.88-.25,2.14,2.14,0,0,0,.76-.63V8.41h-1.31c-1,0-1.53.55-1.53,1.64S158.39,11.51,159.19,11.51Z"/><path d="M164.4,12.51V3.74h1.24l.16,1.43a2.66,2.66,0,0,1,2.53-1.53h.17V5.07h-.15a4.17,4.17,0,0,0-1.42.21,2.74,2.74,0,0,0-1,.7v6.53Z"/><path d="M171.93,6.91a2.74,2.74,0,0,1-1.76-.54l.26-.69a2.47,2.47,0,0,0,1.44.49c.81,0,1.22-.45,1.22-1.35s-.37-1.4-1.12-1.4a1.55,1.55,0,0,0-1,.39l-.56-.32V0h3.34V.75h-2.55V3.09a1.71,1.71,0,0,1,1.1-.36,1.56,1.56,0,0,1,1.26.56,2.26,2.26,0,0,1,.46,1.5,2.22,2.22,0,0,1-.52,1.57A2,2,0,0,1,171.93,6.91Z"/></g><g id="eeaa0173-4f03-4dfb-b6a7-a9af8e84ea33" data-name="Layer 6"><rect x="97.8" y="228.09" width="27.35" height="98.91" style="fill:#155c5e"/><rect x="197.01" y="126.86" width="27.35" height="200.14" style="fill:#155c5e"/><rect x="296.21" y="183.87" width="27.35" height="143.12" style="fill:#155c5e"/><rect x="395.42" y="173.4" width="27.35" height="153.6" style="fill:#155c5e"/><rect x="494.62" y="70.62" width="27.35" height="256.38" style="fill:#155c5e"/><rect x="593.83" y="136.94" width="27.35" height="190.06" style="fill:#155c5e"/><rect x="693.04" y="50.06" width="27.35" height="276.94" style="fill:#155c5e"/><rect x="68.39" y="258.35" width="27.35" height="68.65" style="fill:#7681fc"/><rect x="167.59" y="222.66" width="27.35" height="104.34" style="fill:#7681fc"/><rect x="266.8" y="214.52" width="27.35" height="112.48" style="fill:#7681fc"/><rect x="366.01" y="194.35" width="27.35" height="132.65" style="fill:#7681fc"/><rect x="465.21" y="146.25" width="27.35" height="180.75" style="fill:#7681fc"/><rect x="564.42" y="156.34" width="27.35" height="170.66" style="fill:#7681fc"/><rect x="663.63" y="93.5" width="27.35" height="233.5" style="fill:#7681fc"/><rect x="38.98" y="276.96" width="27.35" height="50.04" style="fill:#0d1826"/><rect x="138.18" y="259.51" width="27.35" height="67.49" style="fill:#0d1826"/><rect x="237.39" y="237.4" width="27.35" height="89.6" style="fill:#0d1826"/><rect x="336.6" y="214.9" width="27.35" height="112.09" style="fill:#0d1826"/><rect x="435.8" y="197.45" width="27.35" height="129.55" style="fill:#0d1826"/><rect x="535.01" y="174.95" width="27.35" height="152.05" style="fill:#0d1826"/><rect x="634.21" y="145.47" width="27.35" height="181.52" style="fill:#0d1826"/><path d="M179.88,33.91V32.74l2.88-3.41a12.53,12.53,0,0,0,1-1.39,4.85,4.85,0,0,0,.54-1.2,4.71,4.71,0,0,0,.17-1.25,2.28,2.28,0,0,0-.48-1.56,1.64,1.64,0,0,0-1.33-.55,4.13,4.13,0,0,0-1.11.15,5.09,5.09,0,0,0-1.13.49l-.52-1.17a4.42,4.42,0,0,1,1.34-.6,5.8,5.8,0,0,1,1.49-.19,3.21,3.21,0,0,1,2.43.89,3.53,3.53,0,0,1,.86,2.54,5.13,5.13,0,0,1-.2,1.45,5.68,5.68,0,0,1-.68,1.42,18.06,18.06,0,0,1-1.36,1.81l-2.07,2.47h4.55v1.27Z"/><path d="M191.18,34.15q-3.42,0-3.42-6c0-4,1.14-6.05,3.42-6.05s3.43,2,3.43,6.05S193.47,34.15,191.18,34.15Zm0-1.25a1.5,1.5,0,0,0,1.41-1.16,11.06,11.06,0,0,0,.44-3.63,11.09,11.09,0,0,0-.44-3.64,1.5,1.5,0,0,0-1.41-1.16c-.63,0-1.09.39-1.39,1.16a10.77,10.77,0,0,0-.45,3.64,10.74,10.74,0,0,0,.45,3.63C190.09,32.51,190.55,32.9,191.18,32.9Z"/><path d="M198.56,34.15a5.15,5.15,0,0,1-2.95-.79l.54-1.14a4.77,4.77,0,0,0,2.38.68c1.41,0,2.11-.76,2.11-2.26a1.82,1.82,0,0,0-2.06-2.07h-1V27.3h.92a1.83,1.83,0,0,0,1.39-.54,1.93,1.93,0,0,0,.52-1.43c0-1.34-.61-2-1.84-2a5.27,5.27,0,0,0-2.23.59l-.44-1.1a5.87,5.87,0,0,1,1.35-.55,5.71,5.71,0,0,1,1.44-.19,3.34,3.34,0,0,1,2.4.82,3,3,0,0,1,.87,2.31,3,3,0,0,1-.46,1.68,2.51,2.51,0,0,1-1.24,1,2.52,2.52,0,0,1,1.43,1,3.73,3.73,0,0,1-.45,4.38A3.8,3.8,0,0,1,198.56,34.15Z"/><path d="M207.27,34.15c-2.28,0-3.43-2-3.43-6s1.15-6.05,3.43-6.05,3.43,2,3.43,6.05S209.56,34.15,207.27,34.15Zm0-1.25a1.5,1.5,0,0,0,1.41-1.16,11.06,11.06,0,0,0,.44-3.63,11.09,11.09,0,0,0-.44-3.64,1.5,1.5,0,0,0-1.41-1.16c-.63,0-1.09.39-1.39,1.16a10.77,10.77,0,0,0-.45,3.64,10.74,10.74,0,0,0,.45,3.63C206.18,32.51,206.64,32.9,207.27,32.9Z"/><rect x="149.21" y="23.25" width="25.85" height="11.34" style="fill:#7681fc"/><path d="M270.65,33.91V32.74l2.87-3.41a11.58,11.58,0,0,0,1-1.39,4.85,4.85,0,0,0,.54-1.2,4.71,4.71,0,0,0,.17-1.25,2.28,2.28,0,0,0-.48-1.56,1.64,1.64,0,0,0-1.33-.55,4.13,4.13,0,0,0-1.11.15,5.09,5.09,0,0,0-1.13.49l-.52-1.17a4.36,4.36,0,0,1,1.33-.6,5.91,5.91,0,0,1,1.49-.19A3.23,3.23,0,0,1,276,23a3.53,3.53,0,0,1,.86,2.54,5.13,5.13,0,0,1-.2,1.45,5.68,5.68,0,0,1-.68,1.42,18.06,18.06,0,0,1-1.36,1.81l-2.07,2.47h4.55v1.27Z"/><path d="M282,34.15c-2.28,0-3.43-2-3.43-6s1.15-6.05,3.43-6.05,3.43,2,3.43,6.05S284.24,34.15,282,34.15Zm0-1.25a1.5,1.5,0,0,0,1.41-1.16,11.06,11.06,0,0,0,.44-3.63,11.09,11.09,0,0,0-.44-3.64A1.5,1.5,0,0,0,282,23.31c-.63,0-1.09.39-1.39,1.16a10.77,10.77,0,0,0-.45,3.64,10.74,10.74,0,0,0,.45,3.63C280.86,32.51,281.32,32.9,282,32.9Z"/><path d="M289.88,34.15a4.75,4.75,0,0,1-3-.93l.45-1.19a4.29,4.29,0,0,0,2.48.85c1.39,0,2.09-.77,2.09-2.31s-.64-2.41-1.91-2.41a2.66,2.66,0,0,0-1.8.67l-1-.55v-6h5.74v1.29h-4.38v4a2.88,2.88,0,0,1,1.88-.62,2.66,2.66,0,0,1,2.17,1,3.92,3.92,0,0,1,.79,2.58,3.76,3.76,0,0,1-.9,2.68A3.43,3.43,0,0,1,289.88,34.15Z"/><path d="M298.39,34.15c-2.28,0-3.43-2-3.43-6s1.15-6.05,3.43-6.05,3.43,2,3.43,6.05S300.68,34.15,298.39,34.15Zm0-1.25c.65,0,1.11-.39,1.41-1.16a11.06,11.06,0,0,0,.44-3.63,11.09,11.09,0,0,0-.44-3.64c-.3-.77-.76-1.16-1.41-1.16s-1.09.39-1.39,1.16a10.77,10.77,0,0,0-.45,3.64,10.74,10.74,0,0,0,.45,3.63C297.3,32.51,297.76,32.9,298.39,32.9Z"/><rect x="240.58" y="23.25" width="25.85" height="11.34" style="fill:#155c5e"/><path d="M88.89,33.91V32.74l2.88-3.41a11.37,11.37,0,0,0,1-1.39,4.55,4.55,0,0,0,.55-1.2,4.71,4.71,0,0,0,.16-1.25A2.33,2.33,0,0,0,93,23.93a1.66,1.66,0,0,0-1.34-.55,4,4,0,0,0-1.1.15,5,5,0,0,0-1.14.49l-.52-1.17a4.42,4.42,0,0,1,1.34-.6,5.91,5.91,0,0,1,1.49-.19,3.23,3.23,0,0,1,2.44.89,3.53,3.53,0,0,1,.85,2.54,4.8,4.8,0,0,1-.2,1.45,5.35,5.35,0,0,1-.68,1.42,16.63,16.63,0,0,1-1.36,1.81l-2.07,2.47H95.3v1.27Z"/><path d="M100.2,34.15q-3.44,0-3.43-6c0-4,1.14-6.05,3.43-6.05s3.43,2,3.43,6.05S102.49,34.15,100.2,34.15Zm0-1.25a1.49,1.49,0,0,0,1.4-1.16,10.79,10.79,0,0,0,.44-3.63,10.82,10.82,0,0,0-.44-3.64,1.49,1.49,0,0,0-1.4-1.16c-.63,0-1.1.39-1.4,1.16a10.82,10.82,0,0,0-.44,3.64,10.79,10.79,0,0,0,.44,3.63C99.1,32.51,99.57,32.9,100.2,32.9Z"/><path d="M105.25,33.91V32.62h2.41V24.35h-2.45V23.21l1.83-.05a1.17,1.17,0,0,0,.62-.15.72.72,0,0,0,.24-.56l.07-.55h1.19V32.62h2.26v1.29Z"/><path d="M116.23,34.15c-2.38,0-3.57-1.91-3.57-5.75a8.72,8.72,0,0,1,1-4.74,3.42,3.42,0,0,1,3.07-1.6,4.37,4.37,0,0,1,2.49.67l-.44,1.17a3.65,3.65,0,0,0-1.91-.53,2.15,2.15,0,0,0-2,1.19,7.78,7.78,0,0,0-.68,3.67,3,3,0,0,1,1-.9,2.81,2.81,0,0,1,1.37-.34,2.74,2.74,0,0,1,2.2.91,3.81,3.81,0,0,1,.78,2.55,3.92,3.92,0,0,1-.89,2.71A3.17,3.17,0,0,1,116.23,34.15Zm.09-6a2.32,2.32,0,0,0-1.13.31,2.83,2.83,0,0,0-1,.81c.08,2.43.74,3.65,2,3.65a1.61,1.61,0,0,0,1.37-.64,2.85,2.85,0,0,0,.49-1.79C118.08,28.94,117.49,28.16,116.32,28.16Z"/><rect x="58.27" y="23.25" width="25.85" height="11.34" style="fill:#0d1826"/></g><g id="bcd61a40-dfc4-4b6b-a7ec-83430ea4111e" data-name="Layer 5"><path d="M20.64,332q-3.43,0-3.43-6.05t3.43-6q3.43,0,3.43,6T20.64,332Zm0-1.26a1.5,1.5,0,0,0,1.41-1.15,15.62,15.62,0,0,0,0-7.28,1.43,1.43,0,0,0-2.81,0,15.28,15.28,0,0,0,0,7.28A1.5,1.5,0,0,0,20.64,330.69Z"/><path d="M1.37,294.5v-1.3H3.78v-8.27H1.33v-1.14l1.83-.05a1.25,1.25,0,0,0,.62-.14A.75.75,0,0,0,4,283l.07-.56H5.28V293.2H7.54v1.3Z"/><path d="M12.21,294.74q-3.44,0-3.43-6.05t3.43-6.05c2.28,0,3.43,2,3.43,6.05S14.49,294.74,12.21,294.74Zm0-1.26a1.48,1.48,0,0,0,1.4-1.15,10.86,10.86,0,0,0,.44-3.64,10.82,10.82,0,0,0-.44-3.64,1.48,1.48,0,0,0-1.4-1.15,1.5,1.5,0,0,0-1.4,1.15,14.95,14.95,0,0,0,0,7.28A1.5,1.5,0,0,0,12.21,293.48Z"/><path d="M20.64,294.74q-3.43,0-3.43-6.05t3.43-6.05q3.43,0,3.43,6.05T20.64,294.74Zm0-1.26a1.48,1.48,0,0,0,1.4-1.15,15.28,15.28,0,0,0,0-7.28,1.48,1.48,0,0,0-1.4-1.15,1.5,1.5,0,0,0-1.4,1.15,15.28,15.28,0,0,0,0,7.28A1.5,1.5,0,0,0,20.64,293.48Z"/><path d="M.9,257.28v-1.17l2.88-3.41a12.53,12.53,0,0,0,1-1.39,4.46,4.46,0,0,0,.55-1.21,5,5,0,0,0,.16-1.25,2.34,2.34,0,0,0-.47-1.56,1.7,1.7,0,0,0-1.34-.54,4,4,0,0,0-1.1.15,4.56,4.56,0,0,0-1.14.49L1,246.22a4.19,4.19,0,0,1,1.34-.6,5.87,5.87,0,0,1,1.49-.2,3.2,3.2,0,0,1,2.44.9,3.52,3.52,0,0,1,.85,2.53,5.15,5.15,0,0,1-.2,1.46,5.68,5.68,0,0,1-.68,1.42,16.63,16.63,0,0,1-1.36,1.81L2.76,256H7.31v1.28Z"/><path d="M12.21,257.52c-2.29,0-3.43-2-3.43-6s1.14-6.05,3.43-6.05,3.43,2,3.43,6.05S14.49,257.52,12.21,257.52Zm0-1.26a1.48,1.48,0,0,0,1.4-1.15,15.24,15.24,0,0,0,0-7.27,1.49,1.49,0,0,0-1.4-1.16c-.63,0-1.1.39-1.4,1.16a14.91,14.91,0,0,0,0,7.27A1.5,1.5,0,0,0,12.21,256.26Z"/><path d="M20.64,257.52c-2.29,0-3.43-2-3.43-6s1.14-6.05,3.43-6.05,3.43,2,3.43,6.05S22.93,257.52,20.64,257.52Zm0-1.26a1.48,1.48,0,0,0,1.4-1.15,15.24,15.24,0,0,0,0-7.27,1.49,1.49,0,0,0-1.4-1.16c-.63,0-1.1.39-1.4,1.16a15.24,15.24,0,0,0,0,7.27A1.5,1.5,0,0,0,20.64,256.26Z"/><path d="M3.49,220.31a5.12,5.12,0,0,1-2.94-.79l.53-1.14a4.78,4.78,0,0,0,2.38.67c1.41,0,2.12-.75,2.12-2.25a1.83,1.83,0,0,0-2.07-2.07h-1v-1.28h.91a1.88,1.88,0,0,0,1.4-.53,2,2,0,0,0,.51-1.43c0-1.35-.61-2-1.84-2a5.19,5.19,0,0,0-2.22.59L.84,209a5.44,5.44,0,0,1,1.35-.54,5.73,5.73,0,0,1,1.44-.2A3.35,3.35,0,0,1,6,209a3,3,0,0,1,.88,2.31A3,3,0,0,1,6.44,213a2.36,2.36,0,0,1-1.24,1,2.58,2.58,0,0,1,1.43,1,3.34,3.34,0,0,1,.52,1.89,3.28,3.28,0,0,1-1,2.5A3.83,3.83,0,0,1,3.49,220.31Z"/><path d="M12.21,220.31c-2.29,0-3.43-2-3.43-6.05s1.14-6,3.43-6,3.43,2,3.43,6S14.49,220.31,12.21,220.31Zm0-1.26a1.48,1.48,0,0,0,1.4-1.15,15.24,15.24,0,0,0,0-7.27,1.49,1.49,0,0,0-1.4-1.16c-.63,0-1.1.39-1.4,1.16a14.91,14.91,0,0,0,0,7.27A1.5,1.5,0,0,0,12.21,219.05Z"/><path d="M20.64,220.31c-2.29,0-3.43-2-3.43-6.05s1.14-6,3.43-6,3.43,2,3.43,6S22.93,220.31,20.64,220.31Zm0-1.26A1.48,1.48,0,0,0,22,217.9a15.24,15.24,0,0,0,0-7.27,1.49,1.49,0,0,0-1.4-1.16c-.63,0-1.1.39-1.4,1.16a15.24,15.24,0,0,0,0,7.27A1.5,1.5,0,0,0,20.64,219.05Z"/><path d="M4.68,182.86v-2.65H0V179l4.41-7.74h1.7v7.69H7.4v1.28H6.07v2.65Zm-3.31-3.93H4.68v-6Z"/><path d="M12.21,183.1q-3.44,0-3.43-6T12.21,171c2.28,0,3.43,2,3.43,6.05S14.49,183.1,12.21,183.1Zm0-1.26a1.48,1.48,0,0,0,1.4-1.15,15.24,15.24,0,0,0,0-7.27,1.49,1.49,0,0,0-1.4-1.16c-.63,0-1.1.39-1.4,1.16a14.91,14.91,0,0,0,0,7.27A1.5,1.5,0,0,0,12.21,181.84Z"/><path d="M20.64,183.1q-3.43,0-3.43-6T20.64,171q3.43,0,3.43,6.05T20.64,183.1Zm0-1.26a1.48,1.48,0,0,0,1.4-1.15,15.24,15.24,0,0,0,0-7.27,1.49,1.49,0,0,0-1.4-1.16c-.63,0-1.1.39-1.4,1.16a15.24,15.24,0,0,0,0,7.27A1.5,1.5,0,0,0,20.64,181.84Z"/><path d="M3.69,145.89a4.72,4.72,0,0,1-3-.93l.45-1.19a4.27,4.27,0,0,0,2.48.85c1.39,0,2.08-.77,2.08-2.31s-.63-2.42-1.91-2.42a2.63,2.63,0,0,0-1.79.68L1,140v-6H6.74v1.3H2.36v4a3,3,0,0,1,1.88-.62,2.65,2.65,0,0,1,2.17,1,3.92,3.92,0,0,1,.8,2.58,3.74,3.74,0,0,1-.91,2.68A3.44,3.44,0,0,1,3.69,145.89Z"/><path d="M12.21,145.89c-2.29,0-3.43-2-3.43-6s1.14-6.05,3.43-6.05,3.43,2,3.43,6.05S14.49,145.89,12.21,145.89Zm0-1.26a1.48,1.48,0,0,0,1.4-1.15,15.24,15.24,0,0,0,0-7.27,1.49,1.49,0,0,0-1.4-1.16c-.63,0-1.1.39-1.4,1.16a14.91,14.91,0,0,0,0,7.27A1.5,1.5,0,0,0,12.21,144.63Z"/><path d="M20.64,145.89c-2.29,0-3.43-2-3.43-6s1.14-6.05,3.43-6.05,3.43,2,3.43,6.05S22.93,145.89,20.64,145.89Zm0-1.26a1.5,1.5,0,0,0,1.41-1.15,15.58,15.58,0,0,0,0-7.27,1.51,1.51,0,0,0-1.41-1.16c-.63,0-1.1.39-1.4,1.16a15.24,15.24,0,0,0,0,7.27A1.5,1.5,0,0,0,20.64,144.63Z"/><path d="M4,108.69q-3.57,0-3.57-5.76a8.82,8.82,0,0,1,1-4.74,3.44,3.44,0,0,1,3.08-1.6A4.33,4.33,0,0,1,7,97.26l-.43,1.17a3.8,3.8,0,0,0-1.91-.53,2.18,2.18,0,0,0-2,1.19,7.94,7.94,0,0,0-.68,3.67,3,3,0,0,1,1-.9,2.76,2.76,0,0,1,1.37-.34,2.72,2.72,0,0,1,2.19.91A3.76,3.76,0,0,1,7.32,105a3.9,3.9,0,0,1-.9,2.72A3.16,3.16,0,0,1,4,108.69Zm.08-6a2.35,2.35,0,0,0-1.13.31,3.18,3.18,0,0,0-1,.81c.08,2.44.75,3.65,2,3.65a1.63,1.63,0,0,0,1.38-.63A3,3,0,0,0,5.8,105C5.8,103.47,5.21,102.69,4,102.69Z"/><path d="M12.21,108.69q-3.44,0-3.43-6t3.43-6c2.28,0,3.43,2,3.43,6S14.49,108.69,12.21,108.69Zm0-1.26a1.48,1.48,0,0,0,1.4-1.15,10.86,10.86,0,0,0,.44-3.64A10.82,10.82,0,0,0,13.61,99a1.48,1.48,0,0,0-1.4-1.15A1.5,1.5,0,0,0,10.81,99a10.77,10.77,0,0,0-.45,3.64,10.81,10.81,0,0,0,.45,3.64A1.5,1.5,0,0,0,12.21,107.43Z"/><path d="M20.64,108.69q-3.43,0-3.43-6t3.43-6q3.43,0,3.43,6T20.64,108.69Zm0-1.26a1.48,1.48,0,0,0,1.4-1.15,10.86,10.86,0,0,0,.44-3.64A10.82,10.82,0,0,0,22,99a1.48,1.48,0,0,0-1.4-1.15A1.5,1.5,0,0,0,19.24,99a15.28,15.28,0,0,0,0,7.28A1.5,1.5,0,0,0,20.64,107.43Z"/><path d="M2.21,71.23,5.94,60.91H1v-1.3H7.48V60.8L3.83,71.23Z"/><path d="M12.21,71.47c-2.29,0-3.43-2-3.43-6s1.14-6.05,3.43-6.05,3.43,2,3.43,6.05S14.49,71.47,12.21,71.47Zm0-1.26a1.48,1.48,0,0,0,1.4-1.15,10.82,10.82,0,0,0,.44-3.64,10.79,10.79,0,0,0-.44-3.63,1.49,1.49,0,0,0-1.4-1.16c-.63,0-1.1.39-1.4,1.16a10.74,10.74,0,0,0-.45,3.63,10.77,10.77,0,0,0,.45,3.64A1.5,1.5,0,0,0,12.21,70.21Z"/><path d="M20.64,71.47c-2.29,0-3.43-2-3.43-6s1.14-6.05,3.43-6.05,3.43,2,3.43,6.05S22.93,71.47,20.64,71.47Zm0-1.26a1.5,1.5,0,0,0,1.41-1.15,11.15,11.15,0,0,0,.43-3.64,11.12,11.12,0,0,0-.43-3.63,1.51,1.51,0,0,0-1.41-1.16c-.63,0-1.1.39-1.4,1.16a11.06,11.06,0,0,0-.44,3.63,11.09,11.09,0,0,0,.44,3.64A1.5,1.5,0,0,0,20.64,70.21Z"/><path d="M3.9,34.26a3.47,3.47,0,0,1-2.51-.86A3.18,3.18,0,0,1,.5,31a3.39,3.39,0,0,1,.55-2,2.36,2.36,0,0,1,1.52-1,2.2,2.2,0,0,1-1.3-.95,3.14,3.14,0,0,1-.49-1.79A3.19,3.19,0,0,1,1.62,23a3.07,3.07,0,0,1,2.28-.86A3,3,0,0,1,6.17,23,3.15,3.15,0,0,1,7,25.33a3.21,3.21,0,0,1-.49,1.79,2.22,2.22,0,0,1-1.31.95,2.34,2.34,0,0,1,1.52,1,3.32,3.32,0,0,1,.55,2,3.18,3.18,0,0,1-.88,2.4A3.49,3.49,0,0,1,3.9,34.26ZM3.9,33a1.76,1.76,0,0,0,1.39-.55,2.45,2.45,0,0,0,.47-1.61q0-2.19-1.86-2.19T2,30.88a2.4,2.4,0,0,0,.48,1.61A1.76,1.76,0,0,0,3.9,33Zm0-5.55q1.65,0,1.65-2a2.44,2.44,0,0,0-.42-1.54,1.48,1.48,0,0,0-1.23-.52,1.5,1.5,0,0,0-1.23.52,2.44,2.44,0,0,0-.43,1.54C2.24,26.81,2.79,27.49,3.9,27.49Z"/><path d="M12.21,34.26c-2.29,0-3.43-2-3.43-6s1.14-6.05,3.43-6.05,3.43,2,3.43,6.05S14.49,34.26,12.21,34.26Zm0-1.26a1.48,1.48,0,0,0,1.4-1.15,10.82,10.82,0,0,0,.44-3.64,10.79,10.79,0,0,0-.44-3.63,1.49,1.49,0,0,0-1.4-1.16c-.63,0-1.1.39-1.4,1.16a10.74,10.74,0,0,0-.45,3.63,10.77,10.77,0,0,0,.45,3.64A1.5,1.5,0,0,0,12.21,33Z"/><path d="M20.64,34.26c-2.29,0-3.43-2-3.43-6s1.14-6.05,3.43-6.05,3.43,2,3.43,6.05S22.93,34.26,20.64,34.26Zm0-1.26a1.5,1.5,0,0,0,1.41-1.15,11.15,11.15,0,0,0,.43-3.64,11.12,11.12,0,0,0-.43-3.63,1.51,1.51,0,0,0-1.41-1.16c-.63,0-1.1.39-1.4,1.16a11.06,11.06,0,0,0-.44,3.63,11.09,11.09,0,0,0,.44,3.64A1.5,1.5,0,0,0,20.64,33Z"/><line x1="32.41" y1="327.24" x2="32.41" y2="22.76" style="fill:none;stroke:#666766;stroke-miterlimit:10;stroke-width:0.8617202733439617px"/><line x1="32.41" y1="327.24" x2="726.96" y2="327.24" style="fill:none;stroke:#666766;stroke-linejoin:round;stroke-width:0.8617202733439617px"/><path d="M60.48,353.22V341.6h2l2.7,8.27,2.73-8.27h1.94v11.62H68.46V343.7l-2.59,7.74H64.48l-2.59-7.74v9.52Z"/><path d="M72.48,353.22V345.6h-1v-1.15H74v8.77Zm-.1-10.62v-1.71H74v1.71Z"/><path d="M78.37,353.44q-2.66,0-2.65-4.6t2.69-4.62a2.41,2.41,0,0,1,2.13,1.17V341H82v12.27H80.79l-.12-1.07A2.5,2.5,0,0,1,78.37,353.44Zm.57-1.26a1.93,1.93,0,0,0,.87-.22,2,2,0,0,0,.73-.57v-5.1a2,2,0,0,0-.73-.57,1.93,1.93,0,0,0-.87-.22,1.33,1.33,0,0,0-1.29.79,6,6,0,0,0-.4,2.57,5.88,5.88,0,0,0,.4,2.54A1.34,1.34,0,0,0,78.94,352.18Z"/><path d="M86.48,353.44q-2.66,0-2.65-4.6t2.69-4.62a2.44,2.44,0,0,1,2.14,1.17V341h1.49v12.27H88.9l-.12-1.07A2.5,2.5,0,0,1,86.48,353.44Zm.57-1.26a1.93,1.93,0,0,0,.87-.22,2.15,2.15,0,0,0,.74-.57v-5.1a2.15,2.15,0,0,0-.74-.57,1.93,1.93,0,0,0-.87-.22,1.34,1.34,0,0,0-1.29.79,6.17,6.17,0,0,0-.4,2.57,6,6,0,0,0,.4,2.54A1.35,1.35,0,0,0,87.05,352.18Z"/><path d="M94.06,353.36a1.72,1.72,0,0,1-1.38-.53,2.56,2.56,0,0,1-.45-1.68V341h1.5V351.2a1.45,1.45,0,0,0,.15.79.69.69,0,0,0,.56.19h.27l.31-.07v1.12a4.91,4.91,0,0,1-.5.1A3.73,3.73,0,0,1,94.06,353.36Z"/><path d="M99.53,353.44a3.11,3.11,0,0,1-2.63-1.09,5.67,5.67,0,0,1-.85-3.44,6,6,0,0,1,.84-3.47,2.72,2.72,0,0,1,2.37-1.22q3,0,3,4.53v.57H97.52a3.91,3.91,0,0,0,.52,2.2,1.89,1.89,0,0,0,1.6.65,3.73,3.73,0,0,0,1-.15,4.69,4.69,0,0,0,1-.42l.42,1.14a4.81,4.81,0,0,1-1.22.51A4.73,4.73,0,0,1,99.53,353.44Zm-.29-8a1.34,1.34,0,0,0-1.23.7,4.52,4.52,0,0,0-.47,2.14h3.25a4.54,4.54,0,0,0-.38-2.15A1.24,1.24,0,0,0,99.24,345.43Z"/><path d="M55,372.18V360.56h5.81v1.27H56.53v3.8h3.6v1.27h-3.6v4h4.33v1.28Z"/><path d="M64.5,372.38a2.09,2.09,0,0,1-1.63-.65,2.76,2.76,0,0,1-.57-1.86,2.8,2.8,0,0,1,.72-2.05,3,3,0,0,1,2.2-.73h1.42v-.55a3.08,3.08,0,0,0-.31-1.65,1.36,1.36,0,0,0-1.17-.44,3.93,3.93,0,0,0-1.06.15,8,8,0,0,0-1,.34l-.3-1.19a7.38,7.38,0,0,1,1.27-.4,6.84,6.84,0,0,1,1.42-.17,2.57,2.57,0,0,1,2,.74,3.58,3.58,0,0,1,.64,2.38v5.88H66.88L66.74,371a2.64,2.64,0,0,1-1,1A2.48,2.48,0,0,1,64.5,372.38Zm.5-1.2a1.94,1.94,0,0,0,.88-.25,2.49,2.49,0,0,0,.76-.63v-2.23H65.33c-1,0-1.54.55-1.54,1.64S64.2,371.18,65,371.18Z"/><path d="M72.07,372.4a6.33,6.33,0,0,1-1.37-.16,3.22,3.22,0,0,1-1.08-.44l.34-1.21a4.17,4.17,0,0,0,2.18.57,1.43,1.43,0,0,0,1.07-.36,1.38,1.38,0,0,0,.36-1,1.32,1.32,0,0,0-.24-.85,1.56,1.56,0,0,0-.81-.48l-.76-.24a3,3,0,0,1-1.48-.89,2.29,2.29,0,0,1-.47-1.49,2.52,2.52,0,0,1,.78-1.92,2.81,2.81,0,0,1,2-.73,6.79,6.79,0,0,1,1.17.09,3.94,3.94,0,0,1,1,.34l-.28,1.15a4.33,4.33,0,0,0-.87-.25,4.59,4.59,0,0,0-.93-.09,1.68,1.68,0,0,0-1.13.35,1.3,1.3,0,0,0-.39,1,1.13,1.13,0,0,0,.24.75,1.94,1.94,0,0,0,.86.49l.57.19a3.43,3.43,0,0,1,1.65,1,2.46,2.46,0,0,1,.47,1.6,2.49,2.49,0,0,1-.77,1.94A3,3,0,0,1,72.07,372.4Z"/><path d="M79.59,372.31a2.27,2.27,0,0,1-1.81-.63,3.37,3.37,0,0,1-.53-2.14v-5H76v-1.09l.88-.05a.61.61,0,0,0,.43-.15.69.69,0,0,0,.13-.45l.14-1.95h1.19v2.53H81v1.16H78.73v5.1a1.89,1.89,0,0,0,.25,1.16,1.25,1.25,0,0,0,1,.3,4.32,4.32,0,0,0,.94-.12v1.14A4.43,4.43,0,0,1,79.59,372.31Z"/><path d="M87.56,372.38a2.06,2.06,0,0,1-1.63-.65,2.71,2.71,0,0,1-.58-1.86,2.8,2.8,0,0,1,.72-2.05,3,3,0,0,1,2.21-.73h1.41v-.55a3,3,0,0,0-.31-1.65,1.36,1.36,0,0,0-1.17-.44,4,4,0,0,0-1.06.15,8.53,8.53,0,0,0-1,.34l-.29-1.19a6.85,6.85,0,0,1,1.27-.4,6.76,6.76,0,0,1,1.42-.17,2.55,2.55,0,0,1,2,.74,3.58,3.58,0,0,1,.65,2.38v5.88H89.93L89.8,371a2.74,2.74,0,0,1-1,1A2.45,2.45,0,0,1,87.56,372.38Zm.49-1.2a1.94,1.94,0,0,0,.88-.25,2.37,2.37,0,0,0,.76-.63v-2.23H88.38c-1,0-1.53.55-1.53,1.64S87.25,371.18,88.05,371.18Z"/><path d="M93.26,372.18V363.4h1.23l.13,1.24a2.71,2.71,0,0,1,1-1.08,2.57,2.57,0,0,1,1.37-.38,2,2,0,0,1,1.66.75,3.5,3.5,0,0,1,.58,2.18v6.07h-1.5v-5.95a2.27,2.27,0,0,0-.32-1.36,1.12,1.12,0,0,0-1-.42,2.14,2.14,0,0,0-.9.23,2.17,2.17,0,0,0-.77.58v6.92Z"/><path d="M103.59,372.4q-2.66,0-2.66-4.6t2.69-4.62a2.44,2.44,0,0,1,2.14,1.17V359.9h1.5v12.28H106l-.12-1.07A2.49,2.49,0,0,1,103.59,372.4Zm.57-1.26a2,2,0,0,0,.87-.22,2.21,2.21,0,0,0,.73-.57v-5.1a2.21,2.21,0,0,0-.73-.57,2,2,0,0,0-.87-.23,1.36,1.36,0,0,0-1.3.8,6.2,6.2,0,0,0-.39,2.57,6.1,6.1,0,0,0,.39,2.54A1.36,1.36,0,0,0,104.16,371.14Z"/><path d="M43.11,391.13V379.52H44.8l4.12,9.18v-9.18h1.43v11.61H48.66L44.54,382v9.18Z"/><path d="M55.53,391.37c-2.18,0-3.26-1.54-3.26-4.61s1.08-4.62,3.26-4.62,3.25,1.54,3.25,4.62S57.7,391.37,55.53,391.37Zm0-1.24a1.36,1.36,0,0,0,1.31-.8,8.29,8.29,0,0,0,0-5.15,1.47,1.47,0,0,0-2.62,0,8.1,8.1,0,0,0,0,5.15A1.36,1.36,0,0,0,55.53,390.13Z"/><path d="M60.53,391.13v-8.77h1.25l.15,1.43a2.66,2.66,0,0,1,2.53-1.53h.18v1.43h-.16a4.17,4.17,0,0,0-1.42.21,2.74,2.74,0,0,0-1,.7v6.53Z"/><path d="M69.24,391.27a2.24,2.24,0,0,1-1.81-.63,3.3,3.3,0,0,1-.54-2.14v-5H65.6v-1.09l.88-.05a.61.61,0,0,0,.43-.15.78.78,0,0,0,.14-.46l.13-1.94h1.19v2.53h2.3v1.16h-2.3v5.1a2,2,0,0,0,.25,1.16,1.25,1.25,0,0,0,1,.3,4.32,4.32,0,0,0,.94-.12v1.14A4.76,4.76,0,0,1,69.24,391.27Z"/><path d="M72.14,391.13V378.86h1.5v4.52a2.44,2.44,0,0,1,2.2-1.24,2,2,0,0,1,1.67.75,3.54,3.54,0,0,1,.57,2.18v6.06h-1.5v-5.94a2.2,2.2,0,0,0-.32-1.36,1.12,1.12,0,0,0-1-.42,2.36,2.36,0,0,0-1.67.81v6.91Z"/><path d="M82.65,391.13l3.08-11.61h2l3,11.61H89.22l-.73-3H84.92l-.72,3Zm2.58-4.24h3l-1.48-6.13Z"/><path d="M92.46,391.13v-7.61H91.12v-1.16h1.34v-.83a3.11,3.11,0,0,1,.63-2.16,2.47,2.47,0,0,1,1.9-.68l.63,0a2.13,2.13,0,0,1,.56.1V380a3,3,0,0,0-.47-.07l-.4,0a1.39,1.39,0,0,0-1.08.33,2.26,2.26,0,0,0-.29,1.39v.76h2.24v1.16H94v7.61Z"/><path d="M97.53,391.13v-8.77h1.24l.16,1.43a2.65,2.65,0,0,1,2.53-1.53h.17v1.43h-.15a4.23,4.23,0,0,0-1.43.21,2.78,2.78,0,0,0-1,.7v6.53Z"/><path d="M103.73,391.13v-7.61h-1v-1.16h2.5v8.77Zm-.1-10.61v-1.71h1.58v1.71Z"/><path d="M110.22,391.36c-2.18,0-3.27-1.53-3.27-4.57a5.86,5.86,0,0,1,.87-3.45,2.89,2.89,0,0,1,2.49-1.2,4.21,4.21,0,0,1,2,.48l-.36,1.17a3.11,3.11,0,0,0-1.45-.38,1.64,1.64,0,0,0-1.5.83,5.31,5.31,0,0,0-.48,2.58,5,5,0,0,0,.47,2.47,1.58,1.58,0,0,0,1.48.77,3.49,3.49,0,0,0,1.55-.39l.31,1.14a4.48,4.48,0,0,1-1,.4A4,4,0,0,1,110.22,391.36Z"/><path d="M115.59,391.34a2.09,2.09,0,0,1-1.63-.65,3.3,3.3,0,0,1,.15-3.91,3,3,0,0,1,2.2-.73h1.42v-.55a3.15,3.15,0,0,0-.31-1.66,1.39,1.39,0,0,0-1.17-.43,3.93,3.93,0,0,0-1.06.15,10,10,0,0,0-1,.33l-.29-1.18a7.32,7.32,0,0,1,2.68-.57,2.54,2.54,0,0,1,2,.74,3.56,3.56,0,0,1,.65,2.38v5.87H118l-.14-1.15a2.71,2.71,0,0,1-1,1A2.48,2.48,0,0,1,115.59,391.34Zm.5-1.21a1.82,1.82,0,0,0,.88-.25,2.23,2.23,0,0,0,.76-.63V387h-1.31c-1,0-1.54.55-1.54,1.64S115.29,390.13,116.09,390.13Z"/><path d="M173.22,353.46a7.48,7.48,0,0,1-1.6-.17,6,6,0,0,1-1.37-.49l.43-1.22a5.87,5.87,0,0,0,2.49.57,2.06,2.06,0,0,0,1.51-.53,2,2,0,0,0,.54-1.49,2.37,2.37,0,0,0-.31-1.31,2.06,2.06,0,0,0-1.12-.7l-.9-.28a3.27,3.27,0,0,1-1.77-1.11,3.38,3.38,0,0,1-.52-2,3.16,3.16,0,0,1,1-2.44,3.49,3.49,0,0,1,2.51-.9,5,5,0,0,1,1.31.16,6.15,6.15,0,0,1,1.12.39l-.38,1.17a8.71,8.71,0,0,0-1-.31,4.58,4.58,0,0,0-1-.1,2,2,0,0,0-1.48.51,1.93,1.93,0,0,0-.54,1.47,2,2,0,0,0,.3,1.2,2.27,2.27,0,0,0,1.08.65l.74.24a5.2,5.2,0,0,1,1.53.73,2.36,2.36,0,0,1,.79,1,4.69,4.69,0,0,1,.23,1.57,3.21,3.21,0,0,1-.95,2.47A3.55,3.55,0,0,1,173.22,353.46Z"/><path d="M180.51,353.44a1.92,1.92,0,0,1-1.63-.75,3.54,3.54,0,0,1-.57-2.18v-6.06h1.5v5.94a2.36,2.36,0,0,0,.3,1.35,1.05,1.05,0,0,0,.94.43,1.93,1.93,0,0,0,.89-.23,2.29,2.29,0,0,0,.75-.58v-6.91h1.49v8.77H183l-.14-1.24a2.72,2.72,0,0,1-.95,1.08A2.51,2.51,0,0,1,180.51,353.44Z"/><path d="M190,353.44a2.48,2.48,0,0,1-2.29-1.29l-.12,1.07h-1.26V341h1.5v4.44a2.44,2.44,0,0,1,2.14-1.17q2.69,0,2.68,4.62T190,353.44Zm-.57-1.26a1.34,1.34,0,0,0,1.29-.78,5.88,5.88,0,0,0,.4-2.54,6,6,0,0,0-.4-2.57,1.33,1.33,0,0,0-1.29-.79,1.93,1.93,0,0,0-.86.22,2.25,2.25,0,0,0-.74.57v5.1a2.25,2.25,0,0,0,.74.57A1.93,1.93,0,0,0,189.39,352.18Z"/><path d="M159.15,372.42a7,7,0,0,1-1.61-.18,5.6,5.6,0,0,1-1.36-.48l.43-1.22a5.87,5.87,0,0,0,2.49.57,2.06,2.06,0,0,0,1.51-.53,2,2,0,0,0,.54-1.49,2.37,2.37,0,0,0-.31-1.31,2.13,2.13,0,0,0-1.12-.71l-.9-.27a2.82,2.82,0,0,1-2.29-3.14,3.19,3.19,0,0,1,.95-2.45,3.53,3.53,0,0,1,2.51-.89,5.41,5.41,0,0,1,1.31.15,7,7,0,0,1,1.12.4L162,362a7.11,7.11,0,0,0-1-.31,4.58,4.58,0,0,0-1-.1,2.07,2.07,0,0,0-1.49.51,2.4,2.4,0,0,0-.23,2.67,2.19,2.19,0,0,0,1.08.64l.74.25a5.2,5.2,0,0,1,1.53.73,2.36,2.36,0,0,1,.79,1,4.65,4.65,0,0,1,.23,1.57,3.26,3.26,0,0,1-1,2.47A3.59,3.59,0,0,1,159.15,372.42Z"/><path d="M166.29,372.38a2.09,2.09,0,0,1-1.63-.65,3.26,3.26,0,0,1,.15-3.91,3,3,0,0,1,2.2-.73h1.42v-.55a3.08,3.08,0,0,0-.31-1.65,1.37,1.37,0,0,0-1.18-.44,4,4,0,0,0-1.06.15,8.36,8.36,0,0,0-1,.34l-.3-1.19a7.38,7.38,0,0,1,1.27-.4,6.84,6.84,0,0,1,1.42-.17,2.57,2.57,0,0,1,2,.74,3.58,3.58,0,0,1,.64,2.38v5.88h-1.27l-.14-1.16a2.59,2.59,0,0,1-1,1A2.42,2.42,0,0,1,166.29,372.38Zm.5-1.2a2,2,0,0,0,.88-.25,2.49,2.49,0,0,0,.76-.63v-2.23h-1.31c-1,0-1.54.55-1.54,1.64S166,371.18,166.79,371.18Z"/><path d="M172,372.18V359.9h1.5v4.52a2.44,2.44,0,0,1,2.2-1.24,2,2,0,0,1,1.67.75,3.56,3.56,0,0,1,.57,2.18v6.07h-1.5v-5.95a2.27,2.27,0,0,0-.31-1.36,1.15,1.15,0,0,0-1-.42,2.36,2.36,0,0,0-1.67.81v6.92Z"/><path d="M181.72,372.38a2.05,2.05,0,0,1-1.62-.65,2.71,2.71,0,0,1-.58-1.86,2.8,2.8,0,0,1,.72-2.05,3,3,0,0,1,2.21-.73h1.41v-.55a3,3,0,0,0-.31-1.65,1.36,1.36,0,0,0-1.17-.44,3.93,3.93,0,0,0-1.06.15,8.53,8.53,0,0,0-1,.34l-.29-1.19a6.85,6.85,0,0,1,1.27-.4,6.76,6.76,0,0,1,1.42-.17,2.55,2.55,0,0,1,2,.74,3.58,3.58,0,0,1,.65,2.38v5.88H184.1L184,371a2.74,2.74,0,0,1-1,1A2.46,2.46,0,0,1,181.72,372.38Zm.5-1.2a1.94,1.94,0,0,0,.88-.25,2.37,2.37,0,0,0,.76-.63v-2.23h-1.31c-1,0-1.53.55-1.53,1.64S181.42,371.18,182.22,371.18Z"/><path d="M187.43,372.18V363.4h1.24l.16,1.43a2.66,2.66,0,0,1,2.53-1.53h.17v1.43h-.15A3.92,3.92,0,0,0,190,365a2.6,2.6,0,0,0-1,.69v6.54Z"/><path d="M194.7,372.38a2.09,2.09,0,0,1-1.63-.65,2.76,2.76,0,0,1-.57-1.86,2.8,2.8,0,0,1,.72-2.05,3,3,0,0,1,2.21-.73h1.41v-.55a3,3,0,0,0-.31-1.65,1.36,1.36,0,0,0-1.17-.44,3.93,3.93,0,0,0-1.06.15,8.53,8.53,0,0,0-1,.34l-.29-1.19a7,7,0,0,1,1.26-.4,6.85,6.85,0,0,1,1.43-.17,2.56,2.56,0,0,1,2,.74,3.58,3.58,0,0,1,.65,2.38v5.88h-1.28l-.14-1.16a2.64,2.64,0,0,1-1,1A2.46,2.46,0,0,1,194.7,372.38Zm.5-1.2a1.94,1.94,0,0,0,.88-.25,2.37,2.37,0,0,0,.76-.63v-2.23h-1.31c-1,0-1.53.55-1.53,1.64S194.4,371.18,195.2,371.18Z"/><path d="M200.41,372.18V363.4h1.22l.14,1.24a2.64,2.64,0,0,1,1-1.08,2.54,2.54,0,0,1,1.37-.38,2,2,0,0,1,1.66.75,3.56,3.56,0,0,1,.58,2.18v6.07h-1.5v-5.95a2.27,2.27,0,0,0-.32-1.36,1.12,1.12,0,0,0-1-.42,2.11,2.11,0,0,0-.9.23,2.17,2.17,0,0,0-.77.58v6.92Z"/><path d="M162.87,391.13,166,379.52h2l3,11.61h-1.56l-.73-3h-3.57l-.72,3Zm2.58-4.24h3l-1.48-6.13Z"/><path d="M172.68,391.13v-7.61h-1.34v-1.16h1.34v-.83a3.11,3.11,0,0,1,.63-2.16,2.47,2.47,0,0,1,1.9-.68l.63,0a2.13,2.13,0,0,1,.56.1V380a3,3,0,0,0-.47-.07l-.41,0a1.38,1.38,0,0,0-1.07.33,2.26,2.26,0,0,0-.29,1.39v.76h2.24v1.16h-2.22v7.61Z"/><path d="M177.75,391.13v-8.77H179l.16,1.43a2.65,2.65,0,0,1,2.53-1.53h.17v1.43h-.15a4.23,4.23,0,0,0-1.43.21,2.78,2.78,0,0,0-1,.7v6.53Z"/><path d="M184,391.13v-7.61h-1v-1.16h2.5v8.77Zm-.1-10.61v-1.71h1.58v1.71Z"/><path d="M190.44,391.36c-2.18,0-3.27-1.53-3.27-4.57a5.86,5.86,0,0,1,.87-3.45,2.89,2.89,0,0,1,2.49-1.2,4.21,4.21,0,0,1,2,.48l-.36,1.17a3.11,3.11,0,0,0-1.45-.38,1.64,1.64,0,0,0-1.5.83,5.31,5.31,0,0,0-.48,2.58,5,5,0,0,0,.47,2.47,1.58,1.58,0,0,0,1.48.77,3.49,3.49,0,0,0,1.55-.39l.31,1.14a4.48,4.48,0,0,1-1,.4A4,4,0,0,1,190.44,391.36Z"/><path d="M195.81,391.34a2.09,2.09,0,0,1-1.63-.65,3.3,3.3,0,0,1,.15-3.91,3,3,0,0,1,2.2-.73H198v-.55a3.15,3.15,0,0,0-.31-1.66,1.39,1.39,0,0,0-1.17-.43,3.93,3.93,0,0,0-1.06.15,10,10,0,0,0-1,.33l-.29-1.18a7.32,7.32,0,0,1,2.68-.57,2.54,2.54,0,0,1,2,.74,3.56,3.56,0,0,1,.65,2.38v5.87h-1.28l-.14-1.15a2.71,2.71,0,0,1-1,1A2.48,2.48,0,0,1,195.81,391.34Zm.5-1.21a1.82,1.82,0,0,0,.88-.25,2.23,2.23,0,0,0,.76-.63V387h-1.31c-1,0-1.54.55-1.54,1.64S195.51,390.13,196.31,390.13Z"/><path d="M265.18,353.22V341.6h1.55v10.34h3.95v1.28Z"/><path d="M274.26,353.42a2.05,2.05,0,0,1-1.63-.65,2.76,2.76,0,0,1-.58-1.86,2.72,2.72,0,0,1,.73-2,3,3,0,0,1,2.2-.74h1.42v-.55a3.1,3.1,0,0,0-.31-1.65,1.37,1.37,0,0,0-1.18-.43,4.48,4.48,0,0,0-1.06.14,8.36,8.36,0,0,0-1,.34l-.3-1.19a7.38,7.38,0,0,1,1.27-.4,6.84,6.84,0,0,1,1.42-.17,2.57,2.57,0,0,1,2,.74,3.6,3.6,0,0,1,.64,2.38v5.88h-1.27l-.14-1.16a2.59,2.59,0,0,1-1,1A2.42,2.42,0,0,1,274.26,353.42Zm.5-1.2a2,2,0,0,0,.88-.25,2.49,2.49,0,0,0,.76-.63v-2.22h-1.31c-1,0-1.54.54-1.54,1.63S274,352.22,274.76,352.22Z"/><path d="M282.76,353.36a2.27,2.27,0,0,1-1.81-.63,3.4,3.4,0,0,1-.53-2.15v-5h-1.29v-1.09l.88-.05a.66.66,0,0,0,.43-.14.81.81,0,0,0,.14-.46l.13-1.95h1.19v2.54h2.3v1.15h-2.3v5.1a1.94,1.94,0,0,0,.25,1.16,1.21,1.21,0,0,0,1,.31,4.32,4.32,0,0,0,.94-.12v1.13A4.41,4.41,0,0,1,282.76,353.36Z"/><path d="M286.34,353.22V345.6h-1v-1.15h2.5v8.77Zm-.1-10.62v-1.71h1.59v1.71Z"/><path d="M289.91,353.22v-8.77h1.23l.14,1.24a2.65,2.65,0,0,1,1-1.09,2.57,2.57,0,0,1,1.37-.38,2,2,0,0,1,1.66.75,3.5,3.5,0,0,1,.58,2.18v6.07h-1.5v-6a2.29,2.29,0,0,0-.32-1.36,1.11,1.11,0,0,0-1-.41,2.13,2.13,0,0,0-.91.22,2.2,2.2,0,0,0-.77.59v6.91Z"/><path d="M239.58,372.18l3.08-11.62h2l3,11.62h-1.57l-.72-3h-3.57l-.72,3Zm2.58-4.24h3l-1.49-6.14Z"/><path d="M249.21,372.18V363.4h1.22l.16,1.23a2.76,2.76,0,0,1,.89-1.08,2.24,2.24,0,0,1,1.28-.37,2.09,2.09,0,0,1,1.22.34,2,2,0,0,1,.74,1.11,2.61,2.61,0,0,1,.95-1.07,2.44,2.44,0,0,1,1.31-.38,2,2,0,0,1,1.6.72,3.8,3.8,0,0,1,.57,2.33v5.95h-1.5v-5.85a2.67,2.67,0,0,0-.3-1.5,1.06,1.06,0,0,0-.9-.39,1.65,1.65,0,0,0-.87.25,2.12,2.12,0,0,0-.7.63,8.08,8.08,0,0,1,.05.89v6h-1.5v-5.85a2.67,2.67,0,0,0-.3-1.5,1.06,1.06,0,0,0-.9-.39,1.66,1.66,0,0,0-.82.22,2.24,2.24,0,0,0-.7.6v6.92Z"/><path d="M264.34,372.4a3.14,3.14,0,0,1-2.64-1.09,5.67,5.67,0,0,1-.84-3.44,6.09,6.09,0,0,1,.83-3.48,2.71,2.71,0,0,1,2.37-1.21q3,0,3,4.53v.57h-4.76a3.84,3.84,0,0,0,.53,2.2,1.86,1.86,0,0,0,1.59.64,3.7,3.7,0,0,0,1-.14,4.56,4.56,0,0,0,1-.42l.41,1.13a4.91,4.91,0,0,1-1.21.52A4.84,4.84,0,0,1,264.34,372.4Zm-.3-8a1.35,1.35,0,0,0-1.23.69,4.57,4.57,0,0,0-.47,2.15h3.26a4.71,4.71,0,0,0-.38-2.16A1.26,1.26,0,0,0,264,364.39Z"/><path d="M268.77,372.18V363.4H270l.16,1.43a2.66,2.66,0,0,1,2.53-1.53h.18v1.43h-.16a3.92,3.92,0,0,0-1.42.22,2.6,2.6,0,0,0-1,.69v6.54Z"/><path d="M275,372.18v-7.62h-1V363.4h2.5v8.78Zm-.1-10.62v-1.71h1.59v1.71Z"/><path d="M281.47,372.4q-3.29,0-3.28-4.57a5.81,5.81,0,0,1,.87-3.44,2.87,2.87,0,0,1,2.49-1.21,4.25,4.25,0,0,1,2,.48l-.36,1.17a3.17,3.17,0,0,0-1.45-.38,1.62,1.62,0,0,0-1.5.83,5.33,5.33,0,0,0-.48,2.59,5,5,0,0,0,.46,2.46,1.6,1.6,0,0,0,1.48.78,3.47,3.47,0,0,0,1.55-.4l.31,1.14a3.73,3.73,0,0,1-1,.4A4,4,0,0,1,281.47,372.4Z"/><path d="M286.84,372.38a2.06,2.06,0,0,1-1.63-.65,2.71,2.71,0,0,1-.58-1.86,2.8,2.8,0,0,1,.72-2.05,3,3,0,0,1,2.21-.73H289v-.55a3,3,0,0,0-.31-1.65,1.36,1.36,0,0,0-1.17-.44,4,4,0,0,0-1.06.15,8.53,8.53,0,0,0-1,.34l-.29-1.19a6.85,6.85,0,0,1,1.27-.4,6.76,6.76,0,0,1,1.42-.17,2.55,2.55,0,0,1,2,.74,3.58,3.58,0,0,1,.65,2.38v5.88h-1.28l-.13-1.16a2.74,2.74,0,0,1-1,1A2.45,2.45,0,0,1,286.84,372.38Zm.49-1.2a1.94,1.94,0,0,0,.88-.25,2.37,2.37,0,0,0,.76-.63v-2.23h-1.31c-1,0-1.53.55-1.53,1.64S286.53,371.18,287.33,371.18Z"/><path d="M297.62,372.38a2.09,2.09,0,0,1-1.63-.65,2.76,2.76,0,0,1-.57-1.86,2.8,2.8,0,0,1,.72-2.05,3,3,0,0,1,2.21-.73h1.41v-.55a3,3,0,0,0-.31-1.65,1.36,1.36,0,0,0-1.17-.44,3.93,3.93,0,0,0-1.06.15,8.53,8.53,0,0,0-1,.34l-.29-1.19a7,7,0,0,1,1.26-.4,6.85,6.85,0,0,1,1.43-.17,2.56,2.56,0,0,1,2,.74,3.58,3.58,0,0,1,.65,2.38v5.88H300l-.14-1.16a2.64,2.64,0,0,1-1,1A2.46,2.46,0,0,1,297.62,372.38Zm.5-1.2a1.94,1.94,0,0,0,.88-.25,2.37,2.37,0,0,0,.76-.63v-2.23h-1.31c-1,0-1.53.55-1.53,1.64S297.32,371.18,298.12,371.18Z"/><path d="M303.33,372.18V363.4h1.22l.14,1.24a2.64,2.64,0,0,1,1-1.08,2.54,2.54,0,0,1,1.37-.38,2,2,0,0,1,1.66.75,3.56,3.56,0,0,1,.58,2.18v6.07h-1.5v-5.95a2.27,2.27,0,0,0-.32-1.36,1.12,1.12,0,0,0-1-.42,2.11,2.11,0,0,0-.9.23,2.17,2.17,0,0,0-.77.58v6.92Z"/><path d="M313.65,372.4c-1.76,0-2.65-1.53-2.65-4.6s.9-4.62,2.69-4.62a2.44,2.44,0,0,1,2.14,1.17V359.9h1.5v12.28h-1.26l-.12-1.07A2.5,2.5,0,0,1,313.65,372.4Zm.57-1.26a1.93,1.93,0,0,0,.87-.22,2.15,2.15,0,0,0,.74-.57v-5.1a2.15,2.15,0,0,0-.74-.57,2,2,0,0,0-.87-.23,1.36,1.36,0,0,0-1.29.8,6.17,6.17,0,0,0-.4,2.57,6.07,6.07,0,0,0,.4,2.54A1.36,1.36,0,0,0,314.22,371.14Z"/><path d="M253.23,391.37c-2.81,0-4.22-1.95-4.22-5.87a8.08,8.08,0,0,1,1.11-4.6,3.76,3.76,0,0,1,3.32-1.62,4.54,4.54,0,0,1,2.12.46l-.43,1.17a4.07,4.07,0,0,0-1.64-.32,2.35,2.35,0,0,0-2.22,1.2,7.89,7.89,0,0,0-.67,3.71,7,7,0,0,0,.66,3.47,2.26,2.26,0,0,0,2.09,1.09,5.36,5.36,0,0,0,1.83-.37l.4,1.18a4.68,4.68,0,0,1-1.08.37A6.15,6.15,0,0,1,253.23,391.37Z"/><path d="M258.89,391.34a2.09,2.09,0,0,1-1.63-.65,3.3,3.3,0,0,1,.15-3.91,3,3,0,0,1,2.21-.73H261v-.55a3,3,0,0,0-.31-1.66,1.39,1.39,0,0,0-1.17-.43,3.93,3.93,0,0,0-1.06.15,10,10,0,0,0-1,.33l-.29-1.18a7.32,7.32,0,0,1,2.68-.57,2.54,2.54,0,0,1,2,.74,3.56,3.56,0,0,1,.65,2.38v5.87h-1.28l-.14-1.15a2.71,2.71,0,0,1-1,1A2.48,2.48,0,0,1,258.89,391.34Zm.5-1.21a1.82,1.82,0,0,0,.88-.25,2.23,2.23,0,0,0,.76-.63V387h-1.31c-1,0-1.53.55-1.53,1.64S258.59,390.13,259.39,390.13Z"/><path d="M264.6,391.13v-8.77h1.24l.16,1.43a2.65,2.65,0,0,1,2.53-1.53h.17v1.43h-.15a4.23,4.23,0,0,0-1.43.21,2.78,2.78,0,0,0-1,.7v6.53Z"/><path d="M270.8,391.13v-7.61h-1v-1.16h2.5v8.77Zm-.1-10.61v-1.71h1.58v1.71Z"/><path d="M278,391.36a2.48,2.48,0,0,1-2.29-1.3l-.12,1.07h-1.26V378.86h1.5v4.45a2.44,2.44,0,0,1,2.14-1.17q2.69,0,2.69,4.62C280.7,389.82,279.81,391.36,278,391.36Zm-.57-1.26a1.35,1.35,0,0,0,1.3-.79,6.07,6.07,0,0,0,.39-2.54,6.23,6.23,0,0,0-.39-2.57,1.37,1.37,0,0,0-1.3-.79,2,2,0,0,0-.86.23,2.49,2.49,0,0,0-.74.56v5.11a2.2,2.2,0,0,0,.74.56A2,2,0,0,0,277.47,390.1Z"/><path d="M286.15,391.36a2.48,2.48,0,0,1-2.29-1.3l-.12,1.07h-1.26V378.86H284v4.45a2.44,2.44,0,0,1,2.14-1.17q2.69,0,2.69,4.62C288.81,389.82,287.92,391.36,286.15,391.36Zm-.57-1.26a1.35,1.35,0,0,0,1.3-.79,6.07,6.07,0,0,0,.39-2.54,6.23,6.23,0,0,0-.39-2.57,1.37,1.37,0,0,0-1.3-.79,2,2,0,0,0-.86.23,2.49,2.49,0,0,0-.74.56v5.11a2.2,2.2,0,0,0,.74.56A2,2,0,0,0,285.58,390.1Z"/><path d="M293.72,391.36a3.12,3.12,0,0,1-2.64-1.1,5.65,5.65,0,0,1-.85-3.44,6.07,6.07,0,0,1,.84-3.47,2.71,2.71,0,0,1,2.37-1.21q3,0,3,4.53v.57H291.7a4,4,0,0,0,.52,2.2,1.88,1.88,0,0,0,1.6.64,4.14,4.14,0,0,0,1-.14,4.52,4.52,0,0,0,1-.43l.41,1.14a4.82,4.82,0,0,1-1.22.52A5.12,5.12,0,0,1,293.72,391.36Zm-.3-8a1.36,1.36,0,0,0-1.23.7,4.57,4.57,0,0,0-.47,2.15H295a4.58,4.58,0,0,0-.38-2.16A1.24,1.24,0,0,0,293.42,383.34Z"/><path d="M299.93,391.34a2.07,2.07,0,0,1-1.63-.65,2.72,2.72,0,0,1-.58-1.87,2.75,2.75,0,0,1,.73-2,3,3,0,0,1,2.2-.73h1.41v-.55a3,3,0,0,0-.31-1.66,1.36,1.36,0,0,0-1.17-.43,4,4,0,0,0-1.06.15c-.36.1-.7.21-1,.33l-.29-1.18a6.37,6.37,0,0,1,1.27-.4,6.16,6.16,0,0,1,1.42-.17,2.52,2.52,0,0,1,2,.74,3.51,3.51,0,0,1,.65,2.38v5.87h-1.27l-.14-1.15a2.74,2.74,0,0,1-1,1A2.42,2.42,0,0,1,299.93,391.34Zm.5-1.21a1.85,1.85,0,0,0,.88-.25,2.11,2.11,0,0,0,.75-.63V387h-1.31c-1,0-1.53.55-1.53,1.64S299.62,390.13,300.43,390.13Z"/><path d="M305.64,391.13v-8.77h1.22l.14,1.24a2.62,2.62,0,0,1,1-1.08,2.48,2.48,0,0,1,1.37-.38,2,2,0,0,1,1.66.75,3.48,3.48,0,0,1,.58,2.18v6.06h-1.5v-5.94a2.2,2.2,0,0,0-.32-1.36,1.12,1.12,0,0,0-.95-.42,2.15,2.15,0,0,0-.91.23,2.27,2.27,0,0,0-.77.58v6.91Z"/><path d="M362.4,353.22V341.6h1.69l4.12,9.19V341.6h1.43v11.62H368L363.83,344v9.19Z"/><path d="M374.81,353.46q-3.26,0-3.25-4.62t3.25-4.62c2.18,0,3.26,1.54,3.26,4.62S377,353.46,374.81,353.46Zm0-1.24a1.38,1.38,0,0,0,1.32-.8,8.32,8.32,0,0,0,0-5.16,1.38,1.38,0,0,0-1.32-.8,1.39,1.39,0,0,0-1.31.8,8.32,8.32,0,0,0,0,5.16A1.39,1.39,0,0,0,374.81,352.22Z"/><path d="M379.82,353.22v-8.77h1.24l.16,1.43a2.65,2.65,0,0,1,2.53-1.54h.18v1.43h-.16a3.92,3.92,0,0,0-1.42.22,2.53,2.53,0,0,0-1,.7v6.53Z"/><path d="M388.52,353.36a2.27,2.27,0,0,1-1.81-.63,3.4,3.4,0,0,1-.53-2.15v-5h-1.29v-1.09l.88-.05a.66.66,0,0,0,.43-.14.81.81,0,0,0,.14-.46l.13-1.95h1.19v2.54H390v1.15h-2.29v5.1a1.94,1.94,0,0,0,.25,1.16,1.21,1.21,0,0,0,1,.31,4.32,4.32,0,0,0,.94-.12v1.13A4.41,4.41,0,0,1,388.52,353.36Z"/><path d="M391.43,353.22V341h1.5v4.51a2.44,2.44,0,0,1,2.2-1.24,2,2,0,0,1,1.66.75,3.5,3.5,0,0,1,.58,2.18v6.07h-1.5v-6a2.21,2.21,0,0,0-.32-1.36,1.11,1.11,0,0,0-.95-.41,2.13,2.13,0,0,0-.91.22,2.16,2.16,0,0,0-.76.59v6.91Z"/><path d="M354,372.18l3.09-11.62h2l3,11.62h-1.57l-.72-3h-3.57l-.73,3Zm2.59-4.24h3l-1.48-6.14Z"/><path d="M363.61,372.18V363.4h1.23l.15,1.23a2.69,2.69,0,0,1,.9-1.08,2.21,2.21,0,0,1,1.28-.37,2.09,2.09,0,0,1,1.22.34,2,2,0,0,1,.74,1.11,2.61,2.61,0,0,1,.95-1.07,2.44,2.44,0,0,1,1.31-.38,1.91,1.91,0,0,1,1.59.72,3.73,3.73,0,0,1,.58,2.33v5.95h-1.5v-5.85a2.67,2.67,0,0,0-.3-1.5,1.07,1.07,0,0,0-.91-.39,1.65,1.65,0,0,0-.87.25,2.22,2.22,0,0,0-.7.63,6.13,6.13,0,0,1,.06.89v6h-1.5v-5.85a2.67,2.67,0,0,0-.3-1.5,1.08,1.08,0,0,0-.91-.39,1.68,1.68,0,0,0-.82.22,2.35,2.35,0,0,0-.7.6v6.92Z"/><path d="M378.74,372.4a3.13,3.13,0,0,1-2.63-1.09,5.6,5.6,0,0,1-.85-3.44,6.09,6.09,0,0,1,.84-3.48,2.7,2.7,0,0,1,2.37-1.21q3,0,3,4.53v.57h-4.75a3.93,3.93,0,0,0,.52,2.2,1.88,1.88,0,0,0,1.6.64,3.7,3.7,0,0,0,1-.14,4.69,4.69,0,0,0,1-.42l.42,1.13a4.82,4.82,0,0,1-1.22.52A4.73,4.73,0,0,1,378.74,372.4Zm-.29-8a1.35,1.35,0,0,0-1.23.69,4.68,4.68,0,0,0-.48,2.15H380a4.71,4.71,0,0,0-.38-2.16A1.23,1.23,0,0,0,378.45,364.39Z"/><path d="M383.18,372.18V363.4h1.24l.16,1.43a2.65,2.65,0,0,1,2.53-1.53h.17v1.43h-.15a4,4,0,0,0-1.43.22,2.64,2.64,0,0,0-1,.69v6.54Z"/><path d="M389.38,372.18v-7.62h-1V363.4h2.49v8.78Zm-.1-10.62v-1.71h1.58v1.71Z"/><path d="M395.87,372.4q-3.27,0-3.27-4.57a5.81,5.81,0,0,1,.87-3.44,2.87,2.87,0,0,1,2.49-1.21,4.21,4.21,0,0,1,2,.48l-.36,1.17a3.11,3.11,0,0,0-1.45-.38,1.64,1.64,0,0,0-1.5.83,5.33,5.33,0,0,0-.48,2.59,5,5,0,0,0,.47,2.46,1.59,1.59,0,0,0,1.48.78,3.54,3.54,0,0,0,1.55-.4l.31,1.14a4.32,4.32,0,0,1-2.07.55Z"/><path d="M401.24,372.38a2.09,2.09,0,0,1-1.63-.65,2.76,2.76,0,0,1-.58-1.86,2.8,2.8,0,0,1,.73-2.05,3,3,0,0,1,2.2-.73h1.42v-.55a3.08,3.08,0,0,0-.31-1.65,1.36,1.36,0,0,0-1.17-.44,3.93,3.93,0,0,0-1.06.15,8,8,0,0,0-1,.34l-.3-1.19a7.38,7.38,0,0,1,1.27-.4,6.84,6.84,0,0,1,1.42-.17,2.57,2.57,0,0,1,2,.74,3.58,3.58,0,0,1,.64,2.38v5.88h-1.27l-.14-1.16a2.64,2.64,0,0,1-1,1A2.48,2.48,0,0,1,401.24,372.38Zm.5-1.2a1.94,1.94,0,0,0,.88-.25,2.49,2.49,0,0,0,.76-.63v-2.23h-1.31c-1,0-1.54.55-1.54,1.64S400.94,371.18,401.74,371.18Z"/><path d="M449.34,353.46a7.57,7.57,0,0,1-1.61-.17,6.06,6.06,0,0,1-1.36-.49l.43-1.22a5.87,5.87,0,0,0,2.49.57,2.06,2.06,0,0,0,1.51-.53,2,2,0,0,0,.54-1.49,2.37,2.37,0,0,0-.31-1.31,2.06,2.06,0,0,0-1.12-.7l-.9-.28a3.27,3.27,0,0,1-1.77-1.11,3.38,3.38,0,0,1-.52-2,3.16,3.16,0,0,1,.95-2.44,3.49,3.49,0,0,1,2.51-.9,5,5,0,0,1,1.31.16,6.15,6.15,0,0,1,1.12.39l-.38,1.17a8.71,8.71,0,0,0-1-.31,4.58,4.58,0,0,0-1-.1,2.07,2.07,0,0,0-1.49.51,2.4,2.4,0,0,0-.23,2.67,2.27,2.27,0,0,0,1.08.65l.74.24a5.2,5.2,0,0,1,1.53.73,2.36,2.36,0,0,1,.79,1,4.69,4.69,0,0,1,.23,1.57,3.25,3.25,0,0,1-.95,2.47A3.55,3.55,0,0,1,449.34,353.46Z"/><path d="M457.52,353.46q-3.25,0-3.26-4.62t3.26-4.62q3.25,0,3.26,4.62T457.52,353.46Zm0-1.24a1.38,1.38,0,0,0,1.32-.8,8.32,8.32,0,0,0,0-5.16,1.48,1.48,0,0,0-2.63,0,8.32,8.32,0,0,0,0,5.16A1.38,1.38,0,0,0,457.52,352.22Z"/><path d="M464.66,353.44a1.92,1.92,0,0,1-1.63-.75,3.54,3.54,0,0,1-.57-2.18v-6.06H464v5.94a2.36,2.36,0,0,0,.3,1.35,1.05,1.05,0,0,0,.94.43,1.93,1.93,0,0,0,.89-.23,2.29,2.29,0,0,0,.75-.58v-6.91h1.49v8.77h-1.22L467,352a2.72,2.72,0,0,1-1,1.08A2.51,2.51,0,0,1,464.66,353.44Z"/><path d="M473.33,353.36a2.27,2.27,0,0,1-1.81-.63,3.4,3.4,0,0,1-.53-2.15v-5H469.7v-1.09l.87-.05a.67.67,0,0,0,.44-.14.74.74,0,0,0,.13-.46l.14-1.95h1.19v2.54h2.29v1.15h-2.29v5.1a1.87,1.87,0,0,0,.25,1.16,1.2,1.2,0,0,0,1,.31,4.33,4.33,0,0,0,.95-.12v1.13A4.46,4.46,0,0,1,473.33,353.36Z"/><path d="M476.23,353.22V341h1.5v4.51a2.47,2.47,0,0,1,2.21-1.24,2,2,0,0,1,1.66.75,3.5,3.5,0,0,1,.58,2.18v6.07h-1.5v-6a2.29,2.29,0,0,0-.32-1.36,1.11,1.11,0,0,0-.95-.41,2.13,2.13,0,0,0-.91.22,2.2,2.2,0,0,0-.77.59v6.91Z"/><path d="M486.75,353.22l3.08-11.62h2l3,11.62h-1.57l-.72-3H489l-.72,3Zm2.58-4.24h3l-1.49-6.14Z"/><path d="M498.5,353.44a5.85,5.85,0,0,1-1.38-.16,3.25,3.25,0,0,1-1.07-.44l.34-1.21a4.14,4.14,0,0,0,2.17.57,1.45,1.45,0,0,0,1.08-.36,1.38,1.38,0,0,0,.35-1,1.32,1.32,0,0,0-.23-.85,1.59,1.59,0,0,0-.82-.48l-.76-.24a3,3,0,0,1-1.47-.88,2.28,2.28,0,0,1-.47-1.5A2.55,2.55,0,0,1,497,345a2.89,2.89,0,0,1,2-.73,6,6,0,0,1,1.17.1,3.67,3.67,0,0,1,1,.33l-.28,1.16a4.79,4.79,0,0,0-.87-.26,4.62,4.62,0,0,0-.94-.09,1.62,1.62,0,0,0-1.12.36,1.27,1.27,0,0,0-.39,1,1.13,1.13,0,0,0,.24.75,1.8,1.8,0,0,0,.86.49l.57.19a3.52,3.52,0,0,1,1.65.95,2.88,2.88,0,0,1-.3,3.54A3,3,0,0,1,498.5,353.44Z"/><path d="M503.52,353.22V345.6h-1v-1.15H505v8.77Zm-.1-10.62v-1.71H505v1.71Z"/><path d="M508.82,353.42a2,2,0,0,1-1.63-.65,2.71,2.71,0,0,1-.58-1.86,2.76,2.76,0,0,1,.72-2,3,3,0,0,1,2.21-.74H511v-.55a3,3,0,0,0-.31-1.65,1.33,1.33,0,0,0-1.17-.43,4.41,4.41,0,0,0-1.06.14,8.53,8.53,0,0,0-1,.34l-.29-1.19a7.1,7.1,0,0,1,1.27-.4,6.76,6.76,0,0,1,1.42-.17,2.55,2.55,0,0,1,2,.74,3.6,3.6,0,0,1,.65,2.38v5.88h-1.28l-.13-1.16a2.66,2.66,0,0,1-1,1A2.45,2.45,0,0,1,508.82,353.42Zm.5-1.2a1.9,1.9,0,0,0,.87-.25,2.27,2.27,0,0,0,.76-.63v-2.22h-1.31c-1,0-1.53.54-1.53,1.63S508.51,352.22,509.32,352.22Z"/><path d="M544,353.22V341.6h5.81v1.28h-4.27v3.79h3.6v1.27h-3.6v4h4.32v1.28Z"/><path d="M553.63,353.44a1.92,1.92,0,0,1-1.63-.75,3.54,3.54,0,0,1-.57-2.18v-6.06h1.5v5.94a2.36,2.36,0,0,0,.3,1.35,1.05,1.05,0,0,0,.94.43,2,2,0,0,0,.89-.23,2.15,2.15,0,0,0,.74-.58v-6.91h1.5v8.77h-1.22l-.14-1.24a2.72,2.72,0,0,1-1,1.08A2.51,2.51,0,0,1,553.63,353.44Z"/><path d="M559.41,353.22v-8.77h1.24l.15,1.43a2.66,2.66,0,0,1,2.54-1.54h.17v1.43h-.16a4,4,0,0,0-1.42.22,2.56,2.56,0,0,0-1,.7v6.53Z"/><path d="M567.74,353.46q-3.25,0-3.26-4.62t3.26-4.62q3.25,0,3.26,4.62T567.74,353.46Zm0-1.24a1.38,1.38,0,0,0,1.32-.8,8.52,8.52,0,0,0,0-5.16,1.48,1.48,0,0,0-2.63,0,8.32,8.32,0,0,0,0,5.16A1.38,1.38,0,0,0,567.74,352.22Z"/><path d="M572.75,356.53V344.45H574l.14,1.15a2.68,2.68,0,0,1,1-1,2.43,2.43,0,0,1,1.31-.36q2.68,0,2.68,4.62t-2.65,4.6a2.52,2.52,0,0,1-2.17-1.1v4.19Zm3.1-4.35a1.36,1.36,0,0,0,1.29-.77,5.9,5.9,0,0,0,.4-2.55,6,6,0,0,0-.4-2.58,1.36,1.36,0,0,0-1.29-.78,1.93,1.93,0,0,0-.86.22,2.25,2.25,0,0,0-.74.57v5.1a2.25,2.25,0,0,0,.74.57A1.93,1.93,0,0,0,575.85,352.18Z"/><path d="M584,353.44a3.11,3.11,0,0,1-2.63-1.09,5.6,5.6,0,0,1-.85-3.44,6,6,0,0,1,.84-3.47,2.71,2.71,0,0,1,2.37-1.22q3,0,3,4.53v.57H582a3.83,3.83,0,0,0,.52,2.2,1.89,1.89,0,0,0,1.6.65,3.73,3.73,0,0,0,1-.15,4.69,4.69,0,0,0,1-.42l.42,1.14a4.81,4.81,0,0,1-1.22.51A4.73,4.73,0,0,1,584,353.44Zm-.29-8a1.34,1.34,0,0,0-1.23.7,4.63,4.63,0,0,0-.48,2.14h3.26a4.66,4.66,0,0,0-.38-2.15A1.24,1.24,0,0,0,583.69,345.43Z"/><path d="M593.46,353.42a2.05,2.05,0,0,1-1.63-.65,3.28,3.28,0,0,1,.15-3.9,3,3,0,0,1,2.21-.74h1.41v-.55a3,3,0,0,0-.31-1.65,1.36,1.36,0,0,0-1.17-.43,4.35,4.35,0,0,0-1.06.14,8.53,8.53,0,0,0-1,.34l-.29-1.19a7,7,0,0,1,1.26-.4,6.84,6.84,0,0,1,1.42-.17,2.57,2.57,0,0,1,2,.74,3.6,3.6,0,0,1,.65,2.38v5.88h-1.28l-.14-1.16a2.64,2.64,0,0,1-1,1A2.46,2.46,0,0,1,593.46,353.42Zm.5-1.2a1.94,1.94,0,0,0,.88-.25,2.49,2.49,0,0,0,.76-.63v-2.22h-1.31c-1,0-1.54.54-1.54,1.63S593.16,352.22,594,352.22Z"/><path d="M599.17,353.22v-8.77h1.22l.14,1.24a2.72,2.72,0,0,1,1-1.09,2.59,2.59,0,0,1,1.37-.38,2,2,0,0,1,1.67.75,3.56,3.56,0,0,1,.58,2.18v6.07h-1.5v-6a2.29,2.29,0,0,0-.32-1.36,1.14,1.14,0,0,0-1-.41,2.05,2.05,0,0,0-.9.22,2.11,2.11,0,0,0-.77.59v6.91Z"/><path d="M609.49,353.44q-2.65,0-2.65-4.6c0-3.08.89-4.62,2.69-4.62a2.42,2.42,0,0,1,2.13,1.17V341h1.5v12.27h-1.25l-.12-1.07A2.5,2.5,0,0,1,609.49,353.44Zm.57-1.26a1.93,1.93,0,0,0,.87-.22,2,2,0,0,0,.73-.57v-5.1a2,2,0,0,0-.73-.57,1.93,1.93,0,0,0-.87-.22,1.33,1.33,0,0,0-1.29.79,6,6,0,0,0-.4,2.57,5.88,5.88,0,0,0,.4,2.54A1.34,1.34,0,0,0,610.06,352.18Z"/><path d="M545.35,372.42c-2.82,0-4.22-2-4.22-5.88a8.08,8.08,0,0,1,1.11-4.6,3.76,3.76,0,0,1,3.32-1.62,4.57,4.57,0,0,1,2.12.46l-.44,1.17a4.19,4.19,0,0,0-1.63-.32,2.35,2.35,0,0,0-2.23,1.2,8,8,0,0,0-.67,3.71,6.85,6.85,0,0,0,.67,3.47,2.27,2.27,0,0,0,2.09,1.1,5.39,5.39,0,0,0,1.83-.38l.39,1.19a4.05,4.05,0,0,1-1.07.36A6.25,6.25,0,0,1,545.35,372.42Z"/><path d="M552.07,372.4a3.13,3.13,0,0,1-2.63-1.09,5.6,5.6,0,0,1-.85-3.44,6.09,6.09,0,0,1,.84-3.48,2.7,2.7,0,0,1,2.37-1.21q3,0,3,4.53v.57h-4.75a3.85,3.85,0,0,0,.52,2.2,1.88,1.88,0,0,0,1.6.64,3.7,3.7,0,0,0,1-.14,4.69,4.69,0,0,0,1-.42l.42,1.13a4.82,4.82,0,0,1-1.22.52A4.73,4.73,0,0,1,552.07,372.4Zm-.29-8a1.35,1.35,0,0,0-1.23.69,4.68,4.68,0,0,0-.48,2.15h3.26a4.58,4.58,0,0,0-.38-2.16A1.23,1.23,0,0,0,551.78,364.39Z"/><path d="M556.51,372.18V363.4h1.22l.14,1.24a2.69,2.69,0,0,1,1-1.08,2.59,2.59,0,0,1,1.37-.38,2,2,0,0,1,1.67.75,3.56,3.56,0,0,1,.58,2.18v6.07H561v-5.95a2.27,2.27,0,0,0-.32-1.36,1.14,1.14,0,0,0-1-.42,2.41,2.41,0,0,0-1.67.81v6.92Z"/><path d="M567.32,372.31a2.27,2.27,0,0,1-1.81-.63,3.37,3.37,0,0,1-.53-2.14v-5h-1.29v-1.09l.88-.05a.61.61,0,0,0,.43-.15.74.74,0,0,0,.14-.45l.13-1.95h1.19v2.53h2.29v1.16h-2.29v5.1a2,2,0,0,0,.25,1.16,1.25,1.25,0,0,0,1,.3,4.32,4.32,0,0,0,.94-.12v1.14A4.43,4.43,0,0,1,567.32,372.31Z"/><path d="M570.23,372.18V363.4h1.24l.15,1.43a2.67,2.67,0,0,1,2.54-1.53h.17v1.43h-.16a4,4,0,0,0-1.42.22,2.57,2.57,0,0,0-1,.69v6.54Z"/><path d="M577.5,372.38a2.07,2.07,0,0,1-1.63-.65,2.71,2.71,0,0,1-.58-1.86,2.76,2.76,0,0,1,.73-2.05,3,3,0,0,1,2.2-.73h1.42v-.55a3.08,3.08,0,0,0-.31-1.65,1.37,1.37,0,0,0-1.18-.44,4,4,0,0,0-1.06.15,7.79,7.79,0,0,0-1,.34l-.3-1.19a7.1,7.1,0,0,1,1.27-.4,6.76,6.76,0,0,1,1.42-.17,2.59,2.59,0,0,1,2,.74,3.58,3.58,0,0,1,.64,2.38v5.88h-1.27l-.14-1.16a2.59,2.59,0,0,1-1,1A2.42,2.42,0,0,1,577.5,372.38Zm.5-1.2a2,2,0,0,0,.88-.25,2.49,2.49,0,0,0,.76-.63v-2.23h-1.31c-1,0-1.54.55-1.54,1.64S577.19,371.18,578,371.18Z"/><path d="M585,372.31a1.72,1.72,0,0,1-1.38-.52,2.56,2.56,0,0,1-.45-1.68V359.9h1.5v10.26a1.37,1.37,0,0,0,.16.78.64.64,0,0,0,.55.2,1.37,1.37,0,0,0,.28,0l.31-.06v1.12c-.18,0-.34.08-.5.1Z"/><path d="M590,372.18l3.09-11.62h2l3,11.62h-1.57l-.73-3h-3.56l-.73,3Zm2.59-4.24h3L594,361.8Z"/><path d="M601.72,372.4a6.33,6.33,0,0,1-1.37-.16,3.32,3.32,0,0,1-1.08-.44l.35-1.21a4.11,4.11,0,0,0,2.17.57,1.43,1.43,0,0,0,1.07-.36,1.65,1.65,0,0,0,.13-1.87,1.64,1.64,0,0,0-.82-.48l-.76-.24a3,3,0,0,1-1.48-.89,2.29,2.29,0,0,1-.47-1.49,2.52,2.52,0,0,1,.78-1.92,2.81,2.81,0,0,1,2-.73,6.79,6.79,0,0,1,1.17.09,3.94,3.94,0,0,1,1,.34l-.27,1.15a5,5,0,0,0-1.81-.34,1.63,1.63,0,0,0-1.12.35,1.27,1.27,0,0,0-.4,1,1.13,1.13,0,0,0,.24.75,1.94,1.94,0,0,0,.86.49l.57.19a3.47,3.47,0,0,1,1.66,1,2.91,2.91,0,0,1-.31,3.54A3,3,0,0,1,601.72,372.4Z"/><path d="M606.74,372.18v-7.62h-1V363.4h2.5v8.78Zm-.1-10.62v-1.71h1.59v1.71Z"/><path d="M612,372.38a2.09,2.09,0,0,1-1.63-.65,2.76,2.76,0,0,1-.58-1.86,2.8,2.8,0,0,1,.73-2.05,3,3,0,0,1,2.2-.73h1.42v-.55a3.08,3.08,0,0,0-.31-1.65,1.37,1.37,0,0,0-1.18-.44,3.92,3.92,0,0,0-1.05.15,8,8,0,0,0-1,.34l-.3-1.19a7.38,7.38,0,0,1,1.27-.4,6.84,6.84,0,0,1,1.42-.17,2.57,2.57,0,0,1,2,.74,3.58,3.58,0,0,1,.64,2.38v5.88h-1.27l-.14-1.16a2.64,2.64,0,0,1-1,1A2.48,2.48,0,0,1,612,372.38Zm.5-1.2a1.94,1.94,0,0,0,.88-.25,2.49,2.49,0,0,0,.76-.63v-2.23h-1.31c-1,0-1.54.55-1.54,1.64S611.74,371.18,612.54,371.18Z"/><path d="M649.84,353.22V341.6h5.8v1.28h-4.27v3.79H655v1.27h-3.6v4h4.33v1.28Z"/><path d="M659.34,353.42a2,2,0,0,1-1.63-.65,3.24,3.24,0,0,1,.15-3.9,3,3,0,0,1,2.2-.74h1.42v-.55a3,3,0,0,0-.32-1.65,1.33,1.33,0,0,0-1.17-.43,4.48,4.48,0,0,0-1.06.14,7.79,7.79,0,0,0-1,.34l-.3-1.19a7.1,7.1,0,0,1,1.27-.4,6.76,6.76,0,0,1,1.42-.17,2.59,2.59,0,0,1,2,.74,3.6,3.6,0,0,1,.64,2.38v5.88h-1.27l-.14-1.16a2.59,2.59,0,0,1-1,1A2.42,2.42,0,0,1,659.34,353.42Zm.5-1.2a2,2,0,0,0,.88-.25,2.49,2.49,0,0,0,.76-.63v-2.22h-1.31c-1,0-1.54.54-1.54,1.63S659,352.22,659.84,352.22Z"/><path d="M666.9,353.44a5.82,5.82,0,0,1-1.37-.16,3.25,3.25,0,0,1-1.07-.44l.34-1.21a4.14,4.14,0,0,0,2.17.57,1.45,1.45,0,0,0,1.08-.36,1.38,1.38,0,0,0,.35-1,1.32,1.32,0,0,0-.23-.85,1.59,1.59,0,0,0-.82-.48l-.76-.24a3,3,0,0,1-1.47-.88,2.28,2.28,0,0,1-.47-1.5,2.51,2.51,0,0,1,.77-1.92,2.89,2.89,0,0,1,2-.73,6,6,0,0,1,1.17.1,3.67,3.67,0,0,1,1,.33l-.28,1.16a4.79,4.79,0,0,0-.87-.26,4.69,4.69,0,0,0-.94-.09,1.62,1.62,0,0,0-1.12.36,1.28,1.28,0,0,0-.4,1,1.08,1.08,0,0,0,.25.75,1.8,1.8,0,0,0,.86.49l.57.19a3.52,3.52,0,0,1,1.65.95,2.88,2.88,0,0,1-.3,3.54A3.06,3.06,0,0,1,666.9,353.44Z"/><path d="M674.43,353.36a2.27,2.27,0,0,1-1.81-.63,3.34,3.34,0,0,1-.53-2.15v-5h-1.3v-1.09l.88-.05a.64.64,0,0,0,.43-.14.74.74,0,0,0,.14-.46l.14-1.95h1.19v2.54h2.29v1.15h-2.29v5.1a1.87,1.87,0,0,0,.25,1.16,1.18,1.18,0,0,0,1,.31,4.4,4.4,0,0,0,1-.12v1.13A4.46,4.46,0,0,1,674.43,353.36Z"/><path d="M679.82,353.22l3.09-11.62h2l3,11.62h-1.57l-.72-3H682.1l-.72,3Zm2.59-4.24h3l-1.48-6.14Z"/><path d="M691.57,353.44a5.76,5.76,0,0,1-1.37-.16,3.41,3.41,0,0,1-1.08-.44l.35-1.21a4.11,4.11,0,0,0,2.17.57,1.47,1.47,0,0,0,1.08-.36,1.42,1.42,0,0,0,.35-1,1.39,1.39,0,0,0-.23-.85,1.64,1.64,0,0,0-.82-.48l-.76-.24a2.92,2.92,0,0,1-1.47-.88,2.29,2.29,0,0,1-.48-1.5,2.52,2.52,0,0,1,.78-1.92,2.87,2.87,0,0,1,2-.73,5.87,5.87,0,0,1,1.17.1,3.56,3.56,0,0,1,1,.33l-.27,1.16a4.76,4.76,0,0,0-1.81-.35,1.6,1.6,0,0,0-1.12.36,1.25,1.25,0,0,0-.4,1,1.13,1.13,0,0,0,.24.75,1.85,1.85,0,0,0,.86.49l.57.19a3.5,3.5,0,0,1,1.66.95,2.92,2.92,0,0,1-.3,3.54A3.06,3.06,0,0,1,691.57,353.44Z"/><path d="M696.6,353.22V345.6h-1v-1.15h2.5v8.77Zm-.11-10.62v-1.71h1.59v1.71Z"/><path d="M701.89,353.42a2.05,2.05,0,0,1-1.63-.65,3.28,3.28,0,0,1,.15-3.9,3,3,0,0,1,2.21-.74H704v-.55a3,3,0,0,0-.31-1.65,1.36,1.36,0,0,0-1.17-.43,4.35,4.35,0,0,0-1.06.14,8.53,8.53,0,0,0-1,.34l-.29-1.19a7,7,0,0,1,1.26-.4,6.84,6.84,0,0,1,1.42-.17,2.57,2.57,0,0,1,2,.74,3.6,3.6,0,0,1,.65,2.38v5.88h-1.28l-.14-1.16a2.64,2.64,0,0,1-1,1A2.46,2.46,0,0,1,701.89,353.42Zm.5-1.2a1.94,1.94,0,0,0,.88-.25,2.49,2.49,0,0,0,.76-.63v-2.22h-1.31c-1,0-1.53.54-1.53,1.63S701.59,352.22,702.39,352.22Z"/><path d="M40.86,268.57v-1.29h2.42V259H40.83v-1.13l1.83-.06a1.32,1.32,0,0,0,.62-.14.81.81,0,0,0,.24-.56l.07-.55h1.19v10.72H47v1.29Z"/><path d="M48.74,268.57V267.4L51.62,264a10.63,10.63,0,0,0,1-1.38,4.46,4.46,0,0,0,.55-1.21,4.66,4.66,0,0,0,.16-1.25,2.33,2.33,0,0,0-.47-1.56,1.7,1.7,0,0,0-1.34-.54,4,4,0,0,0-1.1.15,4.56,4.56,0,0,0-1.14.49l-.52-1.18a4.4,4.4,0,0,1,1.34-.59,5.93,5.93,0,0,1,1.49-.2,3.2,3.2,0,0,1,2.44.9,3.52,3.52,0,0,1,.85,2.53,5.15,5.15,0,0,1-.2,1.46A5.85,5.85,0,0,1,54,263a16.63,16.63,0,0,1-1.36,1.81l-2.07,2.46h4.55v1.28Z"/><path d="M59.48,268.81a4.31,4.31,0,0,1-2.48-.67l.43-1.17a3.8,3.8,0,0,0,1.91.53,2.19,2.19,0,0,0,2-1.19,7.94,7.94,0,0,0,.68-3.67,3.09,3.09,0,0,1-1,.9,3,3,0,0,1-3.57-.58,3.82,3.82,0,0,1-.78-2.54,3.91,3.91,0,0,1,.9-2.73,3.17,3.17,0,0,1,2.46-1q3.57,0,3.57,5.76a8.83,8.83,0,0,1-1,4.73A3.44,3.44,0,0,1,59.48,268.81Zm-1.29-8.44c0,1.56.58,2.34,1.76,2.34a2.32,2.32,0,0,0,1.12-.31,3.22,3.22,0,0,0,1-.81c-.08-2.44-.75-3.65-2-3.65a1.62,1.62,0,0,0-1.38.62A2.93,2.93,0,0,0,58.19,260.37Z"/><path d="M70.27,250.62v-1.29h2.41v-8.28H70.23v-1.13l1.83-.06a1.29,1.29,0,0,0,.62-.14.74.74,0,0,0,.24-.56l.07-.55h1.19v10.72h2.26v1.29Z"/><path d="M78.71,250.62l3.74-10.32h-5V239H84v1.19l-3.65,10.43Z"/><path d="M86.94,250.62l3.74-10.32h-5V239h6.53v1.19l-3.65,10.43Z"/><path d="M100.15,219.88V218.7l2.87-3.41a12.76,12.76,0,0,0,1-1.39,4.37,4.37,0,0,0,.7-2.45,2.27,2.27,0,0,0-.47-1.56,1.69,1.69,0,0,0-1.34-.54,4.54,4.54,0,0,0-1.1.14,5.36,5.36,0,0,0-1.14.49l-.51-1.17a4.35,4.35,0,0,1,1.33-.59A5.93,5.93,0,0,1,103,208a3.23,3.23,0,0,1,2.44.89,3.55,3.55,0,0,1,.86,2.54,5.2,5.2,0,0,1-.2,1.46,5.85,5.85,0,0,1-.68,1.42,21.22,21.22,0,0,1-1.36,1.81L102,218.6h4.55v1.28Z"/><path d="M111.31,220.12a4.72,4.72,0,0,1-3-.93l.45-1.19a4.33,4.33,0,0,0,2.48.84c1.39,0,2.09-.77,2.09-2.31s-.64-2.41-1.92-2.41a2.66,2.66,0,0,0-1.79.67l-1-.55v-6h5.74v1.29H110v4a2.91,2.91,0,0,1,1.88-.62,2.7,2.7,0,0,1,2.17,1,3.92,3.92,0,0,1,.79,2.58,3.76,3.76,0,0,1-.9,2.68A3.44,3.44,0,0,1,111.31,220.12Z"/><path d="M119.29,220.12a4.73,4.73,0,0,1-3-.93l.45-1.19a4.35,4.35,0,0,0,2.48.84c1.39,0,2.09-.77,2.09-2.31s-.64-2.41-1.92-2.41a2.66,2.66,0,0,0-1.79.67l-1-.55v-6h5.74v1.29H118v4a2.93,2.93,0,0,1,1.88-.62,2.68,2.68,0,0,1,2.17,1,3.92,3.92,0,0,1,.79,2.58,3.76,3.76,0,0,1-.9,2.68A3.43,3.43,0,0,1,119.29,220.12Z"/><path d="M140.87,251.48v-1.29h2.41v-8.27h-2.45v-1.14l1.83-.05a1.27,1.27,0,0,0,.62-.15.74.74,0,0,0,.24-.56l.07-.55h1.19v10.72H147v1.29Z"/><path d="M149.31,251.48l3.74-10.32h-5v-1.3h6.53v1.19l-3.65,10.43Z"/><path d="M159.68,251.48v-2.65H155V247.6l4.41-7.74h1.71v7.69h1.32v1.28h-1.32v2.65Zm-3.31-3.93h3.31v-5.94Z"/><path d="M169.33,216.17V215l2.88-3.41a12.53,12.53,0,0,0,1-1.39,4.74,4.74,0,0,0,.54-1.21,4.66,4.66,0,0,0,.17-1.25,2.28,2.28,0,0,0-.48-1.56,1.67,1.67,0,0,0-1.33-.54,4.13,4.13,0,0,0-1.11.15,4.66,4.66,0,0,0-1.13.49l-.52-1.18a4.35,4.35,0,0,1,1.33-.59,6,6,0,0,1,1.5-.2,3.18,3.18,0,0,1,2.43.9,3.52,3.52,0,0,1,.86,2.53,5.15,5.15,0,0,1-.2,1.46,5.85,5.85,0,0,1-.68,1.42,18.06,18.06,0,0,1-1.36,1.81l-2.07,2.46h4.55v1.28Z"/><path d="M180.75,216.41c-2.38,0-3.56-1.92-3.56-5.76a8.73,8.73,0,0,1,1-4.74,3.45,3.45,0,0,1,3.08-1.6,4.43,4.43,0,0,1,2.48.67l-.43,1.18a3.72,3.72,0,0,0-1.92-.54,2.18,2.18,0,0,0-2,1.19,7.94,7.94,0,0,0-.68,3.67,2.94,2.94,0,0,1,1-.89,2.82,2.82,0,0,1,1.37-.35,2.77,2.77,0,0,1,2.2.91,3.82,3.82,0,0,1,.78,2.56,3.89,3.89,0,0,1-.89,2.71A3.17,3.17,0,0,1,180.75,216.41Zm.09-6a2.47,2.47,0,0,0-1.13.31,3.18,3.18,0,0,0-1,.81c.08,2.44.74,3.66,2,3.66a1.63,1.63,0,0,0,1.37-.64,2.86,2.86,0,0,0,.49-1.79C182.6,211.19,182,210.41,180.84,210.41Z"/><path d="M187.93,216.41a4.31,4.31,0,0,1-2.48-.67l.43-1.17a3.77,3.77,0,0,0,1.91.53,2.19,2.19,0,0,0,2-1.19,7.91,7.91,0,0,0,.68-3.67,3.09,3.09,0,0,1-1,.9,3,3,0,0,1-3.57-.58,3.8,3.8,0,0,1-.78-2.54,3.91,3.91,0,0,1,.9-2.73,3.17,3.17,0,0,1,2.46-1q3.57,0,3.57,5.76a8.8,8.8,0,0,1-1,4.73A3.44,3.44,0,0,1,187.93,216.41ZM186.64,208c0,1.56.58,2.34,1.75,2.34a2.32,2.32,0,0,0,1.13-.31,3.22,3.22,0,0,0,1-.81c-.08-2.44-.75-3.65-2-3.65a1.65,1.65,0,0,0-1.38.62A2.93,2.93,0,0,0,186.64,208Z"/><path d="M201.72,118.88a4.72,4.72,0,0,1-3-.93l.45-1.19a4.27,4.27,0,0,0,2.48.85c1.39,0,2.08-.77,2.08-2.31s-.64-2.41-1.91-2.41a2.62,2.62,0,0,0-1.79.67l-1-.55v-6h5.74v1.29h-4.38v4a3,3,0,0,1,1.88-.62,2.65,2.65,0,0,1,2.17,1,3.92,3.92,0,0,1,.8,2.58,3.76,3.76,0,0,1-.91,2.68A3.44,3.44,0,0,1,201.72,118.88Z"/><path d="M207,118.64v-1.29h2.41v-8.27h-2.45v-1.14l1.83,0a1.17,1.17,0,0,0,.62-.15.74.74,0,0,0,.24-.56l.07-.55h1.19v10.72h2.26v1.29Z"/><path d="M217.93,118.88q-3.57,0-3.57-5.75a8.72,8.72,0,0,1,1-4.74,3.43,3.43,0,0,1,3.07-1.61,4.37,4.37,0,0,1,2.49.68l-.44,1.17a3.66,3.66,0,0,0-1.91-.54,2.17,2.17,0,0,0-2,1.19,7.84,7.84,0,0,0-.68,3.67,3,3,0,0,1,1-.89,2.82,2.82,0,0,1,1.37-.35,2.75,2.75,0,0,1,2.2.92,3.81,3.81,0,0,1,.78,2.55,3.92,3.92,0,0,1-.89,2.71A3.17,3.17,0,0,1,217.93,118.88Zm.09-6a2.32,2.32,0,0,0-1.13.31,2.83,2.83,0,0,0-1,.81c.08,2.43.74,3.65,2,3.65a1.61,1.61,0,0,0,1.37-.64,2.91,2.91,0,0,0,.49-1.79C219.78,113.67,219.19,112.89,218,112.89Z"/><path d="M240.11,229.37V228.2l2.88-3.41a11.37,11.37,0,0,0,1-1.39,4.46,4.46,0,0,0,.55-1.21,4.6,4.6,0,0,0,.16-1.25,2.36,2.36,0,0,0-.47-1.56,1.69,1.69,0,0,0-1.34-.54,4,4,0,0,0-1.1.15,5,5,0,0,0-1.14.49l-.52-1.17a4.42,4.42,0,0,1,1.34-.6,5.93,5.93,0,0,1,1.49-.2,3.2,3.2,0,0,1,2.44.9,3.52,3.52,0,0,1,.85,2.53,4.82,4.82,0,0,1-.2,1.46,5.68,5.68,0,0,1-.68,1.42,16.63,16.63,0,0,1-1.36,1.81L242,228.1h4.55v1.27Z"/><path d="M251.09,229.61a5.12,5.12,0,0,1-2.94-.79l.53-1.14a4.79,4.79,0,0,0,2.38.68c1.41,0,2.12-.76,2.12-2.26a1.83,1.83,0,0,0-2.07-2.07h-1v-1.28H251a1.85,1.85,0,0,0,1.4-.53,2,2,0,0,0,.52-1.43c0-1.35-.62-2-1.85-2a5.19,5.19,0,0,0-2.22.59l-.45-1.1a5.87,5.87,0,0,1,1.35-.55,5.73,5.73,0,0,1,1.44-.2,3.37,3.37,0,0,1,2.41.83,3.39,3.39,0,0,1,.4,4,2.39,2.39,0,0,1-1.24,1,2.54,2.54,0,0,1,1.43,1,3.26,3.26,0,0,1,.52,1.89,3.23,3.23,0,0,1-1,2.5A3.83,3.83,0,0,1,251.09,229.61Z"/><path d="M256.59,229.37v-1.29H259v-8.27h-2.44v-1.14l1.82,0a1.14,1.14,0,0,0,.62-.15.72.72,0,0,0,.24-.56l.07-.55h1.19v10.72h2.26v1.29Z"/><path d="M268.33,206.49v-1.17l2.88-3.42a11.36,11.36,0,0,0,1-1.38,4.46,4.46,0,0,0,.55-1.21,4.66,4.66,0,0,0,.16-1.25,2.33,2.33,0,0,0-.47-1.56,1.7,1.7,0,0,0-1.34-.54,4.42,4.42,0,0,0-1.1.14,5,5,0,0,0-1.14.5l-.52-1.18a4.4,4.4,0,0,1,1.34-.59,5.87,5.87,0,0,1,1.49-.2,3.2,3.2,0,0,1,2.44.9,3.5,3.5,0,0,1,.85,2.53,5.2,5.2,0,0,1-.2,1.46,5.85,5.85,0,0,1-.68,1.42,17.67,17.67,0,0,1-1.36,1.81l-2.07,2.46h4.55v1.28Z"/><path d="M279.07,206.73a4.39,4.39,0,0,1-2.48-.67l.43-1.18a3.69,3.69,0,0,0,1.91.54,2.19,2.19,0,0,0,2-1.19,7.94,7.94,0,0,0,.68-3.67,3.09,3.09,0,0,1-1,.9,3,3,0,0,1-3.57-.58,3.82,3.82,0,0,1-.78-2.54,3.91,3.91,0,0,1,.9-2.73,3.17,3.17,0,0,1,2.46-1q3.57,0,3.57,5.76a8.83,8.83,0,0,1-1,4.73A3.44,3.44,0,0,1,279.07,206.73Zm-1.29-8.45c0,1.57.58,2.35,1.75,2.35a2.44,2.44,0,0,0,1.13-.31,3.22,3.22,0,0,0,1-.81c-.08-2.44-.75-3.66-2-3.66a1.63,1.63,0,0,0-1.38.63A2.92,2.92,0,0,0,277.78,198.28Z"/><path d="M288.17,206.73q-3.44,0-3.43-6t3.43-6.05c2.28,0,3.43,2,3.43,6.05S290.45,206.73,288.17,206.73Zm0-1.26a1.48,1.48,0,0,0,1.4-1.15,15.28,15.28,0,0,0,0-7.28,1.48,1.48,0,0,0-1.4-1.15c-.64,0-1.1.38-1.4,1.15a14.95,14.95,0,0,0,0,7.28C287.07,205.09,287.53,205.47,288.17,205.47Z"/><path d="M300.57,175.67a5.12,5.12,0,0,1-2.94-.79l.53-1.14a4.78,4.78,0,0,0,2.38.67c1.41,0,2.12-.75,2.12-2.25a1.83,1.83,0,0,0-2.07-2.07h-1v-1.28h.91a1.88,1.88,0,0,0,1.4-.53,2,2,0,0,0,.52-1.43c0-1.35-.62-2-1.85-2a5.19,5.19,0,0,0-2.22.59l-.45-1.11a5.44,5.44,0,0,1,1.35-.54,5.73,5.73,0,0,1,1.44-.2,3.37,3.37,0,0,1,2.41.83,3,3,0,0,1,.87,2.31,3,3,0,0,1-.47,1.67,2.36,2.36,0,0,1-1.24,1,2.45,2.45,0,0,1,1.43,1,3.26,3.26,0,0,1,.52,1.89,3.2,3.2,0,0,1-1,2.49A3.79,3.79,0,0,1,300.57,175.67Z"/><path d="M309.44,175.67q-3.57,0-3.57-5.76a8.75,8.75,0,0,1,1-4.73,3.44,3.44,0,0,1,3.08-1.61,4.41,4.41,0,0,1,2.48.67l-.43,1.18a3.71,3.71,0,0,0-1.91-.54,2.18,2.18,0,0,0-2,1.19,7.94,7.94,0,0,0-.68,3.67,3,3,0,0,1,1-.89,2.82,2.82,0,0,1,1.37-.35,2.76,2.76,0,0,1,2.2.91,3.82,3.82,0,0,1,.79,2.56,3.89,3.89,0,0,1-.9,2.71A3.16,3.16,0,0,1,309.44,175.67Zm.08-6a2.47,2.47,0,0,0-1.13.31,3.18,3.18,0,0,0-1,.81c.08,2.44.75,3.66,2,3.66a1.64,1.64,0,0,0,1.38-.64,2.93,2.93,0,0,0,.48-1.79C311.28,170.45,310.69,169.67,309.52,169.67Z"/><path d="M316.61,175.67a4.33,4.33,0,0,1-2.48-.67l.43-1.17a3.8,3.8,0,0,0,1.91.53,2.18,2.18,0,0,0,2-1.19,7.91,7.91,0,0,0,.68-3.67,3,3,0,0,1-1,.9,2.78,2.78,0,0,1-1.37.34,2.72,2.72,0,0,1-2.19-.92,3.75,3.75,0,0,1-.79-2.54,3.91,3.91,0,0,1,.9-2.73,3.19,3.19,0,0,1,2.46-1q3.57,0,3.57,5.76a8.8,8.8,0,0,1-1,4.73A3.44,3.44,0,0,1,316.61,175.67Zm-1.29-8.44c0,1.56.59,2.34,1.76,2.34a2.35,2.35,0,0,0,1.13-.31,3.18,3.18,0,0,0,1-.81c-.08-2.44-.75-3.65-2-3.65a1.63,1.63,0,0,0-1.38.63A2.88,2.88,0,0,0,315.32,167.23Z"/><path d="M338.11,206.49v-1.17L341,201.9a11.36,11.36,0,0,0,1-1.38,4.46,4.46,0,0,0,.55-1.21,5.1,5.1,0,0,0,.16-1.25,2.33,2.33,0,0,0-.47-1.56,1.7,1.7,0,0,0-1.34-.54,4.42,4.42,0,0,0-1.1.14,5,5,0,0,0-1.14.5l-.52-1.18a4.4,4.4,0,0,1,1.34-.59,5.87,5.87,0,0,1,1.49-.2,3.2,3.2,0,0,1,2.44.9,3.5,3.5,0,0,1,.85,2.53,5.2,5.2,0,0,1-.2,1.46,5.85,5.85,0,0,1-.68,1.42,17.67,17.67,0,0,1-1.36,1.81L340,205.21h4.55v1.28Z"/><path d="M349.45,206.73a3.49,3.49,0,0,1-2.51-.86,3.21,3.21,0,0,1-.88-2.4,3.32,3.32,0,0,1,.55-2,2.35,2.35,0,0,1,1.52-1,2.17,2.17,0,0,1-1.31-.94,3.21,3.21,0,0,1-.49-1.79,3.15,3.15,0,0,1,.85-2.31,3.44,3.44,0,0,1,4.55,0,3.19,3.19,0,0,1,.84,2.31,3.14,3.14,0,0,1-.49,1.79,2.15,2.15,0,0,1-1.3.94,2.38,2.38,0,0,1,1.52,1,3.39,3.39,0,0,1,.55,2,3.21,3.21,0,0,1-.89,2.4A3.47,3.47,0,0,1,349.45,206.73Zm0-1.22a1.74,1.74,0,0,0,1.39-.56,2.35,2.35,0,0,0,.47-1.6q0-2.19-1.86-2.19t-1.86,2.19a2.35,2.35,0,0,0,.48,1.6A1.73,1.73,0,0,0,349.45,205.51Zm0-5.55c1.1,0,1.66-.68,1.66-2a2.36,2.36,0,0,0-.43-1.54,1.68,1.68,0,0,0-2.45,0,2.36,2.36,0,0,0-.43,1.54Q347.8,200,349.45,200Z"/><path d="M357.06,206.73a4.43,4.43,0,0,1-2.48-.67l.43-1.18a3.72,3.72,0,0,0,1.92.54,2.18,2.18,0,0,0,2-1.19,7.94,7.94,0,0,0,.68-3.67,3,3,0,0,1-1,.9,2.81,2.81,0,0,1-1.37.34,2.73,2.73,0,0,1-2.2-.92,3.82,3.82,0,0,1-.78-2.54,3.9,3.9,0,0,1,.89-2.73,3.19,3.19,0,0,1,2.47-1q3.56,0,3.56,5.76a8.73,8.73,0,0,1-1,4.73A3.43,3.43,0,0,1,357.06,206.73Zm-1.29-8.45c0,1.57.59,2.35,1.76,2.35a2.47,2.47,0,0,0,1.13-.31,3.18,3.18,0,0,0,1-.81c-.08-2.44-.74-3.66-2-3.66a1.66,1.66,0,0,0-1.38.63A2.92,2.92,0,0,0,355.77,198.28Z"/><path d="M370.47,186.78a5.13,5.13,0,0,1-3-.8l.54-1.13a4.85,4.85,0,0,0,2.37.67c1.42,0,2.12-.76,2.12-2.26a1.82,1.82,0,0,0-2.06-2.07h-1v-1.27h.92a1.83,1.83,0,0,0,1.39-.54,1.93,1.93,0,0,0,.52-1.43c0-1.34-.61-2-1.84-2a5.24,5.24,0,0,0-2.23.58l-.45-1.1a5.68,5.68,0,0,1,1.36-.54,5.31,5.31,0,0,1,1.44-.2,3.34,3.34,0,0,1,2.4.82,3.06,3.06,0,0,1,.87,2.31,3,3,0,0,1-.46,1.68,2.49,2.49,0,0,1-1.25,1,2.51,2.51,0,0,1,1.44,1,3.73,3.73,0,0,1-.45,4.38A3.8,3.8,0,0,1,370.47,186.78Z"/><path d="M380.38,186.53v-2.65h-4.73v-1.22l4.41-7.74h1.71v7.68h1.33v1.28h-1.33v2.65Zm-3.31-3.93h3.31v-5.94Z"/><path d="M384.09,186.53v-1.17L387,182a12.76,12.76,0,0,0,1-1.39,4.85,4.85,0,0,0,.54-1.2,4.71,4.71,0,0,0,.16-1.25,2.27,2.27,0,0,0-.47-1.56,1.7,1.7,0,0,0-1.34-.55,4.11,4.11,0,0,0-1.1.15,5.36,5.36,0,0,0-1.14.49l-.51-1.17a4.35,4.35,0,0,1,1.33-.59,5.51,5.51,0,0,1,1.49-.2,3.23,3.23,0,0,1,2.44.89,3.55,3.55,0,0,1,.86,2.54,5.08,5.08,0,0,1-.2,1.45,5.52,5.52,0,0,1-.68,1.42,18.37,18.37,0,0,1-1.37,1.81L386,185.26h4.55v1.27Z"/><path d="M400,165.3a5.13,5.13,0,0,1-2.95-.79l.53-1.14a4.82,4.82,0,0,0,2.38.68c1.41,0,2.12-.76,2.12-2.26a1.83,1.83,0,0,0-2.07-2.07h-1v-1.28h.91a1.83,1.83,0,0,0,1.4-.53,2,2,0,0,0,.52-1.43c0-1.34-.62-2-1.85-2a5.27,5.27,0,0,0-2.22.59l-.45-1.1a5.87,5.87,0,0,1,1.35-.55,5.71,5.71,0,0,1,1.44-.19,3.35,3.35,0,0,1,2.41.82,3.39,3.39,0,0,1,.4,4,2.46,2.46,0,0,1-1.24,1,2.48,2.48,0,0,1,1.43,1,3.26,3.26,0,0,1,.52,1.89,3.23,3.23,0,0,1-1,2.5A3.77,3.77,0,0,1,400,165.3Z"/><path d="M408,165.3a4.31,4.31,0,0,1-2.48-.67l.43-1.17a3.68,3.68,0,0,0,1.91.53,2.17,2.17,0,0,0,2-1.19,7.91,7.91,0,0,0,.68-3.67,3.09,3.09,0,0,1-1,.9,2.79,2.79,0,0,1-1.37.35,2.74,2.74,0,0,1-2.2-.93,3.8,3.8,0,0,1-.78-2.54,3.86,3.86,0,0,1,.9-2.72,3.14,3.14,0,0,1,2.46-1c2.38,0,3.57,1.91,3.57,5.75a8.8,8.8,0,0,1-1,4.73A3.42,3.42,0,0,1,408,165.3Zm-1.29-8.44c0,1.56.58,2.34,1.75,2.34a2.32,2.32,0,0,0,1.13-.31,3,3,0,0,0,1-.81c-.08-2.43-.75-3.65-2-3.65a1.63,1.63,0,0,0-1.38.63A2.92,2.92,0,0,0,406.72,156.86Z"/><path d="M417.21,165.3c-2.38,0-3.57-1.91-3.57-5.75a8.82,8.82,0,0,1,1-4.74,3.44,3.44,0,0,1,3.08-1.6,4.31,4.31,0,0,1,2.48.67l-.43,1.17a3.7,3.7,0,0,0-1.91-.53,2.18,2.18,0,0,0-2,1.18,8,8,0,0,0-.68,3.68,3.09,3.09,0,0,1,1-.9,2.79,2.79,0,0,1,1.37-.35,2.72,2.72,0,0,1,2.19.92,3.76,3.76,0,0,1,.79,2.55,3.87,3.87,0,0,1-.9,2.71A3.14,3.14,0,0,1,417.21,165.3Zm.08-6a2.32,2.32,0,0,0-1.12.31,3,3,0,0,0-1,.81c.08,2.43.75,3.65,2,3.65a1.61,1.61,0,0,0,1.38-.64,2.91,2.91,0,0,0,.48-1.79C419.05,160.09,418.47,159.31,417.29,159.31Z"/><path d="M440.1,189.62a5.13,5.13,0,0,1-3-.79l.53-1.14a4.81,4.81,0,0,0,2.38.67c1.41,0,2.12-.75,2.12-2.25a1.83,1.83,0,0,0-2.07-2.07h-1v-1.28H440a1.83,1.83,0,0,0,1.4-.53,2,2,0,0,0,.52-1.43c0-1.35-.62-2-1.85-2a5.27,5.27,0,0,0-2.22.59l-.45-1.1a5.45,5.45,0,0,1,1.35-.55,5.73,5.73,0,0,1,1.44-.2,3.36,3.36,0,0,1,2.41.83,3.39,3.39,0,0,1,.4,4,2.39,2.39,0,0,1-1.24,1,2.54,2.54,0,0,1,1.43,1,3.26,3.26,0,0,1,.52,1.89,3.23,3.23,0,0,1-1,2.5A3.82,3.82,0,0,1,440.1,189.62Z"/><path d="M448.05,189.62a5.15,5.15,0,0,1-2.95-.79l.54-1.14a4.74,4.74,0,0,0,2.37.67c1.42,0,2.12-.75,2.12-2.25a1.82,1.82,0,0,0-2.06-2.07h-1v-1.28H448a1.82,1.82,0,0,0,1.39-.53,2,2,0,0,0,.52-1.43c0-1.35-.61-2-1.84-2a5.27,5.27,0,0,0-2.23.59l-.45-1.1a5.94,5.94,0,0,1,2.8-.75,3.35,3.35,0,0,1,2.4.83,3.42,3.42,0,0,1,.41,4,2.42,2.42,0,0,1-1.25,1,2.6,2.6,0,0,1,1.44,1,3.33,3.33,0,0,1,.51,1.89,3.25,3.25,0,0,1-1,2.5A3.85,3.85,0,0,1,448.05,189.62Z"/><path d="M458,189.38v-2.65h-4.73V185.5l4.41-7.73h1.71v7.68h1.33v1.28h-1.33v2.65Zm-3.31-3.93H458v-5.94Z"/><path d="M470.11,139v-2.65h-4.73v-1.23l4.42-7.74h1.7V135h1.33v1.28H471.5V139ZM466.8,135h3.31v-5.95Z"/><path d="M477.78,139.21q-3.57,0-3.57-5.76a8.66,8.66,0,0,1,1.05-4.73,3.43,3.43,0,0,1,3.07-1.61,4.44,4.44,0,0,1,2.49.67l-.44,1.18a3.66,3.66,0,0,0-1.91-.54,2.17,2.17,0,0,0-2,1.19,7.81,7.81,0,0,0-.68,3.67,2.94,2.94,0,0,1,1-.89,2.82,2.82,0,0,1,1.37-.35,2.77,2.77,0,0,1,2.2.91,3.82,3.82,0,0,1,.78,2.56,3.93,3.93,0,0,1-.89,2.71A3.17,3.17,0,0,1,477.78,139.21Zm.09-6a2.44,2.44,0,0,0-1.13.31,3.07,3.07,0,0,0-1,.81c.08,2.44.74,3.66,2,3.66a1.64,1.64,0,0,0,1.38-.64,2.93,2.93,0,0,0,.49-1.79C479.63,134,479,133.21,477.87,133.21Z"/><path d="M486.18,139.21q-3.57,0-3.57-5.76a8.75,8.75,0,0,1,1-4.73,3.46,3.46,0,0,1,3.08-1.61,4.39,4.39,0,0,1,2.48.67l-.43,1.18a3.69,3.69,0,0,0-1.91-.54,2.19,2.19,0,0,0-2,1.19,7.94,7.94,0,0,0-.68,3.67,3.07,3.07,0,0,1,1-.89,3,3,0,0,1,3.57.56,3.82,3.82,0,0,1,.78,2.56,3.89,3.89,0,0,1-.9,2.71A3.13,3.13,0,0,1,486.18,139.21Zm.09-6a2.44,2.44,0,0,0-1.13.31,3.22,3.22,0,0,0-1,.81c.08,2.44.75,3.66,2,3.66a1.64,1.64,0,0,0,1.38-.64,2.93,2.93,0,0,0,.48-1.79C488,134,487.44,133.21,486.27,133.21Z"/><path d="M500.05,62.57c-2.38,0-3.56-1.92-3.56-5.76a8.66,8.66,0,0,1,1-4.73,3.43,3.43,0,0,1,3.07-1.61,4.44,4.44,0,0,1,2.49.67l-.43,1.18a3.72,3.72,0,0,0-1.92-.54,2.17,2.17,0,0,0-2,1.19,7.94,7.94,0,0,0-.68,3.67,2.94,2.94,0,0,1,1-.89,2.82,2.82,0,0,1,1.37-.35,2.77,2.77,0,0,1,2.2.91,3.82,3.82,0,0,1,.78,2.56,3.89,3.89,0,0,1-.89,2.71A3.17,3.17,0,0,1,500.05,62.57Zm.09-6a2.47,2.47,0,0,0-1.13.31,3.18,3.18,0,0,0-1,.81c.08,2.44.74,3.66,2,3.66a1.63,1.63,0,0,0,1.37-.64,2.86,2.86,0,0,0,.49-1.79C501.9,57.35,501.31,56.57,500.14,56.57Z"/><path d="M508.45,62.57q-3.57,0-3.57-5.76a8.66,8.66,0,0,1,1.05-4.73A3.43,3.43,0,0,1,509,50.47a4.39,4.39,0,0,1,2.48.67l-.43,1.18a3.69,3.69,0,0,0-1.91-.54,2.17,2.17,0,0,0-2,1.19,7.92,7.92,0,0,0-.69,3.67,3.07,3.07,0,0,1,1-.89,2.82,2.82,0,0,1,1.37-.35,2.77,2.77,0,0,1,2.2.91,3.82,3.82,0,0,1,.78,2.56,3.93,3.93,0,0,1-.89,2.71A3.17,3.17,0,0,1,508.45,62.57Zm.09-6a2.44,2.44,0,0,0-1.13.31,3.22,3.22,0,0,0-1,.81c.09,2.44.75,3.66,2,3.66a1.64,1.64,0,0,0,1.38-.64,2.93,2.93,0,0,0,.49-1.79C510.3,57.35,509.71,56.57,508.54,56.57Z"/><path d="M513.41,62.33V61h2.42V52.76h-2.45V51.63l1.83-.05a1.3,1.3,0,0,0,.62-.15.81.81,0,0,0,.24-.56l.07-.55h1.19V61h2.25v1.29Z"/><path d="M539.6,167a5.12,5.12,0,0,1-2.94-.8l.53-1.13a4.78,4.78,0,0,0,2.38.67c1.41,0,2.12-.75,2.12-2.26a1.83,1.83,0,0,0-2.07-2.07h-1v-1.27h.91a1.85,1.85,0,0,0,1.4-.54,2,2,0,0,0,.51-1.43c0-1.34-.61-2-1.84-2a5.17,5.17,0,0,0-2.22.58l-.45-1.1a5.44,5.44,0,0,1,1.35-.54,5.73,5.73,0,0,1,1.44-.2,3.31,3.31,0,0,1,2.4.83,3,3,0,0,1,.88,2.31,3,3,0,0,1-.47,1.67,2.36,2.36,0,0,1-1.24,1,2.48,2.48,0,0,1,1.43,1,3.3,3.3,0,0,1,.52,1.88,3.26,3.26,0,0,1-1,2.5A3.79,3.79,0,0,1,539.6,167Z"/><path d="M547.63,167a4.44,4.44,0,0,1-2.49-.67l.44-1.18a3.66,3.66,0,0,0,1.91.54,2.17,2.17,0,0,0,2-1.19,7.81,7.81,0,0,0,.68-3.67,2.94,2.94,0,0,1-1,.89,2.82,2.82,0,0,1-1.37.35,2.75,2.75,0,0,1-2.2-.92,3.85,3.85,0,0,1-.78-2.55,3.93,3.93,0,0,1,.89-2.72,3.19,3.19,0,0,1,2.47-1q3.57,0,3.57,5.76a8.75,8.75,0,0,1-1,4.73A3.43,3.43,0,0,1,547.63,167Zm-1.3-8.45c0,1.57.59,2.35,1.76,2.35a2.44,2.44,0,0,0,1.13-.31,3.07,3.07,0,0,0,1-.81c-.08-2.44-.74-3.66-2-3.66a1.63,1.63,0,0,0-1.38.63A2.86,2.86,0,0,0,546.33,158.58Z"/><path d="M552.88,166.79v-1.18l2.88-3.41a12.53,12.53,0,0,0,1-1.39,4.37,4.37,0,0,0,.54-1.2,4.66,4.66,0,0,0,.17-1.25,2.28,2.28,0,0,0-.48-1.56,1.67,1.67,0,0,0-1.33-.54,4.42,4.42,0,0,0-1.1.14,5,5,0,0,0-1.14.49l-.52-1.17a4.4,4.4,0,0,1,1.34-.59,5.87,5.87,0,0,1,1.49-.2,3.23,3.23,0,0,1,2.44.89,3.59,3.59,0,0,1,.85,2.54,5.2,5.2,0,0,1-.2,1.46,5.85,5.85,0,0,1-.68,1.42,19.28,19.28,0,0,1-1.36,1.81l-2.07,2.46h4.55v1.28Z"/><path d="M569.17,148.54v-2.65h-4.72v-1.23l4.41-7.74h1.7v7.69h1.33v1.28h-1.33v2.65Zm-3.31-3.93h3.31v-6Z"/><path d="M577.86,148.54v-2.65h-4.72v-1.23l4.41-7.74h1.71v7.69h1.33v1.28h-1.33v2.65Zm-3.31-3.93h3.31v-6Z"/><path d="M585.39,148.78c-2.28,0-3.43-2-3.43-6.05s1.15-6,3.43-6,3.43,2,3.43,6S587.68,148.78,585.39,148.78Zm0-1.26a1.49,1.49,0,0,0,1.41-1.15,15.24,15.24,0,0,0,0-7.27c-.3-.77-.76-1.16-1.41-1.16s-1.09.39-1.39,1.16a14.91,14.91,0,0,0,0,7.27C584.3,147.14,584.76,147.52,585.39,147.52Z"/><path d="M599.3,128.73v-2.66h-4.72v-1.22l4.41-7.74h1.71v7.69H602v1.27H600.7v2.66ZM596,124.8h3.31v-6Z"/><path d="M605.64,129a4.44,4.44,0,0,1-2.49-.67l.44-1.18a3.66,3.66,0,0,0,1.91.54,2.17,2.17,0,0,0,2-1.19,7.81,7.81,0,0,0,.68-3.67,2.94,2.94,0,0,1-1,.89,2.82,2.82,0,0,1-1.37.35,2.75,2.75,0,0,1-2.2-.92,3.85,3.85,0,0,1-.78-2.55,3.93,3.93,0,0,1,.89-2.72,3.19,3.19,0,0,1,2.47-1q3.57,0,3.57,5.76a8.73,8.73,0,0,1-1,4.73A3.43,3.43,0,0,1,605.64,129Zm-1.3-8.45c0,1.57.59,2.35,1.76,2.35a2.44,2.44,0,0,0,1.13-.31,3.07,3.07,0,0,0,1-.81c-.08-2.44-.74-3.66-2-3.66a1.63,1.63,0,0,0-1.38.63A2.86,2.86,0,0,0,604.34,120.52Z"/><path d="M614.73,129c-2.28,0-3.43-2-3.43-6s1.15-6,3.43-6,3.43,2,3.43,6S617,129,614.73,129Zm0-1.26a1.49,1.49,0,0,0,1.41-1.15,15.28,15.28,0,0,0,0-7.28,1.43,1.43,0,0,0-2.8,0,14.95,14.95,0,0,0,0,7.28A1.48,1.48,0,0,0,614.73,127.71Z"/><path d="M639.06,138.11v-2.66h-4.72v-1.22l4.41-7.74h1.71v7.69h1.32v1.27h-1.32v2.66Zm-3.31-3.93h3.31v-6Z"/><path d="M646.74,138.35q-3.57,0-3.57-5.76a8.82,8.82,0,0,1,1-4.74,3.44,3.44,0,0,1,3.08-1.6,4.33,4.33,0,0,1,2.48.67l-.43,1.17a3.8,3.8,0,0,0-1.91-.53,2.18,2.18,0,0,0-2,1.19,7.94,7.94,0,0,0-.68,3.67,3,3,0,0,1,1-.9,2.78,2.78,0,0,1,1.37-.34,2.72,2.72,0,0,1,2.19.91,3.76,3.76,0,0,1,.79,2.55,3.9,3.9,0,0,1-.9,2.72A3.16,3.16,0,0,1,646.74,138.35Zm.08-6a2.38,2.38,0,0,0-1.13.31,3.18,3.18,0,0,0-1,.81c.08,2.44.75,3.66,2,3.66a1.64,1.64,0,0,0,1.38-.64,2.93,2.93,0,0,0,.48-1.79C648.58,133.13,648,132.35,646.82,132.35Z"/><path d="M655,138.35a3.47,3.47,0,0,1-2.51-.86,3.21,3.21,0,0,1-.89-2.4,3.32,3.32,0,0,1,.55-2,2.38,2.38,0,0,1,1.52-1,2.15,2.15,0,0,1-1.3-.94,3.14,3.14,0,0,1-.49-1.79,3.19,3.19,0,0,1,.84-2.31,3.44,3.44,0,0,1,4.55,0,3.19,3.19,0,0,1,.85,2.31,3.14,3.14,0,0,1-.5,1.79,2.12,2.12,0,0,1-1.3.94,2.35,2.35,0,0,1,1.52,1,3.32,3.32,0,0,1,.55,2,3.18,3.18,0,0,1-.89,2.4A3.45,3.45,0,0,1,655,138.35Zm0-1.22a1.71,1.71,0,0,0,1.38-.56,2.35,2.35,0,0,0,.48-1.6q0-2.19-1.86-2.19c-1.25,0-1.87.73-1.87,2.19a2.35,2.35,0,0,0,.49,1.6A1.73,1.73,0,0,0,655,137.13Zm0-5.55q1.65,0,1.65-2a2.42,2.42,0,0,0-.42-1.54,1.48,1.48,0,0,0-1.23-.53,1.51,1.51,0,0,0-1.23.53,2.36,2.36,0,0,0-.43,1.54C653.35,130.9,653.9,131.58,655,131.58Z"/><path d="M668.7,85.64q-3.56,0-3.56-5.75a8.68,8.68,0,0,1,1-4.74,3.43,3.43,0,0,1,3.08-1.61,4.36,4.36,0,0,1,2.48.68l-.43,1.17a3.72,3.72,0,0,0-1.92-.54,2.18,2.18,0,0,0-2,1.19,8,8,0,0,0-.68,3.67,3,3,0,0,1,1-.89,2.82,2.82,0,0,1,1.37-.35,2.73,2.73,0,0,1,2.2.92,3.81,3.81,0,0,1,.79,2.55,3.87,3.87,0,0,1-.9,2.71A3.17,3.17,0,0,1,668.7,85.64Zm.09-6a2.47,2.47,0,0,0-1.13.31,3.18,3.18,0,0,0-1,.81c.08,2.44.75,3.66,2,3.66a1.64,1.64,0,0,0,1.38-.64,2.91,2.91,0,0,0,.48-1.79C670.55,80.43,670,79.64,668.79,79.64Z"/><path d="M677,85.64c-2.29,0-3.43-2-3.43-6s1.14-6,3.43-6,3.43,2,3.43,6S679.24,85.64,677,85.64Zm0-1.26a1.48,1.48,0,0,0,1.4-1.15,11.09,11.09,0,0,0,.44-3.64,11.06,11.06,0,0,0-.44-3.63A1.49,1.49,0,0,0,677,74.8c-.64,0-1.1.39-1.4,1.16a10.74,10.74,0,0,0-.45,3.63,10.77,10.77,0,0,0,.45,3.64C675.86,84,676.32,84.38,677,84.38Z"/><path d="M681.66,85.4V84.23l2.88-3.41a12.53,12.53,0,0,0,1-1.39,4.42,4.42,0,0,0,.54-1.21,4.6,4.6,0,0,0,.17-1.25,2.31,2.31,0,0,0-.48-1.56,1.67,1.67,0,0,0-1.33-.54,4,4,0,0,0-1.1.15,4.56,4.56,0,0,0-1.14.49l-.52-1.17a4.19,4.19,0,0,1,1.34-.6,5.87,5.87,0,0,1,1.49-.2,3.22,3.22,0,0,1,2.44.9,3.56,3.56,0,0,1,.85,2.53,5.15,5.15,0,0,1-.2,1.46,5.68,5.68,0,0,1-.68,1.42,18.06,18.06,0,0,1-1.36,1.81l-2.07,2.47h4.55V85.4Z"/><path d="M696.24,42,700,31.7h-5V30.4h6.54v1.19L697.86,42Z"/><path d="M703.46,42V40.73h2.42V32.45h-2.45V31.32l1.83-.05a1.43,1.43,0,0,0,.62-.15.81.81,0,0,0,.24-.56l.07-.55h1.19V40.73h2.25V42Z"/><path d="M715.24,42V39.37h-4.72V38.14l4.41-7.74h1.71v7.69H718v1.28h-1.33V42Zm-3.31-3.93h3.31v-6Z"/></g></svg>