<svg xmlns="http://www.w3.org/2000/svg" width="64.68" height="64.68" viewBox="0 0 64.68 64.68"><defs><style>.a{fill:#00b4cd;}.b{fill:#fff;}.c{fill:#e0006d;}</style></defs><rect class="a" x="12.76" y="12.76" width="51.92" height="51.92"/><path class="b" d="M31.45,45.64a10.27,10.27,0,0,0,4.49,1c2.82,0,5-1.23,5-3.88a3,3,0,0,0-2.07-3.13,11.8,11.8,0,0,0-4.08-.51H32V27.32H45.46l-1,3.47H36v5.09h.88a12,12,0,0,1,4.28.68,6.24,6.24,0,0,1,4.12,5.95c0,4.19-2.76,7.55-9.22,7.55a12.6,12.6,0,0,1-5.74-1.22Z"/><rect class="c" width="25.51" height="25.51"/></svg>