<svg xmlns="http://www.w3.org/2000/svg" width="64.68" height="64.68" viewBox="0 0 64.68 64.68"><defs><style>.a{fill:#e0006d;}.b{fill:#fff;}.c{fill:#00b4cd;}</style></defs><rect class="a" x="12.76" width="51.92" height="51.92"/><path class="b" d="M31.86,36.73l1-3.26a9.34,9.34,0,0,0,4.25,1.09c3.5,0,5.48-2.18,5.92-6.6h0a7.88,7.88,0,0,1-4.89,1.6c-3.57,0-6.87-2.07-6.87-6.93A7.38,7.38,0,0,1,39,14.91c4.86,0,8.33,3.23,8.33,10.57,0,7.79-3.4,12.38-10.13,12.38A12.35,12.35,0,0,1,31.86,36.73ZM43.12,24.36c0-3.6-1.67-6.15-4.22-6.15-2.11,0-3.43,1.63-3.43,4.08s1.29,4,3.57,4A5.74,5.74,0,0,0,43.12,24.36Z"/><rect class="c" y="39.17" width="25.51" height="25.51"/></svg>