<svg xmlns="http://www.w3.org/2000/svg" width="58.02" height="64.68" viewBox="0 0 58.02 64.68"><defs><style>.a{fill:#e0006d;}.b{fill:#fff;}.c{fill:#4c2178;}</style></defs><rect class="a" width="51.92" height="51.92"/><path class="b" d="M17,26.25c0-6.9,3.81-12.34,10.13-12.34a12,12,0,0,1,5,1.05l-1.06,3.16a8.22,8.22,0,0,0-3.74-.91c-3,0-5.54,2-6.12,6.59a9.39,9.39,0,0,1,5.27-1.63,6.53,6.53,0,0,1,6.8,6.94c0,4.79-3.3,7.75-7.78,7.75C20.83,36.86,17,33.56,17,26.25Zm12,3.43c0-2.72-1.46-4.18-3.57-4.18A7,7,0,0,0,21.3,27c.11,4.35,2,6.53,4.25,6.53S29,32.1,29,29.68Z"/><rect class="c" x="32.5" y="39.17" width="25.51" height="25.51"/></svg>