<svg xmlns="http://www.w3.org/2000/svg" width="58.02" height="64.68" viewBox="0 0 58.02 64.68"><defs><style>.a{fill:#00b4cd;}.b{fill:#fff;}.c{fill:#e0006d;}</style></defs><rect class="a" width="51.92" height="51.92"/><path class="b" d="M17.39,31.08a6,6,0,0,1,3.91-5.64v-.07C19.6,24.42,18,23.06,18,20.44c0-3.46,2.89-6.08,7.62-6.08s7.24,2.85,7.24,5.78a5.62,5.62,0,0,1-3.4,5.1v.06c2.28.89,4.15,2.45,4.15,5.41,0,3.74-2.83,6.6-8.26,6.6C20.24,37.31,17.39,34.79,17.39,31.08Zm12,0c0-2.62-2.68-3.4-4.89-4.05a4.13,4.13,0,0,0-2.76,3.64c0,2.35,1.84,3.5,3.91,3.5S29.35,33.06,29.35,31.05ZM28.6,20.51a2.94,2.94,0,0,0-3.19-3,2.81,2.81,0,0,0-3.09,2.75c0,2.18,1.93,3,3.94,3.57A3.77,3.77,0,0,0,28.6,20.51Z"/><rect class="c" x="32.5" y="39.16" width="25.51" height="25.51"/></svg>