<svg xmlns="http://www.w3.org/2000/svg" width="57.83" height="64.68" viewBox="0 0 57.83 64.68"><defs><style>.a{fill:#e0006d;}.b{fill:#4c2178;}.c{fill:#fff;}</style></defs><rect class="a" y="12.76" width="51.92" height="51.92"/><rect class="b" x="32.31" width="25.51" height="25.51"/><path class="c" d="M19.4,45.9a12.9,12.9,0,0,0,5,1.05c3.33,0,5.06-1.19,5.06-3.46a2.77,2.77,0,0,0-2.34-2.83,10.65,10.65,0,0,0-2.76-.27H21.41V37.13h2.38c3.36,0,5-1.16,5-3.27,0-1.8-1.12-3-3.43-3a12.09,12.09,0,0,0-5.41,1.53l-1.08-3.16a15.74,15.74,0,0,1,7-1.8c5,0,7.24,2.86,7.24,6a5,5,0,0,1-3.43,4.86v.07a4.84,4.84,0,0,1,4.11,5c0,3.91-2.85,7-9.11,7a16.71,16.71,0,0,1-6.43-1.26Z"/></svg>