<svg xmlns="http://www.w3.org/2000/svg" viewBox="0 0 181.42 28.35"><defs><style>.a{fill:#9ca299;}.b{fill:#efeff0;}.c{fill:#fff;}</style></defs><title>rmap-enhanced-growth</title><polygon class="a" points="113.99 28.1 124.72 17.36 135.46 28.1 113.99 28.1"/><path class="b" d="M124.72,17.71l10.14,10.14H114.59l10.13-10.14m0-.7L113.39,28.35h22.67L124.72,17Z"/><path class="c" d="M124.93,26.5a1.12,1.12,0,0,1-1.29-1.21v-3.1h-.92v-1h.92V20l1.32-.39V21.2h1.62l-.39,1H125V24.8c0,.41.16.6.5.6a1.73,1.73,0,0,0,.87-.29l.35.83A3.16,3.16,0,0,1,124.93,26.5Z"/></svg>