<svg xmlns="http://www.w3.org/2000/svg" viewBox="0 0 181.42 28.35"><defs><style>.a{fill:#9ca299;}.b{fill:#efeff0;}.c{fill:#fff;}</style></defs><title>ifsl-bm-defensive-capital</title><polygon class="a" points="65.8 28.1 76.54 17.36 87.27 28.1 65.8 28.1"/><path class="b" d="M76.54,17.71,86.67,27.85H66.4L76.54,17.71m0-.7L65.2,28.35H87.87L76.54,17Z"/><path class="c" d="M76.74,26.5a1.12,1.12,0,0,1-1.28-1.21v-3.1h-.93v-1h.93V20l1.31-.39V21.2h1.62l-.39,1H76.77V24.8c0,.41.16.6.5.6a1.73,1.73,0,0,0,.87-.29l.35.83A3.16,3.16,0,0,1,76.74,26.5Z"/></svg>