<svg xmlns="http://www.w3.org/2000/svg" viewBox="0 0 181.42 28.35"><defs><style>.a{fill:#9ca299;}.b{fill:#efeff0;}.c{fill:#fff;}.d{fill:#00a1c1;}</style></defs><title>mps-income</title><polygon class="a" points="77.14 28.1 87.87 17.36 98.61 28.1 77.14 28.1"/><path class="b" d="M87.87,17.71,98,27.85H77.74L87.87,17.71m0-.7L76.54,28.35H99.21L87.87,17Z"/><path class="c" d="M88.08,26.5a1.12,1.12,0,0,1-1.29-1.21v-3.1h-.92v-1h.92V20l1.32-.39V21.2h1.62l-.39,1H88.11V24.8c0,.41.16.6.5.6a1.66,1.66,0,0,0,.86-.29l.36.83A3.19,3.19,0,0,1,88.08,26.5Z"/><polygon class="d" points="77.14 0.25 98.61 0.25 87.87 10.98 77.14 0.25"/><path class="b" d="M98,.5,87.87,10.63,77.74.5H98m1.2-.5H76.54L87.87,11.34,99.21,0Z"/><path class="c" d="M87.78,7.28a3.57,3.57,0,0,1-1.93-.49l.43-1a2.57,2.57,0,0,0,1.4.46c.53,0,.89-.2.89-.55,0-.94-2.4-.58-2.4-2.35,0-.9.72-1.54,2-1.54a4,4,0,0,1,1.52.26v1.1a4.06,4.06,0,0,0-1.47-.34c-.46,0-.73.14-.73.45,0,.83,2.44.55,2.44,2.34C89.9,6.83,88.87,7.28,87.78,7.28Z"/></svg>