<svg xmlns="http://www.w3.org/2000/svg" viewBox="0 0 181.42 28.35"><defs><style>.a{fill:#9ca299;}.b{fill:#efeff0;}.c{fill:#fff;}.d{fill:#00a1c1;}</style></defs><title>2-income-portfolio</title><polygon class="a" points="43.12 28.1 53.86 17.36 64.59 28.1 43.12 28.1"/><path class="b" d="M53.86,17.71,64,27.85H43.73L53.86,17.71m0-.7L42.52,28.35H65.2L53.86,17Z"/><path class="c" d="M54.06,26.5a1.12,1.12,0,0,1-1.28-1.21v-3.1h-.92v-1h.92V20l1.32-.39V21.2h1.61l-.38,1H54.1V24.8c0,.41.15.6.49.6a1.73,1.73,0,0,0,.87-.29l.35.83A3.16,3.16,0,0,1,54.06,26.5Z"/><polygon class="d" points="48.79 0.25 70.26 0.25 59.53 10.98 48.79 0.25"/><path class="b" d="M69.66.5,59.53,10.63,49.4.5H69.66M70.87,0H48.19L59.53,11.34,70.87,0Z"/><path class="c" d="M59.43,7.28a3.53,3.53,0,0,1-1.92-.49l.42-1a2.57,2.57,0,0,0,1.4.46c.54,0,.89-.2.89-.55,0-.94-2.4-.58-2.4-2.35,0-.9.72-1.54,2-1.54a4.05,4.05,0,0,1,1.53.26v1.1a4.06,4.06,0,0,0-1.47-.34c-.47,0-.74.14-.74.45,0,.83,2.44.55,2.44,2.34C61.55,6.83,60.53,7.28,59.43,7.28Z"/></svg>