<svg xmlns="http://www.w3.org/2000/svg" viewBox="0 0 181.42 28.35"><defs><style>.a{fill:#00a1c1;}.b{fill:#efeff0;}.c{fill:#fff;}</style></defs><title>moderately-adventurous</title><polygon class="a" points="91.31 0.25 112.78 0.25 102.05 10.98 91.31 0.25"/><path class="b" d="M112.18.5,102.05,10.63,91.92.5h20.26m1.21-.5H90.71l11.34,11.34L113.39,0Z"/><path class="c" d="M102,7.28A3.53,3.53,0,0,1,100,6.79l.42-1a2.57,2.57,0,0,0,1.4.46c.54,0,.89-.2.89-.55,0-.94-2.4-.58-2.4-2.35,0-.9.72-1.54,2-1.54a4.05,4.05,0,0,1,1.53.26v1.1a4.06,4.06,0,0,0-1.47-.34c-.47,0-.74.14-.74.45,0,.83,2.44.55,2.44,2.34C104.07,6.83,103.05,7.28,102,7.28Z"/></svg>