<svg xmlns="http://www.w3.org/2000/svg" xmlns:xlink="http://www.w3.org/1999/xlink" viewBox="0 0 478 481.62"><defs><style>.a{fill:none;}.b{clip-path:url(#a);}.c{fill:#67b5e5;}.d{fill:#7ebd5f;}.e{fill:#055a60;}</style><clipPath id="a"><rect class="a" width="478" height="481.62"/></clipPath></defs><g class="b"><path class="c" d="M253,416.71C152.87,424.1,65.46,350.4,57.73,252.1S124.89,68.08,225,60.68,412.52,127,420.24,225.29c7.39,94-61,177.35-156,190.24Z"/><path class="d" d="M400,178.6c35.75,92.66-10.07,194.67-102.34,227.85C215.46,436,122.29,401.13,78,324.19Z"/><path class="d" d="M230.27,60.14c100.13-4.78,185.23,70.91,190.08,169S348,410.7,247.84,415.46q-5.75.27-11.52.19Z"/><path class="e" d="M115.21,158.73a3,3,0,0,0-.33-1.5,2.2,2.2,0,0,0-.79-.88,2.75,2.75,0,0,0-1-.35,7.48,7.48,0,0,0-1.07-.08h-1.5v5.89h1.58a3.87,3.87,0,0,0,1.41-.22,2.49,2.49,0,0,0,.94-.64,2.93,2.93,0,0,0,.55-1,4.13,4.13,0,0,0,.19-1.24m3.68-.26a6.92,6.92,0,0,1-.45,2.59,5.06,5.06,0,0,1-1.33,1.9,5.74,5.74,0,0,1-2.14,1.17,9.82,9.82,0,0,1-3,.41h-1.44v5.54a.36.36,0,0,1-.09.24.57.57,0,0,1-.29.17,2.55,2.55,0,0,1-.53.11,6.88,6.88,0,0,1-.86,0,7,7,0,0,1-.86,0,2.67,2.67,0,0,1-.54-.11.54.54,0,0,1-.28-.17.41.41,0,0,1-.08-.24V154.46a1.22,1.22,0,0,1,.33-.94,1.2,1.2,0,0,1,.86-.32h4.09c.42,0,.81,0,1.18.05a10.28,10.28,0,0,1,1.33.2,5.69,5.69,0,0,1,1.58.57,4.76,4.76,0,0,1,1.36,1,4.41,4.41,0,0,1,.86,1.49,5.76,5.76,0,0,1,.29,1.91"/><path class="e" d="M129.53,164.13a8.32,8.32,0,0,0-.14-1.63,3.79,3.79,0,0,0-.47-1.29,2.32,2.32,0,0,0-.9-.86,2.9,2.9,0,0,0-1.4-.31,3,3,0,0,0-1.31.27,2.42,2.42,0,0,0-.93.81,3.87,3.87,0,0,0-.54,1.27,7.33,7.33,0,0,0-.18,1.7,8.22,8.22,0,0,0,.15,1.63,3.85,3.85,0,0,0,.47,1.3,2.34,2.34,0,0,0,.89.85,3,3,0,0,0,1.4.3,3.07,3.07,0,0,0,1.33-.27,2.44,2.44,0,0,0,.92-.8,3.87,3.87,0,0,0,.54-1.27,7.24,7.24,0,0,0,.17-1.7M133,164a9.4,9.4,0,0,1-.4,2.79,5.87,5.87,0,0,1-1.23,2.17,5.37,5.37,0,0,1-2,1.41,7.68,7.68,0,0,1-2.88.5,7.79,7.79,0,0,1-2.78-.45,5,5,0,0,1-2-1.28,5.33,5.33,0,0,1-1.15-2.08,9.72,9.72,0,0,1-.38-2.82,9.19,9.19,0,0,1,.41-2.8,6,6,0,0,1,1.23-2.17,5.54,5.54,0,0,1,2.05-1.4,7.59,7.59,0,0,1,2.87-.5,8,8,0,0,1,2.79.44,5,5,0,0,1,2,1.28,5.37,5.37,0,0,1,1.14,2.08A9.69,9.69,0,0,1,133,164"/><path class="e" d="M144.1,166.72a4,4,0,0,1-.38,1.8,3.68,3.68,0,0,1-1.08,1.3,5.05,5.05,0,0,1-1.65.79,8,8,0,0,1-2.07.26,8.85,8.85,0,0,1-1.28-.1,8.76,8.76,0,0,1-1.09-.26,5.47,5.47,0,0,1-.81-.32,2,2,0,0,1-.47-.29,1.05,1.05,0,0,1-.22-.45,3.4,3.4,0,0,1-.08-.89,5.36,5.36,0,0,1,0-.62,2,2,0,0,1,.08-.38.36.36,0,0,1,.14-.19.4.4,0,0,1,.2,0,1,1,0,0,1,.43.16,7.86,7.86,0,0,0,.72.37,7.52,7.52,0,0,0,1,.38,4.66,4.66,0,0,0,1.3.17,3.35,3.35,0,0,0,.81-.09,1.89,1.89,0,0,0,.61-.27,1.12,1.12,0,0,0,.4-.44,1.38,1.38,0,0,0,.13-.62,1,1,0,0,0-.24-.69,2.29,2.29,0,0,0-.66-.5,6.8,6.8,0,0,0-.93-.41c-.34-.12-.69-.26-1.06-.41a8.61,8.61,0,0,1-1-.53,3.63,3.63,0,0,1-.93-.72,3.31,3.31,0,0,1-.66-1,3.92,3.92,0,0,1-.25-1.45,3.76,3.76,0,0,1,.34-1.58,3.46,3.46,0,0,1,1-1.23,4.65,4.65,0,0,1,1.54-.78,6.42,6.42,0,0,1,2-.29,7.91,7.91,0,0,1,1.1.08,7.64,7.64,0,0,1,1,.21,4.28,4.28,0,0,1,.72.25,2.17,2.17,0,0,1,.42.25.48.48,0,0,1,.18.2.57.57,0,0,1,.08.24,2.43,2.43,0,0,1,0,.35c0,.14,0,.31,0,.51s0,.44,0,.59a1.43,1.43,0,0,1-.07.37.32.32,0,0,1-.12.18.41.41,0,0,1-.19,0,.93.93,0,0,1-.38-.13,6.2,6.2,0,0,0-.63-.31,7.11,7.11,0,0,0-.89-.3,4.42,4.42,0,0,0-1.15-.14,3.12,3.12,0,0,0-.79.09,1.76,1.76,0,0,0-.55.27,1.14,1.14,0,0,0-.32.41,1.26,1.26,0,0,0-.11.51,1,1,0,0,0,.26.69,2.21,2.21,0,0,0,.67.5,7.59,7.59,0,0,0,.94.4c.36.13.72.26,1.08.41a9.57,9.57,0,0,1,1.07.52,4.18,4.18,0,0,1,1,.72,3.4,3.4,0,0,1,.67,1,3.59,3.59,0,0,1,.25,1.41"/><path class="e" d="M150.07,170.1a.41.41,0,0,1-.08.24.66.66,0,0,1-.27.17,3.71,3.71,0,0,1-.52.1c-.21,0-.49,0-.82,0s-.6,0-.82,0a3.53,3.53,0,0,1-.51-.1.79.79,0,0,1-.28-.17.41.41,0,0,1-.08-.24V158.16a.38.38,0,0,1,.08-.23.68.68,0,0,1,.28-.18,3.37,3.37,0,0,1,.51-.11,6.3,6.3,0,0,1,.82,0,6.21,6.21,0,0,1,.82,0,3.54,3.54,0,0,1,.52.11.58.58,0,0,1,.27.18.38.38,0,0,1,.08.23Zm.26-16a1.9,1.9,0,0,1-.42,1.42,2.35,2.35,0,0,1-1.54.38,2.32,2.32,0,0,1-1.54-.37,2.6,2.6,0,0,1,0-2.77,2.21,2.21,0,0,1,1.54-.4,2.28,2.28,0,0,1,1.53.38,1.84,1.84,0,0,1,.41,1.36"/><path class="e" d="M166.4,154.08a1.91,1.91,0,0,1-.42,1.42,3.35,3.35,0,0,1-3.08,0,2.6,2.6,0,0,1,0-2.77,2.22,2.22,0,0,1,1.55-.4,2.3,2.3,0,0,1,1.53.38,1.89,1.89,0,0,1,.4,1.36m-1.28,3.6a1.05,1.05,0,0,1,.79.24,1,1,0,0,1,.22.7V170.1a.41.41,0,0,1-.08.24.57.57,0,0,1-.27.17,3.27,3.27,0,0,1-.51.1c-.23,0-.49,0-.82,0s-.6,0-.82,0a3.44,3.44,0,0,1-.52-.1.7.7,0,0,1-.27-.17.41.41,0,0,1-.08-.24v-9.68h-5.38V166a2.87,2.87,0,0,0,.31,1.47,1.22,1.22,0,0,0,1.1.49,2.28,2.28,0,0,0,.48-.05,2.66,2.66,0,0,0,.39-.11l.28-.11a.56.56,0,0,1,.21,0,.28.28,0,0,1,.15,0,.39.39,0,0,1,.12.19c0,.1.05.22.07.38a5.34,5.34,0,0,1,0,.62,4.84,4.84,0,0,1-.06.89,1.12,1.12,0,0,1-.19.45,1,1,0,0,1-.36.24,3.71,3.71,0,0,1-.56.17,6.15,6.15,0,0,1-.69.12c-.24,0-.49,0-.74,0a5.31,5.31,0,0,1-1.74-.26,2.92,2.92,0,0,1-1.22-.78,3.26,3.26,0,0,1-.72-1.34,7.09,7.09,0,0,1-.22-1.9v-6.13h-1.44c-.17,0-.3-.11-.39-.32a2.93,2.93,0,0,1-.13-1,6.12,6.12,0,0,1,0-.66,2.17,2.17,0,0,1,.1-.42.5.5,0,0,1,.17-.22.4.4,0,0,1,.24-.07H154V155a.4.4,0,0,1,.07-.24.58.58,0,0,1,.27-.18,2,2,0,0,1,.52-.11q.33,0,.81,0c.33,0,.61,0,.83,0a2,2,0,0,1,.52.11.71.71,0,0,1,.27.18.4.4,0,0,1,.07.24v2.67Z"/><path class="e" d="M180.54,158.12s0,.1,0,.16a.76.76,0,0,1,0,.21c0,.08,0,.16-.05.26s0,.21-.09.34l-3.59,10.82a1.16,1.16,0,0,1-.18.37.7.7,0,0,1-.38.22,2.86,2.86,0,0,1-.71.11q-.45,0-1.17,0c-.48,0-.86,0-1.16,0a3.33,3.33,0,0,1-.71-.12.78.78,0,0,1-.37-.22,1.21,1.21,0,0,1-.18-.36l-3.59-10.82a4.44,4.44,0,0,1-.13-.48l-.06-.31v-.18a.39.39,0,0,1,.07-.23.59.59,0,0,1,.26-.17,2,2,0,0,1,.52-.09c.22,0,.49,0,.83,0s.66,0,.88,0a3.61,3.61,0,0,1,.53.1.58.58,0,0,1,.28.17,1.46,1.46,0,0,1,.13.28l2.72,8.79.08.33.08-.33,2.69-8.79a.79.79,0,0,1,.12-.28.58.58,0,0,1,.28-.17,3.36,3.36,0,0,1,.5-.1c.21,0,.49,0,.83,0s.6,0,.81,0a1.79,1.79,0,0,1,.49.09.57.57,0,0,1,.24.17.48.48,0,0,1,.07.23"/><path class="e" d="M190,162.8a3.43,3.43,0,0,0-.57-2.23,2.21,2.21,0,0,0-1.88-.81,2.51,2.51,0,0,0-1.13.24,2.38,2.38,0,0,0-.79.65,3,3,0,0,0-.48,1,5,5,0,0,0-.2,1.18Zm3.27,1a1.3,1.3,0,0,1-.27.91,1,1,0,0,1-.76.3H185a5,5,0,0,0,.19,1.39,2.71,2.71,0,0,0,.57,1.06,2.58,2.58,0,0,0,1,.66,4.46,4.46,0,0,0,1.5.23,7.87,7.87,0,0,0,1.55-.13,10.14,10.14,0,0,0,1.17-.28c.32-.1.59-.2.81-.28a1.4,1.4,0,0,1,.52-.13.39.39,0,0,1,.2.05.31.31,0,0,1,.13.16,1,1,0,0,1,.08.35c0,.15,0,.33,0,.55s0,.37,0,.51a3.06,3.06,0,0,1,0,.35,1.23,1.23,0,0,1-.08.25.9.9,0,0,1-.15.19,1.34,1.34,0,0,1-.47.26,8,8,0,0,1-1,.32,12.68,12.68,0,0,1-1.38.26,10.89,10.89,0,0,1-1.66.12,8.79,8.79,0,0,1-2.8-.41,4.89,4.89,0,0,1-2-1.22,5,5,0,0,1-1.2-2.06,9.52,9.52,0,0,1-.4-2.93,9.16,9.16,0,0,1,.42-2.87,5.91,5.91,0,0,1,1.2-2.18,5.21,5.21,0,0,1,1.93-1.36,6.7,6.7,0,0,1,2.55-.47,6.6,6.6,0,0,1,2.57.45A4.56,4.56,0,0,1,192,159a5.09,5.09,0,0,1,1,1.86,8.2,8.2,0,0,1,.32,2.33Z"/><path class="e" d="M110.55,203a.36.36,0,0,1-.09.24.68.68,0,0,1-.28.18,2.91,2.91,0,0,1-.54.1,6.88,6.88,0,0,1-.86,0,6.81,6.81,0,0,1-.85,0,2.88,2.88,0,0,1-.55-.1.62.62,0,0,1-.28-.18A.36.36,0,0,1,107,203V186.56a.4.4,0,0,1,.09-.25.6.6,0,0,1,.29-.17,3.89,3.89,0,0,1,.54-.11c.23,0,.51,0,.85,0s.63,0,.86,0a3.89,3.89,0,0,1,.54.11.67.67,0,0,1,.28.17.4.4,0,0,1,.09.25Z"/><path class="e" d="M133.17,203a.38.38,0,0,1-.08.23.6.6,0,0,1-.27.17,2.41,2.41,0,0,1-.51.1c-.21,0-.49,0-.82,0s-.62,0-.83,0a2.67,2.67,0,0,1-.52-.1.44.44,0,0,1-.26-.17.32.32,0,0,1-.08-.23v-7.1a5.32,5.32,0,0,0-.11-1.1,2.75,2.75,0,0,0-.35-.85,1.63,1.63,0,0,0-.59-.55,1.75,1.75,0,0,0-.85-.2,2,2,0,0,0-1.22.47,8.36,8.36,0,0,0-1.35,1.37v8a.32.32,0,0,1-.08.23.5.5,0,0,1-.27.17,2.52,2.52,0,0,1-.52.1c-.21,0-.48,0-.8,0s-.61,0-.82,0a2.52,2.52,0,0,1-.52-.1.5.5,0,0,1-.27-.17A.32.32,0,0,1,122,203v-7.1a4.69,4.69,0,0,0-.12-1.1,2.52,2.52,0,0,0-.34-.85,1.56,1.56,0,0,0-.59-.55,1.74,1.74,0,0,0-.84-.2,2,2,0,0,0-1.24.47,8.34,8.34,0,0,0-1.33,1.37v8a.32.32,0,0,1-.08.23.5.5,0,0,1-.27.17,2.52,2.52,0,0,1-.52.1c-.21,0-.49,0-.82,0s-.6,0-.82,0a2.55,2.55,0,0,1-.51-.1.58.58,0,0,1-.28-.17.38.38,0,0,1-.08-.23V191a.35.35,0,0,1,.07-.23.42.42,0,0,1,.24-.17,2.17,2.17,0,0,1,.45-.1,6.47,6.47,0,0,1,.69,0,6.88,6.88,0,0,1,.71,0,1.8,1.8,0,0,1,.44.1.48.48,0,0,1,.22.17.42.42,0,0,1,.07.23v1.38a8,8,0,0,1,2-1.61,4.19,4.19,0,0,1,2.06-.53,5.32,5.32,0,0,1,1.32.15,3.75,3.75,0,0,1,1.06.44,3.5,3.5,0,0,1,.79.69,4.16,4.16,0,0,1,.57.9,11.75,11.75,0,0,1,1-1,6,6,0,0,1,1-.68,5,5,0,0,1,1-.39,4.31,4.31,0,0,1,1-.12,4.47,4.47,0,0,1,2,.4,3.48,3.48,0,0,1,1.33,1.09,4.42,4.42,0,0,1,.71,1.62,8.29,8.29,0,0,1,.22,2Z"/><path class="e" d="M144.93,197.06a10,10,0,0,0-.11-1.47,4.47,4.47,0,0,0-.39-1.25,2.45,2.45,0,0,0-.73-.88,1.84,1.84,0,0,0-1.12-.33,2.16,2.16,0,0,0-.66.1,2.77,2.77,0,0,0-.67.33,4.52,4.52,0,0,0-.71.59,8.45,8.45,0,0,0-.76.9V199a7.83,7.83,0,0,0,1.35,1.39,2.18,2.18,0,0,0,1.35.49,1.9,1.9,0,0,0,1.12-.33,2.68,2.68,0,0,0,.75-.88,4.27,4.27,0,0,0,.44-1.23,7.08,7.08,0,0,0,.14-1.37m3.51-.24a11.16,11.16,0,0,1-.34,2.88,6.54,6.54,0,0,1-1,2.18,4.43,4.43,0,0,1-1.63,1.38,5,5,0,0,1-2.24.48,4.1,4.1,0,0,1-1-.1,3.77,3.77,0,0,1-.85-.31,6,6,0,0,1-.81-.51,8.86,8.86,0,0,1-.83-.73v5.64a.43.43,0,0,1-.08.24.62.62,0,0,1-.28.18,2.47,2.47,0,0,1-.51.11,6.3,6.3,0,0,1-.82,0,6.21,6.21,0,0,1-.82,0,2.59,2.59,0,0,1-.52-.11.58.58,0,0,1-.27-.18.43.43,0,0,1-.08-.24V191a.35.35,0,0,1,.07-.23.42.42,0,0,1,.23-.17,1.51,1.51,0,0,1,.44-.1,4.58,4.58,0,0,1,.69,0,4.36,4.36,0,0,1,.68,0,1.51,1.51,0,0,1,.44.1.45.45,0,0,1,.24.17.42.42,0,0,1,.07.23v1.41a11,11,0,0,1,1-.95,6.31,6.31,0,0,1,1-.68,4.89,4.89,0,0,1,1.08-.41,5,5,0,0,1,1.19-.13,4.6,4.6,0,0,1,2.24.51,4.25,4.25,0,0,1,1.5,1.42,6.34,6.34,0,0,1,.86,2.09,12.17,12.17,0,0,1,.26,2.55"/><path class="e" d="M158,197.89h-1.29a6.91,6.91,0,0,0-1.39.12,2.71,2.71,0,0,0-.94.36,1.56,1.56,0,0,0-.53.59,1.79,1.79,0,0,0-.17.78,1.49,1.49,0,0,0,.48,1.18,1.89,1.89,0,0,0,1.32.43,2.51,2.51,0,0,0,1.31-.36,5.19,5.19,0,0,0,1.21-1.06Zm3.32,5.13a.36.36,0,0,1-.14.29.92.92,0,0,1-.42.16,6.13,6.13,0,0,1-.85,0,6.26,6.26,0,0,1-.88,0,.79.79,0,0,1-.39-.16.4.4,0,0,1-.11-.29v-1a5.63,5.63,0,0,1-1.69,1.24,5,5,0,0,1-2.1.44,5.74,5.74,0,0,1-1.75-.25,3.82,3.82,0,0,1-1.38-.74,3.2,3.2,0,0,1-.9-1.21,4,4,0,0,1-.33-1.69,3.91,3.91,0,0,1,.41-1.82,3.29,3.29,0,0,1,1.22-1.27,6.3,6.3,0,0,1,2-.75,14.58,14.58,0,0,1,2.81-.24H158v-.72a4.1,4.1,0,0,0-.11-1,1.64,1.64,0,0,0-.38-.7,1.5,1.5,0,0,0-.69-.42,3.8,3.8,0,0,0-1.08-.13,5.33,5.33,0,0,0-1.51.19,8.06,8.06,0,0,0-1.18.41c-.34.15-.62.29-.85.42a1.33,1.33,0,0,1-.55.19.39.39,0,0,1-.27-.1.61.61,0,0,1-.18-.27,1.87,1.87,0,0,1-.12-.43,3.13,3.13,0,0,1,0-.56,2.33,2.33,0,0,1,.07-.66,1,1,0,0,1,.25-.43,2.49,2.49,0,0,1,.66-.43,7.86,7.86,0,0,1,1.1-.44,12,12,0,0,1,1.37-.33,9.7,9.7,0,0,1,1.54-.12,9.37,9.37,0,0,1,2.41.27,4,4,0,0,1,1.64.85,3.19,3.19,0,0,1,.94,1.46,6.87,6.87,0,0,1,.3,2.14Z"/><path class="e" d="M173.81,201.07a4.89,4.89,0,0,1,0,.58,3.34,3.34,0,0,1,0,.4,1,1,0,0,1-.08.26,1,1,0,0,1-.21.26,2.83,2.83,0,0,1-.55.37,5.54,5.54,0,0,1-.88.4,6.42,6.42,0,0,1-1.09.28,7,7,0,0,1-3.64-.32A4.54,4.54,0,0,1,165.5,202a5.56,5.56,0,0,1-1.1-2,9.74,9.74,0,0,1-.36-2.77,9.54,9.54,0,0,1,.44-3.1,5.84,5.84,0,0,1,1.26-2.17,4.9,4.9,0,0,1,1.9-1.27,6.76,6.76,0,0,1,2.42-.42,6,6,0,0,1,1.05.09,6.87,6.87,0,0,1,1,.26,4.94,4.94,0,0,1,.8.36,2,2,0,0,1,.5.35,1.31,1.31,0,0,1,.21.25.94.94,0,0,1,.1.26,3.34,3.34,0,0,1,.05.4c0,.15,0,.34,0,.56a3.11,3.11,0,0,1-.13,1.1c-.09.21-.21.31-.35.31a.82.82,0,0,1-.49-.19l-.6-.41a4.93,4.93,0,0,0-.83-.42,3.31,3.31,0,0,0-1.16-.19,2.3,2.3,0,0,0-2,1,5.3,5.3,0,0,0-.69,3,7.24,7.24,0,0,0,.17,1.7,3.62,3.62,0,0,0,.52,1.24,2.11,2.11,0,0,0,.86.74,2.65,2.65,0,0,0,1.2.25,3.14,3.14,0,0,0,1.2-.21,5.57,5.57,0,0,0,.88-.46c.24-.17.46-.32.63-.46a.71.71,0,0,1,.42-.21.27.27,0,0,1,.2.07.39.39,0,0,1,.13.24,3.47,3.47,0,0,1,.08.47c0,.19,0,.43,0,.72"/><path class="e" d="M183.34,201.8a4.07,4.07,0,0,1-.08.9,1,1,0,0,1-.19.44.9.9,0,0,1-.36.23,3.1,3.1,0,0,1-.54.18,6.65,6.65,0,0,1-.69.11,6.06,6.06,0,0,1-.75,0,5.37,5.37,0,0,1-1.74-.25,2.94,2.94,0,0,1-1.22-.79,3.27,3.27,0,0,1-.71-1.33,7.19,7.19,0,0,1-.23-1.91v-6.13h-1.44c-.16,0-.29-.1-.38-.32a2.85,2.85,0,0,1-.14-1.05,5.64,5.64,0,0,1,0-.65,1.43,1.43,0,0,1,.1-.43.48.48,0,0,1,.17-.22.41.41,0,0,1,.23-.06h1.42v-2.67a.39.39,0,0,1,.08-.25.6.6,0,0,1,.26-.18,2.08,2.08,0,0,1,.53-.1,6.24,6.24,0,0,1,.81,0,6.3,6.3,0,0,1,.82,0,1.91,1.91,0,0,1,.52.1.58.58,0,0,1,.27.18.46.46,0,0,1,.08.25v2.67h2.6a.48.48,0,0,1,.24.06.55.55,0,0,1,.16.22,1.43,1.43,0,0,1,.1.43,4,4,0,0,1,0,.65,2.85,2.85,0,0,1-.14,1.05c-.09.22-.22.32-.38.32H180.2v5.62a2.75,2.75,0,0,0,.31,1.47,1.18,1.18,0,0,0,1.1.49,2.33,2.33,0,0,0,.48,0,2.85,2.85,0,0,0,.38-.12l.28-.1a.63.63,0,0,1,.21-.05.3.3,0,0,1,.16.05.31.31,0,0,1,.11.19,2.18,2.18,0,0,1,.07.38,3.57,3.57,0,0,1,0,.62"/><path class="e" d="M167.55,12.77,171.41,14a8.71,8.71,0,0,1-2.95,4.79,9.26,9.26,0,0,1-11.66-1.12,10.23,10.23,0,0,1-2.52-7.32q0-4.9,2.53-7.62A8.7,8.7,0,0,1,163.48,0a8.19,8.19,0,0,1,5.86,2.13,7.86,7.86,0,0,1,2,3.63l-3.93.93a4.06,4.06,0,0,0-4.15-3.3A4.48,4.48,0,0,0,159.73,5c-.91,1-1.37,2.74-1.37,5.09s.45,4.26,1.35,5.31a4.32,4.32,0,0,0,3.48,1.58,4,4,0,0,0,2.73-1,5.85,5.85,0,0,0,1.63-3.17"/></g><rect class="e" x="174.68" y="0.34" width="3.77" height="19.66"/><path class="e" d="M182.39,20h3.77V5.76h-3.77Zm0-16.18h3.77V.34h-3.77Z"/><g class="b"><path class="e" d="M189.82,5.76h3.48V7.7a5.59,5.59,0,0,1,4.44-2.27,4.72,4.72,0,0,1,2.37.57,4.17,4.17,0,0,1,1.65,1.7,6.6,6.6,0,0,1,2-1.7,4.92,4.92,0,0,1,2.32-.57,5.24,5.24,0,0,1,2.66.64,4,4,0,0,1,1.62,1.87,8.13,8.13,0,0,1,.39,3V20H207V11.86a6.1,6.1,0,0,0-.39-2.74,1.8,1.8,0,0,0-1.61-.8,2.6,2.6,0,0,0-2.49,1.9,10,10,0,0,0-.31,2.94V20h-3.77V12.19a11.12,11.12,0,0,0-.2-2.68,1.79,1.79,0,0,0-.63-.9,2,2,0,0,0-1.15-.29,2.73,2.73,0,0,0-1.56.47,2.52,2.52,0,0,0-1,1.35,10.05,10.05,0,0,0-.31,2.94V20h-3.77Z"/><path class="e" d="M222.39,13.16a22,22,0,0,1-2.29.58,7,7,0,0,0-2,.65,1.59,1.59,0,0,0-.74,1.33,1.85,1.85,0,0,0,.59,1.37,2,2,0,0,0,1.5.58,3.26,3.26,0,0,0,1.95-.67,2.39,2.39,0,0,0,.9-1.25,7.45,7.45,0,0,0,.14-1.84Zm-5-3.06-3.42-.61a5.34,5.34,0,0,1,2-3.06,7.18,7.18,0,0,1,4.18-1,9,9,0,0,1,3.76.6,3.69,3.69,0,0,1,1.73,1.52,7.64,7.64,0,0,1,.51,3.37l0,4.4a15.42,15.42,0,0,0,.18,2.77,7.61,7.61,0,0,0,.68,1.91h-3.73q-.15-.37-.36-1.11c-.07-.23-.11-.37-.14-.44a6.71,6.71,0,0,1-2.07,1.4,5.76,5.76,0,0,1-2.34.47,4.83,4.83,0,0,1-3.47-1.19,3.94,3.94,0,0,1-1.27-3,4,4,0,0,1,.58-2.15,3.78,3.78,0,0,1,1.61-1.45,13.08,13.08,0,0,1,3-.88,20.91,20.91,0,0,0,3.66-.92v-.38a2,2,0,0,0-.53-1.55,3.21,3.21,0,0,0-2-.46,2.74,2.74,0,0,0-1.57.39,2.88,2.88,0,0,0-.91,1.39"/><path class="e" d="M236.35,5.76v3h-2.58V14.5a16.36,16.36,0,0,0,.07,2,.79.79,0,0,0,.34.48,1,1,0,0,0,.64.19,4.86,4.86,0,0,0,1.51-.36l.32,2.92a7.35,7.35,0,0,1-3,.56,4.68,4.68,0,0,1-1.84-.34,2.65,2.65,0,0,1-1.2-.88,3.48,3.48,0,0,1-.53-1.47A18.39,18.39,0,0,1,230,15V8.76h-1.73v-3H230V2.93l3.78-2.2v5Z"/><path class="e" d="M247.43,11.66a3.64,3.64,0,0,0-.85-2.49,2.58,2.58,0,0,0-2-.85,2.63,2.63,0,0,0-2,.9,3.55,3.55,0,0,0-.79,2.44Zm-.22,3.81,3.76.63a6.19,6.19,0,0,1-2.29,3.14,6.7,6.7,0,0,1-3.91,1.08,6.36,6.36,0,0,1-5.5-2.42A8.17,8.17,0,0,1,237.86,13a7.88,7.88,0,0,1,1.85-5.55,6.11,6.11,0,0,1,4.68-2,6.32,6.32,0,0,1,5,2.1c1.23,1.4,1.81,3.55,1.76,6.44h-9.44a3.77,3.77,0,0,0,.91,2.6,2.82,2.82,0,0,0,2.17.94A2.32,2.32,0,0,0,246.3,17a3,3,0,0,0,.91-1.56"/></g><polygon class="e" points="261.35 0.34 261.35 20 265.32 20 265.32 11.65 273.53 11.65 273.53 8.32 265.32 8.32 265.32 3.66 274.83 3.66 274.83 0.34 261.35 0.34"/><g class="b"><path class="e" d="M281,12.88a4.71,4.71,0,0,0,1,3.24,3.29,3.29,0,0,0,5,0,4.76,4.76,0,0,0,1-3.27,4.69,4.69,0,0,0-1-3.22,3.31,3.31,0,0,0-5,0,4.74,4.74,0,0,0-1,3.25m-3.86-.2A7.71,7.71,0,0,1,278.05,9a6.39,6.39,0,0,1,2.62-2.68,7.79,7.79,0,0,1,3.79-.93,7.15,7.15,0,0,1,5.3,2.1,7.25,7.25,0,0,1,2.07,5.31,7.36,7.36,0,0,1-2.09,5.36,7,7,0,0,1-5.25,2.12,8.29,8.29,0,0,1-3.74-.88,6.12,6.12,0,0,1-2.7-2.6,8.58,8.58,0,0,1-.92-4.16"/><path class="e" d="M307.12,10l-3.72.67A2.71,2.71,0,0,0,302.55,9a2.6,2.6,0,0,0-1.72-.56,2.82,2.82,0,0,0-2.25,1,5,5,0,0,0-.84,3.25,5.73,5.73,0,0,0,.85,3.58,2.8,2.8,0,0,0,2.29,1.05,2.53,2.53,0,0,0,1.76-.61,3.71,3.71,0,0,0,1-2.1l3.71.63A6.53,6.53,0,0,1,305.09,19a6.82,6.82,0,0,1-4.38,1.3,6.51,6.51,0,0,1-5-2,7.62,7.62,0,0,1-1.85-5.46,7.63,7.63,0,0,1,1.86-5.49,6.61,6.61,0,0,1,5-2,6.91,6.91,0,0,1,4.14,1.12A6.22,6.22,0,0,1,307.12,10"/><path class="e" d="M319.35,20V17.87a5.55,5.55,0,0,1-2,1.8,5.73,5.73,0,0,1-2.68.65,5.21,5.21,0,0,1-2.57-.63,3.63,3.63,0,0,1-1.65-1.77,7.72,7.72,0,0,1-.51-3.15v-9h3.76V12.3a17.89,17.89,0,0,0,.21,3.68,2,2,0,0,0,.76,1.08,2.36,2.36,0,0,0,1.4.39,2.93,2.93,0,0,0,1.73-.53,2.63,2.63,0,0,0,1-1.31,15.24,15.24,0,0,0,.28-3.84v-6h3.77V20Z"/><path class="e" d="M325.32,15.94l3.78-.58a2.79,2.79,0,0,0,1,1.67,3.31,3.31,0,0,0,2.07.57,3.8,3.8,0,0,0,2.2-.53,1.21,1.21,0,0,0,.49-1,1,1,0,0,0-.26-.71,3,3,0,0,0-1.27-.5A20.61,20.61,0,0,1,327.53,13a3.71,3.71,0,0,1-1.69-3.21,4,4,0,0,1,1.46-3.12,6.86,6.86,0,0,1,4.54-1.26,7.82,7.82,0,0,1,4.34,1,4.8,4.8,0,0,1,2,2.81l-3.55.66a2.16,2.16,0,0,0-.87-1.27,3.1,3.1,0,0,0-1.81-.45,4.07,4.07,0,0,0-2.14.42.91.91,0,0,0-.43.76.85.85,0,0,0,.38.69,14.29,14.29,0,0,0,3.52,1.06,10.31,10.31,0,0,1,4.21,1.68,3.5,3.5,0,0,1,1.18,2.8A4.28,4.28,0,0,1,337,18.91a7.19,7.19,0,0,1-4.84,1.41,7.93,7.93,0,0,1-4.61-1.18,5.42,5.42,0,0,1-2.22-3.2"/><path class="e" d="M292.35,234.73a3.15,3.15,0,0,0-.32-1.5,2.18,2.18,0,0,0-.79-.87,2.7,2.7,0,0,0-1-.36,7.48,7.48,0,0,0-1.07-.08h-1.5v5.9h1.58a3.87,3.87,0,0,0,1.42-.23,2.53,2.53,0,0,0,.93-.64,2.68,2.68,0,0,0,.55-1,3.79,3.79,0,0,0,.19-1.24m3.69-.26a6.73,6.73,0,0,1-.46,2.59,4.88,4.88,0,0,1-1.33,1.9,5.64,5.64,0,0,1-2.13,1.17,9.91,9.91,0,0,1-3,.41h-1.45v5.54a.36.36,0,0,1-.09.24.54.54,0,0,1-.28.17,2.22,2.22,0,0,1-.54.11,6.88,6.88,0,0,1-.86,0,6.81,6.81,0,0,1-.85,0,2.21,2.21,0,0,1-.55-.11.58.58,0,0,1-.28-.17.41.41,0,0,1-.08-.24V230.46a1.24,1.24,0,0,1,.33-.94,1.21,1.21,0,0,1,.87-.32h4.09c.41,0,.8,0,1.17.05a12.9,12.9,0,0,1,1.34.2,5.63,5.63,0,0,1,1.57.57,4.94,4.94,0,0,1,1.37,1,4.39,4.39,0,0,1,.85,1.49,5.76,5.76,0,0,1,.3,1.91"/><path class="e" d="M306.68,240.13a9.25,9.25,0,0,0-.14-1.63,4.12,4.12,0,0,0-.48-1.29,2.37,2.37,0,0,0-.89-.86,3.28,3.28,0,0,0-2.72,0,2.39,2.39,0,0,0-.93.8,4.15,4.15,0,0,0-.54,1.28,7.24,7.24,0,0,0-.18,1.69,8.4,8.4,0,0,0,.15,1.64,4.37,4.37,0,0,0,.47,1.29,2.23,2.23,0,0,0,.9.85,2.92,2.92,0,0,0,1.39.3,3,3,0,0,0,1.33-.27,2.32,2.32,0,0,0,.93-.8,3.58,3.58,0,0,0,.53-1.27,7.21,7.21,0,0,0,.18-1.7m3.47-.13a9.09,9.09,0,0,1-.4,2.79,5.92,5.92,0,0,1-1.22,2.17,5.45,5.45,0,0,1-2,1.41,7.77,7.77,0,0,1-2.89.5,8,8,0,0,1-2.77-.44,5,5,0,0,1-2-1.29,5.28,5.28,0,0,1-1.16-2.08,9.69,9.69,0,0,1-.37-2.82,8.79,8.79,0,0,1,.41-2.79,6,6,0,0,1,1.22-2.18,5.54,5.54,0,0,1,2.05-1.4,7.66,7.66,0,0,1,2.87-.5,8.11,8.11,0,0,1,2.8.44,4.92,4.92,0,0,1,1.95,1.28,5.6,5.6,0,0,1,1.15,2.08,9.76,9.76,0,0,1,.37,2.83"/><path class="e" d="M321.24,242.72a3.94,3.94,0,0,1-.38,1.8,3.48,3.48,0,0,1-1.08,1.3,4.86,4.86,0,0,1-1.65.79,7.9,7.9,0,0,1-2.06.26,7.67,7.67,0,0,1-1.29-.1,7.59,7.59,0,0,1-1.09-.26,5,5,0,0,1-.8-.31,2.13,2.13,0,0,1-.47-.3,1.05,1.05,0,0,1-.23-.45,3.84,3.84,0,0,1-.08-.89,5.11,5.11,0,0,1,0-.62,1.56,1.56,0,0,1,.08-.38.29.29,0,0,1,.33-.23.91.91,0,0,1,.44.17c.19.11.43.23.72.37a6.64,6.64,0,0,0,1,.37,4.28,4.28,0,0,0,1.29.18,3.32,3.32,0,0,0,.81-.1,1.85,1.85,0,0,0,.62-.27,1.17,1.17,0,0,0,.39-.44A1.35,1.35,0,0,0,318,243a1.06,1.06,0,0,0-.25-.69,2.16,2.16,0,0,0-.66-.5,6.05,6.05,0,0,0-.92-.4l-1.06-.42a10.4,10.4,0,0,1-1.06-.52,3.9,3.9,0,0,1-.93-.73,3.18,3.18,0,0,1-.65-1,3.73,3.73,0,0,1-.25-1.45,3.68,3.68,0,0,1,.33-1.57,3.51,3.51,0,0,1,1-1.23,4.39,4.39,0,0,1,1.54-.79,6.72,6.72,0,0,1,2-.29,7.88,7.88,0,0,1,1.09.08q.53.09,1,.21a4.48,4.48,0,0,1,.72.26,1.8,1.8,0,0,1,.42.24.7.7,0,0,1,.19.2,1.35,1.35,0,0,1,.08.24c0,.1,0,.21.05.35s0,.31,0,.52,0,.44,0,.59a2.08,2.08,0,0,1-.07.36.33.33,0,0,1-.13.18.38.38,0,0,1-.19.05,1,1,0,0,1-.38-.14,4.17,4.17,0,0,0-.63-.3,8.26,8.26,0,0,0-.89-.31,4.34,4.34,0,0,0-1.14-.14,2.62,2.62,0,0,0-.79.1,1.62,1.62,0,0,0-.56.26,1.38,1.38,0,0,0-.32.41,1.25,1.25,0,0,0-.1.51,1,1,0,0,0,.25.69,2.35,2.35,0,0,0,.67.5,7.15,7.15,0,0,0,1,.4c.35.13.71.26,1.07.41a9.57,9.57,0,0,1,1.07.52,4.25,4.25,0,0,1,.95.72,3.33,3.33,0,0,1,.67,1,3.59,3.59,0,0,1,.25,1.41"/><path class="e" d="M327.22,246.11a.4.4,0,0,1-.08.23.67.67,0,0,1-.28.17,2.52,2.52,0,0,1-.52.1c-.21,0-.48,0-.82,0s-.6,0-.81,0a2.52,2.52,0,0,1-.52-.1.57.57,0,0,1-.27-.17.34.34,0,0,1-.08-.23V234.17a.35.35,0,0,1,.08-.24.66.66,0,0,1,.27-.18,3.27,3.27,0,0,1,.52-.11c.21,0,.49,0,.81,0s.61,0,.82,0a3.27,3.27,0,0,1,.52.11.8.8,0,0,1,.28.18.41.41,0,0,1,.08.24Zm.25-16a1.93,1.93,0,0,1-.41,1.41,2.37,2.37,0,0,1-1.55.39,2.31,2.31,0,0,1-1.54-.38,1.85,1.85,0,0,1-.39-1.35,1.94,1.94,0,0,1,.41-1.42,3.2,3.2,0,0,1,3.08,0,1.83,1.83,0,0,1,.4,1.36"/><path class="e" d="M343.54,230.09a1.93,1.93,0,0,1-.41,1.41,2.36,2.36,0,0,1-1.55.38,2.27,2.27,0,0,1-1.53-.37,1.84,1.84,0,0,1-.4-1.35,1.94,1.94,0,0,1,.41-1.42,3.2,3.2,0,0,1,3.08,0,1.81,1.81,0,0,1,.4,1.36m-1.27,3.59a1,1,0,0,1,.78.24,1,1,0,0,1,.22.7V246.1a.35.35,0,0,1-.08.24.59.59,0,0,1-.26.17,2.52,2.52,0,0,1-.52.1q-.33,0-.81,0c-.33,0-.61,0-.83,0a2.28,2.28,0,0,1-.51-.1.57.57,0,0,1-.27-.17.35.35,0,0,1-.08-.24v-9.68h-5.38V242a2.77,2.77,0,0,0,.31,1.47,1.17,1.17,0,0,0,1.09.49,2.38,2.38,0,0,0,.49-.05,1.89,1.89,0,0,0,.38-.11l.28-.1a.63.63,0,0,1,.21-.05.37.37,0,0,1,.16.05.31.31,0,0,1,.11.19,2.18,2.18,0,0,1,.07.38,4.81,4.81,0,0,1,0,.62,4.74,4.74,0,0,1-.07.89,1.07,1.07,0,0,1-.19.44,1,1,0,0,1-.36.24,3.36,3.36,0,0,1-.56.18c-.21,0-.43.08-.68.11a6.17,6.17,0,0,1-.75,0,5.31,5.31,0,0,1-1.74-.26,2.92,2.92,0,0,1-1.22-.78,3.27,3.27,0,0,1-.71-1.33,7.19,7.19,0,0,1-.23-1.91v-6.13h-1.44c-.17,0-.29-.11-.38-.32a2.85,2.85,0,0,1-.14-1,4.16,4.16,0,0,1,0-.66,1.29,1.29,0,0,1,.1-.42.4.4,0,0,1,.4-.29h1.42V231a.35.35,0,0,1,.08-.24.49.49,0,0,1,.26-.18,2.55,2.55,0,0,1,.53-.11q.33,0,.81,0c.33,0,.6,0,.82,0a2.44,2.44,0,0,1,.52.11.64.64,0,0,1,.27.18.41.41,0,0,1,.08.24v2.67Z"/><path class="e" d="M357.68,234.12v.17l0,.2c0,.08,0,.17,0,.26s-.06.21-.09.34l-3.6,10.83a1,1,0,0,1-.18.37.85.85,0,0,1-.38.22,2.93,2.93,0,0,1-.71.1q-.45,0-1.17,0c-.47,0-.86,0-1.16,0a2.88,2.88,0,0,1-.71-.12.64.64,0,0,1-.36-.22,1.06,1.06,0,0,1-.19-.35l-3.59-10.83c0-.18-.1-.34-.13-.48s0-.25-.05-.31a1.09,1.09,0,0,1,0-.18.48.48,0,0,1,.07-.23.63.63,0,0,1,.27-.17,2.37,2.37,0,0,1,.51-.09c.22,0,.5,0,.83,0a7.21,7.21,0,0,1,.89,0,2.62,2.62,0,0,1,.52.09.49.49,0,0,1,.28.18.85.85,0,0,1,.13.27L351.5,243l.08.33.08-.33,2.68-8.79a.68.68,0,0,1,.13-.27.54.54,0,0,1,.27-.18,2.64,2.64,0,0,1,.51-.09,6.11,6.11,0,0,1,.82,0q.49,0,.81,0a2.16,2.16,0,0,1,.49.09.46.46,0,0,1,.24.17.39.39,0,0,1,.07.23"/><path class="e" d="M367.17,238.81a3.42,3.42,0,0,0-.57-2.23,2.17,2.17,0,0,0-1.88-.82,2.46,2.46,0,0,0-1.12.24,2.2,2.2,0,0,0-.79.66,2.88,2.88,0,0,0-.48,1,4.56,4.56,0,0,0-.2,1.19Zm3.28,1a1.35,1.35,0,0,1-.28.92,1,1,0,0,1-.76.29h-7.28a5,5,0,0,0,.18,1.39,2.54,2.54,0,0,0,.58,1.06,2.44,2.44,0,0,0,1,.66,4.13,4.13,0,0,0,1.49.23,8,8,0,0,0,1.56-.13,10.45,10.45,0,0,0,1.16-.28,8.15,8.15,0,0,0,.81-.28,1.4,1.4,0,0,1,.52-.13.39.39,0,0,1,.2.05.35.35,0,0,1,.14.17,1.18,1.18,0,0,1,.07.34,4.53,4.53,0,0,1,0,.56c0,.19,0,.36,0,.5a2.62,2.62,0,0,1,0,.35,1.23,1.23,0,0,1-.08.25.9.9,0,0,1-.14.2,1.89,1.89,0,0,1-.48.25,8.31,8.31,0,0,1-1,.32q-.6.15-1.38.27a12.54,12.54,0,0,1-1.67.11,9,9,0,0,1-2.79-.4,4.79,4.79,0,0,1-3.21-3.29,9.83,9.83,0,0,1-.39-2.92,9.19,9.19,0,0,1,.41-2.88,5.94,5.94,0,0,1,1.21-2.17,5.2,5.2,0,0,1,1.92-1.37,6.71,6.71,0,0,1,2.56-.47,6.8,6.8,0,0,1,2.57.44,4.77,4.77,0,0,1,1.75,1.23,5.07,5.07,0,0,1,1,1.86,8,8,0,0,1,.33,2.34Z"/><path class="e" d="M294.44,278.05a5.79,5.79,0,0,1,0,.65,1.82,1.82,0,0,1-.1.43.6.6,0,0,1-.17.23.36.36,0,0,1-.22.07H285.2a1.06,1.06,0,0,1-.74-.26,1,1,0,0,1-.31-.85V263.19a1,1,0,0,1,.31-.85,1.06,1.06,0,0,1,.74-.26h8.67a.37.37,0,0,1,.21.06.56.56,0,0,1,.16.24,1.43,1.43,0,0,1,.1.43,5.54,5.54,0,0,1,0,.66,5.6,5.6,0,0,1,0,.64,1.44,1.44,0,0,1-.1.42.56.56,0,0,1-.16.24.31.31,0,0,1-.21.07h-6.2v4.24h5.24a.41.41,0,0,1,.22.07.51.51,0,0,1,.17.23,1.29,1.29,0,0,1,.1.42,5.66,5.66,0,0,1,0,.63,5.79,5.79,0,0,1,0,.65,1.29,1.29,0,0,1-.1.41.48.48,0,0,1-.17.22.41.41,0,0,1-.22.07h-5.24v4.89h6.25a.37.37,0,0,1,.22.08.48.48,0,0,1,.17.23,1.85,1.85,0,0,1,.1.42,5.92,5.92,0,0,1,0,.65"/><path class="e" d="M307.62,274.23a5.37,5.37,0,0,1-.51,2.4,5,5,0,0,1-1.38,1.73,5.94,5.94,0,0,1-2,1,8.42,8.42,0,0,1-2.49.35,8.71,8.71,0,0,1-1.67-.15,8.12,8.12,0,0,1-1.36-.35,6,6,0,0,1-1-.43,2.92,2.92,0,0,1-.57-.41,1,1,0,0,1-.25-.5,4.59,4.59,0,0,1-.07-.95,6.73,6.73,0,0,1,0-.69,1.74,1.74,0,0,1,.08-.46.54.54,0,0,1,.16-.25.4.4,0,0,1,.24-.07,1.11,1.11,0,0,1,.53.22,8,8,0,0,0,.88.49,7.65,7.65,0,0,0,1.28.49,5.94,5.94,0,0,0,1.72.22,3.67,3.67,0,0,0,1.15-.16,2.53,2.53,0,0,0,.87-.43,1.77,1.77,0,0,0,.54-.7,2.13,2.13,0,0,0,.19-.92,1.65,1.65,0,0,0-.32-1,3.08,3.08,0,0,0-.84-.75,9.77,9.77,0,0,0-1.17-.62l-1.36-.6a11.8,11.8,0,0,1-1.35-.74,5.25,5.25,0,0,1-1.17-1,4.45,4.45,0,0,1-.85-1.34,5,5,0,0,1-.32-1.87,4.9,4.9,0,0,1,.47-2.19A4.38,4.38,0,0,1,298.3,263a5.07,5.07,0,0,1,1.84-.93,8,8,0,0,1,2.27-.31,8.48,8.48,0,0,1,1.23.09,7.76,7.76,0,0,1,1.15.26,5.73,5.73,0,0,1,.95.36,2.07,2.07,0,0,1,.55.33,1.5,1.5,0,0,1,.19.23,1.86,1.86,0,0,1,.08.25,2,2,0,0,1,0,.39c0,.16,0,.35,0,.58s0,.48,0,.66a2.13,2.13,0,0,1-.07.44.63.63,0,0,1-.13.26.36.36,0,0,1-.24.08,1.09,1.09,0,0,1-.47-.19c-.21-.12-.47-.26-.79-.41a8.43,8.43,0,0,0-1.09-.4,4.79,4.79,0,0,0-1.35-.18,3.08,3.08,0,0,0-1,.14,2.08,2.08,0,0,0-.72.39,1.46,1.46,0,0,0-.42.59,1.87,1.87,0,0,0-.14.74,1.61,1.61,0,0,0,.31,1,3,3,0,0,0,.85.75,8.38,8.38,0,0,0,1.2.62l1.36.61a12.89,12.89,0,0,1,1.37.73,5.42,5.42,0,0,1,1.2,1,4.48,4.48,0,0,1,.84,1.34,4.62,4.62,0,0,1,.32,1.82"/><path class="e" d="M324.24,264.77a6.32,6.32,0,0,1,0,.67,2,2,0,0,1-.09.45.55.55,0,0,1-.15.24.37.37,0,0,1-.21.06,1.34,1.34,0,0,1-.56-.24,9.7,9.7,0,0,0-1-.52,11,11,0,0,0-1.54-.52,8,8,0,0,0-2.07-.25,5.76,5.76,0,0,0-2.28.44,4.77,4.77,0,0,0-1.75,1.24,5.55,5.55,0,0,0-1.11,1.91,7.54,7.54,0,0,0-.39,2.48,7.8,7.8,0,0,0,.4,2.62,5.28,5.28,0,0,0,1.1,1.9,4.66,4.66,0,0,0,1.71,1.15,6,6,0,0,0,2.21.39,5.18,5.18,0,0,0,1.17-.13,4.31,4.31,0,0,0,1.07-.41v-4H317.4c-.16,0-.28-.1-.37-.3a2.72,2.72,0,0,1-.14-1,5.27,5.27,0,0,1,0-.63,1.37,1.37,0,0,1,.1-.41.48.48,0,0,1,.16-.22.32.32,0,0,1,.21-.08h5.87a.92.92,0,0,1,.38.08.68.68,0,0,1,.29.22.92.92,0,0,1,.2.35,1.75,1.75,0,0,1,.06.48v6.91a1.54,1.54,0,0,1-.14.7,1,1,0,0,1-.57.48c-.29.11-.65.24-1.08.36s-.88.23-1.34.32a15.09,15.09,0,0,1-2.81.27,10.79,10.79,0,0,1-3.72-.6,7.28,7.28,0,0,1-4.53-4.49,11.74,11.74,0,0,1,0-7.53,8.07,8.07,0,0,1,1.83-2.88,7.79,7.79,0,0,1,2.85-1.82,10.44,10.44,0,0,1,3.72-.63,12.89,12.89,0,0,1,2.05.15,12.19,12.19,0,0,1,1.62.38,6.76,6.76,0,0,1,1.15.48,2.74,2.74,0,0,1,.63.44,1.15,1.15,0,0,1,.27.53,5.19,5.19,0,0,1,.07,1"/><path class="e" d="M346.49,263a1.93,1.93,0,0,1-.41,1.41,3.31,3.31,0,0,1-3.08,0,1.84,1.84,0,0,1-.4-1.36,2,2,0,0,1,.41-1.42,3.27,3.27,0,0,1,3.08,0,1.84,1.84,0,0,1,.4,1.36m-1.27,3.6a1,1,0,0,1,.78.24,1,1,0,0,1,.23.7V279a.36.36,0,0,1-.08.23.6.6,0,0,1-.27.17,2,2,0,0,1-.52.1c-.22,0-.49,0-.81,0s-.61,0-.83,0a2,2,0,0,1-.52-.1.51.51,0,0,1-.26-.17.31.31,0,0,1-.08-.23v-9.69h-5.38v5.62a2.73,2.73,0,0,0,.31,1.47,1.18,1.18,0,0,0,1.1.49,2.39,2.39,0,0,0,.48,0l.38-.11.28-.11a.63.63,0,0,1,.21-.05.33.33,0,0,1,.16.05.36.36,0,0,1,.11.19,2.18,2.18,0,0,1,.07.38,4.94,4.94,0,0,1,0,.62,4,4,0,0,1-.07.89,1,1,0,0,1-.19.44.81.81,0,0,1-.36.24,3.36,3.36,0,0,1-.56.18,4.6,4.6,0,0,1-.68.11,6.28,6.28,0,0,1-.75,0,5.33,5.33,0,0,1-1.74-.25,2.84,2.84,0,0,1-1.22-.79,3.2,3.2,0,0,1-.71-1.33,6.75,6.75,0,0,1-.23-1.91v-6.13h-1.44a.43.43,0,0,1-.39-.31,3,3,0,0,1-.13-1.06,6,6,0,0,1,0-.65,2.17,2.17,0,0,1,.1-.42.62.62,0,0,1,.17-.23.48.48,0,0,1,.24-.06h1.42v-2.67a.45.45,0,0,1,.07-.25.66.66,0,0,1,.27-.18,2.67,2.67,0,0,1,.52-.1c.22,0,.49,0,.82,0s.6,0,.82,0a2.52,2.52,0,0,1,.52.1.84.84,0,0,1,.27.18.46.46,0,0,1,.08.25v2.67Z"/><path class="e" d="M353,279a.36.36,0,0,1-.08.23.58.58,0,0,1-.28.17,2,2,0,0,1-.51.1c-.22,0-.49,0-.82,0s-.61,0-.82,0a2.08,2.08,0,0,1-.52-.1.5.5,0,0,1-.27-.17.31.31,0,0,1-.08-.23V261.34a.35.35,0,0,1,.08-.24.58.58,0,0,1,.27-.18,2.51,2.51,0,0,1,.52-.12,6.21,6.21,0,0,1,.82,0,6.3,6.3,0,0,1,.82,0,2.4,2.4,0,0,1,.51.12.68.68,0,0,1,.28.18.41.41,0,0,1,.08.24Z"/><path class="e" d="M363.53,277.8a4.87,4.87,0,0,1-.07.9,1.05,1.05,0,0,1-.2.45,1.25,1.25,0,0,1-.35.23,4.53,4.53,0,0,1-.55.17,6.24,6.24,0,0,1-.69.11,6.12,6.12,0,0,1-.74,0,5.33,5.33,0,0,1-1.74-.25,2.88,2.88,0,0,1-1.23-.79,3.2,3.2,0,0,1-.71-1.33,7.14,7.14,0,0,1-.23-1.91v-6.13h-1.43a.42.42,0,0,1-.39-.31,2.88,2.88,0,0,1-.14-1.05,5.83,5.83,0,0,1,0-.66,1.29,1.29,0,0,1,.1-.42.4.4,0,0,1,.17-.22.37.37,0,0,1,.23-.07H357v-2.67a.41.41,0,0,1,.08-.24.46.46,0,0,1,.27-.18,1.56,1.56,0,0,1,.52-.11,6.24,6.24,0,0,1,.81,0,6.47,6.47,0,0,1,.83,0,1.55,1.55,0,0,1,.51.11.46.46,0,0,1,.27.18.35.35,0,0,1,.08.24v2.67H363a.4.4,0,0,1,.24.07.44.44,0,0,1,.17.22,2.17,2.17,0,0,1,.1.42,6.12,6.12,0,0,1,0,.66,2.93,2.93,0,0,1-.13,1.05.43.43,0,0,1-.39.31h-2.62v5.62a2.73,2.73,0,0,0,.31,1.47,1.19,1.19,0,0,0,1.1.49,2.33,2.33,0,0,0,.48,0l.39-.11.28-.11a.51.51,0,0,1,.2,0,.29.29,0,0,1,.16,0,.27.27,0,0,1,.11.19,3.43,3.43,0,0,1,.08.38,5.22,5.22,0,0,1,0,.62"/></g><path class="e" d="M219.14,480.79l8.51.62,9.17.21.12-4.4-9.19-.21-8.28-.61Zm42.67-4.66L250.5,477H250l.12,4.4.68,0,11.53-.88,5.54-.7-.55-4.37Zm-73.44-.06,4.37,1,11.62,2,1.55.19.55-4.37-1.57-.19-11.39-2-4.15-1Zm106.77-5.77-11,2.48-3.83.67.74,4.34,4.07-.72,11.21-2.53,2.13-.59-1.19-4.25Zm-136.56-2.88,11.06,3.74,5.82,1.65,1.2-4.24-5.82-1.65L160,463.25Zm158.14-3.67L309.85,466l1.37,4.18,7.09-2.34,9.56-3.69-1.58-4.11Zm-186.58-9,5.49,2.87,10.48,4.8,1.84-4-10.49-4.8-5.28-2.77Zm217.56-4.7-9.51,4.75,2,3.94,9.71-4.86,6-3.37-2.16-3.84ZM103.49,438.68l.51.37,10.13,6.68,4.37,2.56,2.23-3.79-4.37-2.57-9.94-6.56-.33-.24Zm273.07-6.78-9.35,6.54-2.31,1.46,2.33,3.72,2.5-1.57,9.53-6.66,2.56-2-2.7-3.49ZM79.33,419.22l5.7,5.15,7.79,6.34,2.78-3.41L87.82,421l-5.55-5Zm315-1.79-5,4.28,2.85,3.34,5.17-4.42,7.93-7.51-3-3.19ZM57.77,396.78l2.11,2.55,7.94,8.72L69.75,410l3.11-3.12-1.93-1.93-7.79-8.56-2-2.39Zm360.68-4.52-7.2,8.29,3.35,2.89,7.32-8.46,4-5.13-3.47-2.72ZM39.33,371.85l6.07,9,4.09,5.48L53,383.73l-4.09-5.49-6-8.85ZM439,363.16l-6.44,10.13-2.33,3.31,3.58,2.54,2.47-3.49,6.56-10.32.64-1.17L439.71,362ZM24.23,344.65l3,6.27,5.12,9.45,3.87-2.1-5.13-9.45-2.93-6.08Zm426.3-3-4.48,8.9,3.95,2,4.54-9.09,3-6.91-4-1.78ZM12.61,315.8l1,3,4.05,10.93,1.19,2.78,4.05-1.72L21.68,328l-4-10.74-.88-2.78Zm451-8.18-3.74,11.44-1.35,3.54,4.11,1.57,1.43-3.74,3.8-11.66.4-1.5L464,306.11ZM4.7,285.81,7,296.38l1.79,6.67L13,301.91l-1.79-6.67L9,284.88Zm464.57-1.31-2,8.94,4.28.95,2-9.14L475,277l-4.33-.75ZM.66,255l.5,6.79,1.31,10.83,4.37-.53L5.53,261.24l-.48-6.58Zm472.8-5.4-.82,11.65-.26,2.07,4.37.51.27-2.27.84-11.86.08-3.64-4.4-.1ZM.26,226.41,0,238.23l.09,3.44,4.4-.1-.09-3.45.27-11.62.16-2.33-4.39-.31Zm472.38-11.06.8,11,.16,6.45,4.4-.09-.18-6.7-.8-11ZM2.52,202.67l-.94,7.92,4.37.53,1-7.92,1.58-9.39-4.34-.73Zm465.3-17.42,1.49,6.81,1.74,10.39,4.35-.72-1.78-10.61-1.49-6.81Zm-457.5-18L7.13,179l-.23,1,4.3,1,.22-1,3.15-11.53,1.37-4.2-4.18-1.35ZM459.37,156l1.06,2.88,3.48,10.92.74,2.77,4.25-1.13-.8-3-3.55-11.1-1.05-2.87ZM18.53,144.08l-2.38,6.25,4.11,1.58,2.39-6.26L27,135.77,23,134ZM447.3,127.86l4.67,9.71,2.65,6.18,4.05-1.72L456,135.65l-4.7-9.71ZM37,107.9l-2.9,4.8-2.8,4.87L28.92,122l3.88,2.1,2.39-4.41,2.75-4.79,2.85-4.72.76-1.19-3.72-2.35Zm394.72-6.26,3.85,5.73,5.51,9.06,3.75-2.27-5.6-9.25-3.85-5.74ZM53,85.08l-3.41,4.41L46.32,94l-1.11,1.56,3.61,2.53,1.1-1.57,3.25-4.4,3.34-4.32,2.9-3.59L56,81.45Zm360-7.51L415,79.7l7.32,8.91,1.8,2.38,3.52-2.62-1.92-2.56-7.47-9.06-1.94-2.13Zm-337.66-17-4,3.87-3.87,3.95-2.81,3,3.23,3,2.8-3,3.79-3.87,3.89-3.82L80.28,62l-3-3.21Zm315.94-4.48L399,62.93,404.09,68l3.09-3.11-5.26-5.24-7.63-6.89ZM100.83,39.32,96.39,42.6,92,46l-4.3,3.5-.52.43,2.86,3.35.52-.43,4.21-3.43,4.28-3.34,4.36-3.23.36-.24L101.29,39Zm266.24-1.69,4.64,3.08,9.51,7,0,0,2.78-3.4-.2-.16L374.13,37,369.5,34ZM124.16,24.43l-4.8,2.75-4.74,2.88-2.32,1.49,2.37,3.7L117,33.78,121.64,31l4.71-2.7,3.38-1.84-2.1-3.87Zm216.39-2,10.86,5.68L356,30.73l2.23-3.8-4.73-2.78L342.61,18.5ZM140.72,25.77l9.36-11.44-14.76-.61Z"/><g class="b"><path class="e" d="M166.2,347.24a131.42,131.42,0,0,1-30.34-50.84l1.86-.6a129.4,129.4,0,0,0,29.89,50.08Z"/><path class="e" d="M225,373.34l-2.2-.34-4.1-.77-4.08-.91-4-1.05-4-1.19-3.91-1.33-3.88-1.46-3.83-1.6L191.24,363l-3.7-1.86-3.63-2L180.34,357l-3.5-2.23-3.43-2.37-3.34-2.5-3.26-2.61,1.22-1.52,3.21,2.56,3.28,2.46,3.38,2.33,3.44,2.2,3.5,2.08,3.58,1.95,3.64,1.84,3.69,1.68,3.78,1.58,3.81,1.44,3.86,1.31,3.91,1.16,4,1,4,.9,4,.76,2.19.34Zm-9.81-10.28,11.86,9.61-14.19,5.6a1,1,0,1,1-.72-1.82l12.64-5-.25,1.67L214,364.58a1,1,0,0,1-.14-1.38,1,1,0,0,1,1.37-.14"/></g><path class="e" d="M233.62,412.61h1.95v-7.82h-1.95Zm0-13.7h1.95v-7.82h-1.95Zm0-13.69h1.95v-7.83h-1.95Zm0-13.7h1.95v-7.83h-1.95Zm0-13.7h1.95V350h-1.95Zm0-13.7h1.95V336.3h-1.95Zm0-13.69h1.95V322.6h-1.95Zm0-13.7h1.95V308.9h-1.95Zm0-13.7h1.95v-7.82h-1.95Zm0-13.69h1.95v-7.83h-1.95Zm0-13.7h1.95v-7.83h-1.95Zm0-13.7h1.95v-7.83h-1.95Z"/></svg>