<svg xmlns="http://www.w3.org/2000/svg" viewBox="0 0 181.42 28.35"><defs><style>.a{fill:#00a1c1;}.b{fill:#efeff0;}.c{fill:#fff;}</style></defs><title>canlife-portfolio-4</title><polygon class="a" points="65.8 0.25 87.27 0.25 76.54 10.98 65.8 0.25"/><path class="b" d="M86.67.5,76.54,10.63,66.4.5H86.67m1.2-.5H65.2L76.54,11.34,87.87,0Z"/><path class="c" d="M76.44,7.28a3.57,3.57,0,0,1-1.93-.49l.43-1a2.57,2.57,0,0,0,1.4.46c.54,0,.89-.2.89-.55,0-.94-2.4-.58-2.4-2.35,0-.9.72-1.54,2-1.54a4.05,4.05,0,0,1,1.53.26v1.1a4.12,4.12,0,0,0-1.48-.34c-.46,0-.73.14-.73.45,0,.83,2.44.55,2.44,2.34C78.56,6.83,77.54,7.28,76.44,7.28Z"/></svg>